<svg width="109" height="500" viewBox="0 0 109 500" fill="none" xmlns="http://www.w3.org/2000/svg">
<mask id="path-1-outside-1_2145_1012" maskUnits="userSpaceOnUse" x="-1.00003" y="-7.00001" width="111" height="634" fill="black">
<rect fill="white" x="-1.00003" y="-7.00001" width="111" height="634"/>
<path d="M-1.52824e-06 -5.03791L96.05 -5.0379C98.2033 -2.3179 100.243 1.30876 102.17 5.8421C104.097 10.3754 105.683 15.4754 106.93 21.1421C108.177 26.9221 108.8 32.8721 108.8 38.9921C108.8 53.0454 105.287 64.1521 98.26 72.3121C91.3467 80.4721 81.3733 84.5521 68.34 84.5521C59.2733 84.5521 51.68 82.6254 45.56 78.7721C39.5533 75.0321 35.0767 69.9321 32.13 63.4721C29.1833 57.1254 27.71 50.0988 27.71 42.3921C27.71 38.3121 28.1067 34.7421 28.9 31.6821C29.6933 28.7354 30.7133 26.1288 31.96 23.8621L-2.7915e-06 23.8621L-1.52824e-06 -5.03791ZM51 40.0121C51 44.6588 52.4733 48.3988 55.42 51.2321C58.3667 54.1788 62.7867 55.6521 68.68 55.6521C74.2333 55.6521 78.54 54.1788 81.6 51.2321C84.7733 48.2854 86.36 43.6388 86.36 37.2921C86.36 32.0788 85.34 27.6021 83.3 23.8621L66.3 23.8621C60.9733 23.8621 57.0633 25.5054 54.57 28.7921C52.19 32.0788 51 35.8188 51 40.0121ZM-9.38413e-06 174.684L108.12 174.684L108.12 203.584L23.8 203.584L23.8 244.894L-1.24531e-05 244.894L-9.38413e-06 174.684ZM-1.62441e-05 331.622L108.29 369.022L108.29 403.532L-2.08959e-05 438.042L-1.9536e-05 406.932L21.42 400.472L21.42 369.872L-1.76337e-05 363.412L-1.62441e-05 331.622ZM45.22 376.332L45.22 395.712L76.33 386.702L76.33 386.022L45.22 376.332ZM-2.48347e-05 528.151L108.12 528.151L108.12 560.281L41.48 596.151L108.12 596.151L108.12 625.051L-2.90703e-05 625.051L-2.76287e-05 592.071L64.09 557.051L-2.60979e-05 557.051L-2.48347e-05 528.151Z"/>
</mask>
<path d="M-1.52824e-06 -5.03791L-1.48453e-06 -6.03791L-1 -6.03791L-1 -5.03791L-1.52824e-06 -5.03791ZM96.05 -5.0379L96.834 -5.65861L96.5338 -6.0379L96.05 -6.0379L96.05 -5.0379ZM102.17 5.8421L101.25 6.23324L101.25 6.23324L102.17 5.8421ZM106.93 21.1421L107.908 20.9313L107.907 20.9272L106.93 21.1421ZM98.26 72.3121L97.5022 71.6596L97.497 71.6657L98.26 72.3121ZM45.56 78.7721L46.0928 77.9259L46.0886 77.9232L45.56 78.7721ZM32.13 63.4721L33.0398 63.0571L33.037 63.051L32.13 63.4721ZM28.9 31.6821L27.9343 31.4221L27.932 31.4311L28.9 31.6821ZM31.96 23.8621L32.8362 24.344L33.6513 22.8621L31.96 22.8621L31.96 23.8621ZM-2.7915e-06 23.8621L-1 23.8621L-1 24.8621L-2.83521e-06 24.8621L-2.7915e-06 23.8621ZM55.42 51.2321L56.1271 50.525L56.1202 50.5181L56.1131 50.5113L55.42 51.2321ZM81.6 51.2321L80.9195 50.4993L80.9129 50.5055L80.9064 50.5118L81.6 51.2321ZM83.3 23.8621L84.1779 23.3832L83.8936 22.8621L83.3 22.8621L83.3 23.8621ZM54.57 28.7921L53.7733 28.1877L53.7666 28.1966L53.7601 28.2056L54.57 28.7921ZM-1.57195e-06 -4.03791L96.05 -4.0379L96.05 -6.0379L-1.48453e-06 -6.03791L-1.57195e-06 -4.03791ZM95.266 -4.4172C97.346 -1.78979 99.3446 1.75073 101.25 6.23324L103.09 5.45096C101.142 0.866792 99.0607 -2.84602 96.834 -5.65861L95.266 -4.4172ZM101.25 6.23324C103.148 10.7007 104.718 15.7403 105.953 21.357L107.907 20.9272C106.649 15.2105 105.045 10.0502 103.09 5.45096L101.25 6.23324ZM105.952 21.3529C107.184 27.0613 107.8 32.9405 107.8 38.9921L109.8 38.9921C109.8 32.8037 109.17 26.7829 107.908 20.9313L105.952 21.3529ZM107.8 38.9921C107.8 52.8803 104.33 63.7304 97.5022 71.6596L99.0178 72.9646C106.243 64.5738 109.8 53.2105 109.8 38.9921L107.8 38.9921ZM97.497 71.6657C90.8149 79.5528 81.1497 83.5521 68.34 83.5521L68.34 85.5521C81.5969 85.5521 91.8784 81.3914 99.023 72.9585L97.497 71.6657ZM68.34 83.5521C59.4143 83.5521 52.0173 81.6561 46.0928 77.9259L45.0272 79.6183C51.3427 83.5948 59.1324 85.5521 68.34 85.5521L68.34 83.5521ZM46.0886 77.9232C40.2495 74.2876 35.9051 69.3388 33.0398 63.0571L31.2202 63.8871C34.2482 70.5254 38.8572 75.7766 45.0314 79.621L46.0886 77.9232ZM33.037 63.051C30.1576 56.8491 28.71 49.9682 28.71 42.3921L26.71 42.3921C26.71 50.2293 28.2091 57.4017 31.223 63.8932L33.037 63.051ZM28.71 42.3921C28.71 38.3736 29.101 34.8914 29.868 31.9331L27.932 31.4311C27.1123 34.5928 26.71 38.2506 26.71 42.3921L28.71 42.3921ZM29.8656 31.9421C30.6417 29.0593 31.6343 26.5293 32.8362 24.344L31.0838 23.3802C29.7924 25.7282 28.7449 28.4116 27.9344 31.4221L29.8656 31.9421ZM31.96 22.8621L-2.74779e-06 22.8621L-2.83521e-06 24.8621L31.96 24.8621L31.96 22.8621ZM0.999997 23.8621L0.999998 -5.03791L-1 -5.03791L-1 23.8621L0.999997 23.8621ZM50 40.0121C50 44.8901 51.5566 48.9046 54.7269 51.9529L56.1131 50.5113C53.3901 47.8929 52 44.4275 52 40.0121L50 40.0121ZM54.7129 51.9392C57.9132 55.1395 62.6325 56.6521 68.68 56.6521L68.68 54.6521C62.9408 54.6521 58.8201 53.218 56.1271 50.525L54.7129 51.9392ZM68.68 56.6521C74.4098 56.6521 78.9955 55.1284 82.2936 51.9524L80.9064 50.5118C78.0845 53.2291 74.0569 54.6521 68.68 54.6521L68.68 56.6521ZM82.2805 51.9649C85.7368 48.7554 87.36 43.7862 87.36 37.2921L85.36 37.2921C85.36 43.4913 83.8099 47.8154 80.9195 50.4993L82.2805 51.9649ZM87.36 37.2921C87.36 31.9485 86.3141 27.2996 84.1779 23.3832L82.4221 24.3409C84.3659 27.9046 85.36 32.209 85.36 37.2921L87.36 37.2921ZM83.3 22.8621L66.3 22.8621L66.3 24.8621L83.3 24.8621L83.3 22.8621ZM66.3 22.8621C60.7602 22.8621 56.5088 24.5819 53.7733 28.1877L55.3667 29.3965C57.6179 26.429 61.1864 24.8621 66.3 24.8621L66.3 22.8621ZM53.7601 28.2056C51.2522 31.6688 50 35.6156 50 40.0121L52 40.0121C52 36.0219 53.1278 32.4887 55.3799 29.3786L53.7601 28.2056ZM-9.38413e-06 174.684L-9.34042e-06 173.684L-1.00001 173.684L-1.00001 174.684L-9.38413e-06 174.684ZM108.12 174.684L109.12 174.684L109.12 173.684L108.12 173.684L108.12 174.684ZM108.12 203.584L108.12 204.584L109.12 204.584L109.12 203.584L108.12 203.584ZM23.8 203.584L23.8 202.584L22.8 202.584L22.8 203.584L23.8 203.584ZM23.8 244.894L23.8 245.894L24.8 245.894L24.8 244.894L23.8 244.894ZM-1.24531e-05 244.894L-1.00001 244.894L-1.00001 245.894L-1.24968e-05 245.894L-1.24531e-05 244.894ZM-9.42785e-06 175.684L108.12 175.684L108.12 173.684L-9.34042e-06 173.684L-9.42785e-06 175.684ZM107.12 174.684L107.12 203.584L109.12 203.584L109.12 174.684L107.12 174.684ZM108.12 202.584L23.8 202.584L23.8 204.584L108.12 204.584L108.12 202.584ZM22.8 203.584L22.8 244.894L24.8 244.894L24.8 203.584L22.8 203.584ZM23.8 243.894L-1.24094e-05 243.894L-1.24968e-05 245.894L23.8 245.894L23.8 243.894ZM0.999988 244.894L0.999991 174.684L-1.00001 174.684L-1.00001 244.894L0.999988 244.894ZM-1.62441e-05 331.622L0.326432 330.677L-1.00002 330.219L-1.00002 331.622L-1.62441e-05 331.622ZM108.29 369.022L109.29 369.022L109.29 368.309L108.616 368.077L108.29 369.022ZM108.29 403.532L108.594 404.485L109.29 404.263L109.29 403.532L108.29 403.532ZM-2.08959e-05 438.042L-1.00002 438.042L-1.00002 439.41L0.303615 438.995L-2.08959e-05 438.042ZM-1.9536e-05 406.932L-0.288761 405.974L-1.00002 406.189L-1.00002 406.932L-1.9536e-05 406.932ZM21.42 400.472L21.7087 401.429L22.42 401.215L22.42 400.472L21.42 400.472ZM21.42 369.872L22.42 369.872L22.42 369.129L21.7087 368.914L21.42 369.872ZM-1.76337e-05 363.412L-1.00002 363.412L-1.00002 364.155L-0.288759 364.369L-1.76337e-05 363.412ZM45.22 376.332L45.5174 375.377L44.22 374.973L44.22 376.332L45.22 376.332ZM45.22 395.712L44.22 395.712L44.22 397.043L45.4982 396.672L45.22 395.712ZM76.33 386.702L76.6082 387.662L77.33 387.453L77.33 386.702L76.33 386.702ZM76.33 386.022L77.33 386.022L77.33 385.286L76.6274 385.067L76.33 386.022ZM-0.326464 332.567L107.964 369.967L108.616 368.077L0.326432 330.677L-0.326464 332.567ZM107.29 369.022L107.29 403.532L109.29 403.532L109.29 369.022L107.29 369.022ZM107.986 402.579L-0.303657 437.089L0.303615 438.995L108.594 404.485L107.986 402.579ZM0.999979 438.042L0.99998 406.932L-1.00002 406.932L-1.00002 438.042L0.999979 438.042ZM0.288722 407.889L21.7087 401.429L21.1312 399.514L-0.288761 405.974L0.288722 407.889ZM22.42 400.472L22.42 369.872L20.42 369.872L20.42 400.472L22.42 400.472ZM21.7087 368.914L0.288724 362.454L-0.288759 364.369L21.1312 370.829L21.7087 368.914ZM0.999982 363.412L0.999984 331.622L-1.00002 331.622L-1.00002 363.412L0.999982 363.412ZM44.22 376.332L44.22 395.712L46.22 395.712L46.22 376.332L44.22 376.332ZM45.4982 396.672L76.6082 387.662L76.0518 385.741L44.9418 394.751L45.4982 396.672ZM77.33 386.702L77.33 386.022L75.33 386.022L75.33 386.702L77.33 386.702ZM76.6274 385.067L45.5174 375.377L44.9226 377.287L76.0326 386.977L76.6274 385.067ZM-2.48347e-05 528.151L-2.4791e-05 527.151L-1.00002 527.151L-1.00002 528.151L-2.48347e-05 528.151ZM108.12 528.151L109.12 528.151L109.12 527.151L108.12 527.151L108.12 528.151ZM108.12 560.281L108.594 561.162L109.12 560.879L109.12 560.281L108.12 560.281ZM41.48 596.151L41.006 595.271L41.48 597.151L41.48 596.151ZM108.12 596.151L109.12 596.151L109.12 595.151L108.12 595.151L108.12 596.151ZM108.12 625.051L108.12 626.051L109.12 626.051L109.12 625.051L108.12 625.051ZM-2.90703e-05 625.051L-1.00003 625.051L-1.00003 626.051L-2.9114e-05 626.051L-2.90703e-05 625.051ZM-2.76287e-05 592.071L-0.479532 591.194L-1.00003 591.478L-1.00003 592.071L-2.76287e-05 592.071ZM64.09 557.051L64.5695 557.929L64.09 556.051L64.09 557.051ZM-2.60979e-05 557.051L-1.00003 557.051L-1.00003 558.051L-2.61416e-05 558.051L-2.60979e-05 557.051ZM-2.48784e-05 529.151L108.12 529.151L108.12 527.151L-2.4791e-05 527.151L-2.48784e-05 529.151ZM107.12 528.151L107.12 560.281L109.12 560.281L109.12 528.151L107.12 528.151ZM107.646 559.401L41.006 595.271L41.9539 597.032L108.594 561.162L107.646 559.401ZM41.48 597.151L108.12 597.151L108.12 595.151L41.48 595.151L41.48 597.151ZM107.12 596.151L107.12 625.051L109.12 625.051L109.12 596.151L107.12 596.151ZM108.12 624.051L-2.90266e-05 624.051L-2.9114e-05 626.051L108.12 626.051L108.12 624.051ZM0.999971 625.051L0.999972 592.071L-1.00003 592.071L-1.00003 625.051L0.999971 625.051ZM0.479477 592.949L64.5695 557.929L63.6105 556.174L-0.479532 591.194L0.479477 592.949ZM64.09 556.051L-2.60542e-05 556.051L-2.61416e-05 558.051L64.09 558.051L64.09 556.051ZM0.999974 557.051L0.999975 528.151L-1.00002 528.151L-1.00003 557.051L0.999974 557.051Z" fill="white" mask="url(#path-1-outside-1_2145_1012)"/>
</svg>
