<svg width="126" height="586" viewBox="0 0 126 586" fill="none" xmlns="http://www.w3.org/2000/svg">
<path d="M-2.49328e-06 0.0395369L125.12 0.0395423L125.12 38.1195C125.12 65.9995 115.6 85.8895 87.21 85.8895C59.84 85.8895 47.43 65.9995 47.43 38.7995L47.43 19.9295L-3.3627e-06 19.9295L-2.49328e-06 0.0395369ZM63.24 19.9295L63.24 36.9295C63.24 56.8195 70.89 66.3395 87.21 66.3395C103.87 66.3395 109.14 56.1395 109.14 36.0795L109.14 19.9295L63.24 19.9295ZM-9.98691e-06 171.474L125.12 171.474L125.12 191.364L16.66 191.364L16.66 244.404L-1.31748e-05 244.404L-9.98691e-06 171.474ZM-1.60633e-05 310.485L125.12 351.795L125.12 374.745L-2.06779e-05 416.055L-1.97639e-05 395.145L67.83 375.085C81.43 370.835 95.54 367.095 109.48 363.185L109.48 362.505C95.37 358.765 81.43 355.025 67.83 350.775L-1.69401e-05 330.545L-1.60633e-05 310.485ZM35.53 333.775L51 333.775L51 392.255L35.53 392.255L35.53 333.775ZM-2.40743e-05 493.757L125.12 493.757L125.12 513.987L51.51 555.637L25.16 568.727L25.16 569.577C37.91 568.387 53.21 566.857 66.64 566.857L125.12 566.857L125.12 585.727L-2.80945e-05 585.727L-2.72028e-05 565.327L73.61 524.017L99.96 510.927L99.96 510.077C86.87 510.927 72.59 512.627 58.82 512.627L-2.48992e-05 512.627L-2.40743e-05 493.757Z" fill="#CDECFF"/>
</svg>
