<svg xmlns="http://www.w3.org/2000/svg" width="80" height="58" fill="none" viewBox="0 0 80 58">
  <g class="Group 123">
    <path stroke="#CDEEFF" stroke-linecap="round" stroke-linejoin="round" stroke-width="3.179" d="m48.776 46.954-5.882 7.508a3.01 3.01 0 0 1-1.172.859c-.48.205-1.02.313-1.57.313s-1.091-.108-1.571-.313a3.011 3.011 0 0 1-1.171-.86l-5.882-7.507a2.901 2.901 0 0 0-1.145-.867 3.911 3.911 0 0 0-1.557-.318H5.179c-.843 0-1.652-.257-2.248-.713C2.335 44.6 2 43.982 2 43.337V4.432c0-.645.335-1.264.931-1.72C3.527 2.256 4.336 2 5.18 2h69.945c.843 0 1.652.256 2.248.712.597.456.931 1.075.931 1.72v38.905c0 .645-.334 1.263-.93 1.72-.597.455-1.406.712-2.249.712H51.478a3.91 3.91 0 0 0-1.557.318 2.9 2.9 0 0 0-1.145.867Z" class="Vector"/>
    <path fill="#CDEEFF" d="M12.89 31.361V20.584c.304-.242.711-.471 1.22-.687a9.74 9.74 0 0 1 1.717-.534 9.473 9.473 0 0 1 2.003-.21c1.577 0 2.823.394 3.739 1.183.915.775 1.373 1.894 1.373 3.357 0 1.017-.216 1.87-.648 2.556a3.873 3.873 0 0 1-1.717 1.507c-.713.33-1.501.496-2.366.496a4.82 4.82 0 0 1-1.201-.134 3.94 3.94 0 0 1-.878-.343v3.586h-3.243Zm5.054-5.722c.522 0 .941-.166 1.26-.496.33-.331.495-.827.495-1.488 0-.623-.165-1.107-.496-1.45-.33-.356-.852-.534-1.564-.534-.585 0-1.087.114-1.507.343v1.908c0 .597.184 1.036.553 1.316.369.267.789.4 1.26.4Zm13.262 5.799c-1.272 0-2.372-.242-3.3-.725a5.146 5.146 0 0 1-2.118-2.118c-.496-.915-.744-2.009-.744-3.28 0-1.273.248-2.366.744-3.282a5.119 5.119 0 0 1 2.117-2.136c.929-.496 2.029-.744 3.3-.744 1.272 0 2.353.248 3.243.744a4.918 4.918 0 0 1 2.06 2.136c.471.916.706 2.01.706 3.281 0 1.908-.527 3.409-1.583 4.502-1.043 1.081-2.518 1.622-4.425 1.622Zm0-2.747c.864 0 1.52-.28 1.964-.84.458-.572.687-1.411.687-2.518 0-1.106-.229-1.952-.687-2.537-.445-.598-1.1-.896-1.965-.896-.864 0-1.551.299-2.06.896-.496.585-.744 1.43-.744 2.537s.248 1.946.744 2.518c.509.56 1.196.84 2.06.84Zm8.293 2.67V19.23h3.243v12.132H39.5Zm5.714 0V19.23h3.605l4.025 7.478V19.23h3.243v12.132h-3.7l-3.93-7.191v7.191h-3.243Zm16.118 0v-9.595h-3.148V19.23h9.538v2.537h-3.147v9.595H61.33Z" class="POINT"/>
  </g>
</svg>
