<svg width="639" height="557" viewBox="0 0 639 557" fill="none" xmlns="http://www.w3.org/2000/svg">
<mask id="path-1-outside-1_1787_604" maskUnits="userSpaceOnUse" x="554" y="74" width="73" height="293" fill="black">
<rect fill="white" x="554" y="74" width="73" height="293"/>
<path d="M557 77.2497L623.144 77.2497L623.144 96.9057L582.376 118.85L623.144 118.85L623.144 136.53L557 136.53L557 116.354L596.208 94.9297L557 94.9297L557 77.2497ZM557 188.493L623.248 211.373L623.248 232.485L557 253.597L557 234.565L570.104 230.613L570.104 211.893L557 207.941L557 188.493ZM584.664 215.845L584.664 227.701L603.696 222.189L603.696 221.773L584.664 215.845ZM557 308.723L615.76 308.723C617.077 310.387 618.325 312.605 619.504 315.379C620.683 318.152 621.653 321.272 622.416 324.739C623.179 328.275 623.56 331.915 623.56 335.659C623.56 344.256 621.411 351.051 617.112 356.043C612.883 361.035 606.781 363.531 598.808 363.531C593.261 363.531 588.616 362.352 584.872 359.995C581.197 357.707 578.459 354.587 576.656 350.635C574.853 346.752 573.952 342.453 573.952 337.739C573.952 335.243 574.195 333.059 574.68 331.187C575.165 329.384 575.789 327.789 576.552 326.403L557 326.403L557 308.723ZM588.2 336.283C588.2 339.125 589.101 341.413 590.904 343.147C592.707 344.949 595.411 345.851 599.016 345.851C602.413 345.851 605.048 344.949 606.92 343.147C608.861 341.344 609.832 338.501 609.832 334.619C609.832 331.429 609.208 328.691 607.96 326.403L597.56 326.403C594.301 326.403 591.909 327.408 590.384 329.419C588.928 331.429 588.2 333.717 588.2 336.283Z"/>
</mask>
<path d="M557 77.2497L557 74.2497L554 74.2497L554 77.2497L557 77.2497ZM623.144 77.2497L626.144 77.2497L626.144 74.2497L623.144 74.2497L623.144 77.2497ZM623.144 96.9057L624.566 99.5473L626.144 98.6979L626.144 96.9057L623.144 96.9057ZM582.376 118.85L580.954 116.208L582.376 121.85L582.376 118.85ZM623.144 118.85L626.144 118.85L626.144 115.85L623.144 115.85L623.144 118.85ZM623.144 136.53L623.144 139.53L626.144 139.53L626.144 136.53L623.144 136.53ZM557 136.53L554 136.53L554 139.53L557 139.53L557 136.53ZM557 116.354L555.561 113.721L554 114.574L554 116.354L557 116.354ZM596.208 94.9297L597.647 97.5623L596.208 91.9297L596.208 94.9297ZM557 94.9297L554 94.9297L554 97.9297L557 97.9297L557 94.9297ZM557 80.2497L623.144 80.2497L623.144 74.2497L557 74.2497L557 80.2497ZM620.144 77.2497L620.144 96.9057L626.144 96.9057L626.144 77.2497L620.144 77.2497ZM621.722 94.2641L580.954 116.208L583.798 121.491L624.566 99.5473L621.722 94.2641ZM582.376 121.85L623.144 121.85L623.144 115.85L582.376 115.85L582.376 121.85ZM620.144 118.85L620.144 136.53L626.144 136.53L626.144 118.85L620.144 118.85ZM623.144 133.53L557 133.53L557 139.53L623.144 139.53L623.144 133.53ZM560 136.53L560 116.354L554 116.354L554 136.53L560 136.53ZM558.439 118.986L597.647 97.5623L594.769 92.2971L555.561 113.721L558.439 118.986ZM596.208 91.9297L557 91.9297L557 97.9297L596.208 97.9297L596.208 91.9297ZM560 94.9297L560 77.2497L554 77.2497L554 94.9297L560 94.9297ZM557 188.493L557.979 185.657L554 184.283L554 188.493L557 188.493ZM623.248 211.373L626.248 211.373L626.248 209.235L624.227 208.537L623.248 211.373ZM623.248 232.485L624.159 235.343L626.248 234.678L626.248 232.485L623.248 232.485ZM557 253.597L554 253.597L554 257.702L557.911 256.455L557 253.597ZM557 234.565L556.134 231.693L554 232.336L554 234.565L557 234.565ZM570.104 230.613L570.97 233.485L573.104 232.842L573.104 230.613L570.104 230.613ZM570.104 211.893L573.104 211.893L573.104 209.664L570.97 209.021L570.104 211.893ZM557 207.941L554 207.941L554 210.17L556.134 210.813L557 207.941ZM584.664 215.845L585.556 212.981L581.664 211.769L581.664 215.845L584.664 215.845ZM584.664 227.701L581.664 227.701L581.664 231.693L585.499 230.583L584.664 227.701ZM603.696 222.189L604.531 225.071L606.696 224.444L606.696 222.189L603.696 222.189ZM603.696 221.773L606.696 221.773L606.696 219.565L604.588 218.909L603.696 221.773ZM556.021 191.329L622.269 214.209L624.227 208.537L557.979 185.657L556.021 191.329ZM620.248 211.373L620.248 232.485L626.248 232.485L626.248 211.373L620.248 211.373ZM622.337 229.627L556.089 250.739L557.911 256.455L624.159 235.343L622.337 229.627ZM560 253.597L560 234.565L554 234.565L554 253.597L560 253.597ZM557.866 237.437L570.97 233.485L569.238 227.741L556.134 231.693L557.866 237.437ZM573.104 230.613L573.104 211.893L567.104 211.893L567.104 230.613L573.104 230.613ZM570.97 209.021L557.866 205.069L556.134 210.813L569.238 214.765L570.97 209.021ZM560 207.941L560 188.493L554 188.493L554 207.941L560 207.941ZM581.664 215.845L581.664 227.701L587.664 227.701L587.664 215.845L581.664 215.845ZM585.499 230.583L604.531 225.071L602.861 219.308L583.829 224.82L585.499 230.583ZM606.696 222.189L606.696 221.773L600.696 221.773L600.696 222.189L606.696 222.189ZM604.588 218.909L585.556 212.981L583.772 218.709L602.804 224.637L604.588 218.909ZM557 308.723L557 305.723L554 305.723L554 308.723L557 308.723ZM615.76 308.723L618.112 306.861L617.211 305.723L615.76 305.723L615.76 308.723ZM619.504 315.379L616.743 316.552L616.743 316.552L619.504 315.379ZM622.416 324.739L625.349 324.106L625.346 324.094L622.416 324.739ZM617.112 356.043L614.839 354.085L614.831 354.094L614.823 354.104L617.112 356.043ZM584.872 359.995L586.47 357.456L586.464 357.452L586.458 357.448L584.872 359.995ZM576.656 350.635L579.385 349.39L579.381 349.381L579.377 349.371L576.656 350.635ZM574.68 331.187L571.783 330.407L571.78 330.42L571.776 330.434L574.68 331.187ZM576.552 326.403L579.181 327.849L581.626 323.403L576.552 323.403L576.552 326.403ZM557 326.403L554 326.403L554 329.403L557 329.403L557 326.403ZM590.904 343.147L593.025 341.026L593.005 341.005L592.983 340.984L590.904 343.147ZM606.92 343.147L604.879 340.948L604.859 340.967L604.839 340.986L606.92 343.147ZM607.96 326.403L610.594 324.966L609.741 323.403L607.96 323.403L607.96 326.403ZM590.384 329.419L587.994 327.606L587.974 327.632L587.954 327.659L590.384 329.419ZM557 311.723L615.76 311.723L615.76 305.723L557 305.723L557 311.723ZM613.408 310.585C614.505 311.971 615.629 313.931 616.743 316.552L622.265 314.205C621.022 311.28 619.649 308.802 618.112 306.861L613.408 310.585ZM616.743 316.552C617.838 319.128 618.756 322.067 619.486 325.383L625.346 324.094C624.55 320.477 623.528 317.176 622.265 314.205L616.743 316.552ZM619.483 325.371C620.2 328.692 620.56 332.12 620.56 335.659L626.56 335.659C626.56 331.71 626.158 327.857 625.349 324.106L619.483 325.371ZM620.56 335.659C620.56 343.761 618.541 349.786 614.839 354.085L619.385 358C624.28 352.316 626.56 344.751 626.56 335.659L620.56 335.659ZM614.823 354.104C611.287 358.277 606.111 360.531 598.808 360.531L598.808 366.531C607.452 366.531 614.478 363.793 619.401 357.982L614.823 354.104ZM598.808 360.531C593.684 360.531 589.628 359.444 586.47 357.456L583.274 362.534C587.604 365.26 592.838 366.531 598.808 366.531L598.808 360.531ZM586.458 357.448C583.286 355.473 580.944 352.807 579.385 349.39L573.927 351.88C575.973 356.367 579.109 359.94 583.286 362.542L586.458 357.448ZM579.377 349.371C577.776 345.923 576.952 342.062 576.952 337.739L570.952 337.739C570.952 342.845 571.931 347.581 573.935 351.898L579.377 349.371ZM576.952 337.739C576.952 335.427 577.178 333.507 577.584 331.94L571.776 330.434C571.212 332.611 570.952 335.058 570.952 337.739L576.952 337.739ZM577.577 331.967C578.011 330.356 578.552 328.991 579.181 327.849L573.923 324.957C573.026 326.588 572.32 328.413 571.783 330.407L577.577 331.967ZM576.552 323.403L557 323.403L557 329.403L576.552 329.403L576.552 323.403ZM560 326.403L560 308.723L554 308.723L554 326.403L560 326.403ZM585.2 336.283C585.2 339.819 586.351 342.931 588.825 345.309L592.983 340.984C591.851 339.896 591.2 338.432 591.2 336.283L585.2 336.283ZM588.783 345.268C591.346 347.832 594.948 348.851 599.016 348.851L599.016 342.851C595.873 342.851 594.067 342.067 593.025 341.026L588.783 345.268ZM599.016 348.851C602.943 348.851 606.414 347.798 609.001 345.308L604.839 340.986C603.682 342.101 601.884 342.851 599.016 342.851L599.016 348.851ZM608.961 345.345C611.752 342.754 612.832 338.944 612.832 334.619L606.832 334.619C606.832 338.059 605.971 339.934 604.879 340.948L608.961 345.345ZM612.832 334.619C612.832 331.039 612.13 327.783 610.594 324.966L605.326 327.839C606.286 329.598 606.832 331.82 606.832 334.619L612.832 334.619ZM607.96 323.403L597.56 323.403L597.56 329.403L607.96 329.403L607.96 323.403ZM597.56 323.403C593.662 323.403 590.246 324.637 587.994 327.606L592.774 331.232C593.573 330.179 594.941 329.403 597.56 329.403L597.56 323.403ZM587.954 327.659C586.115 330.2 585.2 333.108 585.2 336.283L591.2 336.283C591.2 334.327 591.741 332.659 592.814 331.178L587.954 327.659Z" fill="url(#paint0_linear_1787_604)" mask="url(#path-1-outside-1_1787_604)"/>
<mask id="path-3-outside-2_1787_604" maskUnits="userSpaceOnUse" x="-2.10929e-05" y="118" width="80" height="438" fill="black">
<rect fill="white" x="-2.10929e-05" y="118" width="80" height="438"/>
<path d="M4.90399 166.131L31.944 138.987L10 138.987L10 121.307L69.904 121.307C71.0133 122.971 72.0533 125.19 73.024 127.963C74.064 130.806 74.896 133.961 75.52 137.427C76.2133 140.894 76.56 144.43 76.56 148.035C76.56 156.841 74.5147 163.705 70.424 168.627C66.3333 173.619 60.6827 176.115 53.472 176.115C47.9947 176.115 43.4187 174.729 39.744 171.955C36.0693 169.251 33.3653 165.577 31.632 160.931L17.8 178.091L4.90399 166.131ZM42.448 148.867C42.448 151.918 43.4187 154.275 45.36 155.939C47.3013 157.603 49.7627 158.435 52.744 158.435C55.7947 158.435 58.2213 157.534 60.024 155.731C61.896 153.998 62.832 151.294 62.832 147.619C62.832 144.153 62.1387 141.275 60.752 138.987L52.64 138.987C49.3813 138.987 46.8507 139.923 45.048 141.795C43.3147 143.737 42.448 146.094 42.448 148.867ZM9.58399 262.689C9.58399 255.756 10.9013 249.759 13.536 244.697C16.24 239.705 20.088 235.857 25.08 233.153C30.072 230.449 36.0347 229.097 42.968 229.097C49.9013 229.097 55.864 230.449 60.856 233.153C65.9173 235.857 69.8 239.705 72.504 244.698C75.208 249.759 76.56 255.756 76.56 262.689C76.56 269.623 75.208 275.516 72.504 280.37C69.8 285.292 65.9173 289.036 60.856 291.602C55.864 294.167 49.9013 295.45 42.968 295.45C32.568 295.45 24.3867 292.572 18.424 286.817C12.5307 281.132 9.58399 273.089 9.58399 262.689ZM24.56 262.689C24.56 267.404 26.0853 270.975 29.136 273.401C32.256 275.898 36.832 277.146 42.864 277.146C48.896 277.146 53.5067 275.898 56.696 273.402C59.9547 270.975 61.584 267.404 61.584 262.689C61.584 257.975 59.9547 254.231 56.696 251.458C53.5067 248.753 48.896 247.401 42.864 247.401C36.832 247.401 32.256 248.753 29.136 251.457C26.0853 254.231 24.56 257.975 24.56 262.689ZM9.58399 384.114C9.58399 377.18 10.9013 371.183 13.536 366.122C16.24 361.13 20.088 357.282 25.08 354.578C30.072 351.874 36.0347 350.522 42.968 350.522C49.9013 350.522 55.864 351.874 60.856 354.578C65.9173 357.282 69.8 361.13 72.504 366.122C75.208 371.183 76.56 377.18 76.56 384.114C76.56 391.047 75.208 396.94 72.504 401.794C69.8 406.716 65.9173 410.46 60.856 413.026C55.864 415.591 49.9013 416.874 42.968 416.874C32.568 416.874 24.3867 413.996 18.424 408.242C12.5307 402.556 9.58399 394.514 9.58399 384.114ZM24.56 384.114C24.56 388.828 26.0853 392.399 29.136 394.826C32.256 397.322 36.832 398.57 42.864 398.57C48.896 398.57 53.5067 397.322 56.696 394.826C59.9547 392.399 61.584 388.828 61.584 384.114C61.584 379.399 59.9547 375.655 56.696 372.882C53.5067 370.178 48.896 368.826 42.864 368.826C36.832 368.826 32.256 370.178 29.136 372.882C26.0853 375.655 24.56 379.399 24.56 384.114ZM9.99998 470.93L76.144 477.17L76.144 497.97L39.224 511.594L37.976 511.906L39.224 512.114L76.144 526.466L76.144 547.266L9.99998 552.466L9.99998 533.746L50.04 531.666L51.808 531.354L51.808 531.146L50.04 530.626L16.24 518.146L16.24 505.666L50.04 493.082L51.808 492.666L51.808 492.354L50.04 492.042L9.99998 489.65L9.99998 470.93Z"/>
</mask>
<path d="M4.90399 166.131L2.77861 164.014L0.584351 166.217L2.864 168.331L4.90399 166.131ZM31.944 138.987L34.0694 141.104L39.167 135.987L31.944 135.987L31.944 138.987ZM10 138.987L7 138.987L7 141.987L10 141.987L10 138.987ZM10 121.307L10 118.307L7 118.307L7 121.307L10 121.307ZM69.904 121.307L72.4002 119.643L71.5096 118.307L69.904 118.307L69.904 121.307ZM73.024 127.963L70.1924 128.954L70.1994 128.974L70.2066 128.994L73.024 127.963ZM75.52 137.427L72.5675 137.959L72.5726 137.987L72.5783 138.016L75.52 137.427ZM70.424 168.627L68.1167 166.71L68.1101 166.718L68.1036 166.726L70.424 168.627ZM39.744 171.955L41.5512 169.561L41.5367 169.55L41.522 169.539L39.744 171.955ZM31.632 160.931L34.4427 159.882L32.6015 154.948L29.2963 159.048L31.632 160.931ZM17.8 178.091L15.76 180.291L18.1177 182.477L20.1357 179.974L17.8 178.091ZM45.36 155.939L43.4076 158.217L43.4076 158.217L45.36 155.939ZM60.024 155.731L57.9858 153.53L57.9435 153.569L57.9027 153.61L60.024 155.731ZM60.752 138.987L63.3176 137.432L62.4418 135.987L60.752 135.987L60.752 138.987ZM45.048 141.795L42.887 139.714L42.8478 139.755L42.8102 139.797L45.048 141.795ZM7.02938 168.248L34.0694 141.104L29.8186 136.87L2.77861 164.014L7.02938 168.248ZM31.944 135.987L10 135.987L10 141.987L31.944 141.987L31.944 135.987ZM13 138.987L13 121.307L7 121.307L7 138.987L13 138.987ZM10 124.307L69.904 124.307L69.904 118.307L10 118.307L10 124.307ZM67.4078 122.971C68.329 124.353 69.2699 126.318 70.1924 128.954L75.8556 126.972C74.8368 124.061 73.6977 121.589 72.4002 119.643L67.4078 122.971ZM70.2066 128.994C71.1786 131.651 71.9692 134.635 72.5675 137.959L78.4726 136.896C77.8228 133.286 76.9494 129.961 75.8414 126.932L70.2066 128.994ZM72.5783 138.016C73.2321 141.285 73.56 144.623 73.56 148.035L79.56 148.035C79.56 144.236 79.1946 140.503 78.4617 136.839L72.5783 138.016ZM73.56 148.035C73.56 156.402 71.6169 162.498 68.1167 166.71L72.7313 170.545C77.4124 164.911 79.56 157.279 79.56 148.035L73.56 148.035ZM68.1036 166.726C64.6542 170.935 59.9029 173.115 53.472 173.115L53.472 179.115C61.4625 179.115 68.0125 176.303 72.7444 170.529L68.1036 166.726ZM53.472 173.115C48.5192 173.115 44.6118 171.871 41.5512 169.561L37.9368 174.35C42.2255 177.587 47.4702 179.115 53.472 179.115L53.472 173.115ZM41.522 169.539C38.358 167.211 35.9906 164.031 34.4427 159.882L28.8213 161.98C30.7401 167.122 33.7806 171.292 37.966 174.372L41.522 169.539ZM29.2963 159.048L15.4643 176.208L20.1357 179.974L33.9677 162.814L29.2963 159.048ZM19.84 175.892L6.94399 163.932L2.864 168.331L15.76 180.291L19.84 175.892ZM39.448 148.867C39.448 152.608 40.672 155.872 43.4076 158.217L47.3124 153.661C46.1653 152.678 45.448 151.228 45.448 148.867L39.448 148.867ZM43.4076 158.217C45.9809 160.423 49.172 161.435 52.744 161.435L52.744 155.435C50.3533 155.435 48.6217 154.784 47.3124 153.661L43.4076 158.217ZM52.744 161.435C56.4227 161.435 59.6717 160.326 62.1453 157.853L57.9027 153.61C56.771 154.742 55.1666 155.435 52.744 155.435L52.744 161.435ZM62.0622 157.932C64.7765 155.419 65.832 151.756 65.832 147.619L59.832 147.619C59.832 150.832 59.0155 152.576 57.9858 153.53L62.0622 157.932ZM65.832 147.619C65.832 143.763 65.0609 140.309 63.3176 137.432L58.1864 140.542C59.2165 142.242 59.832 144.542 59.832 147.619L65.832 147.619ZM60.752 135.987L52.64 135.987L52.64 141.987L60.752 141.987L60.752 135.987ZM52.64 135.987C48.7858 135.987 45.3914 137.114 42.887 139.714L47.209 143.876C48.3099 142.733 49.9769 141.987 52.64 141.987L52.64 135.987ZM42.8102 139.797C40.552 142.326 39.448 145.41 39.448 148.867L45.448 148.867C45.448 146.778 46.0774 145.147 47.2858 143.793L42.8102 139.797ZM13.536 244.697L10.8981 243.269L10.8863 243.29L10.8749 243.312L13.536 244.697ZM25.08 233.153L26.5088 235.791L25.08 233.153ZM60.856 233.153L59.4271 235.791L59.4347 235.795L59.4423 235.8L60.856 233.153ZM72.504 244.698L75.15 243.284L75.146 243.276L75.1419 243.269L72.504 244.698ZM72.504 280.37L69.8833 278.909L69.8789 278.917L69.8746 278.925L72.504 280.37ZM60.856 291.602L59.4997 288.926L59.4922 288.929L59.4848 288.933L60.856 291.602ZM18.424 286.817L20.5073 284.659L20.5069 284.658L18.424 286.817ZM29.136 273.401L31.0101 271.059L31.0036 271.054L29.136 273.401ZM56.696 273.402L54.9042 270.995L54.8754 271.017L54.8471 271.039L56.696 273.402ZM56.696 251.458L58.6404 249.173L58.6361 249.169L56.696 251.458ZM29.136 251.457L27.1712 249.19L27.1443 249.214L27.118 249.238L29.136 251.457ZM12.584 262.689C12.584 256.136 13.828 250.634 16.197 246.083L10.8749 243.312C7.97462 248.884 6.58399 255.376 6.58399 262.689L12.584 262.689ZM16.1739 246.126C18.6007 241.646 22.0286 238.218 26.5088 235.791L23.6511 230.516C18.1474 233.497 13.8793 237.765 10.8981 243.269L16.1739 246.126ZM26.5088 235.791C30.9751 233.372 36.4243 232.097 42.968 232.097L42.968 226.097C35.645 226.097 29.1689 227.527 23.6511 230.516L26.5088 235.791ZM42.968 232.097C49.5117 232.097 54.9609 233.372 59.4271 235.791L62.2848 230.516C56.7671 227.527 50.291 226.097 42.968 226.097L42.968 232.097ZM59.4423 235.8C63.9911 238.23 67.4453 241.657 69.8661 246.126L75.1419 243.269C72.1547 237.754 67.8436 233.485 62.2696 230.507L59.4423 235.8ZM69.8579 246.111C72.2859 250.656 73.56 256.147 73.56 262.689L79.56 262.689C79.56 255.365 78.1301 248.862 75.15 243.284L69.8579 246.111ZM73.56 262.689C73.56 269.237 72.2841 274.6 69.8833 278.909L75.1247 281.83C78.1319 276.432 79.56 270.009 79.56 262.689L73.56 262.689ZM69.8746 278.925C67.4645 283.313 64.0283 286.63 59.4997 288.926L62.2123 294.277C67.8063 291.442 72.1355 287.272 75.1334 281.814L69.8746 278.925ZM59.4848 288.933C55.0053 291.235 49.5347 292.45 42.968 292.45L42.968 298.45C50.268 298.45 56.7227 297.098 62.2272 294.27L59.4848 288.933ZM42.968 292.45C33.1373 292.45 25.7771 289.745 20.5073 284.659L16.3407 288.976C22.9962 295.399 31.9987 298.45 42.968 298.45L42.968 292.45ZM20.5069 284.658C15.3481 279.682 12.584 272.508 12.584 262.689L6.58399 262.689C6.58399 273.671 9.71324 282.583 16.3411 288.977L20.5069 284.658ZM21.56 262.689C21.56 268.106 23.351 272.633 27.2684 275.749L31.0036 271.054C28.8197 269.316 27.56 266.702 27.56 262.689L21.56 262.689ZM27.2619 275.744C31.1252 278.835 36.4825 280.146 42.864 280.146L42.864 274.146C37.1814 274.146 33.3868 272.96 31.0101 271.059L27.2619 275.744ZM42.864 280.146C49.252 280.146 54.6246 278.832 58.5449 275.764L54.8471 271.039C52.3887 272.963 48.54 274.146 42.864 274.146L42.864 280.146ZM58.4878 275.808C62.6355 272.719 64.584 268.179 64.584 262.689L58.584 262.689C58.584 266.629 57.2738 269.231 54.9042 270.995L58.4878 275.808ZM64.584 262.689C64.584 257.196 62.642 252.579 58.6404 249.173L54.7516 253.742C57.2673 255.883 58.584 258.753 58.584 262.689L64.584 262.689ZM58.6361 249.169C54.7087 245.839 49.2984 244.401 42.864 244.401L42.864 250.401C48.4936 250.401 52.3046 251.668 54.7559 253.746L58.6361 249.169ZM42.864 244.401C36.4357 244.401 31.0405 245.837 27.1712 249.19L31.1008 253.725C33.4715 251.67 37.2283 250.401 42.864 250.401L42.864 244.401ZM27.118 249.238C23.3493 252.664 21.56 257.263 21.56 262.689L27.56 262.689C27.56 258.686 28.8214 255.798 31.154 253.677L27.118 249.238ZM13.536 366.122L10.8981 364.693L10.8863 364.714L10.8749 364.736L13.536 366.122ZM25.08 354.578L26.5088 357.215L25.08 354.578ZM60.856 354.578L59.4271 357.215L59.4347 357.22L59.4423 357.224L60.856 354.578ZM72.504 366.122L75.15 364.708L75.146 364.7L75.1419 364.693L72.504 366.122ZM72.504 401.794L69.8833 400.333L69.8789 400.341L69.8746 400.349L72.504 401.794ZM60.856 413.026L59.4997 410.35L59.4922 410.353L59.4848 410.357L60.856 413.026ZM18.424 408.242L20.5073 406.083L20.5069 406.082L18.424 408.242ZM29.136 394.826L31.0101 392.483L31.0036 392.478L29.136 394.826ZM56.696 394.826L54.9042 392.419L54.8754 392.441L54.8471 392.463L56.696 394.826ZM56.696 372.882L58.6403 370.597L58.636 370.593L56.696 372.882ZM29.136 372.882L27.1712 370.615L27.1443 370.638L27.118 370.662L29.136 372.882ZM12.584 384.114C12.584 377.56 13.828 372.058 16.197 367.507L10.8749 364.736C7.97461 370.308 6.58399 376.801 6.58399 384.114L12.584 384.114ZM16.1739 367.55C18.6007 363.07 22.0286 359.642 26.5088 357.215L23.6511 351.94C18.1474 354.921 13.8793 359.189 10.8981 364.693L16.1739 367.55ZM26.5088 357.215C30.9751 354.796 36.4243 353.522 42.968 353.522L42.968 347.522C35.645 347.522 29.1689 348.951 23.6511 351.94L26.5088 357.215ZM42.968 353.522C49.5117 353.522 54.9609 354.796 59.4271 357.215L62.2848 351.94C56.7671 348.951 50.291 347.522 42.968 347.522L42.968 353.522ZM59.4423 357.224C63.9911 359.654 67.4453 363.081 69.8661 367.55L75.1419 364.693C72.1547 359.178 67.8436 354.909 62.2696 351.932L59.4423 357.224ZM69.8579 367.535C72.2859 372.08 73.56 377.571 73.56 384.114L79.56 384.114C79.56 376.789 78.1301 370.286 75.15 364.708L69.8579 367.535ZM73.56 384.114C73.56 390.661 72.2841 396.024 69.8833 400.333L75.1247 403.254C78.1319 397.856 79.56 391.433 79.56 384.114L73.56 384.114ZM69.8746 400.349C67.4645 404.737 64.0283 408.054 59.4997 410.35L62.2123 415.701C67.8063 412.866 72.1355 408.696 75.1334 403.238L69.8746 400.349ZM59.4848 410.357C55.0053 412.659 49.5347 413.874 42.968 413.874L42.968 419.874C50.268 419.874 56.7227 418.523 62.2272 415.694L59.4848 410.357ZM42.968 413.874C33.1373 413.874 25.7771 411.169 20.5073 406.083L16.3406 410.4C22.9962 416.824 31.9987 419.874 42.968 419.874L42.968 413.874ZM20.5069 406.082C15.3481 401.106 12.584 393.932 12.584 384.114L6.58399 384.114C6.58399 395.096 9.71324 404.007 16.3411 410.401L20.5069 406.082ZM21.56 384.114C21.56 389.53 23.351 394.057 27.2684 397.173L31.0036 392.478C28.8196 390.741 27.56 388.126 27.56 384.114L21.56 384.114ZM27.2619 397.168C31.1252 400.259 36.4825 401.57 42.864 401.57L42.864 395.57C37.1814 395.57 33.3868 394.384 31.0101 392.483L27.2619 397.168ZM42.864 401.57C49.252 401.57 54.6246 400.256 58.5449 397.188L54.8471 392.463C52.3887 394.387 48.54 395.57 42.864 395.57L42.864 401.57ZM58.4878 397.232C62.6355 394.143 64.584 389.603 64.584 384.114L58.584 384.114C58.584 388.053 57.2738 390.655 54.9042 392.419L58.4878 397.232ZM64.584 384.114C64.584 378.62 62.642 374.003 58.6403 370.597L54.7516 375.166C57.2673 377.307 58.584 380.177 58.584 384.114L64.584 384.114ZM58.636 370.593C54.7087 367.264 49.2984 365.826 42.864 365.826L42.864 371.826C48.4936 371.826 52.3046 373.092 54.7559 375.17L58.636 370.593ZM42.864 365.826C36.4357 365.826 31.0405 367.261 27.1712 370.615L31.1008 375.149C33.4715 373.094 37.2283 371.826 42.864 371.826L42.864 365.826ZM27.118 370.662C23.3493 374.088 21.56 378.688 21.56 384.114L27.56 384.114C27.56 380.11 28.8214 377.222 31.154 375.101L27.118 370.662ZM9.99998 470.93L10.2818 467.943L6.99998 467.634L6.99998 470.93L9.99998 470.93ZM76.144 477.17L79.144 477.17L79.144 474.44L76.4258 474.183L76.144 477.17ZM76.144 497.97L77.1826 500.784L79.144 500.061L79.144 497.97L76.144 497.97ZM39.224 511.594L39.9516 514.504L40.1097 514.465L40.2626 514.408L39.224 511.594ZM37.976 511.906L37.2484 508.996L37.4828 514.865L37.976 511.906ZM39.224 512.114L40.3109 509.318L40.0225 509.206L39.7172 509.155L39.224 512.114ZM76.144 526.466L79.144 526.466L79.144 524.413L77.2309 523.67L76.144 526.466ZM76.144 547.266L76.3791 550.257L79.144 550.039L79.144 547.266L76.144 547.266ZM9.99998 552.466L6.99998 552.466L6.99998 555.711L10.2351 555.457L9.99998 552.466ZM9.99998 533.746L9.84435 530.75L6.99998 530.898L6.99998 533.746L9.99998 533.746ZM50.04 531.666L50.1956 534.662L50.3798 534.652L50.5613 534.62L50.04 531.666ZM51.808 531.354L52.3293 534.308L54.808 533.871L54.808 531.354L51.808 531.354ZM51.808 531.146L54.808 531.146L54.808 528.901L52.6545 528.268L51.808 531.146ZM50.04 530.626L49.0009 533.44L49.0961 533.475L49.1935 533.504L50.04 530.626ZM16.24 518.146L13.24 518.146L13.24 520.236L15.2009 520.96L16.24 518.146ZM16.24 505.666L15.1933 502.855L13.24 503.582L13.24 505.666L16.24 505.666ZM50.04 493.082L49.3529 490.162L49.1696 490.205L48.9933 490.271L50.04 493.082ZM51.808 492.666L52.4951 495.586L54.808 495.042L54.808 492.666L51.808 492.666ZM51.808 492.354L54.808 492.354L54.808 489.837L52.3293 489.4L51.808 492.354ZM50.04 492.042L50.5613 489.088L50.3913 489.058L50.2189 489.047L50.04 492.042ZM9.99998 489.65L6.99998 489.65L6.99998 492.476L9.82108 492.645L9.99998 489.65ZM9.71821 473.917L75.8622 480.157L76.4258 474.183L10.2818 467.943L9.71821 473.917ZM73.144 477.17L73.144 497.97L79.144 497.97L79.144 477.17L73.144 477.17ZM75.1054 495.156L38.1854 508.78L40.2626 514.408L77.1826 500.784L75.1054 495.156ZM38.4964 508.684L37.2484 508.996L38.7036 514.816L39.9516 514.504L38.4964 508.684ZM37.4828 514.865L38.7308 515.073L39.7172 509.155L38.4692 508.947L37.4828 514.865ZM38.137 514.91L75.057 529.262L77.2309 523.67L40.3109 509.318L38.137 514.91ZM73.144 526.466L73.144 547.266L79.144 547.266L79.144 526.466L73.144 526.466ZM75.9089 544.275L9.76486 549.475L10.2351 555.457L76.3791 550.257L75.9089 544.275ZM13 552.466L13 533.746L6.99998 533.746L6.99998 552.466L13 552.466ZM10.1556 536.742L50.1956 534.662L49.8843 528.67L9.84435 530.75L10.1556 536.742ZM50.5613 534.62L52.3293 534.308L51.2866 528.4L49.5186 528.712L50.5613 534.62ZM54.808 531.354L54.808 531.146L48.808 531.146L48.808 531.354L54.808 531.354ZM52.6545 528.268L50.8865 527.748L49.1935 533.504L50.9615 534.024L52.6545 528.268ZM51.0791 527.812L17.2791 515.332L15.2009 520.96L49.0009 533.44L51.0791 527.812ZM19.24 518.146L19.24 505.666L13.24 505.666L13.24 518.146L19.24 518.146ZM17.2867 508.477L51.0867 495.893L48.9933 490.271L15.1933 502.855L17.2867 508.477ZM50.7271 496.002L52.4951 495.586L51.1209 489.746L49.3529 490.162L50.7271 496.002ZM54.808 492.666L54.808 492.354L48.808 492.354L48.808 492.666L54.808 492.666ZM52.3293 489.4L50.5613 489.088L49.5186 494.996L51.2866 495.308L52.3293 489.4ZM50.2189 489.047L10.1789 486.655L9.82108 492.645L49.8611 495.037L50.2189 489.047ZM13 489.65L13 470.93L6.99998 470.93L6.99998 489.65L13 489.65Z" fill="url(#paint1_linear_1787_604)" mask="url(#path-3-outside-2_1787_604)"/>
<defs>
<linearGradient id="paint0_linear_1787_604" x1="593" y1="-2.01072e-06" x2="593" y2="368" gradientUnits="userSpaceOnUse">
<stop stop-color="#48A0F0"/>
<stop offset="1" stop-color="#54BDAC"/>
</linearGradient>
<linearGradient id="paint1_linear_1787_604" x1="46" y1="44" x2="46" y2="557" gradientUnits="userSpaceOnUse">
<stop stop-color="#48A0F0"/>
<stop offset="1" stop-color="#54BDAC"/>
</linearGradient>
</defs>
</svg>
