<svg width="43" height="395" viewBox="0 0 43 395" fill="none" xmlns="http://www.w3.org/2000/svg">
<mask id="path-1-outside-1_2148_4400" maskUnits="userSpaceOnUse" x="-2.84865" y="-3" width="48" height="401" fill="black">
<rect fill="white" x="-2.84865" y="-3" width="48" height="401"/>
<path d="M1.15137 0.703751L41.8554 4.54375L41.8554 17.3438L19.1354 25.7278L18.3674 25.9198L19.1354 26.0478L41.8554 34.8798L41.8554 47.6798L1.15136 50.8798L1.15137 39.3598L25.7914 38.0798L26.8794 37.8878L26.8794 37.7598L25.7914 37.4398L4.99137 29.7598L4.99137 22.0798L25.7914 14.3358L26.8794 14.0798L26.8794 13.8878L25.7914 13.6958L1.15137 12.2238L1.15137 0.703751ZM1.15136 79.0563L41.8554 79.0563L41.8554 108.368L33.5354 108.368L33.5354 89.9363L25.9834 89.9363L25.9834 105.872L17.6634 105.872L17.6634 89.9363L9.47136 89.9363L9.47136 108.752L1.15136 108.752L1.15136 79.0563ZM1.15136 136.894L41.8554 136.894L41.8554 166.206L33.5354 166.206L33.5354 147.774L25.9834 147.774L25.9834 163.71L17.6634 163.71L17.6634 147.774L9.47136 147.774L9.47136 166.59L1.15136 166.59L1.15136 136.894ZM1.15136 204.011L33.3434 204.011L33.3434 193.451L41.8554 193.451L41.8554 225.451L33.3434 225.451L33.3434 214.891L1.15136 214.891L1.15136 204.011ZM1.15136 252.944L41.8554 252.944L41.8554 263.824L1.15136 263.824L1.15136 252.944ZM1.15135 292.594L41.8554 292.594L41.8554 304.69L16.7674 318.194L41.8554 318.194L41.8554 329.074L1.15135 329.074L1.15135 316.658L25.2794 303.474L1.15135 303.474L1.15135 292.594ZM0.703351 377.965C0.703351 373.954 1.47135 370.37 3.00735 367.213C4.58602 364.098 6.93268 361.645 10.0474 359.853C13.162 358.103 17.0234 357.229 21.6314 357.229C27.8607 357.229 32.81 358.935 36.4794 362.349C40.1914 365.805 42.0474 370.882 42.0474 377.581C42.0474 381.122 41.578 384.173 40.6394 386.733C39.7007 389.335 38.57 391.49 37.2474 393.197L29.8234 389.933C30.6767 388.61 31.3807 386.989 31.9354 385.069C32.5327 383.191 32.8314 381.314 32.8314 379.437C32.8314 376.023 31.786 373.378 29.6954 371.501C27.6474 369.666 24.9167 368.749 21.5034 368.749C18.8154 368.749 16.618 369.261 14.9114 370.285C13.2474 371.309 12.01 372.653 11.1994 374.317C10.4314 375.981 10.0474 377.751 10.0474 379.629C10.0474 380.61 10.1114 381.463 10.2394 382.189C10.41 382.914 10.5807 383.447 10.7514 383.789L16.8954 383.789L16.8954 376.877L25.0874 376.877L25.0874 394.669L7.03935 394.669C5.16202 393.09 3.62602 390.829 2.43135 387.885C1.27935 384.941 0.70335 381.634 0.703351 377.965Z"/>
</mask>
<path d="M1.15137 0.703751L1.43313 -2.28299L-1.84863 -2.59259L-1.84863 0.703751L1.15137 0.703751ZM41.8554 4.54375L44.8554 4.54375L44.8554 1.81345L42.1371 1.55701L41.8554 4.54375ZM41.8554 17.3438L42.894 20.1582L44.8554 19.4345L44.8554 17.3438L41.8554 17.3438ZM19.1354 25.7278L19.863 28.6382L20.0211 28.5987L20.174 28.5422L19.1354 25.7278ZM18.3674 25.9198L17.6398 23.0093L17.8742 28.8789L18.3674 25.9198ZM19.1354 26.0478L20.2223 23.2516L19.9339 23.1395L19.6286 23.0886L19.1354 26.0478ZM41.8554 34.8798L44.8554 34.8798L44.8554 32.8273L42.9423 32.0836L41.8554 34.8798ZM41.8554 47.6798L42.0905 50.6705L44.8554 50.4532L44.8554 47.6798L41.8554 47.6798ZM1.15136 50.8798L-1.84864 50.8798L-1.84864 54.1249L1.38649 53.8705L1.15136 50.8798ZM1.15137 39.3598L0.995731 36.3638L-1.84863 36.5116L-1.84863 39.3598L1.15137 39.3598ZM25.7914 38.0798L25.947 41.0757L26.1311 41.0661L26.3127 41.0341L25.7914 38.0798ZM26.8794 37.8878L27.4007 40.8421L29.8794 40.4047L29.8794 37.8878L26.8794 37.8878ZM26.8794 37.7598L29.8794 37.7598L29.8794 35.515L27.7259 34.8817L26.8794 37.7598ZM25.7914 37.4398L24.7522 40.254L24.8475 40.2892L24.9449 40.3178L25.7914 37.4398ZM4.99137 29.7598L1.99137 29.7598L1.99137 31.85L3.95224 32.574L4.99137 29.7598ZM4.99137 22.0798L3.94464 19.2683L1.99137 19.9955L1.99137 22.0798L4.99137 22.0798ZM25.7914 14.3358L25.1042 11.4155L24.921 11.4586L24.7446 11.5243L25.7914 14.3358ZM26.8794 14.0798L27.5665 17L29.8794 16.4558L29.8794 14.0798L26.8794 14.0798ZM26.8794 13.8878L29.8794 13.8878L29.8794 11.3708L27.4007 10.9334L26.8794 13.8878ZM25.7914 13.6958L26.3127 10.7414L26.1427 10.7114L25.9703 10.7011L25.7914 13.6958ZM1.15137 12.2238L-1.84863 12.2238L-1.84863 15.0499L0.972465 15.2184L1.15137 12.2238ZM0.869599 3.69049L41.5736 7.53049L42.1371 1.55701L1.43313 -2.28299L0.869599 3.69049ZM38.8554 4.54375L38.8554 17.3438L44.8554 17.3438L44.8554 4.54375L38.8554 4.54375ZM40.8168 14.5293L18.0968 22.9133L20.174 28.5422L42.894 20.1582L40.8168 14.5293ZM18.4078 22.8173L17.6398 23.0093L19.095 28.8302L19.863 28.6382L18.4078 22.8173ZM17.8742 28.8789L18.6422 29.0069L19.6286 23.0886L18.8606 22.9606L17.8742 28.8789ZM18.0484 28.8439L40.7684 37.6759L42.9423 32.0836L20.2223 23.2516L18.0484 28.8439ZM38.8554 34.8798L38.8554 47.6798L44.8554 47.6798L44.8554 34.8798L38.8554 34.8798ZM41.6202 44.689L0.916241 47.889L1.38649 53.8705L42.0905 50.6705L41.6202 44.689ZM4.15136 50.8798L4.15137 39.3598L-1.84863 39.3598L-1.84864 50.8798L4.15136 50.8798ZM1.307 42.3557L25.947 41.0757L25.6357 35.0838L0.995731 36.3638L1.307 42.3557ZM26.3127 41.0341L27.4007 40.8421L26.358 34.9334L25.27 35.1254L26.3127 41.0341ZM29.8794 37.8878L29.8794 37.7598L23.8794 37.7598L23.8794 37.8878L29.8794 37.8878ZM27.7259 34.8817L26.6379 34.5617L24.9449 40.3178L26.0329 40.6378L27.7259 34.8817ZM26.8305 34.6255L6.03049 26.9455L3.95224 32.574L24.7522 40.254L26.8305 34.6255ZM7.99137 29.7598L7.99137 22.0798L1.99137 22.0798L1.99137 29.7598L7.99137 29.7598ZM6.0381 24.8912L26.8381 17.1472L24.7446 11.5243L3.94464 19.2683L6.0381 24.8912ZM26.4785 17.256L27.5665 17L26.1922 11.1595L25.1042 11.4155L26.4785 17.256ZM29.8794 14.0798L29.8794 13.8878L23.8794 13.8878L23.8794 14.0798L29.8794 14.0798ZM27.4007 10.9334L26.3127 10.7414L25.27 16.6501L26.358 16.8421L27.4007 10.9334ZM25.9703 10.7011L1.33027 9.22909L0.972465 15.2184L25.6125 16.6904L25.9703 10.7011ZM4.15137 12.2238L4.15137 0.703751L-1.84863 0.703751L-1.84863 12.2238L4.15137 12.2238ZM1.15136 79.0563L1.15136 76.0563L-1.84864 76.0563L-1.84864 79.0563L1.15136 79.0563ZM41.8554 79.0563L44.8554 79.0563L44.8554 76.0563L41.8554 76.0563L41.8554 79.0563ZM41.8554 108.368L41.8554 111.368L44.8554 111.368L44.8554 108.368L41.8554 108.368ZM33.5354 108.368L30.5354 108.368L30.5354 111.368L33.5354 111.368L33.5354 108.368ZM33.5354 89.9363L36.5354 89.9363L36.5354 86.9363L33.5354 86.9363L33.5354 89.9363ZM25.9834 89.9363L25.9834 86.9363L22.9834 86.9363L22.9834 89.9363L25.9834 89.9363ZM25.9834 105.872L25.9834 108.872L28.9834 108.872L28.9834 105.872L25.9834 105.872ZM17.6634 105.872L14.6634 105.872L14.6634 108.872L17.6634 108.872L17.6634 105.872ZM17.6634 89.9363L20.6634 89.9363L20.6634 86.9363L17.6634 86.9363L17.6634 89.9363ZM9.47136 89.9363L9.47136 86.9363L6.47136 86.9363L6.47136 89.9363L9.47136 89.9363ZM9.47136 108.752L9.47136 111.752L12.4714 111.752L12.4714 108.752L9.47136 108.752ZM1.15136 108.752L-1.84864 108.752L-1.84864 111.752L1.15136 111.752L1.15136 108.752ZM1.15136 82.0563L41.8554 82.0563L41.8554 76.0563L1.15136 76.0563L1.15136 82.0563ZM38.8554 79.0563L38.8554 108.368L44.8554 108.368L44.8554 79.0563L38.8554 79.0563ZM41.8554 105.368L33.5354 105.368L33.5354 111.368L41.8554 111.368L41.8554 105.368ZM36.5354 108.368L36.5354 89.9363L30.5354 89.9363L30.5354 108.368L36.5354 108.368ZM33.5354 86.9363L25.9834 86.9363L25.9834 92.9363L33.5354 92.9363L33.5354 86.9363ZM22.9834 89.9363L22.9834 105.872L28.9834 105.872L28.9834 89.9363L22.9834 89.9363ZM25.9834 102.872L17.6634 102.872L17.6634 108.872L25.9834 108.872L25.9834 102.872ZM20.6634 105.872L20.6634 89.9363L14.6634 89.9363L14.6634 105.872L20.6634 105.872ZM17.6634 86.9363L9.47136 86.9363L9.47136 92.9363L17.6634 92.9363L17.6634 86.9363ZM6.47136 89.9363L6.47136 108.752L12.4714 108.752L12.4714 89.9363L6.47136 89.9363ZM9.47136 105.752L1.15136 105.752L1.15136 111.752L9.47136 111.752L9.47136 105.752ZM4.15136 108.752L4.15136 79.0563L-1.84864 79.0563L-1.84864 108.752L4.15136 108.752ZM1.15136 136.894L1.15136 133.894L-1.84864 133.894L-1.84864 136.894L1.15136 136.894ZM41.8554 136.894L44.8554 136.894L44.8554 133.894L41.8554 133.894L41.8554 136.894ZM41.8554 166.206L41.8554 169.206L44.8554 169.206L44.8554 166.206L41.8554 166.206ZM33.5354 166.206L30.5354 166.206L30.5354 169.206L33.5354 169.206L33.5354 166.206ZM33.5354 147.774L36.5354 147.774L36.5354 144.774L33.5354 144.774L33.5354 147.774ZM25.9834 147.774L25.9834 144.774L22.9834 144.774L22.9834 147.774L25.9834 147.774ZM25.9834 163.71L25.9834 166.71L28.9834 166.71L28.9834 163.71L25.9834 163.71ZM17.6634 163.71L14.6634 163.71L14.6634 166.71L17.6634 166.71L17.6634 163.71ZM17.6634 147.774L20.6634 147.774L20.6634 144.774L17.6634 144.774L17.6634 147.774ZM9.47136 147.774L9.47136 144.774L6.47136 144.774L6.47136 147.774L9.47136 147.774ZM9.47136 166.59L9.47136 169.59L12.4714 169.59L12.4714 166.59L9.47136 166.59ZM1.15136 166.59L-1.84864 166.59L-1.84864 169.59L1.15136 169.59L1.15136 166.59ZM1.15136 139.894L41.8554 139.894L41.8554 133.894L1.15136 133.894L1.15136 139.894ZM38.8554 136.894L38.8554 166.206L44.8554 166.206L44.8554 136.894L38.8554 136.894ZM41.8554 163.206L33.5354 163.206L33.5354 169.206L41.8554 169.206L41.8554 163.206ZM36.5354 166.206L36.5354 147.774L30.5354 147.774L30.5354 166.206L36.5354 166.206ZM33.5354 144.774L25.9834 144.774L25.9834 150.774L33.5354 150.774L33.5354 144.774ZM22.9834 147.774L22.9834 163.71L28.9834 163.71L28.9834 147.774L22.9834 147.774ZM25.9834 160.71L17.6634 160.71L17.6634 166.71L25.9834 166.71L25.9834 160.71ZM20.6634 163.71L20.6634 147.774L14.6634 147.774L14.6634 163.71L20.6634 163.71ZM17.6634 144.774L9.47136 144.774L9.47136 150.774L17.6634 150.774L17.6634 144.774ZM6.47136 147.774L6.47136 166.59L12.4714 166.59L12.4714 147.774L6.47136 147.774ZM9.47136 163.59L1.15136 163.59L1.15136 169.59L9.47136 169.59L9.47136 163.59ZM4.15136 166.59L4.15136 136.894L-1.84864 136.894L-1.84864 166.59L4.15136 166.59ZM1.15136 204.011L1.15136 201.011L-1.84864 201.011L-1.84864 204.011L1.15136 204.011ZM33.3434 204.011L33.3434 207.011L36.3434 207.011L36.3434 204.011L33.3434 204.011ZM33.3434 193.451L33.3434 190.451L30.3434 190.451L30.3434 193.451L33.3434 193.451ZM41.8554 193.451L44.8554 193.451L44.8554 190.451L41.8554 190.451L41.8554 193.451ZM41.8554 225.451L41.8554 228.451L44.8554 228.451L44.8554 225.451L41.8554 225.451ZM33.3434 225.451L30.3434 225.451L30.3434 228.451L33.3434 228.451L33.3434 225.451ZM33.3434 214.891L36.3434 214.891L36.3434 211.891L33.3434 211.891L33.3434 214.891ZM1.15136 214.891L-1.84864 214.891L-1.84864 217.891L1.15136 217.891L1.15136 214.891ZM1.15136 207.011L33.3434 207.011L33.3434 201.011L1.15136 201.011L1.15136 207.011ZM36.3434 204.011L36.3434 193.451L30.3434 193.451L30.3434 204.011L36.3434 204.011ZM33.3434 196.451L41.8554 196.451L41.8554 190.451L33.3434 190.451L33.3434 196.451ZM38.8554 193.451L38.8554 225.451L44.8554 225.451L44.8554 193.451L38.8554 193.451ZM41.8554 222.451L33.3434 222.451L33.3434 228.451L41.8554 228.451L41.8554 222.451ZM36.3434 225.451L36.3434 214.891L30.3434 214.891L30.3434 225.451L36.3434 225.451ZM33.3434 211.891L1.15136 211.891L1.15136 217.891L33.3434 217.891L33.3434 211.891ZM4.15136 214.891L4.15136 204.011L-1.84864 204.011L-1.84864 214.891L4.15136 214.891ZM1.15136 252.944L1.15136 249.944L-1.84864 249.944L-1.84864 252.944L1.15136 252.944ZM41.8554 252.944L44.8554 252.944L44.8554 249.944L41.8554 249.944L41.8554 252.944ZM41.8554 263.824L41.8554 266.824L44.8554 266.824L44.8554 263.824L41.8554 263.824ZM1.15136 263.824L-1.84864 263.824L-1.84864 266.824L1.15136 266.824L1.15136 263.824ZM1.15136 255.944L41.8554 255.944L41.8554 249.944L1.15136 249.944L1.15136 255.944ZM38.8554 252.944L38.8554 263.824L44.8554 263.824L44.8554 252.944L38.8554 252.944ZM41.8554 260.824L1.15136 260.824L1.15136 266.824L41.8554 266.824L41.8554 260.824ZM4.15136 263.824L4.15136 252.944L-1.84864 252.944L-1.84864 263.824L4.15136 263.824ZM1.15135 292.594L1.15135 289.594L-1.84865 289.594L-1.84865 292.594L1.15135 292.594ZM41.8554 292.594L44.8554 292.594L44.8554 289.594L41.8554 289.594L41.8554 292.594ZM41.8554 304.69L43.2773 307.331L44.8554 306.482L44.8554 304.69L41.8554 304.69ZM16.7674 318.194L15.3455 315.552L16.7674 321.194L16.7674 318.194ZM41.8554 318.194L44.8554 318.194L44.8554 315.194L41.8554 315.194L41.8554 318.194ZM41.8554 329.074L41.8554 332.074L44.8554 332.074L44.8554 329.074L41.8554 329.074ZM1.15135 329.074L-1.84865 329.074L-1.84865 332.074L1.15135 332.074L1.15135 329.074ZM1.15135 316.658L-0.28716 314.025L-1.84865 314.878L-1.84865 316.658L1.15135 316.658ZM25.2794 303.474L26.7179 306.106L25.2794 300.474L25.2794 303.474ZM1.15135 303.474L-1.84865 303.474L-1.84865 306.474L1.15135 306.474L1.15135 303.474ZM1.15135 295.594L41.8554 295.594L41.8554 289.594L1.15135 289.594L1.15135 295.594ZM38.8554 292.594L38.8554 304.69L44.8554 304.69L44.8554 292.594L38.8554 292.594ZM40.4335 302.048L15.3455 315.552L18.1893 320.835L43.2773 307.331L40.4335 302.048ZM16.7674 321.194L41.8554 321.194L41.8554 315.194L16.7674 315.194L16.7674 321.194ZM38.8554 318.194L38.8554 329.074L44.8554 329.074L44.8554 318.194L38.8554 318.194ZM41.8554 326.074L1.15135 326.074L1.15135 332.074L41.8554 332.074L41.8554 326.074ZM4.15135 329.074L4.15135 316.658L-1.84865 316.658L-1.84865 329.074L4.15135 329.074ZM2.58987 319.29L26.7179 306.106L23.8408 300.841L-0.28716 314.025L2.58987 319.29ZM25.2794 300.474L1.15135 300.474L1.15135 306.474L25.2794 306.474L25.2794 300.474ZM4.15135 303.474L4.15135 292.594L-1.84865 292.594L-1.84865 303.474L4.15135 303.474ZM3.00735 367.213L0.331441 365.856L0.320364 365.878L0.309646 365.9L3.00735 367.213ZM10.0474 359.853L8.57827 357.237L8.56473 357.245L8.55127 357.252L10.0474 359.853ZM36.4794 362.349L38.5236 360.153L38.5227 360.152L36.4794 362.349ZM40.6394 386.733L37.8227 385.7L37.82 385.707L37.8173 385.715L40.6394 386.733ZM37.2474 393.197L36.0399 395.943L38.1839 396.886L39.6186 395.034L37.2474 393.197ZM29.8234 389.933L27.3025 388.306L25.395 391.263L28.6159 392.679L29.8234 389.933ZM31.9354 385.069L29.0766 384.159L29.0644 384.197L29.0532 384.236L31.9354 385.069ZM29.6954 371.501L31.6997 369.269L31.6971 369.266L29.6954 371.501ZM14.9114 370.285L13.3679 367.712L13.3534 367.721L13.3391 367.73L14.9114 370.285ZM11.1994 374.317L8.50238 373.003L8.48863 373.031L8.47547 373.06L11.1994 374.317ZM10.2394 382.189L7.285 382.71L7.29971 382.793L7.3191 382.876L10.2394 382.189ZM10.7514 383.789L8.06807 385.13L8.89725 386.789L10.7514 386.789L10.7514 383.789ZM16.8954 383.789L16.8954 386.789L19.8954 386.789L19.8954 383.789L16.8954 383.789ZM16.8954 376.877L16.8954 373.877L13.8954 373.877L13.8954 376.877L16.8954 376.877ZM25.0874 376.877L28.0874 376.877L28.0874 373.877L25.0874 373.877L25.0874 376.877ZM25.0874 394.669L25.0874 397.669L28.0874 397.669L28.0874 394.669L25.0874 394.669ZM7.03935 394.669L5.10855 396.965L5.94564 397.669L7.03935 397.669L7.03935 394.669ZM2.43135 387.885L-0.362378 388.978L-0.355542 388.995L-0.348488 389.013L2.43135 387.885ZM3.70335 377.965C3.70335 374.344 4.39454 371.219 5.70506 368.525L0.309646 365.9C-1.45183 369.521 -2.29665 373.564 -2.29665 377.965L3.70335 377.965ZM5.68326 368.569C6.99005 365.991 8.91913 363.963 11.5434 362.453L8.55127 357.252C4.94624 359.327 2.18199 362.205 0.331441 365.856L5.68326 368.569ZM11.5164 362.468C14.0707 361.034 17.3924 360.229 21.6314 360.229L21.6314 354.229C16.6543 354.229 12.2534 355.173 8.57827 357.237L11.5164 362.468ZM21.6314 360.229C27.2954 360.229 31.4485 361.766 34.436 364.545L38.5227 360.152C34.1715 356.105 28.426 354.229 21.6314 354.229L21.6314 360.229ZM34.4351 364.544C37.359 367.267 39.0474 371.435 39.0474 377.581L45.0474 377.581C45.0474 370.329 43.0237 364.343 38.5236 360.153L34.4351 364.544ZM39.0474 377.581C39.0474 380.87 38.6099 383.553 37.8227 385.7L43.456 387.766C44.5461 384.792 45.0474 381.375 45.0474 377.581L39.0474 377.581ZM37.8173 385.715C36.9567 388.101 35.9612 389.959 34.8761 391.359L39.6186 395.034C41.1788 393.021 42.4447 390.57 43.4614 387.751L37.8173 385.715ZM38.4548 390.45L31.0308 387.186L28.6159 392.679L36.0399 395.943L38.4548 390.45ZM32.3442 391.559C33.392 389.935 34.2025 388.03 34.8175 385.901L29.0532 384.236C28.5589 385.947 27.9614 387.285 27.3025 388.306L32.3442 391.559ZM34.7941 385.978C35.4804 383.822 35.8314 381.638 35.8314 379.437L29.8314 379.437C29.8314 380.99 29.585 382.561 29.0766 384.159L34.7941 385.978ZM35.8314 379.437C35.8314 375.37 34.5581 371.835 31.6997 369.269L27.691 373.733C29.014 374.921 29.8314 376.677 29.8314 379.437L35.8314 379.437ZM31.6971 369.266C28.9747 366.827 25.4697 365.749 21.5034 365.749L21.5034 371.749C24.3637 371.749 26.32 372.505 27.6936 373.735L31.6971 369.266ZM21.5034 365.749C18.4557 365.749 15.6767 366.327 13.3679 367.712L16.4548 372.857C17.5593 372.195 19.175 371.749 21.5034 371.749L21.5034 365.749ZM13.3391 367.73C11.2182 369.035 9.57666 370.798 8.50238 373.003L13.8963 375.631C14.4434 374.508 15.2765 373.583 16.4836 372.84L13.3391 367.73ZM8.47547 373.06C7.52105 375.128 7.04735 377.328 7.04735 379.629L13.0474 379.629C13.0474 378.175 13.3417 376.834 13.9232 375.574L8.47547 373.06ZM7.04735 379.629C7.04735 380.731 7.11854 381.767 7.285 382.71L13.1937 381.667C13.1042 381.16 13.0474 380.489 13.0474 379.629L7.04735 379.629ZM7.3191 382.876C7.50276 383.656 7.7364 384.467 8.06807 385.13L13.4346 382.447C13.4419 382.462 13.4106 382.4 13.3526 382.218C13.2976 382.046 13.2324 381.811 13.1596 381.502L7.3191 382.876ZM10.7514 386.789L16.8954 386.789L16.8954 380.789L10.7514 380.789L10.7514 386.789ZM19.8954 383.789L19.8954 376.877L13.8954 376.877L13.8954 383.789L19.8954 383.789ZM16.8954 379.877L25.0874 379.877L25.0874 373.877L16.8954 373.877L16.8954 379.877ZM22.0874 376.877L22.0874 394.669L28.0874 394.669L28.0874 376.877L22.0874 376.877ZM25.0874 391.669L7.03935 391.669L7.03935 397.669L25.0874 397.669L25.0874 391.669ZM8.97015 392.373C7.56081 391.188 6.27475 389.378 5.21119 386.757L-0.348488 389.013C0.977286 392.28 2.76323 394.993 5.10855 396.965L8.97015 392.373ZM5.22508 386.792C4.22943 384.247 3.70335 381.319 3.70335 377.965L-2.29665 377.965C-2.29665 381.949 -1.67073 385.634 -0.362378 388.978L5.22508 386.792Z" fill="url(#paint0_linear_2148_4400)" mask="url(#path-1-outside-1_2148_4400)"/>
<defs>
<linearGradient id="paint0_linear_2148_4400" x1="21.1514" y1="-2" x2="21.1513" y2="398" gradientUnits="userSpaceOnUse">
<stop stop-color="#48A0F0"/>
<stop offset="1" stop-color="#54BDAC"/>
</linearGradient>
</defs>
</svg>
