<svg width="45" height="249" viewBox="0 0 45 249" fill="none" xmlns="http://www.w3.org/2000/svg">
<mask id="path-1-outside-1_2148_4400" maskUnits="userSpaceOnUse" x="-4.84864" y="-3" width="52" height="255" fill="black">
<rect fill="white" x="-4.84864" y="-3" width="52" height="255"/>
<path d="M0.0153657 27.8715L16.6554 11.1675L3.15137 11.1675L3.15137 0.287499L40.0154 0.287501C40.698 1.3115 41.338 2.67683 41.9354 4.3835C42.5754 6.13283 43.0874 8.07417 43.4714 10.2075C43.898 12.3408 44.1114 14.5168 44.1114 16.7355C44.1114 22.1542 42.8527 26.3782 40.3354 29.4075C37.818 32.4795 34.3407 34.0155 29.9034 34.0155C26.5327 34.0155 23.7167 33.1622 21.4554 31.4555C19.194 29.7915 17.53 27.5302 16.4634 24.6715L7.95137 35.2315L0.0153657 27.8715ZM23.1194 17.2475C23.1194 19.1248 23.7167 20.5755 24.9114 21.5995C26.106 22.6235 27.6207 23.1355 29.4554 23.1355C31.3327 23.1355 32.826 22.5808 33.9354 21.4715C35.0874 20.4048 35.6634 18.7408 35.6634 16.4795C35.6634 14.3462 35.2367 12.5755 34.3834 11.1675L29.3914 11.1675C27.386 11.1675 25.8287 11.7435 24.7194 12.8955C23.6527 14.0902 23.1194 15.5408 23.1194 17.2475ZM2.89536 81.532C2.89536 77.2653 3.70603 73.5747 5.32736 70.46C6.99136 67.388 9.35936 65.02 12.4314 63.356C15.5034 61.692 19.1727 60.86 23.4394 60.86C27.706 60.86 31.3754 61.692 34.4474 63.356C37.562 65.02 39.9514 67.388 41.6154 70.46C43.2794 73.5747 44.1114 77.2653 44.1114 81.532C44.1114 85.7987 43.2794 89.4253 41.6154 92.412C39.9514 95.4413 37.562 97.7453 34.4474 99.324C31.3754 100.903 27.706 101.692 23.4394 101.692C17.0394 101.692 12.0047 99.9213 8.33536 96.38C4.7087 92.8813 2.89536 87.932 2.89536 81.532ZM12.1114 81.532C12.1114 84.4333 13.05 86.6307 14.9274 88.124C16.8474 89.66 19.6634 90.428 23.3754 90.428C27.0874 90.428 29.9247 89.66 31.8874 88.124C33.8927 86.6307 34.8954 84.4333 34.8954 81.532C34.8954 78.6307 33.8927 76.3267 31.8874 74.62C29.9247 72.956 27.0874 72.124 23.3754 72.124C19.6634 72.124 16.8474 72.956 14.9274 74.62C13.05 76.3267 12.1114 78.6307 12.1114 81.532ZM2.89536 150.495C2.89536 146.228 3.70603 142.537 5.32736 139.423C6.99136 136.351 9.35936 133.983 12.4314 132.319C15.5034 130.655 19.1727 129.823 23.4394 129.823C27.706 129.823 31.3754 130.655 34.4474 132.319C37.562 133.983 39.9514 136.351 41.6154 139.423C43.2794 142.537 44.1114 146.228 44.1114 150.495C44.1114 154.761 43.2794 158.388 41.6154 161.375C39.9514 164.404 37.562 166.708 34.4474 168.287C31.3754 169.865 27.706 170.655 23.4394 170.655C17.0394 170.655 12.0047 168.884 8.33536 165.343C4.70869 161.844 2.89536 156.895 2.89536 150.495ZM12.1114 150.495C12.1114 153.396 13.05 155.593 14.9274 157.087C16.8474 158.623 19.6634 159.391 23.3754 159.391C27.0874 159.391 29.9247 158.623 31.8874 157.087C33.8927 155.593 34.8954 153.396 34.8954 150.495C34.8954 147.593 33.8927 145.289 31.8874 143.583C29.9247 141.919 27.0874 141.087 23.3754 141.087C19.6634 141.087 16.8474 141.919 14.9274 143.583C13.05 145.289 12.1114 147.593 12.1114 150.495ZM3.15136 198.16L43.8554 202L43.8554 214.8L21.1354 223.184L20.3674 223.376L21.1354 223.504L43.8554 232.336L43.8554 245.136L3.15136 248.336L3.15136 236.816L27.7914 235.536L28.8794 235.344L28.8794 235.216L27.7914 234.896L6.99136 227.216L6.99136 219.536L27.7914 211.792L28.8794 211.536L28.8794 211.344L27.7914 211.152L3.15136 209.68L3.15136 198.16Z"/>
</mask>
<path d="M0.0153657 27.8715L-2.11002 25.7543L-4.30428 27.957L-2.02463 30.0711L0.0153657 27.8715ZM16.6554 11.1675L18.7808 13.2847L23.8784 8.1675L16.6554 8.1675L16.6554 11.1675ZM3.15137 11.1675L0.151367 11.1675L0.151366 14.1675L3.15137 14.1675L3.15137 11.1675ZM3.15137 0.287499L3.15137 -2.7125L0.151367 -2.7125L0.151367 0.287499L3.15137 0.287499ZM40.0154 0.287501L42.5115 -1.3766L41.6209 -2.7125L40.0154 -2.7125L40.0154 0.287501ZM41.9354 4.3835L39.1038 5.37455L39.1108 5.39445L39.118 5.41425L41.9354 4.3835ZM43.4714 10.2075L40.5188 10.739L40.5239 10.7675L40.5296 10.7958L43.4714 10.2075ZM40.3354 29.4075L38.028 27.4901L38.0215 27.4981L38.0149 27.506L40.3354 29.4075ZM21.4554 31.4555L23.2626 29.0609L23.2481 29.05L23.2334 29.0392L21.4554 31.4555ZM16.4634 24.6715L19.2741 23.6227L17.4329 18.6884L14.1277 22.7888L16.4634 24.6715ZM7.95137 35.2315L5.91137 37.4311L8.26907 39.6177L10.2871 37.1142L7.95137 35.2315ZM24.9114 21.5995L22.959 23.8773L22.959 23.8773L24.9114 21.5995ZM33.9354 21.4715L31.8971 19.2702L31.8548 19.3094L31.814 19.3502L33.9354 21.4715ZM34.3834 11.1675L36.949 9.6126L36.0731 8.1675L34.3834 8.1675L34.3834 11.1675ZM24.7194 12.8955L22.5584 10.8146L22.5192 10.8553L22.4816 10.8975L24.7194 12.8955ZM2.14075 29.9887L18.7808 13.2847L14.53 9.05026L-2.11002 25.7543L2.14075 29.9887ZM16.6554 8.1675L3.15137 8.1675L3.15137 14.1675L16.6554 14.1675L16.6554 8.1675ZM6.15137 11.1675L6.15137 0.2875L0.151367 0.287499L0.151367 11.1675L6.15137 11.1675ZM3.15137 3.2875L40.0154 3.2875L40.0154 -2.7125L3.15137 -2.7125L3.15137 3.2875ZM37.5192 1.9516C38.0137 2.69334 38.5546 3.80541 39.1038 5.37455L44.7669 3.39245C44.1215 1.54826 43.3824 -0.0703426 42.5115 -1.3766L37.5192 1.9516ZM39.118 5.41425C39.69 6.97761 40.1606 8.74879 40.5188 10.739L46.4239 9.67604C46.0141 7.39954 45.4608 5.28806 44.7527 3.35275L39.118 5.41425ZM40.5296 10.7958C40.9168 12.7317 41.1114 14.7105 41.1114 16.7355L47.1114 16.7355C47.1114 14.3232 46.8793 11.95 46.4131 9.61915L40.5296 10.7958ZM41.1114 16.7355C41.1114 21.7156 39.955 25.1713 38.028 27.4901L42.6427 31.3249C45.7505 27.585 47.1114 22.5928 47.1114 16.7355L41.1114 16.7355ZM38.0149 27.506C36.1389 29.7954 33.5609 31.0155 29.9034 31.0155L29.9034 37.0155C35.1205 37.0155 39.4972 35.1636 42.6558 31.309L38.0149 27.506ZM29.9034 31.0155C27.0572 31.0155 24.9099 30.3042 23.2626 29.0609L19.6481 33.8501C22.5235 36.0202 26.0082 37.0155 29.9034 37.0155L29.9034 31.0155ZM23.2334 29.0392C21.4827 27.751 20.1553 25.9843 19.2741 23.6227L13.6527 25.7203C14.9048 29.076 16.9053 31.8321 19.6773 33.8718L23.2334 29.0392ZM14.1277 22.7888L5.61568 33.3488L10.2871 37.1142L18.7991 26.5542L14.1277 22.7888ZM9.99136 33.0319L2.05536 25.6719L-2.02463 30.0711L5.91137 37.4311L9.99136 33.0319ZM20.1194 17.2475C20.1194 19.8146 20.9701 22.1725 22.959 23.8773L26.8637 19.3217C26.4633 18.9785 26.1194 18.4351 26.1194 17.2475L20.1194 17.2475ZM22.959 23.8773C24.7856 25.443 27.0301 26.1355 29.4554 26.1355L29.4554 20.1355C28.2113 20.1355 27.4264 19.804 26.8637 19.3217L22.959 23.8773ZM29.4554 26.1355C31.9607 26.1355 34.2764 25.3731 36.0567 23.5928L31.814 19.3502C31.3757 19.7885 30.7047 20.1355 29.4554 20.1355L29.4554 26.1355ZM35.9736 23.6728C37.9678 21.8262 38.6634 19.2025 38.6634 16.4795L32.6634 16.4795C32.6634 18.2791 32.2069 18.9834 31.8971 19.2702L35.9736 23.6728ZM38.6634 16.4795C38.6634 13.9569 38.1589 11.609 36.949 9.6126L31.8178 12.7224C32.3145 13.542 32.6634 14.7354 32.6634 16.4795L38.6634 16.4795ZM34.3834 8.1675L29.3914 8.1675L29.3914 14.1675L34.3834 14.1675L34.3834 8.1675ZM29.3914 8.1675C26.7905 8.1675 24.3694 8.93391 22.5584 10.8146L26.8803 14.9764C27.288 14.5531 27.9816 14.1675 29.3914 14.1675L29.3914 8.1675ZM22.4816 10.8975C20.89 12.68 20.1194 14.8565 20.1194 17.2475L26.1194 17.2475C26.1194 16.2252 26.4154 15.5004 26.9572 14.8935L22.4816 10.8975ZM5.32736 70.46L2.68949 69.0312L2.67772 69.0529L2.66631 69.0748L5.32736 70.46ZM12.4314 63.356L13.8602 65.9939L12.4314 63.356ZM34.4474 63.356L33.0185 65.9939L33.0261 65.998L33.0337 66.0021L34.4474 63.356ZM41.6154 70.46L44.2614 69.0464L44.2574 69.0387L44.2532 69.0312L41.6154 70.46ZM41.6154 92.412L38.9947 90.9519L38.9903 90.9598L38.9859 90.9677L41.6154 92.412ZM34.4474 99.324L33.0911 96.6481L33.0836 96.6519L33.0762 96.6557L34.4474 99.324ZM8.33536 96.38L10.4187 94.2214L10.4182 94.2209L8.33536 96.38ZM14.9274 88.124L16.8015 85.7814L16.7949 85.7762L14.9274 88.124ZM31.8874 88.124L30.0956 85.7179L30.0667 85.7393L30.0384 85.7615L31.8874 88.124ZM31.8874 74.62L33.8317 72.3354L33.8274 72.3317L31.8874 74.62ZM14.9274 74.62L12.9626 72.3529L12.9357 72.3762L12.9093 72.4002L14.9274 74.62ZM5.89536 81.532C5.89536 77.645 6.63274 74.4495 7.98842 71.8452L2.66631 69.0748C0.779324 72.6998 -0.104636 76.8856 -0.104637 81.532L5.89536 81.532ZM7.96524 71.8889C9.35204 69.3286 11.3 67.3807 13.8602 65.9939L11.0025 60.7181C7.41876 62.6593 4.63069 65.4474 2.68949 69.0312L7.96524 71.8889ZM13.8602 65.9939C16.4065 64.6147 19.5624 63.86 23.4394 63.86L23.4394 57.86C18.783 57.86 14.6003 58.7693 11.0025 60.7181L13.8602 65.9939ZM23.4394 63.86C27.3164 63.86 30.4723 64.6147 33.0185 65.9939L35.8762 60.7181C32.2785 58.7693 28.0957 57.86 23.4394 57.86L23.4394 63.86ZM33.0337 66.0021C35.6358 67.3922 37.5967 69.3397 38.9775 71.8889L44.2532 69.0312C42.3061 65.4363 39.4883 62.6478 35.861 60.7099L33.0337 66.0021ZM38.9693 71.8736C40.3572 74.4716 41.1114 77.6566 41.1114 81.532L47.1114 81.532C47.1114 76.8741 46.2015 72.6778 44.2614 69.0464L38.9693 71.8736ZM41.1114 81.532C41.1114 85.4125 40.3555 88.5094 38.9947 90.9519L44.2361 93.8721C46.2032 90.3413 47.1114 86.1848 47.1114 81.532L41.1114 81.532ZM38.9859 90.9677C37.6159 93.4619 35.673 95.3394 33.0911 96.6481L35.8036 102C39.4511 100.151 42.2869 97.4208 44.2448 93.8563L38.9859 90.9677ZM33.0762 96.6557C30.5166 97.971 27.3394 98.692 23.4394 98.692L23.4394 104.692C28.0727 104.692 32.2341 103.834 35.8186 101.992L33.0762 96.6557ZM23.4394 98.692C17.6086 98.692 13.3952 97.094 10.4187 94.2214L6.25203 98.5386C10.6142 102.749 16.4701 104.692 23.4394 104.692L23.4394 98.692ZM10.4182 94.2209C7.52611 91.4309 5.89536 87.35 5.89536 81.532L-0.104637 81.532C-0.104637 88.514 1.89128 94.3318 6.25249 98.5391L10.4182 94.2209ZM9.11136 81.532C9.11136 85.1351 10.3157 88.289 13.0598 90.4718L16.7949 85.7762C15.7844 84.9723 15.1114 83.7315 15.1114 81.532L9.11136 81.532ZM13.0533 90.4666C15.7166 92.5972 19.3139 93.428 23.3754 93.428L23.3754 87.428C20.0128 87.428 17.9782 86.7228 16.8014 85.7814L13.0533 90.4666ZM23.3754 93.428C27.4433 93.428 31.0426 92.5946 33.7363 90.4865L30.0384 85.7615C28.8068 86.7254 26.7314 87.428 23.3754 87.428L23.3754 93.428ZM33.6792 90.5301C36.5735 88.3748 37.8954 85.2083 37.8954 81.532L31.8954 81.532C31.8954 83.6584 31.2119 84.8866 30.0956 85.7179L33.6792 90.5301ZM37.8954 81.532C37.8954 77.8522 36.5801 74.6744 33.8317 72.3354L29.943 76.9046C31.2053 77.9789 31.8954 79.4091 31.8954 81.532L37.8954 81.532ZM33.8274 72.3317C31.1267 70.042 27.4897 69.124 23.3754 69.124L23.3754 75.124C26.685 75.124 28.7227 75.87 29.9473 76.9083L33.8274 72.3317ZM23.3754 69.124C19.267 69.124 15.6319 70.0395 12.9626 72.3529L16.8922 76.8871C18.0629 75.8725 20.0597 75.124 23.3754 75.124L23.3754 69.124ZM12.9093 72.4002C10.314 74.7596 9.11136 77.9193 9.11136 81.532L15.1114 81.532C15.1114 79.3421 15.7861 77.8937 16.9454 76.8398L12.9093 72.4002ZM5.32736 139.423L2.68949 137.994L2.67772 138.015L2.66631 138.037L5.32736 139.423ZM12.4314 132.319L13.8602 134.956L12.4314 132.319ZM34.4474 132.319L33.0185 134.956L33.0261 134.96L33.0337 134.965L34.4474 132.319ZM41.6154 139.423L44.2614 138.009L44.2573 138.001L44.2532 137.994L41.6154 139.423ZM41.6154 161.375L38.9947 159.914L38.9903 159.922L38.9859 159.93L41.6154 161.375ZM34.4474 168.287L33.0911 165.611L33.0836 165.614L33.0762 165.618L34.4474 168.287ZM8.33536 165.343L10.4187 163.184L10.4182 163.183L8.33536 165.343ZM14.9274 157.087L16.8015 154.744L16.7949 154.739L14.9274 157.087ZM31.8874 157.087L30.0956 154.68L30.0667 154.702L30.0384 154.724L31.8874 157.087ZM31.8874 143.583L33.8317 141.298L33.8274 141.294L31.8874 143.583ZM14.9274 143.583L12.9626 141.315L12.9357 141.339L12.9093 141.363L14.9274 143.583ZM5.89536 150.495C5.89536 146.608 6.63273 143.412 7.98841 140.808L2.66631 138.037C0.779321 141.662 -0.104639 145.848 -0.10464 150.495L5.89536 150.495ZM7.96524 140.851C9.35204 138.291 11.3 136.343 13.8602 134.956L11.0025 129.681C7.41876 131.622 4.63069 134.41 2.68949 137.994L7.96524 140.851ZM13.8602 134.956C16.4065 133.577 19.5624 132.823 23.4394 132.823L23.4394 126.823C18.783 126.823 14.6003 127.732 11.0025 129.681L13.8602 134.956ZM23.4394 132.823C27.3164 132.823 30.4723 133.577 33.0185 134.956L35.8762 129.681C32.2785 127.732 28.0957 126.823 23.4394 126.823L23.4394 132.823ZM33.0337 134.965C35.6358 136.355 37.5967 138.302 38.9775 140.851L44.2532 137.994C42.3061 134.399 39.4883 131.61 35.861 129.672L33.0337 134.965ZM38.9693 140.836C40.3572 143.434 41.1114 146.619 41.1114 150.495L47.1114 150.495C47.1114 145.837 46.2015 141.64 44.2614 138.009L38.9693 140.836ZM41.1114 150.495C41.1114 154.375 40.3555 157.472 38.9947 159.914L44.2361 162.835C46.2032 159.304 47.1114 155.147 47.1114 150.495L41.1114 150.495ZM38.9859 159.93C37.6159 162.424 35.673 164.302 33.0911 165.611L35.8036 170.962C39.451 169.114 42.2869 166.383 44.2448 162.819L38.9859 159.93ZM33.0762 165.618C30.5166 166.934 27.3394 167.655 23.4394 167.655L23.4394 173.655C28.0727 173.655 32.2341 172.797 35.8186 170.955L33.0762 165.618ZM23.4394 167.655C17.6086 167.655 13.3952 166.057 10.4187 163.184L6.25202 167.501C10.6142 171.711 16.4701 173.655 23.4394 173.655L23.4394 167.655ZM10.4182 163.183C7.52611 160.393 5.89536 156.313 5.89536 150.495L-0.10464 150.495C-0.10464 157.476 1.89128 163.294 6.25248 167.502L10.4182 163.183ZM9.11136 150.495C9.11136 154.098 10.3157 157.252 13.0598 159.434L16.7949 154.739C15.7844 153.935 15.1114 152.694 15.1114 150.495L9.11136 150.495ZM13.0533 159.429C15.7166 161.56 19.3139 162.391 23.3754 162.391L23.3754 156.391C20.0128 156.391 17.9782 155.685 16.8014 154.744L13.0533 159.429ZM23.3754 162.391C27.4433 162.391 31.0426 161.557 33.7363 159.449L30.0384 154.724C28.8068 155.688 26.7314 156.391 23.3754 156.391L23.3754 162.391ZM33.6792 159.493C36.5735 157.337 37.8954 154.171 37.8954 150.495L31.8954 150.495C31.8954 152.621 31.2119 153.849 30.0956 154.68L33.6792 159.493ZM37.8954 150.495C37.8954 146.815 36.5801 143.637 33.8317 141.298L29.943 145.867C31.2053 146.941 31.8954 148.372 31.8954 150.495L37.8954 150.495ZM33.8274 141.294C31.1267 139.005 27.4897 138.087 23.3754 138.087L23.3754 144.087C26.685 144.087 28.7227 144.833 29.9473 145.871L33.8274 141.294ZM23.3754 138.087C19.267 138.087 15.6319 139.002 12.9626 141.315L16.8922 145.85C18.0629 144.835 20.0597 144.087 23.3754 144.087L23.3754 138.087ZM12.9093 141.363C10.314 143.722 9.11136 146.882 9.11136 150.495L15.1114 150.495C15.1114 148.305 15.7861 146.856 16.9454 145.802L12.9093 141.363ZM3.15136 198.16L3.43313 195.173L0.151359 194.864L0.151358 198.16L3.15136 198.16ZM43.8554 202L46.8554 202L46.8554 199.27L44.1371 199.013L43.8554 202ZM43.8554 214.8L44.8939 217.614L46.8554 216.891L46.8554 214.8L43.8554 214.8ZM21.1354 223.184L21.863 226.094L22.0211 226.055L22.1739 225.998L21.1354 223.184ZM20.3674 223.376L19.6398 220.466L19.8742 226.335L20.3674 223.376ZM21.1354 223.504L22.2223 220.708L21.9338 220.596L21.6286 220.545L21.1354 223.504ZM43.8554 232.336L46.8554 232.336L46.8554 230.284L44.9423 229.54L43.8554 232.336ZM43.8554 245.136L44.0905 248.127L46.8554 247.909L46.8554 245.136L43.8554 245.136ZM3.15136 248.336L0.151356 248.336L0.151356 251.581L3.38648 251.327L3.15136 248.336ZM3.15136 236.816L2.99572 233.82L0.151357 233.968L0.151357 236.816L3.15136 236.816ZM27.7914 235.536L27.947 238.532L28.1311 238.522L28.3127 238.49L27.7914 235.536ZM28.8794 235.344L29.4007 238.298L31.8794 237.861L31.8794 235.344L28.8794 235.344ZM28.8794 235.216L31.8794 235.216L31.8794 232.971L29.7259 232.338L28.8794 235.216ZM27.7914 234.896L26.7522 237.71L26.8475 237.745L26.9449 237.774L27.7914 234.896ZM6.99136 227.216L3.99136 227.216L3.99136 229.306L5.95223 230.03L6.99136 227.216ZM6.99136 219.536L5.94463 216.725L3.99136 217.452L3.99136 219.536L6.99136 219.536ZM27.7914 211.792L27.1042 208.872L26.921 208.915L26.7446 208.981L27.7914 211.792ZM28.8794 211.536L29.5665 214.456L31.8794 213.912L31.8794 211.536L28.8794 211.536ZM28.8794 211.344L31.8794 211.344L31.8794 208.827L29.4007 208.39L28.8794 211.344ZM27.7914 211.152L28.3127 208.198L28.1426 208.168L27.9703 208.157L27.7914 211.152ZM3.15136 209.68L0.151358 209.68L0.151358 212.506L2.97246 212.675L3.15136 209.68ZM2.86959 201.147L43.5736 204.987L44.1371 199.013L3.43313 195.173L2.86959 201.147ZM40.8554 202L40.8554 214.8L46.8554 214.8L46.8554 202L40.8554 202ZM42.8168 211.986L20.0968 220.37L22.1739 225.998L44.8939 217.614L42.8168 211.986ZM20.4078 220.274L19.6398 220.466L21.095 226.286L21.863 226.094L20.4078 220.274ZM19.8742 226.335L20.6422 226.463L21.6286 220.545L20.8606 220.417L19.8742 226.335ZM20.0484 226.3L42.7684 235.132L44.9423 229.54L22.2223 220.708L20.0484 226.3ZM40.8554 232.336L40.8554 245.136L46.8554 245.136L46.8554 232.336L40.8554 232.336ZM43.6202 242.145L2.91623 245.345L3.38648 251.327L44.0905 248.127L43.6202 242.145ZM6.15136 248.336L6.15136 236.816L0.151357 236.816L0.151356 248.336L6.15136 248.336ZM3.30699 239.812L27.947 238.532L27.6357 232.54L2.99572 233.82L3.30699 239.812ZM28.3127 238.49L29.4007 238.298L28.358 232.39L27.27 232.582L28.3127 238.49ZM31.8794 235.344L31.8794 235.216L25.8794 235.216L25.8794 235.344L31.8794 235.344ZM29.7259 232.338L28.6379 232.018L26.9449 237.774L28.0329 238.094L29.7259 232.338ZM28.8305 232.082L8.03048 224.402L5.95223 230.03L26.7522 237.71L28.8305 232.082ZM9.99136 227.216L9.99136 219.536L3.99136 219.536L3.99136 227.216L9.99136 227.216ZM8.03809 222.347L28.8381 214.603L26.7446 208.981L5.94463 216.725L8.03809 222.347ZM28.4785 214.712L29.5665 214.456L28.1922 208.616L27.1042 208.872L28.4785 214.712ZM31.8794 211.536L31.8794 211.344L25.8794 211.344L25.8794 211.536L31.8794 211.536ZM29.4007 208.39L28.3127 208.198L27.27 214.106L28.358 214.298L29.4007 208.39ZM27.9703 208.157L3.33026 206.685L2.97246 212.675L27.6125 214.147L27.9703 208.157ZM6.15136 209.68L6.15136 198.16L0.151358 198.16L0.151358 209.68L6.15136 209.68Z" fill="url(#paint0_linear_2148_4400)" mask="url(#path-1-outside-1_2148_4400)"/>
<defs>
<linearGradient id="paint0_linear_2148_4400" x1="23.1514" y1="-3" x2="23.1514" y2="251" gradientUnits="userSpaceOnUse">
<stop stop-color="#48A0F0"/>
<stop offset="1" stop-color="#54BDAC"/>
</linearGradient>
</defs>
</svg>
