<svg width="43" height="381" viewBox="0 0 43 381" fill="none" xmlns="http://www.w3.org/2000/svg">
<mask id="path-1-outside-1_2148_4399" maskUnits="userSpaceOnUse" x="-2.70803" y="-3.58594" width="48" height="388" fill="black">
<rect fill="white" x="-2.70803" y="-3.58594" width="48" height="388"/>
<path d="M0.715989 17.0526C0.715989 13.81 1.18532 10.6953 2.12399 7.70865C3.10532 4.76465 4.34266 2.41798 5.83599 0.668648L13.708 4.18865C13.0253 5.08465 12.4067 6.19398 11.852 7.51665C11.2973 8.83932 10.8493 10.2686 10.508 11.8046C10.1667 13.3406 9.99599 14.8126 9.99599 16.2206C9.99599 18.2687 10.316 19.6766 10.956 20.4446C11.596 21.2126 12.3427 21.5966 13.196 21.5966C14.0493 21.5966 14.732 21.2766 15.244 20.6367C15.756 20.0393 16.268 19.058 16.78 17.6927L18.764 12.3166C20.0013 8.98865 21.4947 6.30065 23.244 4.25265C25.036 2.24732 27.4893 1.24465 30.604 1.24465C34.2307 1.24465 37.068 2.65265 39.116 5.46865C41.2067 8.32732 42.252 12.3807 42.252 17.6287C42.252 21.042 41.8253 23.986 40.972 26.4607C40.1613 28.978 39.0733 31.026 37.708 32.6047L30.22 29.3407C30.732 28.4447 31.2013 27.3353 31.628 26.0127C32.0547 24.69 32.3747 23.3033 32.588 21.8527C32.844 20.4447 32.972 19.1007 32.972 17.8207C32.972 16.0713 32.7373 14.7913 32.268 13.9807C31.7987 13.2126 31.18 12.8286 30.412 12.8286C29.772 12.8286 29.1747 13.1273 28.62 13.7247C28.108 14.322 27.596 15.3247 27.084 16.7326L25.356 21.4047C23.7773 25.714 22.092 28.7433 20.3 30.4927C18.5507 32.2847 16.2893 33.1807 13.516 33.1807C9.80399 33.1807 6.73199 31.794 4.29999 29.0206C1.91066 26.29 0.715989 22.3006 0.715989 17.0526ZM1.29199 70.6137L33.484 70.6137L33.484 60.0537L41.996 60.0537L41.996 92.0537L33.484 92.0537L33.484 81.4937L1.29199 81.4937L1.29199 70.6137ZM1.29198 114.094L42.06 128.174L42.06 141.166L1.29198 154.158L1.29198 142.446L9.35598 140.014L9.35598 128.494L1.29198 126.062L1.29198 114.094ZM18.316 130.926L18.316 138.222L30.028 134.83L30.028 134.574L18.316 130.926ZM1.29198 186.476L33.484 186.476L33.484 175.916L41.996 175.916L41.996 207.916L33.484 207.916L33.484 197.356L1.29198 197.356L1.29198 186.476ZM1.29198 235.409L41.996 235.409L41.996 246.289L1.29198 246.289L1.29198 235.409ZM1.03598 295.091C1.03598 290.824 1.84664 287.133 3.46798 284.019C5.13198 280.947 7.49998 278.579 10.572 276.915C13.644 275.251 17.3133 274.419 21.58 274.419C25.8466 274.419 29.516 275.251 32.588 276.915C35.7026 278.579 38.092 280.947 39.756 284.019C41.42 287.133 42.252 290.824 42.252 295.091C42.252 299.357 41.42 302.984 39.756 305.971C38.092 309 35.7026 311.304 32.588 312.883C29.516 314.461 25.8466 315.251 21.58 315.251C15.18 315.251 10.1453 313.48 6.47598 309.939C2.84931 306.44 1.03598 301.491 1.03598 295.091ZM10.252 295.091C10.252 297.992 11.1906 300.189 13.068 301.683C14.988 303.219 17.804 303.987 21.516 303.987C25.228 303.987 28.0653 303.219 30.028 301.683C32.0333 300.189 33.036 297.992 33.036 295.091C33.036 292.189 32.0333 289.885 30.028 288.179C28.0653 286.515 25.228 285.683 21.516 285.683C17.804 285.683 14.988 286.515 13.068 288.179C11.1906 289.885 10.252 292.189 10.252 295.091ZM1.29197 344.021L41.996 344.021L41.996 356.117L16.908 369.621L41.996 369.621L41.996 380.501L1.29197 380.501L1.29197 368.085L25.42 354.901L1.29197 354.901L1.29197 344.021Z"/>
</mask>
<path d="M2.12399 7.70865L-0.722061 6.75997L-0.730238 6.7845L-0.737992 6.80917L2.12399 7.70865ZM5.83599 0.668648L7.0606 -2.07002L5.01159 -2.98625L3.5543 -1.27914L5.83599 0.668648ZM13.708 4.18865L16.0943 6.00678L18.3887 2.99538L14.9326 1.44998L13.708 4.18865ZM11.852 7.51665L9.08541 6.35647L9.08541 6.35647L11.852 7.51665ZM10.508 11.8046L13.4366 12.4554L13.4366 12.4554L10.508 11.8046ZM10.956 20.4446L13.2607 18.5241L13.2607 18.5241L10.956 20.4446ZM15.244 20.6367L12.9662 18.6843L12.9331 18.7229L12.9014 18.7626L15.244 20.6367ZM16.78 17.6927L19.589 18.746L19.5917 18.7387L19.5944 18.7313L16.78 17.6927ZM18.764 12.3166L15.952 11.2712L15.9495 11.278L18.764 12.3166ZM23.244 4.25265L21.007 2.25366L20.9847 2.27868L20.9629 2.30419L23.244 4.25265ZM39.116 5.46865L36.6898 7.23317L36.6945 7.23961L39.116 5.46865ZM40.972 26.4607L38.1359 25.4827L38.1258 25.5118L38.1164 25.5411L40.972 26.4607ZM37.708 32.6047L36.5092 35.3547L38.533 36.2369L39.9771 34.5671L37.708 32.6047ZM30.22 29.3407L27.6153 27.8522L25.9566 30.7549L29.0212 32.0907L30.22 29.3407ZM31.628 26.0127L34.4831 26.9337L34.4831 26.9337L31.628 26.0127ZM32.588 21.8527L29.6364 21.316L29.6273 21.3659L29.6199 21.4162L32.588 21.8527ZM32.268 13.9807L34.8643 12.4775L34.8464 12.4467L34.8278 12.4163L32.268 13.9807ZM28.62 13.7247L26.4216 11.6833L26.381 11.727L26.3422 11.7723L28.62 13.7247ZM27.084 16.7326L29.8977 17.7733L29.9006 17.7656L29.9034 17.7579L27.084 16.7326ZM25.356 21.4047L22.5423 20.364L22.5391 20.3727L25.356 21.4047ZM20.3 30.4927L18.2044 28.3459L18.1785 28.3712L18.1533 28.397L20.3 30.4927ZM4.29999 29.0206L2.04226 30.9962L2.04441 30.9986L4.29999 29.0206ZM3.71599 17.0526C3.71599 14.1041 4.14202 11.2934 4.98597 8.60813L-0.737992 6.80917C-1.77138 10.0972 -2.28401 13.5159 -2.28401 17.0526L3.71599 17.0526ZM4.97004 8.65733C5.86937 5.95933 6.94591 3.98908 8.11768 2.61644L3.5543 -1.27914C1.7394 0.84688 0.341272 3.56997 -0.722061 6.75997L4.97004 8.65733ZM4.61138 3.40732L12.4834 6.92732L14.9326 1.44998L7.0606 -2.07002L4.61138 3.40732ZM11.3217 2.37052C10.4496 3.5151 9.71306 4.85976 9.08541 6.35647L14.6186 8.67683C15.1003 7.52821 15.601 6.6542 16.0943 6.00678L11.3217 2.37052ZM9.08541 6.35647C8.45542 7.85875 7.9558 9.46018 7.57943 11.1539L13.4366 12.4554C13.7428 11.0771 14.1392 9.81988 14.6186 8.67683L9.08541 6.35647ZM7.57943 11.1539C7.19608 12.8789 6.99599 14.5699 6.99599 16.2206L12.996 16.2206C12.996 15.0554 13.1372 13.8024 13.4366 12.4554L7.57943 11.1539ZM6.99599 16.2206C6.99599 18.3547 7.28315 20.7234 8.65133 22.3652L13.2607 18.5241C13.3481 18.6291 13.2598 18.5809 13.1614 18.1478C13.0668 17.7315 12.996 17.1058 12.996 16.2206L6.99599 16.2206ZM8.65132 22.3652C9.75263 23.6868 11.2955 24.5966 13.196 24.5966L13.196 18.5966C13.2097 18.5966 13.2384 18.5984 13.2761 18.6075C13.314 18.6166 13.3459 18.6294 13.368 18.6408C13.414 18.6644 13.3713 18.6568 13.2607 18.5241L8.65132 22.3652ZM13.196 24.5966C14.9172 24.5966 16.4787 23.8956 17.5866 22.5107L12.9014 18.7626C12.901 18.7631 12.9158 18.7447 12.9488 18.7181C12.9826 18.691 13.0255 18.6633 13.0747 18.6403C13.1814 18.5903 13.2407 18.5966 13.196 18.5966L13.196 24.5966ZM17.5218 22.589C18.3807 21.5869 19.0404 20.209 19.589 18.746L13.971 16.6393C13.4956 17.907 13.1313 18.4917 12.9662 18.6843L17.5218 22.589ZM19.5944 18.7313L21.5784 13.3553L15.9495 11.278L13.9655 16.654L19.5944 18.7313ZM21.5759 13.3621C22.7275 10.2649 24.0641 7.91157 25.5251 6.20111L20.9629 2.30419C18.9252 4.68973 17.2752 7.7124 15.952 11.2712L21.5759 13.3621ZM25.481 6.25164C26.6116 4.98639 28.1946 4.24465 30.604 4.24465L30.604 -1.75535C26.784 -1.75535 23.4604 -0.491754 21.007 2.25366L25.481 6.25164ZM30.604 4.24465C33.3178 4.24465 35.2334 5.23064 36.6898 7.23316L41.5422 3.70414C38.9026 0.0746602 35.1435 -1.75535 30.604 -1.75535L30.604 4.24465ZM36.6945 7.23961C38.2673 9.39019 39.252 12.7253 39.252 17.6287L45.252 17.6287C45.252 12.036 44.146 7.26445 41.5375 3.69769L36.6945 7.23961ZM39.252 17.6287C39.252 20.8047 38.8534 23.4018 38.1359 25.4827L43.8081 27.4386C44.7972 24.5702 45.252 21.2793 45.252 17.6287L39.252 17.6287ZM38.1164 25.5411C37.3975 27.7735 36.4805 29.4379 35.4389 30.6422L39.9771 34.5671C41.6662 32.6141 42.9252 30.1824 43.8276 27.3802L38.1164 25.5411ZM38.9067 29.8546L31.4187 26.5906L29.0212 32.0907L36.5092 35.3547L38.9067 29.8546ZM32.8247 30.8291C33.4679 29.7034 34.0132 28.3905 34.4831 26.9337L28.7729 25.0916C28.3895 26.2801 27.996 27.1859 27.6153 27.8522L32.8247 30.8291ZM34.4831 26.9337C34.9635 25.4445 35.3199 23.8952 35.5561 22.2891L29.6199 21.4162C29.4294 22.7114 29.1458 23.9355 28.7729 25.0916L34.4831 26.9337ZM35.5396 22.3893C35.8241 20.8246 35.972 19.3002 35.972 17.8207L29.972 17.8207C29.972 18.9011 29.8639 20.0647 29.6364 21.316L35.5396 22.3893ZM35.972 17.8207C35.972 15.9296 35.7408 13.9915 34.8643 12.4775L29.6717 15.4838C29.7339 15.5912 29.972 16.213 29.972 17.8207L35.972 17.8207ZM34.8278 12.4163C33.9238 10.937 32.4205 9.82865 30.412 9.82865L30.412 15.8286C30.3516 15.8286 30.2638 15.8208 30.1594 15.7918C30.0539 15.7626 29.9551 15.7185 29.8699 15.6656C29.6978 15.5588 29.6614 15.4684 29.7081 15.545L34.8278 12.4163ZM30.412 9.82865C28.7228 9.82865 27.3789 10.6524 26.4216 11.6833L30.8184 15.766C30.9032 15.6746 30.911 15.6933 30.8256 15.7359C30.7819 15.7578 30.7206 15.7824 30.6439 15.8009C30.5668 15.8195 30.4878 15.8286 30.412 15.8286L30.412 9.82865ZM26.3422 11.7723C25.4691 12.791 24.8091 14.21 24.2646 15.7074L29.9034 17.7579C30.3828 16.4393 30.7469 15.853 30.8978 15.677L26.3422 11.7723ZM24.2703 15.692L22.5423 20.364L28.1697 22.4453L29.8977 17.7733L24.2703 15.692ZM22.5391 20.3727C21.0069 24.5552 19.509 27.0723 18.2044 28.3459L22.3956 32.6394C24.675 30.4143 26.5478 26.8728 28.1729 22.4366L22.5391 20.3727ZM18.1533 28.397C17.0319 29.5457 15.5767 30.1807 13.516 30.1807L13.516 36.1807C17.0019 36.1807 20.0694 35.0236 22.4467 32.5883L18.1533 28.397ZM13.516 30.1807C10.6616 30.1807 8.41381 29.1617 6.55557 27.0427L2.04441 30.9986C5.05017 34.4262 8.94633 36.1807 13.516 36.1807L13.516 30.1807ZM6.55772 27.0451C4.82182 25.0612 3.71599 21.8929 3.71599 17.0526L-2.28401 17.0526C-2.28401 22.7084 -1.00051 27.5187 2.04226 30.9962L6.55772 27.0451ZM1.29199 70.6137L1.29199 67.6137L-1.70801 67.6136L-1.70801 70.6136L1.29199 70.6137ZM33.484 70.6137L33.484 73.6137L36.484 73.6137L36.484 70.6137L33.484 70.6137ZM33.484 60.0537L33.484 57.0537L30.484 57.0537L30.484 60.0537L33.484 60.0537ZM41.996 60.0537L44.996 60.0537L44.996 57.0537L41.996 57.0537L41.996 60.0537ZM41.996 92.0537L41.996 95.0537L44.996 95.0537L44.996 92.0537L41.996 92.0537ZM33.484 92.0537L30.484 92.0537L30.484 95.0537L33.484 95.0537L33.484 92.0537ZM33.484 81.4937L36.484 81.4937L36.484 78.4937L33.484 78.4937L33.484 81.4937ZM1.29199 81.4937L-1.70801 81.4937L-1.70801 84.4937L1.29199 84.4937L1.29199 81.4937ZM1.29199 73.6137L33.484 73.6137L33.484 67.6137L1.29199 67.6137L1.29199 73.6137ZM36.484 70.6137L36.484 60.0537L30.484 60.0537L30.484 70.6137L36.484 70.6137ZM33.484 63.0537L41.996 63.0537L41.996 57.0537L33.484 57.0537L33.484 63.0537ZM38.996 60.0537L38.996 92.0537L44.996 92.0537L44.996 60.0537L38.996 60.0537ZM41.996 89.0537L33.484 89.0537L33.484 95.0537L41.996 95.0537L41.996 89.0537ZM36.484 92.0537L36.484 81.4937L30.484 81.4937L30.484 92.0537L36.484 92.0537ZM33.484 78.4937L1.29199 78.4937L1.29199 84.4937L33.484 84.4937L33.484 78.4937ZM4.29199 81.4937L4.29199 70.6137L-1.70801 70.6136L-1.70801 81.4937L4.29199 81.4937ZM1.29198 114.094L2.27133 111.258L-1.70802 109.884L-1.70802 114.094L1.29198 114.094ZM42.06 128.174L45.06 128.174L45.06 126.036L43.0393 125.338L42.06 128.174ZM42.06 141.166L42.9709 144.024L45.06 143.358L45.06 141.166L42.06 141.166ZM1.29198 154.158L-1.70802 154.158L-1.70802 158.262L2.20289 157.016L1.29198 154.158ZM1.29198 142.446L0.425758 139.573L-1.70802 140.217L-1.70802 142.446L1.29198 142.446ZM9.35598 140.014L10.2222 142.886L12.356 142.242L12.356 140.014L9.35598 140.014ZM9.35598 128.494L12.356 128.494L12.356 126.265L10.2222 125.621L9.35598 128.494ZM1.29198 126.062L-1.70802 126.062L-1.70802 128.29L0.425758 128.934L1.29198 126.062ZM18.316 130.926L19.2081 128.061L15.316 126.849L15.316 130.926L18.316 130.926ZM18.316 138.222L15.316 138.222L15.316 142.214L19.1505 141.103L18.316 138.222ZM30.028 134.83L30.8625 137.711L33.028 137.084L33.028 134.83L30.028 134.83ZM30.028 134.574L33.028 134.574L33.028 132.366L30.9201 131.709L30.028 134.574ZM0.312641 116.929L41.0806 131.009L43.0393 125.338L2.27133 111.258L0.312641 116.929ZM39.06 128.174L39.06 141.166L45.06 141.166L45.06 128.174L39.06 128.174ZM41.1491 138.307L0.381076 151.299L2.20289 157.016L42.9709 144.024L41.1491 138.307ZM4.29198 154.158L4.29198 142.446L-1.70802 142.446L-1.70802 154.158L4.29198 154.158ZM2.15821 145.318L10.2222 142.886L8.48976 137.141L0.425758 139.573L2.15821 145.318ZM12.356 140.014L12.356 128.494L6.35598 128.494L6.35598 140.014L12.356 140.014ZM10.2222 125.621L2.15821 123.189L0.425758 128.934L8.48976 131.366L10.2222 125.621ZM4.29198 126.062L4.29198 114.094L-1.70802 114.094L-1.70802 126.062L4.29198 126.062ZM15.316 130.926L15.316 138.222L21.316 138.222L21.316 130.926L15.316 130.926ZM19.1505 141.103L30.8625 137.711L29.1934 131.948L17.4814 135.34L19.1505 141.103ZM33.028 134.83L33.028 134.574L27.028 134.574L27.028 134.83L33.028 134.83ZM30.9201 131.709L19.2081 128.061L17.4238 133.79L29.1358 137.438L30.9201 131.709ZM1.29198 186.476L1.29198 183.476L-1.70802 183.476L-1.70802 186.476L1.29198 186.476ZM33.484 186.476L33.484 189.476L36.484 189.476L36.484 186.476L33.484 186.476ZM33.484 175.916L33.484 172.916L30.484 172.916L30.484 175.916L33.484 175.916ZM41.996 175.916L44.996 175.916L44.996 172.916L41.996 172.916L41.996 175.916ZM41.996 207.916L41.996 210.916L44.996 210.916L44.996 207.916L41.996 207.916ZM33.484 207.916L30.484 207.916L30.484 210.916L33.484 210.916L33.484 207.916ZM33.484 197.356L36.484 197.356L36.484 194.356L33.484 194.356L33.484 197.356ZM1.29198 197.356L-1.70802 197.356L-1.70802 200.356L1.29198 200.356L1.29198 197.356ZM1.29198 189.476L33.484 189.476L33.484 183.476L1.29198 183.476L1.29198 189.476ZM36.484 186.476L36.484 175.916L30.484 175.916L30.484 186.476L36.484 186.476ZM33.484 178.916L41.996 178.916L41.996 172.916L33.484 172.916L33.484 178.916ZM38.996 175.916L38.996 207.916L44.996 207.916L44.996 175.916L38.996 175.916ZM41.996 204.916L33.484 204.916L33.484 210.916L41.996 210.916L41.996 204.916ZM36.484 207.916L36.484 197.356L30.484 197.356L30.484 207.916L36.484 207.916ZM33.484 194.356L1.29198 194.356L1.29198 200.356L33.484 200.356L33.484 194.356ZM4.29198 197.356L4.29198 186.476L-1.70802 186.476L-1.70802 197.356L4.29198 197.356ZM1.29198 235.409L1.29198 232.409L-1.70802 232.409L-1.70802 235.409L1.29198 235.409ZM41.996 235.409L44.996 235.409L44.996 232.409L41.996 232.409L41.996 235.409ZM41.996 246.289L41.996 249.289L44.996 249.289L44.996 246.289L41.996 246.289ZM1.29198 246.289L-1.70802 246.289L-1.70802 249.289L1.29198 249.289L1.29198 246.289ZM1.29198 238.409L41.996 238.409L41.996 232.409L1.29198 232.409L1.29198 238.409ZM38.996 235.409L38.996 246.289L44.996 246.289L44.996 235.409L38.996 235.409ZM41.996 243.289L1.29198 243.289L1.29198 249.289L41.996 249.289L41.996 243.289ZM4.29198 246.289L4.29198 235.409L-1.70802 235.409L-1.70802 246.289L4.29198 246.289ZM3.46798 284.019L0.830101 282.59L0.818333 282.612L0.806924 282.633L3.46798 284.019ZM10.572 276.915L12.0008 279.553L10.572 276.915ZM32.588 276.915L31.1591 279.553L31.1667 279.557L31.1743 279.561L32.588 276.915ZM39.756 284.019L42.402 282.605L42.398 282.597L42.3939 282.59L39.756 284.019ZM39.756 305.971L37.1353 304.511L37.1309 304.518L37.1265 304.526L39.756 305.971ZM32.588 312.883L31.2317 310.207L31.2242 310.211L31.2168 310.214L32.588 312.883ZM6.47598 309.939L8.55931 307.78L8.55885 307.78L6.47598 309.939ZM13.068 301.683L14.9421 299.34L14.9355 299.335L13.068 301.683ZM30.028 301.683L28.2362 299.277L28.2074 299.298L28.1791 299.32L30.028 301.683ZM30.028 288.179L31.9723 285.894L31.968 285.89L30.028 288.179ZM13.068 288.179L11.1032 285.912L11.0763 285.935L11.05 285.959L13.068 288.179ZM4.03598 295.091C4.03598 291.204 4.77335 288.008 6.12903 285.404L0.806924 282.633C-1.08006 286.258 -1.96402 290.444 -1.96402 295.091L4.03598 295.091ZM6.10585 285.447C7.49265 282.887 9.44058 280.939 12.0008 279.553L9.14313 274.277C5.55937 276.218 2.7713 279.006 0.830101 282.59L6.10585 285.447ZM12.0008 279.553C14.5471 278.173 17.703 277.419 21.58 277.419L21.58 271.419C16.9236 271.419 12.7409 272.328 9.14313 274.277L12.0008 279.553ZM21.58 277.419C25.457 277.419 28.6129 278.173 31.1591 279.553L34.0168 274.277C30.4191 272.328 26.2363 271.419 21.58 271.419L21.58 277.419ZM31.1743 279.561C33.7764 280.951 35.7373 282.898 37.1181 285.447L42.3939 282.59C40.4467 278.995 37.6289 276.206 34.0016 274.269L31.1743 279.561ZM37.1099 285.432C38.4978 288.03 39.252 291.215 39.252 295.091L45.252 295.091C45.252 290.433 44.3421 286.236 42.402 282.605L37.1099 285.432ZM39.252 295.091C39.252 298.971 38.4961 302.068 37.1353 304.511L42.3767 307.431C44.3439 303.9 45.252 299.743 45.252 295.091L39.252 295.091ZM37.1265 304.526C35.7565 307.021 33.8136 308.898 31.2317 310.207L33.9443 315.559C37.5917 313.71 40.4275 310.979 42.3854 307.415L37.1265 304.526ZM31.2168 310.214C28.6573 311.53 25.48 312.251 21.58 312.251L21.58 318.251C26.2133 318.251 30.3747 317.393 33.9592 315.551L31.2168 310.214ZM21.58 312.251C15.7492 312.251 11.5358 310.653 8.55931 307.78L4.39264 312.097C8.75483 316.307 14.6107 318.251 21.58 318.251L21.58 312.251ZM8.55885 307.78C5.66673 304.99 4.03598 300.909 4.03598 295.091L-1.96402 295.091C-1.96402 302.073 0.0318937 307.89 4.3931 312.098L8.55885 307.78ZM7.25198 295.091C7.25198 298.694 8.45632 301.848 11.2004 304.03L14.9355 299.335C13.925 298.531 13.252 297.29 13.252 295.091L7.25198 295.091ZM11.1939 304.025C13.8572 306.156 17.4545 306.987 21.516 306.987L21.516 300.987C18.1534 300.987 16.1188 300.281 14.9421 299.34L11.1939 304.025ZM21.516 306.987C25.584 306.987 29.1832 306.153 31.8769 304.045L28.1791 299.32C26.9474 300.284 24.872 300.987 21.516 300.987L21.516 306.987ZM31.8198 304.089C34.7141 301.933 36.036 298.767 36.036 295.091L30.036 295.091C30.036 297.217 29.3525 298.445 28.2362 299.277L31.8198 304.089ZM36.036 295.091C36.036 291.411 34.7207 288.233 31.9723 285.894L28.0836 290.463C29.346 291.538 30.036 292.968 30.036 295.091L36.036 295.091ZM31.968 285.89C29.2673 283.601 25.6304 282.683 21.516 282.683L21.516 288.683C24.8256 288.683 26.8633 289.429 28.0879 290.467L31.968 285.89ZM21.516 282.683C17.4076 282.683 13.7725 283.598 11.1032 285.912L15.0328 290.446C16.2035 289.431 18.2003 288.683 21.516 288.683L21.516 282.683ZM11.05 285.959C8.45458 288.318 7.25198 291.478 7.25198 295.091L13.252 295.091C13.252 292.901 13.9267 291.452 15.086 290.398L11.05 285.959ZM1.29197 344.021L1.29197 341.021L-1.70803 341.021L-1.70803 344.021L1.29197 344.021ZM41.996 344.021L44.996 344.021L44.996 341.021L41.996 341.021L41.996 344.021ZM41.996 356.117L43.4179 358.759L44.996 357.909L44.996 356.117L41.996 356.117ZM16.908 369.621L15.4861 366.98L16.908 372.621L16.908 369.621ZM41.996 369.621L44.996 369.621L44.996 366.621L41.996 366.621L41.996 369.621ZM41.996 380.501L41.996 383.501L44.996 383.501L44.996 380.501L41.996 380.501ZM1.29197 380.501L-1.70803 380.501L-1.70803 383.501L1.29197 383.501L1.29197 380.501ZM1.29197 368.085L-0.14654 365.453L-1.70803 366.306L-1.70803 368.085L1.29197 368.085ZM25.42 354.901L26.8585 357.534L25.42 351.901L25.42 354.901ZM1.29197 354.901L-1.70803 354.901L-1.70803 357.901L1.29197 357.901L1.29197 354.901ZM1.29197 347.021L41.996 347.021L41.996 341.021L1.29197 341.021L1.29197 347.021ZM38.996 344.021L38.996 356.117L44.996 356.117L44.996 344.021L38.996 344.021ZM40.5741 353.476L15.4861 366.98L18.3299 372.263L43.4179 358.759L40.5741 353.476ZM16.908 372.621L41.996 372.621L41.996 366.621L16.908 366.621L16.908 372.621ZM38.996 369.621L38.996 380.501L44.996 380.501L44.996 369.621L38.996 369.621ZM41.996 377.501L1.29197 377.501L1.29197 383.501L41.996 383.501L41.996 377.501ZM4.29197 380.501L4.29197 368.085L-1.70803 368.085L-1.70803 380.501L4.29197 380.501ZM2.73049 370.718L26.8585 357.534L23.9815 352.269L-0.14654 365.453L2.73049 370.718ZM25.42 351.901L1.29197 351.901L1.29197 357.901L25.42 357.901L25.42 351.901ZM4.29197 354.901L4.29197 344.021L-1.70803 344.021L-1.70803 354.901L4.29197 354.901Z" fill="url(#paint0_linear_2148_4399)" mask="url(#path-1-outside-1_2148_4399)"/>
<defs>
<linearGradient id="paint0_linear_2148_4399" x1="31.146" y1="-60.5859" x2="31.146" y2="403.991" gradientUnits="userSpaceOnUse">
<stop stop-color="#48A0F0"/>
<stop offset="1" stop-color="#54BDAC"/>
</linearGradient>
</defs>
</svg>
