<svg width="51" height="229" viewBox="0 0 51 229" fill="none" xmlns="http://www.w3.org/2000/svg">
<mask id="path-1-outside-1_2152_1350" maskUnits="userSpaceOnUse" x="-2.84864" y="51" width="47" height="165" fill="black">
<rect fill="white" x="-2.84864" y="51" width="47" height="165"/>
<path d="M0.151364 65.2721L32.3434 65.2721L32.3434 54.7121L40.8554 54.7121L40.8554 86.7121L32.3434 86.7121L32.3434 76.1521L0.151364 76.1521L0.151364 65.2721ZM0.151362 114.205L40.8554 114.205L40.8554 143.517L32.5354 143.517L32.5354 125.085L24.9834 125.085L24.9834 141.021L16.6634 141.021L16.6634 125.085L8.47136 125.085L8.47136 143.901L0.151361 143.901L0.151362 114.205ZM0.15136 171.402L40.9194 185.482L40.9194 198.474L0.151358 211.466L0.151358 199.754L8.21536 197.322L8.21536 185.802L0.151359 183.37L0.15136 171.402ZM17.1754 188.234L17.1754 195.53L28.8874 192.138L28.8874 191.882L17.1754 188.234Z"/>
</mask>
<path d="M0.151364 65.2721L0.151364 62.2721L-2.84864 62.2721L-2.84864 65.2721L0.151364 65.2721ZM32.3434 65.2721L32.3434 68.2721L35.3434 68.2721L35.3434 65.2721L32.3434 65.2721ZM32.3434 54.7121L32.3434 51.7121L29.3434 51.7121L29.3434 54.7121L32.3434 54.7121ZM40.8554 54.7121L43.8554 54.7121L43.8554 51.7121L40.8554 51.7121L40.8554 54.7121ZM40.8554 86.7121L40.8554 89.7121L43.8554 89.7121L43.8554 86.7121L40.8554 86.7121ZM32.3434 86.7121L29.3434 86.7121L29.3434 89.7121L32.3434 89.7121L32.3434 86.7121ZM32.3434 76.1521L35.3434 76.1521L35.3434 73.1521L32.3434 73.1521L32.3434 76.1521ZM0.151364 76.1521L-2.84864 76.1521L-2.84864 79.1521L0.151364 79.1521L0.151364 76.1521ZM0.151364 68.2721L32.3434 68.2721L32.3434 62.2721L0.151364 62.2721L0.151364 68.2721ZM35.3434 65.2721L35.3434 54.7121L29.3434 54.7121L29.3434 65.2721L35.3434 65.2721ZM32.3434 57.7121L40.8554 57.7121L40.8554 51.7121L32.3434 51.7121L32.3434 57.7121ZM37.8554 54.7121L37.8554 86.7121L43.8554 86.7121L43.8554 54.7121L37.8554 54.7121ZM40.8554 83.7121L32.3434 83.7121L32.3434 89.7121L40.8554 89.7121L40.8554 83.7121ZM35.3434 86.7121L35.3434 76.1521L29.3434 76.1521L29.3434 86.7121L35.3434 86.7121ZM32.3434 73.1521L0.151364 73.1521L0.151364 79.1521L32.3434 79.1521L32.3434 73.1521ZM3.15136 76.1521L3.15136 65.2721L-2.84864 65.2721L-2.84864 76.1521L3.15136 76.1521ZM0.151362 114.205L0.151362 111.205L-2.84864 111.205L-2.84864 114.205L0.151362 114.205ZM40.8554 114.205L43.8554 114.205L43.8554 111.205L40.8554 111.205L40.8554 114.205ZM40.8554 143.517L40.8554 146.517L43.8554 146.517L43.8554 143.517L40.8554 143.517ZM32.5354 143.517L29.5354 143.517L29.5354 146.517L32.5354 146.517L32.5354 143.517ZM32.5354 125.085L35.5354 125.085L35.5354 122.085L32.5354 122.085L32.5354 125.085ZM24.9834 125.085L24.9834 122.085L21.9834 122.085L21.9834 125.085L24.9834 125.085ZM24.9834 141.021L24.9834 144.021L27.9834 144.021L27.9834 141.021L24.9834 141.021ZM16.6634 141.021L13.6634 141.021L13.6634 144.021L16.6634 144.021L16.6634 141.021ZM16.6634 125.085L19.6634 125.085L19.6634 122.085L16.6634 122.085L16.6634 125.085ZM8.47136 125.085L8.47136 122.085L5.47136 122.085L5.47136 125.085L8.47136 125.085ZM8.47136 143.901L8.47136 146.901L11.4714 146.901L11.4714 143.901L8.47136 143.901ZM0.151361 143.901L-2.84864 143.901L-2.84864 146.901L0.151361 146.901L0.151361 143.901ZM0.151362 117.205L40.8554 117.205L40.8554 111.205L0.151362 111.205L0.151362 117.205ZM37.8554 114.205L37.8554 143.517L43.8554 143.517L43.8554 114.205L37.8554 114.205ZM40.8554 140.517L32.5354 140.517L32.5354 146.517L40.8554 146.517L40.8554 140.517ZM35.5354 143.517L35.5354 125.085L29.5354 125.085L29.5354 143.517L35.5354 143.517ZM32.5354 122.085L24.9834 122.085L24.9834 128.085L32.5354 128.085L32.5354 122.085ZM21.9834 125.085L21.9834 141.021L27.9834 141.021L27.9834 125.085L21.9834 125.085ZM24.9834 138.021L16.6634 138.021L16.6634 144.021L24.9834 144.021L24.9834 138.021ZM19.6634 141.021L19.6634 125.085L13.6634 125.085L13.6634 141.021L19.6634 141.021ZM16.6634 122.085L8.47136 122.085L8.47136 128.085L16.6634 128.085L16.6634 122.085ZM5.47136 125.085L5.47136 143.901L11.4714 143.901L11.4714 125.085L5.47136 125.085ZM8.47136 140.901L0.151361 140.901L0.151361 146.901L8.47136 146.901L8.47136 140.901ZM3.15136 143.901L3.15136 114.205L-2.84864 114.205L-2.84864 143.901L3.15136 143.901ZM0.15136 171.402L1.1307 168.566L-2.84864 167.192L-2.84864 171.402L0.15136 171.402ZM40.9194 185.482L43.9194 185.482L43.9194 183.344L41.8987 182.646L40.9194 185.482ZM40.9194 198.474L41.8303 201.332L43.9194 200.667L43.9194 198.474L40.9194 198.474ZM0.151358 211.466L-2.84864 211.466L-2.84864 215.571L1.06227 214.324L0.151358 211.466ZM0.151358 199.754L-0.714867 196.882L-2.84864 197.525L-2.84864 199.754L0.151358 199.754ZM8.21536 197.322L9.08158 200.194L11.2154 199.551L11.2154 197.322L8.21536 197.322ZM8.21536 185.802L11.2154 185.802L11.2154 183.573L9.08158 182.93L8.21536 185.802ZM0.151359 183.37L-2.84864 183.37L-2.84864 185.599L-0.714866 186.242L0.151359 183.37ZM17.1754 188.234L18.0675 185.37L14.1754 184.157L14.1754 188.234L17.1754 188.234ZM17.1754 195.53L14.1754 195.53L14.1754 199.522L18.0099 198.412L17.1754 195.53ZM28.8874 192.138L29.7219 195.02L31.8874 194.393L31.8874 192.138L28.8874 192.138ZM28.8874 191.882L31.8874 191.882L31.8874 189.674L29.7795 189.018L28.8874 191.882ZM-0.827984 174.238L39.94 188.318L41.8987 182.646L1.1307 168.566L-0.827984 174.238ZM37.9194 185.482L37.9194 198.474L43.9194 198.474L43.9194 185.482L37.9194 185.482ZM40.0085 195.616L-0.759549 208.608L1.06227 214.324L41.8303 201.332L40.0085 195.616ZM3.15136 211.466L3.15136 199.754L-2.84864 199.754L-2.84864 211.466L3.15136 211.466ZM1.01758 202.626L9.08158 200.194L7.34913 194.45L-0.714867 196.882L1.01758 202.626ZM11.2154 197.322L11.2154 185.802L5.21536 185.802L5.21536 197.322L11.2154 197.322ZM9.08158 182.93L1.01758 180.498L-0.714866 186.242L7.34913 188.674L9.08158 182.93ZM3.15136 183.37L3.15136 171.402L-2.84864 171.402L-2.84864 183.37L3.15136 183.37ZM14.1754 188.234L14.1754 195.53L20.1754 195.53L20.1754 188.234L14.1754 188.234ZM18.0099 198.412L29.7219 195.02L28.0528 189.256L16.3408 192.648L18.0099 198.412ZM31.8874 192.138L31.8874 191.882L25.8874 191.882L25.8874 192.138L31.8874 192.138ZM29.7795 189.018L18.0675 185.37L16.2832 191.098L27.9952 194.746L29.7795 189.018Z" fill="url(#paint0_linear_2152_1350)" mask="url(#path-1-outside-1_2152_1350)"/>
<defs>
<linearGradient id="paint0_linear_2152_1350" x1="30.0054" y1="-8.80609e-07" x2="30.0054" y2="228.422" gradientUnits="userSpaceOnUse">
<stop stop-color="#48A0F0"/>
<stop offset="1" stop-color="#54BDAC"/>
</linearGradient>
</defs>
</svg>
