<svg width="611" height="780" viewBox="0 0 611 780" fill="none" xmlns="http://www.w3.org/2000/svg">
<mask id="path-1-outside-1_1787_603" maskUnits="userSpaceOnUse" x="519" y="341" width="80" height="438" fill="black">
<rect fill="white" x="519" y="341" width="80" height="438"/>
<path d="M523.904 389.131L550.944 361.987L529 361.987L529 344.307L588.904 344.307C590.013 345.971 591.053 348.19 592.024 350.963C593.064 353.806 593.896 356.961 594.52 360.427C595.213 363.894 595.56 367.43 595.56 371.035C595.56 379.841 593.515 386.705 589.424 391.627C585.333 396.619 579.683 399.115 572.472 399.115C566.995 399.115 562.419 397.729 558.744 394.955C555.069 392.251 552.365 388.577 550.632 383.931L536.8 401.091L523.904 389.131ZM561.448 371.867C561.448 374.918 562.419 377.275 564.36 378.939C566.301 380.603 568.763 381.435 571.744 381.435C574.795 381.435 577.221 380.534 579.024 378.731C580.896 376.998 581.832 374.294 581.832 370.619C581.832 367.153 581.139 364.275 579.752 361.987L571.64 361.987C568.381 361.987 565.851 362.923 564.048 364.795C562.315 366.737 561.448 369.094 561.448 371.867ZM528.584 485.689C528.584 478.756 529.901 472.759 532.536 467.697C535.24 462.705 539.088 458.857 544.08 456.153C549.072 453.449 555.035 452.097 561.968 452.097C568.901 452.097 574.864 453.449 579.856 456.153C584.917 458.857 588.8 462.706 591.504 467.698C594.208 472.759 595.56 478.756 595.56 485.689C595.56 492.623 594.208 498.516 591.504 503.37C588.8 508.292 584.917 512.036 579.856 514.602C574.864 517.167 568.901 518.45 561.968 518.45C551.568 518.45 543.387 515.572 537.424 509.817C531.531 504.132 528.584 496.089 528.584 485.689ZM543.56 485.689C543.56 490.404 545.085 493.975 548.136 496.401C551.256 498.898 555.832 500.146 561.864 500.146C567.896 500.146 572.507 498.898 575.696 496.402C578.955 493.975 580.584 490.404 580.584 485.689C580.584 480.975 578.955 477.231 575.696 474.458C572.507 471.753 567.896 470.401 561.864 470.401C555.832 470.401 551.256 471.753 548.136 474.457C545.085 477.231 543.56 480.975 543.56 485.689ZM528.584 607.114C528.584 600.18 529.901 594.183 532.536 589.122C535.24 584.13 539.088 580.282 544.08 577.578C549.072 574.874 555.035 573.522 561.968 573.522C568.901 573.522 574.864 574.874 579.856 577.578C584.917 580.282 588.8 584.13 591.504 589.122C594.208 594.183 595.56 600.18 595.56 607.114C595.56 614.047 594.208 619.94 591.504 624.794C588.8 629.716 584.917 633.46 579.856 636.026C574.864 638.591 568.901 639.874 561.968 639.874C551.568 639.874 543.387 636.996 537.424 631.242C531.531 625.556 528.584 617.514 528.584 607.114ZM543.56 607.114C543.56 611.828 545.085 615.399 548.136 617.826C551.256 620.322 555.832 621.57 561.864 621.57C567.896 621.57 572.507 620.322 575.696 617.826C578.955 615.399 580.584 611.828 580.584 607.114C580.584 602.399 578.955 598.655 575.696 595.882C572.507 593.178 567.896 591.826 561.864 591.826C555.832 591.826 551.256 593.178 548.136 595.882C545.085 598.655 543.56 602.399 543.56 607.114ZM529 693.93L595.144 700.17L595.144 720.97L558.224 734.594L556.976 734.906L558.224 735.114L595.144 749.466L595.144 770.266L529 775.466L529 756.746L569.04 754.666L570.808 754.354L570.808 754.146L569.04 753.626L535.24 741.146L535.24 728.666L569.04 716.082L570.808 715.666L570.808 715.354L569.04 715.042L529 712.65L529 693.93Z"/>
</mask>
<path d="M523.904 389.131L521.779 387.014L519.584 389.217L521.864 391.331L523.904 389.131ZM550.944 361.987L553.069 364.104L558.167 358.987L550.944 358.987L550.944 361.987ZM529 361.987L526 361.987L526 364.987L529 364.987L529 361.987ZM529 344.307L529 341.307L526 341.307L526 344.307L529 344.307ZM588.904 344.307L591.4 342.643L590.51 341.307L588.904 341.307L588.904 344.307ZM592.024 350.963L589.192 351.954L589.199 351.974L589.207 351.994L592.024 350.963ZM594.52 360.427L591.567 360.959L591.573 360.987L591.578 361.016L594.52 360.427ZM589.424 391.627L587.117 389.71L587.11 389.718L587.104 389.726L589.424 391.627ZM558.744 394.955L560.551 392.561L560.537 392.55L560.522 392.539L558.744 394.955ZM550.632 383.931L553.443 382.882L551.602 377.948L548.296 382.048L550.632 383.931ZM536.8 401.091L534.76 403.291L537.118 405.477L539.136 402.974L536.8 401.091ZM564.36 378.939L562.408 381.217L562.408 381.217L564.36 378.939ZM579.024 378.731L576.986 376.53L576.943 376.569L576.903 376.61L579.024 378.731ZM579.752 361.987L582.318 360.432L581.442 358.987L579.752 358.987L579.752 361.987ZM564.048 364.795L561.887 362.714L561.848 362.755L561.81 362.797L564.048 364.795ZM526.029 391.248L553.069 364.104L548.819 359.87L521.779 387.014L526.029 391.248ZM550.944 358.987L529 358.987L529 364.987L550.944 364.987L550.944 358.987ZM532 361.987L532 344.307L526 344.307L526 361.987L532 361.987ZM529 347.307L588.904 347.307L588.904 341.307L529 341.307L529 347.307ZM586.408 345.971C587.329 347.353 588.27 349.318 589.192 351.954L594.856 349.972C593.837 347.061 592.698 344.589 591.4 342.643L586.408 345.971ZM589.207 351.994C590.179 354.651 590.969 357.635 591.567 360.959L597.473 359.896C596.823 356.286 595.949 352.961 594.841 349.932L589.207 351.994ZM591.578 361.016C592.232 364.285 592.56 367.623 592.56 371.035L598.56 371.035C598.56 367.236 598.195 363.503 597.462 359.839L591.578 361.016ZM592.56 371.035C592.56 379.402 590.617 385.498 587.117 389.71L591.731 393.545C596.412 387.911 598.56 380.279 598.56 371.035L592.56 371.035ZM587.104 389.726C583.654 393.935 578.903 396.115 572.472 396.115L572.472 402.115C580.462 402.115 587.012 399.303 591.744 393.529L587.104 389.726ZM572.472 396.115C567.519 396.115 563.612 394.871 560.551 392.561L556.937 397.35C561.225 400.587 566.47 402.115 572.472 402.115L572.472 396.115ZM560.522 392.539C557.358 390.211 554.991 387.031 553.443 382.882L547.821 384.98C549.74 390.122 552.781 394.292 556.966 397.372L560.522 392.539ZM548.296 382.048L534.464 399.208L539.136 402.974L552.968 385.814L548.296 382.048ZM538.84 398.892L525.944 386.932L521.864 391.331L534.76 403.291L538.84 398.892ZM558.448 371.867C558.448 375.608 559.672 378.872 562.408 381.217L566.312 376.661C565.165 375.678 564.448 374.228 564.448 371.867L558.448 371.867ZM562.408 381.217C564.981 383.423 568.172 384.435 571.744 384.435L571.744 378.435C569.353 378.435 567.622 377.784 566.312 376.661L562.408 381.217ZM571.744 384.435C575.423 384.435 578.672 383.326 581.145 380.853L576.903 376.61C575.771 377.742 574.167 378.435 571.744 378.435L571.744 384.435ZM581.062 380.932C583.776 378.419 584.832 374.756 584.832 370.619L578.832 370.619C578.832 373.832 578.016 375.576 576.986 376.53L581.062 380.932ZM584.832 370.619C584.832 366.763 584.061 363.309 582.318 360.432L577.186 363.542C578.216 365.242 578.832 367.542 578.832 370.619L584.832 370.619ZM579.752 358.987L571.64 358.987L571.64 364.987L579.752 364.987L579.752 358.987ZM571.64 358.987C567.786 358.987 564.391 360.114 561.887 362.714L566.209 366.876C567.31 365.733 568.977 364.987 571.64 364.987L571.64 358.987ZM561.81 362.797C559.552 365.326 558.448 368.41 558.448 371.867L564.448 371.867C564.448 369.778 565.077 368.147 566.286 366.793L561.81 362.797ZM532.536 467.697L529.898 466.269L529.886 466.29L529.875 466.312L532.536 467.697ZM544.08 456.153L545.509 458.791L544.08 456.153ZM579.856 456.153L578.427 458.791L578.435 458.795L578.442 458.8L579.856 456.153ZM591.504 467.698L594.15 466.284L594.146 466.276L594.142 466.269L591.504 467.698ZM591.504 503.37L588.883 501.909L588.879 501.917L588.875 501.925L591.504 503.37ZM579.856 514.602L578.5 511.926L578.492 511.929L578.485 511.933L579.856 514.602ZM537.424 509.817L539.507 507.659L539.507 507.658L537.424 509.817ZM548.136 496.401L550.01 494.059L550.004 494.054L548.136 496.401ZM575.696 496.402L573.904 493.995L573.875 494.017L573.847 494.039L575.696 496.402ZM575.696 474.458L577.64 472.173L577.636 472.169L575.696 474.458ZM548.136 474.457L546.171 472.19L546.144 472.214L546.118 472.238L548.136 474.457ZM531.584 485.689C531.584 479.136 532.828 473.634 535.197 469.083L529.875 466.312C526.975 471.884 525.584 478.376 525.584 485.689L531.584 485.689ZM535.174 469.126C537.601 464.646 541.029 461.218 545.509 458.791L542.651 453.516C537.147 456.497 532.879 460.765 529.898 466.269L535.174 469.126ZM545.509 458.791C549.975 456.372 555.424 455.097 561.968 455.097L561.968 449.097C554.645 449.097 548.169 450.527 542.651 453.516L545.509 458.791ZM561.968 455.097C568.512 455.097 573.961 456.372 578.427 458.791L581.285 453.516C575.767 450.527 569.291 449.097 561.968 449.097L561.968 455.097ZM578.442 458.8C582.991 461.23 586.445 464.657 588.866 469.126L594.142 466.269C591.155 460.754 586.844 456.485 581.27 453.507L578.442 458.8ZM588.858 469.111C591.286 473.656 592.56 479.147 592.56 485.689L598.56 485.69C598.56 478.365 597.13 471.862 594.15 466.284L588.858 469.111ZM592.56 485.689C592.56 492.237 591.284 497.6 588.883 501.909L594.125 504.83C597.132 499.432 598.56 493.009 598.56 485.69L592.56 485.689ZM588.875 501.925C586.464 506.313 583.028 509.63 578.5 511.926L581.212 517.277C586.806 514.442 591.135 510.272 594.133 504.814L588.875 501.925ZM578.485 511.933C574.005 514.235 568.535 515.45 561.968 515.45L561.968 521.45C569.268 521.45 575.723 520.098 581.227 517.27L578.485 511.933ZM561.968 515.45C552.137 515.45 544.777 512.745 539.507 507.659L535.341 511.976C541.996 518.399 550.999 521.45 561.968 521.45L561.968 515.45ZM539.507 507.658C534.348 502.682 531.584 495.508 531.584 485.689L525.584 485.689C525.584 496.671 528.713 505.583 535.341 511.977L539.507 507.658ZM540.56 485.689C540.56 491.106 542.351 495.633 546.268 498.749L550.004 494.054C547.82 492.316 546.56 489.702 546.56 485.689L540.56 485.689ZM546.262 498.744C550.125 501.835 555.483 503.146 561.864 503.146L561.864 497.146C556.181 497.146 552.387 495.96 550.01 494.059L546.262 498.744ZM561.864 503.146C568.252 503.146 573.625 501.832 577.545 498.764L573.847 494.039C571.389 495.963 567.54 497.146 561.864 497.146L561.864 503.146ZM577.488 498.808C581.635 495.719 583.584 491.179 583.584 485.689L577.584 485.689C577.584 489.629 576.274 492.231 573.904 493.995L577.488 498.808ZM583.584 485.689C583.584 480.196 581.642 475.579 577.64 472.173L573.752 476.742C576.267 478.883 577.584 481.753 577.584 485.689L583.584 485.689ZM577.636 472.169C573.709 468.839 568.298 467.401 561.864 467.401L561.864 473.401C567.494 473.401 571.305 474.668 573.756 476.746L577.636 472.169ZM561.864 467.401C555.436 467.401 550.04 468.837 546.171 472.19L550.101 476.725C552.471 474.67 556.228 473.401 561.864 473.401L561.864 467.401ZM546.118 472.238C542.349 475.664 540.56 480.263 540.56 485.689L546.56 485.689C546.56 481.686 547.821 478.798 550.154 476.677L546.118 472.238ZM532.536 589.122L529.898 587.693L529.886 587.714L529.875 587.736L532.536 589.122ZM544.08 577.578L545.509 580.215L544.08 577.578ZM579.856 577.578L578.427 580.215L578.435 580.22L578.442 580.224L579.856 577.578ZM591.504 589.122L594.15 587.708L594.146 587.7L594.142 587.693L591.504 589.122ZM591.504 624.794L588.883 623.333L588.879 623.341L588.875 623.349L591.504 624.794ZM579.856 636.026L578.5 633.35L578.492 633.353L578.485 633.357L579.856 636.026ZM537.424 631.242L539.507 629.083L539.507 629.082L537.424 631.242ZM548.136 617.826L550.01 615.483L550.004 615.478L548.136 617.826ZM575.696 617.826L573.904 615.419L573.875 615.441L573.847 615.463L575.696 617.826ZM575.696 595.882L577.64 593.597L577.636 593.593L575.696 595.882ZM548.136 595.882L546.171 593.615L546.144 593.638L546.118 593.662L548.136 595.882ZM531.584 607.114C531.584 600.56 532.828 595.058 535.197 590.507L529.875 587.736C526.975 593.308 525.584 599.801 525.584 607.114L531.584 607.114ZM535.174 590.55C537.601 586.07 541.029 582.642 545.509 580.215L542.651 574.94C537.147 577.921 532.879 582.189 529.898 587.693L535.174 590.55ZM545.509 580.215C549.975 577.796 555.424 576.522 561.968 576.522L561.968 570.522C554.645 570.522 548.169 571.951 542.651 574.94L545.509 580.215ZM561.968 576.522C568.512 576.522 573.961 577.796 578.427 580.215L581.285 574.94C575.767 571.951 569.291 570.522 561.968 570.522L561.968 576.522ZM578.442 580.224C582.991 582.654 586.445 586.081 588.866 590.55L594.142 587.693C591.155 582.178 586.844 577.909 581.27 574.932L578.442 580.224ZM588.858 590.535C591.286 595.08 592.56 600.571 592.56 607.114L598.56 607.114C598.56 599.789 597.13 593.286 594.15 587.708L588.858 590.535ZM592.56 607.114C592.56 613.661 591.284 619.024 588.883 623.333L594.125 626.254C597.132 620.856 598.56 614.433 598.56 607.114L592.56 607.114ZM588.875 623.349C586.464 627.737 583.028 631.054 578.5 633.35L581.212 638.701C586.806 635.866 591.135 631.696 594.133 626.238L588.875 623.349ZM578.485 633.357C574.005 635.659 568.535 636.874 561.968 636.874L561.968 642.874C569.268 642.874 575.723 641.523 581.227 638.694L578.485 633.357ZM561.968 636.874C552.137 636.874 544.777 634.169 539.507 629.083L535.341 633.4C541.996 639.824 550.999 642.874 561.968 642.874L561.968 636.874ZM539.507 629.082C534.348 624.106 531.584 616.932 531.584 607.114L525.584 607.114C525.584 618.096 528.713 627.007 535.341 633.401L539.507 629.082ZM540.56 607.114C540.56 612.53 542.351 617.057 546.268 620.173L550.004 615.478C547.82 613.741 546.56 611.126 546.56 607.114L540.56 607.114ZM546.262 620.168C550.125 623.259 555.483 624.57 561.864 624.57L561.864 618.57C556.181 618.57 552.387 617.384 550.01 615.483L546.262 620.168ZM561.864 624.57C568.252 624.57 573.625 623.256 577.545 620.188L573.847 615.463C571.389 617.387 567.54 618.57 561.864 618.57L561.864 624.57ZM577.488 620.232C581.635 617.143 583.584 612.603 583.584 607.114L577.584 607.114C577.584 611.053 576.274 613.655 573.904 615.419L577.488 620.232ZM583.584 607.114C583.584 601.62 581.642 597.003 577.64 593.597L573.752 598.166C576.267 600.307 577.584 603.177 577.584 607.114L583.584 607.114ZM577.636 593.593C573.709 590.264 568.298 588.826 561.864 588.826L561.864 594.826C567.494 594.826 571.305 596.092 573.756 598.17L577.636 593.593ZM561.864 588.826C555.436 588.826 550.04 590.261 546.171 593.615L550.101 598.149C552.471 596.094 556.228 594.826 561.864 594.826L561.864 588.826ZM546.118 593.662C542.349 597.088 540.56 601.688 540.56 607.114L546.56 607.114C546.56 603.11 547.821 600.222 550.154 598.101L546.118 593.662ZM529 693.93L529.282 690.943L526 690.634L526 693.93L529 693.93ZM595.144 700.17L598.144 700.17L598.144 697.44L595.426 697.183L595.144 700.17ZM595.144 720.97L596.183 723.784L598.144 723.061L598.144 720.97L595.144 720.97ZM558.224 734.594L558.952 737.504L559.11 737.465L559.263 737.408L558.224 734.594ZM556.976 734.906L556.248 731.996L556.483 737.865L556.976 734.906ZM558.224 735.114L559.311 732.318L559.022 732.206L558.717 732.155L558.224 735.114ZM595.144 749.466L598.144 749.466L598.144 747.413L596.231 746.67L595.144 749.466ZM595.144 770.266L595.379 773.257L598.144 773.039L598.144 770.266L595.144 770.266ZM529 775.466L526 775.466L526 778.711L529.235 778.457L529 775.466ZM529 756.746L528.844 753.75L526 753.898L526 756.746L529 756.746ZM569.04 754.666L569.196 757.662L569.38 757.652L569.561 757.62L569.04 754.666ZM570.808 754.354L571.329 757.308L573.808 756.871L573.808 754.354L570.808 754.354ZM570.808 754.146L573.808 754.146L573.808 751.901L571.654 751.268L570.808 754.146ZM569.04 753.626L568.001 756.44L568.096 756.475L568.193 756.504L569.04 753.626ZM535.24 741.146L532.24 741.146L532.24 743.236L534.201 743.96L535.24 741.146ZM535.24 728.666L534.193 725.855L532.24 726.582L532.24 728.666L535.24 728.666ZM569.04 716.082L568.353 713.162L568.17 713.205L567.993 713.271L569.04 716.082ZM570.808 715.666L571.495 718.586L573.808 718.042L573.808 715.666L570.808 715.666ZM570.808 715.354L573.808 715.354L573.808 712.837L571.329 712.4L570.808 715.354ZM569.04 715.042L569.561 712.088L569.391 712.058L569.219 712.047L569.04 715.042ZM529 712.65L526 712.65L526 715.476L528.821 715.645L529 712.65ZM528.718 696.917L594.862 703.157L595.426 697.183L529.282 690.943L528.718 696.917ZM592.144 700.17L592.144 720.97L598.144 720.97L598.144 700.17L592.144 700.17ZM594.105 718.156L557.185 731.78L559.263 737.408L596.183 723.784L594.105 718.156ZM557.496 731.684L556.248 731.996L557.704 737.816L558.952 737.504L557.496 731.684ZM556.483 737.865L557.731 738.073L558.717 732.155L557.469 731.947L556.483 737.865ZM557.137 737.91L594.057 752.262L596.231 746.67L559.311 732.318L557.137 737.91ZM592.144 749.466L592.144 770.266L598.144 770.266L598.144 749.466L592.144 749.466ZM594.909 767.275L528.765 772.475L529.235 778.457L595.379 773.257L594.909 767.275ZM532 775.466L532 756.746L526 756.746L526 775.466L532 775.466ZM529.156 759.742L569.196 757.662L568.884 751.67L528.844 753.75L529.156 759.742ZM569.561 757.62L571.329 757.308L570.287 751.4L568.519 751.712L569.561 757.62ZM573.808 754.354L573.808 754.146L567.808 754.146L567.808 754.354L573.808 754.354ZM571.654 751.268L569.886 750.748L568.193 756.504L569.961 757.024L571.654 751.268ZM570.079 750.812L536.279 738.332L534.201 743.96L568.001 756.44L570.079 750.812ZM538.24 741.146L538.24 728.666L532.24 728.666L532.24 741.146L538.24 741.146ZM536.287 731.477L570.087 718.893L567.993 713.271L534.193 725.855L536.287 731.477ZM569.727 719.002L571.495 718.586L570.121 712.746L568.353 713.162L569.727 719.002ZM573.808 715.666L573.808 715.354L567.808 715.354L567.808 715.666L573.808 715.666ZM571.329 712.4L569.561 712.088L568.519 717.996L570.287 718.308L571.329 712.4ZM569.219 712.047L529.179 709.655L528.821 715.645L568.861 718.037L569.219 712.047ZM532 712.65L532 693.93L526 693.93L526 712.65L532 712.65Z" fill="url(#paint0_linear_1787_603)" mask="url(#path-1-outside-1_1787_603)"/>
<mask id="path-3-outside-2_1787_603" maskUnits="userSpaceOnUse" x="7.99997" y="72" width="74" height="704" fill="black">
<rect fill="white" x="7.99997" y="72" width="74" height="704"/>
<path d="M12 76.1936L78.144 82.4336L78.144 103.234L41.224 116.858L39.976 117.17L41.224 117.378L78.144 131.73L78.144 152.53L12 157.73L12 139.01L52.04 136.93L53.808 136.618L53.808 136.41L52.04 135.89L18.24 123.41L18.24 110.93L52.04 98.3456L53.808 97.9296L53.808 97.6176L52.04 97.3056L12 94.9136L12 76.1936ZM12 212.876L78.144 212.876L78.144 260.508L64.624 260.508L64.624 230.556L52.352 230.556L52.352 256.452L38.832 256.452L38.832 230.556L25.52 230.556L25.52 261.132L12 261.132L12 212.876ZM12 316.222L78.144 316.222L78.144 363.854L64.624 363.854L64.624 333.902L52.352 333.902L52.352 359.798L38.832 359.798L38.832 333.902L25.52 333.902L25.52 364.478L12 364.478L12 316.222ZM12 434.648L64.312 434.648L64.312 417.488L78.144 417.488L78.144 469.488L64.312 469.488L64.312 452.328L12 452.328L12 434.648ZM12 523.524L78.144 523.524L78.144 541.204L12 541.204L12 523.524ZM12 597.315L78.144 597.315L78.144 616.971L37.376 638.915L78.144 638.915L78.144 656.595L12 656.595L12 636.419L51.208 614.995L12 614.995L12 597.315ZM11.272 745.403C11.272 738.885 12.52 733.061 15.016 727.931C17.5813 722.869 21.3946 718.883 26.456 715.971C31.5173 713.128 37.792 711.707 45.28 711.707C55.4026 711.707 63.4453 714.48 69.408 720.027C75.44 725.643 78.456 733.893 78.456 744.779C78.456 750.533 77.6933 755.491 76.168 759.651C74.6426 763.88 72.8053 767.381 70.656 770.155L58.592 764.851C59.9786 762.701 61.1226 760.067 62.024 756.947C62.9946 753.896 63.48 750.845 63.48 747.795C63.48 742.248 61.7813 737.949 58.384 734.899C55.056 731.917 50.6186 730.427 45.072 730.427C40.704 730.427 37.1333 731.259 34.36 732.923C31.656 734.587 29.6453 736.771 28.328 739.475C27.08 742.179 26.456 745.056 26.456 748.107C26.456 749.701 26.56 751.088 26.768 752.267C27.0453 753.445 27.3226 754.312 27.6 754.867L37.584 754.867L37.584 743.635L50.896 743.635L50.896 772.547L21.568 772.547C18.5173 769.981 16.0213 766.307 14.08 761.523C12.208 756.739 11.272 751.365 11.272 745.403Z"/>
</mask>
<path d="M12 76.1936L12.2818 73.2068L9 72.8972L9 76.1936L12 76.1936ZM78.144 82.4336L81.144 82.4336L81.144 79.7033L78.4258 79.4468L78.144 82.4336ZM78.144 103.234L79.1826 106.048L81.144 105.324L81.144 103.234L78.144 103.234ZM41.224 116.858L41.9516 119.768L42.1097 119.728L42.2626 119.672L41.224 116.858ZM39.976 117.17L39.2484 114.259L39.4828 120.129L39.976 117.17ZM41.224 117.378L42.311 114.581L42.0225 114.469L41.7172 114.418L41.224 117.378ZM78.144 131.73L81.144 131.73L81.144 129.677L79.231 128.933L78.144 131.73ZM78.144 152.53L78.3791 155.52L81.144 155.303L81.144 152.53L78.144 152.53ZM12 157.73L8.99999 157.73L8.99999 160.975L12.2351 160.72L12 157.73ZM12 139.01L11.8444 136.014L8.99999 136.161L8.99999 139.01L12 139.01ZM52.04 136.93L52.1956 139.926L52.3798 139.916L52.5613 139.884L52.04 136.93ZM53.808 136.618L54.3293 139.572L56.808 139.135L56.808 136.618L53.808 136.618ZM53.808 136.41L56.808 136.41L56.808 134.165L54.6545 133.531L53.808 136.41ZM52.04 135.89L51.0009 138.704L51.0961 138.739L51.1935 138.768L52.04 135.89ZM18.24 123.41L15.24 123.41L15.24 125.5L17.2009 126.224L18.24 123.41ZM18.24 110.93L17.1933 108.118L15.24 108.845L15.24 110.93L18.24 110.93ZM52.04 98.3456L51.3529 95.4253L51.1697 95.4684L50.9933 95.5341L52.04 98.3456ZM53.808 97.9296L54.4951 100.85L56.808 100.306L56.808 97.9296L53.808 97.9296ZM53.808 97.6176L56.808 97.6176L56.808 95.1006L54.3294 94.6632L53.808 97.6176ZM52.04 97.3056L52.5614 94.3512L52.3913 94.3212L52.2189 94.3109L52.04 97.3056ZM12 94.9136L9 94.9136L9 97.7397L11.8211 97.9082L12 94.9136ZM11.7182 79.1803L77.8622 85.4203L78.4258 79.4468L12.2818 73.2068L11.7182 79.1803ZM75.144 82.4336L75.144 103.234L81.144 103.234L81.144 82.4336L75.144 82.4336ZM77.1054 100.419L40.1854 114.043L42.2626 119.672L79.1826 106.048L77.1054 100.419ZM40.4964 113.947L39.2484 114.259L40.7036 120.08L41.9516 119.768L40.4964 113.947ZM39.4828 120.129L40.7308 120.337L41.7172 114.418L40.4692 114.21L39.4828 120.129ZM40.137 120.174L77.057 134.526L79.231 128.933L42.311 114.581L40.137 120.174ZM75.144 131.73L75.144 152.53L81.144 152.53L81.144 131.73L75.144 131.73ZM77.9089 149.539L11.7649 154.739L12.2351 160.72L78.3791 155.52L77.9089 149.539ZM15 157.73L15 139.01L8.99999 139.01L8.99999 157.73L15 157.73ZM12.1556 142.006L52.1956 139.926L51.8844 133.934L11.8444 136.014L12.1556 142.006ZM52.5613 139.884L54.3293 139.572L53.2866 133.663L51.5186 133.975L52.5613 139.884ZM56.808 136.618L56.808 136.41L50.808 136.41L50.808 136.618L56.808 136.618ZM54.6545 133.531L52.8865 133.011L51.1935 138.768L52.9615 139.288L54.6545 133.531ZM53.0791 133.075L19.2791 120.595L17.2009 126.224L51.0009 138.704L53.0791 133.075ZM21.24 123.41L21.24 110.93L15.24 110.93L15.24 123.41L21.24 123.41ZM19.2867 113.741L53.0867 101.157L50.9933 95.5341L17.1933 108.118L19.2867 113.741ZM52.7271 101.266L54.4951 100.85L53.1209 95.0093L51.3529 95.4253L52.7271 101.266ZM56.808 97.9296L56.808 97.6176L50.808 97.6176L50.808 97.9296L56.808 97.9296ZM54.3294 94.6632L52.5614 94.3512L51.5186 100.26L53.2866 100.572L54.3294 94.6632ZM52.2189 94.3109L12.1789 91.9189L11.8211 97.9082L51.8611 100.3L52.2189 94.3109ZM15 94.9136L15 76.1936L9 76.1936L9 94.9136L15 94.9136ZM12 212.876L12 209.876L8.99999 209.876L8.99999 212.876L12 212.876ZM78.144 212.876L81.144 212.876L81.144 209.876L78.144 209.876L78.144 212.876ZM78.144 260.508L78.144 263.508L81.144 263.508L81.144 260.508L78.144 260.508ZM64.624 260.508L61.624 260.508L61.624 263.508L64.624 263.508L64.624 260.508ZM64.624 230.556L67.624 230.556L67.624 227.556L64.624 227.556L64.624 230.556ZM52.352 230.556L52.352 227.556L49.352 227.556L49.352 230.556L52.352 230.556ZM52.352 256.452L52.352 259.452L55.352 259.452L55.352 256.452L52.352 256.452ZM38.832 256.452L35.832 256.452L35.832 259.452L38.832 259.452L38.832 256.452ZM38.832 230.556L41.832 230.556L41.832 227.556L38.832 227.556L38.832 230.556ZM25.52 230.556L25.52 227.556L22.52 227.556L22.52 230.556L25.52 230.556ZM25.52 261.132L25.52 264.132L28.52 264.132L28.52 261.132L25.52 261.132ZM12 261.132L8.99999 261.132L8.99999 264.132L12 264.132L12 261.132ZM12 215.876L78.144 215.876L78.144 209.876L12 209.876L12 215.876ZM75.144 212.876L75.144 260.508L81.144 260.508L81.144 212.876L75.144 212.876ZM78.144 257.508L64.624 257.508L64.624 263.508L78.144 263.508L78.144 257.508ZM67.624 260.508L67.624 230.556L61.624 230.556L61.624 260.508L67.624 260.508ZM64.624 227.556L52.352 227.556L52.352 233.556L64.624 233.556L64.624 227.556ZM49.352 230.556L49.352 256.452L55.352 256.452L55.352 230.556L49.352 230.556ZM52.352 253.452L38.832 253.452L38.832 259.452L52.352 259.452L52.352 253.452ZM41.832 256.452L41.832 230.556L35.832 230.556L35.832 256.452L41.832 256.452ZM38.832 227.556L25.52 227.556L25.52 233.556L38.832 233.556L38.832 227.556ZM22.52 230.556L22.52 261.132L28.52 261.132L28.52 230.556L22.52 230.556ZM25.52 258.132L12 258.132L12 264.132L25.52 264.132L25.52 258.132ZM15 261.132L15 212.876L8.99999 212.876L8.99999 261.132L15 261.132ZM12 316.222L12 313.222L8.99999 313.222L8.99999 316.222L12 316.222ZM78.144 316.222L81.144 316.222L81.144 313.222L78.144 313.222L78.144 316.222ZM78.144 363.854L78.144 366.854L81.144 366.854L81.144 363.854L78.144 363.854ZM64.624 363.854L61.624 363.854L61.624 366.854L64.624 366.854L64.624 363.854ZM64.624 333.902L67.624 333.902L67.624 330.902L64.624 330.902L64.624 333.902ZM52.352 333.902L52.352 330.902L49.352 330.902L49.352 333.902L52.352 333.902ZM52.352 359.798L52.352 362.798L55.352 362.798L55.352 359.798L52.352 359.798ZM38.832 359.798L35.832 359.798L35.832 362.798L38.832 362.798L38.832 359.798ZM38.832 333.902L41.832 333.902L41.832 330.902L38.832 330.902L38.832 333.902ZM25.52 333.902L25.52 330.902L22.52 330.902L22.52 333.902L25.52 333.902ZM25.52 364.478L25.52 367.478L28.52 367.478L28.52 364.478L25.52 364.478ZM12 364.478L8.99998 364.478L8.99998 367.478L12 367.478L12 364.478ZM12 319.222L78.144 319.222L78.144 313.222L12 313.222L12 319.222ZM75.144 316.222L75.144 363.854L81.144 363.854L81.144 316.222L75.144 316.222ZM78.144 360.854L64.624 360.854L64.624 366.854L78.144 366.854L78.144 360.854ZM67.624 363.854L67.624 333.902L61.624 333.902L61.624 363.854L67.624 363.854ZM64.624 330.902L52.352 330.902L52.352 336.902L64.624 336.902L64.624 330.902ZM49.352 333.902L49.352 359.798L55.352 359.798L55.352 333.902L49.352 333.902ZM52.352 356.798L38.832 356.798L38.832 362.798L52.352 362.798L52.352 356.798ZM41.832 359.798L41.832 333.902L35.832 333.902L35.832 359.798L41.832 359.798ZM38.832 330.902L25.52 330.902L25.52 336.902L38.832 336.902L38.832 330.902ZM22.52 333.902L22.52 364.478L28.52 364.478L28.52 333.902L22.52 333.902ZM25.52 361.478L12 361.478L12 367.478L25.52 367.478L25.52 361.478ZM15 364.478L15 316.222L8.99999 316.222L8.99998 364.478L15 364.478ZM12 434.648L12 431.648L8.99998 431.648L8.99998 434.648L12 434.648ZM64.312 434.648L64.312 437.648L67.312 437.648L67.312 434.648L64.312 434.648ZM64.312 417.488L64.312 414.488L61.312 414.488L61.312 417.488L64.312 417.488ZM78.144 417.488L81.144 417.488L81.144 414.488L78.144 414.488L78.144 417.488ZM78.144 469.488L78.144 472.488L81.144 472.488L81.144 469.488L78.144 469.488ZM64.312 469.488L61.312 469.488L61.312 472.488L64.312 472.488L64.312 469.488ZM64.312 452.328L67.312 452.328L67.312 449.328L64.312 449.328L64.312 452.328ZM12 452.328L8.99998 452.328L8.99998 455.328L12 455.328L12 452.328ZM12 437.648L64.312 437.648L64.312 431.648L12 431.648L12 437.648ZM67.312 434.648L67.312 417.488L61.312 417.488L61.312 434.648L67.312 434.648ZM64.312 420.488L78.144 420.488L78.144 414.488L64.312 414.488L64.312 420.488ZM75.144 417.488L75.144 469.488L81.144 469.488L81.144 417.488L75.144 417.488ZM78.144 466.488L64.312 466.488L64.312 472.488L78.144 472.488L78.144 466.488ZM67.312 469.488L67.312 452.328L61.312 452.328L61.312 469.488L67.312 469.488ZM64.312 449.328L12 449.328L12 455.328L64.312 455.328L64.312 449.328ZM15 452.328L15 434.648L8.99998 434.648L8.99998 452.328L15 452.328ZM12 523.524L12 520.524L8.99998 520.524L8.99998 523.524L12 523.524ZM78.144 523.524L81.144 523.524L81.144 520.524L78.144 520.524L78.144 523.524ZM78.144 541.204L78.144 544.204L81.144 544.204L81.144 541.204L78.144 541.204ZM12 541.204L8.99998 541.204L8.99998 544.204L12 544.204L12 541.204ZM12 526.524L78.144 526.524L78.144 520.524L12 520.524L12 526.524ZM75.144 523.524L75.144 541.204L81.144 541.204L81.144 523.524L75.144 523.524ZM78.144 538.204L12 538.204L12 544.204L78.144 544.204L78.144 538.204ZM15 541.204L15 523.524L8.99998 523.524L8.99998 541.204L15 541.204ZM12 597.315L12 594.315L8.99997 594.315L8.99997 597.315L12 597.315ZM78.144 597.315L81.144 597.315L81.144 594.315L78.144 594.315L78.144 597.315ZM78.144 616.971L79.5659 619.612L81.144 618.763L81.144 616.971L78.144 616.971ZM37.376 638.915L35.9541 636.273L37.376 641.915L37.376 638.915ZM78.144 638.915L81.144 638.915L81.144 635.915L78.144 635.915L78.144 638.915ZM78.144 656.595L78.144 659.595L81.144 659.595L81.144 656.595L78.144 656.595ZM12 656.595L8.99997 656.595L8.99997 659.595L12 659.595L12 656.595ZM12 636.419L10.5615 633.786L8.99997 634.639L8.99997 636.419L12 636.419ZM51.208 614.995L52.6465 617.627L51.208 611.995L51.208 614.995ZM12 614.995L8.99997 614.995L8.99997 617.995L12 617.995L12 614.995ZM12 600.315L78.144 600.315L78.144 594.315L12 594.315L12 600.315ZM75.144 597.315L75.144 616.971L81.144 616.971L81.144 597.315L75.144 597.315ZM76.7221 614.329L35.9541 636.273L38.7979 641.556L79.5659 619.612L76.7221 614.329ZM37.376 641.915L78.144 641.915L78.144 635.915L37.376 635.915L37.376 641.915ZM75.144 638.915L75.144 656.595L81.144 656.595L81.144 638.915L75.144 638.915ZM78.144 653.595L12 653.595L12 659.595L78.144 659.595L78.144 653.595ZM15 656.595L15 636.419L8.99997 636.419L8.99997 656.595L15 656.595ZM13.4385 639.051L52.6465 617.627L49.7695 612.362L10.5615 633.786L13.4385 639.051ZM51.208 611.995L12 611.995L12 617.995L51.208 617.995L51.208 611.995ZM15 614.995L15 597.315L8.99997 597.315L8.99997 614.995L15 614.995ZM15.016 727.931L12.3401 726.574L12.329 726.596L12.3183 726.618L15.016 727.931ZM26.456 715.971L24.9869 713.355L24.9733 713.363L24.9599 713.37L26.456 715.971ZM69.408 720.027L71.4522 717.831L71.4513 717.83L69.408 720.027ZM76.168 759.651L73.3513 758.618L73.3486 758.625L73.3459 758.633L76.168 759.651ZM70.656 770.155L69.4485 772.901L71.5925 773.844L73.0272 771.992L70.656 770.155ZM58.592 764.851L56.0711 763.224L54.1636 766.181L57.3845 767.597L58.592 764.851ZM62.024 756.947L59.1652 756.037L59.153 756.075L59.1418 756.114L62.024 756.947ZM58.384 734.899L60.3883 732.667L60.3857 732.664L58.384 734.899ZM34.36 732.923L32.8165 730.35L32.802 730.359L32.7877 730.368L34.36 732.923ZM28.328 739.475L25.631 738.161L25.6172 738.189L25.6041 738.218L28.328 739.475ZM26.768 752.267L23.8136 752.788L23.8283 752.871L23.8477 752.954L26.768 752.267ZM27.6 754.867L24.9167 756.208L25.7459 757.867L27.6 757.867L27.6 754.867ZM37.584 754.867L37.584 757.867L40.584 757.867L40.584 754.867L37.584 754.867ZM37.584 743.635L37.584 740.635L34.584 740.635L34.584 743.635L37.584 743.635ZM50.896 743.635L53.896 743.635L53.896 740.635L50.896 740.635L50.896 743.635ZM50.896 772.547L50.896 775.547L53.896 775.547L53.896 772.547L50.896 772.547ZM21.568 772.547L19.6372 774.843L20.4743 775.547L21.568 775.547L21.568 772.547ZM14.08 761.523L11.2862 762.616L11.2931 762.633L11.3001 762.651L14.08 761.523ZM14.272 745.403C14.272 739.275 15.4432 733.91 17.7137 729.243L12.3183 726.618C9.59678 732.213 8.27197 738.496 8.27197 745.403L14.272 745.403ZM17.6919 729.287C19.9853 724.762 23.3811 721.201 27.9521 718.571L24.9599 713.37C19.4082 716.565 15.1773 720.977 12.3401 726.574L17.6919 729.287ZM27.9251 718.586C32.426 716.059 38.161 714.707 45.28 714.707L45.28 708.707C37.423 708.707 30.6086 710.198 24.9869 713.355L27.9251 718.586ZM45.28 714.707C54.8373 714.707 62.0838 717.311 67.3647 722.223L71.4513 717.83C64.8068 711.649 55.968 708.707 45.28 708.707L45.28 714.707ZM67.3637 722.222C72.6077 727.105 75.456 734.446 75.456 744.779L81.456 744.779C81.456 733.341 78.2723 724.181 71.4522 717.831L67.3637 722.222ZM75.456 744.779C75.456 750.281 74.7252 754.871 73.3513 758.618L78.9846 760.684C80.6614 756.11 81.456 750.786 81.456 744.779L75.456 744.779ZM73.3459 758.633C71.8986 762.646 70.1965 765.85 68.2847 768.317L73.0272 771.992C75.4141 768.913 77.3866 765.114 78.99 760.669L73.3459 758.633ZM71.8634 767.408L59.7994 762.104L57.3845 767.597L69.4485 772.901L71.8634 767.408ZM61.1129 766.477C62.6939 764.026 63.9444 761.108 64.9061 757.779L59.1418 756.114C58.3009 759.025 57.2633 761.376 56.0711 763.224L61.1129 766.477ZM64.8827 757.856C65.9424 754.526 66.48 751.169 66.48 747.795L60.48 747.795C60.48 750.522 60.0469 753.266 59.1652 756.037L64.8827 757.856ZM66.48 747.795C66.48 741.595 64.5533 736.407 60.3883 732.667L56.3796 737.131C59.0093 739.492 60.48 742.901 60.48 747.795L66.48 747.795ZM60.3857 732.664C56.3833 729.079 51.1717 727.427 45.072 727.427L45.072 733.427C50.0656 733.427 53.7287 734.756 56.3822 737.133L60.3857 732.664ZM45.072 727.427C40.3443 727.427 36.192 728.325 32.8165 730.35L35.9035 735.495C38.0746 734.193 41.0636 733.427 45.072 733.427L45.072 727.427ZM32.7877 730.368C29.6268 732.313 27.2119 734.916 25.631 738.161L31.0249 740.789C32.0787 738.626 33.6851 736.861 35.9323 735.478L32.7877 730.368ZM25.6041 738.218C24.1697 741.325 23.456 744.633 23.456 748.107L29.456 748.107C29.456 745.479 29.9903 743.032 31.0518 740.732L25.6041 738.218ZM23.456 748.107C23.456 749.823 23.5672 751.391 23.8136 752.788L29.7223 751.745C29.5528 750.785 29.456 749.58 29.456 748.107L23.456 748.107ZM23.8477 752.954C24.138 754.188 24.4783 755.332 24.9167 756.208L30.2833 753.525C30.1669 753.292 29.9526 752.703 29.6882 751.58L23.8477 752.954ZM27.6 757.867L37.584 757.867L37.584 751.867L27.6 751.867L27.6 757.867ZM40.584 754.867L40.584 743.635L34.584 743.635L34.584 754.867L40.584 754.867ZM37.584 746.635L50.896 746.635L50.896 740.635L37.584 740.635L37.584 746.635ZM47.896 743.635L47.896 772.547L53.896 772.547L53.896 743.635L47.896 743.635ZM50.896 769.547L21.568 769.547L21.568 775.547L50.896 775.547L50.896 769.547ZM23.4988 770.251C20.9161 768.079 18.67 764.856 16.8598 760.395L11.3001 762.651C13.3726 767.758 16.1185 771.884 19.6372 774.843L23.4988 770.251ZM16.8737 760.43C15.158 756.045 14.272 751.051 14.272 745.403L8.27197 745.403C8.27197 751.68 9.25789 757.432 11.2862 762.616L16.8737 760.43Z" fill="url(#paint1_linear_1787_603)" mask="url(#path-3-outside-2_1787_603)"/>
<defs>
<linearGradient id="paint0_linear_1787_603" x1="564" y1="267" x2="564" y2="780" gradientUnits="userSpaceOnUse">
<stop stop-color="#48A0F0"/>
<stop offset="1" stop-color="#54BDAC"/>
</linearGradient>
<linearGradient id="paint1_linear_1787_603" x1="47" y1="-2.13177e-06" x2="47" y2="778" gradientUnits="userSpaceOnUse">
<stop stop-color="#48A0F0"/>
<stop offset="1" stop-color="#54BDAC"/>
</linearGradient>
</defs>
</svg>
