<svg width="42" height="218" viewBox="0 0 42 218" fill="none" xmlns="http://www.w3.org/2000/svg">
<mask id="path-1-outside-1_2148_4400" maskUnits="userSpaceOnUse" x="-2.84864" y="-3" width="47" height="226" fill="black">
<rect fill="white" x="-2.84864" y="-3" width="47" height="226"/>
<path d="M0.151367 0.26706L36.3114 0.267062C37.122 1.29106 37.89 2.6564 38.6154 4.36306C39.3407 6.06973 39.938 7.98973 40.4074 10.1231C40.8767 12.2991 41.1114 14.5391 41.1114 16.8431C41.1114 22.1337 39.7887 26.3151 37.1434 29.3871C34.5407 32.4591 30.786 33.9951 25.8794 33.9951C22.466 33.9951 19.6074 33.2697 17.3034 31.8191C15.042 30.4111 13.3567 28.4911 12.2474 26.0591C11.138 23.6697 10.5834 21.0244 10.5834 18.1231C10.5834 16.5871 10.7327 15.2431 11.0314 14.0911C11.33 12.9817 11.714 12.0004 12.1834 11.1471L0.151367 11.1471L0.151367 0.26706ZM19.3514 17.2271C19.3514 18.9764 19.906 20.3844 21.0154 21.4511C22.1247 22.5604 23.7887 23.1151 26.0074 23.1151C28.098 23.1151 29.7194 22.5604 30.8714 21.4511C32.066 20.3417 32.6634 18.5924 32.6634 16.2031C32.6634 14.2404 32.2794 12.5551 31.5114 11.1471L25.1114 11.1471C23.106 11.1471 21.634 11.7657 20.6954 13.0031C19.7994 14.2404 19.3514 15.6484 19.3514 17.2271ZM0.151365 62.1671L40.8554 62.1671L40.8554 73.0471L9.11136 73.0471L9.11136 88.5991L0.151364 88.5991L0.151365 62.1671ZM0.151362 115.49L40.9194 129.57L40.9194 142.562L0.151361 155.554L0.151361 143.842L8.21536 141.41L8.21536 129.89L0.151362 127.458L0.151362 115.49ZM17.1754 132.322L17.1754 139.618L28.8874 136.226L28.8874 135.97L17.1754 132.322ZM0.151359 190.686L15.4474 190.686L40.8554 174.75L40.8554 187.486L25.7514 196.062L25.7514 196.446L40.8554 204.446L40.8554 217.054L15.8314 202.91L0.151359 202.91L0.151359 190.686Z"/>
</mask>
<path d="M0.151367 0.26706L0.151368 -2.73294L-2.84863 -2.73294L-2.84863 0.26706L0.151367 0.26706ZM36.3114 0.267062L38.6635 -1.59505L37.7627 -2.73294L36.3114 -2.73294L36.3114 0.267062ZM38.6154 4.36306L35.8544 5.53648L35.8544 5.53649L38.6154 4.36306ZM40.4074 10.1231L43.34 9.49054L43.3373 9.47848L40.4074 10.1231ZM37.1434 29.3871L34.8701 27.4295L34.8622 27.4386L34.8544 27.4478L37.1434 29.3871ZM17.3034 31.8191L18.9018 29.2804L18.8954 29.2764L18.889 29.2724L17.3034 31.8191ZM12.2474 26.0591L14.9768 24.814L14.9726 24.8049L14.9684 24.7957L12.2474 26.0591ZM11.0314 14.0911L8.13452 13.3111L8.13088 13.3246L8.12738 13.3382L11.0314 14.0911ZM12.1834 11.1471L14.812 12.5928L17.2572 8.14706L12.1834 8.14706L12.1834 11.1471ZM0.151367 11.1471L-2.84863 11.1471L-2.84863 14.1471L0.151367 14.1471L0.151367 11.1471ZM21.0154 21.4511L23.1367 19.3297L23.1159 19.3089L23.0947 19.2886L21.0154 21.4511ZM30.8714 21.4511L28.83 19.2527L28.8101 19.2712L28.7904 19.2901L30.8714 21.4511ZM31.5114 11.1471L34.1451 9.71051L33.2923 8.14706L31.5114 8.14706L31.5114 11.1471ZM20.6954 13.0031L18.3053 11.1899L18.2851 11.2165L18.2655 11.2435L20.6954 13.0031ZM0.151367 3.26706L36.3114 3.26706L36.3114 -2.73294L0.151368 -2.73294L0.151367 3.26706ZM33.9592 2.12917C34.55 2.8754 35.1939 3.98231 35.8544 5.53648L41.3764 3.18964C40.5862 1.33048 39.6941 -0.293272 38.6635 -1.59505L33.9592 2.12917ZM35.8544 5.53649C36.4957 7.04555 37.0411 8.78444 37.4774 10.7676L43.3373 9.47848C42.8349 7.19502 42.1857 5.09391 41.3764 3.18964L35.8544 5.53649ZM37.4748 10.7556C37.8978 12.7166 38.1114 14.7443 38.1114 16.8431L44.1114 16.8431C44.1114 14.3339 43.8556 11.8816 43.3399 9.49055L37.4748 10.7556ZM38.1114 16.8431C38.1114 21.6384 36.919 25.0501 34.8701 27.4295L39.4167 31.3446C42.6584 27.58 44.1114 22.629 44.1114 16.8431L38.1114 16.8431ZM34.8544 27.4478C32.9454 29.7011 30.1153 30.9951 25.8794 30.9951L25.8794 36.9951C31.4568 36.9951 36.136 35.217 39.4323 31.3263L34.8544 27.4478ZM25.8794 30.9951C22.8889 30.9951 20.6192 30.3617 18.9018 29.2804L15.7049 34.3578C18.5955 36.1778 22.0432 36.9951 25.8794 36.9951L25.8794 30.9951ZM18.889 29.2724C17.1306 28.1775 15.8421 26.7111 14.9768 24.814L9.51791 27.3041C10.8713 30.271 12.9535 32.6447 15.7177 34.3658L18.889 29.2724ZM14.9684 24.7957C14.0608 22.8408 13.5834 20.6327 13.5834 18.1231L7.58337 18.1231C7.58337 21.4161 8.21531 24.4986 9.52634 27.3224L14.9684 24.7957ZM13.5834 18.1231C13.5834 16.7717 13.7158 15.6909 13.9354 14.8439L8.12738 13.3382C7.74963 14.7952 7.58337 16.4024 7.58337 18.1231L13.5834 18.1231ZM13.9282 14.871C14.1753 13.9533 14.4769 13.2021 14.812 12.5928L9.55472 9.7013C8.95117 10.7987 8.48478 12.0102 8.13452 13.3111L13.9282 14.871ZM12.1834 8.14706L0.151367 8.14706L0.151367 14.1471L12.1834 14.1471L12.1834 8.14706ZM3.15137 11.1471L3.15137 0.26706L-2.84863 0.26706L-2.84863 11.1471L3.15137 11.1471ZM16.3514 17.2271C16.3514 19.6703 17.1559 21.9019 18.936 23.6136L23.0947 19.2886C22.6562 18.8669 22.3514 18.2825 22.3514 17.2271L16.3514 17.2271ZM18.894 23.5724C20.7644 25.4428 23.3263 26.1151 26.0074 26.1151L26.0074 20.1151C24.2511 20.1151 23.485 19.678 23.1367 19.3297L18.894 23.5724ZM26.0074 26.1151C28.6275 26.1151 31.0858 25.4094 32.9523 23.612L28.7904 19.2901C28.3529 19.7114 27.5686 20.1151 26.0074 20.1151L26.0074 26.1151ZM32.9127 23.6494C34.9564 21.7518 35.6634 19.0347 35.6634 16.2031L29.6634 16.2031C29.6634 18.1501 29.1757 18.9317 28.83 19.2527L32.9127 23.6494ZM35.6634 16.2031C35.6634 13.8496 35.2016 11.6474 34.1451 9.71051L28.8777 12.5836C29.3572 13.4627 29.6634 14.6312 29.6634 16.2031L35.6634 16.2031ZM31.5114 8.14706L25.1114 8.14706L25.1114 14.1471L31.5114 14.1471L31.5114 8.14706ZM25.1114 8.14706C22.4667 8.14706 19.9704 8.99502 18.3053 11.1899L23.0854 14.8162C23.2977 14.5364 23.7454 14.1471 25.1114 14.1471L25.1114 8.14706ZM18.2655 11.2435C16.9859 13.0107 16.3514 15.039 16.3514 17.2271L22.3514 17.2271C22.3514 16.2578 22.6128 15.4701 23.1252 14.7626L18.2655 11.2435ZM0.151365 62.1671L0.151365 59.1671L-2.84864 59.1671L-2.84864 62.1671L0.151365 62.1671ZM40.8554 62.1671L43.8554 62.1671L43.8554 59.1671L40.8554 59.1671L40.8554 62.1671ZM40.8554 73.0471L40.8554 76.0471L43.8554 76.0471L43.8554 73.0471L40.8554 73.0471ZM9.11136 73.0471L9.11136 70.0471L6.11136 70.0471L6.11136 73.0471L9.11136 73.0471ZM9.11136 88.5991L9.11136 91.5991L12.1114 91.5991L12.1114 88.5991L9.11136 88.5991ZM0.151364 88.5991L-2.84864 88.5991L-2.84864 91.5991L0.151363 91.5991L0.151364 88.5991ZM0.151365 65.1671L40.8554 65.1671L40.8554 59.1671L0.151365 59.1671L0.151365 65.1671ZM37.8554 62.1671L37.8554 73.0471L43.8554 73.0471L43.8554 62.1671L37.8554 62.1671ZM40.8554 70.0471L9.11136 70.0471L9.11136 76.0471L40.8554 76.0471L40.8554 70.0471ZM6.11136 73.0471L6.11136 88.5991L12.1114 88.5991L12.1114 73.0471L6.11136 73.0471ZM9.11136 85.5991L0.151364 85.5991L0.151363 91.5991L9.11136 91.5991L9.11136 85.5991ZM3.15136 88.5991L3.15136 62.1671L-2.84864 62.1671L-2.84864 88.5991L3.15136 88.5991ZM0.151362 115.49L1.13071 112.654L-2.84864 111.28L-2.84864 115.49L0.151362 115.49ZM40.9194 129.57L43.9194 129.57L43.9194 127.432L41.8987 126.734L40.9194 129.57ZM40.9194 142.562L41.8303 145.42L43.9194 144.754L43.9194 142.562L40.9194 142.562ZM0.151361 155.554L-2.84864 155.554L-2.84864 159.658L1.06227 158.412L0.151361 155.554ZM0.151361 143.842L-0.714864 140.969L-2.84864 141.613L-2.84864 143.842L0.151361 143.842ZM8.21536 141.41L9.08159 144.282L11.2154 143.638L11.2154 141.41L8.21536 141.41ZM8.21536 129.89L11.2154 129.89L11.2154 127.661L9.08159 127.017L8.21536 129.89ZM0.151362 127.458L-2.84864 127.458L-2.84864 129.686L-0.714864 130.33L0.151362 127.458ZM17.1754 132.322L18.0675 129.457L14.1754 128.245L14.1754 132.322L17.1754 132.322ZM17.1754 139.618L14.1754 139.618L14.1754 143.61L18.0099 142.499L17.1754 139.618ZM28.8874 136.226L29.7219 139.107L31.8874 138.48L31.8874 136.226L28.8874 136.226ZM28.8874 135.97L31.8874 135.97L31.8874 133.762L29.7795 133.105L28.8874 135.97ZM-0.827982 118.325L39.94 132.405L41.8987 126.734L1.13071 112.654L-0.827982 118.325ZM37.9194 129.57L37.9194 142.562L43.9194 142.562L43.9194 129.57L37.9194 129.57ZM40.0085 139.703L-0.759547 152.695L1.06227 158.412L41.8303 145.42L40.0085 139.703ZM3.15136 155.554L3.15136 143.842L-2.84864 143.842L-2.84864 155.554L3.15136 155.554ZM1.01759 146.714L9.08159 144.282L7.34914 138.537L-0.714864 140.969L1.01759 146.714ZM11.2154 141.41L11.2154 129.89L5.21536 129.89L5.21536 141.41L11.2154 141.41ZM9.08159 127.017L1.01759 124.585L-0.714864 130.33L7.34914 132.762L9.08159 127.017ZM3.15136 127.458L3.15136 115.49L-2.84864 115.49L-2.84864 127.458L3.15136 127.458ZM14.1754 132.322L14.1754 139.618L20.1754 139.618L20.1754 132.322L14.1754 132.322ZM18.0099 142.499L29.7219 139.107L28.0528 133.344L16.3408 136.736L18.0099 142.499ZM31.8874 136.226L31.8874 135.97L25.8874 135.97L25.8874 136.226L31.8874 136.226ZM29.7795 133.105L18.0675 129.457L16.2832 135.186L27.9952 138.834L29.7795 133.105ZM0.151359 190.686L0.151359 187.686L-2.84864 187.686L-2.84864 190.686L0.151359 190.686ZM15.4474 190.686L15.4474 193.686L16.3103 193.686L17.0414 193.227L15.4474 190.686ZM40.8554 174.75L43.8554 174.75L43.8554 169.327L39.2613 172.208L40.8554 174.75ZM40.8554 187.486L42.3366 190.094L43.8554 189.232L43.8554 187.486L40.8554 187.486ZM25.7514 196.062L24.2701 193.453L22.7514 194.315L22.7514 196.062L25.7514 196.062ZM25.7514 196.446L22.7514 196.446L22.7514 198.251L24.3472 199.097L25.7514 196.446ZM40.8554 204.446L43.8554 204.446L43.8554 202.64L42.2595 201.794L40.8554 204.446ZM40.8554 217.054L39.3792 219.665L43.8554 222.195L43.8554 217.054L40.8554 217.054ZM15.8314 202.91L17.3075 200.298L16.6205 199.91L15.8314 199.91L15.8314 202.91ZM0.151359 202.91L-2.84864 202.91L-2.84864 205.91L0.151358 205.91L0.151359 202.91ZM0.151359 193.686L15.4474 193.686L15.4474 187.686L0.151359 187.686L0.151359 193.686ZM17.0414 193.227L42.4494 177.291L39.2613 172.208L13.8533 188.144L17.0414 193.227ZM37.8554 174.75L37.8554 187.486L43.8554 187.486L43.8554 174.75L37.8554 174.75ZM39.3741 184.877L24.2701 193.453L27.2326 198.67L42.3366 190.094L39.3741 184.877ZM22.7514 196.062L22.7514 196.446L28.7514 196.446L28.7514 196.062L22.7514 196.062ZM24.3472 199.097L39.4512 207.097L42.2595 201.794L27.1555 193.794L24.3472 199.097ZM37.8554 204.446L37.8554 217.054L43.8554 217.054L43.8554 204.446L37.8554 204.446ZM42.3315 214.442L17.3075 200.298L14.3552 205.521L39.3792 219.665L42.3315 214.442ZM15.8314 199.91L0.151359 199.91L0.151358 205.91L15.8314 205.91L15.8314 199.91ZM3.15136 202.91L3.15136 190.686L-2.84864 190.686L-2.84864 202.91L3.15136 202.91Z" fill="url(#paint0_linear_2148_4400)" mask="url(#path-1-outside-1_2148_4400)"/>
<defs>
<linearGradient id="paint0_linear_2148_4400" x1="30.0054" y1="5" x2="30.0054" y2="233.422" gradientUnits="userSpaceOnUse">
<stop stop-color="#48A0F0"/>
<stop offset="1" stop-color="#54BDAC"/>
</linearGradient>
</defs>
</svg>
