<svg width="42" height="166" viewBox="0 0 42 166" fill="none" xmlns="http://www.w3.org/2000/svg">
<mask id="path-1-outside-1_2148_4400" maskUnits="userSpaceOnUse" x="-2.84864" y="-3" width="47" height="172" fill="black">
<rect fill="white" x="-2.84864" y="-3" width="47" height="172"/>
<path d="M0.151367 0.487496L40.8554 0.487498L40.8554 12.5835L15.7674 26.0875L40.8554 26.0875L40.8554 36.9675L0.151365 36.9675L0.151366 24.5515L24.2794 11.3675L0.151367 11.3675L0.151367 0.487496ZM0.151364 63.185L40.9194 77.265L40.9194 90.257L0.151363 103.249L0.151363 91.537L8.21536 89.105L8.21536 77.585L0.151364 75.153L0.151364 63.185ZM17.1754 80.017L17.1754 87.313L28.8874 83.921L28.8874 83.665L17.1754 80.017ZM0.151361 131.412L36.3114 131.412C37.122 132.436 37.89 133.802 38.6154 135.508C39.3407 137.215 39.938 139.135 40.4074 141.268C40.8767 143.444 41.1114 145.684 41.1114 147.988C41.1114 153.279 39.7887 157.46 37.1434 160.532C34.5407 163.604 30.786 165.14 25.8794 165.14C22.466 165.14 19.6074 164.415 17.3034 162.964C15.042 161.556 13.3567 159.636 12.2474 157.204C11.138 154.815 10.5834 152.17 10.5834 149.268C10.5834 147.732 10.7327 146.388 11.0314 145.236C11.33 144.127 11.714 143.146 12.1834 142.292L0.151361 142.292L0.151361 131.412ZM19.3514 148.372C19.3514 150.122 19.906 151.53 21.0154 152.596C22.1247 153.706 23.7887 154.26 26.0074 154.26C28.098 154.26 29.7194 153.706 30.8714 152.596C32.066 151.487 32.6634 149.738 32.6634 147.348C32.6634 145.386 32.2794 143.7 31.5114 142.292L25.1114 142.292C23.106 142.292 21.634 142.911 20.6954 144.148C19.7994 145.386 19.3514 146.794 19.3514 148.372Z"/>
</mask>
<path d="M0.151367 0.487496L0.151367 -2.5125L-2.84863 -2.5125L-2.84863 0.487496L0.151367 0.487496ZM40.8554 0.487498L43.8554 0.487498L43.8554 -2.5125L40.8554 -2.5125L40.8554 0.487498ZM40.8554 12.5835L42.2773 15.2251L43.8554 14.3757L43.8554 12.5835L40.8554 12.5835ZM15.7674 26.0875L14.3455 23.4459L15.7674 29.0875L15.7674 26.0875ZM40.8554 26.0875L43.8554 26.0875L43.8554 23.0875L40.8554 23.0875L40.8554 26.0875ZM40.8554 36.9675L40.8554 39.9675L43.8554 39.9675L43.8554 36.9675L40.8554 36.9675ZM0.151365 36.9675L-2.84863 36.9675L-2.84863 39.9675L0.151365 39.9675L0.151365 36.9675ZM0.151366 24.5515L-1.28715 21.9189L-2.84863 22.7721L-2.84863 24.5515L0.151366 24.5515ZM24.2794 11.3675L25.7179 14.0001L24.2794 8.3675L24.2794 11.3675ZM0.151367 11.3675L-2.84863 11.3675L-2.84863 14.3675L0.151366 14.3675L0.151367 11.3675ZM0.151367 3.4875L40.8554 3.4875L40.8554 -2.5125L0.151367 -2.5125L0.151367 3.4875ZM37.8554 0.487498L37.8554 12.5835L43.8554 12.5835L43.8554 0.487498L37.8554 0.487498ZM39.4335 9.94187L14.3455 23.4459L17.1893 28.7291L42.2773 15.2251L39.4335 9.94187ZM15.7674 29.0875L40.8554 29.0875L40.8554 23.0875L15.7674 23.0875L15.7674 29.0875ZM37.8554 26.0875L37.8554 36.9675L43.8554 36.9675L43.8554 26.0875L37.8554 26.0875ZM40.8554 33.9675L0.151366 33.9675L0.151365 39.9675L40.8554 39.9675L40.8554 33.9675ZM3.15137 36.9675L3.15137 24.5515L-2.84863 24.5515L-2.84863 36.9675L3.15137 36.9675ZM1.58988 27.1841L25.7179 14.0001L22.8409 8.73488L-1.28715 21.9189L1.58988 27.1841ZM24.2794 8.3675L0.151367 8.3675L0.151366 14.3675L24.2794 14.3675L24.2794 8.3675ZM3.15137 11.3675L3.15137 0.487496L-2.84863 0.487496L-2.84863 11.3675L3.15137 11.3675ZM0.151364 63.185L1.13071 60.3494L-2.84864 58.975L-2.84864 63.185L0.151364 63.185ZM40.9194 77.265L43.9194 77.265L43.9194 75.1272L41.8987 74.4294L40.9194 77.265ZM40.9194 90.257L41.8303 93.1154L43.9194 92.4496L43.9194 90.257L40.9194 90.257ZM0.151363 103.249L-2.84864 103.249L-2.84864 107.354L1.06227 106.107L0.151363 103.249ZM0.151363 91.537L-0.714862 88.6648L-2.84864 89.3083L-2.84864 91.537L0.151363 91.537ZM8.21536 89.105L9.08159 91.9772L11.2154 91.3337L11.2154 89.105L8.21536 89.105ZM8.21536 77.585L11.2154 77.585L11.2154 75.3563L9.08159 74.7128L8.21536 77.585ZM0.151364 75.153L-2.84864 75.153L-2.84864 77.3817L-0.714862 78.0252L0.151364 75.153ZM17.1754 80.017L18.0675 77.1527L14.1754 75.9404L14.1754 80.017L17.1754 80.017ZM17.1754 87.313L14.1754 87.313L14.1754 91.3051L18.0099 90.1946L17.1754 87.313ZM28.8874 83.921L29.7219 86.8026L31.8874 86.1754L31.8874 83.921L28.8874 83.921ZM28.8874 83.665L31.8874 83.665L31.8874 81.4573L29.7795 80.8007L28.8874 83.665ZM-0.82798 66.0206L39.94 80.1006L41.8987 74.4294L1.13071 60.3494L-0.82798 66.0206ZM37.9194 77.265L37.9194 90.257L43.9194 90.257L43.9194 77.265L37.9194 77.265ZM40.0085 87.3986L-0.759545 100.391L1.06227 106.107L41.8303 93.1154L40.0085 87.3986ZM3.15136 103.249L3.15136 91.537L-2.84864 91.537L-2.84864 103.249L3.15136 103.249ZM1.01759 94.4092L9.08159 91.9772L7.34914 86.2328L-0.714862 88.6648L1.01759 94.4092ZM11.2154 89.105L11.2154 77.585L5.21536 77.585L5.21536 89.105L11.2154 89.105ZM9.08159 74.7128L1.01759 72.2808L-0.714862 78.0252L7.34914 80.4572L9.08159 74.7128ZM3.15136 75.153L3.15136 63.185L-2.84864 63.185L-2.84864 75.153L3.15136 75.153ZM14.1754 80.017L14.1754 87.313L20.1754 87.313L20.1754 80.017L14.1754 80.017ZM18.0099 90.1946L29.7219 86.8026L28.0528 81.0394L16.3408 84.4314L18.0099 90.1946ZM31.8874 83.921L31.8874 83.665L25.8874 83.665L25.8874 83.921L31.8874 83.921ZM29.7795 80.8007L18.0675 77.1527L16.2832 82.8813L27.9952 86.5293L29.7795 80.8007ZM0.151361 131.412L0.151361 128.412L-2.84864 128.412L-2.84864 131.412L0.151361 131.412ZM36.3114 131.412L38.6635 129.55L37.7627 128.412L36.3114 128.412L36.3114 131.412ZM38.6154 135.508L35.8544 136.682L35.8544 136.682L38.6154 135.508ZM40.4074 141.268L43.3399 140.636L43.3373 140.624L40.4074 141.268ZM37.1434 160.532L34.8701 158.575L34.8622 158.584L34.8544 158.593L37.1434 160.532ZM17.3034 162.964L18.9018 160.426L18.8954 160.422L18.889 160.418L17.3034 162.964ZM12.2474 157.204L14.9768 155.959L14.9726 155.95L14.9684 155.941L12.2474 157.204ZM11.0314 145.236L8.13451 144.457L8.13088 144.47L8.12737 144.484L11.0314 145.236ZM12.1834 142.292L14.812 143.738L17.2572 139.292L12.1834 139.292L12.1834 142.292ZM0.151361 142.292L-2.84864 142.292L-2.84864 145.292L0.151361 145.292L0.151361 142.292ZM21.0154 152.596L23.1367 150.475L23.1159 150.454L23.0947 150.434L21.0154 152.596ZM30.8714 152.596L28.83 150.398L28.8101 150.417L28.7904 150.436L30.8714 152.596ZM31.5114 142.292L34.145 140.856L33.2923 139.292L31.5114 139.292L31.5114 142.292ZM20.6954 144.148L18.3053 142.335L18.2851 142.362L18.2655 142.389L20.6954 144.148ZM0.151361 134.412L36.3114 134.412L36.3114 128.412L0.151361 128.412L0.151361 134.412ZM33.9592 133.275C34.55 134.021 35.1938 135.128 35.8544 136.682L41.3764 134.335C40.5862 132.476 39.6941 130.852 38.6635 129.55L33.9592 133.275ZM35.8544 136.682C36.4957 138.191 37.0411 139.93 37.4774 141.913L43.3373 140.624C42.8349 138.34 42.1857 136.239 41.3764 134.335L35.8544 136.682ZM37.4748 141.901C37.8978 143.862 38.1114 145.89 38.1114 147.988L44.1114 147.988C44.1114 145.479 43.8556 143.027 43.3399 140.636L37.4748 141.901ZM38.1114 147.988C38.1114 152.784 36.919 156.196 34.8701 158.575L39.4167 162.49C42.6584 158.725 44.1114 153.774 44.1114 147.988L38.1114 147.988ZM34.8544 158.593C32.9454 160.847 30.1153 162.14 25.8794 162.14L25.8794 168.14C31.4568 168.14 36.136 166.362 39.4323 162.472L34.8544 158.593ZM25.8794 162.14C22.8889 162.14 20.6192 161.507 18.9018 160.426L15.7049 165.503C18.5955 167.323 22.0432 168.14 25.8794 168.14L25.8794 162.14ZM18.889 160.418C17.1305 159.323 15.8421 157.857 14.9768 155.959L9.5179 158.45C10.8713 161.416 12.9535 163.79 15.7177 165.511L18.889 160.418ZM14.9684 155.941C14.0608 153.986 13.5834 151.778 13.5834 149.268L7.58336 149.268C7.58336 152.562 8.2153 155.644 9.52633 158.468L14.9684 155.941ZM13.5834 149.268C13.5834 147.917 13.7158 146.836 13.9354 145.989L8.12737 144.484C7.74962 145.941 7.58336 147.548 7.58336 149.268L13.5834 149.268ZM13.9282 146.016C14.1753 145.099 14.4769 144.348 14.812 143.738L9.55471 140.847C8.95117 141.944 8.48478 143.156 8.13451 144.457L13.9282 146.016ZM12.1834 139.292L0.151361 139.292L0.151361 145.292L12.1834 145.292L12.1834 139.292ZM3.15136 142.292L3.15136 131.412L-2.84864 131.412L-2.84864 142.292L3.15136 142.292ZM16.3514 148.372C16.3514 150.816 17.1559 153.047 18.936 154.759L23.0947 150.434C22.6562 150.012 22.3514 149.428 22.3514 148.372L16.3514 148.372ZM18.894 154.718C20.7644 156.588 23.3263 157.26 26.0074 157.26L26.0074 151.26C24.2511 151.26 23.485 150.823 23.1367 150.475L18.894 154.718ZM26.0074 157.26C28.6275 157.26 31.0858 156.555 32.9523 154.757L28.7904 150.436C28.3529 150.857 27.5686 151.26 26.0074 151.26L26.0074 157.26ZM32.9127 154.795C34.9564 152.897 35.6634 150.18 35.6634 147.348L29.6634 147.348C29.6634 149.295 29.1757 150.077 28.83 150.398L32.9127 154.795ZM35.6634 147.348C35.6634 144.995 35.2016 142.793 34.145 140.856L28.8777 143.729C29.3572 144.608 29.6634 145.777 29.6634 147.348L35.6634 147.348ZM31.5114 139.292L25.1114 139.292L25.1114 145.292L31.5114 145.292L31.5114 139.292ZM25.1114 139.292C22.4667 139.292 19.9704 140.14 18.3053 142.335L23.0854 145.962C23.2977 145.682 23.7454 145.292 25.1114 145.292L25.1114 139.292ZM18.2655 142.389C16.9859 144.156 16.3514 146.184 16.3514 148.372L22.3514 148.372C22.3514 147.403 22.6128 146.616 23.1252 145.908L18.2655 142.389Z" fill="url(#paint0_linear_2148_4400)" mask="url(#path-1-outside-1_2148_4400)"/>
<defs>
<linearGradient id="paint0_linear_2148_4400" x1="20.1514" y1="-3" x2="20.1514" y2="168" gradientUnits="userSpaceOnUse">
<stop stop-color="#48A0F0"/>
<stop offset="1" stop-color="#54BDAC"/>
</linearGradient>
</defs>
</svg>
