<svg xmlns="http://www.w3.org/2000/svg" width="334" height="42" fill="none" viewBox="0 0 334 42">
  <path fill="#fff" d="M8.16 1.521C7.846.95 8.015.65 8.666.623c.52-.026.898.078 1.133.313.13.208.534.494 1.21.859.704.338 1.277.716 1.72 1.133.442.416.56.885.351 1.406-.026.365-.273.677-.742.937-.469.235-.912.339-1.328.313-.156-.104-.195-.234-.117-.39a4 4 0 0 1 .351-.626c.156-.26.222-.43.196-.507 0-.13-.287-.339-.86-.625-.885-.443-1.471-.769-1.758-.977a2.876 2.876 0 0 1-.664-.938ZM3.98 9.295c.885-.156 1.705-.39 2.46-.703A30.431 30.431 0 0 0 8.901 7.38c.86-.495 1.563-.86 2.11-1.094.469-.208 1.484-.664 3.047-1.367 1.562-.703 2.708-1.198 3.437-1.484 1.172-.443 1.875-.365 2.11.234.156.443-.027.86-.547 1.25-.13.078-.26.143-.391.195-.26.209-.703.287-1.328.235-.599-.052-1.029 0-1.29.156-.39.208-1.21.625-2.46 1.25-1.224.599-2.33 1.146-3.32 1.64-.964.495-1.459.769-1.485.82-.885.548-2.317 1.147-4.297 1.798-.468.208-.859.234-1.172.078-.286-.157-.403-.456-.351-.899.026-.364.091-.586.195-.664.13-.104.404-.182.82-.234Zm11.25 5.625c-.027.052-.508.768-1.446 2.148-.911 1.38-1.614 2.24-2.11 2.578-.598.339-1.106.313-1.523-.078-.39-.416-.351-.872.118-1.367.156-.182.221-.547.195-1.094.026-.312-.04-1.08-.195-2.304-.157-1.25-.235-2.123-.235-2.618.052-.156.195-.286.43-.39.26-.13.469-.182.625-.156.208.052.338.195.39.43.053.234.17 1.041.352 2.421.13 1.12.248 1.771.352 1.953.078.13.416-.208 1.015-1.015.209-.313.456-.677.742-1.094.652-.86.717-1.29.196-1.29-.313 0-.755.17-1.328.509-.235.156-.43.156-.586 0-.13-.157-.156-.404-.078-.743.026-.156.208-.351.546-.585a3.707 3.707 0 0 1 1.016-.508c.495-.183.873-.235 1.133-.157.286.079.599.3.937.665.313.234.43.546.352.937-.078.39-.208.742-.39 1.055a3.06 3.06 0 0 1-.508.703Zm-4.18 18.75a213.3 213.3 0 0 1-2.149.86c-.572.208-1.315.455-2.226.742-.886.312-1.732.611-2.54.898-.833.286-1.51.417-2.03.39-.443-.026-.782-.09-1.016-.195-.208-.104-.39-.286-.547-.547-.26-.416-.247-.78.04-1.093.286-.313.663-.339 1.132-.078.547.156 1.38.078 2.5-.235a36.165 36.165 0 0 0 3.36-1.094c1.093-.442 1.679-.677 1.757-.703.026-.026.638-.286 1.836-.781 1.198-.495 1.81-.755 1.836-.781.182-.157.182-.56 0-1.211-.104-.313-.208-.482-.313-.508-.078-.052-.312-.013-.703.117-.625.235-1.171.143-1.64-.273-.469-.443-.495-.912-.078-1.407.833-1.588 1.263-2.395 1.289-2.421.13-.339.13-.521 0-.547-.104-.052-.404 0-.899.156-1.172.39-1.797.352-1.875-.117-.052-.39.365-.794 1.25-1.211.182-.104.39-.195.625-.274a3.29 3.29 0 0 1 1.875-.078c.651.157 1.029.456 1.133.899.052.364-.182.99-.703 1.875-.52.885-.768 1.367-.742 1.445 0 .078.26.117.781.117.313-.052.573-.026.781.078a.838.838 0 0 1 .508.43c.13.182.221.378.274.586.078.182.156.43.234.742.078.313.156.56.234.742.443-.156 1.459-.547 3.047-1.172 1.589-.625 2.93-1.106 4.024-1.445a25.966 25.966 0 0 1 3.398-.86c1.64-.26 2.734-.494 3.281-.702.365-.13.755-.157 1.172-.078.443.052.664.169.664.351-.026.13-.065.287-.117.469a2.505 2.505 0 0 1-.078.351 6.13 6.13 0 0 1-.117.313c-.026.104-.065.17-.117.195a2.364 2.364 0 0 1-.196.157.572.572 0 0 1-.351.117c-.105-.026-.26-.013-.47.039-.181.026-.39.013-.624-.04-.886 0-1.966.17-3.242.508-1.25.313-2.07.508-2.461.586-.521.079-1.185.287-1.992.625-.808.339-1.316.547-1.524.625-.156 0-.482.13-.976.391-.47.26-.769.404-.899.43a8.178 8.178 0 0 0-2.539 1.328c-.26.208-.573 1.315-.938 3.32-.078.182-.234.807-.468 1.875-.208 1.068-.456 1.901-.742 2.5-.26.625-.612 1.003-1.055 1.133-.235.104-.547.104-.938 0a5.887 5.887 0 0 1-.898-.352 8.673 8.673 0 0 1-.586-.351 2.27 2.27 0 0 1-.43-.508 3.319 3.319 0 0 1-.312-.547 17.306 17.306 0 0 1-.313-.703c-.13-.364-.234-.612-.312-.742-.235-.521-.365-.886-.39-1.094-.027-.208.038-.364.195-.469.156-.078.325-.052.507.079.183.156.313.312.391.468.026.078.104.248.234.508.13.287.235.52.313.703.104.182.221.378.351.586.157.208.3.352.43.43.26.26.443.403.547.43.104.026.273-.014.508-.118.182-.052.338-.221.469-.508.13-.286.247-.742.351-1.367.13-.599.208-.924.235-.976.025-.13.09-.547.195-1.25.13-.677.26-1.172.39-1.485.183-.573.157-.859-.078-.859-.182.026-.69.221-1.523.586ZM49.706 5.115c.182-.026-.143.404-.977 1.29a116.89 116.89 0 0 1-2.538 2.616c-.886.886-1.303 1.329-1.25 1.329-.105.13-.43.364-.977.703-.52.338-.794.612-.82.82.625 1.198 1.21 2.136 1.757 2.813.521.468.664.911.43 1.328-.234.39-.65.43-1.25.117-.182-.156-.456-.534-.82-1.133-.365-.625-.664-1.042-.899-1.25l-.664-.664c-.234.156-.534.234-.898.234-.365-.026-.521-.195-.469-.508 0-.208.208-.494.625-.859a33.453 33.453 0 0 0 3.555-3.36 49.15 49.15 0 0 1 3.476-3.515c.287-.234.482-.364.586-.39.105-.053.26-.066.469-.04.313.027.495.066.547.118.078.052.117.169.117.351Zm3.32 3.985c-.026-.6.04-.977.196-1.133.182-.182.508-.235.976-.156.287.104.43.455.43 1.054.026.573-.091 1.263-.352 2.07-.312.86-.69 1.498-1.132 1.915-.573.52-.912.56-1.016.117-.104-.495.026-.912.39-1.25.34-.365.508-1.237.508-2.617Zm-4.414 4.96c-.312.027-.508-.065-.586-.273a3.629 3.629 0 0 1-.156-.86c0-.364-.065-.624-.195-.78-.339-.443-.339-.808 0-1.094.338-.313.729-.352 1.172-.118.26.261.43.899.508 1.915.026.494-.013.82-.118.976-.078.156-.286.234-.625.234Zm4.22 2.54c-3.803 1.796-6.733 3.45-8.79 4.96-.13.105-.417.274-.86.508-.442.235-.729.43-.859.586-.182.183-.599.482-1.25.899-.625.39-1.028.612-1.21.664-.443.078-.769-.052-.977-.39-.183-.365-.326-.847-.43-1.446-.078-.6-.182-1.016-.312-1.25-.157-.182-.222-.638-.196-1.367 0-.417.078-.6.235-.547.468-.313.833-.195 1.093.351.209.495.443 1.302.703 2.422.053.339.352.326.899-.039 2.292-1.536 4.232-2.773 5.82-3.71 1.589-.938 3.464-1.889 5.625-2.852.339-.183.847-.378 1.524-.586a14.419 14.419 0 0 1 2.304-.469c.834-.13 1.368.013 1.602.43.078.286.117.56.117.82 0 .26-.026.495-.078.703-.052.208-.13.43-.234.664-.105.209-.209.39-.313.547l-.39.586c-.157.234-.274.417-.352.547-.26.286-.69.625-1.29 1.015-.572.365-.924.534-1.054.508-.234-.078-.312-.26-.234-.547.078-.286.286-.56.625-.82.182-.156.456-.495.82-1.015.365-.547.6-.951.703-1.211.235-.704-.273-.899-1.523-.586-.86.234-1.432.442-1.719.625Zm-1.876 8.164c0-.13-.091-.157-.273-.078a4.916 4.916 0 0 0-.274.156c-.182.104-.547.364-1.093.781-.547.39-1.055.703-1.524.938a4.393 4.393 0 0 1-1.445.39c-.365 0-.625-.195-.782-.586-.13-.39 0-.65.391-.781a7.217 7.217 0 0 0 1.68-.742 25.027 25.027 0 0 0 1.914-1.211c.703-.469 1.25-.807 1.64-1.016a1.68 1.68 0 0 1 1.094-.312c.417.026.703.182.86.468.182.26.143.665-.118 1.211 0 .287-.195.782-.586 1.485-.39.677-.846 1.406-1.367 2.187-.52.782-.846 1.276-.976 1.485a.987.987 0 0 0 .117.234c.078.078.182.156.312.234.13.079.248.144.352.196.13.052.26.117.39.195.157.052.261.091.313.117a25.72 25.72 0 0 1 1.758 1.055 26.68 26.68 0 0 0 2.148 1.21c.677.313 1.498.626 2.461.938.964.339 2.188.808 3.672 1.407.156.078.352.156.586.234.234.104.39.182.469.234.104.052.208.117.312.196a.98.98 0 0 1 .274.312c.052.13.09.3.117.508.078.182.013.404-.195.664-.183.26-.404.404-.664.43-.26.052-.482-.065-.664-.352-.547-.573-1.771-1.159-3.672-1.758-1.875-.573-3.112-1.054-3.711-1.445a19.748 19.748 0 0 1-1.563-.898 21.57 21.57 0 0 0-1.797-1.016 13.07 13.07 0 0 0-1.836-.82 3.22 3.22 0 0 0-.43-.04c-.103-.025-.22.014-.35.118a2.544 2.544 0 0 0-.274.234 3.67 3.67 0 0 0-.235.274l-.273.273c-.911 1.172-2.11 1.745-3.594 1.719-.338 0-.625-.104-.86-.313-.207-.234-.234-.495-.077-.781.104-.13.351-.143.742-.039.364.052.716 0 1.055-.156.338-.156.586-.313.742-.469.156-.182.351-.443.586-.781.26-.365.442-.6.547-.703.208-.235.286-.404.234-.508-.026-.104-.195-.182-.508-.235-.443-.026-.82-.156-1.133-.39-.312-.26-.455-.547-.43-.86.027-.312.261-.56.704-.742.338-.104.586-.143.742-.117.182.026.534.182 1.055.469.625.286.99.403 1.093.351.105-.026.287-.247.547-.664.287-.416.573-.872.86-1.367.286-.495.494-.807.625-.937.208-.26.312-.456.312-.586Zm28.227-8.203c.182-.235.494-.665.937-1.29a62.64 62.64 0 0 1 1.094-1.484c.26-.338.586-.768.977-1.289.416-.52.807-.976 1.171-1.367a16.1 16.1 0 0 1 1.133-1.172c.078-.052.209-.208.39-.469.183-.26.365-.442.548-.547.182-.13.39-.13.625 0 .546.235.599.782.156 1.641-.078.182-.365.508-.86.976-.494.443-.82.69-.976.743a1.05 1.05 0 0 0-.508.43c-.078.156-.039.299.117.43.079.077.105 1.366.079 3.866v3.75c.364.026.703 0 1.015-.078a5.906 5.906 0 0 0 1.133-.508c.417-.234.69-.377.82-.43.287-.104.6-.26.938-.468.338-.208.586-.365.742-.469.365-.182.56-.338.586-.469.052-.156-.013-.43-.195-.82-.105-.26-.209-.43-.313-.508-.078-.104-.221-.195-.43-.273-.442-.13-.755-.156-.937-.078-.182.078-.508.39-.977.937-.442.417-.703.313-.781-.312-.052-.469.026-.873.234-1.211.313-.469.782-.781 1.407-.938.625-.182 1.198-.143 1.718.117.73.365 1.211.964 1.446 1.797.234.834.403 2.019.508 3.555a34.62 34.62 0 0 1 .039 4.336c-.105 1.38-.079 2.656.078 3.828.026.339-.026.6-.156.781-.13.183-.17.495-.118.938 0 .625-.104 1.172-.312 1.64-.182.47-.404.769-.664.899s-.547.078-.86-.156c-.026-.026-.09-.092-.195-.196a1.623 1.623 0 0 0-.234-.312 2.047 2.047 0 0 0-.235-.352 8.024 8.024 0 0 0-.195-.312 356.49 356.49 0 0 1-.078-.313.485.485 0 0 1 0-.273.379.379 0 0 1 .234-.156c.104-.053.248.052.43.312.208.26.338.39.39.39.157 0 .261-.273.313-.82.078-.546.04-.846-.117-.898-.912.234-2.292.73-4.14 1.484-1.173.47-1.954.625-2.344.47-.391-.183-.612-.782-.665-1.798a6.144 6.144 0 0 1 .04-1.562c.286-1.823.43-5.508.43-11.055.025-1.406-.053-2.253-.235-2.539-.156-.26-.547.117-1.172 1.133a2.056 2.056 0 0 0-.195.312c-.339.573-.573.925-.704 1.055a.64.64 0 0 1-.468.195.752.752 0 0 1-.664-.351c-.13-.235-.13-.482 0-.742Zm9.375 3.945c-.99.599-1.706 1.003-2.149 1.21-.416.183-1.055.418-1.914.704-.182.104-.3.195-.351.273-.053.052-.092.196-.118.43-.13.833-.13 1.354 0 1.563.079.13.521.026 1.329-.313.807-.338 1.38-.651 1.718-.938.365-.338.99-.56 1.875-.663l.664-.079-.039-1.21c0-.157-.013-.326-.039-.508a4.165 4.165 0 0 1-.039-.43.258.258 0 0 0-.039-.235.642.642 0 0 1-.039-.156c0-.026-.052-.026-.156 0a.866.866 0 0 0-.274.117 2.57 2.57 0 0 0-.43.235Zm-3.829 5.86a2.896 2.896 0 0 1-.507.116c-.156 0-.26.027-.313.079-.026.026-.065.13-.117.312-.052.182-.104.508-.156.977-.078.599-.104.99-.078 1.171.026.157.13.339.312.547l.352.391.82-.195c1.875-.573 3.32-1.107 4.336-1.602.104-.078.208-1.38.313-3.906-.027-.365-.912-.065-2.657.898-.182.105-.39.222-.625.352-.26.156-.573.325-.937.508a7.185 7.185 0 0 0-.742.351Zm31.704-3.438c-.495-.521-.43-.977.195-1.367a3.372 3.372 0 0 1 2.07-.508c1.12 0 1.81-.143 2.071-.43.104-.156.156-.547.156-1.172.026-.625-.026-.99-.156-1.094-.235-.104-.886.105-1.954.625-1.067.521-1.875.977-2.421 1.368-.782.416-1.368.911-1.758 1.484a2.561 2.561 0 0 0-.469 1.21c-.052.444-.052 1.264 0 2.462 0 .469.026.937.078 1.406.052.469.078.794.078.977.026.156 0 .364-.078.625-.078.234-.234.495-.469.78-.338.287-.703.157-1.093-.39l-.274-.43.117-1.64c.079-1.068.039-2.318-.117-3.75-.13-1.432-.195-2.565-.195-3.398 0-.495.013-.847.039-1.055.052-.209.143-.417.273-.625.131-.209.222-.39.274-.547.104-.417.43-.534.976-.352v2.461c0 .443.013.69.039.742.053.027.196-.065.43-.273h.039c.078-.13.274-.3.586-.508.313-.208.677-.416 1.094-.625.443-.234.729-.403.859-.508.729-.546 1.602-1.002 2.617-1.367l.625-.234c.235-.078.378-.143.43-.195a.973.973 0 0 1 .235-.118c.104-.052.143-.13.117-.234 0-.13.013-.234.039-.313.026-.104.026-.299 0-.585 0-.313.013-.612.039-.899a73.238 73.238 0 0 1-.039-1.445.618.618 0 0 1 .234-.39c.365-.261.677-.261.938 0 .286.234.39.585.312 1.054 0 1.328.052 2.057.156 2.187.235.027.73.013 1.485-.039.755-.052 1.289-.026 1.601.079 1.849.442 2.904.755 3.164.937.287.208.469.456.547.742.104.26.13.742.078 1.445a7.8 7.8 0 0 1-.078 1.172c-.026.339-.052.612-.078.82 0 .209-.065.508-.195.9a8.649 8.649 0 0 1-.235.741c-.026.105-.156.43-.39.977a34.17 34.17 0 0 0-.43 1.172c-.13.364-.234.65-.312.86a1.01 1.01 0 0 0-.039.468c.026.13.052.221.078.273.052.026.143.078.273.157.156.078.274.143.352.195.104.156 0 .378-.313.664-.312.26-.599.39-.859.39-.104 0-.456.118-1.055.352-.573.208-.963.3-1.172.274-.39 0-1.172.156-2.343.468-1.771.469-3.034.677-3.79.625-.416-.052-.69-.09-.82-.117a1.435 1.435 0 0 1-.351-.273c-.261-.313-.326-.638-.196-.977.104-.234.612-.456 1.524-.664.13-.052.273-.091.429-.117.183-.052.287-.078.313-.078a.61.61 0 0 0 .156-.117c.078-.079.117-.157.117-.235 0-.104.013-.26.039-.469.313-1.354.534-2.565.664-3.632.027-.157-.013-.26-.117-.313-.13-.052-.56-.026-1.289.078-.729.104-1.263.209-1.601.313-.365.13-.625.195-.782.195-.156 0-.312-.065-.468-.195Zm6.328-3.008c.234 0 .612-.104 1.133-.313.546-.208.937-.403 1.171-.585.495-.391.847-.456 1.055-.196.104.13.091.404-.039.82-.13.391-.299.665-.508.82-.156.131-.534.326-1.133.587-.598.234-1.093.403-1.484.508-.234.026-.404.13-.508.312-.104.182-.195.495-.273.938a9.227 9.227 0 0 1-.117.78c0 .183-.091.73-.274 1.641-.156.912-.234 1.485-.234 1.72.26.155.716.142 1.367-.04.677-.182 1.12-.273 1.328-.273.599-.052.99-.144 1.172-.274.078-.052.169-.156.273-.312.131-.183.248-.404.352-.664.13-.287.247-.534.352-.742.104-.235.221-.495.351-.782.13-.312.222-.52.274-.625.104-.13.247-.573.429-1.328.183-.781.3-1.458.352-2.031.078-.625.065-1.029-.039-1.211-.078-.182-.352-.417-.821-.703-.156-.156-.377-.26-.664-.313-.26-.078-.651-.143-1.171-.195a21.845 21.845 0 0 0-.86-.078 2.8 2.8 0 0 0-.898.078c-.313.052-.534.13-.664.234-.105.078-.183.339-.235.782-.052.416-.052.768 0 1.054.026.157.052.26.078.313.052.052.131.078.235.078Zm33.773.078c.078-.234.078-.378 0-.43-.078-.078-.143-.117-.195-.117-.026 0-.117.04-.274.117l-.351.117c-.287.209-.599.209-.938 0-.338-.208-.546-.481-.625-.82-.052-.364.066-.716.352-1.054.234-.313.43-.508.586-.586.833-.313 1.588-.17 2.266.43.677.598.95 1.262.82 1.991-.156.886-.56 1.85-1.211 2.891-.651 1.016-1.289 1.745-1.914 2.188-.261.104-.482.13-.664.078-.156-.078-.235-.222-.235-.43.026-.234.157-.469.391-.703.417-.443.833-1.068 1.25-1.875.443-.807.69-1.406.742-1.797Zm30.063 8.906c-.078 0-.248.105-.508.313-.495.417-.925.443-1.289.078-.365-.365-.3-.807.195-1.328.182-.287.326-.456.43-.508.104-.052.325-.104.664-.156.13-.026.651-.495 1.562-1.407.938-.937 1.485-1.536 1.641-1.796.417-.573.977-1.485 1.68-2.735.729-1.276 1.093-2.096 1.093-2.46 0-.053-.065-.079-.195-.079s-.299.026-.508.078c-.208.052-.39.13-.547.235-.416.286-.755.286-1.015 0-.261-.313-.274-.638-.039-.977.208-.312.781-.677 1.719-1.094.937-.442 1.51-.846 1.718-1.21.183-.391.313-1.212.391-2.462l.078-1.015-.391-.352c-.234-.208-.351-.377-.351-.508 0-.13.104-.299.312-.507.131-.13.209-.248.235-.352.052-.13.078-.378.078-.742-.104-.52-.013-.846.273-.977.313-.13.625-.065.938.196.052.026.104.3.156.82.078.495.143.768.195.82.105.13.703.3 1.797.508.547.104.886.221 1.016.352.13.13.182.39.156.78-.026.287-.026.47 0 .548.026.078.13.182.313.312.546.443.729.873.546 1.29-.312.598-1.276 1.327-2.89 2.187a17.56 17.56 0 0 1-.82.508c-.313.156-.508.273-.586.351a2.656 2.656 0 0 0-.352.313 2.446 2.446 0 0 0-.391.508c-.078.182-.182.455-.312.82a28.685 28.685 0 0 1-.742 1.797 10.8 10.8 0 0 1-.703 1.289 27.96 27.96 0 0 1-.821 1.289c-.338.52-.599.95-.781 1.289-.078.182-.729.898-1.953 2.148-1.224 1.224-1.888 1.836-1.992 1.836Zm9.531-16.367c-.365-.078-.612-.052-.742.078-.13.104-.222.378-.274.82-.026.391 0 .6.078.625.105 0 .326-.169.665-.507.546-.573.638-.912.273-1.016Zm-19.297 9.414c-1.536-.026-1.927-1.237-1.172-3.633.052-.208.104-.573.156-1.093.053-.964.209-1.72.469-2.266.287-.547.612-.742.977-.586.442.156.599.703.469 1.64a5.573 5.573 0 0 1-.274 1.172 9.62 9.62 0 0 0-.351 1.329c-.261 1.172-.248 1.77.039 1.797.104 0 .26-.066.468-.196.469-.234.769-1.041.899-2.422.026-.547.39-1.614 1.094-3.203a.861.861 0 0 1 .429-.43c.235-.13.482-.13.742 0 .131.027.209.079.235.157.026.052.026.156 0 .312-.026.313-.209.912-.547 1.797-.521 1.51-.651 2.292-.391 2.344.261.052.873-.365 1.836-1.25a2.93 2.93 0 0 0 .313-.274l.195-.195a.264.264 0 0 1 .195-.078c.078 0 .17.04.274.117.234.183.104.586-.391 1.211-.443.547-.768.925-.976 1.133-.183.182-.677.573-1.485 1.172a2.437 2.437 0 0 0-.781 1.015c-.156.391-.286 1.055-.391 1.993-.052.963-.286 2.24-.703 3.828-.39 1.562-.599 2.37-.625 2.422.052.13-.104.885-.469 2.265-.208.73-.572 1.068-1.093 1.016-.235 0-.417-.13-.547-.39-.104-.209-.156-.352-.156-.43.026-.105.104-.365.234-.782.182-.494.352-1.133.508-1.914.182-.807.338-1.393.469-1.758.234-.39.455-1.184.664-2.382.208-1.224.325-2.331.351-3.32-.052-.079-.273-.118-.664-.118Zm16.914 1.055a4.24 4.24 0 0 1 .742-.078c.235 0 .534.065.899.195.364.13.664.247.898.352.235.078.508.195.821.351.338.156.572.26.703.313.234.026.547.221.937.586.391.364.599.56.625.585.521.235 1.367.938 2.539 2.11 1.094 1.068 1.849 1.77 2.266 2.11.417.338.794.546 1.133.624.286.105.612.274.976.508.391.208.573.417.547.625.026.235-.039.508-.195.82-.156.287-.313.456-.469.508-.156.052-.534-.143-1.133-.586-.573-.469-.911-.716-1.015-.742-.209-.078-1.107-.846-2.696-2.305-1.562-1.458-2.578-2.343-3.047-2.656-.13-.156-.729-.508-1.796-1.055-1.042-.572-1.68-.976-1.915-1.21 0-.079-.104-.196-.312-.352a6.283 6.283 0 0 0-.508-.352c-.104-.104-.104-.22 0-.351Zm40.219-9.805c0 .052.221.065.664.04.391-.053.703.012.937.194.235.157.404.417.508.782.104.338.157.664.157.976.026.313.039.69.039 1.133-.131.834-.404 1.29-.821 1.367-.364.078-.625.04-.781-.117-.156-.182-.156-.442 0-.781.26-.651.234-1.185-.078-1.602-.182-.286-.43-.26-.742.079-.078.052-.274.195-.586.43a7.513 7.513 0 0 1-.703.429c-.157.078-.365.17-.625.273-.261.105-.495.13-.703.078a1.26 1.26 0 0 1-.586-.351c-.079-.052-.118-.143-.118-.274 0-.13.026-.273.079-.43l.234-.468c.078-.182.182-.365.312-.547.131-.182.235-.325.313-.43l.312-.39c.105-.157.157-.248.157-.274.156-.182.325-.455.507-.82.183-.364.274-.625.274-.781 0-.365-.208-.508-.625-.43-.521.104-.859.156-1.016.156a.596.596 0 0 1-.429-.195c-.183-.156-.287-.325-.313-.508 0-.208.052-.416.156-.625.105-.234.222-.442.352-.625.156-.208.299-.416.43-.625.156-.208.26-.364.312-.469.13-.208.365-.585.703-1.132.339-.547.56-.925.664-1.133l.196-.43c-.365-.208-.521-.469-.469-.781.052-.339.325-.625.82-.86.573-.26 1.029-.234 1.367.079.157.156.235.286.235.39 0 .078-.065.339-.196.782-.234.911-.716 1.888-1.445 2.93-.547.728-.781 1.132-.703 1.21.026.026.299 0 .82-.078l.742-.117a2.1 2.1 0 0 1 .157.195.67.67 0 0 1 .195.195c.026.053.065.144.117.274.052.104.052.182 0 .234a11.59 11.59 0 0 1-.429 1.602c-.209.625-.339 1.107-.391 1.445ZM223.3 9.491a1.741 1.741 0 0 1-.313.312 1.112 1.112 0 0 0-.195.234.435.435 0 0 0-.039.195c.026.053.091.13.195.235.104.078.157.26.157.547 0 .26.013.43.039.508.052.052.26 0 .625-.157a2.754 2.754 0 0 1 1.093-.234c.391 0 .716.13.977.39.312.313.495.651.547 1.016.078.339.078 1.029 0 2.07-.078 1.068-.235 2.019-.469 2.852-.026.26-.26.677-.703 1.25l-.625.86c-.13.208-.234.338-.313.39-.078.026-.26.039-.546.039-.261 0-.443.026-.547.078-.078.026-.209.13-.391.313-.599.625-.977 1.054-1.133 1.289-.13.208-.312.286-.547.234a1.084 1.084 0 0 1-.781-.43c-.182-.26-.169-.56.039-.898a5.17 5.17 0 0 1 .274-.547c.13-.182.208-.312.234-.39.026-.105.052-.287.078-.547.026-.287.039-.73.039-1.329 0-.625.078-2.135.235-4.53.052-.626.026-.938-.079-.938-.104 0-.208.078-.312.234a.626.626 0 0 0-.156.39c-.078.13-.222.3-.43.508a3.009 3.009 0 0 1-.742.47c-.261.104-.482.038-.664-.196-.157-.208-.235-.378-.235-.508s.091-.3.274-.508c.26-.286.638-.885 1.133-1.796.52-.938 1.054-1.55 1.601-1.836.182-.105.365-.287.547-.547.208-.26.339-.417.391-.47.156-.155.377-.233.664-.233.286 0 .495.078.625.234.286.312.104.794-.547 1.445Zm-.352 4.53c-.182.13-.286.391-.312.782-.026.39.013.677.117.86.052.051.43-.196 1.133-.743l1.094-.82.039-.547c.052-.547-.157-.82-.625-.82-.469 0-.808.208-1.016.624-.104.209-.247.43-.43.665Zm1.641 2.227c-.026-.495-.573-.104-1.641 1.172-.208.26-.312.404-.312.43-.183.338-.183.52 0 .546a.64.64 0 0 0 .195-.039c.156-.104.495-.455 1.016-1.054.521-.6.768-.95.742-1.055Zm-8.672-.938c.052.105.013.352-.117.743-.13.364-.313.82-.547 1.367a31.98 31.98 0 0 0-.469 1.133c-.234.547-.286.807-.156.781l.156-.156c.651-.808 1.107-1.302 1.367-1.485a1.4 1.4 0 0 1 .899-.312c.156 0 .377.078.664.234.286.157.456.287.508.39.026.105.065.821.117 2.15.026 1.301-.026 2.083-.156 2.343a1.143 1.143 0 0 1-.43.43c-.182.104-.352.104-.508 0-.234-.13-.403-.938-.508-2.422a3.241 3.241 0 0 0-.117-.938c-.026-.104-.065-.156-.117-.156-.026-.026-.078-.039-.156-.039-.157.104-.56.612-1.211 1.523-.651.886-1.068 1.433-1.25 1.641-.287.313-.573.469-.86.469-1.015 0-1.119-.768-.312-2.305.312-.65.625-1.64.937-2.969.105-.312.144-.52.118-.625-.026-.13-.105-.169-.235-.117-.13.026-.286.065-.469.117-.156.053-.325.105-.507.157a.842.842 0 0 1-.508-.078c-.573-.13-.886-.352-.938-.665-.026-.312.183-.859.625-1.64.573-.964.912-1.602 1.016-1.914.104-.313.052-.612-.156-.899-.417-.468-.352-.898.195-1.289.547-.39 1.029-.403 1.445-.039.131.104.235.26.313.469.026.469-.039 1.029-.195 1.68-.157.625-.352 1.159-.586 1.601-.235.443-.313.716-.235.82.078.079.313-.039.703-.351.235-.313.586-.43 1.055-.352.469.053.677.287.625.704Zm15.547 3.555c.391.026.651.13.781.313.156.156.182.351.078.586-.078.208-.208.43-.39.664a2.68 2.68 0 0 1-.625.586c-.625.39-1.563 1.12-2.813 2.187-1.224 1.068-2.2 1.81-2.93 2.227a1.211 1.211 0 0 0-.585.742c-.105.338-.17.937-.196 1.797-.078.677-.169 1.888-.273 3.633a90.32 90.32 0 0 1-.313 4.062l-.156 1.485-.469.468c-.312.313-.521.469-.625.469-.416 0-.911-.599-1.484-1.797-.391-.755-.586-1.289-.586-1.602 0-.572.13-.859.391-.859.13 0 .234.065.312.196.078.104.182.351.313.742.26.729.468.885.625.468.104-.677.299-3.359.586-8.046-.027-.105-.209-.13-.547-.079a2.572 2.572 0 0 0-.86.274c-.39.208-.846.416-1.367.625l-1.797.625c-.651.208-1.159.378-1.523.508-1.328.52-2.188.82-2.578.898-.391.078-.664 0-.821-.234-.286-.469-.247-.899.118-1.29.182-.208 1.302-.611 3.359-1.21 2.057-.6 3.203-.99 3.437-1.172.235-.13.534-.26.899-.39.39-.157.703-.3.937-.43.261-.13.521-.3.782-.508l.351-.313v-3.086a.73.73 0 0 1 .274-.468c.39-.47.755-.534 1.093-.196.131.13.209.274.235.43.026.13.039.495.039 1.094 0 .833.052 1.276.156 1.328.104.026.404-.117.898-.43a11.399 11.399 0 0 0 1.524-1.172c.599-.52.95-.86 1.055-1.015a.687.687 0 0 0 .156-.547c-.078-.313-.052-.534.078-.664s.339-.235.625-.313c.286-.078.482-.156.586-.234a.61.61 0 0 0 .156-.117c.078-.053.13-.079.156-.079.026 0 .052-.012.079-.039a.3.3 0 0 1 .117-.039.298.298 0 0 1 .117-.039.346.346 0 0 1 .156-.039h.469Zm8.984 13.36c.339.338.365.755.078 1.25-.286.494-.586.78-.898.859-.156 0-.378-.13-.664-.39-2.005-1.277-5.143-2.514-9.414-3.712-1.432-.416-2.136-.846-2.11-1.289 0-.208.235-.351.704-.43.338-.078.859-.064 1.562.04.703.104 1.185.234 1.445.39 2.709.886 4.87 1.706 6.485 2.461a4.762 4.762 0 0 0 1.64.43c.391.026.651.065.782.117.13.052.26.143.39.274Zm-24.57 1.562a6.476 6.476 0 0 0 1.367-1.602c.365-.598.703-1.067 1.016-1.406.078-.078.312-.364.703-.86.417-.52.742-.845.976-.976.443-.26.808-.247 1.094.04.339.338.274.768-.195 1.288-.391.417-1.003 1.185-1.836 2.305-.833 1.12-1.51 1.94-2.031 2.461-.703.703-1.159 1.055-1.367 1.055a.859.859 0 0 1-.625-.274.793.793 0 0 1-.235-.586.84.84 0 0 1 .156-.468c.131-.157.456-.482.977-.977Zm36.352-.937c.078-.313.546-1.016 1.406-2.11.885-1.093 1.38-1.77 1.484-2.031 0-.078.208-.43.625-1.055.417-.625.729-1.041.938-1.25.442-.52.547-.781.312-.781-.495.13-1.432.273-2.812.43-1.355.13-2.279.247-2.774.351-.364.157-.703.078-1.015-.234-.287-.313-.313-.651-.079-1.016.079-.234.183-.403.313-.508a.624.624 0 0 1 .391-.156c.156-.026.416-.039.781-.039.39-.026.755-.052 1.094-.078 1.875-.104 2.929-.247 3.164-.43.078-.104.13-.794.156-2.07.026-1.276 0-2.5-.078-3.672 0-.495-.013-.846-.039-1.055 0-.234-.065-.403-.196-.507-.104-.104-.195-.157-.273-.157a6.26 6.26 0 0 0-.547.079c-.312.026-.573.052-.781.078-.339.026-.573.026-.703 0-.104-.026-.248-.104-.43-.235-.729-.469-.677-.885.156-1.25.521-.234 1.016-.338 1.485-.312.573-.026.911-.091 1.015-.196.104-.13.144-.455.117-.976-.156-2.005-.169-3.255-.039-3.75.026-.365.222-.638.586-.82.365-.209.69-.26.977-.157-.052.573-.065 1.563-.039 2.97.052 1.405.13 2.226.234 2.46.078.078.209.117.391.117.208-.026.651-.13 1.328-.312 1.667-.417 2.565-.808 2.695-1.172.078-.182.157-.794.235-1.836.078-1.042.104-1.706.078-1.992-.183-.86.182-1.341 1.094-1.446l.078.079c.182.078.286.169.312.273.026.078.039.312.039.703-.026.495-.026.938 0 1.328 0 .651-.013 1.133-.039 1.445-.026.313.013.508.117.586.131.053.235.053.313 0 .078-.052.234-.117.469-.195a1.53 1.53 0 0 1 .742-.117c.442-.052.703.13.781.547.078.39-.078.65-.469.781-.208.156-.508.287-.898.39a3.078 3.078 0 0 0-.977.43c-.234.183-.377.482-.429.899a16.29 16.29 0 0 1-.43 2.305c-.208.78-.391 1.367-.547 1.757l-.781 1.953c-.026.13-.117.3-.274.508l-.39.547c-.104.156-.13.274-.078.352.494-.078 1.289-.326 2.382-.742 1.12-.443 1.941-.717 2.461-.82.782-.21 1.302-.378 1.563-.509.286-.13.508-.312.664-.546.078-.26.299-.404.664-.43.365-.026.703.039 1.016.195.338.156.481.326.429.508 0 .313-.078.625-.234.938-.13.286-.313.416-.547.39-3.073.807-5.299 1.537-6.68 2.188-.364.182-.976.39-1.836.625-.833.234-1.432.455-1.796.664-.313.156-.521.286-.625.39-.105.078-.144.143-.118.196.052.052.105.117.157.195.078.052.117.143.117.273 0 .104-.065.248-.196.43-.338.417-.911 1.367-1.718 2.852-.808 1.458-1.433 2.434-1.875 2.93-.104.103-.287.364-.547.78-.261.417-.521.717-.781.899-.235.182-.495.182-.782 0-.104-.052-.221-.17-.351-.352-.104-.208-.156-.377-.156-.507Zm7.265-10.157c.052-.104.248-.625.586-1.562.365-.964.651-1.745.859-2.344.209-.599.417-1.263.625-1.992.209-.755.3-1.29.274-1.602-.156-.104-.547-.026-1.172.235-.625.234-1.029.351-1.211.351-.885.13-1.419.26-1.601.39-.183.105-.274.418-.274.938-.026.495 0 1.42.078 2.774.104 1.354.13 2.226.078 2.617-.182.573-.026.846.469.82.547-.078.977-.286 1.289-.625Zm4.063 5.625c-.235-.599-.065-.937.507-1.015.599-.078 1.081.13 1.446.625a.454.454 0 0 0 .078.117c.338.364.846.742 1.523 1.133.703.39 1.198.703 1.485.937.937.912 1.836 1.589 2.695 2.032.417.104.599.403.547.898-.052.495-.234.833-.547 1.015-.234.209-.534.209-.898 0a8.295 8.295 0 0 1-1.172-.937c-.391-.417-.651-.664-.782-.742a7.185 7.185 0 0 1-.742-.625 2.817 2.817 0 0 0-.586-.508c-.208-.182-.625-.443-1.25-.781a10.809 10.809 0 0 1-1.289-1.016c-.495-.469-.833-.846-1.015-1.133Zm25.101-26.797c-.312-.572-.143-.872.508-.898.521-.026.898.078 1.133.313.13.208.534.494 1.211.859.703.338 1.276.716 1.719 1.133.442.416.559.885.351 1.406-.026.365-.273.677-.742.937-.469.235-.912.339-1.328.313-.156-.104-.196-.234-.117-.39.078-.183.195-.391.351-.626.156-.26.222-.43.195-.507 0-.13-.286-.339-.859-.625-.885-.443-1.471-.769-1.758-.977a2.893 2.893 0 0 1-.664-.938Zm-4.179 7.774c.885-.156 1.705-.39 2.46-.703a30.251 30.251 0 0 0 2.461-1.211c.86-.495 1.563-.86 2.11-1.094.469-.208 1.484-.664 3.047-1.367 1.562-.703 2.708-1.198 3.437-1.484 1.172-.443 1.875-.365 2.11.234.156.443-.026.86-.547 1.25a2.789 2.789 0 0 1-.391.195c-.26.209-.703.287-1.328.235-.599-.052-1.029 0-1.289.156-.391.208-1.211.625-2.461 1.25a425.253 425.253 0 0 0-3.32 1.64c-.964.495-1.459.769-1.485.82-.885.548-2.317 1.147-4.297 1.798-.468.208-.859.234-1.172.078-.286-.157-.403-.456-.351-.899.026-.364.091-.586.195-.664.13-.104.404-.182.821-.234Zm11.25 5.625c-.026.052-.508.768-1.446 2.148-.911 1.38-1.614 2.24-2.109 2.578-.599.339-1.107.313-1.524-.078-.39-.416-.351-.872.118-1.367.156-.182.221-.547.195-1.094.026-.312-.039-1.08-.195-2.304-.157-1.25-.235-2.123-.235-2.618.052-.156.196-.286.43-.39.26-.13.469-.182.625-.156.208.052.338.195.391.43.052.234.169 1.041.351 2.421.13 1.12.248 1.771.352 1.953.078.13.416-.208 1.015-1.015.209-.313.456-.677.742-1.094.652-.86.717-1.29.196-1.29-.313 0-.755.17-1.328.509-.235.156-.43.156-.586 0-.13-.157-.157-.404-.078-.743.026-.156.208-.351.546-.585a3.723 3.723 0 0 1 1.016-.508c.495-.183.873-.235 1.133-.157.286.079.599.3.937.665.313.234.43.546.352.937a3.38 3.38 0 0 1-.391 1.055c-.156.286-.325.52-.507.703Zm-4.18 18.75c-.833.338-1.55.625-2.149.86a54.87 54.87 0 0 1-2.226.742c-.886.312-1.732.611-2.539.898-.834.286-1.511.417-2.031.39-.443-.026-.782-.09-1.016-.195-.208-.104-.391-.286-.547-.547-.26-.416-.247-.78.039-1.093.287-.313.664-.339 1.133-.078.547.156 1.38.078 2.5-.235a36.069 36.069 0 0 0 3.359-1.094c1.094-.442 1.68-.677 1.758-.703.026-.026.638-.286 1.836-.781 1.198-.495 1.81-.755 1.836-.781.182-.157.182-.56 0-1.211-.104-.313-.208-.482-.313-.508-.078-.052-.312-.013-.703.117-.625.235-1.172.143-1.64-.273-.469-.443-.495-.912-.078-1.407.833-1.588 1.263-2.395 1.289-2.421.13-.339.13-.521 0-.547-.104-.052-.404 0-.899.156-1.172.39-1.797.352-1.875-.117-.052-.39.365-.794 1.25-1.211a3.5 3.5 0 0 1 .625-.274 3.29 3.29 0 0 1 1.875-.078c.651.157 1.029.456 1.133.899.052.364-.182.99-.703 1.875-.521.885-.768 1.367-.742 1.445 0 .078.26.117.781.117.312-.052.573-.026.781.078a.836.836 0 0 1 .508.43c.13.182.221.378.273.586.079.182.157.43.235.742.078.313.156.56.234.742.443-.156 1.459-.547 3.047-1.172 1.589-.625 2.93-1.106 4.024-1.445a25.923 25.923 0 0 1 3.398-.86c1.641-.26 2.734-.494 3.281-.702.365-.13.755-.157 1.172-.078.443.052.664.169.664.351-.026.13-.065.287-.117.469a2.493 2.493 0 0 1-.078.351 6 6 0 0 1-.117.313c-.026.104-.065.17-.118.195a2.339 2.339 0 0 1-.195.157.57.57 0 0 1-.351.117c-.105-.026-.261-.013-.469.039a1.753 1.753 0 0 1-.625-.04c-.886 0-1.966.17-3.242.508-1.25.313-2.071.508-2.461.586-.521.079-1.185.287-1.992.625-.808.339-1.316.547-1.524.625-.156 0-.482.13-.976.391-.469.26-.769.404-.899.43a8.18 8.18 0 0 0-2.539 1.328c-.26.208-.573 1.315-.937 3.32-.079.182-.235.807-.469 1.875-.209 1.068-.456 1.901-.742 2.5-.261.625-.612 1.003-1.055 1.133-.234.104-.547.104-.938 0a5.884 5.884 0 0 1-.898-.352 8.71 8.71 0 0 1-.586-.351c-.13-.104-.273-.274-.43-.508a3.32 3.32 0 0 1-.312-.547 18.341 18.341 0 0 1-.313-.703c-.13-.364-.234-.612-.312-.742-.235-.521-.365-.886-.391-1.094-.026-.208.039-.364.196-.469.156-.078.325-.052.507.079.183.156.313.312.391.468.026.078.104.248.234.508.131.287.235.52.313.703.104.182.221.378.351.586.157.208.3.352.43.43.261.26.443.403.547.43.104.026.273-.014.508-.118.182-.052.338-.221.469-.508.13-.286.247-.742.351-1.367.13-.599.208-.924.234-.976.027-.13.092-.547.196-1.25.13-.677.26-1.172.39-1.485.183-.573.157-.859-.078-.859-.182.026-.69.221-1.523.586Zm37.406-13.633c.13-.573.456-1.094.977-1.562.521-.495 1.08-.743 1.679-.743.365 0 .73.118 1.094.352.365.208.638.482.82.82.079.183.118.612.118 1.29.026.65 0 1.132-.079 1.445-.182.677-.742 1.367-1.679 2.07-.313.208-.534.338-.664.39-.104.053-.3.079-.586.079-.625 0-1.029-.065-1.211-.196-.182-.156-.391-.533-.625-1.132a2.618 2.618 0 0 1-.195-1.016c.026-.39.052-.664.078-.82.052-.183.143-.508.273-.977Zm1.758 2.617c.026 0 .091.026.195.078.104.027.183.04.235.04.078-.027.182-.118.312-.274.13-.156.274-.39.43-.703.286-.573.469-.95.547-1.133.078-.208.117-.403.117-.586.026-.208-.039-.43-.195-.664-.183-.286-.612-.234-1.29.156-.26.157-.429.313-.507.47-.078.155-.183.533-.313 1.132a5.41 5.41 0 0 1-.156.625c-.026.156-.039.3-.039.43a.487.487 0 0 1 0 .273c-.026.052 0 .091.078.117.104.026.143.052.117.078h.195a3.03 3.03 0 0 1 .274-.039Z" class="享受自由，快樂共享。"/>
</svg>
