<svg width="396" height="255" viewBox="0 0 396 255" fill="none" xmlns="http://www.w3.org/2000/svg">
<path d="M138.222 139.193C136.032 136.406 127.698 129.633 124.884 127.445C123.96 128.677 118.224 135.14 117.13 136.46L115.861 137.99C116.105 142.713 116.028 150.364 116.02 153.918V154.341C118.37 153.426 120.173 152.722 121.016 152.405C121.829 153.947 122.952 156.367 124.188 159.103L125.354 152.759C125.619 151.095 126.207 149.499 127.084 148.061C127.882 147.051 129.35 146.62 130.355 145.828C132.384 144.23 134.208 142.444 136.183 140.821C136.787 140.191 137.472 139.644 138.22 139.193" fill="white"/>
<path d="M151.734 129.244C150.94 131.564 146.832 132.208 142.32 132.533C138.221 132.829 137.638 135.173 136.693 137.192C136.693 137.192 136.655 137.276 136.588 137.423C133.482 134.362 127.851 129.768 125.289 127.759L127.37 126.209C135.412 120.794 133.072 118.665 137.407 114.312C139.155 112.55 146.422 110.088 149.738 110.768L155.67 111.649C155.849 111.397 156.089 111.196 156.368 111.063C156.647 110.93 156.955 110.87 157.264 110.89C158.282 110.948 159.428 112.146 159.837 113.552L160.082 113.433C160.708 113.133 163.538 112.876 164.135 114.297C165.35 117.185 161.177 119.032 159.763 119.653L159.415 119.832C159.258 120.609 159.082 121.37 158.915 122.107C158.578 123.604 156.875 125.185 155.067 123.994C155.013 124.388 154.951 124.783 154.888 125.177C154.88 125.349 154.839 125.517 154.766 125.672C154.694 125.827 154.591 125.966 154.464 126.081C154.337 126.196 154.188 126.285 154.026 126.342C153.865 126.4 153.693 126.424 153.522 126.415L152.377 126.082C152.3 127.157 152.085 128.217 151.739 129.238" fill="white"/>
<path d="M334.322 107.158C332.984 110.32 324.22 115.925 323.196 116.454C318.884 118.683 308.001 120.894 305.652 118.763C307.839 116.137 309.417 113.059 310.273 109.751L309.724 107.588C309.333 106.196 308.845 104.834 308.264 103.511C308.154 103.214 307.939 102.968 307.659 102.818C307.38 102.668 307.056 102.625 306.747 102.696C304.095 103.329 300.042 102.821 297.105 101.647C295.311 100.908 293.873 99.501 293.096 97.7234C292.546 96.5023 292.154 95.2162 291.93 93.8962C291.576 92.0245 291.366 90.1283 291.302 88.2245C291.089 87.2712 290.647 86.3842 290.014 85.6403C289.005 84.4855 287.35 83.5603 288.265 81.6342C288.642 80.9186 289.245 80.3481 289.981 80.0118C293.627 78.1764 293.937 72.7434 294.171 68.8272C294.088 65.9486 294.461 63.0751 295.274 60.3125C301.161 65.8798 307.894 70.479 315.222 73.939C316.682 74.7188 318.274 75.2244 319.917 75.4308L322.164 75.5972C322.41 75.4928 322.666 75.412 322.927 75.3559C323.462 75.2142 324.022 75.193 324.566 75.2937C325.11 75.3944 325.625 75.6146 326.073 75.9383C327.334 76.9167 327.866 78.8994 327.738 80.5143L334.322 107.158Z" fill="white"/>
<path d="M98.4944 223.153C93.3405 223.269 88.1864 222.929 83.0926 222.136C75.7154 220.952 68.4399 219.203 61.3301 216.907C60.8241 216.741 60.401 216.388 60.1478 215.92C59.8946 215.452 59.8306 214.904 59.9689 214.39C61.4017 208.317 64.6036 191.208 66.4719 183.056H114.218L117.687 211.829L112.203 218.422C110.971 219.903 109.428 221.094 107.683 221.912C105.938 222.73 104.035 223.153 102.108 223.153H98.4944Z" fill="white"/>
<path d="M105.304 181.427C119.374 166.118 136.048 147.66 142.927 139.091C143.083 138.895 143.282 138.737 143.507 138.629C143.733 138.52 143.98 138.463 144.231 138.463H263.533C263.782 138.463 264.027 138.518 264.252 138.626C264.476 138.733 264.674 138.889 264.83 139.083C275.514 152.395 309.866 189.593 321.342 201.772C321.511 201.98 321.615 202.232 321.64 202.499C321.64 204.007 321.64 208.576 321.64 210.709C321.642 210.927 321.601 211.144 321.519 211.347C321.437 211.549 321.315 211.733 321.162 211.889C321.008 212.044 320.825 212.168 320.623 212.252C320.422 212.337 320.206 212.381 319.987 212.381H87.7842C87.5648 212.381 87.3476 212.338 87.1451 212.254C86.9426 212.169 86.7588 212.046 86.6045 211.89C86.4501 211.734 86.3281 211.549 86.2457 211.346C86.1632 211.143 86.1219 210.926 86.1241 210.706C86.1449 208.2 86.1316 204.217 86.1358 202.49C86.1552 202.227 86.2533 201.977 86.4172 201.771C90.5107 197.43 97.5082 189.91 105.304 181.427Z" fill="#EDECE7"/>
<path d="M101.158 185.336C99.3801 186.018 97.5469 186.683 95.642 187.333C83.487 191.493 69.9542 193.05 65.029 176.883C62.3107 167.962 61.673 151.228 61.211 141.246C60.8505 133.472 60.6607 129.078 62.1501 120.945C62.1792 120.767 62.3998 120.081 62.5763 119.478C64.7109 112.03 71.0781 106.732 74.996 100.244C75.7353 98.3299 78.0439 95.9895 79.1113 93.5584C78.561 92.8786 90.3954 107.286 97.8433 115.491C101.659 119.695 109.571 131.477 113.87 136.158L115.935 138.04C116.351 142.74 116.033 149.901 116.018 153.915C116.018 153.915 116.018 154.073 116.029 154.331C118.372 153.416 120.171 152.715 121.014 152.399C122.991 156.143 126.799 165.085 129.616 171.119C119.753 176.975 111.35 181.431 101.158 185.336Z" fill="white"/>
<path d="M101.342 119.827C100.001 118.064 98.7951 116.545 97.8452 115.5C91.7568 108.787 82.743 97.9468 79.9507 94.5756C80.3586 93.4299 80.7982 92.1994 80.8981 92.043C86.6701 93.8501 98.5645 99.0318 103.135 99.7689C103.86 98.9624 104.617 98.1859 105.405 97.4393C105.89 98.8196 106.215 99.7498 106.215 99.7498C106.474 100.492 106.762 101.436 107.061 102.495H108.265C110.533 107.042 111.067 110.596 112.261 114.897C113.411 121.216 114.911 128.855 115.939 138.41L113.873 136.164C110.644 132.65 105.38 125.134 101.342 119.827Z" fill="white"/>
<path d="M77.4961 38.677C75.3732 39.2062 73.9928 40.069 71.5277 43.1208C68.4789 46.8947 67.9286 51.4083 67.7088 52.2936C65.7307 60.2134 68.4307 70.67 75.657 78.0557C76.9724 79.7471 79.2103 81.5559 80.7996 83.5469C81.6007 84.5871 82.0256 85.8678 82.0051 87.1802C81.8011 88.8363 81.3882 90.46 80.7763 92.0125C86.5008 93.7821 98.5492 99.0412 103.146 99.7775C104.223 97.6817 105.031 96.1167 105.031 96.1167C105.775 94.6313 106.425 93.1011 106.978 91.5349C107.123 91.2503 107.368 91.0286 107.665 90.9114C107.963 90.7943 108.293 90.7896 108.594 90.8984C111.17 91.8494 115.284 91.8269 118.363 91.0049C120.247 90.4806 121.853 89.246 122.844 87.5613C123.54 86.4065 124.087 85.168 124.47 83.8755C125.049 82.0458 125.487 80.1744 125.78 78.2778C126.107 77.3501 126.656 76.516 127.378 75.8475C128.526 74.8133 130.292 74.087 129.608 72.0511C129.318 71.2894 128.783 70.6455 128.087 70.2207C124.661 67.9477 125.006 62.4756 125.24 58.5311C125.544 56.4097 125.614 54.2614 125.45 52.1247C125.413 50.871 125.301 49.6207 125.113 48.3807C124.847 46.6754 124.476 44.9882 124.001 43.3288C123.447 41.5402 122.641 39.8391 121.61 38.276C118.205 32.2948 111.441 28.5125 104.461 27.0656C97.1813 25.5842 89.6104 26.9792 83.338 30.9577C81.8073 32.0475 80.5761 33.5051 79.7581 35.1959L77.4961 38.677Z" fill="white"/>
<path d="M184.371 153.992C184.371 149.588 176.349 147.726 170.025 147.726C163.318 147.726 154.502 150.268 154.502 154.481C154.502 159.461 161.976 160.555 169.45 160.555C175.2 160.558 184.371 158.973 184.371 153.992Z" fill="white"/>
<path d="M178.501 149.555C179.904 146.438 180.629 143.06 180.627 139.642L180.533 139.171C180.575 137.22 174.919 136.478 170.043 136.357C163.898 136.204 158.494 136.824 158.164 139.059C158.035 144.067 158.219 147.456 159.673 150.444C161.24 153.663 164.448 155.555 168.711 155.555C173.423 155.555 175.829 153.891 177.496 151.373C177.876 150.792 178.212 150.185 178.501 149.555Z" fill="white"/>
<path d="M149.285 147.984C149.179 147.614 148.994 147.272 148.743 146.981C148.492 146.69 148.18 146.457 147.83 146.298C146.512 145.703 144.174 146.508 142.792 146.802C141.236 147.134 139.045 147.8 137.194 148.188C138.596 147.365 139.358 145.704 140.502 144.547C141.566 143.469 142.578 142.456 141.992 140.788C141.744 140.196 141.308 139.701 140.752 139.378C140.196 139.056 139.55 138.924 138.912 139.002C137.755 139.127 137.042 140.12 136.185 140.823C134.206 142.446 132.382 144.234 130.358 145.831C129.353 146.623 127.885 147.053 127.087 148.063C126.209 149.502 125.622 151.098 125.357 152.761L122.787 155.138C124.97 158.828 127.577 164.157 129.703 168.668C133.129 168.534 136.847 169.039 138.029 168.78C140.122 168.321 142.396 168.163 144.313 167.251C145.954 166.468 147.227 163.652 147.266 163.419C147.559 161.672 148.306 158.499 147.197 157.242C148.227 156.243 148.87 155.557 148.658 154.439C148.602 153.944 148.403 153.477 148.085 153.094C147.768 152.71 147.345 152.429 146.868 152.283C147.369 152.122 147.83 151.858 148.22 151.506C148.61 151.154 148.921 150.723 149.132 150.242C149.455 149.533 149.51 148.73 149.285 147.984Z" fill="white"/>
<path d="M284.261 164.04C284.261 159.636 276.239 157.773 269.916 157.773C263.208 157.773 254.392 160.316 254.392 164.529C254.392 169.509 261.866 170.603 269.34 170.603C275.09 170.604 284.261 169.023 284.261 164.04Z" fill="white"/>
<path d="M281.291 158.515C282.8 155.163 283.58 151.529 283.578 147.853L283.476 147.347C283.522 145.248 277.438 144.45 272.192 144.32C265.582 144.154 259.77 144.819 259.415 147.226C259.276 152.613 259.474 156.257 261.039 159.471C262.724 162.933 266.174 164.968 270.759 164.968C275.826 164.968 278.418 163.181 280.208 160.469C280.617 159.845 280.979 159.192 281.291 158.515Z" fill="white"/>
<path d="M272.339 163.221C271.968 162.337 271.93 161.349 272.232 160.439C272.448 159.639 272.779 158.875 273.214 158.17C272.37 157.883 271.672 157.279 271.269 156.485C270.603 155.252 271.495 153.227 272.891 152.491C274.085 151.862 275.678 152.725 276.982 152.921C277.184 152.951 277.398 152.986 277.62 153.025C275.774 146.775 284.852 149.212 286.976 150.463C288.781 151.526 293.215 156.046 293.572 157.489L294.072 159.5C292.737 163.476 291.792 167.572 291.248 171.73C287.66 172.226 283.911 173.331 282.669 173.137C280.691 172.828 278.564 172.81 276.726 172.067C275.24 171.44 273.949 170.425 272.989 169.129C272.323 167.848 272.125 165.525 273.088 164.29C272.759 163.997 272.502 163.631 272.339 163.221Z" fill="white"/>
<path d="M322.921 42.5879C321.852 42.4864 320.732 42.4265 319.561 42.4082C316.403 42.4424 313.266 42.9345 310.249 43.8692C304.176 45.9163 299.148 50.2601 296.243 55.969C295.626 57.1989 295.121 58.4811 294.731 59.8004L295.41 60.4402C301.266 65.9509 307.952 70.5063 315.225 73.9394C316.685 74.7191 318.276 75.2248 319.919 75.4312L322.161 75.5976C322.408 75.4935 322.664 75.4127 322.926 75.3563C323.461 75.2146 324.021 75.1934 324.565 75.2941C325.109 75.3948 325.624 75.6149 326.073 75.9387C327.333 76.9171 327.865 78.8998 327.738 80.5147C327.397 84.7579 325.118 87.5484 321.212 89.1825C322.306 92.2925 323.468 95.4616 323.531 98.7122C323.576 101.035 322.316 105.957 319.887 107.816C328.379 113.685 338.431 112.919 342.411 111.869C345.408 111.078 347.502 109.159 347.916 105.856C348.199 103.625 348.088 101.361 347.588 99.1681C346.964 96.0731 346.513 89.2965 348.588 79.9007C349.306 76.7161 349.644 73.4578 349.595 70.1937C349.43 64.7967 347.61 59.5807 344.379 55.2526C338.866 48.2339 333.115 43.5522 322.921 42.5879Z" fill="#645D5C"/>
<path d="M111.4 133.23C109.499 130.841 107.303 127.86 105.164 124.964C104.489 120.189 104.434 114.426 104.087 110.295C104.087 110.295 104.055 109.919 104.012 109.419C103.506 109.123 101.607 106.628 101.126 106.235L100.859 105.921C101.879 103.258 103.018 100.365 103.382 99.2739C104.018 98.5961 104.676 97.9394 105.356 97.3037C105.866 98.7572 106.214 99.7523 106.214 99.7523C106.808 101.452 107.546 104.207 108.254 107.007C108.587 107.025 108.844 107.046 108.844 107.046C109.709 110.778 113.683 130.063 113.869 132.651L114.141 136.46L113.869 136.164C113.14 135.368 112.304 134.366 111.4 133.23Z" fill="#99D5D5"/>
<path d="M67.5089 62.326C66.8705 59.005 66.9383 55.5869 67.7079 52.2938C67.9277 51.4119 68.478 46.8982 71.5267 43.1243C73.9918 40.0725 75.3722 39.2097 77.4951 38.6806L77.9555 37.9725L79.7621 35.1962C80.5802 33.5053 81.8114 32.0477 83.342 30.9579C89.6131 26.9807 97.182 25.5857 104.46 27.0658C111.44 28.5127 118.204 32.295 121.61 38.2746C122.597 39.8627 123.399 41.5578 124.002 43.3273L125.114 48.3792C125.23 49.0249 125.312 49.6765 125.357 50.3311C119.224 50.0723 106.525 51.7621 102.66 55.3231C100.685 57.2858 100.575 61.524 98.6515 64.3628C97.8506 63.1198 97.1138 62.1056 95.6952 61.6122C95.177 61.4065 94.6196 61.3185 94.0633 61.3545C93.5069 61.3905 92.9656 61.5495 92.4782 61.8202C91.0996 62.6472 90.3295 64.5658 90.2654 66.1973C90.1548 67.6388 90.3764 69.0864 90.9133 70.4288C91.4502 71.7712 92.2881 72.9727 93.3624 73.9408L93.0768 74.3277C90.869 77.3162 84.7565 81.1975 80.2691 82.2824C80.2691 82.2824 80.1076 82.3456 79.8529 82.4438C78.4076 80.8805 76.7284 79.4278 75.6594 78.0525C71.4432 73.7333 68.6063 68.2595 67.5089 62.326Z" fill="#645D5C"/>
<path d="M195.86 175.495C197.25 168.158 200.425 148.823 201.389 143.908C201.415 143.768 201.405 143.623 201.36 143.488C201.314 143.353 201.235 143.232 201.13 143.136C201.025 143.04 200.897 142.972 200.758 142.939C200.619 142.907 200.474 142.91 200.337 142.949C193.056 145.029 165.902 156.391 160.893 158.139C160.747 158.185 160.616 158.27 160.514 158.384C160.413 158.498 160.343 158.637 160.314 158.787C159.718 162.027 158.919 167.013 158.11 172.171C150.601 175.749 137.746 181.89 132.962 184.235C132.814 184.31 132.691 184.427 132.609 184.571C132.527 184.716 132.49 184.881 132.502 185.047C132.513 185.212 132.573 185.371 132.675 185.502C132.776 185.634 132.914 185.732 133.071 185.786C138.539 188.203 154.59 194.62 156.198 194.544C158.183 194.451 187.55 180.811 195.16 177.29C195.273 177.242 195.373 177.168 195.452 177.074C195.531 176.98 195.586 176.869 195.613 176.75C195.689 176.383 195.771 175.963 195.86 175.495Z" fill="#CDEEFF"/>
<path d="M344.582 127.22C344.582 127.22 343.946 124.876 343.553 123.405C341.878 119.342 339.445 115.778 337.502 112.557C334.893 112.684 332.279 112.484 329.721 111.961C327.645 113.597 325.466 115.098 323.196 116.454C318.749 118.753 307.312 121.03 305.452 118.545C302.022 122.67 298.491 130.178 296.494 136.404C296.367 136.474 296.251 136.563 296.151 136.668C295.205 139.122 294.088 141.507 292.808 143.805C291.936 145.217 290.665 146.339 289.157 147.032C287.831 147.653 286.46 148.17 285.055 148.579L284.222 148.841L286.975 150.463C288.78 151.527 293.214 156.046 293.572 157.49L293.705 158.032L294.736 158.11C293.646 159.482 291.282 169.028 291.12 173.264C292.702 173.764 295.183 174.693 298.183 175.653L312.316 191.492H320.539C324.785 191.492 339.982 191.159 344.112 191.159L345.07 191.093C345.531 186.888 342.328 174.162 341.596 169.938C341.416 168.896 341.302 167.844 341.256 166.788C341.816 164.132 342.122 161.436 342.453 159.145C343.941 148.867 347.365 137.491 344.582 127.22Z" fill="#CDEEFF"/>
<path d="M91.64 73.4881C91.8606 73.1944 91.4544 73.7086 91.3769 73.796C91.2104 73.9857 91.0364 74.1687 90.8591 74.3484C90.4478 74.7644 90.0132 75.1555 89.5653 75.5307C88.6285 76.2995 87.6393 77.0023 86.6049 77.634C84.5235 79.0052 82.2351 80.0331 79.8272 80.6783C77.7459 81.1941 78.6292 84.404 80.7122 83.8873C83.4605 83.1408 86.0736 81.9651 88.4547 80.4037C90.7768 79.0403 92.8313 77.2661 94.5181 75.1679C94.7381 74.7862 94.7989 74.3332 94.6871 73.907C94.5754 73.4808 94.3002 73.1157 93.9212 72.8908C93.5373 72.6786 93.0864 72.6223 92.6622 72.7336C92.2379 72.8448 91.8727 73.115 91.6425 73.4881H91.64Z" fill="#211715"/>
<path d="M99.1527 62.1995C98.5144 61.3379 97.6617 60.658 96.6793 60.2275C95.6969 59.7969 94.6188 59.6306 93.5522 59.7451C91.3418 60.0338 89.8832 61.6587 89.1081 63.6505C87.8718 66.8229 88.761 70.8998 90.7832 73.5513C92.0514 75.1638 93.6594 76.4773 95.4928 77.3985C97.3894 78.3911 99.0727 75.5199 97.1737 74.5248C96.4528 74.155 95.7627 73.7282 95.1099 73.2485C94.5425 72.7919 94.0195 72.2826 93.548 71.7276C92.664 70.5989 92.1179 69.2432 91.9729 67.8172C91.8297 66.2896 91.8855 64.5433 93.041 63.4658C93.3114 63.2436 93.6352 63.096 93.9803 63.0376C94.3254 62.9792 94.6799 63.0121 95.0083 63.133C95.7452 63.3934 96.3748 63.8909 96.7983 64.5474C97.1116 64.8574 97.5346 65.0312 97.9755 65.0312C98.4163 65.0312 98.8394 64.8574 99.1527 64.5474C99.4546 64.2301 99.623 63.8089 99.623 63.371C99.623 62.9331 99.4546 62.5119 99.1527 62.1945V62.1995Z" fill="#211715"/>
<path d="M120.633 63.775C120.979 64.949 120.76 67.6463 118.649 67.8726C115.859 67.851 115.705 64.5887 116.642 63.0562C117.409 61.7982 119.668 61.279 120.633 63.775Z" fill="#211715"/>
<path d="M123.641 48.6437C117.94 48.6414 112.273 49.5334 106.848 51.287C104.623 52.0533 102.135 53.0542 100.74 55.0518C99.0259 57.5054 98.9085 60.7094 97.3858 63.2603C96.2852 65.1065 99.1607 66.7797 100.261 64.9401C101.71 62.5132 101.91 59.5654 103.335 57.1634C104.251 55.6201 106.49 54.8946 108.233 54.3296C113.223 52.7838 118.417 51.9891 123.641 51.9717C125.783 51.9434 125.788 48.6154 123.641 48.6437Z" fill="#211715"/>
<path d="M77.0528 37.073C73.0749 38.0989 70.0195 41.6191 68.2379 45.1817C66.7925 48.2625 65.8879 51.5688 65.5638 54.956C65.1475 59.1295 65.6724 63.3431 67.0998 67.2871C68.7001 71.6756 71.1701 75.6963 74.362 79.1082C75.2087 80.0467 76.0479 80.971 76.9479 81.8621C78.0027 82.7756 78.9453 83.8109 79.756 84.9464C80.8974 86.8208 80.0574 89.0714 79.4047 90.9817C78.7095 93.0134 81.9256 93.8854 82.6158 91.8669C83.3299 90.1384 83.6731 88.2793 83.6231 86.4098C83.3517 83.819 81.8299 82.0477 80.0607 80.263C76.9612 77.1364 73.9657 73.9939 71.9019 70.0585C69.9801 66.4356 68.9031 62.4251 68.7516 58.3273C68.7174 55.3269 69.1672 52.3406 70.0836 49.4831C70.8022 47.1368 72.0254 44.9758 73.6677 43.1516C74.7529 41.7683 76.2477 40.7628 77.9386 40.2787C80.0116 39.7437 79.1324 36.5347 77.0528 37.0697V37.073Z" fill="#211715"/>
<path d="M81.1962 36.0367C82.1005 34.2659 83.4854 32.7853 85.1924 31.7644C87.0354 30.6832 89.007 29.8376 91.0609 29.2476C95.1628 28.0408 99.4921 27.8204 103.695 28.6045C111.629 30.1503 118.799 34.7371 121.947 42.4157C123.362 45.8651 123.636 49.3013 123.832 52.8215C124.056 56.8517 123.089 60.8337 123.604 64.8664C123.753 66.6487 124.354 68.3636 125.352 69.8484C125.928 70.5479 126.588 71.1736 127.318 71.7113C127.719 72.0507 128.29 72.5907 128.004 73.1373C127.736 73.6481 126.884 74.0891 126.465 74.4419C125.64 75.1382 124.978 76.0074 124.525 76.9878C124.18 77.9004 123.94 78.8495 123.81 79.8166C123.556 81.0371 123.239 82.2437 122.86 83.4317C122.162 85.5949 121.128 87.897 118.999 88.9919C117.138 89.9487 114.665 90.0169 112.619 89.9354C111.58 89.9085 110.549 89.7503 109.55 89.4645C108.341 89.1001 107.149 89.0102 106.143 89.9312C105.616 90.5118 105.239 91.2117 105.042 91.9705C104.619 93.0961 104.135 94.1977 103.591 95.2702C102.623 97.1763 105.495 98.8628 106.466 96.95C107.019 95.8617 107.509 94.7444 107.965 93.6112C108.117 93.2293 108.262 92.8457 108.404 92.4605C108.447 92.3673 108.482 92.2708 108.509 92.1718C108.592 91.6368 108.207 92.6352 108.151 92.5046C108.228 92.6877 109.18 92.8158 109.363 92.8574C109.855 92.9689 110.352 93.0438 110.851 93.107C112.051 93.2658 113.263 93.3151 114.472 93.2543C116.618 93.2402 118.736 92.767 120.683 91.8665C122.761 90.6584 124.368 88.781 125.239 86.5417C126.185 84.2732 126.864 81.9024 127.263 79.4771C127.39 78.5325 127.848 77.6633 128.555 77.0236C129.138 76.4928 129.827 76.0884 130.357 75.5002C131.061 74.6862 131.424 73.633 131.372 72.5587C131.32 71.4843 130.857 70.4711 130.078 69.7286C129.485 69.0896 128.671 68.7202 128.128 68.0271C127.639 67.3519 127.299 66.5813 127.129 65.7658C126.118 61.7031 127.33 57.4582 127.186 53.3556C127.174 49.4659 126.538 45.6032 125.302 41.9148C122.278 33.3943 114.562 27.7916 105.995 25.7074C100.951 24.4854 95.6801 24.5524 90.6688 25.9021C88.1055 26.5901 85.6486 27.6259 83.3666 28.9805C81.2298 30.2857 79.4864 32.1447 78.3215 34.3602C77.2617 36.2256 80.1381 37.9046 81.1962 36.04V36.0367Z" fill="#211715"/>
<path d="M123.641 77.3671L120.234 76.9369C119.638 76.7972 119.019 76.7873 118.419 76.9078C117.893 77.0773 117.449 77.4384 117.176 77.9195C116.972 78.3191 116.877 78.7655 116.902 79.2133C116.91 81.3352 117.36 83.432 118.225 85.3701C118.445 85.7458 118.803 86.0203 119.224 86.1347C119.657 86.2503 120.118 86.1905 120.507 85.9683C120.881 85.7472 121.156 85.3892 121.272 84.9699C121.367 84.5362 121.308 84.0829 121.105 83.6878C120.974 83.3916 121.241 84.0347 121.13 83.7494C121.096 83.6662 121.061 83.5755 121.028 83.4881C120.954 83.2918 120.887 83.0937 120.825 82.8941C120.704 82.5105 120.601 82.122 120.515 81.7293C120.467 81.5121 120.424 81.2933 120.386 81.0745C120.368 80.973 120.353 80.8715 120.337 80.77C120.282 80.4463 120.379 81.156 120.337 80.8057C120.291 80.4039 120.253 80.0029 120.24 79.5993C120.254 79.4054 120.252 79.2106 120.234 79.0169C120.234 79.2068 120.166 79.3903 120.044 79.5353C119.993 79.6768 119.905 79.8023 119.79 79.8991C119.675 79.996 119.536 80.0607 119.388 80.0869C119.016 80.1917 119.092 80.1235 119.295 80.146C119.766 80.1984 120.235 80.2649 120.705 80.324L123.643 80.6951C123.862 80.6952 124.078 80.6521 124.28 80.5685C124.482 80.4848 124.666 80.3622 124.821 80.2075C125.133 79.8955 125.308 79.4723 125.308 79.0311C125.308 78.5899 125.133 78.1667 124.821 77.8546C124.494 77.5646 124.079 77.3929 123.643 77.3671H123.641Z" fill="#211715"/>
<path d="M146.934 25.825C144.679 27.6654 142.423 29.5035 140.165 31.3395C139.854 31.6521 139.68 32.075 139.68 32.5159C139.68 32.9568 139.854 33.3798 140.165 33.6924C140.483 33.9934 140.905 34.1612 141.343 34.1612C141.781 34.1612 142.202 33.9934 142.52 33.6924C144.774 31.852 147.031 30.0141 149.289 28.1787C149.6 27.8658 149.774 27.4428 149.774 27.0019C149.774 26.561 149.6 26.1379 149.289 25.825C148.971 25.5241 148.55 25.3564 148.112 25.3564C147.674 25.3564 147.252 25.5241 146.934 25.825Z" fill="#211715"/>
<path d="M152.746 36.8715C149.925 37.5925 147.105 38.3119 144.284 39.0297C143.858 39.1471 143.496 39.4287 143.278 39.8126C143.06 40.1965 143.004 40.6513 143.121 41.0768C143.238 41.5024 143.52 41.8638 143.904 42.0817C144.289 42.2996 144.744 42.3561 145.169 42.2387C147.99 41.5176 150.81 40.7982 153.631 40.0805C154.057 39.9631 154.419 39.6815 154.637 39.2976C154.855 38.9136 154.911 38.4589 154.794 38.0333C154.676 37.6078 154.395 37.2463 154.011 37.0284C153.626 36.8105 153.171 36.7541 152.746 36.8715Z" fill="#211715"/>
<path d="M154.537 48.1101C151.629 47.9661 148.722 47.8139 145.815 47.6699C145.374 47.673 144.953 47.8493 144.641 48.1607C144.329 48.4721 144.153 48.8935 144.15 49.3339C144.159 49.7722 144.338 50.19 144.648 50.5C144.958 50.81 145.376 50.9884 145.815 50.9979C148.722 51.1419 151.629 51.2941 154.537 51.4381C154.977 51.4352 155.399 51.259 155.711 50.9475C156.022 50.6361 156.199 50.2145 156.202 49.7741C156.193 49.3356 156.014 48.9176 155.704 48.6075C155.394 48.2974 154.975 48.1192 154.537 48.1101Z" fill="#211715"/>
<path d="M189.144 140.125H261.991C262.414 140.095 262.839 140.095 263.262 140.125C264.025 140.238 264.475 141.194 264.976 141.76C266.071 143.002 267.168 144.242 268.268 145.478C269.695 147.083 272.043 144.722 270.623 143.126C269.487 141.85 268.353 140.569 267.222 139.284C266.215 138.143 265.331 136.924 263.684 136.811C263.452 136.796 263.222 136.797 262.99 136.797H199.212C195.915 136.797 192.588 136.667 189.293 136.797C189.244 136.797 189.194 136.797 189.144 136.797C187.002 136.797 186.998 140.125 189.144 140.125Z" fill="#211715"/>
<path d="M146.615 140.126H151.715C152.156 140.126 152.58 139.951 152.892 139.638C153.204 139.326 153.38 138.903 153.38 138.462C153.38 138.021 153.204 137.597 152.892 137.285C152.58 136.973 152.156 136.798 151.715 136.798H146.615C146.174 136.798 145.75 136.973 145.438 137.285C145.126 137.597 144.95 138.021 144.95 138.462C144.95 138.903 145.126 139.326 145.438 139.638C145.75 139.951 146.174 140.126 146.615 140.126Z" fill="#211715"/>
<path d="M95.8306 204.161H104.073L120.484 204.156L143.104 204.149L169.975 204.14L199.139 204.13L228.636 204.119L256.51 204.11L280.799 204.101L299.546 204.096H310.792H312.167C314.309 204.096 314.313 200.768 312.167 200.768H303.032L285.922 200.773L262.795 200.78L235.61 200.79L206.327 200.8L176.903 200.81L149.296 200.82L125.466 200.827L107.372 200.833H96.9712H95.8306C93.6877 200.833 93.6844 204.161 95.8306 204.161Z" fill="#211715"/>
<path d="M50.1518 142.143C45.7952 144.327 40.5502 146.377 38.2674 151.036C37.0111 153.602 36.9304 156.61 37.1468 159.417C37.4849 163.813 38.0751 168.195 38.6104 172.569C40.2755 186.17 42.0813 199.754 43.8945 213.337C44.5001 217.87 45.1078 222.402 45.7178 226.934C45.7315 227.371 45.9114 227.786 46.2207 228.096C46.53 228.405 46.9456 228.584 47.3828 228.598C48.1896 228.598 49.1678 227.831 49.0479 226.934C47.6764 216.683 46.3119 206.432 44.9543 196.179C43.4167 184.441 41.7424 172.694 40.6085 160.907C40.3255 158.822 40.3155 156.709 40.5785 154.621C41.4752 149.263 47.586 147.145 51.8327 145.017C53.7476 144.057 52.0642 141.185 50.1518 142.143Z" fill="#211715"/>
<path d="M353.653 144.782C356.084 145.924 358.433 147.234 360.683 148.701C362.474 149.813 363.857 151.475 364.623 153.439C365.144 155.57 365.268 157.779 364.989 159.955C364.68 164.569 364.216 169.175 363.778 173.779C362.485 187.344 361.107 200.9 359.644 214.449C359.164 218.942 358.728 223.442 358.134 227.92C358.136 228.361 358.312 228.783 358.624 229.094C358.936 229.406 359.358 229.582 359.799 229.584C360.237 229.573 360.654 229.394 360.964 229.085C361.274 228.775 361.453 228.358 361.464 227.92C362.864 217.393 363.795 206.787 364.877 196.221C366.099 184.294 367.44 172.355 368.291 160.394C368.475 157.805 368.624 155.048 367.836 152.552C366.082 146.995 360.129 144.315 355.336 141.902C353.427 140.941 351.739 143.811 353.656 144.776L353.653 144.782Z" fill="#211715"/>
<path d="M182.237 148.582C181.272 148.07 180.261 147.652 179.217 147.334C179.005 147.276 178.785 147.26 178.568 147.287C178.351 147.314 178.141 147.384 177.951 147.492C177.761 147.6 177.594 147.745 177.459 147.918C177.325 148.09 177.226 148.288 177.168 148.499C177.11 148.713 177.095 148.937 177.124 149.157C177.152 149.377 177.224 149.589 177.335 149.781C177.563 150.148 177.917 150.419 178.33 150.546C178.836 150.704 179.335 150.883 179.823 151.087L179.425 150.921C179.81 151.083 180.186 151.263 180.554 151.46C180.945 151.677 181.404 151.737 181.837 151.626C182.256 151.509 182.613 151.235 182.836 150.862C182.947 150.673 183.019 150.464 183.049 150.248C183.078 150.031 183.065 149.811 183.01 149.599C182.954 149.388 182.857 149.189 182.725 149.015C182.593 148.841 182.428 148.695 182.239 148.585L182.237 148.582Z" fill="#211715"/>
<path d="M158.901 148.074C156.511 149.063 153.719 150.55 152.995 153.259C152.317 155.798 153.705 158.24 155.77 159.638C156.983 160.402 158.318 160.956 159.717 161.275C160.142 161.393 160.597 161.336 160.982 161.118C161.366 160.9 161.647 160.538 161.765 160.113C161.882 159.687 161.825 159.233 161.607 158.849C161.389 158.465 161.027 158.184 160.602 158.066C159.929 157.898 159.269 157.684 158.627 157.425C158.986 157.573 158.566 157.391 158.521 157.37C158.361 157.294 158.203 157.213 158.048 157.129C157.825 157.007 157.608 156.874 157.399 156.729C157.331 156.683 157.265 156.635 157.2 156.586C157.376 156.724 157.394 156.736 157.254 156.622C157.171 156.539 157.077 156.468 156.993 156.386C156.908 156.303 156.808 156.191 156.715 156.094C156.425 155.795 156.829 156.302 156.661 156.032C156.603 155.936 156.538 155.846 156.482 155.749C156.445 155.685 156.41 155.619 156.376 155.554C156.298 155.387 156.308 155.418 156.405 155.646C156.265 155.521 156.238 155.111 156.192 154.937C156.083 154.521 156.185 155.193 156.178 154.854C156.178 154.73 156.163 154.604 156.163 154.482C156.163 154.407 156.163 154.331 156.172 154.256C156.187 154.108 156.186 154.107 156.172 154.256C156.158 154.405 156.154 154.403 156.182 154.256C156.198 154.183 156.217 154.111 156.24 154.039C156.262 153.968 156.287 153.896 156.313 153.826L156.234 154.014C156.213 153.94 156.416 153.671 156.456 153.606C156.52 153.504 156.589 153.406 156.66 153.309C156.41 153.654 156.698 153.284 156.762 153.215C156.962 153.005 157.174 152.808 157.397 152.624C157.542 152.508 157.543 152.508 157.397 152.624C157.475 152.567 157.555 152.51 157.634 152.458C157.757 152.373 157.882 152.291 158.008 152.212C158.32 152.018 158.64 151.84 158.967 151.674C159.114 151.6 159.261 151.528 159.41 151.458C159.464 151.434 160.013 151.194 159.791 151.286C160.211 151.16 160.566 150.876 160.783 150.496C160.999 150.115 161.062 149.665 160.956 149.24C160.836 148.816 160.554 148.456 160.171 148.238C159.788 148.021 159.334 147.962 158.908 148.075L158.901 148.074Z" fill="#211715"/>
<path d="M156.496 139.053C156.397 143.144 156.401 147.381 158.178 151.157C159.939 154.901 163.694 156.843 167.685 157.166C168.126 157.163 168.547 156.986 168.859 156.675C169.17 156.364 169.347 155.942 169.35 155.502C169.341 155.064 169.163 154.645 168.853 154.335C168.542 154.025 168.124 153.847 167.685 153.838C166.226 153.78 164.813 153.307 163.613 152.475C162.413 151.643 161.475 150.486 160.91 149.14C159.623 145.97 159.744 142.409 159.828 139.053C159.879 136.911 156.549 136.913 156.497 139.053H156.496Z" fill="#211715"/>
<path d="M178.73 152.498C180.004 150.569 180.926 148.43 181.453 146.18C182.027 144.049 182.31 141.85 182.296 139.643C182.296 139.202 182.12 138.779 181.808 138.467C181.496 138.155 181.072 137.979 180.631 137.979C180.189 137.979 179.766 138.155 179.453 138.467C179.141 138.779 178.966 139.202 178.966 139.643C178.994 141.552 178.751 143.455 178.242 145.295C177.786 147.265 176.977 149.136 175.854 150.818C175.635 151.2 175.575 151.653 175.687 152.078C175.798 152.504 176.073 152.869 176.451 153.094C176.835 153.308 177.286 153.366 177.711 153.254C178.136 153.143 178.501 152.872 178.73 152.498Z" fill="#211715"/>
<path d="M170.043 138.019C172.368 138.023 174.687 138.265 176.963 138.743C177.615 138.892 178.25 139.112 178.854 139.399C179.085 139.545 178.938 139.383 178.938 139.449C178.927 139.792 178.964 138.307 178.909 138.819C178.896 138.938 178.899 139.243 178.94 138.77C178.909 138.862 178.858 138.945 178.79 139.015C178.938 138.968 179.028 138.806 178.79 138.983C178.707 139.045 178.631 139.128 178.551 139.196C178.879 138.921 178.443 139.244 178.307 139.321C178.228 139.365 177.628 139.634 177.995 139.487C177.726 139.596 177.45 139.688 177.172 139.77C176.026 140.103 174.845 140.302 173.654 140.363C170.776 140.564 167.886 140.453 165.033 140.03C163.793 139.855 162.569 139.586 161.37 139.226C161.127 139.149 160.887 139.064 160.647 138.976C160.553 138.942 160.276 138.816 160.635 138.976C160.53 138.929 160.421 138.884 160.318 138.828C160.167 138.745 160.018 138.647 159.864 138.572C159.502 138.395 160.066 138.776 159.735 138.455C159.798 138.544 159.852 138.638 159.898 138.737C159.891 138.698 159.904 139.631 159.944 139.175C159.93 139.331 159.875 139.301 160.009 139.197C160.603 138.871 161.242 138.635 161.904 138.494C164.589 138.004 167.324 137.843 170.049 138.014C172.193 138.063 172.193 134.735 170.049 134.686C167.025 134.518 163.993 134.719 161.018 135.285C159.218 135.693 156.856 136.657 156.637 138.779C156.346 141.624 160.472 142.523 162.523 142.946C166.088 143.677 169.735 143.931 173.366 143.702C176.055 143.526 179.966 143.203 181.64 140.726C183.065 138.617 181.383 136.779 179.399 136.001C176.508 134.869 173.115 134.768 170.049 134.683C167.899 134.632 167.901 137.96 170.043 138.019Z" fill="#211715"/>
<path d="M156.373 193.996C157.737 185.633 158.982 177.253 160.314 168.885C160.628 166.912 160.947 164.939 161.273 162.966C161.401 162.195 161.532 161.424 161.666 160.653C161.721 160.341 161.777 160.029 161.832 159.717C161.844 159.653 161.943 159.344 161.909 159.301C161.95 159.36 161.13 159.676 161.561 159.668C162.001 159.571 162.426 159.413 162.822 159.198C163.361 158.993 163.9 158.785 164.436 158.574C165.871 158.014 167.303 157.446 168.731 156.872C176.268 153.861 183.784 150.798 191.366 147.898C194.22 146.807 197.082 145.702 200 144.791C200.105 144.758 200.63 144.674 200.677 144.587C200.737 144.476 199.73 143.647 199.755 143.623C199.713 143.662 199.736 143.79 199.713 143.841C199.673 143.977 199.647 144.116 199.634 144.257C199.52 144.867 199.409 145.479 199.301 146.092C198.999 147.784 198.703 149.478 198.413 151.174C197.057 159.034 195.788 166.912 194.314 174.751C194.24 175.356 194.109 175.952 193.925 176.533L194.353 175.798C194.033 176.035 193.675 176.215 193.294 176.332L191.786 177.029L188.408 178.591C185.604 179.887 182.798 181.178 179.991 182.464C174.114 185.153 168.233 187.839 162.3 190.403C160.468 191.195 158.931 191.888 156.919 192.606C156.685 192.689 156.45 192.763 156.214 192.841C156.135 192.867 156.04 192.875 155.964 192.908C155.639 193.049 156.394 192.879 156.154 192.883C155.814 192.883 156.595 193.012 156.185 192.889C156.024 192.841 155.852 192.816 155.686 192.775C155.165 192.644 154.652 192.483 154.141 192.32C150.798 191.252 147.518 189.967 144.255 188.677C142.39 187.94 140.532 187.185 138.682 186.413C137.905 186.089 137.128 185.759 136.351 185.425C135.967 185.258 135.583 185.092 135.2 184.925C134.802 184.671 134.368 184.478 133.912 184.352L133.802 185.675C133.951 185.602 134.099 185.53 134.247 185.458L134.937 185.125C135.422 184.89 135.908 184.656 136.395 184.422C137.449 183.915 138.504 183.411 139.559 182.911C141.834 181.829 144.115 180.754 146.402 179.685C150.398 177.813 154.394 175.956 158.383 174.079C160.321 173.163 158.633 170.296 156.703 171.205C152.521 173.173 148.328 175.115 144.144 177.082C141.869 178.148 139.598 179.22 137.331 180.297C136.294 180.791 135.256 181.288 134.219 181.787C133.203 182.277 131.805 182.691 131.185 183.696C130.861 184.264 130.768 184.934 130.924 185.569C131.08 186.203 131.474 186.754 132.024 187.107C132.873 187.577 133.758 187.978 134.672 188.306C136.844 189.244 139.029 190.154 141.224 191.037C145.081 192.593 148.96 194.135 152.915 195.427C153.947 195.856 155.039 196.123 156.153 196.218C156.751 196.174 157.337 196.03 157.888 195.792C160.281 194.927 162.616 193.879 164.947 192.864C171.898 189.837 178.791 186.673 185.678 183.505C188.504 182.205 191.329 180.901 194.153 179.595C195.55 178.948 196.906 178.527 197.294 176.842C197.593 175.542 197.793 174.211 198.026 172.899C199.435 165.036 200.729 157.154 202.105 149.286C202.339 147.95 202.573 146.613 202.822 145.281C203.054 144.541 203.096 143.755 202.943 142.995C202.716 142.358 202.247 141.835 201.637 141.54C201.028 141.245 200.326 141.201 199.685 141.418C197.015 142.195 194.391 143.12 191.824 144.188C184.449 146.977 177.143 149.948 169.824 152.881C167.16 153.948 164.505 155.025 161.824 156.043C160.421 156.575 159.016 156.94 158.66 158.633C158.346 160.123 158.138 161.644 157.891 163.145C156.503 171.585 155.231 180.044 153.903 188.494C153.66 190.038 153.414 191.582 153.165 193.126C153.06 193.552 153.123 194.001 153.34 194.382C153.557 194.762 153.911 195.045 154.33 195.173C154.756 195.287 155.21 195.228 155.593 195.01C155.976 194.792 156.258 194.432 156.378 194.008L156.373 193.996Z" fill="#211715"/>
<path d="M80.288 92.3861C80.1914 92.2669 80.2719 92.3714 80.5294 92.6998L77.9144 94.7166C79.1416 96.0686 80.2563 97.5454 81.4261 98.944C84.0413 102.077 86.6746 105.195 89.326 108.298C91.9734 111.389 94.7416 114.379 97.3732 117.481C99.845 120.393 102.058 123.535 104.325 126.609C106.927 130.328 109.72 133.911 112.692 137.342C114.139 138.928 116.489 136.57 115.047 134.989C109.642 129.063 105.432 122.121 100.374 115.909C97.9036 112.874 95.1878 110.025 92.6311 107.058C89.9443 103.936 87.2818 100.793 84.6438 97.6294C83.1844 95.8822 81.794 94.0518 80.2647 92.3653C79.0159 90.9925 76.4908 92.8645 77.6497 94.3813C77.7421 94.5019 77.8337 94.6234 77.9286 94.7415C78.2424 95.0509 78.6654 95.2244 79.1062 95.2244C79.547 95.2244 79.97 95.0509 80.2838 94.7415C80.5868 94.4245 80.7558 94.003 80.7558 93.5647C80.7558 93.1263 80.5868 92.7048 80.2838 92.3878L80.288 92.3861Z" fill="#211715"/>
<path d="M107.236 107.487C108.893 114.666 110.317 121.921 111.637 129.168C111.778 129.945 111.917 130.721 112.043 131.497C112.092 131.799 112.138 132.101 112.181 132.404C112.106 131.888 112.186 132.453 112.201 132.647C112.368 134.768 115.698 134.786 115.532 132.647C115.184 129.629 114.666 126.632 113.98 123.672C113.157 119.451 112.301 115.238 111.412 111.031C111.101 109.553 110.793 108.074 110.453 106.603C109.972 104.517 106.76 105.4 107.242 107.487H107.236Z" fill="#211715"/>
<path d="M104.61 100.195C105.654 103.204 106.378 106.334 107.144 109.422L108.31 107.376C107.746 107.486 107.181 107.587 106.614 107.674C106.109 107.752 106.947 107.641 106.457 107.695C106.339 107.708 106.221 107.722 106.102 107.733C105.876 107.756 105.65 107.774 105.423 107.786C105.197 107.797 104.994 107.803 104.778 107.803C104.673 107.803 104.569 107.803 104.464 107.799C104.375 107.799 104.041 107.731 104.363 107.814C104.439 107.834 104.999 108.068 104.826 107.962C105.29 108.245 105.122 108.212 105.008 108.096C104.924 108.013 104.841 107.93 104.758 107.846C103.989 106.876 103.171 105.945 102.309 105.057C101.995 104.754 101.574 104.586 101.137 104.59C100.701 104.593 100.283 104.768 99.9745 105.077C99.6658 105.386 99.4907 105.803 99.4869 106.239C99.4831 106.675 99.6509 107.096 99.9542 107.41C100.965 108.272 101.633 109.5 102.608 110.405C102.895 110.704 103.253 110.925 103.649 111.049C104.213 111.153 104.788 111.175 105.358 111.115C106.649 111.03 107.931 110.852 109.196 110.582C109.619 110.46 109.978 110.178 110.196 109.796C110.413 109.413 110.473 108.961 110.362 108.535C109.596 105.447 108.871 102.317 107.827 99.3068C107.71 98.8812 107.428 98.5198 107.044 98.3019C106.66 98.084 106.205 98.0275 105.779 98.1449C105.353 98.2623 104.992 98.5439 104.773 98.9278C104.555 99.3117 104.499 99.7665 104.616 100.192L104.61 100.195Z" fill="#211715"/>
<path d="M102.423 110.294C102.756 114.327 102.817 118.378 103.2 122.408C103.212 122.845 103.391 123.262 103.701 123.572C104.011 123.881 104.428 124.06 104.866 124.072C105.306 124.069 105.728 123.892 106.04 123.581C106.351 123.27 106.528 122.848 106.531 122.408C106.147 118.378 106.086 114.327 105.753 110.294C105.742 109.856 105.563 109.439 105.253 109.129C104.943 108.82 104.526 108.641 104.088 108.63C103.647 108.633 103.226 108.81 102.914 109.121C102.603 109.432 102.426 109.854 102.423 110.294Z" fill="#211715"/>
<path d="M71.2236 119.11C77.6166 118.599 85.1269 122.629 86.9968 129.034C87.597 131.085 90.8114 130.212 90.2079 128.149C87.94 120.397 79.0985 115.153 71.2261 115.782C70.7879 115.792 70.3706 115.971 70.0606 116.281C69.7507 116.591 69.5718 117.008 69.561 117.446C69.5643 117.886 69.7408 118.307 70.0523 118.619C70.3639 118.93 70.7855 119.106 71.2261 119.11H71.2236Z" fill="#211715"/>
<path d="M77.4186 95.4459C77.3734 98.7636 77.0132 102.07 76.343 105.319C76.2538 105.673 76.2799 106.046 76.4175 106.384C76.5551 106.722 76.797 107.008 77.1081 107.199C79.7955 108.676 82.363 110.373 85.1162 111.731L84.3511 109.853C83.9565 111.405 83.4853 112.942 83.1972 114.519C83.114 114.873 83.1429 115.244 83.28 115.581C83.4171 115.918 83.6555 116.204 83.9623 116.399C86.9162 118.474 89.7068 120.862 92.5374 123.166C96.1831 126.133 99.8113 129.122 103.497 132.039C103.815 132.339 104.236 132.506 104.674 132.506C105.112 132.506 105.533 132.339 105.851 132.039C106.161 131.726 106.335 131.303 106.335 130.862C106.335 130.422 106.161 129.999 105.851 129.686C102.087 126.706 98.381 123.65 94.6554 120.617C91.6966 118.21 88.7652 115.718 85.6415 113.523L86.4066 115.402C86.6947 113.821 87.1659 112.287 87.5605 110.735C87.6538 110.381 87.6297 110.006 87.4917 109.667C87.3537 109.328 87.1094 109.043 86.7954 108.855C84.0422 107.497 81.4747 105.8 78.7873 104.322L79.5524 106.202C80.2892 102.661 80.6892 99.0592 80.7471 95.4434C80.7529 93.3018 77.4228 93.2985 77.4169 95.4434L77.4186 95.4459Z" fill="#211715"/>
<path d="M106.828 103.339C109.725 109.234 110.796 115.96 111.933 122.372C113.159 129.288 114.43 136.319 114.48 143.357C114.506 146.879 114.372 150.399 114.355 153.924C114.345 156.065 117.675 156.069 117.685 153.924C117.7 150.74 117.814 147.559 117.814 144.375C117.784 140.68 117.509 136.992 116.992 133.333C116.517 129.737 115.965 126.153 115.335 122.58C114.805 119.535 114.372 116.419 113.587 113.428C112.525 109.392 111.556 105.43 109.704 101.661C108.759 99.7387 105.886 101.424 106.828 103.34L106.828 103.339Z" fill="#211715"/>
<path d="M128.208 127.65C130.74 126.09 132.937 124.041 134.669 121.623C135.64 120.131 136.24 118.431 137.286 116.983C138.562 115.215 139.978 114.44 142.141 113.66C144.273 112.892 147.194 111.988 149.294 112.376C151.393 112.763 152.287 109.555 150.179 109.167C148.064 108.876 145.911 109.041 143.866 109.653C141.745 110.151 139.704 110.937 137.797 111.99C134.757 113.749 133.685 116.904 131.94 119.712C130.505 121.754 128.662 123.479 126.529 124.777C124.767 125.974 126.43 128.859 128.208 127.65Z" fill="#211715"/>
<path d="M160.919 114.874C160.277 115.169 160.665 114.978 160.867 114.93C160.937 114.914 161.009 114.9 161.08 114.887C161.468 114.82 160.646 114.93 160.964 114.901C161.358 114.861 161.755 114.857 162.149 114.89C162.524 114.925 161.791 114.826 162.04 114.874C162.139 114.893 162.237 114.91 162.333 114.934C162.43 114.957 162.522 114.984 162.615 115.017C162.969 115.138 162.247 114.81 162.564 114.996C162.641 115.042 162.718 115.091 162.795 115.137C162.955 115.231 162.452 114.82 162.619 115.006C162.645 115.036 162.673 115.063 162.702 115.089C162.869 115.23 162.46 114.692 162.619 114.984C162.652 115.046 162.737 115.234 162.619 114.952C162.49 114.647 162.601 114.92 162.619 114.989C162.651 115.091 162.674 115.192 162.702 115.296C162.763 115.545 162.663 114.815 162.686 115.184C162.692 115.281 162.686 115.375 162.686 115.472C162.686 115.617 162.602 115.785 162.722 115.248C162.709 115.309 162.701 115.37 162.686 115.431C162.668 115.514 162.641 115.59 162.618 115.669C162.517 116.021 162.806 115.305 162.656 115.586C162.562 115.764 162.458 115.936 162.345 116.102C162.217 116.289 162.491 115.917 162.487 115.919C162.456 115.949 162.428 115.983 162.403 116.019C162.332 116.103 162.257 116.186 162.179 116.264C162.037 116.409 161.888 116.546 161.732 116.675C161.688 116.712 161.643 116.747 161.6 116.783C161.447 116.913 161.97 116.507 161.746 116.669C161.673 116.722 161.599 116.777 161.524 116.83C161.349 116.952 161.168 117.069 160.984 117.181C160.321 117.573 159.632 117.92 158.923 118.221C158.547 118.441 158.273 118.799 158.158 119.219C158.043 119.652 158.102 120.113 158.325 120.501C158.546 120.876 158.904 121.151 159.324 121.267C159.758 121.36 160.211 121.301 160.607 121.1C162.437 120.425 164.047 119.261 165.261 117.734C165.62 117.217 165.86 116.626 165.961 116.005C166.061 115.383 166.021 114.747 165.843 114.143C165.643 113.497 165.263 112.921 164.747 112.483C164.231 112.045 163.6 111.764 162.93 111.671C161.695 111.413 160.411 111.529 159.242 112.004C158.867 112.225 158.592 112.583 158.476 113.003C158.388 113.322 158.397 113.66 158.503 113.974C158.608 114.287 158.804 114.563 159.067 114.764C159.329 114.966 159.646 115.085 159.977 115.106C160.307 115.127 160.636 115.048 160.922 114.881L160.919 114.874Z" fill="#211715"/>
<path d="M156.19 115.601C156.213 115.351 156.241 115.102 156.273 114.852C156.216 115.309 156.273 114.852 156.289 114.782C156.317 114.623 156.345 114.463 156.378 114.305C156.441 113.999 156.52 113.698 156.616 113.401C156.654 113.288 156.771 112.995 156.652 113.266C156.726 113.099 156.827 112.944 156.906 112.778C157.049 112.479 156.725 112.955 156.957 112.695C157.011 112.633 157.245 112.311 156.994 112.624C157.062 112.578 157.134 112.537 157.207 112.5C157.019 112.575 156.984 112.594 157.102 112.558C157.223 112.528 157.186 112.528 156.981 112.558C157.074 112.551 157.168 112.551 157.261 112.558C156.957 112.532 157.36 112.693 157.158 112.553C157.153 112.553 157.569 112.842 157.395 112.698C157.698 112.944 157.936 113.26 158.089 113.618C158.366 114.43 158.44 115.297 158.306 116.144C158.227 117.185 158.073 118.22 157.847 119.24C157.728 119.813 157.597 120.384 157.468 120.955C157.414 121.192 157.366 121.433 157.301 121.67C157.301 121.676 157.135 122.156 157.234 121.934C157.193 122.027 156.918 122.433 156.984 122.355C156.952 122.392 156.614 122.688 156.77 122.577C156.741 122.599 156.345 122.779 156.52 122.722C156.318 122.77 156.286 122.78 156.425 122.752C156.298 122.756 156.172 122.748 156.047 122.729C155.606 122.732 155.184 122.908 154.873 123.22C154.561 123.531 154.385 123.952 154.382 124.393C154.391 124.831 154.57 125.249 154.88 125.559C155.19 125.869 155.608 126.047 156.047 126.057C158.237 126.289 160.066 124.441 160.542 122.436C161.188 120.093 161.565 117.683 161.666 115.255C161.677 113.098 160.856 110.762 158.836 109.681C158.018 109.245 157.063 109.144 156.173 109.399C155.282 109.654 154.525 110.245 154.063 111.047C153.309 112.45 152.896 114.011 152.859 115.604C152.862 116.044 153.038 116.465 153.35 116.777C153.662 117.088 154.083 117.264 154.524 117.268C154.963 117.258 155.381 117.08 155.691 116.77C156.001 116.46 156.18 116.042 156.189 115.604L156.19 115.601Z" fill="#211715"/>
<path d="M153.075 128.023C153.539 128.121 154.02 128.099 154.473 127.958C154.926 127.817 155.336 127.562 155.662 127.218C156.306 126.411 156.663 125.412 156.678 124.38C157.12 122.073 157.153 119.705 156.774 117.386C156.395 115.663 154.888 113.725 152.97 113.842C152.018 113.885 151.105 114.237 150.371 114.846C149.637 115.455 149.122 116.287 148.905 117.215C148.788 117.64 148.844 118.095 149.062 118.479C149.28 118.863 149.642 119.145 150.068 119.262C150.494 119.379 150.949 119.323 151.333 119.105C151.717 118.887 151.999 118.526 152.116 118.1C152.116 118.1 152.287 117.574 152.169 117.861C152.232 117.727 152.302 117.597 152.38 117.47L152.459 117.355C152.348 117.496 152.332 117.524 152.412 117.438C152.407 117.34 152.662 117.237 152.406 117.41C152.503 117.344 152.623 117.292 152.717 117.223C152.467 117.409 152.587 117.271 152.764 117.223C152.859 117.197 152.96 117.186 153.055 117.158C153.242 117.103 152.722 117.163 153.031 117.17C153.233 117.17 153.419 117.246 153.02 117.134C152.806 117.032 152.756 117.013 152.87 117.077C152.969 117.138 152.94 117.11 152.786 116.994C152.87 117.069 152.953 117.148 153.032 117.229C153.111 117.31 153.227 117.479 153.096 117.292C153.184 117.417 153.263 117.546 153.341 117.679C153.361 117.715 153.559 118.152 153.43 117.82C153.515 118.049 153.577 118.286 153.613 118.528C153.764 120.018 153.736 121.522 153.53 123.006C153.462 123.641 153.287 124.28 153.231 124.972C153.214 125.18 153.333 124.748 153.202 125.014C153.331 124.859 153.355 124.824 153.272 124.909C153.18 124.996 153.222 124.967 153.397 124.821C153.087 124.981 153.753 124.744 153.445 124.809L153.726 124.776C153.548 124.776 153.627 124.79 153.965 124.819C153.54 124.701 153.085 124.758 152.7 124.976C152.316 125.194 152.035 125.555 151.917 125.981C151.8 126.406 151.857 126.861 152.075 127.245C152.293 127.629 152.655 127.91 153.08 128.028L153.075 128.023Z" fill="#211715"/>
<path d="M138.086 128.098C138.378 127.931 138.669 127.765 138.973 127.613C139.083 127.558 139.192 127.504 139.302 127.452C139.386 127.411 139.868 127.158 139.45 127.377C139.953 127.142 140.485 126.974 141.032 126.878C141.159 126.851 141.287 126.83 141.415 126.806C141.599 126.78 141.562 126.785 141.304 126.821C141.378 126.814 141.452 126.806 141.526 126.8C141.788 126.78 142.051 126.774 142.314 126.783C142.468 126.788 142.62 126.803 142.773 126.813C143.116 126.836 142.426 126.744 142.796 126.813C143.12 126.875 143.439 126.942 143.757 127.033C144.183 127.15 144.638 127.093 145.022 126.875C145.406 126.657 145.688 126.296 145.805 125.87C145.923 125.445 145.866 124.99 145.648 124.606C145.43 124.222 145.068 123.941 144.642 123.824C143.215 123.415 141.711 123.354 140.256 123.644C138.896 123.957 137.597 124.491 136.41 125.225C136.221 125.335 136.056 125.481 135.924 125.655C135.792 125.829 135.695 126.028 135.64 126.239C135.527 126.666 135.59 127.12 135.812 127.501C136.035 127.882 136.4 128.159 136.827 128.271C137.255 128.383 137.709 128.321 138.09 128.098L138.086 128.098Z" fill="#211715"/>
<path d="M148.169 126.656C148.409 125.99 148.635 125.324 148.877 124.665C149.001 124.328 149.127 123.991 149.265 123.658C149.302 123.567 149.339 123.477 149.377 123.387C149.286 123.592 149.275 123.628 149.345 123.494C149.438 123.353 149.403 123.394 149.238 123.617C149.278 123.57 149.322 123.526 149.364 123.483C149.407 123.441 149.457 123.4 149.506 123.357C149.293 123.516 149.256 123.546 149.403 123.446C149.517 123.382 149.631 123.315 149.746 123.251C149.908 123.176 149.865 123.194 149.619 123.301C149.679 123.278 149.74 123.257 149.8 123.238C149.914 123.203 150.05 123.194 150.157 123.15C149.855 123.184 149.792 123.195 149.964 123.18C150.016 123.18 150.068 123.18 150.12 123.18C149.799 123.125 149.72 123.115 149.885 123.149C149.957 123.167 150.028 123.186 150.098 123.207C150.169 123.228 150.235 123.248 150.303 123.273C150.47 123.336 150.436 123.318 150.196 123.22C150.247 123.291 150.471 123.357 150.551 123.407C150.606 123.441 150.66 123.476 150.713 123.515C150.506 123.348 150.463 123.323 150.597 123.437C150.644 123.481 150.688 123.526 150.73 123.573C150.841 123.706 150.814 123.669 150.647 123.462C150.683 123.516 150.716 123.571 150.747 123.629C150.824 123.786 150.809 123.745 150.703 123.505C150.725 123.635 150.76 123.763 150.809 123.887C150.836 124.056 150.829 124.001 150.788 123.72C150.795 123.788 150.801 123.858 150.806 123.927C150.817 124.076 150.823 124.224 150.825 124.373C150.831 124.662 150.825 124.956 150.806 125.241C150.783 125.56 150.735 125.877 150.698 126.194C150.677 126.368 150.655 126.542 150.635 126.716C150.61 126.907 150.613 126.885 150.645 126.651C150.633 126.735 150.621 126.818 150.609 126.901C150.514 127.551 150.354 128.19 150.132 128.809C150.016 129.235 150.074 129.689 150.293 130.072C150.511 130.456 150.872 130.738 151.297 130.856C151.723 130.962 152.173 130.9 152.554 130.683C152.935 130.466 153.219 130.111 153.345 129.692C153.746 128.399 153.995 127.065 154.088 125.715C154.304 124.476 154.16 123.2 153.672 122.04C153.32 121.417 152.818 120.891 152.212 120.511C151.606 120.13 150.914 119.907 150.199 119.861C149.572 119.848 148.949 119.969 148.373 120.218C147.797 120.467 147.282 120.836 146.862 121.302C146.347 122.017 145.959 122.816 145.718 123.664C145.458 124.364 145.218 125.073 144.968 125.775C144.853 126.201 144.912 126.655 145.13 127.038C145.348 127.422 145.709 127.703 146.134 127.822C146.56 127.928 147.01 127.866 147.391 127.649C147.772 127.432 148.055 127.077 148.182 126.657L148.169 126.656Z" fill="#211715"/>
<path d="M150.129 128.802C150.253 128.47 150.1 128.848 150.05 128.921C149.84 129.225 150.196 128.797 149.95 129.042C149.904 129.087 149.605 129.354 149.821 129.185C149.666 129.301 149.503 129.405 149.332 129.496C148.713 129.824 148.05 130.06 147.363 130.196C145.455 130.553 143.528 130.803 141.592 130.945C139.906 131.082 138.327 131.826 137.146 133.037C136.353 134.041 135.715 135.159 135.256 136.354C135.046 136.738 134.99 137.188 135.102 137.611C135.213 138.035 135.482 138.399 135.854 138.631C136.236 138.85 136.689 138.91 137.115 138.798C137.541 138.686 137.906 138.412 138.131 138.034C138.388 137.479 138.617 136.91 138.896 136.37C139.027 136.115 139.17 135.87 139.324 135.631C139.349 135.592 139.631 135.238 139.407 135.505C139.501 135.392 139.6 135.283 139.704 135.18C139.81 135.072 139.923 134.971 140.042 134.878C139.792 135.067 140.176 134.807 140.229 134.775C140.49 134.604 140.78 134.483 141.085 134.418C142.008 134.216 142.947 134.099 143.891 134.067C147.211 133.748 151.974 133.327 153.34 129.688C153.454 129.262 153.395 128.809 153.177 128.426C152.959 128.043 152.599 127.761 152.175 127.641C151.749 127.533 151.298 127.594 150.916 127.811C150.534 128.028 150.251 128.385 150.127 128.806L150.129 128.802Z" fill="#211715"/>
<path d="M145.846 120.287C146.411 120.009 146.984 119.75 147.564 119.504L147.166 119.67C148.198 119.178 149.289 118.822 150.413 118.612L149.971 118.671C150.071 118.659 150.172 118.652 150.273 118.651C150.715 118.651 151.138 118.476 151.45 118.164C151.763 117.852 151.938 117.429 151.938 116.987C151.938 116.546 151.763 116.123 151.45 115.811C151.138 115.499 150.715 115.323 150.273 115.323C149.265 115.387 148.276 115.627 147.351 116.033C146.268 116.441 145.203 116.902 144.166 117.412C143.786 117.636 143.511 118.001 143.399 118.427C143.287 118.853 143.348 119.306 143.569 119.688C143.799 120.061 144.164 120.331 144.588 120.442C145.012 120.553 145.463 120.497 145.846 120.285L145.846 120.287Z" fill="#211715"/>
<path d="M126.958 153.204C127.154 152.018 127.504 150.863 127.998 149.768C128.446 148.969 129.156 148.349 130.007 148.012C132.447 146.658 134.434 144.492 136.541 142.687C137.057 142.245 137.577 141.813 138.076 141.35C138.346 141.019 138.707 140.773 139.114 140.644C139.418 140.599 139.728 140.669 139.983 140.84C140.238 141.011 140.42 141.27 140.494 141.568C140.602 142.446 139.479 143.169 138.978 143.746C138.223 144.803 137.379 145.794 136.458 146.709C136.148 147.023 135.975 147.445 135.975 147.886C135.975 148.326 136.148 148.749 136.458 149.062C136.775 149.365 137.196 149.534 137.635 149.534C138.074 149.534 138.495 149.365 138.812 149.062C139.687 148.222 140.476 147.296 141.166 146.298C142.022 145.469 142.772 144.537 143.4 143.524C143.667 142.932 143.799 142.288 143.786 141.639C143.773 140.989 143.615 140.351 143.324 139.77C143.033 139.189 142.616 138.68 142.104 138.281C141.592 137.881 140.997 137.6 140.362 137.459C137.518 136.816 135.663 139.046 133.721 140.735C132.639 141.676 131.582 142.648 130.49 143.573C129.586 144.316 128.617 144.976 127.594 145.544C125.152 146.978 124.257 149.664 123.747 152.317C123.642 152.742 123.704 153.192 123.921 153.573C124.138 153.954 124.493 154.237 124.913 154.364C125.339 154.477 125.792 154.418 126.176 154.2C126.559 153.982 126.841 153.623 126.961 153.199L126.958 153.204Z" fill="#211715"/>
<path d="M137.975 149.721C139.739 149.328 141.472 148.801 143.234 148.408C143.969 148.241 144.694 148.039 145.431 147.889C145.632 147.849 145.833 147.806 146.036 147.78C146.156 147.762 146.151 147.763 146.021 147.784C146.132 147.773 146.244 147.764 146.354 147.758C146.542 147.749 146.727 147.751 146.915 147.758C147.041 147.768 147.018 147.763 146.847 147.742C146.942 147.759 147.035 147.78 147.127 147.807C147.302 147.867 147.302 147.867 147.127 147.807L147.261 147.883C147.423 147.991 147.428 147.992 147.288 147.883C147.361 147.946 147.431 148.013 147.497 148.085C147.734 148.314 147.456 147.93 147.576 148.209C147.624 148.29 147.667 148.373 147.707 148.458C147.63 148.28 147.623 148.28 147.687 148.458C147.697 148.518 147.77 148.968 147.736 148.575C147.752 148.766 147.736 148.954 147.743 149.145C147.73 148.812 147.743 149.145 147.712 149.263C147.688 149.354 147.661 149.445 147.628 149.534C147.717 149.34 147.709 149.352 147.605 149.569C147.518 149.726 147.433 149.879 147.332 150.028C147.476 149.818 147.116 150.246 147.072 150.294C146.853 150.531 147.239 150.226 146.948 150.393C146.782 150.486 146.626 150.579 146.458 150.664C146.712 150.535 146.48 150.654 146.346 150.701C146.197 150.752 146.046 150.796 145.894 150.839C145.578 150.927 145.257 150.998 144.938 151.076C144.513 151.193 144.151 151.475 143.933 151.859C143.715 152.243 143.658 152.697 143.776 153.123C143.893 153.549 144.175 153.91 144.559 154.128C144.943 154.346 145.398 154.402 145.824 154.285C147.229 154.067 148.539 153.44 149.591 152.484C150.196 151.864 150.636 151.103 150.87 150.269C151.105 149.435 151.126 148.556 150.933 147.711C150.731 146.876 150.283 146.121 149.646 145.545C149.009 144.968 148.213 144.596 147.362 144.476C145.755 144.263 144.164 144.773 142.616 145.133C140.767 145.562 138.941 146.092 137.088 146.506C136.662 146.623 136.3 146.905 136.082 147.288C135.863 147.672 135.807 148.127 135.924 148.553C136.041 148.978 136.323 149.34 136.707 149.558C137.092 149.776 137.547 149.833 137.973 149.716L137.975 149.721Z" fill="#211715"/>
<path d="M146.82 153.938C146.084 153.855 146.611 153.807 146.691 154.021C146.774 154.249 147.014 154.451 147.024 154.713C147.053 155.267 146.378 155.711 146.015 156.068C145.713 156.386 145.545 156.807 145.545 157.244C145.545 157.682 145.713 158.103 146.015 158.421C146.134 158.989 146.16 159.573 146.092 160.15C146.017 160.962 145.896 161.77 145.73 162.569C145.616 163.406 145.261 164.193 144.709 164.832C144.157 165.472 143.43 165.937 142.618 166.172C140.703 166.825 138.695 167.165 136.671 167.178C134.318 167.275 131.961 167.22 129.615 167.011C129.174 167.014 128.752 167.191 128.441 167.502C128.129 167.813 127.953 168.235 127.95 168.675C127.959 169.114 128.137 169.532 128.448 169.842C128.758 170.152 129.176 170.33 129.615 170.339C132.259 170.568 134.916 170.611 137.566 170.469C140.269 170.346 143.311 169.881 145.648 168.418C147.729 167.114 148.651 165.1 149.067 162.769C149.47 160.509 149.89 158.003 148.369 156.069V158.422C149.701 157.121 150.735 155.658 150.193 153.717C150.007 152.92 149.586 152.199 148.983 151.645C148.381 151.092 147.626 150.732 146.817 150.614C146.376 150.617 145.954 150.793 145.642 151.104C145.33 151.416 145.154 151.838 145.152 152.278C145.162 152.716 145.34 153.134 145.65 153.444C145.961 153.754 146.378 153.932 146.817 153.942L146.82 153.938Z" fill="#211715"/>
<path d="M77.6731 92.7231C77.0022 94.0631 76.2078 95.3377 75.3003 96.5304C74.5178 97.6336 73.9616 98.8492 73.219 99.9549C71.6031 102.368 69.8381 104.632 68.0415 106.911C66.1541 109.185 64.4648 111.617 62.9922 114.179C61.5999 116.764 60.6569 119.567 60.2032 122.467C59.348 128.433 59.1153 134.472 59.5088 140.486C59.7528 145.803 59.9826 151.122 60.3689 156.432C60.6945 161.976 61.3582 167.495 62.3561 172.959C63.311 177.795 64.912 182.678 68.2996 186.384C74.4953 193.163 84.2909 192.386 92.3598 190.112C104.191 186.777 115.455 181.218 126.077 175.127C127.544 174.287 129.004 173.435 130.457 172.572C130.83 172.341 131.1 171.976 131.211 171.553C131.322 171.129 131.266 170.679 131.055 170.295C128.159 164.079 125.639 157.648 122.453 151.575C122.267 151.259 121.983 151.013 121.643 150.875C121.303 150.737 120.927 150.714 120.574 150.81C111.832 154.087 103.188 157.638 94.4603 160.961C92.5454 161.688 90.6398 162.423 88.705 163.085C86.6886 163.774 87.5544 166.99 89.5899 166.294C98.6962 163.179 107.605 159.418 116.564 155.914C118.192 155.277 119.818 154.632 121.456 154.019L119.575 153.255C122.761 159.328 125.281 165.76 128.177 171.975L128.774 169.698C118.044 176.049 107.017 181.696 95.1946 185.734C88.2079 188.121 78.8511 190.629 72.3698 185.639C68.8374 182.92 67.0866 178.567 66.0659 174.369C64.9662 169.412 64.2492 164.377 63.9213 159.31C63.4784 154.064 63.2169 148.805 62.9763 143.547C62.7266 138.076 62.3678 132.593 62.9147 127.128C63.1221 124.258 63.6813 121.424 64.5798 118.691C65.5929 116.118 66.9713 113.704 68.6725 111.524C70.3468 109.242 72.1792 107.081 73.8792 104.819C75.5068 102.656 76.7098 100.279 78.27 98.0796C79.1421 96.9289 79.9044 95.6991 80.547 94.4063C80.7574 94.0225 80.8128 93.5727 80.7018 93.1494C80.5908 92.726 80.3218 92.3612 79.95 92.1299C79.568 91.9107 79.115 91.8504 78.6889 91.962C78.2627 92.0736 77.8976 92.3482 77.6722 92.7265L77.6731 92.7231Z" fill="#211715"/>
<path d="M88.9206 138.464C88.9747 142.511 88.8266 146.557 88.6917 150.602C88.546 154.963 88.6917 159.305 88.75 163.664C88.7766 165.804 92.1067 165.81 92.0801 163.664C92.0252 159.303 91.8761 154.96 92.0218 150.602C92.1567 146.557 92.3049 142.511 92.2508 138.464C92.2233 136.324 88.8932 136.318 88.9206 138.464Z" fill="#211715"/>
<path d="M98.4944 221.49C93.4915 221.532 88.4921 221.212 83.5355 220.532C78.4436 219.748 73.4029 218.662 68.44 217.28C67.0763 216.912 65.7181 216.524 64.3656 216.115C63.7112 215.917 63.0582 215.713 62.4066 215.504C61.9903 215.369 61.6473 215.369 61.5741 214.922C61.6085 214.327 61.7355 213.741 61.9504 213.185C62.1452 212.297 62.335 211.41 62.5198 210.522C63.4181 206.23 64.2681 201.927 65.129 197.626C66.0764 192.908 67.008 188.185 68.0803 183.493C68.5565 181.408 65.3463 180.518 64.8692 182.608C62.8287 191.537 61.2061 200.558 59.3321 209.523C58.8632 211.208 58.5048 212.922 58.2589 214.653C58.0092 218.086 61.604 218.769 64.1524 219.524C69.629 221.166 75.1996 222.477 80.8339 223.45C86.6719 224.401 92.5796 224.858 98.4944 224.818C100.637 224.818 100.641 221.49 98.4944 221.49Z" fill="#211715"/>
<path d="M296.3 176.795C302.65 183.839 309.027 190.859 315.432 197.854C316.61 199.132 317.792 200.408 318.977 201.681C319.209 201.929 319.442 202.179 319.675 202.43C319.74 202.5 320.096 202.964 319.978 202.665C320.083 203.382 320.083 204.111 319.978 204.828C319.978 206.554 319.978 208.28 319.978 210.006C319.978 210.838 320.038 210.721 319.308 210.721H89.1786C88.7804 210.785 88.3746 210.785 87.9764 210.721C87.6526 210.567 87.7924 210.496 87.7949 209.949C87.8008 208.973 87.8016 207.996 87.8024 207.02C87.8024 206.065 87.8024 205.11 87.8024 204.156C87.8262 203.789 87.8262 203.421 87.8024 203.054C87.7924 202.981 87.7824 202.705 87.7849 202.69C87.755 202.866 87.6809 202.917 87.8366 202.696C88.6125 201.742 89.4466 200.837 90.3342 199.986C91.4864 198.73 92.6369 197.474 93.7858 196.216C95.9263 193.874 98.0634 191.529 100.221 189.204C101.677 187.635 99.328 185.276 97.8669 186.851C95.5999 189.292 93.3571 191.759 91.1092 194.215C89.9182 195.517 88.7249 196.819 87.5294 198.12C86.7301 198.989 85.8185 199.826 85.1058 200.767C84.0685 202.137 84.4665 204.344 84.4673 205.961C84.4673 206.904 84.4673 207.847 84.4673 208.79C84.3522 209.845 84.4315 210.912 84.7012 211.939C85.5221 214.053 87.5643 214.053 89.4467 214.053H317.894C319.066 214.053 320.484 214.23 321.535 213.659C323.398 212.648 323.304 210.731 323.304 208.896C323.304 207.135 323.304 205.374 323.304 203.613C323.363 202.917 323.289 202.216 323.088 201.547C322.696 200.778 322.158 200.091 321.506 199.524C320.297 198.23 319.093 196.932 317.895 195.63C314.888 192.365 311.894 189.088 308.914 185.799C305.485 182.023 302.064 178.24 298.65 174.45C297.213 172.855 294.863 175.214 296.295 176.802L296.3 176.795Z" fill="#211715"/>
<path d="M260.444 157.542C257.613 158.449 254.2 159.891 253.04 162.878C252.09 165.332 253.336 167.969 255.336 169.451C257.606 171.13 260.586 171.638 263.322 171.961C266.868 172.389 270.454 172.386 273.999 171.951C274.437 171.937 274.853 171.758 275.162 171.449C275.471 171.139 275.651 170.724 275.664 170.287C275.662 169.846 275.486 169.425 275.174 169.113C274.862 168.802 274.44 168.625 273.999 168.623C271.068 168.974 268.109 169.035 265.165 168.804C262.815 168.757 260.495 168.271 258.323 167.373C256.979 166.722 255.776 165.633 256.087 164.255C256.534 162.287 259.667 161.285 261.332 160.751C263.365 160.1 262.498 156.885 260.447 157.542H260.444Z" fill="#211715"/>
<path d="M272.75 163.199C268.962 163.615 264.848 162.778 262.804 159.252C260.749 155.706 260.988 151.166 261.078 147.225C261.127 145.082 257.796 145.083 257.748 147.225C257.641 151.9 257.528 157.232 260.17 161.326C262.897 165.549 267.932 167.061 272.75 166.527C273.188 166.515 273.604 166.335 273.914 166.026C274.223 165.716 274.403 165.3 274.415 164.863C274.412 164.423 274.236 164.001 273.924 163.69C273.613 163.378 273.191 163.202 272.75 163.199Z" fill="#211715"/>
<path d="M281.917 147.855C281.925 148.325 281.922 148.794 281.892 149.261C281.903 149.699 282.082 150.116 282.392 150.426C282.702 150.735 283.119 150.914 283.557 150.925L283.999 150.866C284.277 150.79 284.53 150.643 284.734 150.439L284.994 150.102C285.144 149.847 285.222 149.557 285.222 149.261C285.253 148.794 285.255 148.325 285.247 147.855C285.234 147.418 285.055 147.002 284.745 146.692C284.436 146.383 284.019 146.204 283.582 146.191L283.139 146.251C282.861 146.328 282.607 146.475 282.404 146.679L282.144 147.016C281.994 147.27 281.916 147.56 281.917 147.855Z" fill="#211715"/>
<path d="M277.671 148.588C274.602 148.945 271.501 148.951 268.43 148.604C267.053 148.467 265.685 148.245 264.336 147.938C263.355 147.746 262.402 147.434 261.497 147.01C261.33 146.919 261.173 146.812 261.011 146.711C261.284 146.882 260.988 146.559 261.056 146.746C261.105 146.889 261.136 147.037 261.148 147.187C261.251 147.769 261.081 147.313 261.172 147.396C261.184 147.406 261.278 147.325 261.165 147.426C262.043 146.839 263.051 146.474 264.101 146.361C267.792 145.818 271.537 145.744 275.247 146.138C276.996 146.233 278.729 146.512 280.419 146.97C280.926 147.11 281.411 147.319 281.859 147.593C281.913 147.634 281.866 147.719 281.839 147.535L281.85 147.265C281.892 146.966 281.882 146.911 281.819 147.099C281.604 147.246 281.4 147.408 281.207 147.583C279.385 148.703 281.056 151.582 282.888 150.457C284.566 149.427 285.924 147.425 284.512 145.604C283.499 144.297 281.667 143.797 280.12 143.468C275.526 142.577 270.829 142.347 266.171 142.785C264.15 142.853 262.158 143.282 260.29 144.053C258.939 144.69 257.56 146.077 257.918 147.708C258.476 150.254 262.33 150.953 264.431 151.362C268.786 152.245 273.254 152.435 277.668 151.923C278.105 151.91 278.521 151.73 278.831 151.421C279.14 151.112 279.32 150.696 279.333 150.259C279.33 149.819 279.154 149.397 278.842 149.086C278.531 148.774 278.109 148.598 277.668 148.595L277.671 148.588Z" fill="#211715"/>
<path d="M312.316 193.157C321.22 193.152 330.126 192.962 339.03 192.869C340.724 192.851 342.418 192.829 344.108 192.828C346.25 192.828 346.254 189.5 344.108 189.5C335.224 189.5 326.339 189.696 317.455 189.788C315.741 189.806 314.026 189.828 312.312 189.829C310.169 189.829 310.166 193.157 312.312 193.157H312.316Z" fill="#211715"/>
<path d="M336.067 113.403C338.596 117.59 341.385 121.666 342.859 126.376C343.497 128.413 346.713 127.54 346.07 125.491C344.505 120.491 341.627 116.167 338.943 111.723C337.837 109.893 334.956 111.563 336.067 113.403Z" fill="#211715"/>
<path d="M305.153 120.438C306.844 121.369 308.955 121.363 310.83 121.237C313.339 121.051 315.825 120.63 318.255 119.977C320.319 119.503 322.316 118.772 324.199 117.802C326.551 116.419 328.793 114.858 330.906 113.132C331.216 112.818 331.39 112.396 331.39 111.955C331.39 111.514 331.216 111.091 330.906 110.778C330.589 110.476 330.167 110.308 329.729 110.308C329.29 110.308 328.869 110.476 328.551 110.778C326.663 112.297 324.664 113.673 322.573 114.896C321.008 115.701 319.349 116.306 317.634 116.699C315.574 117.272 313.467 117.664 311.338 117.87C310.397 117.961 309.451 117.982 308.507 117.932C308.173 117.925 307.841 117.88 307.517 117.798C307.275 117.774 307.042 117.694 306.836 117.565C304.957 116.532 303.275 119.405 305.155 120.438H305.153Z" fill="#211715"/>
<path d="M328.418 126.512C329.008 125.116 330.022 123.941 331.317 123.151C332.611 122.362 334.121 121.998 335.633 122.112C339.124 122.315 341.349 125.274 342.793 128.139C343.76 130.053 346.634 128.369 345.669 126.459C343.644 122.456 340.35 119.054 335.63 118.784C333.535 118.663 331.452 119.176 329.652 120.254C327.852 121.333 326.419 122.928 325.539 124.833C325.328 125.216 325.272 125.666 325.383 126.09C325.494 126.514 325.764 126.878 326.137 127.109C326.519 127.328 326.972 127.388 327.398 127.276C327.824 127.165 328.189 126.89 328.414 126.512H328.418Z" fill="#211715"/>
<path d="M342.976 127.662C345.246 136.27 343.191 145.243 341.66 153.792C341.068 157.098 340.661 160.424 340.132 163.738C339.792 166.524 339.061 169.247 337.96 171.829C336.643 174.601 334.624 176.625 331.56 177.283C329.465 177.733 330.352 180.944 332.445 180.492C339.1 179.063 341.827 172.612 343.001 166.566C343.636 163.298 343.961 159.977 344.518 156.696C345.314 152.003 346.282 147.341 346.854 142.613C347.637 137.339 347.411 131.966 346.188 126.777C345.643 124.708 342.429 125.586 342.977 127.662H342.976Z" fill="#211715"/>
<path d="M323.119 130.343C320.803 140.256 320.01 150.463 320.768 160.615C320.918 162.739 324.249 162.756 324.098 160.615C323.343 150.762 324.096 140.852 326.331 131.227C326.823 129.147 323.613 128.256 323.119 130.343Z" fill="#211715"/>
<path d="M342.503 191.359C343.544 197.562 344.198 203.824 344.462 210.108C344.655 213.13 344.57 216.165 344.208 219.172C344.039 220.645 343.549 222.062 342.773 223.325C341.997 224.588 340.954 225.666 339.717 226.483C337.944 227.666 339.609 230.55 341.398 229.357C343.823 227.818 345.686 225.54 346.713 222.859C347.451 220.546 347.82 218.131 347.808 215.704C347.938 209.967 347.614 204.229 346.839 198.543C346.521 195.846 346.153 193.154 345.714 190.472C345.594 190.048 345.312 189.689 344.929 189.471C344.545 189.253 344.092 189.194 343.666 189.308C343.245 189.433 342.889 189.716 342.672 190.098C342.455 190.479 342.393 190.929 342.5 191.355L342.503 191.359Z" fill="#211715"/>
<path d="M339.615 167.233C339.91 171.461 341.094 175.626 341.935 179.768C342.374 181.931 342.791 184.099 343.111 186.281C343.403 187.869 343.502 189.486 343.406 191.098C343.409 191.539 343.585 191.96 343.897 192.271C344.209 192.583 344.63 192.759 345.071 192.762C345.51 192.753 345.928 192.574 346.238 192.264C346.548 191.954 346.727 191.537 346.736 191.098C346.824 189.39 346.712 187.677 346.403 185.994C346.098 183.789 345.688 181.599 345.25 179.417C344.445 175.399 343.228 171.332 342.941 167.233C342.793 165.109 339.462 165.092 339.611 167.233H339.615Z" fill="#211715"/>
<path d="M304.475 117.132C301.085 121.131 298.753 125.986 296.776 130.804C294.626 136.041 292.756 141.627 293.326 147.361C293.816 151.236 294.752 155.042 296.116 158.703C296.804 160.719 300.022 159.854 299.327 157.819C297.981 153.877 296.663 149.811 296.542 145.611C296.574 142.356 297.185 139.131 298.344 136.088C299.376 133.009 300.625 130.006 302.082 127.103C303.357 124.385 304.95 121.827 306.827 119.483C308.204 117.858 305.86 115.49 304.472 117.13L304.475 117.132Z" fill="#211715"/>
<path d="M295.178 157.048C294.739 155.505 293.401 154.167 292.341 153.025C291.091 151.619 289.69 150.353 288.164 149.252C287.026 148.544 285.774 148.041 284.463 147.764C282.775 147.281 281.004 147.163 279.267 147.419C278.307 147.56 277.427 148.031 276.778 148.752C276.129 149.473 275.752 150.397 275.713 151.366C275.717 151.806 275.894 152.227 276.205 152.538C276.516 152.849 276.938 153.026 277.378 153.03C277.817 153.022 278.236 152.844 278.546 152.533C278.857 152.223 279.035 151.805 279.043 151.366C279.06 151.163 279.056 151.164 279.035 151.372C279.052 151.284 279.074 151.196 279.101 151.11C279.165 150.931 279.157 150.946 279.078 151.154C279.115 151.081 279.157 151.01 279.204 150.943C278.865 151.147 279.246 150.925 279.347 150.84C279.014 151.121 279.436 150.821 279.528 150.773C279.151 150.967 279.646 150.744 279.746 150.718C279.926 150.669 280.109 150.632 280.294 150.605C279.887 150.664 280.517 150.605 280.591 150.6C280.798 150.593 281.007 150.594 281.213 150.6C281.42 150.606 281.641 150.624 281.855 150.644C281.963 150.655 282.071 150.667 282.178 150.68C282.007 150.658 282.022 150.662 282.223 150.691C282.652 150.762 283.077 150.849 283.5 150.952C283.899 151.05 284.294 151.163 284.684 151.29C284.862 151.348 285.04 151.409 285.216 151.474C285.3 151.505 285.84 151.728 285.409 151.54C285.658 151.645 285.901 151.765 286.135 151.899C286.274 151.982 286.404 152.071 286.537 152.16C286.612 152.214 286.687 152.268 286.761 152.327C286.62 152.216 286.628 152.222 286.784 152.347C287.558 152.977 288.297 153.649 288.999 154.358C289.745 155.094 290.453 155.867 291.12 156.674C291.194 156.764 291.266 156.854 291.339 156.946C291.249 156.83 291.262 156.847 291.376 156.999C291.491 157.156 291.605 157.315 291.709 157.479C291.792 157.614 291.864 157.776 291.959 157.903C292.145 158.152 291.854 157.542 291.966 157.934C292.548 159.991 295.764 159.117 295.177 157.05L295.178 157.048Z" fill="#211715"/>
<path d="M282.401 152.243C280.836 151.994 279.294 151.623 277.729 151.365C276.165 151.107 274.644 150.383 273.026 150.695C272.256 150.912 271.551 151.313 270.972 151.864C270.393 152.415 269.957 153.099 269.702 153.856C269.408 154.596 269.327 155.404 269.47 156.188C269.613 156.971 269.974 157.698 270.51 158.287C271.557 159.365 272.958 160.027 274.456 160.152C274.882 160.259 275.332 160.198 275.714 159.981C276.096 159.764 276.379 159.408 276.505 158.987C276.616 158.562 276.557 158.109 276.339 157.727C276.121 157.344 275.762 157.062 275.339 156.941C274.764 156.852 274.196 156.723 273.64 156.555C273.262 156.43 273.909 156.721 273.562 156.515C273.497 156.476 273.033 156.162 273.332 156.402C273.218 156.311 273.12 156.204 273.014 156.105C272.784 155.892 273.04 156.211 272.884 155.938C272.82 155.841 272.761 155.74 272.705 155.638C272.785 155.855 272.795 155.877 272.735 155.702C272.717 155.644 272.702 155.585 272.692 155.525C272.667 155.4 272.673 155.445 272.711 155.659C272.717 155.616 272.741 155.114 272.706 155.366C272.67 155.617 272.776 155.111 272.789 155.062C272.83 154.93 272.955 154.693 272.826 154.942C272.915 154.776 273.01 154.614 273.109 154.451C273.275 154.169 272.942 154.585 273.199 154.342C273.234 154.309 273.595 153.963 273.44 154.093C273.285 154.223 273.676 153.947 273.727 153.921C273.458 154.056 273.839 153.907 273.907 153.896C273.549 153.952 274.081 153.929 274.163 153.936C274.282 153.946 274.268 153.944 274.122 153.928C274.232 153.947 274.34 153.97 274.449 153.995C275.175 154.157 275.874 154.411 276.614 154.53C278.255 154.794 279.873 155.182 281.515 155.445C281.94 155.551 282.391 155.489 282.772 155.272C283.153 155.055 283.437 154.7 283.563 154.28C283.675 153.854 283.616 153.401 283.398 153.019C283.18 152.636 282.821 152.354 282.397 152.233L282.401 152.243Z" fill="#211715"/>
<path d="M271.646 157.508C270.198 159.906 269.694 163.354 271.906 165.465L271.646 163.448C271.063 164.433 270.747 165.552 270.729 166.696C270.712 167.84 270.993 168.969 271.546 169.97C272.852 171.909 274.808 173.317 277.062 173.94C278.406 174.28 279.777 174.503 281.16 174.606C282.125 174.769 283.107 174.809 284.081 174.725C286.638 174.387 289.137 173.7 291.692 173.332C292.117 173.213 292.477 172.931 292.695 172.548C292.914 172.165 292.972 171.711 292.857 171.285C292.731 170.865 292.448 170.51 292.066 170.293C291.685 170.076 291.235 170.014 290.809 170.12C288.645 170.432 286.525 170.944 284.376 171.331C282.776 171.511 281.156 171.427 279.583 171.081C277.742 170.86 276.032 170.015 274.738 168.687C274.378 168.28 274.162 167.766 274.124 167.224C273.979 166.499 274.123 165.746 274.524 165.125C274.708 164.807 274.783 164.437 274.735 164.072C274.688 163.708 274.522 163.369 274.263 163.108C274.034 162.874 273.865 162.588 273.77 162.275C273.675 161.962 273.656 161.63 273.716 161.308C273.868 160.561 274.141 159.844 274.524 159.184C275.634 157.346 272.756 155.671 271.648 157.505L271.646 157.508Z" fill="#211715"/>
<path d="M331.56 177.283C329.275 177.785 326.937 178.001 324.599 177.928C321.804 177.928 319.011 177.754 316.228 177.499C310.457 177.022 304.753 175.929 299.215 174.237C296.646 173.432 294.129 172.473 291.563 171.658L292.786 173.263C292.989 170.488 293.458 167.74 294.186 165.054C294.512 163.709 294.867 162.369 295.292 161.051C295.452 160.556 295.616 160.059 295.816 159.58C295.699 159.861 295.879 159.443 295.927 159.355C296.001 159.214 296.085 159.078 296.177 158.948L294.739 159.773C299.888 160.328 305.046 160.771 310.184 161.425C314.79 162.008 319.413 162.518 324.044 162.855C326.182 163.01 326.172 159.681 324.044 159.527C316.793 159 309.6 157.935 302.37 157.214C300.521 157.029 298.672 156.853 296.824 156.664C295.944 156.574 294.701 156.203 293.899 156.672C293.499 156.949 293.187 157.335 293 157.784C292.056 159.913 291.358 162.144 290.918 164.431C290.157 167.323 289.669 170.28 289.461 173.263C289.466 173.626 289.587 173.978 289.807 174.267C290.027 174.556 290.334 174.767 290.684 174.868C296.211 176.615 301.576 178.684 307.315 179.7C312.775 180.666 318.305 181.186 323.849 181.254C326.735 181.372 329.624 181.117 332.445 180.495C334.521 179.969 333.641 176.758 331.56 177.286V177.283Z" fill="#211715"/>
<path d="M296.568 131.794C294.79 135.205 293.647 138.918 291.768 142.277C291.155 143.473 290.224 144.477 289.078 145.179C287.663 145.945 286.165 146.547 284.613 146.972C282.577 147.617 283.447 150.831 285.498 150.181C288.898 149.1 292.287 147.82 294.246 144.643C296.405 141.138 297.548 137.111 299.443 133.471C300.432 131.573 297.558 129.888 296.568 131.791V131.794Z" fill="#211715"/>
<path d="M308.897 108.21C308.768 108.97 308.583 109.719 308.343 110.451C308.211 110.865 308.066 111.274 307.91 111.678C307.821 111.911 307.728 112.143 307.632 112.373C307.697 112.217 307.677 112.27 307.622 112.394C307.567 112.518 307.519 112.626 307.466 112.742C307.093 113.571 306.676 114.379 306.217 115.164C305.998 115.538 305.768 115.905 305.525 116.264C305.409 116.436 305.29 116.605 305.168 116.771C305.115 116.843 305.061 116.915 305.008 116.986C305.247 116.666 304.982 117.011 304.945 117.056C304.643 117.373 304.474 117.795 304.474 118.233C304.474 118.671 304.643 119.092 304.945 119.409C305.26 119.717 305.682 119.889 306.122 119.889C306.563 119.889 306.985 119.717 307.3 119.409C308.528 117.885 309.551 116.207 310.344 114.417C311.164 112.727 311.758 110.937 312.111 109.092C312.217 108.667 312.156 108.217 311.939 107.836C311.721 107.454 311.366 107.172 310.945 107.046C310.519 106.934 310.066 106.993 309.684 107.211C309.301 107.428 309.018 107.787 308.897 108.21Z" fill="#211715"/>
<path d="M321.646 78.0021C322.627 77.0037 324.417 76.3123 325.424 77.6368C326.213 78.6752 326.181 80.3824 325.883 81.7186C325.209 84.7405 323.112 86.7007 320.155 87.8222C319.735 87.9494 319.38 88.2327 319.163 88.6137C318.946 88.9946 318.884 89.4442 318.989 89.8698C319.109 90.2941 319.391 90.6543 319.774 90.8723C320.157 91.0904 320.611 91.1486 321.037 91.0346C324.421 89.7508 327.231 87.6067 328.607 84.178C329.91 80.9257 329.89 75.7748 326.176 74.0825C325.007 73.6023 323.717 73.4954 322.484 73.7765C321.251 74.0575 320.135 74.7128 319.289 75.6525C317.784 77.1801 320.136 79.5346 321.643 78.0054L321.646 78.0021Z" fill="#211715"/>
<path d="M298.091 74.5363C297.613 75.6521 297.509 78.3369 299.562 78.8095C302.314 79.1182 302.852 75.9208 302.111 74.2992C301.503 72.9722 299.338 72.1934 298.091 74.5363Z" fill="#211715"/>
<path d="M291.573 92.3201C293.427 92.4587 295.285 92.1195 296.97 91.335C297.344 91.1145 297.618 90.7584 297.736 90.3408C297.824 90.0217 297.815 89.6837 297.709 89.3699C297.604 89.056 297.408 88.7807 297.145 88.579C296.883 88.3773 296.566 88.2585 296.235 88.2377C295.905 88.2169 295.576 88.295 295.29 88.4621C295.174 88.5176 295.057 88.5731 294.939 88.6285L295.336 88.4621C294.703 88.722 294.038 88.8972 293.359 88.983L293.802 88.9231C293.063 89.0122 292.317 89.037 291.573 88.9971C291.133 89.0002 290.711 89.1765 290.399 89.4879C290.088 89.7993 289.911 90.2207 289.908 90.6611C289.918 91.0995 290.096 91.5173 290.406 91.8274C290.716 92.1375 291.135 92.3158 291.573 92.3251V92.3201Z" fill="#211715"/>
<path d="M311.33 107.144C311.04 106.088 310.687 105.049 310.274 104.035C310.13 103.676 309.978 103.32 309.828 102.964C309.771 102.831 309.629 102.497 309.871 103.067C309.74 102.713 309.554 102.382 309.319 102.087C307.844 100.352 305.617 101.349 303.668 101.3C301.565 101.283 299.487 100.855 297.548 100.042C296.745 99.6381 296.033 99.0741 295.457 98.3846C294.88 97.6952 294.451 96.895 294.196 96.0334C293.497 93.7939 293.097 91.4719 293.007 89.1278C292.912 87.0752 292.011 85.143 290.499 83.7506C290.109 83.3637 289.505 82.9735 289.749 82.3703C290.047 81.6331 291.074 81.3536 291.664 80.9151C293.093 79.7935 294.147 78.2639 294.685 76.5296C296.225 72.1466 295.434 67.4117 296.326 62.9256C296.743 60.8339 293.532 59.9387 293.115 62.0412C292.299 66.1571 292.845 70.4194 291.816 74.4937C291.443 75.9772 290.835 77.553 289.47 78.3883C287.646 79.5074 285.87 81.1281 286.434 83.5234C286.874 85.3871 288.788 86.1858 289.46 87.8948C289.69 88.7633 289.8 89.659 289.788 90.5572C289.911 91.8898 290.103 93.2153 290.362 94.5283C290.742 96.8867 291.744 99.1013 293.265 100.944C294.679 102.402 296.49 103.412 298.473 103.85C300.803 104.526 303.238 104.762 305.654 104.545C305.942 104.512 306.237 104.477 306.519 104.427C306.656 104.406 306.791 104.382 306.926 104.353C307.093 104.316 307.049 104.274 306.795 104.226C306.77 104.236 306.363 103.25 306.84 104.383C306.867 104.446 306.959 104.666 306.885 104.487C307.371 105.639 307.782 106.82 308.117 108.024C308.676 110.089 311.89 109.213 311.328 107.14L311.33 107.144Z" fill="#211715"/>
<path d="M295.111 67.5197C295.198 62.1328 297.043 56.9216 300.366 52.6793C303.473 48.845 307.751 46.134 312.547 44.9617C321.495 42.7735 331.349 44.5931 338.209 50.913C341.527 53.9697 344.612 57.6372 346.224 61.8954C347.943 66.6517 348.38 71.7765 347.49 76.7549C347.026 79.7069 346.303 82.6022 345.908 85.5691C345.585 87.9381 345.414 90.3253 345.394 92.716C345.382 94.562 345.5 96.4065 345.75 98.2355C346.207 100.486 346.401 102.782 346.328 105.077C346.306 106.166 345.952 107.222 345.314 108.105C344.676 108.988 343.784 109.656 342.757 110.021C341.076 110.573 339.322 110.867 337.554 110.894C331.877 111.243 326.232 109.823 321.397 106.829C319.582 105.679 317.91 108.557 319.716 109.703C324.561 112.704 330.153 114.283 335.853 114.26C339.766 114.279 344.825 113.902 347.556 110.703C349.413 108.527 349.818 105.657 349.72 102.877C349.637 101.413 349.445 99.9568 349.147 98.5209C349.02 97.8802 348.932 97.2326 348.882 96.5815C348.492 91.407 348.874 86.2033 350.016 81.1412C351.196 75.5019 351.804 69.831 350.411 64.1684C349.092 58.8037 346.149 54.3508 342.396 50.378C339.337 47.0474 335.566 44.4506 331.362 42.7818C326.116 40.8438 320.463 40.267 314.934 41.1053C309.333 41.7818 304.102 44.2534 300.025 48.1498C295.948 52.0462 293.243 57.1578 292.317 62.7191C292.025 64.3058 291.846 65.9111 291.781 67.523C291.698 69.6646 295.028 69.6613 295.111 67.523V67.5197Z" fill="#211715"/>
<path d="M319.764 90.0842C320.869 93.2233 322.288 96.959 321.754 100.177C321.394 102.348 320.559 105.45 318.643 106.652C316.832 107.788 318.501 110.668 320.324 109.526C323.05 107.816 324.378 104.303 324.928 101.271C325.683 97.1113 324.346 93.086 322.975 89.1989C322.269 87.1922 319.051 88.0566 319.764 90.0842Z" fill="#211715"/>
<path d="M294.234 61.6175C297.885 65.0458 301.851 68.1231 306.079 70.8086C308.133 72.1104 310.245 73.3124 312.417 74.4145C314.809 75.6275 317.217 76.8273 319.918 77.096C320.359 77.093 320.781 76.9167 321.092 76.6053C321.404 76.2939 321.58 75.8724 321.583 75.432C321.574 74.9937 321.395 74.576 321.085 74.266C320.775 73.9559 320.357 73.7776 319.918 73.768C317.639 73.5417 315.447 72.2455 313.449 71.208C311.399 70.143 309.4 68.9868 307.455 67.7393C303.581 65.2531 299.943 62.4162 296.588 59.2646C295.026 57.8003 292.666 60.149 294.234 61.6175Z" fill="#211715"/>
<path d="M80.8454 97.0121C81.1434 96.2758 81.3932 95.5145 81.6596 94.7657C81.8161 94.3281 81.9709 93.8913 82.1325 93.4553C82.1899 93.2989 82.2515 93.1442 82.3081 92.9869C82.4538 92.5892 82.1491 93.2773 82.3223 92.9595L80.4416 93.7241C84.4128 94.9779 88.2749 96.5795 92.1686 98.0505C95.562 99.3318 99.1311 100.923 102.753 101.423L101.587 99.3759C100.286 102.928 98.7398 106.407 97.5959 110.015C96.9474 112.061 100.162 112.937 100.807 110.9C101.951 107.292 103.497 103.813 104.798 100.261C104.856 100.05 104.872 99.8298 104.845 99.6127C104.818 99.3956 104.749 99.1859 104.64 98.9957C104.532 98.8055 104.387 98.6386 104.214 98.5043C104.042 98.3701 103.844 98.2713 103.633 98.2136C100.011 97.7143 96.4429 96.1219 93.0486 94.8414C89.1549 93.3721 85.2928 91.7705 81.3216 90.515C80.9677 90.4205 80.5925 90.444 80.2532 90.582C79.9139 90.72 79.629 90.965 79.4417 91.2797C78.7481 92.8594 78.1431 94.4766 77.6293 96.1236C77.5147 96.5494 77.5728 97.0032 77.791 97.3864C78.0093 97.7696 78.37 98.0513 78.7948 98.1703C79.2206 98.2767 79.671 98.215 80.0524 97.9981C80.4339 97.7811 80.717 97.4256 80.8429 97.0055L80.8454 97.0121Z" fill="#211715"/>
<path d="M104.453 100.566C105.515 99.4263 106.639 98.3455 107.819 97.3287C108.052 97.096 108.211 96.7996 108.275 96.4768C108.339 96.1541 108.306 95.8196 108.18 95.5155C108.054 95.2115 107.841 94.9517 107.567 94.7688C107.293 94.586 106.971 94.4884 106.642 94.4883C106.204 94.5066 105.787 94.6794 105.465 94.9758C104.284 95.9921 103.16 97.0726 102.098 98.2123C101.793 98.5287 101.618 98.9491 101.61 99.3888C101.614 99.8297 101.789 100.252 102.098 100.566C102.41 100.878 102.834 101.053 103.275 101.053C103.717 101.053 104.14 100.878 104.453 100.566Z" fill="#211715"/>
<path d="M118.309 137.637C120.931 134.486 123.838 131.55 126.323 128.286L123.707 128.619C126.053 130.449 128.35 132.337 130.61 134.268C132.941 136.096 135.095 138.137 137.044 140.366C137.358 140.676 137.781 140.85 138.222 140.85C138.663 140.85 139.086 140.676 139.4 140.366C139.702 140.049 139.871 139.628 139.871 139.19C139.871 138.752 139.702 138.331 139.4 138.013C137.45 135.784 135.295 133.743 132.965 131.915C130.705 129.984 128.408 128.093 126.062 126.266C125.879 126.093 125.659 125.963 125.42 125.885C125.18 125.807 124.926 125.784 124.676 125.815C124.426 125.847 124.186 125.934 123.974 126.069C123.762 126.205 123.582 126.385 123.447 126.598C123.817 126.113 123.16 126.94 123.044 127.079C122.73 127.455 122.413 127.828 122.094 128.198C121.339 129.078 120.576 129.953 119.814 130.828C118.525 132.307 117.209 133.768 115.954 135.276C114.593 136.912 116.936 139.279 118.309 137.63V137.637Z" fill="#211715"/>
</svg>
