<svg width="1440" height="900" viewBox="0 0 1440 900" fill="none" xmlns="http://www.w3.org/2000/svg">
<g clip-path="url(#clip0_1733_881)">
<rect width="1440" height="900" fill="white"/>
<path d="M720 -50H1440V948H720V-50Z" fill="#99D5D5"/>
<path d="M1306 260.962L1402.05 260.962C1404.2 263.682 1406.24 267.309 1408.17 271.842C1410.1 276.375 1411.68 281.475 1412.93 287.142C1414.18 292.922 1414.8 298.872 1414.8 304.992C1414.8 319.045 1411.29 330.152 1404.26 338.312C1397.35 346.472 1387.37 350.552 1374.34 350.552C1365.27 350.552 1357.68 348.625 1351.56 344.772C1345.55 341.032 1341.08 335.932 1338.13 329.472C1335.18 323.125 1333.71 316.099 1333.71 308.392C1333.71 304.312 1334.11 300.742 1334.9 297.682C1335.69 294.735 1336.71 292.129 1337.96 289.862L1306 289.862L1306 260.962ZM1357 306.012C1357 310.659 1358.47 314.399 1361.42 317.232C1364.37 320.179 1368.79 321.652 1374.68 321.652C1380.23 321.652 1384.54 320.179 1387.6 317.232C1390.77 314.285 1392.36 309.639 1392.36 303.292C1392.36 298.079 1391.34 293.602 1389.3 289.862L1372.3 289.862C1366.97 289.862 1363.06 291.505 1360.57 294.792C1358.19 298.079 1357 301.819 1357 306.012ZM1306 440.684L1414.12 440.684L1414.12 469.584L1329.8 469.584L1329.8 510.894L1306 510.894L1306 440.684ZM1306 597.622L1414.29 635.022L1414.29 669.532L1306 704.042L1306 672.932L1327.42 666.472L1327.42 635.872L1306 629.412L1306 597.622ZM1351.22 642.332L1351.22 661.712L1382.33 652.702L1382.33 652.022L1351.22 642.332ZM1306 794.151L1414.12 794.151L1414.12 826.281L1347.48 862.151L1414.12 862.151L1414.12 891.051L1306 891.051L1306 858.071L1370.09 823.051L1306 823.051L1306 794.151Z" fill="white"/>
<path d="M33.5 71.4621L129.55 71.4621C131.703 74.1821 133.743 77.8088 135.67 82.3421C137.597 86.8754 139.183 91.9754 140.43 97.6421C141.677 103.422 142.3 109.372 142.3 115.492C142.3 129.545 138.787 140.652 131.76 148.812C124.847 156.972 114.873 161.052 101.84 161.052C92.7733 161.052 85.18 159.125 79.06 155.272C73.0533 151.532 68.5767 146.432 65.63 139.972C62.6833 133.625 61.21 126.599 61.21 118.892C61.21 114.812 61.6067 111.242 62.4 108.182C63.1933 105.235 64.2133 102.629 65.46 100.362L33.5 100.362L33.5 71.4621ZM84.5 116.512C84.5 121.159 85.9733 124.899 88.92 127.732C91.8667 130.679 96.2867 132.152 102.18 132.152C107.733 132.152 112.04 130.679 115.1 127.732C118.273 124.785 119.86 120.139 119.86 113.792C119.86 108.579 118.84 104.102 116.8 100.362L99.8 100.362C94.4733 100.362 90.5633 102.005 88.07 105.292C85.69 108.579 84.5 112.319 84.5 116.512ZM33.5 251.184L141.62 251.184L141.62 280.084L57.3 280.084L57.3 321.394L33.5 321.394L33.5 251.184ZM33.5 408.122L141.79 445.522L141.79 480.032L33.5 514.542L33.5 483.432L54.92 476.972L54.92 446.372L33.5 439.912L33.5 408.122ZM78.72 452.832L78.72 472.212L109.83 463.202L109.83 462.522L78.72 452.832ZM33.5 604.651L141.62 604.651L141.62 636.781L74.98 672.651L141.62 672.651L141.62 701.551L33.5 701.551L33.5 668.571L97.59 633.551L33.5 633.551L33.5 604.651Z" fill="#99D5D5"/>
</g>
<defs>
<clipPath id="clip0_1733_881">
<rect width="1440" height="900" fill="white"/>
</clipPath>
</defs>
</svg>
