<svg width="383" height="328" viewBox="0 0 383 328" fill="none" xmlns="http://www.w3.org/2000/svg">
<g clip-path="url(#clip0_1707_904)">
<path d="M273.134 261.162C269.451 236.554 266.93 221.245 260.725 198.769C258.521 191.318 255.044 184.303 250.449 178.035C248.178 175.133 245.528 172.547 242.57 170.348C238.445 167.284 233.943 164.762 229.176 162.842C228.956 162.749 228.72 162.702 228.482 162.704C228.243 162.706 228.008 162.757 227.79 162.854C213.29 169.25 198.03 173.573 180.493 171.936C174.632 171.389 166.794 168.884 162.351 163.791C162.117 163.523 161.805 163.333 161.459 163.248C161.113 163.164 160.749 163.187 160.417 163.317C157.178 164.572 154.082 165.875 150.912 167.282C148.173 168.546 145.617 170.171 143.312 172.114C139.923 175.032 137.405 178.827 136.035 183.082C133.476 190.377 131.506 197.864 130.145 205.473C128.426 214.898 126.916 223.121 124.613 232.39C124.613 232.39 124.511 232.924 124.346 233.785C128.919 233.93 132.739 234.047 135.477 234.134C136.685 234.169 137.843 234.622 138.755 235.414C139.667 236.207 140.275 237.29 140.478 238.481C141.813 246.292 143.171 254.204 144.579 262.379C144.643 262.75 144.706 263.114 144.771 263.485C150.006 255.55 153.354 247.569 157.258 239.927C158.828 243.112 160.647 246.184 162.134 249.41C163.038 251.415 163.783 253.488 164.363 255.609C164.476 256.011 164.61 256.404 164.761 256.793C165.733 259.311 165.596 263.598 167.519 268.142C170.19 266.413 172.949 264.825 175.785 263.383C179.336 261.578 183.315 259.974 187.198 260.811C192.154 261.883 194.556 264.071 199.477 265.274C203.074 266.159 205.028 265.274 208.138 265.258C212.5 273.649 214.383 287.596 214.468 289.972C218.863 289.907 239.335 289.584 245.966 288.91C251.194 288.378 256.555 288.261 261.455 286.363C262.795 285.845 264.081 285.196 265.294 284.424C268.608 282.453 271.08 279.332 272.238 275.656C273.302 270.902 273.604 266.01 273.134 261.162Z" fill="#CDEEFF"/>
<path d="M167.259 161.741C169.102 161.019 171.098 160.228 173.533 159.15C174.061 158.91 174.551 158.596 174.989 158.218C181.449 159.948 188.267 159.812 194.652 157.825C200.206 156.007 205.27 152.944 209.456 148.87C210.736 147.709 211.951 146.48 213.096 145.186C214.022 148.333 215.226 151.392 216.691 154.327C217.531 156.024 224.108 161.075 227.518 162.977C213.098 169.305 197.92 173.563 180.493 171.936C174.632 171.39 166.795 168.885 162.352 163.791C162.336 163.773 162.319 163.756 162.304 163.738L162.371 163.712C164.019 163.002 165.575 162.401 167.259 161.741Z" fill="white"/>
<path d="M162.397 98.1659C164.896 95.9214 167.366 93.6482 169.75 91.423C169.565 94.1356 169.276 96.7463 168.834 99.4712C168.807 99.6285 168.821 99.7901 168.875 99.9404C168.929 100.091 169.021 100.224 169.142 100.329C169.263 100.433 169.408 100.505 169.565 100.536C169.722 100.568 169.884 100.558 170.035 100.509C180.22 97.0463 189.592 91.103 195.678 83.5928C197.169 87.6983 198.895 91.7142 200.849 95.6206C203.292 100.433 209.443 108.758 214.845 110.189C216.261 110.722 218.104 111.249 219.52 111.782C221.901 109.458 225.994 109.452 228.708 111.375C230.026 112.398 231.073 113.727 231.76 115.247C232.447 116.766 232.753 118.43 232.65 120.095C232.403 123.434 231.169 126.625 229.105 129.263C226.456 132.749 222.916 135.458 218.859 137.106C216.372 141.503 213.198 145.475 209.457 148.871C205.27 152.945 200.206 156.007 194.652 157.825C188.267 159.812 181.449 159.948 174.99 158.218C171.511 157.311 168.193 155.872 165.154 153.953C161.654 151.616 158.624 148.644 156.218 145.192C153.201 141.09 150.89 136.513 149.381 131.65C147.946 127.244 147 122.693 146.558 118.081C146.255 115.465 146.133 113.249 146.084 111.649C147.033 110.951 148.241 109.992 149.329 109.228C153.588 105.904 158.039 102.079 162.397 98.1659Z" fill="white"/>
<path d="M158.668 286.758C158.664 286.657 158.663 286.557 158.668 286.46C158.693 285.46 159.073 284.502 159.74 283.757L160.513 282.776L159.508 282.988C158.776 283.164 158.008 283.118 157.302 282.855C156.597 282.593 155.985 282.126 155.547 281.514C154.814 280.433 155.276 278.611 155.599 277.957C156.126 277.074 156.782 276.275 157.545 275.585C158.426 274.713 162.248 271.792 163.242 271.068C167.21 268.176 171.403 265.604 175.781 263.378C179.332 261.573 183.311 259.968 187.193 260.805C192.149 261.878 194.551 264.066 199.472 265.269C202.938 266.122 204.882 265.335 207.796 265.258C210.657 270.766 212.452 278.666 213.373 284.116L212.768 284.296C211.523 284.819 208.375 286.769 204.751 288.271C203.134 288.936 201.402 289.275 199.653 289.267C197.904 289.26 196.175 288.906 194.564 288.227C191.721 291.385 188.612 294.294 185.272 296.921C184.651 297.419 182.591 298.933 180.909 297.51C179.806 296.574 180.064 294.433 180.608 293.6C183.226 289.583 184.344 286.604 187.245 282.902C182.436 285.887 177.811 289.382 173.023 292.414C171.465 293.399 170.166 294.255 168.35 293.937C167.535 293.807 166.797 293.381 166.278 292.739C165.759 292.097 165.497 291.286 165.541 290.462C165.638 289.582 165.958 288.742 166.472 288.021L165.03 288.691C164.15 289.142 163.206 289.455 162.23 289.617C161.73 289.693 161.219 289.658 160.734 289.515C160.249 289.372 159.801 289.125 159.421 288.791C158.955 288.214 158.691 287.5 158.668 286.758Z" fill="white"/>
<path d="M25.1628 234.906C29.3675 259.505 33.8061 285.147 39.4662 317.614C39.6013 318.397 39.9909 319.113 40.5746 319.652C41.1583 320.19 41.9034 320.521 42.6946 320.594C62.221 322.331 128.258 325.189 151.219 325.931C151.755 325.948 152.287 325.845 152.777 325.631C153.268 325.416 153.704 325.095 154.055 324.69C154.405 324.286 154.661 323.809 154.804 323.293C154.947 322.777 154.973 322.236 154.88 321.709C149.227 289.375 144.736 263.419 140.478 238.481C140.276 237.292 139.668 236.208 138.757 235.416C137.847 234.623 136.689 234.17 135.482 234.134C116.65 233.564 47.052 231.302 28.8205 230.715C28.288 230.697 27.7582 230.798 27.2697 231.011C26.7811 231.223 26.3459 231.541 25.9958 231.943C25.6456 232.344 25.3892 232.818 25.2451 233.331C25.101 233.843 25.0729 234.382 25.1628 234.906Z" fill="white"/>
<path d="M139.868 159.986C140.258 164.08 142.105 167.899 145.075 170.747C146.885 169.378 148.842 168.216 150.91 167.282C154.081 165.875 157.176 164.572 160.415 163.317C160.747 163.187 161.111 163.164 161.457 163.248C161.804 163.333 162.115 163.523 162.35 163.791C162.355 163.768 162.317 163.755 162.302 163.738L162.369 163.712C164.017 163.002 165.573 162.404 167.255 161.74C169.098 161.019 171.094 160.227 173.529 159.15C174.057 158.91 174.547 158.596 174.986 158.218C171.507 157.311 168.189 155.872 165.15 153.953C161.65 151.615 158.619 148.644 156.214 145.192C153.197 141.09 150.886 136.513 149.377 131.65C147.942 127.243 146.996 122.693 146.554 118.08C146.25 115.465 146.129 113.249 146.08 111.649C147.029 110.951 148.236 109.992 149.324 109.228C153.584 105.903 158.035 102.078 162.393 98.1657C164.892 95.9213 167.361 93.6481 169.746 91.4228C169.561 94.1355 169.271 96.7461 168.83 99.471C168.803 99.6283 168.817 99.79 168.871 99.9402C168.925 100.09 169.017 100.224 169.138 100.329C169.259 100.433 169.404 100.504 169.561 100.536C169.717 100.567 169.879 100.558 170.031 100.509C180.216 97.0461 189.588 91.1028 195.673 83.5926C197.164 87.698 198.891 91.7139 200.845 95.6204C203.288 100.433 209.438 108.758 214.841 110.189C216.257 110.722 218.1 111.249 219.516 111.781C221.896 109.458 225.99 109.451 228.704 111.375C230.022 112.398 231.069 113.727 231.756 115.247C232.443 116.766 232.749 118.43 232.646 120.095C232.399 123.434 231.165 126.625 229.101 129.263C226.451 132.749 222.912 135.457 218.855 137.106C217.218 139.991 215.285 142.698 213.086 145.182L213.092 145.187C214.018 148.334 215.222 151.393 216.687 154.329C217.527 156.025 224.099 161.072 227.507 162.975C227.599 162.935 227.692 162.897 227.784 162.856C228.002 162.759 228.238 162.708 228.476 162.706C228.715 162.704 228.951 162.751 229.171 162.843C232.503 164.233 235.725 165.873 238.808 167.751C241.259 164.887 241.338 161.759 241.387 159.617C241.5 155.5 240.891 151.395 239.587 147.487C237.967 142.123 234.998 131.231 235.377 111.974C236.065 106.416 235.808 98.3427 235.683 95.2385C235.247 84.4785 230.695 72.3199 223.792 65.4079C223.728 65.3425 223.651 65.2727 223.573 65.2047C221.788 63.6245 219.904 62.1587 217.933 60.8161C217.802 60.7194 217.672 60.6287 217.527 60.5354C214.796 58.7092 211.852 57.2217 208.761 56.1058C202.422 53.628 195.665 52.3915 188.859 52.4636C177.593 52.3226 166.654 56.2449 158.048 63.5114C146.681 73.5407 139.855 87.5007 141.609 110.302C144.06 127.417 138.591 145.872 139.868 159.986Z" fill="#645D5C"/>
<path d="M146.551 169.274C144.5 167.268 143.034 164.743 142.31 161.968C141.801 159.413 141.621 156.803 141.776 154.203C141.877 147.815 142.735 141.462 143.391 135.116C144.222 128.432 144.486 121.69 144.181 114.962C143.962 111.637 143.507 108.364 143.443 105.022C143.377 102.032 143.492 99.0405 143.787 96.0642C144.74 86.6915 148.129 77.5638 154.216 70.385C160.297 63.1244 168.558 58.0176 177.774 55.8232C189.582 53.0569 201.99 54.5873 212.77 60.1395C214.198 60.8718 215.574 61.7 216.889 62.6184C217.37 62.8946 217.94 62.9706 218.476 62.8301C219.012 62.6896 219.471 62.3439 219.755 61.8677C220.021 61.3864 220.092 60.8211 219.952 60.289C219.813 59.7569 219.474 59.299 219.005 59.0103C214.066 55.43 207.886 53.1681 201.972 51.8044C195.418 50.2929 188.647 49.9599 181.976 50.8208C171.249 52.1814 161.287 57.093 153.679 64.7722C146.718 71.9147 142.069 80.9855 140.337 90.8046C139.272 96.9839 138.979 103.271 139.464 109.523C139.707 113.048 140.162 116.506 140.162 120.054C140.162 123.601 139.948 127.126 139.639 130.65C139.058 137.345 138.102 144.01 137.724 150.722C137.391 156.629 137.246 162.918 140.393 168.161C141.295 169.639 142.371 171.005 143.596 172.228C145.494 174.147 148.455 171.188 146.558 169.269L146.551 169.274Z" fill="#211715"/>
<path d="M222.101 66.6825C226.743 70.9551 229.661 77.3064 231.474 83.2358C233.248 89.036 233.683 94.8721 233.743 100.897C233.832 104.594 233.682 108.293 233.294 111.971L235.388 109.879H235.379C234.826 109.887 234.299 110.111 233.908 110.501C233.517 110.892 233.294 111.419 233.285 111.971C233.06 120.388 233.628 128.808 234.984 137.119C235.418 139.647 235.959 142.153 236.607 144.638C237.371 147.539 238.367 150.376 238.892 153.336C239.274 155.691 239.403 158.081 239.274 160.464C239.293 162.557 238.614 164.597 237.345 166.262C236.966 166.662 236.756 167.191 236.756 167.742C236.756 168.292 236.966 168.822 237.345 169.221C237.74 169.61 238.271 169.828 238.825 169.828C239.379 169.828 239.911 169.61 240.306 169.221C243.338 165.536 243.715 161.066 243.441 156.463C243.079 152.642 242.297 148.872 241.111 145.222C239.555 139.665 238.517 133.977 238.009 128.23C237.531 122.824 237.352 117.396 237.473 111.971L235.379 114.064H235.388C235.938 114.049 236.462 113.824 236.852 113.434C237.241 113.045 237.467 112.521 237.482 111.971C238.151 105.854 238.22 99.6861 237.688 93.5554C237.122 86.3616 235.109 79.356 231.768 72.9588C230.07 69.5225 227.803 66.3976 225.063 63.7161C223.082 61.8945 220.113 64.8496 222.102 66.6755L222.101 66.6825Z" fill="#211715"/>
<path d="M229.431 222.423C232.529 233.795 235.356 245.237 237.912 256.748C238.496 259.376 242.536 258.264 241.951 255.636C239.395 244.126 236.568 232.684 233.47 221.31C232.762 218.713 228.721 219.816 229.431 222.423Z" fill="#211715"/>
<path d="M213.931 258.862C225.226 259.872 236.705 258.645 247.993 258.022C250.673 257.874 250.69 253.688 247.993 253.837C236.709 254.459 225.226 255.686 213.931 254.677C213.377 254.68 212.847 254.902 212.455 255.294C212.063 255.685 211.841 256.215 211.837 256.769C211.849 257.321 212.073 257.846 212.463 258.237C212.854 258.627 213.38 258.851 213.931 258.862Z" fill="#211715"/>
<path d="M149.553 208.755C149.912 210.536 150.112 212.345 150.151 214.161C150.313 216.177 150.428 218.196 150.566 220.213C150.755 224.219 151.276 228.201 152.124 232.121C153.149 236.008 154.659 239.752 156.618 243.263C158.433 246.709 160.381 250.089 161.619 253.799C162.318 255.69 162.887 257.626 163.323 259.594C163.72 261.729 163.992 263.867 164.557 265.973C165.255 268.571 169.298 267.468 168.596 264.86C168.089 262.974 167.802 261.056 167.476 259.134C167.135 257.483 166.693 255.854 166.151 254.257C164.927 250.434 163.319 246.745 161.353 243.245C159.383 239.863 157.779 236.28 156.57 232.558C155.59 228.782 155.002 224.916 154.815 221.02C154.651 218.734 154.527 216.445 154.343 214.161C154.287 211.971 154.037 209.79 153.595 207.645C152.904 205.044 148.863 206.148 149.557 208.757L149.553 208.755Z" fill="#211715"/>
<path d="M155.261 239.227C151.764 246.129 148.629 253.213 144.608 259.836C143.205 262.145 146.825 264.251 148.224 261.949C152.249 255.322 155.378 248.242 158.877 241.34C160.092 238.942 156.48 236.821 155.261 239.227Z" fill="#211715"/>
<path d="M211.081 145.74C211.838 148.336 212.787 150.873 213.917 153.33C214.249 154.193 214.663 155.021 215.154 155.804C215.623 156.442 216.152 157.032 216.735 157.567C219.587 160.247 222.731 162.599 226.108 164.578C228.437 165.945 230.547 162.329 228.222 160.964C225.204 159.205 222.39 157.116 219.834 154.736C219.367 154.305 218.927 153.846 218.516 153.363C218.656 153.527 218.73 153.711 218.59 153.43C218.521 153.288 218.442 153.151 218.372 153.01C218.104 152.465 217.849 151.914 217.598 151.361C216.605 149.181 215.776 146.93 215.119 144.627C214.39 142.038 210.348 143.139 211.081 145.74Z" fill="#211715"/>
<path d="M163.425 165.519L163.765 165.375C164.304 165.143 163.539 165.462 163.852 165.338C164.074 165.251 164.296 165.154 164.518 165.063C165.015 164.86 165.513 164.66 166.013 164.464C167.018 164.067 168.026 163.679 169.031 163.278C170.234 162.802 171.431 162.311 172.623 161.806C174.002 161.314 175.292 160.599 176.441 159.69C176.831 159.296 177.049 158.765 177.049 158.21C177.049 157.656 176.831 157.125 176.441 156.731C176.042 156.351 175.511 156.139 174.96 156.139C174.409 156.139 173.879 156.351 173.479 156.731C173.417 156.786 173.228 156.939 173.403 156.808C173.289 156.896 173.168 156.971 173.047 157.045C172.752 157.215 172.447 157.365 172.132 157.495C171.838 157.624 171.544 157.751 171.25 157.877L170.718 158.104L170.597 158.155C169.531 158.599 168.459 159.032 167.381 159.454C165.351 160.253 163.318 161.043 161.313 161.906C160.833 162.186 160.485 162.645 160.344 163.182C160.203 163.719 160.281 164.289 160.562 164.769C160.853 165.235 161.312 165.573 161.845 165.712C162.377 165.852 162.942 165.783 163.425 165.519Z" fill="#211715"/>
<path d="M221.001 113.257C222.823 111.569 225.842 111.764 227.736 113.242C230.005 115.013 230.826 118.158 230.498 120.916C229.691 127.693 223.723 132.716 217.846 135.279C217.369 135.562 217.023 136.021 216.882 136.557C216.742 137.093 216.818 137.663 217.095 138.143C217.385 138.612 217.844 138.951 218.377 139.091C218.91 139.231 219.477 139.16 219.96 138.894C226.14 136.198 231.439 131.381 233.788 124.958C236.005 118.894 234.199 110.98 227.668 108.498C226.053 107.881 224.3 107.723 222.601 108.04C220.901 108.358 219.324 109.139 218.041 110.298C216.061 112.134 219.028 115.088 221.003 113.257H221.001Z" fill="#211715"/>
<path d="M143.99 111.799C144.17 119.644 145.616 127.409 148.271 134.794C150.991 142.044 155.442 149.136 161.602 153.958C173.7 163.432 191.468 163.899 204.287 155.598C211.055 151.149 216.674 145.163 220.684 138.13C222.025 135.788 218.407 133.677 217.068 136.018C213.825 141.684 209.458 146.629 204.234 150.547C198.826 154.651 192.292 157.006 185.508 157.299C178.723 157.591 172.011 155.807 166.269 152.185C160.248 148.295 155.757 141.929 152.989 135.402C149.964 127.892 148.334 119.894 148.179 111.799C148.082 109.113 143.893 109.096 143.99 111.799Z" fill="#211715"/>
<path d="M193.741 84.3847C195.676 89.7402 197.869 95.3234 201.071 100.069C204.05 104.482 207.942 109.33 212.883 111.629C213.366 111.894 213.932 111.963 214.465 111.824C214.998 111.684 215.457 111.346 215.748 110.878C216.024 110.398 216.1 109.828 215.959 109.293C215.818 108.757 215.473 108.298 214.996 108.015C210.598 105.967 207.151 101.666 204.526 97.7117C201.606 93.3162 199.567 88.2126 197.782 83.272C197.622 82.7448 197.266 82.2991 196.786 82.0271C196.307 81.7551 195.741 81.6776 195.206 81.8106C194.673 81.9619 194.221 82.3167 193.948 82.7983C193.674 83.2799 193.601 83.8497 193.744 84.3847H193.741Z" fill="#211715"/>
<path d="M194.186 82.1218C191.043 85.9193 187.329 89.206 183.177 91.8642C181.033 93.2514 178.804 94.5037 176.504 95.6136C175.337 96.1787 174.154 96.7123 172.952 97.198C171.749 97.7699 170.492 98.2186 169.2 98.5373H170.313C170.694 99.7075 170.908 99.9891 170.955 99.3822C170.978 99.2392 171 99.0971 171.021 98.955C171.073 98.6015 171.123 98.2478 171.172 97.8938C171.275 97.1465 171.372 96.3993 171.459 95.6502C171.622 94.2438 171.746 92.8329 171.845 91.4204C171.98 89.5195 169.512 88.7827 168.268 89.938C164.341 93.6003 160.382 97.2189 156.326 100.732C152.741 104.029 148.933 107.075 144.928 109.846C142.673 111.305 144.77 114.929 147.041 113.459C151.231 110.571 155.219 107.4 158.975 103.967C163.141 100.369 167.204 96.6556 171.229 92.9027L167.652 91.4204C167.496 93.6395 167.278 95.8552 166.945 98.0551C166.647 99.0476 166.7 100.112 167.095 101.07C167.359 101.544 167.744 101.939 168.211 102.216C168.677 102.493 169.209 102.642 169.751 102.648C170.648 102.547 171.522 102.296 172.335 101.903C173.261 101.56 174.178 101.192 175.088 100.81C176.841 100.074 178.569 99.2802 180.256 98.4021C186.727 95.1441 192.471 90.6121 197.143 85.0786C197.522 84.6786 197.732 84.1492 197.732 83.5989C197.732 83.0486 197.522 82.5192 197.143 82.1192C196.749 81.7305 196.217 81.5127 195.663 81.5127C195.109 81.5127 194.577 81.7305 194.182 82.1192L194.186 82.1218Z" fill="#211715"/>
<path d="M158.952 280.973C158.503 281.037 158.046 280.953 157.649 280.734C157.068 280.337 157.228 279.68 157.405 279.077C157.533 278.641 157.456 278.911 157.405 279.014C157.496 278.825 157.603 278.644 157.724 278.473C157.996 278.117 158.294 277.782 158.618 277.473C159.048 277.036 159.501 276.623 159.975 276.235C162.608 274.055 165.365 272.028 168.23 270.162C172.182 267.583 176.474 264.863 180.989 263.397C183.165 262.616 185.527 262.512 187.763 263.098C189.714 263.691 191.616 264.434 193.452 265.321C195.757 266.432 198.211 267.205 200.738 267.617C203.098 267.927 205.371 267.448 207.725 267.355C210.41 267.249 210.424 263.063 207.725 263.17C205.494 263.257 203.247 263.812 201.015 263.459C198.617 262.967 196.295 262.158 194.111 261.053C191.859 259.935 189.465 259.129 186.995 258.658C184.206 258.308 181.374 258.685 178.774 259.754C173.465 261.925 168.439 264.73 163.805 268.109C160.894 269.985 158.166 272.13 155.655 274.515C153.844 276.376 152.438 278.889 153.28 281.57C154.183 284.441 157.35 285.494 160.063 285.009C160.596 284.857 161.047 284.502 161.321 284.021C161.594 283.539 161.668 282.969 161.525 282.434C161.367 281.906 161.011 281.459 160.531 281.187C160.051 280.914 159.484 280.838 158.949 280.973H158.952Z" fill="#211715"/>
<path d="M173.846 270.261C169.978 272.638 166.267 275.263 162.738 278.118C159.684 280.54 155.475 283.77 156.816 288.256C157.056 289.105 157.531 289.868 158.185 290.46C158.839 291.052 159.646 291.449 160.514 291.604C162.505 291.975 164.299 291.316 166.088 290.497C166.564 290.213 166.91 289.754 167.051 289.219C167.191 288.683 167.115 288.113 166.839 287.633C166.55 287.163 166.091 286.823 165.557 286.684C165.024 286.544 164.456 286.615 163.974 286.882C163.47 287.122 162.944 287.315 162.403 287.457C162.076 287.563 161.727 287.584 161.389 287.52C161.296 287.499 160.858 287.321 161.001 287.392C161.119 287.452 160.925 287.31 160.888 287.233C160.749 286.908 160.712 286.549 160.78 286.202C160.755 286.393 160.862 285.907 160.886 285.838C160.836 285.979 161.072 285.489 161.148 285.379C161.264 285.198 161.507 284.675 161.717 284.564C161.593 284.63 161.373 284.963 161.629 284.692C161.717 284.595 161.804 284.495 161.891 284.399C162.092 284.186 162.301 283.982 162.514 283.781C165.17 281.361 168.005 279.145 170.996 277.154C172.618 276.014 174.261 274.899 175.961 273.878C178.269 272.492 176.165 268.872 173.847 270.264L173.846 270.261Z" fill="#211715"/>
<path d="M180.691 274.587C177.527 276.576 174.483 278.738 171.437 280.901C168.662 282.872 165.647 284.714 164.141 287.914C162.711 290.953 163.792 294.576 167.107 295.767C170.666 297.047 173.957 294.348 176.733 292.492C180.373 290.059 183.921 287.489 187.617 285.141C189.886 283.7 187.792 280.076 185.504 281.527C182.031 283.734 178.689 286.133 175.28 288.434C173.679 289.664 171.968 290.744 170.168 291.661C169.369 292.002 168.198 292.05 167.784 291.275C167.317 290.403 167.969 289.43 168.651 288.521C169.874 287.123 171.309 285.925 172.903 284.972C176.165 282.658 179.415 280.328 182.803 278.198C185.078 276.767 182.977 273.141 180.689 274.584L180.691 274.587Z" fill="#211715"/>
<path d="M184.82 282.67C183.361 284.772 182.024 286.955 180.816 289.21C179.624 291.308 177.863 293.3 178.066 295.863C178.092 296.575 178.285 297.271 178.628 297.896C178.971 298.521 179.456 299.057 180.043 299.461C180.646 299.842 181.327 300.081 182.035 300.161C182.744 300.241 183.462 300.159 184.134 299.922C185.172 299.533 186.131 298.959 186.965 298.228C188.048 297.356 189.112 296.461 190.157 295.543C192.38 293.583 194.478 291.486 196.439 289.265C196.82 288.866 197.033 288.336 197.033 287.785C197.033 287.234 196.82 286.704 196.439 286.306C196.044 285.918 195.513 285.7 194.959 285.7C194.405 285.7 193.873 285.918 193.478 286.306C191.984 287.999 190.414 289.618 188.766 291.164C187.911 291.963 187.036 292.743 186.143 293.502C185.712 293.869 185.279 294.233 184.842 294.592C184.6 294.791 184.358 294.989 184.114 295.186C184.016 295.281 183.91 295.366 183.796 295.441C183.929 295.374 184.211 295.146 183.909 295.354C183.626 295.547 183.333 295.725 183.03 295.888C182.719 296.054 183.205 295.882 182.847 295.949C182.723 295.972 182.604 296.018 182.479 296.037C182.772 295.988 182.555 296.074 182.462 296.012C182.483 296.026 182.923 296.18 182.434 296.006C182.423 296.006 182.138 295.875 182.296 295.958C182.535 296.084 182.163 295.714 182.396 296.085C182.267 295.88 182.282 295.692 182.32 295.985C182.293 295.904 182.271 295.821 182.254 295.737C182.222 295.583 182.224 295.626 182.26 295.866L182.248 295.691C182.248 295.517 182.248 295.343 182.255 295.168C182.262 294.773 182.266 295.141 182.245 295.222C182.265 295.145 182.274 295.064 182.298 294.987C182.323 294.91 182.344 294.837 182.36 294.763C182.435 294.414 182.349 294.797 182.304 294.869C182.446 294.642 182.583 294.411 182.727 294.185C183.346 293.214 183.929 292.22 184.497 291.221C185.686 289 187.003 286.85 188.441 284.781C188.717 284.301 188.793 283.732 188.653 283.196C188.512 282.66 188.166 282.202 187.69 281.919C187.207 281.651 186.64 281.58 186.107 281.719C185.573 281.859 185.114 282.2 184.825 282.669L184.82 282.67Z" fill="#211715"/>
<path d="M195.242 290.702C198.889 291.751 202.791 291.464 206.245 289.895C208.845 288.777 211.235 287.227 213.824 286.105C214.301 285.823 214.647 285.364 214.788 284.828C214.928 284.292 214.852 283.722 214.575 283.242C214.285 282.773 213.826 282.434 213.293 282.294C212.759 282.154 212.192 282.225 211.71 282.491C209.411 283.488 207.278 284.864 204.991 285.901C202.308 287.222 199.227 287.495 196.353 286.667C193.764 285.896 192.659 289.934 195.24 290.702H195.242Z" fill="#211715"/>
<path d="M126.633 232.947C128.234 226.481 129.576 219.955 130.805 213.41C132.031 206.878 133.155 200.34 134.873 193.914C135.728 190.716 136.697 187.552 137.78 184.42C138.65 181.763 139.915 179.253 141.532 176.972C145.144 172.064 150.933 169.457 156.385 167.182C157.781 166.601 159.199 166.081 160.586 165.486C160.877 165.361 161.205 165.346 160.821 165.217C160.944 165.258 161.2 165.638 161.29 165.734C161.794 166.268 162.331 166.771 162.896 167.24C164.946 168.923 167.233 170.295 169.683 171.313C174.804 173.488 180.2 174.191 185.728 174.347C198.004 174.688 210.121 172.06 221.543 167.683C222.803 167.201 224.055 166.7 225.301 166.18C226.034 165.874 226.765 165.564 227.496 165.251C228.396 164.863 228.331 164.735 229.195 165.115C232.048 166.346 234.814 167.768 237.474 169.372C242.479 172.368 246.796 176.385 250.144 181.159C253.387 185.929 255.977 191.11 257.847 196.565C259.733 202.059 261.01 207.822 262.359 213.467C264.966 224.375 267 235.399 268.772 246.47C269.258 249.506 269.731 252.545 270.191 255.586C270.698 258.259 271.051 260.959 271.248 263.672C271.324 266.162 271.217 268.654 270.927 271.127C270.791 273.249 270.255 275.326 269.349 277.249C266.835 281.94 261.777 284.478 256.756 285.55C253.575 286.122 250.363 286.507 247.137 286.701C245.483 286.853 243.833 286.998 242.175 287.092C234.114 287.55 226.033 287.681 217.958 287.82C216.795 287.841 215.632 287.859 214.468 287.876L216.562 289.969C216.354 286.933 215.917 283.916 215.254 280.946C214.429 276.362 213.157 271.871 211.456 267.535C210.581 265.213 209.396 263.019 207.936 261.013C207.643 260.547 207.184 260.21 206.652 260.071C206.12 259.931 205.555 260 205.071 260.262C204.594 260.545 204.248 261.004 204.107 261.54C203.967 262.076 204.043 262.645 204.32 263.125C207.661 267.452 209.175 273.087 210.414 278.33C211.004 280.837 211.498 283.364 211.897 285.911C211.976 286.419 212.051 286.928 212.121 287.437C212.047 286.899 212.144 287.619 212.156 287.717C212.181 287.916 212.206 288.116 212.228 288.315C212.291 288.866 212.352 289.418 212.374 289.971C212.383 290.524 212.607 291.051 212.998 291.441C213.388 291.831 213.916 292.055 214.468 292.064C222.115 291.951 229.764 291.803 237.405 291.503C241.454 291.344 245.469 291.033 249.505 290.681C255.735 290.138 262.144 289.331 267.343 285.548C269.66 283.935 271.583 281.821 272.969 279.363C274.094 277.068 274.786 274.585 275.01 272.039C275.351 269.457 275.501 266.853 275.456 264.249C275.297 261.371 274.949 258.506 274.416 255.674C272.63 243.894 270.751 232.124 268.244 220.473C266.993 214.654 265.602 208.867 264.073 203.114C262.623 197.231 260.548 191.52 257.883 186.079C255.261 180.641 251.677 175.721 247.304 171.557C242.456 167.275 236.932 163.825 230.956 161.348C230.229 160.87 229.379 160.615 228.509 160.615C227.639 160.615 226.789 160.87 226.062 161.348C224.653 161.963 223.234 162.553 221.804 163.118C218.953 164.246 216.063 165.28 213.133 166.187C207.256 168.05 201.199 169.287 195.062 169.878C189.162 170.401 182.862 170.569 177.045 169.291C174.511 168.76 172.056 167.906 169.739 166.752C168.586 166.173 167.483 165.5 166.442 164.739C165.39 163.954 164.585 162.963 163.614 162.103C162.268 160.909 160.665 160.988 159.09 161.606C157.391 162.274 155.701 162.965 154.02 163.678C150.954 164.848 148.012 166.322 145.241 168.078C142.622 169.77 140.292 171.873 138.341 174.304C136.551 176.71 135.134 179.373 134.138 182.202C129.389 195.132 127.65 208.772 124.815 222.177C124.131 225.411 123.392 228.631 122.598 231.839C121.951 234.455 125.989 235.569 126.637 232.951L126.633 232.947Z" fill="#211715"/>
<path d="M206.884 291.878C191.662 301.208 176.21 310.195 160.703 319.045C158.205 320.471 155.709 321.908 153.174 323.269C150.799 324.544 152.913 328.159 155.289 326.883C160.92 323.859 166.433 320.599 171.964 317.398C180.251 312.6 188.511 307.757 196.744 302.869C200.841 300.433 204.925 297.974 208.996 295.492C211.289 294.086 209.188 290.465 206.881 291.878H206.884Z" fill="#211715"/>
<path d="M23.1433 235.463C26.0098 252.233 28.8985 268.998 31.8092 285.76C33.4863 295.429 35.1673 305.097 36.8525 314.764C37.253 317.06 37.3551 319.56 39.2083 321.227C40.5171 322.409 42.0833 322.638 43.7691 322.779C45.7069 322.943 47.6457 323.085 49.5854 323.215C61.3646 324.034 73.169 324.628 84.9657 325.21C98.6307 325.884 112.298 326.501 125.969 327.062C131.655 327.294 137.342 327.518 143.029 327.733C145.289 327.817 147.549 327.897 149.809 327.973C151.301 328.161 152.815 327.916 154.172 327.267C155.042 326.759 155.764 326.032 156.265 325.157C156.766 324.283 157.029 323.293 157.027 322.286C156.932 321.04 156.739 319.803 156.451 318.586L155.753 314.584C155.309 312.046 154.867 309.508 154.425 306.97C153.6 302.24 152.777 297.51 151.954 292.78C150.407 283.878 148.866 274.975 147.33 266.072C145.892 257.738 144.46 249.403 143.034 241.067C142.706 239.149 142.572 237.092 141.489 235.411C140.947 234.563 140.235 233.837 139.398 233.277C138.561 232.717 137.618 232.337 136.627 232.158C134.699 231.942 132.759 231.853 130.819 231.89C119.978 231.553 109.137 231.209 98.2962 230.857C85.1338 230.435 71.9716 230.01 58.8098 229.583L29.7099 228.647C28.2631 228.49 26.8049 228.814 25.5602 229.567C24.6967 230.145 24.008 230.948 23.5688 231.889C23.1295 232.831 22.9564 233.874 23.0682 234.907C23.0855 235.456 23.3116 235.979 23.7007 236.367C24.0897 236.756 24.6124 236.982 25.1623 237C25.7168 236.997 26.2477 236.775 26.6397 236.383C27.0318 235.991 27.2534 235.461 27.2564 234.907C27.0888 233.599 27.7022 232.783 29.0468 232.814C29.7954 232.83 30.5432 232.862 31.291 232.886L36.9729 233.07L52.0066 233.556C64.5031 233.963 76.9992 234.366 89.495 234.766C101.093 235.14 112.69 235.51 124.288 235.877L130.576 236.074C132.241 236.126 133.971 236.048 135.627 236.234C136.245 236.299 136.831 236.545 137.31 236.941C137.79 237.337 138.142 237.865 138.322 238.46C138.794 240.399 139.141 242.367 139.363 244.35C140.035 248.28 140.709 252.209 141.385 256.137C144.386 273.594 147.409 291.047 150.455 308.495C150.873 310.898 151.292 313.301 151.712 315.704L152.337 319.279C152.512 320.27 153.006 321.571 152.831 322.574C152.63 323.729 151.594 323.85 150.602 323.818L147.683 323.719C142.663 323.544 137.644 323.355 132.626 323.15C119.681 322.633 106.739 322.068 93.7983 321.455C81.4328 320.869 69.0673 320.256 56.7105 319.497C52.4403 319.235 48.1692 318.961 43.906 318.605C43.0291 318.532 42.0859 318.559 41.6375 317.642C41.2853 316.554 41.0716 315.427 41.0014 314.286C40.7815 313.024 40.5619 311.762 40.3426 310.501C39.5085 305.715 38.6755 300.929 37.8437 296.143C34.919 279.317 32.0105 262.489 29.1184 245.656C28.4721 241.887 27.8267 238.117 27.1822 234.348C27.0306 233.815 26.6755 233.363 26.1934 233.09C25.7114 232.816 25.1411 232.743 24.6056 232.886C24.0765 233.045 23.6289 233.401 23.3564 233.881C23.084 234.361 23.0076 234.928 23.1433 235.463Z" fill="#211715"/>
<path d="M279.105 285.314C282.644 285.314 286.183 285.295 289.722 285.285L313.118 285.213L341.33 285.126L366.393 285.05C371.046 285.037 375.696 285.025 380.343 285.014H380.904C383.6 285.014 383.604 280.828 380.904 280.828C376.896 280.828 372.888 280.846 368.878 280.858L344.757 280.93L316.504 281.017L292.082 281.093C287.876 281.105 283.66 281.032 279.455 281.13C279.338 281.13 279.221 281.13 279.106 281.13C276.411 281.13 276.406 285.315 279.106 285.315L279.105 285.314Z" fill="#211715"/>
<path d="M2.02242 285.312C9.64051 285.304 17.256 285.019 24.8741 285.015C27.5693 285.015 27.5737 280.829 24.8741 280.829C17.256 280.829 9.64051 281.119 2.02242 281.126C-0.671959 281.126 -0.676322 285.312 2.02242 285.312Z" fill="#211715"/>
<path d="M176.277 126.246C175.986 126.963 175.736 127.695 175.526 128.44C175.161 129.682 174.721 131.243 175.761 132.294C175.99 132.514 176.249 132.7 176.529 132.849C176.813 133.005 177.117 133.122 177.432 133.198C177.858 133.271 178.29 133.301 178.722 133.285C179.277 133.28 179.808 133.062 180.206 132.675C180.598 132.283 180.819 131.75 180.819 131.195C180.819 130.64 180.598 130.108 180.206 129.716C179.806 129.332 179.276 129.114 178.722 129.105C178.496 129.118 178.268 129.116 178.042 129.1L178.598 129.175C178.484 129.155 178.372 129.124 178.263 129.082L178.764 129.293C178.604 129.221 178.453 129.131 178.314 129.023L178.738 129.35C178.732 129.346 178.727 129.341 178.722 129.335L179.05 129.758C179.043 129.748 179.037 129.737 179.031 129.725L179.242 130.226C179.233 130.2 179.227 130.173 179.224 130.146L179.298 130.703C179.29 130.593 179.295 130.483 179.311 130.374L179.237 130.93C179.348 130.261 179.517 129.603 179.742 128.963C179.917 128.423 180.091 127.878 180.311 127.355C180.386 127.086 180.405 126.805 180.369 126.527C180.333 126.25 180.242 125.983 180.101 125.742C179.962 125.505 179.778 125.297 179.559 125.131C179.34 124.965 179.09 124.843 178.824 124.773C178.558 124.704 178.281 124.687 178.008 124.725C177.736 124.762 177.473 124.853 177.236 124.991L176.812 125.319C176.555 125.575 176.37 125.893 176.273 126.243L176.277 126.246Z" fill="#211715"/>
<path d="M160.6 117.059C160.007 118.916 160.272 123.222 163.66 123.653C168.15 123.712 168.503 118.52 167.046 116.047C165.853 114.022 162.233 113.12 160.6 117.059Z" fill="#211715"/>
<path d="M199.127 117.216C199.688 119.18 199.203 123.662 195.496 123.967C190.605 123.837 190.458 118.403 192.157 115.884C193.547 113.823 197.529 113.036 199.127 117.216Z" fill="#211715"/>
<path d="M174.366 144.781C176.439 145.422 178.623 145.622 180.778 145.366C183.178 145.178 185.517 144.512 187.657 143.409C188.133 143.125 188.478 142.666 188.619 142.131C188.759 141.595 188.683 141.026 188.408 140.545C188.12 140.075 187.661 139.734 187.127 139.594C186.593 139.454 186.026 139.526 185.544 139.795C185.352 139.898 185.159 139.999 184.962 140.092C184.956 140.092 184.481 140.309 184.754 140.19C184.998 140.083 184.657 140.227 184.613 140.245C184.153 140.419 183.685 140.573 183.21 140.706C182.723 140.84 182.23 140.953 181.732 141.043C181.615 141.065 181.497 141.085 181.379 141.104C181.333 141.112 180.95 141.173 181.212 141.133C181.475 141.093 181.092 141.147 181.046 141.152C180.897 141.17 180.749 141.185 180.6 141.198C179.646 141.286 178.686 141.293 177.731 141.22C177.593 141.21 177.455 141.195 177.317 141.182C176.953 141.148 177.387 141.204 177.391 141.196C177.181 141.175 176.973 141.139 176.768 141.089C176.331 141.003 175.901 140.888 175.48 140.745C174.944 140.601 174.374 140.674 173.892 140.948C173.41 141.221 173.055 141.673 172.904 142.206C172.77 142.741 172.846 143.307 173.119 143.787C173.391 144.266 173.838 144.623 174.366 144.781Z" fill="#211715"/>
</g>
<defs>
<clipPath id="clip0_1707_904">
<rect width="383" height="328" fill="white"/>
</clipPath>
</defs>
</svg>
