<svg width="105" height="179" viewBox="0 0 105 179" fill="none" xmlns="http://www.w3.org/2000/svg">
<rect y="148.187" width="104.499" height="30.0146" fill="#48A0F0"/>
<path d="M36.2877 158.073H47.1677V159.433H36.2877V158.073ZM32.8677 161.753H50.6077V163.173H32.8677V161.753ZM38.1277 162.733H39.7277C39.3077 166.633 38.1877 169.333 33.3077 170.693C33.1477 170.313 32.7477 169.713 32.4277 169.413C36.9277 168.293 37.7877 165.993 38.1277 162.733ZM43.1877 162.613H44.6877V168.233C44.6877 168.833 44.8277 168.933 45.6677 168.933C46.0677 168.933 47.9677 168.933 48.4877 168.933C49.2477 168.933 49.3877 168.573 49.4477 166.273C49.7677 166.513 50.4077 166.753 50.8077 166.873C50.6477 169.613 50.2077 170.313 48.6077 170.313C48.2077 170.313 45.9077 170.313 45.5077 170.313C43.6677 170.313 43.1877 169.853 43.1877 168.253V162.613ZM40.9077 152.273H42.4877V155.453H40.9077V152.273ZM33.3277 154.413H50.1477V158.653H48.5677V155.833H34.8477V158.653H33.3277V154.413ZM56.3477 159.753H61.3277V161.153H56.3477V159.753ZM60.7277 159.753H62.1877C62.1877 159.753 62.1877 160.193 62.1877 160.393C62.0877 164.913 61.9677 166.593 61.5477 167.153C61.2277 167.513 60.9077 167.653 60.3477 167.713C59.8277 167.773 58.9277 167.753 57.9477 167.713C57.9077 167.273 57.7477 166.693 57.5277 166.313C58.4277 166.393 59.3077 166.393 59.6477 166.393C59.9277 166.393 60.1277 166.373 60.2677 166.193C60.5677 165.833 60.6677 164.333 60.7277 160.013V159.753ZM66.3677 153.273L67.2677 152.333C68.5077 152.973 70.0877 153.933 70.8677 154.633L69.9277 155.653C69.1677 154.953 67.6277 153.933 66.3677 153.273ZM69.2277 158.693L70.7277 159.053C69.0277 164.273 66.0477 168.133 61.9477 170.553C61.7277 170.253 61.1677 169.633 60.8477 169.333C64.9077 167.173 67.7277 163.513 69.2277 158.693ZM56.4677 155.653H71.9477V157.133H56.4677V155.653ZM55.5077 155.653H57.0677V161.293C57.0677 164.133 56.7477 168.173 54.9277 170.793C54.6677 170.493 54.0277 169.973 53.6677 169.793C55.3277 167.333 55.5077 163.893 55.5077 161.273V155.653ZM63.8077 152.293H65.3677C65.3277 161.493 67.2877 168.993 69.8877 168.993C70.4477 168.993 70.7077 167.953 70.8277 165.293C71.1677 165.633 71.7277 165.973 72.1277 166.113C71.8477 169.533 71.2877 170.513 69.7677 170.513C65.6877 170.513 63.8877 161.873 63.8077 152.293Z" fill="white"/>
<path fill-rule="evenodd" clip-rule="evenodd" d="M53.0703 11.9443C55.9955 11.5439 58.249 9.0351 58.249 6C58.249 2.68629 55.5627 0 52.249 0C48.9353 0 46.249 2.68629 46.249 6C46.249 8.91027 48.321 11.3366 51.0703 11.8843L51.0703 148.187H53.0703L53.0703 11.9443Z" fill="#48A0F0"/>
</svg>
