<svg width="1574" height="810" viewBox="0 0 1574 810" fill="none" xmlns="http://www.w3.org/2000/svg">
<path fill-rule="evenodd" clip-rule="evenodd" d="M0 40C0 17.9086 17.9086 0 40 0H1534C1556.09 0 1574 17.9086 1574 40V769.415C1574 791.506 1556.09 809.415 1534 809.415H40C17.9086 809.415 0 791.506 0 769.415V40ZM835.804 80.5737C835.804 58.4824 853.712 40.5737 875.804 40.5737H1486.48C1508.57 40.5737 1526.48 58.4823 1526.48 80.5737V669.367C1526.48 691.458 1508.57 709.367 1486.48 709.367H1051.3V709.379H1074.39C1061.81 709.398 1051.58 719.443 1051.27 731.95H1051.26V730.784C1050.37 752.079 1032.82 769.068 1011.3 769.068H87.4521C65.3607 769.068 47.4521 751.16 47.4521 729.068V336.382C47.4521 314.29 65.3607 296.382 87.4521 296.382H835.804V296.331L795.907 296.331C817.024 296.331 834.319 279.967 835.804 259.228V80.5737Z" fill="white"/>
</svg>
