<svg width="1413" height="810" viewBox="0 0 1413 810" fill="none" xmlns="http://www.w3.org/2000/svg">
<path fill-rule="evenodd" clip-rule="evenodd" d="M0 40C0 17.9086 17.9086 0 40 0H1373C1395.09 0 1413 17.9086 1413 40V769.415C1413 791.506 1395.09 809.415 1373 809.415H40C17.9086 809.415 0 791.506 0 769.415V40ZM750.312 80.5737C750.312 58.4824 768.22 40.5737 790.312 40.5737H1330.34C1352.43 40.5737 1370.34 58.4823 1370.34 80.5737V669.367C1370.34 691.458 1352.43 709.367 1330.34 709.367H943.765V709.379L966.893 709.379C954.299 709.379 944.053 719.432 943.74 731.95H943.733V730.692C942.881 752.03 925.313 769.068 903.765 769.068H82.5983C60.5069 769.068 42.5983 751.16 42.5983 729.068V336.382C42.5983 314.29 60.5069 296.382 82.5983 296.382H750.312V296.331L710.405 296.331C731.571 296.331 748.898 279.891 750.312 259.083V80.5737Z" fill="white"/>
</svg>
