<svg xmlns="http://www.w3.org/2000/svg" width="926" height="364" fill="none" viewBox="0 0 926 364">
  <g class="Group 122">
    <path fill="#48A0F0" d="M141.088 101.134c4.915-.59 9.685 3.158 10.026 8.767.472 9.471.386 18.899.312 28.436-.061 15.185-.34 30.397-.496 45.704-.092 7.545-2.141 10.782-7.121 10.826-5.212-.039-9.27-4.316-9.402-10.947-.288-10.712-.236-21.354-.246-33.429-6.203 1.852-12.227 3.351-18.064 5.492-.847.323-1.446 2.722-1.494 4.168-.2 7.558-.06 15.185-.139 22.839.044 4.98-.253 9.891-6.832 10.459-5.159.398-9.707-4.263-9.69-10.58-.127-15.828.182-31.708.273-47.562.057-5.989.236-11.883.074-17.846-.184-7.068 2.153-10.673 7.243-10.73 5.526-.109 9.895 4.906 9.768 11.236-.1 6.549-.104 12.975-.222 20.301 6.256-1.415 11.87-2.643 17.322-4.295 1.066-.349 2.224-2.704 2.272-4.15.261-6.125.292-12.333.213-18.528-.14-4.858-.022-9.414 6.203-10.161Zm92.992 68.827c.363 1.175.725 2.35 1.586 4.905-1.044 1.455-2.223 5.474-3.862 5.671-3.167.38-7.789-.283-9.812-2.367-2.918-3.084-4.696-7.746-5.658-12.062-1.284-5.164-3.77-4.644-8.056-4.351-11.983.774-18.356 6.746-19.466 18.734-.227 1.8-1.013 3.556-1.581 5.286-1.384 4.155-3.923 7.008-8.667 6.248-4.757-.869-7.785-3.941-7.829-8.921-.07-2.429.856-4.867 1.345-7.252 6.465-27.365 12.698-54.814 19.38-82.206 1.018-4.443 3.25-8.92 5.928-12.455 4.023-5.247 12.971-1.779 15.212 5.818 2.014 6.627 3.072 13.591 4.881 20.354 5.383 20.847 10.998 41.777 16.599 62.598Zm-35.828-22.511c4.303-1.07 7.54-1.791 11.31-2.687-1.739-7.103-3.426-13.77-5.112-20.436l-1.119-.088c-1.659 7.401-3.197 14.898-5.079 23.211Zm119.452-54.445c3.054 8.829-.72 16.151-6.386 22.481-9.576 10.678-22.21 16.183-35.6 20.006-.751.201-1.489.511-2.446.848-.747 10.393-1.231 20.2-2.152 30.06-.393 5.033-1.319 10.241-8.073 10.276-5.758.026-9.813-5.137-9.546-12.149.362-12.673 1.051-25.386 1.291-38.156.009-7.313-.555-14.779-1.215-22.123-.166-2.306-1.752-4.443-2.792-6.644-2.176-4.281-2.102-8.279 2.385-10.59 13.857-7.314 28.465-12.059 44.433-10.098 9.681 1.275 16.859 6.618 20.101 16.089Zm-17.628 8.209c3.504-4.963 1.477-8.93-4.718-8.85-4.871.03-9.72 1.167-14.635 1.757-5.146.507-7.234 3.416-7.055 8.602.14 4.858-.266 9.781-.406 16.002 11.206-3.561 20.48-8.441 26.814-17.511Zm105.828-18.797c3.054 8.829-.72 16.151-6.386 22.481-9.576 10.678-22.21 16.183-35.599 20.006-.752.201-1.49.511-2.447.848-.746 10.393-1.231 20.2-2.152 30.06-.393 5.033-1.319 10.241-8.073 10.276-5.758.026-9.812-5.137-9.546-12.149.362-12.673 1.052-25.386 1.291-38.156.009-7.313-.555-14.779-1.215-22.123-.166-2.306-1.752-4.442-2.792-6.644-2.176-4.281-2.102-8.279 2.385-10.59 13.857-7.314 28.466-12.059 44.433-10.098 9.681 1.275 16.859 6.618 20.101 16.089Zm-17.627 8.21c3.503-4.963 1.476-8.93-4.719-8.851-4.871.03-9.72 1.167-14.635 1.757-5.146.507-7.234 3.416-7.055 8.602.14 4.858-.266 9.781-.405 16.002 11.205-3.561 20.48-8.44 26.814-17.51ZM477.753 55.4c1.516 2.477 1.481 6.802.376 9.593-3.372 8.825-8.256 17.056-11.397 25.964-2.765 7.422-3.323 15.688-5.979 23.097-3.984 11.114-9.344 21.84-9.09 34.107.004 1.883.472 3.931-.231 5.456-1.079 3.01-2.398 7.711-4.447 8.178-2.923.573-7.554-1.087-9.384-3.415-2.102-2.739-2.871-7.3-2.648-10.983.655-8.388 2.537-16.702 3.315-24.993.331-3.696.065-7.763-1.228-11.153-4.553-12.084-9.748-23.98-14.519-36.037-2.547-6.452-1.163-10.607 3.088-12.114 4.784-1.682 10.048 1.563 12.215 7.618 2.53 7.23 5.182 14.556 8.184 22.948 5.971-13.014 10.911-24.465 16.437-35.653 1.337-2.709 4.421-5.627 7.029-6.05 2.595-.534 6.911 1.274 8.279 3.437Z" class="HAPPY"/>
    <path fill="#48A0F0" d="m433.359 186.819.013.11c4.697 2.206 6.737 6.281 4.776 11.17-9.021 22.687-11.335 46.785-14.685 70.563-.568 4.5-.292 9.563-5.744 11.215-5.234 1.625-9.38-1.533-12.158-5.299-4.609-6.094-8.397-12.73-12.487-19.108-1.245-2.066-2.285-4.268-4.002-7.496-5.054 9.581-9.558 18.209-14.157 26.959-2.246 4.369-4.303 9.38-10.642 8.258-6.435-1-8.24-5.88-9.044-11.656-3.531-22.952-7.293-45.988-10.824-68.941-1.258-7.715.34-11.009 5.364-11.612 5.12-.725 9.59 3.28 10.787 9.563 2.613 15.307 5.348 30.711 8.254 47.535 3.949-6.79 6.57-12.644 10.415-17.537 2.485-3.289 6.596-6.885 10.309-7.331 5.557-.778 8.262 4.216 10.175 9.082 2.495 6.016 5.208 12.005 8.393 19.156 2.647-13.944 4.674-26.596 7.504-39.012 1.66-7.401 4.123-14.565 6.928-21.66 1.891-4.548 6.129-6.165 10.825-3.959Zm51.055 3.178c14.067 2.743 22.455 11.707 24.212 26.342 2.325 18.444-10.098 42.315-26.568 50.94-11.887 6.19-24.648 1.407-27.763-11.624-5.44-23.167-.177-44.849 11.928-64.915 3.424-5.618 8.256-5.976 13.861-2.661 1.429.826 2.858 1.651 4.33 1.918Zm-14.213 63.416c13.206-5.352 23.943-24.811 21.732-38.616-.279-1.406-.271-3.18-1.153-4.071-2.294-2.495-5.208-6.465-7.501-6.19-2.866.122-7.099 3.622-7.768 6.361-2.799 11.747-4.59 23.595-6.49 35.456-.284 2.25.782 4.67 1.18 7.06Zm130.442-14.883c1.682 2.014 2.573 6.671 1.363 8.588-1.21 1.918-5.731 3.015-8.335 2.552-7.619-1.633-14.946-4.521-22.482-6.386-7.632-1.743-15.294-2.817-23.556-4.263.071 5.199-.06 9.646.246 14.041.14 4.858-.603 8.825-6.256 9.725-4.574.66-9.414-2.747-10.262-7.964-.966-6.199-1.739-12.642-1.735-19.069-.075-15.39.287-30.834.539-46.264.205-8.444 1.822-9.746 10.131-9.747 1.555.035 3.416-1.075 4.596-2.324 5.469-5.199 11.423-9.127 19.418-6.209 8.349 3.097 11.643 10.236 12.722 18.304 1.661 11.988-2.144 22.748-8.945 32.539-.743 1.197-1.485 2.394-2.516 3.958 9.156 2.446 17.592 4.424 25.766 6.988 3.351 1.149 7.108 2.914 9.306 5.531Zm-53.303-20.413c9.943-7.619 15.468-21.577 11.934-29.794-9.056 7.623-12.066 17.623-11.934 29.794ZM659.348 194.7c6.348 10.428 13.19 20.353 23.264 27.675 3.508 2.459 6.164 6.129 3.264 10.576-3.08 4.801-8.139 4.19-11.372 1.254-7.811-6.928-14.841-14.726-22.159-22.156-1.14-1.193-1.966-2.534-4.093-5.492-3.412 11.267-6.53 21.28-9.636 31.403-.459 1.717-.564 3.613-1.009 5.439-1.603 6.95-8.641 9.235-13.473 4.054-2.538-2.686-4.592-6.871-4.67-10.296-.373-18.79-.295-37.523.015-56.173.095-8.431.969-16.845 1.501-25.329.376-7.025 3.054-10.559 7.842-10.359 5.784.192 10.07 5.439 9.546 12.149-.686 9.057-1.603 18.03-2.411 26.99-.131 1.678.175 3.303.232 5.622 7.221-11.835 13.769-22.813 20.453-33.587 2.254-3.372 4.849-6.675 7.714-9.567 3.949-4.02 8.917-4.173 12.748-.866 3.98 3.621 3.771 7.413.171 12.499-6.238 8.947-12 18.17-18.225 27.226-2.158 3.25-1.747 5.749.298 8.938Z" class="WORK"/>
  </g>
</svg>
