<svg width="204" height="174" viewBox="0 0 204 174" fill="none" xmlns="http://www.w3.org/2000/svg">
<g clip-path="url(#clip0_1743_1135)">
<path d="M145.231 138.493C143.28 125.451 141.945 117.339 138.66 105.428C137.492 101.479 135.651 97.7617 133.217 94.4402C132.015 92.9019 130.611 91.5318 129.045 90.3664C126.86 88.7428 124.476 87.4058 121.951 86.3883C121.835 86.3391 121.71 86.3144 121.583 86.3155C121.457 86.3166 121.332 86.3436 121.217 86.3948C113.538 89.7846 105.457 92.0752 96.169 91.2079C93.0647 90.9181 88.9142 89.5906 86.5613 86.8915C86.4371 86.7493 86.2721 86.6489 86.0888 86.6039C85.9054 86.5589 85.7127 86.5716 85.5368 86.6401C83.8215 87.3055 82.182 87.9959 80.5028 88.7417C79.0527 89.4112 77.699 90.2724 76.478 91.3021C74.6834 92.8485 73.3499 94.8597 72.6242 97.1148C71.269 100.98 70.2258 104.948 69.5046 108.98C68.5943 113.975 67.7949 118.333 66.575 123.245C66.575 123.245 66.5209 123.528 66.4336 123.984C68.8554 124.061 70.8784 124.123 72.3289 124.169C72.9685 124.188 73.5819 124.428 74.0647 124.848C74.5475 125.268 74.8699 125.842 74.9772 126.473C75.6842 130.612 76.4032 134.805 77.149 139.138C77.1832 139.334 77.2164 139.527 77.2506 139.724C80.0232 135.519 81.7962 131.289 83.8636 127.239C84.6954 128.927 85.6588 130.555 86.4462 132.264C86.9248 133.327 87.3194 134.426 87.6264 135.55C87.6865 135.763 87.7576 135.971 87.8371 136.177C88.3523 137.512 88.2798 139.784 89.2982 142.192C90.7125 141.275 92.1736 140.433 93.6756 139.669C95.5563 138.713 97.6634 137.863 99.7197 138.306C102.344 138.875 103.617 140.034 106.223 140.672C108.128 141.141 109.163 140.672 110.809 140.663C113.12 145.11 114.117 152.501 114.162 153.76C116.489 153.726 127.331 153.554 130.843 153.197C133.612 152.915 136.451 152.853 139.046 151.847C139.756 151.573 140.437 151.229 141.079 150.82C142.834 149.776 144.143 148.121 144.757 146.173C145.32 143.654 145.48 141.062 145.231 138.493Z" fill="#CDEEFF"/>
<path d="M89.1613 85.8054C90.1372 85.4233 91.1945 85.0037 92.4842 84.4326C92.7635 84.3056 93.0233 84.1393 93.2554 83.9386C96.6763 84.8557 100.287 84.7834 103.669 83.7302C106.61 82.767 109.292 81.1437 111.509 78.9845C112.187 78.3698 112.83 77.718 113.436 77.0322C113.927 78.7 114.564 80.3212 115.341 81.8768C115.785 82.776 119.268 85.4529 121.074 86.4607C113.438 89.8141 105.4 92.0709 96.1703 91.2087C93.066 90.9189 88.9155 89.5913 86.5625 86.8923C86.5542 86.8826 86.5454 86.8733 86.5371 86.8641L86.5727 86.8502C87.4456 86.4741 88.2695 86.1552 89.1613 85.8054Z" fill="white"/>
<path d="M86.5884 52.1145C87.9119 50.9251 89.2196 49.7204 90.4825 48.5412C90.3845 49.9787 90.2311 51.3622 89.9973 52.8062C89.983 52.8896 89.9905 52.9753 90.0191 53.0549C90.0476 53.1345 90.0963 53.2054 90.1603 53.2607C90.2243 53.316 90.3015 53.3539 90.3844 53.3706C90.4673 53.3873 90.5531 53.3823 90.6336 53.3561C96.0271 51.5212 100.991 48.3716 104.214 44.3916C105.003 46.5673 105.917 48.6955 106.952 50.7657C108.246 53.3159 111.503 57.728 114.365 58.4862C115.115 58.7686 116.091 59.0477 116.84 59.33C118.101 58.0986 120.269 58.0953 121.706 59.1147C122.404 59.6568 122.959 60.3611 123.323 61.1664C123.687 61.9717 123.848 62.8536 123.794 63.7356C123.663 65.5053 123.009 67.1964 121.917 68.5944C120.513 70.4415 118.639 71.877 116.49 72.7505C115.173 75.0809 113.492 77.1858 111.511 78.9854C109.293 81.1443 106.612 82.7672 103.67 83.7302C100.289 84.7834 96.6782 84.8556 93.2573 83.9386C91.4149 83.4579 89.6578 82.6956 88.0482 81.6785C86.1949 80.4398 84.5899 78.8651 83.3159 77.0359C81.718 74.8618 80.4942 72.4362 79.695 69.8592C78.9353 67.524 78.434 65.1126 78.2001 62.6682C78.0393 61.2819 77.9751 60.1077 77.9492 59.2598C78.4515 58.8901 79.091 58.3818 79.6673 57.977C81.9232 56.2151 84.2803 54.1884 86.5884 52.1145Z" fill="white"/>
<path d="M84.6125 152.058C84.6102 152.005 84.6098 151.951 84.6125 151.9C84.6254 151.37 84.8266 150.862 85.18 150.468L85.5894 149.948L85.0571 150.06C84.6694 150.153 84.2627 150.129 83.889 149.99C83.5153 149.851 83.1916 149.603 82.9592 149.279C82.571 148.706 82.8159 147.74 82.9869 147.394C83.2663 146.926 83.6135 146.503 84.0174 146.137C84.4841 145.675 86.508 144.127 87.0348 143.743C89.1363 142.21 91.3567 140.847 93.675 139.668C95.5557 138.711 97.6628 137.861 99.7191 138.304C102.344 138.873 103.616 140.032 106.222 140.67C108.058 141.122 109.087 140.705 110.63 140.664C112.145 143.583 113.096 147.769 113.584 150.658L113.263 150.753C112.604 151.03 110.937 152.064 109.018 152.86C108.161 153.212 107.244 153.392 106.318 153.388C105.392 153.384 104.476 153.196 103.622 152.836C102.117 154.51 100.471 156.051 98.7016 157.444C98.3726 157.708 97.2816 158.51 96.3912 157.756C95.8066 157.26 95.9434 156.125 96.2318 155.684C97.618 153.555 98.2104 151.976 99.7464 150.014C97.1998 151.596 94.7503 153.449 92.2144 155.055C91.3895 155.577 90.7015 156.031 89.7399 155.862C89.3081 155.794 88.9172 155.568 88.6425 155.227C88.3678 154.887 88.2288 154.458 88.2524 154.021C88.3033 153.555 88.4731 153.109 88.7455 152.727L87.9816 153.082C87.5156 153.321 87.0154 153.487 86.4988 153.573C86.2339 153.613 85.9635 153.595 85.7065 153.519C85.4496 153.443 85.2123 153.312 85.0113 153.135C84.7645 152.829 84.6244 152.451 84.6125 152.058Z" fill="white"/>
<path d="M13.9081 124.579C16.1349 137.615 18.4856 151.203 21.4831 168.409C21.5547 168.824 21.761 169.203 22.0701 169.489C22.3792 169.774 22.7739 169.95 23.1929 169.988C33.534 170.909 68.5067 172.423 80.6671 172.817C80.9505 172.826 81.2323 172.771 81.4921 172.657C81.7518 172.544 81.9829 172.373 82.1686 172.159C82.3543 171.945 82.4899 171.692 82.5654 171.419C82.641 171.145 82.6547 170.859 82.6055 170.579C79.6121 153.444 77.2337 139.689 74.9787 126.473C74.8717 125.843 74.5496 125.269 74.0673 124.849C73.5849 124.429 72.9721 124.189 72.3328 124.169C62.3596 123.868 25.5005 122.668 15.8452 122.357C15.5632 122.348 15.2826 122.402 15.0239 122.514C14.7652 122.627 14.5347 122.796 14.3492 123.008C14.1638 123.221 14.028 123.472 13.9517 123.744C13.8754 124.015 13.8605 124.301 13.9081 124.579Z" fill="white"/>
<path d="M74.6566 84.8752C74.8629 87.0451 75.8416 89.0687 77.4143 90.5778C78.3725 89.8524 79.409 89.2366 80.5043 88.742C82.1835 87.9961 83.823 87.3058 85.5383 86.6404C85.7142 86.5718 85.9069 86.5592 86.0902 86.6042C86.2736 86.6491 86.4386 86.7496 86.5627 86.8918C86.5655 86.8793 86.5456 86.8728 86.5373 86.8636L86.5729 86.8497C87.4458 86.4736 88.2697 86.1566 89.1606 85.8049C90.1365 85.4228 91.1938 85.0032 92.4835 84.4321C92.7628 84.3051 93.0226 84.1387 93.2547 83.9381C91.4123 83.4574 89.6552 82.6951 88.0456 81.678C86.1923 80.4393 84.5873 78.8646 83.3133 77.0354C81.7154 74.8613 80.4916 72.4357 79.6924 69.8587C78.9327 67.5235 78.4314 65.1121 78.1975 62.6677C78.0367 61.2814 77.9725 60.1072 77.9466 59.2593C78.4489 58.8896 79.0885 58.3813 79.6647 57.9765C81.9206 56.2146 84.2777 54.1874 86.5858 52.114C87.9093 50.9246 89.217 49.7199 90.4799 48.5407C90.3819 49.9782 90.2285 51.3617 89.9947 52.8058C89.9804 52.8891 89.9879 52.9748 90.0165 53.0544C90.045 53.134 90.0937 53.2049 90.1577 53.2602C90.2217 53.3155 90.2989 53.3534 90.3818 53.3701C90.4647 53.3868 90.5505 53.3818 90.631 53.3556C96.0245 51.5207 100.988 48.3711 104.211 44.3911C105 46.5667 105.915 48.6949 106.95 50.7652C108.244 53.3154 111.501 57.7275 114.362 58.4857C115.112 58.7681 116.088 59.0472 116.838 59.3295C118.098 58.0981 120.266 58.0948 121.704 59.1142C122.402 59.6563 122.956 60.3606 123.32 61.1659C123.684 61.9712 123.846 62.8531 123.791 63.7351C123.66 65.5048 123.007 67.1959 121.914 68.5939C120.511 70.441 118.637 71.8765 116.488 72.75C115.621 74.279 114.597 75.7134 113.433 77.0298L113.436 77.0326C113.926 78.7004 114.564 80.3216 115.34 81.8772C115.784 82.7759 119.265 85.4505 121.07 86.4592C121.119 86.438 121.168 86.4176 121.217 86.3959C121.332 86.3447 121.457 86.3178 121.583 86.3166C121.709 86.3155 121.835 86.3403 121.951 86.3895C123.716 87.1257 125.422 87.9951 127.055 88.9901C128.353 87.4726 128.395 85.8151 128.421 84.6797C128.48 82.4978 128.158 80.3223 127.467 78.2516C126.609 75.4088 125.037 69.6369 125.238 59.4316C125.602 56.4863 125.466 52.2078 125.4 50.5628C125.169 44.8606 122.758 38.4172 119.103 34.7542C119.068 34.7196 119.028 34.6826 118.987 34.6466C118.041 33.8091 117.043 33.0324 116 32.3209C115.93 32.2696 115.861 32.2215 115.784 32.1721C114.338 31.2043 112.779 30.416 111.142 29.8247C107.785 28.5116 104.207 27.8563 100.602 27.8945C94.6357 27.8198 88.8424 29.8984 84.2846 33.7492C78.2645 39.0641 74.6496 46.4622 75.5784 58.5458C76.8769 67.6157 73.9805 77.3958 74.6566 84.8752Z" fill="#7B7B7B"/>
<path d="M78.1949 89.7969C77.1088 88.7341 76.3324 87.3956 75.9492 85.9251C75.6795 84.5711 75.5843 83.1883 75.6659 81.8102C75.7195 78.4249 76.1742 75.0581 76.5217 71.695C76.9614 68.153 77.1013 64.5803 76.9399 61.0148C76.8239 59.2528 76.5832 57.5181 76.549 55.747C76.5142 54.1624 76.575 52.5772 76.731 50.9999C77.2361 46.0329 79.0309 41.1958 82.2544 37.3914C85.4746 33.5437 89.85 30.8374 94.7308 29.6745C100.984 28.2085 107.555 29.0195 113.264 31.9618C114.02 32.3499 114.749 32.7888 115.446 33.2756C115.7 33.4219 116.002 33.4622 116.286 33.3877C116.57 33.3133 116.813 33.1301 116.963 32.8777C117.104 32.6227 117.142 32.3231 117.068 32.0411C116.994 31.7591 116.814 31.5164 116.566 31.3634C113.95 29.4661 110.677 28.2674 107.545 27.5447C104.074 26.7437 100.489 26.5672 96.9558 27.0235C91.2748 27.7445 85.9991 30.3474 81.9702 34.4169C78.2836 38.202 75.8214 43.0091 74.9039 48.2126C74.3401 51.4873 74.1849 54.8193 74.4419 58.1323C74.5703 60.0005 74.8115 61.8331 74.8115 63.7129C74.8115 65.5927 74.6979 67.4609 74.5343 69.3282C74.227 72.8761 73.7205 76.4083 73.5204 79.9655C73.3439 83.0957 73.2672 86.4287 74.934 89.2073C75.4117 89.9906 75.9812 90.7141 76.6303 91.3625C77.6354 92.3791 79.2032 90.8112 78.1986 89.7941L78.1949 89.7969Z" fill="#211715"/>
<path d="M118.207 35.4296C120.666 37.6938 122.211 41.0597 123.171 44.2019C124.111 47.2757 124.341 50.3685 124.373 53.5615C124.42 55.5208 124.34 57.481 124.135 59.43L125.244 58.321H125.239C124.947 58.3257 124.667 58.444 124.46 58.651C124.253 58.858 124.135 59.1374 124.13 59.43C124.011 63.8907 124.312 68.3526 125.03 72.7567C125.26 74.0964 125.547 75.4248 125.89 76.7418C126.294 78.2791 126.822 79.7823 127.1 81.3511C127.302 82.5992 127.37 83.8656 127.302 85.1282C127.312 86.2375 126.953 87.3186 126.28 88.2011C126.08 88.413 125.968 88.6936 125.968 88.9853C125.968 89.2769 126.08 89.5575 126.28 89.7694C126.49 89.9753 126.771 90.0906 127.065 90.0906C127.358 90.0906 127.64 89.9753 127.849 89.7694C129.454 87.8162 129.654 85.4475 129.509 83.0081C129.317 80.9832 128.903 78.9854 128.275 77.0509C127.451 74.1063 126.901 71.0919 126.632 68.0462C126.379 65.1815 126.284 62.3051 126.348 59.43L125.239 60.5391H125.244C125.536 60.5311 125.813 60.4117 126.019 60.2055C126.226 59.9992 126.345 59.7217 126.353 59.43C126.707 56.1883 126.744 52.9196 126.462 49.6707C126.163 45.8584 125.096 42.1459 123.327 38.7557C122.428 36.9346 121.227 35.2786 119.776 33.8576C118.727 32.8923 117.155 34.4583 118.208 35.4259L118.207 35.4296Z" fill="#211715"/>
<path d="M122.089 117.962C123.73 123.989 125.227 130.053 126.58 136.153C126.89 137.546 129.03 136.956 128.719 135.563C127.366 129.464 125.869 123.4 124.228 117.373C123.853 115.997 121.713 116.581 122.089 117.962Z" fill="#211715"/>
<path d="M113.879 137.274C119.86 137.81 125.939 137.159 131.917 136.829C133.337 136.751 133.346 134.532 131.917 134.611C125.941 134.941 119.86 135.592 113.879 135.056C113.585 135.058 113.304 135.176 113.097 135.384C112.889 135.591 112.772 135.872 112.77 136.165C112.776 136.458 112.894 136.736 113.101 136.943C113.308 137.15 113.586 137.268 113.879 137.274Z" fill="#211715"/>
<path d="M79.7845 110.72C79.9744 111.664 80.0803 112.623 80.1011 113.585C80.187 114.653 80.248 115.723 80.321 116.793C80.4211 118.915 80.697 121.026 81.1458 123.103C81.6889 125.163 82.4886 127.147 83.5261 129.008C84.4872 130.834 85.519 132.625 86.1743 134.591C86.5445 135.593 86.8461 136.619 87.0768 137.662C87.287 138.793 87.4312 139.927 87.7306 141.042C88.1003 142.42 90.2411 141.835 89.8696 140.453C89.6007 139.453 89.4491 138.437 89.2763 137.418C89.0958 136.543 88.8615 135.68 88.5748 134.834C87.9262 132.808 87.0747 130.853 86.0334 128.998C84.99 127.206 84.141 125.307 83.5006 123.334C82.9815 121.334 82.67 119.285 82.5709 117.22C82.484 116.009 82.4184 114.796 82.3209 113.585C82.2917 112.425 82.1592 111.269 81.9249 110.132C81.5589 108.754 79.419 109.339 79.7864 110.722L79.7845 110.72Z" fill="#211715"/>
<path d="M82.8078 126.868C80.9557 130.525 79.2959 134.279 77.1662 137.79C76.4231 139.013 78.3403 140.129 79.081 138.909C81.2127 135.397 82.8702 131.645 84.7232 127.988C85.3664 126.717 83.4538 125.593 82.8078 126.868Z" fill="#211715"/>
<path d="M112.369 77.3259C112.77 78.7018 113.273 80.0462 113.871 81.3483C114.047 81.8054 114.266 82.2444 114.527 82.6593C114.775 82.9972 115.055 83.3101 115.363 83.5936C116.874 85.0138 118.539 86.26 120.328 87.3088C121.561 88.0334 122.678 86.1171 121.447 85.3939C119.849 84.4615 118.359 83.3545 117.005 82.0932C116.758 81.8649 116.525 81.6218 116.307 81.3654C116.381 81.4528 116.42 81.5503 116.346 81.401C116.309 81.3262 116.268 81.2532 116.231 81.1788C116.088 80.89 115.954 80.5979 115.82 80.3045C115.295 79.1494 114.856 77.9567 114.508 76.7362C114.122 75.3643 111.981 75.9475 112.369 77.3259Z" fill="#211715"/>
<path d="M87.131 87.8081L87.3107 87.7314C87.5963 87.6089 87.1915 87.7776 87.357 87.712C87.4748 87.6658 87.5922 87.6145 87.71 87.5664C87.9728 87.4586 88.2366 87.3528 88.5016 87.249C89.0339 87.0383 89.5676 86.8331 90.0999 86.6205C90.737 86.3679 91.371 86.1079 92.0019 85.8405C92.7326 85.5795 93.4156 85.2007 94.024 84.719C94.2305 84.5103 94.3463 84.2285 94.3463 83.9349C94.3463 83.6412 94.2305 83.3594 94.024 83.1507C93.8126 82.9493 93.5318 82.8369 93.2398 82.8369C92.9478 82.8369 92.667 82.9493 92.4556 83.1507C92.4224 83.1798 92.3226 83.2611 92.415 83.1918C92.3549 83.238 92.2907 83.2782 92.2264 83.317C92.0706 83.4074 91.9088 83.487 91.7422 83.5555C91.5866 83.6239 91.4309 83.6915 91.275 83.7583L90.9931 83.8785L90.9294 83.9053C90.3644 84.1409 89.7966 84.3705 89.2261 84.5938C88.1508 85.0175 87.0742 85.4362 86.0123 85.8932C85.7583 86.0416 85.5738 86.2848 85.4992 86.5693C85.4246 86.8538 85.466 87.1563 85.6144 87.4102C85.7689 87.6575 86.012 87.8364 86.294 87.9103C86.5759 87.9843 86.8751 87.9477 87.131 87.8081Z" fill="#211715"/>
<path d="M117.622 60.1118C118.587 59.2172 120.186 59.3207 121.189 60.104C122.39 61.0425 122.825 62.7088 122.651 64.1704C122.224 67.7622 119.064 70.4238 115.951 71.7823C115.699 71.9322 115.515 72.1755 115.441 72.4595C115.366 72.7435 115.407 73.0454 115.553 73.2998C115.707 73.5483 115.95 73.7281 116.232 73.8022C116.515 73.8762 116.815 73.8388 117.071 73.6977C120.344 72.2694 123.15 69.7164 124.394 66.3126C125.568 63.0988 124.612 58.9053 121.153 57.5897C120.298 57.2629 119.369 57.179 118.469 57.3473C117.569 57.5156 116.734 57.9296 116.055 58.5435C115.006 59.5167 116.577 61.0822 117.623 60.1118H117.622Z" fill="#211715"/>
<path d="M76.8388 59.3394C76.934 63.497 77.6995 67.612 79.1058 71.5257C80.5461 75.3675 82.9037 79.1256 86.1656 81.6815C92.5729 86.702 101.982 86.9493 108.771 82.5502C112.356 80.1926 115.331 77.0205 117.455 73.2931C118.165 72.0524 116.249 70.9337 115.54 72.174C113.823 75.1769 111.51 77.7971 108.744 79.8738C105.879 82.0483 102.419 83.2966 98.8262 83.4516C95.2332 83.6067 91.6785 82.6612 88.6373 80.7416C85.4489 78.6802 83.0701 75.3065 81.6043 71.8477C80.0023 67.8677 79.139 63.629 79.0568 59.3394C79.0055 57.9162 76.787 57.907 76.8388 59.3394Z" fill="#211715"/>
<path d="M103.187 44.8109C104.211 47.649 105.373 50.6078 107.069 53.1225C108.646 55.4616 110.707 58.0303 113.324 59.2488C113.58 59.389 113.88 59.4259 114.162 59.3519C114.444 59.2779 114.687 59.0987 114.841 58.851C114.988 58.5965 115.028 58.2946 114.953 58.0107C114.879 57.7268 114.696 57.4835 114.443 57.3335C112.114 56.2485 110.288 53.969 108.898 51.8734C107.352 49.544 106.272 46.8394 105.327 44.2212C105.242 43.9418 105.053 43.7056 104.8 43.5615C104.546 43.4173 104.246 43.3763 103.963 43.4468C103.68 43.527 103.441 43.7149 103.296 43.9702C103.151 44.2254 103.113 44.5273 103.188 44.8109H103.187Z" fill="#211715"/>
<path d="M103.421 43.6118C101.757 45.6243 99.7901 47.3661 97.5911 48.7748C96.4555 49.5099 95.2752 50.1735 94.057 50.7617C93.4392 51.0612 92.8126 51.344 92.1759 51.6014C91.5392 51.9045 90.8735 52.1423 90.1889 52.3111H90.7785C90.98 52.9313 91.0933 53.0805 91.1186 52.7589C91.1306 52.6831 91.1422 52.6078 91.1533 52.5325C91.181 52.3452 91.2076 52.1577 91.2332 51.9701C91.2877 51.5741 91.3395 51.1781 91.3852 50.7812C91.4716 50.0358 91.5372 49.2881 91.5899 48.5396C91.6611 47.5322 90.3543 47.1417 89.6954 47.754C87.616 49.6948 85.519 51.6125 83.3707 53.4742C81.4726 55.2216 79.4557 56.8354 77.3345 58.304C76.1404 59.077 77.2508 60.9979 78.4537 60.2189C80.6729 58.6885 82.7847 57.0078 84.7741 55.1886C86.9801 53.282 89.1321 51.3139 91.2637 49.3251L89.3691 48.5396C89.2864 49.7156 89.1713 50.8897 88.9948 52.0556C88.8372 52.5816 88.8653 53.1458 89.0743 53.6535C89.2143 53.9045 89.4181 54.114 89.6651 54.2608C89.9121 54.4076 90.1936 54.4865 90.4809 54.4894C90.956 54.4362 91.4187 54.3028 91.8492 54.0948C92.3394 53.9127 92.8251 53.7182 93.307 53.5153C94.2358 53.1253 95.1508 52.7048 96.0445 52.2395C99.4711 50.5129 102.513 48.1112 104.988 45.1788C105.188 44.9668 105.3 44.6862 105.3 44.3946C105.3 44.103 105.188 43.8224 104.988 43.6105C104.779 43.4045 104.497 43.2891 104.204 43.2891C103.91 43.2891 103.628 43.4045 103.419 43.6105L103.421 43.6118Z" fill="#211715"/>
<path d="M84.7613 148.991C84.5237 149.025 84.2815 148.981 84.0714 148.865C83.7637 148.654 83.8482 148.306 83.942 147.987C84.01 147.756 83.9693 147.899 83.942 147.953C83.9902 147.853 84.0468 147.757 84.1112 147.667C84.2548 147.478 84.413 147.301 84.5844 147.137C84.812 146.905 85.0519 146.686 85.3029 146.48C86.6978 145.325 88.1575 144.251 89.6747 143.262C91.768 141.896 94.041 140.454 96.4323 139.677C97.5846 139.263 98.8353 139.208 100.02 139.519C101.053 139.833 102.06 140.227 103.032 140.697C104.253 141.286 105.553 141.695 106.891 141.914C108.141 142.078 109.344 141.824 110.591 141.775C112.013 141.719 112.021 139.5 110.591 139.557C109.41 139.603 108.22 139.897 107.038 139.71C105.768 139.449 104.538 139.021 103.381 138.435C102.189 137.842 100.921 137.415 99.6129 137.166C98.1358 136.98 96.6359 137.18 95.2591 137.746C92.4476 138.897 89.7857 140.384 87.3315 142.174C85.7901 143.169 84.3451 144.305 83.0156 145.569C82.0563 146.555 81.3114 147.887 81.7578 149.308C82.2356 150.829 83.9129 151.387 85.3496 151.13C85.6318 151.05 85.8711 150.862 86.016 150.607C86.1608 150.351 86.1996 150.049 86.124 149.766C86.0403 149.486 85.8516 149.249 85.5975 149.105C85.3433 148.96 85.0433 148.92 84.7599 148.991H84.7613Z" fill="#211715"/>
<path d="M92.6508 143.315C90.6022 144.574 88.6371 145.965 86.7679 147.478C85.1506 148.762 82.922 150.474 83.6317 152.851C83.7591 153.301 84.0103 153.705 84.3567 154.019C84.703 154.333 85.1306 154.543 85.5905 154.625C86.645 154.822 87.5951 154.473 88.5424 154.038C88.7946 153.888 88.9778 153.645 89.0522 153.361C89.1266 153.077 89.0864 152.775 88.9402 152.521C88.7871 152.272 88.5439 152.092 88.2612 152.018C87.9786 151.943 87.6783 151.981 87.4227 152.123C87.1556 152.25 86.8771 152.352 86.5909 152.427C86.4174 152.483 86.2326 152.495 86.0535 152.461C86.0046 152.45 85.7726 152.355 85.8484 152.393C85.9108 152.425 85.8082 152.349 85.7883 152.309C85.715 152.136 85.6952 151.946 85.7315 151.762C85.7181 151.864 85.7744 151.606 85.7874 151.569C85.761 151.644 85.8858 151.384 85.926 151.326C85.9875 151.23 86.1164 150.953 86.2273 150.894C86.1617 150.929 86.0452 151.106 86.1811 150.962C86.2273 150.911 86.2735 150.858 86.3197 150.807C86.426 150.694 86.5369 150.586 86.6496 150.479C88.056 149.197 89.5576 148.023 91.1416 146.967C92.0006 146.363 92.8707 145.772 93.7709 145.231C94.9931 144.497 93.879 142.578 92.6513 143.316L92.6508 143.315Z" fill="#211715"/>
<path d="M96.2754 145.607C94.5999 146.661 92.9877 147.807 91.3745 148.953C89.9051 149.997 88.3081 150.973 87.5105 152.669C86.7532 154.28 87.3257 156.2 89.0816 156.831C90.9665 157.509 92.709 156.079 94.1794 155.095C96.1073 153.806 97.9861 152.444 99.9435 151.2C101.145 150.436 100.036 148.515 98.8243 149.284C96.9852 150.454 95.2154 151.726 93.4096 152.945C92.5617 153.597 91.6555 154.169 90.7027 154.655C90.2794 154.836 89.6593 154.861 89.4398 154.451C89.1925 153.988 89.5377 153.473 89.8991 152.991C90.5468 152.25 91.3066 151.615 92.1508 151.11C93.8786 149.884 95.5999 148.649 97.3937 147.521C98.5988 146.762 97.4861 144.84 96.2745 145.605L96.2754 145.607Z" fill="#211715"/>
<path d="M98.4601 149.892C97.6873 151.005 96.9793 152.162 96.3396 153.357C95.7084 154.469 94.7759 155.525 94.8836 156.883C94.8974 157.26 94.9992 157.629 95.1809 157.96C95.3626 158.291 95.6192 158.575 95.9302 158.79C96.2494 158.991 96.6102 159.118 96.9855 159.161C97.3608 159.203 97.7408 159.16 98.0969 159.034C98.6467 158.828 99.1546 158.524 99.5959 158.136C100.17 157.674 100.733 157.2 101.287 156.713C102.464 155.675 103.575 154.563 104.614 153.386C104.816 153.175 104.928 152.894 104.928 152.602C104.928 152.31 104.816 152.029 104.614 151.818C104.404 151.613 104.123 151.497 103.83 151.497C103.536 151.497 103.255 151.613 103.045 151.818C102.254 152.715 101.423 153.574 100.55 154.393C100.097 154.816 99.634 155.229 99.1611 155.632C98.9328 155.826 98.703 156.019 98.4717 156.209C98.3438 156.315 98.2154 156.42 98.0863 156.524C98.0346 156.574 97.9783 156.62 97.9181 156.659C97.9883 156.624 98.1376 156.503 97.9777 156.613C97.8278 156.716 97.6724 156.81 97.5124 156.896C97.3474 156.984 97.6048 156.893 97.4153 156.929C97.3497 156.941 97.2864 156.965 97.2203 156.975C97.3756 156.949 97.2605 156.995 97.2116 156.962C97.2226 156.969 97.4555 157.051 97.1968 156.959C97.1908 156.959 97.0397 156.889 97.1233 156.933C97.2499 157 97.0531 156.804 97.1764 157.001C97.1081 156.892 97.1159 156.792 97.1362 156.948C97.122 156.905 97.1103 156.861 97.1011 156.816C97.0845 156.735 97.0856 156.757 97.1044 156.884L97.0979 156.792C97.0979 156.7 97.0979 156.607 97.1016 156.515C97.1053 156.305 97.1076 156.5 97.0965 156.543C97.1071 156.502 97.1117 156.459 97.1247 156.419C97.1376 156.378 97.1492 156.339 97.1575 156.3C97.1972 156.115 97.1515 156.318 97.1279 156.356C97.2028 156.236 97.2753 156.114 97.3516 155.994C97.6797 155.479 97.9883 154.952 98.2891 154.423C98.9188 153.246 99.6162 152.106 100.378 151.01C100.524 150.756 100.564 150.454 100.49 150.17C100.415 149.886 100.232 149.643 99.9799 149.493C99.7245 149.351 99.4242 149.314 99.1415 149.388C98.8589 149.462 98.6158 149.642 98.4629 149.891L98.4601 149.892Z" fill="#211715"/>
<path d="M103.982 154.147C105.914 154.703 107.98 154.551 109.809 153.72C111.186 153.127 112.452 152.306 113.823 151.711C114.076 151.562 114.259 151.318 114.333 151.034C114.408 150.75 114.367 150.448 114.221 150.194C114.067 149.945 113.824 149.766 113.542 149.691C113.259 149.617 112.959 149.655 112.703 149.796C111.486 150.324 110.356 151.053 109.145 151.603C107.724 152.303 106.093 152.448 104.571 152.009C103.2 151.6 102.614 153.74 103.981 154.147H103.982Z" fill="#211715"/>
<path d="M67.6464 123.541C68.4944 120.114 69.2051 116.656 69.8562 113.187C70.5054 109.726 71.1006 106.261 72.0104 102.855C72.463 101.161 72.9762 99.4838 73.5501 97.824C74.0106 96.4162 74.6804 95.0857 75.5371 93.8773C77.4497 91.2762 80.5156 89.8946 83.4028 88.689C84.1421 88.3812 84.8935 88.1054 85.6277 87.7902C85.7821 87.7241 85.9558 87.7158 85.752 87.6479C85.8176 87.6696 85.953 87.8706 86.0006 87.9215C86.2677 88.2045 86.5518 88.471 86.8513 88.7195C87.937 89.6115 89.148 90.3389 90.4455 90.8784C93.1575 92.0308 96.0155 92.4033 98.9428 92.486C105.444 92.6666 111.861 91.2739 117.91 88.9547C118.577 88.699 119.241 88.4334 119.9 88.158C120.289 87.996 120.676 87.8318 121.063 87.6655C121.539 87.4603 121.505 87.3924 121.963 87.5938C123.474 88.246 124.938 88.9997 126.347 89.8497C128.998 91.4375 131.284 93.5659 133.057 96.0963C134.775 98.6239 136.147 101.37 137.137 104.26C138.135 107.172 138.812 110.226 139.526 113.218C140.907 118.998 141.984 124.84 142.923 130.707C143.18 132.316 143.431 133.926 143.674 135.538C143.943 136.954 144.13 138.385 144.234 139.823C144.274 141.143 144.217 142.463 144.064 143.774C143.992 144.898 143.708 145.999 143.228 147.018C141.897 149.504 139.218 150.849 136.559 151.417C134.874 151.721 133.173 151.924 131.465 152.027C130.589 152.108 129.715 152.185 128.837 152.235C124.568 152.477 120.288 152.546 116.012 152.62C115.396 152.631 114.78 152.641 114.164 152.65L115.273 153.759C115.162 152.15 114.931 150.551 114.58 148.977C114.143 146.548 113.469 144.168 112.568 141.87C112.105 140.64 111.478 139.477 110.704 138.414C110.549 138.167 110.306 137.989 110.024 137.915C109.742 137.841 109.443 137.877 109.187 138.016C108.934 138.166 108.751 138.409 108.676 138.693C108.602 138.977 108.642 139.279 108.789 139.534C110.558 141.826 111.361 144.812 112.016 147.591C112.329 148.92 112.591 150.259 112.802 151.608C112.844 151.878 112.883 152.148 112.921 152.417C112.881 152.132 112.933 152.514 112.939 152.566C112.952 152.671 112.965 152.777 112.977 152.882C113.011 153.174 113.043 153.467 113.055 153.76C113.059 154.053 113.178 154.332 113.385 154.539C113.592 154.746 113.871 154.865 114.164 154.869C118.213 154.809 122.264 154.731 126.311 154.572C128.455 154.488 130.582 154.323 132.719 154.137C136.018 153.849 139.413 153.421 142.166 151.416C143.393 150.562 144.411 149.441 145.145 148.139C145.741 146.922 146.108 145.606 146.226 144.257C146.407 142.889 146.486 141.509 146.463 140.129C146.378 138.604 146.194 137.086 145.911 135.585C144.966 129.342 143.971 123.104 142.643 116.93C141.98 113.846 141.244 110.78 140.434 107.731C139.666 104.613 138.567 101.587 137.156 98.7034C135.767 95.8216 133.869 93.2144 131.553 91.0077C128.986 88.7385 126.06 86.9102 122.895 85.5971C122.511 85.3439 122.06 85.209 121.599 85.209C121.139 85.209 120.689 85.3439 120.304 85.5971C119.557 85.9231 118.806 86.2358 118.049 86.5352C116.539 87.1331 115.008 87.6812 113.457 88.1617C110.344 89.1488 107.136 89.8045 103.886 90.1178C100.762 90.395 97.4253 90.4837 94.3446 89.8068C93.0026 89.525 91.7022 89.0728 90.475 88.4612C89.8646 88.1544 89.2807 87.7976 88.7293 87.3942C88.172 86.9783 87.7455 86.4534 87.2316 85.9973C86.5186 85.3647 85.6698 85.4063 84.8357 85.7339C83.9355 86.0879 83.0405 86.454 82.1505 86.8323C80.5266 87.4521 78.9689 88.2333 77.501 89.164C76.114 90.0607 74.8803 91.1747 73.8472 92.4633C72.8988 93.7385 72.1484 95.1497 71.6213 96.6489C69.1062 103.501 68.1852 110.729 66.6835 117.833C66.3212 119.547 65.9299 121.253 65.5097 122.953C65.1669 124.34 67.3054 124.93 67.6488 123.543L67.6464 123.541Z" fill="#211715"/>
<path d="M110.146 154.771C102.084 159.715 93.9012 164.478 85.6884 169.168C84.3655 169.924 83.0439 170.685 81.7015 171.406C80.4437 172.082 81.5629 173.998 82.8212 173.322C85.8035 171.719 88.723 169.991 91.6522 168.295C96.0411 165.753 100.416 163.186 104.775 160.596C106.945 159.305 109.108 158.001 111.264 156.686C112.479 155.941 111.366 154.022 110.145 154.771H110.146Z" fill="#211715"/>
<path d="M12.8385 124.874C14.3566 133.761 15.8864 142.645 17.428 151.528C18.3161 156.652 19.2064 161.776 20.0988 166.899C20.3109 168.116 20.365 169.44 21.3465 170.324C22.0396 170.95 22.8691 171.072 23.7618 171.147C24.7881 171.233 25.8149 171.308 26.8421 171.378C33.0803 171.811 39.3319 172.126 45.5794 172.434C52.8163 172.792 60.0546 173.119 67.2943 173.416C70.3056 173.539 73.3173 173.658 76.3295 173.772C77.5263 173.816 78.7232 173.858 79.92 173.899C80.7101 173.999 81.5122 173.869 82.2304 173.524C82.6915 173.255 83.0738 172.87 83.3392 172.407C83.6046 171.944 83.7438 171.419 83.7428 170.885C83.6924 170.224 83.5902 169.569 83.4374 168.924L83.0677 166.803C82.833 165.458 82.5985 164.113 82.3644 162.768C81.9279 160.262 81.4918 157.755 81.0563 155.248C80.2368 150.531 79.4205 145.813 78.6072 141.095C77.8457 136.678 77.0872 132.261 76.3319 127.844C76.1581 126.827 76.0874 125.737 75.514 124.846C75.2266 124.397 74.8495 124.012 74.4064 123.715C73.9632 123.419 73.4636 123.217 72.9387 123.123C71.9177 123.008 70.8903 122.96 69.8631 122.98C64.1218 122.802 58.3805 122.619 52.6392 122.433C45.6684 122.209 38.6978 121.984 31.7273 121.758L16.3162 121.262C15.55 121.179 14.7777 121.35 14.1185 121.749C13.6612 122.056 13.2965 122.481 13.0638 122.98C12.8312 123.479 12.7395 124.032 12.7988 124.579C12.8079 124.87 12.9277 125.147 13.1337 125.353C13.3397 125.559 13.6165 125.679 13.9078 125.688C14.2014 125.686 14.4826 125.569 14.6902 125.361C14.8979 125.154 15.0152 124.873 15.0168 124.579C14.9281 123.886 15.2529 123.453 15.965 123.47C16.3615 123.478 16.7575 123.495 17.1535 123.508L20.1626 123.605L28.1244 123.863C34.7424 124.079 41.3603 124.293 47.9781 124.505C54.1202 124.702 60.2622 124.899 66.4043 125.093L69.7346 125.198C70.6163 125.225 71.5321 125.184 72.4092 125.282C72.7368 125.317 73.0469 125.447 73.3008 125.657C73.5547 125.867 73.7411 126.147 73.8366 126.462C74.0864 127.49 74.2706 128.532 74.3878 129.583C74.744 131.666 75.101 133.748 75.459 135.83C77.0482 145.081 78.6492 154.33 80.2619 163.577C80.4837 164.85 80.7057 166.123 80.9278 167.397L81.2591 169.291C81.3515 169.817 81.6131 170.506 81.5207 171.037C81.4139 171.65 80.8654 171.714 80.34 171.697L78.7943 171.644C76.1358 171.552 73.4777 171.451 70.8201 171.343C63.9645 171.069 57.1102 170.769 50.2571 170.445C43.7084 170.134 37.1596 169.809 30.6155 169.407C28.3541 169.268 26.0921 169.123 23.8344 168.934C23.37 168.896 22.8705 168.91 22.6329 168.424C22.4464 167.848 22.3332 167.25 22.2961 166.645C22.1796 165.976 22.0633 165.308 21.9472 164.639C21.5054 162.103 21.0643 159.567 20.6238 157.031C19.0749 148.114 17.5346 139.196 16.0029 130.276C15.6606 128.278 15.3188 126.28 14.9775 124.283C14.8972 124 14.7091 123.761 14.4539 123.616C14.1986 123.471 13.8965 123.433 13.613 123.508C13.3327 123.592 13.0957 123.781 12.9514 124.035C12.8071 124.29 12.7666 124.59 12.8385 124.874Z" fill="#211715"/>
<path d="M148.395 151.292C150.269 151.292 152.144 151.282 154.018 151.277L166.408 151.239L181.349 151.193L194.622 151.152C197.087 151.146 199.549 151.139 202.01 151.133H202.308C203.735 151.133 203.737 148.915 202.308 148.915C200.185 148.915 198.062 148.925 195.939 148.931L183.164 148.969L168.201 149.015L155.267 149.056C153.04 149.062 150.807 149.023 148.58 149.075C148.519 149.075 148.457 149.075 148.396 149.075C146.968 149.075 146.966 151.293 148.396 151.293L148.395 151.292Z" fill="#211715"/>
<path d="M1.6531 151.291C5.6876 151.286 9.72071 151.135 13.7552 151.133C15.1826 151.133 15.1849 148.915 13.7552 148.915C9.72071 148.915 5.6876 149.068 1.6531 149.073C0.226165 149.073 0.223855 151.291 1.6531 151.291Z" fill="#211715"/>
<path d="M93.9381 66.9954C93.7843 67.3753 93.6516 67.7634 93.5407 68.158C93.3471 68.816 93.1142 69.6436 93.665 70.2004C93.7864 70.3167 93.9233 70.4158 94.0717 70.4948C94.2222 70.5773 94.383 70.6394 94.5499 70.6796C94.7756 70.7183 95.0046 70.7338 95.2334 70.7258C95.5271 70.7231 95.8084 70.6072 96.0189 70.4024C96.2269 70.1944 96.3437 69.9123 96.3437 69.6182C96.3437 69.3241 96.2269 69.042 96.0189 68.834C95.8073 68.6308 95.5267 68.5153 95.2334 68.5106C95.1133 68.517 94.9929 68.5161 94.8729 68.5078L95.1677 68.5475C95.1071 68.5371 95.0476 68.5205 94.9903 68.4981L95.2555 68.6099C95.1707 68.5719 95.0907 68.524 95.0171 68.4671L95.2417 68.6404C95.2386 68.6382 95.2358 68.6355 95.2334 68.6326L95.4071 68.8567C95.4032 68.8512 95.3998 68.8453 95.3969 68.8391L95.5088 69.1044C95.504 69.0908 95.5007 69.0767 95.4991 69.0623L95.5383 69.3571C95.5342 69.299 95.5365 69.2406 95.5453 69.1829L95.506 69.4777C95.5647 69.1231 95.6542 68.7743 95.7735 68.4353C95.866 68.1488 95.9584 67.86 96.0748 67.5832C96.1143 67.4405 96.1247 67.2913 96.1056 67.1445C96.0865 66.9976 96.0381 66.8561 95.9635 66.7283C95.89 66.6025 95.7924 66.4924 95.6764 66.4043C95.5603 66.3163 95.4281 66.2519 95.2871 66.215C95.1462 66.178 94.9994 66.1692 94.8551 66.189C94.7107 66.2088 94.5717 66.2569 94.446 66.3304L94.2214 66.5042C94.0856 66.6399 93.9874 66.8085 93.9363 66.9935L93.9381 66.9954Z" fill="#211715"/>
<path d="M85.6357 62.126C85.3215 63.1103 85.462 65.3921 87.2563 65.6208C89.6337 65.6518 89.8209 62.9005 89.0492 61.59C88.4175 60.5171 86.5003 60.0388 85.6357 62.126Z" fill="#211715"/>
<path d="M106.04 62.2088C106.337 63.2499 106.08 65.6251 104.116 65.7868C101.526 65.7175 101.448 62.8377 102.348 61.5032C103.085 60.4108 105.193 59.9936 106.04 62.2088Z" fill="#211715"/>
<path d="M92.9259 76.8171C94.0236 77.1568 95.1803 77.2624 96.3213 77.1272C97.5926 77.0272 98.8312 76.6745 99.9645 76.0898C100.216 75.9395 100.399 75.6963 100.474 75.4124C100.548 75.1286 100.508 74.8269 100.362 74.5723C100.21 74.323 99.9665 74.1425 99.6838 74.0683C99.4011 73.9942 99.1006 74.0322 98.8453 74.1744C98.7436 74.2294 98.6415 74.2826 98.5371 74.332C98.5343 74.332 98.2824 74.4471 98.4271 74.3842C98.5565 74.3274 98.3758 74.4036 98.3522 74.4129C98.1089 74.5053 97.8612 74.5868 97.6092 74.6573C97.3513 74.7285 97.0906 74.7881 96.8269 74.8361C96.7645 74.8477 96.7021 74.8583 96.6397 74.8685C96.6152 74.8727 96.4124 74.905 96.5515 74.8837C96.6906 74.8625 96.4877 74.8911 96.4632 74.8939C96.3846 74.9031 96.3061 74.911 96.2271 74.9179C95.7219 74.9647 95.2136 74.9687 94.7077 74.93C94.6347 74.9244 94.5617 74.9165 94.4887 74.9096C94.2955 74.8916 94.5257 74.9212 94.5275 74.917C94.4163 74.906 94.3061 74.8871 94.1976 74.8606C93.9664 74.8149 93.7386 74.7539 93.5155 74.6781C93.232 74.6019 92.9299 74.6405 92.6746 74.7854C92.4192 74.9304 92.2313 75.1701 92.1514 75.4526C92.0802 75.736 92.121 76.0359 92.2652 76.2901C92.4094 76.5442 92.6461 76.733 92.9259 76.8171Z" fill="#211715"/>
</g>
<defs>
<clipPath id="clip0_1743_1135">
<rect width="202.835" height="173.821" fill="white" transform="translate(0.582031 0.0917969)"/>
</clipPath>
</defs>
</svg>
