<svg width="127" height="131" viewBox="0 0 127 131" fill="none" xmlns="http://www.w3.org/2000/svg">
<path d="M122.057 129.125C121.377 123.355 120.524 117.615 119.503 111.895C121.658 110.121 123.55 107.162 123.975 106.562C124.916 105.183 124.93 102.159 124.789 101.338C124.018 96.8435 122.375 93.2809 119.471 90.2317C116.314 86.9161 111.13 85.199 107.881 86.0526C105.323 84.0918 101.884 82.8589 96.105 81.0971C92.8827 80.1224 82.9408 77.8976 77.7737 76.7686C77.7784 77.2949 77.7832 77.8212 77.7887 78.3468C77.7983 79.367 77.2895 80.3279 76.4368 80.8558C72.3974 83.3568 67.999 84.3014 63.546 84.2023C59.0826 84.3014 54.674 83.3527 50.6283 80.8388C49.7779 80.3108 49.2699 79.3507 49.2794 78.3322L49.2937 76.7686C44.1266 77.8976 34.1847 80.1216 30.9624 81.0971C25.1828 82.8589 21.7441 84.0918 19.1859 86.0526C15.9375 85.1981 10.7538 86.9161 7.59645 90.2317C4.69274 93.2809 3.04988 96.8435 2.27799 101.338C2.13693 102.159 2.15119 105.183 3.09268 106.562C3.51746 107.162 5.40836 110.121 7.56475 111.895C6.54242 117.615 5.69049 123.355 5.01053 129.125" fill="white"/>
<path d="M92.4904 24.7444C92.2867 23.6438 92.0149 22.5562 91.6797 21.4889C91.6741 21.4702 91.6678 21.4515 91.6623 21.4328C90.3142 17.1733 87.9518 13.2469 84.7881 10.1555C79.1709 4.66541 71.494 2.34236 63.3645 2.46664C55.2359 2.34236 47.5598 4.66623 41.9433 10.1555C38.7805 13.2469 36.418 17.1733 35.0692 21.4328C35.0637 21.4515 35.0573 21.4702 35.0518 21.4889C34.4265 23.4789 34.0223 25.542 33.8654 27.6263C31.9174 27.7254 30.4053 27.7668 29.1009 27.8683C28.6151 27.9065 28.1951 28.1274 27.8186 28.3841C26.9889 28.9494 26.3264 29.9777 26.1457 31.9012C25.6448 37.2442 25.9872 41.6629 27.1474 46.486C27.271 47.001 27.5397 47.5412 27.882 47.953C28.4495 48.6361 29.3727 48.9431 30.2619 49.1031C31.686 49.3606 32.6933 49.5003 34.5303 49.6774C36.162 56.4126 40.3575 62.7547 45.9882 66.5431C51.3368 70.1422 57.3106 70.7985 63.3661 70.7985C69.7212 70.7985 75.3955 70.1422 80.744 66.5431C86.3676 62.7588 90.5591 56.428 92.1956 49.7026C94.203 49.5133 95.2372 49.3728 96.7287 49.1031C97.6179 48.9423 98.5411 48.6353 99.1086 47.953C99.4509 47.5412 99.7188 47.001 99.8432 46.486C101.003 41.6629 101.346 37.2442 100.845 31.9012C100.664 29.9777 100.002 28.9494 99.172 28.3841C98.7947 28.1274 98.3747 27.9065 97.8897 27.8683C96.5282 27.7619 94.94 27.7221 92.8653 27.6125C92.7924 26.6499 92.6671 25.6923 92.4912 24.7444H92.4904Z" fill="white"/>
<path d="M49.0137 99.881C49.0122 108.837 49.0367 118.714 49.0375 127.256C49.0375 127.591 49.3022 127.86 49.6295 127.857C56.6907 127.794 69.6345 127.759 77.8797 127.728C78.2038 127.727 78.4653 127.46 78.4653 127.127C78.4638 118.637 78.4122 108.796 78.413 99.8071C78.413 99.4741 78.1499 99.2061 77.825 99.2061C74.25 99.2093 56.3848 99.232 49.5962 99.2808C49.2729 99.2832 49.0137 99.5496 49.0137 99.881Z" fill="#7ABEE6"/>
<path d="M66.3586 105.486C63.4002 105.492 60.4418 105.497 57.4842 105.512C56.6322 105.516 55.7787 105.484 55.1011 106.114C54.4394 106.73 54.334 107.515 54.334 108.378C54.334 109.582 54.334 110.785 54.3348 111.989C54.3348 113.314 54.3364 114.64 54.3372 115.964C54.3379 116.814 55.0655 117.628 55.9221 117.589C56.7788 117.55 57.5079 116.875 57.5071 115.964C57.5056 114.588 57.5048 113.213 57.504 111.837C57.504 111.065 57.504 110.292 57.5032 109.52C57.5032 109.231 57.5032 108.942 57.5032 108.652C57.5032 108.418 57.5658 108.076 57.5032 107.851C57.4509 108.409 57.1529 108.713 56.6077 108.765C56.6861 108.765 56.7654 108.765 56.8438 108.764C57.0126 108.763 57.1814 108.762 57.3502 108.761C57.6775 108.76 58.0056 108.758 58.3329 108.756C59.1968 108.753 60.0606 108.75 60.9236 108.748C62.7353 108.742 64.5461 108.739 66.3578 108.735C67.1867 108.734 67.9808 107.989 67.9428 107.111C67.9047 106.233 67.2469 105.485 66.3586 105.486Z" fill="#211715"/>
<path d="M47.4297 99.8816C47.4297 105.069 47.4368 110.257 47.4432 115.444C47.4463 118.066 47.4495 120.689 47.4519 123.312C47.4527 124.451 47.4535 125.589 47.4535 126.728C47.4535 127.995 47.8782 129.136 49.2088 129.424C49.9926 129.594 50.8953 129.471 51.6941 129.466C52.6435 129.459 53.5929 129.453 54.5431 129.447C56.4863 129.435 58.4296 129.427 60.3728 129.418C64.5754 129.399 68.778 129.385 72.9814 129.371C73.9197 129.367 74.858 129.364 75.7956 129.361C76.7101 129.358 77.864 129.535 78.7199 129.165C79.8848 128.661 80.0521 127.577 80.0513 126.426C80.0513 125.109 80.0489 123.792 80.0465 122.474C80.037 117.303 80.018 112.131 80.0077 106.96C80.0053 105.695 80.0029 104.43 80.0013 103.166C79.9998 101.963 80.1852 100.554 79.9427 99.3739C79.5766 97.5959 77.9733 97.5805 76.5635 97.5821C73.9213 97.5853 71.2791 97.5894 68.6369 97.5934C64.787 97.5999 60.937 97.6089 57.0871 97.6211C55.43 97.6267 53.7736 97.6324 52.1165 97.6406C50.4594 97.6487 47.9202 97.2296 47.4875 99.4486C47.0889 101.491 50.144 102.364 50.5442 100.312L50.5545 100.276L49.9855 100.86C49.7707 101.009 49.7422 100.893 50.0632 100.901C50.2565 100.906 50.4515 100.899 50.6449 100.898C51.0387 100.895 51.4326 100.893 51.8265 100.891C52.7648 100.886 53.7023 100.882 54.6406 100.879C56.7867 100.871 58.9336 100.864 61.0797 100.859C65.2688 100.848 69.458 100.841 73.6471 100.834C74.4594 100.834 75.2717 100.832 76.0848 100.831C76.4074 100.831 76.7299 100.831 77.0525 100.83C77.1927 100.83 77.3346 100.838 77.4749 100.83C77.8053 100.812 77.7126 100.969 77.4424 100.783L76.8734 100.2C76.9122 100.258 76.829 101.232 76.8298 101.478C76.8298 102.041 76.8306 102.603 76.8314 103.166C76.8329 104.303 76.8345 105.441 76.8369 106.578C76.8417 108.937 76.848 111.295 76.8551 113.653C76.8615 115.918 76.8678 118.183 76.8734 120.447C76.8757 121.548 76.8781 122.647 76.8797 123.748C76.8797 124.287 76.8813 124.825 76.8813 125.364C76.8813 125.6 76.8813 125.836 76.8813 126.073C76.8813 126.094 76.8496 126.849 76.9273 126.732L77.4963 126.148C77.7665 125.961 77.2783 126.105 77.1198 126.106C76.8131 126.107 76.5064 126.109 76.1997 126.109C75.6513 126.111 75.1029 126.113 74.5553 126.115C73.3396 126.119 72.1231 126.123 70.9074 126.128C68.3762 126.137 65.845 126.146 63.3129 126.156C60.8538 126.165 58.3947 126.176 55.9364 126.189C54.8554 126.195 53.7744 126.201 52.6943 126.208C52.2013 126.212 51.7076 126.215 51.2147 126.219C50.9444 126.221 50.6734 126.223 50.4031 126.225C50.1907 126.227 49.7192 126.079 50.014 126.28L50.583 126.863C50.5664 126.839 50.6258 125.902 50.6258 125.661C50.6258 125.121 50.6258 124.58 50.625 124.04C50.625 122.936 50.6235 121.831 50.6219 120.727C50.6195 118.393 50.6163 116.058 50.6131 113.723C50.6068 109.109 50.6013 104.495 50.6021 99.8808C50.6021 97.79 47.4321 97.7868 47.4321 99.8808L47.4297 99.8816Z" fill="#211715"/>
<path d="M52.4023 93.8043C52.4023 94.9601 52.4245 96.116 52.4253 97.2718C52.4253 97.6885 52.6021 98.1255 52.8897 98.4203C53.1647 98.7022 53.6157 98.9142 54.0103 98.8963C54.8686 98.8565 55.5953 98.1823 55.5953 97.2718C55.5953 96.116 55.5731 94.9601 55.5723 93.8043C55.5723 93.3876 55.3956 92.9506 55.1079 92.6557C54.8329 92.3739 54.382 92.1619 53.9873 92.1798C53.1291 92.2196 52.4023 92.8937 52.4023 93.8043Z" fill="#211715"/>
<path d="M61.959 93.8043C61.959 94.9601 61.9812 96.116 61.982 97.2718C61.982 97.6885 62.1587 98.1255 62.4464 98.4203C62.7214 98.7022 63.1723 98.9142 63.567 98.8963C64.4252 98.8565 65.152 98.1823 65.152 97.2718C65.152 96.116 65.1298 94.9601 65.129 93.8043C65.129 93.3876 64.9522 92.9506 64.6646 92.6557C64.3896 92.3739 63.9386 92.1619 63.544 92.1798C62.6857 92.2196 61.959 92.8937 61.959 93.8043Z" fill="#211715"/>
<path d="M71.5156 93.8043C71.5156 94.9601 71.5378 96.116 71.5386 97.2718C71.5386 97.6885 71.7153 98.1255 72.003 98.4203C72.278 98.7022 72.7289 98.9142 73.1236 98.8963C73.9819 98.8565 74.7086 98.1823 74.7086 97.2718C74.7086 96.116 74.6864 94.9601 74.6856 93.8043C74.6856 93.3876 74.5089 92.9506 74.2212 92.6557C73.9462 92.3739 73.4953 92.1619 73.1006 92.1798C72.2423 92.2196 71.5156 92.8937 71.5156 93.8043Z" fill="#211715"/>
<path d="M83.434 103.055C82.3063 103.055 81.1786 103.077 80.0509 103.078C79.6443 103.078 79.2179 103.259 78.9303 103.554C78.6553 103.836 78.4484 104.298 78.4659 104.703C78.5047 105.582 79.1625 106.327 80.0509 106.327C81.1786 106.327 82.3063 106.305 83.434 106.304C83.8406 106.304 84.267 106.123 84.5546 105.828C84.8296 105.546 85.0365 105.084 85.019 104.679C84.9802 103.8 84.3224 103.055 83.434 103.055Z" fill="#211715"/>
<path d="M47.02 103.055C45.8923 103.055 44.7645 103.077 43.6368 103.078C43.2303 103.078 42.8039 103.259 42.5162 103.554C42.2412 103.836 42.0344 104.298 42.0518 104.703C42.0906 105.582 42.7484 106.327 43.6368 106.327C44.7645 106.327 45.8923 106.305 47.02 106.304C47.4265 106.304 47.8529 106.123 48.1406 105.828C48.4156 105.546 48.6224 105.084 48.605 104.679C48.5661 103.8 47.9084 103.055 47.02 103.055Z" fill="#211715"/>
<path d="M101.695 111.432C103.845 102.978 106.395 94.6568 109.411 86.4856L108.304 87.6203C110.86 86.9989 113.756 88.0792 115.924 89.4243C118.58 91.0724 120.57 93.7325 121.816 96.6193C122.48 98.1577 122.875 99.7935 123.204 101.435C123.218 101.507 123.281 102.059 123.239 101.588C123.248 101.696 123.26 101.807 123.261 101.915C123.262 102.156 123.273 102.397 123.27 102.638C123.258 103.3 123.206 103.956 123.056 104.6C122.816 105.621 122.164 106.417 121.561 107.247C120.554 108.633 119.389 109.818 118.163 110.996C114.773 114.256 111.382 117.516 107.992 120.776C106.501 122.209 108.745 124.503 110.233 123.073C112.587 120.809 114.942 118.545 117.296 116.282C119.475 114.187 121.792 112.195 123.636 109.773C124.877 108.144 125.966 106.66 126.272 104.562C126.618 102.192 126.264 99.9836 125.572 97.7044C124.054 92.7107 120.799 88.1101 116.108 85.8423C114.016 84.831 111.668 84.117 109.333 84.221C108.783 84.2454 108.207 84.2973 107.672 84.4362C106.749 84.6766 106.472 85.3045 106.159 86.1558C105.625 87.6089 105.103 89.0661 104.596 90.529C102.313 97.1131 100.359 103.806 98.6403 110.568C98.1251 112.593 101.183 113.457 101.697 111.432H101.695Z" fill="#211715"/>
<path d="M28.4307 110.568C26.9068 104.572 25.2037 98.6273 23.2375 92.7669C22.7525 91.3211 22.2532 89.8809 21.7413 88.4457C21.2848 87.1656 20.9377 84.8856 19.5032 84.4632C17.377 83.8361 14.8362 84.3259 12.8027 85.0618C7.83847 86.8594 4.17317 90.8565 2.17766 95.7925C0.550663 99.8189 -0.274324 104.536 2.34884 108.292C4.17317 110.903 6.3676 113.007 8.64365 115.196C11.3746 117.822 14.1063 120.448 16.8373 123.074C18.324 124.503 20.5707 122.21 19.0785 120.777C16.0646 117.879 13.0507 114.981 10.0369 112.083C8.68882 110.787 7.30829 109.54 6.1354 108.07C5.48793 107.258 4.67561 106.331 4.2445 105.367C3.77851 104.325 3.77613 103.036 3.80862 101.915C3.81179 101.806 3.82051 101.696 3.83081 101.588C3.81654 101.738 3.7373 102.096 3.86568 101.435C3.93939 101.052 4.01467 100.669 4.10105 100.289C4.30235 99.4022 4.54802 98.5266 4.84838 97.6697C5.86357 94.7699 7.7085 91.9083 10.1652 90.0856C12.4912 88.3604 15.8483 86.9113 18.7646 87.6196L17.6575 86.4849C20.6738 94.6562 23.224 102.978 25.3733 111.431C25.8876 113.453 28.9459 112.596 28.4299 110.567L28.4307 110.568Z" fill="#211715"/>
<path d="M108.682 84.6513C106.814 83.2404 104.655 82.3023 102.485 81.4924C100.108 80.6055 97.676 79.8216 95.2288 79.1662C90.9176 78.0111 86.5517 77.0592 82.1986 76.0877C80.1666 75.6345 78.133 75.1861 76.0979 74.7499C74.1072 74.3227 73.2568 77.4539 75.2555 77.8828C83.5846 79.6705 92.0382 81.3097 100.12 84.0819C102.567 84.921 104.99 85.877 107.084 87.4568C107.773 87.9775 108.853 87.5746 109.252 86.8736C109.723 86.0484 109.375 85.1728 108.683 84.6513H108.682Z" fill="#211715"/>
<path d="M123.644 129.125C123.019 123.844 122.261 118.581 121.368 113.339C121.22 112.474 120.186 111.988 119.418 112.204C118.527 112.455 118.164 113.335 118.311 114.203C119.155 119.157 119.882 124.132 120.474 129.125C120.577 129.995 121.128 130.749 122.059 130.749C122.836 130.749 123.748 130.002 123.644 129.125V129.125Z" fill="#211715"/>
<path d="M19.9861 87.4571C21.7566 86.1209 23.7655 85.2291 25.8276 84.4786C28.1576 83.6306 30.5319 82.8687 32.926 82.2351C37.1984 81.1045 41.5191 80.1566 45.8303 79.1957C47.8234 78.7514 49.8181 78.3119 51.8144 77.8839C53.8107 77.4558 52.9651 74.323 50.972 74.751C42.4986 76.5697 33.8826 78.225 25.6763 81.0988C23.1355 81.989 20.5638 83.0084 18.3869 84.6516C17.699 85.1714 17.3534 86.06 17.8179 86.8739C18.2149 87.57 19.2935 87.9802 19.9861 87.4571Z" fill="#211715"/>
<path d="M6.59601 129.126C7.18721 124.133 7.91472 119.158 8.75873 114.204C8.90534 113.34 8.53287 112.453 7.65161 112.205C6.88764 111.99 5.84947 112.471 5.70207 113.34C4.80971 118.581 4.05209 123.845 3.42602 129.126C3.32299 129.999 4.22882 130.751 5.01101 130.751C5.95329 130.751 6.49219 130.001 6.59601 129.126V129.126Z" fill="#211715"/>
<path d="M49.3607 69.4256L49.2775 78.3328C49.268 79.3514 49.776 80.3115 50.6263 80.8394C54.672 83.3534 59.0807 84.3021 63.544 84.203C67.9971 84.3021 72.3962 83.3574 76.4348 80.8565C77.2867 80.3293 77.7963 79.3676 77.7868 78.3474C77.759 75.3729 77.7313 72.3993 77.7036 69.4248" fill="#C6C6C6"/>
<path d="M47.7791 69.4246L47.726 75.0795C47.7054 77.3205 47.3139 79.8913 49.0407 81.6214C49.8134 82.3955 50.9158 82.9032 51.8811 83.3694C52.9501 83.8852 54.0541 84.336 55.1842 84.6926C57.3319 85.37 59.5897 85.7217 61.8332 85.8118C66.2617 85.9897 70.6315 85.4577 74.7089 83.6049C77.0508 82.5409 79.2642 81.2518 79.3736 78.3464C79.4853 75.3865 79.3173 72.3861 79.2904 69.4238C79.2706 67.3338 76.1006 67.329 76.1204 69.4238C76.1418 71.7216 76.1632 74.0203 76.1846 76.3182C76.1917 77.0963 76.4295 78.2514 76.0673 78.9653C75.679 79.7313 74.4593 80.1496 73.7484 80.4981C70.2084 82.2339 66.3909 82.6359 62.5172 82.5815C60.6009 82.5539 58.7068 82.3086 56.8532 81.8034C55.0606 81.3144 52.9097 80.6215 51.4285 79.4356C50.8453 78.9694 50.8643 78.3992 50.8706 77.7258L50.896 74.9804L50.9475 69.4238C50.9673 67.3322 47.7973 67.3306 47.7775 69.4238L47.7791 69.4246Z" fill="#211715"/>
<path d="M35.4472 27.6559C35.8949 22.1269 38.1583 16.7343 41.8046 12.6268C45.2734 8.71819 49.8461 6.19127 54.8396 4.98345C59.8331 3.77563 65.3267 3.69196 70.3432 4.6488C75.286 5.59183 80.0014 7.72318 83.6667 11.3052C88.0342 15.5728 90.7833 21.4942 91.2826 27.6559C91.4506 29.7248 94.6214 29.7434 94.4526 27.6559C93.9454 21.3934 91.5418 15.4396 87.4945 10.705C83.757 6.3326 78.6645 3.38006 73.1899 1.96511C67.5639 0.511168 61.3975 0.429132 55.6987 1.4875C50.175 2.51338 44.9033 5.01919 40.8219 9.00818C35.826 13.8898 32.8462 20.6381 32.278 27.6568C32.1092 29.7402 35.28 29.7288 35.448 27.6568L35.4472 27.6559Z" fill="#211715"/>
<path d="M32.6636 48.5075C34.7296 59.6314 43.0207 69.2793 53.9897 71.5878C59.5213 72.7517 65.534 72.7534 71.1084 71.9046C76.5885 71.0704 81.6098 68.5808 85.5889 64.6186C89.9112 60.3145 92.9401 54.5743 94.0671 48.5075C94.4467 46.4639 91.3924 45.5891 91.0104 47.6441C89.1607 57.5999 82.01 66.2626 72.1672 68.4216C69.7271 68.9569 67.2307 69.1209 64.7407 69.164C62.0914 69.2103 59.4135 69.1665 56.7848 68.7993C51.655 68.0837 46.98 65.9467 43.2712 62.2103C39.3681 58.2782 36.7418 53.1463 35.7202 47.6441C35.339 45.5923 32.2832 46.4614 32.6636 48.5075Z" fill="#211715"/>
<path d="M55.6499 35.5652C56.1864 37.353 55.837 41.4646 52.533 41.8147C48.1664 41.7879 47.9334 36.816 49.4035 34.4792C50.6073 32.5655 54.1458 31.7687 55.6499 35.5652Z" fill="#211715"/>
<path d="M78.5894 35.5652C79.1259 37.353 78.7764 41.4646 75.4725 41.8147C71.1058 41.7879 70.8728 36.816 72.3429 34.4792C73.5467 32.5655 77.0852 31.7687 78.5894 35.5652Z" fill="#211715"/>
<path d="M92.5401 51.295C95.3431 51.018 99.2486 51.0538 100.849 48.2271C101.682 46.7553 101.875 44.758 102.129 43.0977C102.388 41.4058 102.565 39.7009 102.627 37.9894C102.691 36.2179 102.639 34.4439 102.498 32.6773C102.377 31.1592 102.2 29.6143 101.324 28.3317C99.4768 25.6253 95.9217 26.1427 93.0885 26.0014C91.0494 25.8998 91.0541 29.1488 93.0885 29.2504C94.4175 29.317 95.7473 29.36 97.0747 29.4396C97.8403 29.4851 98.3594 29.6013 98.7707 30.2495C99.4015 31.2445 99.3405 32.6838 99.4063 33.8185C99.4863 35.2075 99.5069 36.5997 99.457 37.9903C99.3611 40.6439 99.0084 43.3065 98.357 45.8789C98.0313 47.1647 97.1865 47.3815 96.0128 47.5903C94.8605 47.7958 93.7035 47.9314 92.5401 48.046C91.6881 48.1304 90.9551 48.7323 90.9551 49.6705C90.9551 50.4836 91.6826 51.3795 92.5401 51.295Z" fill="#211715"/>
<path d="M34.4506 48.0468C33.2873 47.9314 32.1294 47.7974 30.9779 47.5911C29.8882 47.3953 29.0442 47.2232 28.6757 46.0551C27.8761 43.5209 27.6296 40.6374 27.5337 37.9902C27.4838 36.5997 27.5052 35.2075 27.5844 33.8185C27.6478 32.7073 27.6035 31.3501 28.163 30.3526C28.5695 29.6273 29.1076 29.4876 29.9152 29.4396C31.2434 29.3608 32.5732 29.317 33.9014 29.2504C35.9318 29.1488 35.9437 25.8998 33.9014 26.0014C31.1 26.1411 27.6011 25.631 25.7292 28.244C24.8004 29.5404 24.6157 31.121 24.4921 32.6773C24.3518 34.4439 24.2987 36.2179 24.3629 37.9894C24.4248 39.7009 24.6023 41.4058 24.8606 43.0977C25.1103 44.7312 25.3131 46.5994 26.066 48.0768C27.5805 51.0505 31.6119 51.0148 34.4491 51.295C35.3026 51.3795 36.0341 50.4876 36.0341 49.6705C36.0341 48.7218 35.305 48.1304 34.4491 48.046L34.4506 48.0468Z" fill="#211715"/>
<path d="M67.9294 61.8497C67.7797 59.6688 69.4043 58.2051 72.2842 58.1012C75.184 57.9964 76.6533 59.1815 76.7404 60.8953C76.8284 62.6238 75.4851 64.7154 72.5838 64.9103C69.9646 65.0866 68.0507 63.8073 67.9294 61.8497Z" fill="#211715"/>
<path d="M93.2036 47.3691C90.8887 50.8342 88.5889 53.9622 85.086 56.2544C80.7907 59.0656 76.2108 60.2036 71.1618 60.3986C69.1283 60.4773 69.118 63.7264 71.1618 63.6476C76.7521 63.4315 81.9271 62.1741 86.6861 59.0599C88.5025 57.8716 90.2444 56.4534 91.7057 54.8249C93.3026 53.046 94.6118 50.9983 95.9409 49.0091C97.0963 47.2798 94.3503 45.6528 93.2036 47.3691Z" fill="#211715"/>
<path d="M69.5162 61.8496C69.5067 61.675 69.5146 61.5027 69.5146 61.3281C69.5154 60.9723 69.4251 61.7042 69.5075 61.3647C69.5225 61.3021 69.5328 61.2379 69.5487 61.1746C69.5717 61.0812 69.6034 60.9918 69.6303 60.9001C69.685 60.714 69.7143 60.913 69.5764 61.026C69.639 60.9748 69.8364 60.6149 69.8593 60.5418C69.788 60.7766 69.6707 60.7668 69.7872 60.6491C69.8546 60.5816 69.9164 60.5086 69.9853 60.4419C69.9838 60.4436 70.1288 60.3266 70.1296 60.312C70.1201 60.4289 69.849 60.5126 70.1272 60.3266C70.2722 60.2291 70.426 60.1512 70.5781 60.0667C70.7176 59.9895 70.655 59.9489 70.4981 60.0967C70.5647 60.0334 70.7271 60.0098 70.8175 59.9798C71.0069 59.9172 71.1994 59.866 71.3936 59.8238C71.5172 59.797 71.6409 59.7759 71.7653 59.7548C71.7067 59.7653 71.4277 59.7873 71.7352 59.7621C72.2527 59.7198 72.7702 59.7011 73.2893 59.7426C73.3772 59.7499 73.4644 59.7596 73.5524 59.7678C73.1474 59.728 73.5508 59.7718 73.6253 59.7864C73.8139 59.8238 74.0009 59.8701 74.1848 59.9286C74.2537 59.9505 74.3211 59.9773 74.39 59.9993C74.0849 59.8262 74.7356 60.1073 74.39 59.9993C74.5406 60.0845 74.6912 60.1958 74.8441 60.2706C75.0169 60.355 74.5763 59.9879 74.7712 60.2153C74.8085 60.2584 74.8584 60.2965 74.8988 60.338C74.9194 60.3591 75.0771 60.5045 75.0708 60.5329C75.0446 60.6507 74.8663 60.1804 74.9717 60.4119C75.0026 60.4809 75.0542 60.5703 75.097 60.632C75.2364 60.8326 74.9091 60.4996 75.0391 60.4761C75.093 60.4663 75.1421 60.9382 75.1738 60.9723C75.0518 60.8399 75.1493 60.5792 75.1532 60.8481C75.154 60.9204 75.1604 60.9918 75.1604 61.0641C75.1604 61.1218 75.1556 61.1795 75.1548 61.2371C75.1548 61.6181 75.1445 61.1397 75.173 61.1551C75.2 61.1697 75.0795 61.571 75.0724 61.5937C75.0549 61.6522 75.0336 61.7099 75.0161 61.7684C74.9289 62.06 75.2016 61.4272 75.0137 61.7684C74.944 61.8943 74.8814 62.0226 74.8037 62.1444C74.6286 62.4198 74.7039 62.1501 74.8243 62.1355C74.8093 62.1371 74.7174 62.2646 74.696 62.289C74.5826 62.4182 74.4566 62.5319 74.3338 62.6513C74.077 62.9015 74.6294 62.4677 74.3211 62.6602C74.2284 62.7179 74.1396 62.7829 74.0453 62.8397C73.9645 62.8876 73.8797 62.9291 73.798 62.9754C73.5127 63.1386 73.806 62.9819 73.806 62.9802C73.8107 63.0168 73.2512 63.1646 73.2235 63.1719C73.1403 63.1939 73.0571 63.2134 72.9731 63.2312C72.9105 63.2442 72.4825 63.2946 72.8637 63.258C72.6093 63.2824 72.3565 63.2994 72.1005 63.2994C71.8588 63.2994 71.6195 63.2824 71.3794 63.2588C71.7891 63.2978 71.3849 63.254 71.308 63.2385C71.1907 63.2142 71.0734 63.1865 70.9577 63.1541C70.8642 63.1281 70.7715 63.0988 70.6796 63.0672C70.6257 63.0493 70.5718 63.0298 70.5179 63.0087C70.3547 62.9429 70.3776 62.9526 70.5884 63.0395C70.4807 63.0704 70.1684 62.8007 70.0765 62.7455C69.7936 62.5757 70.1343 62.7479 70.1082 62.7804C70.1058 62.7837 69.914 62.6025 69.8855 62.5733C69.8633 62.5506 69.708 62.3483 69.6866 62.3499C69.7595 62.3442 69.8998 62.6724 69.708 62.3556C69.6683 62.2906 69.6382 62.1972 69.5907 62.1404C69.5376 62.0291 69.5574 62.0835 69.6509 62.3036C69.6271 62.2419 69.6049 62.1793 69.5851 62.116C69.5653 62.0526 69.5479 61.9877 69.532 61.9227C69.425 61.4686 69.5376 62.1444 69.5138 61.8471C69.4472 61.0024 68.8323 60.1812 67.9288 60.2226C67.1268 60.2592 66.2725 60.9398 66.3438 61.8471C66.4358 63.0225 66.8605 64.1223 67.7148 64.9418C68.5501 65.7427 69.643 66.2512 70.7699 66.425C73.2861 66.8117 75.8934 66.1391 77.4309 63.946C78.6315 62.2338 78.6363 59.8132 77.2835 58.2017C75.7302 56.3522 72.8304 56.2401 70.6709 56.6649C68.1983 57.1515 66.194 59.1537 66.3438 61.8471C66.3906 62.6943 67.0388 63.5123 67.9288 63.4716C68.7475 63.4343 69.5645 62.756 69.5138 61.8471L69.5162 61.8496Z" fill="#211715"/>
<path d="M96.6156 50.773C92.2157 50.773 88.8809 46.4121 88.8809 38.7013C88.8809 30.9906 92.9107 27.1494 96.6172 27.1494C100.387 27.1494 105.406 30.3229 105.406 38.7013C105.406 45.9889 101.524 50.773 96.6156 50.773Z" fill="white"/>
<path d="M96.6145 49.1476C93.1957 49.0964 91.4062 45.6719 90.7793 42.4278C90.0051 38.4242 90.2809 33.1015 93.4128 30.1489C95.4686 28.2109 98.0069 28.4724 100.195 29.9572C103.459 32.1714 104.119 36.8914 103.726 40.6254C103.309 44.6014 100.998 49.0842 96.6145 49.1484C94.5762 49.1784 94.5706 52.4275 96.6145 52.3974C107.646 52.2341 110.177 34.7747 103.111 28.2027C100.274 25.5653 95.9734 24.5744 92.5918 26.7358C87.9541 29.6997 86.8787 36.0402 87.4215 41.1988C87.9771 46.4785 90.7144 52.3089 96.6145 52.3982C98.6552 52.4291 98.656 49.1801 96.6145 49.1492V49.1476Z" fill="#211715"/>
</svg>
