<?xml version="1.0" ?><svg viewBox="0 0 32 32" xmlns="http://www.w3.org/2000/svg"><defs><style>.cls-1{fill:none;stroke:#000;stroke-linejoin:round;stroke-width:2px;}</style></defs><title/><g data-name="25-Call center" id="_25-Call_center"><path class="cls-1" d="M21,15a5,5,0,0,1-2,4,5,5,0,0,1-6,0,5,5,0,0,1-2-4"/><path class="cls-1" d="M11,9A5,5,0,1,1,21,9"/><polygon class="cls-1" points="24 9 25 9 25 15 21 15 21 9 24 9"/><polygon class="cls-1" points="11 15 7 15 7 9 8 9 11 9 11 15"/><path class="cls-1" d="M24,9A8,8,0,1,0,8,9"/><line class="cls-1" x1="11" x2="16" y1="15" y2="15"/><polyline class="cls-1" points="13 19 13 22 5 22 5 31 27 31 27 22 19 22 19 19"/></g></svg>