<svg width="807" height="223" viewBox="0 0 807 223" fill="none" xmlns="http://www.w3.org/2000/svg">
<g clip-path="url(#clip0_2147_1385)">
<mask id="path-1-inside-1_2147_1385" fill="white">
<path fill-rule="evenodd" clip-rule="evenodd" d="M60.21 -0.0224609C27.0729 -0.0224609 0.209961 26.8405 0.209961 59.9775V163C0.209961 196.137 27.073 223 60.21 223H430.324V-0.0224609H60.21Z"/>
</mask>
<path d="M430.324 223V225H432.324V223H430.324ZM430.324 -0.0224609H432.324V-2.02246H430.324V-0.0224609ZM2.20996 59.9775C2.20996 27.945 28.1774 1.97754 60.21 1.97754V-2.02246C25.9683 -2.02246 -1.79004 25.7359 -1.79004 59.9775H2.20996ZM2.20996 163V59.9775H-1.79004V163H2.20996ZM60.21 221C28.1775 221 2.20996 195.033 2.20996 163H-1.79004C-1.79004 197.242 25.9684 225 60.21 225V221ZM430.324 221H60.21V225H430.324V221ZM432.324 223V-0.0224609H428.324V223H432.324ZM60.21 1.97754H430.324V-2.02246H60.21V1.97754Z" fill="#CDEEFF" mask="url(#path-1-inside-1_2147_1385)"/>
<path fill-rule="evenodd" clip-rule="evenodd" d="M746.665 -0.0224609C779.802 -0.0224609 806.665 26.8405 806.665 59.9775V163C806.665 196.137 779.802 223 746.665 223H428.324V-0.0224609H746.665Z" fill="white"/>
</g>
<defs>
<clipPath id="clip0_2147_1385">
<rect width="806" height="223" fill="white" transform="translate(0.209961)"/>
</clipPath>
</defs>
</svg>
