<svg width="90" height="90" viewBox="0 0 90 90" fill="none" xmlns="http://www.w3.org/2000/svg">
<path d="M44.9686 8.875C24.3579 8.875 7.80693 26.125 8.8687 47C9.80554 65.375 24.6078 80.1875 42.97 81.125C63.8305 82.25 81.0686 65.625 81.0686 45C81.131 25.0625 64.9547 8.875 44.9686 8.875ZM57.335 32C57.335 32.375 57.0852 32.625 56.7105 32.625H47.9041V37.375H56.7105C57.0852 37.375 57.335 37.625 57.335 38V46.8125C57.335 47.1875 57.0852 47.4375 56.7105 47.4375H48.5287V66.75C48.5287 67.0625 48.2788 67.375 47.9041 67.375H39.5974C39.2851 67.375 38.9728 67.0625 38.9728 66.75V47.375H33.2892C32.977 47.375 32.6647 47.0625 32.6647 46.75V37.9375C32.6647 37.625 32.977 37.3125 33.2892 37.3125H38.9728V33.75C38.9728 33.6875 38.9728 33.625 38.9728 33.625C38.9728 28.5625 40.0346 22.75 48.4037 22.6875H48.4662H56.7105C57.0852 22.6875 57.335 23 57.335 23.3125V32Z" fill="white"/>
<path d="M47.9045 32.625V37.375H56.7108C57.0856 37.375 57.3354 37.625 57.3354 38V46.8125C57.3354 47.1875 57.0856 47.4375 56.7108 47.4375H48.529V66.75C48.529 67.0625 48.2792 67.375 47.9045 67.375H39.5977C39.2854 67.375 38.9732 67.0625 38.9732 66.75V47.375H33.2896C32.9773 47.375 32.665 47.0625 32.665 46.75V37.9375C32.665 37.625 32.9773 37.3125 33.2896 37.3125H38.9732V33.75C38.9732 33.6875 38.9732 33.625 38.9732 33.625C38.9732 28.5625 40.0349 22.75 48.4041 22.6875H48.4666H56.7108C57.0856 22.6875 57.3354 23 57.3354 23.3125V32C57.3354 32.375 57.0856 32.625 56.7108 32.625H47.9045Z" fill="#48A0F0" fill-opacity="0.7"/>
</svg>
