<svg width="90" height="90" viewBox="0 0 90 90" fill="none" xmlns="http://www.w3.org/2000/svg">
<path d="M63.2686 33.0625V57C63.2686 60.5 60.3956 63.375 56.898 63.375H33.102C29.6045 63.375 26.7314 60.5 26.7314 57V33.0625C26.7314 29.5625 29.6045 26.6875 33.102 26.6875H56.898C60.3956 26.6875 63.2686 29.5625 63.2686 33.0625Z" fill="#48A0F0" fill-opacity="0.7"/>
<path d="M57.6475 31.75H52.0889V37.5H57.6475V31.75Z" fill="white"/>
<path d="M54.212 44.9375C54.212 50.0625 50.0899 54.1875 44.9685 54.1875C39.847 54.1875 35.7249 50.0625 35.7249 44.9375C35.7249 43.5625 36.0372 42.25 36.5993 41.0625H30.4785V56.9375C30.4785 58.375 31.6652 59.5625 33.1017 59.5625H56.8977C58.3342 59.5625 59.5208 58.375 59.5208 56.9375V41.0625H53.4001C53.8997 42.25 54.212 43.5625 54.212 44.9375Z" fill="white"/>
<path d="M44.9691 50.4375C48.0294 50.4375 50.4652 48 50.4652 44.9375C50.4652 43.4375 49.8407 42.0625 48.9038 41.0625H41.0967C40.0974 42.0625 39.5353 43.4375 39.5353 44.9375C39.4729 48 41.9711 50.4375 44.9691 50.4375Z" fill="white"/>
<path d="M44.9993 8.875C25.0757 8.875 8.89941 25.0625 8.89941 45C8.89941 64.9375 25.0757 81.125 44.9993 81.125C64.923 81.125 81.0993 64.9375 81.0993 45C81.0993 25.0625 64.9855 8.875 44.9993 8.875ZM63.2991 56.9375C63.2991 60.4375 60.4261 63.3125 56.9286 63.3125H33.1326C29.635 63.3125 26.762 60.4375 26.762 56.9375V33.0625C26.762 29.5625 29.635 26.6875 33.1326 26.6875H56.9286C60.4261 26.6875 63.2991 29.5625 63.2991 33.0625V56.9375Z" fill="white"/>
</svg>
