<svg width="415" height="160" viewBox="0 0 415 160" fill="none" xmlns="http://www.w3.org/2000/svg">
<path d="M237.469 92.2476L237.478 92.3246C240.765 93.8726 242.199 96.7216 240.837 100.131C234.576 115.951 233.004 132.769 230.708 149.362C230.32 152.502 230.522 156.037 226.714 157.18C223.059 158.305 220.155 156.092 218.205 153.458C214.972 149.196 212.312 144.556 209.441 140.096C208.567 138.651 207.836 137.113 206.629 134.856C203.115 141.534 199.983 147.549 196.785 153.649C195.224 156.695 193.795 160.189 189.362 159.393C184.862 158.683 183.592 155.273 183.019 151.24C180.507 135.211 177.833 119.124 175.321 103.094C174.427 97.7056 175.538 95.4096 179.048 94.9976C182.626 94.5006 185.758 97.3056 186.606 101.694C188.462 112.384 190.404 123.142 192.467 134.892C195.214 130.16 197.035 126.078 199.713 122.67C201.444 120.378 204.31 117.876 206.905 117.571C210.788 117.039 212.688 120.529 214.035 123.93C215.79 128.134 217.698 132.32 219.938 137.318C221.761 127.589 223.154 118.761 225.108 110.099C226.254 104.936 227.963 99.9386 229.909 94.9906C231.223 91.8196 234.182 90.6996 237.469 92.2476ZM273.161 94.5616C283 96.5016 288.88 102.776 290.136 112.995C291.796 125.875 283.158 142.515 271.662 148.505C263.365 152.805 254.436 149.442 252.234 140.339C248.387 124.157 252.025 109.031 260.448 95.0466C262.831 91.1306 266.207 90.8896 270.132 93.2146C271.132 93.7936 272.132 94.3726 273.161 94.5616ZM263.348 138.804C272.569 135.092 280.037 121.529 278.465 111.888C278.267 110.906 278.269 109.667 277.651 109.044C276.043 107.298 273.998 104.521 272.396 104.709C270.393 104.789 267.441 107.224 266.979 109.135C265.044 117.33 263.815 125.597 262.51 133.873C262.316 135.444 263.065 137.135 263.348 138.804ZM354.497 128.657C355.676 130.066 356.308 133.319 355.466 134.655C354.624 135.992 351.466 136.749 349.645 136.421C344.316 135.267 339.189 133.237 333.918 131.921C328.58 130.691 323.222 129.926 317.445 128.902C317.504 132.531 317.421 135.635 317.643 138.704C317.75 142.095 317.239 144.863 313.289 145.481C310.093 145.933 306.703 143.545 306.101 139.902C305.414 135.573 304.861 131.074 304.851 126.588C304.77 115.844 304.993 105.064 305.14 94.2926C305.268 88.3981 306.395 87.4923 312.203 87.5075C313.29 87.5348 314.589 86.7636 315.411 85.8935C319.224 82.2745 323.378 79.5438 328.972 81.5956C334.814 83.7731 337.13 88.7622 337.9 94.3966C339.083 102.768 336.445 110.273 331.709 117.094C331.192 117.929 330.675 118.763 329.958 119.853C336.363 121.577 342.263 122.974 347.982 124.779C350.326 125.588 352.956 126.827 354.497 128.657ZM317.2 114.309C324.135 109.008 327.971 99.2746 325.484 93.5316C319.169 98.8366 317.085 105.812 317.2 114.309ZM395.447 98.1706C399.904 105.462 404.706 112.403 411.761 117.533C414.218 119.256 416.082 121.823 414.063 124.922C411.92 128.268 408.382 127.832 406.117 125.776C400.644 120.925 395.715 115.469 390.586 110.268C389.787 109.433 389.207 108.496 387.714 106.427C385.351 114.286 383.19 121.27 381.038 128.33C380.721 129.528 380.652 130.851 380.344 132.125C379.236 136.974 374.321 138.556 370.934 134.931C369.155 133.05 367.711 130.125 367.65 127.734C367.354 114.617 367.372 101.54 367.553 88.5215C367.604 82.6359 368.198 76.7639 368.554 70.8425C368.803 65.9394 370.668 63.4772 374.016 63.6262C378.059 63.771 381.065 67.4415 380.711 72.1247C380.25 78.4454 379.626 84.7076 379.078 90.9606C378.99 92.1316 379.207 93.2666 379.251 94.8866C384.276 86.638 388.832 78.9863 393.483 71.4782C395.052 69.128 396.859 66.8272 398.857 64.8136C401.61 62.0152 405.081 61.9176 407.766 64.2332C410.555 66.7686 410.416 69.4153 407.909 72.9585C403.566 79.1927 399.556 85.6199 395.222 91.9306C393.72 94.1956 394.012 95.9406 395.447 98.1706Z" fill="white"/>
<path d="M30.3069 34.0502C33.7411 33.6475 37.083 36.2728 37.332 40.1892C37.6802 46.8016 37.6374 53.3826 37.604 60.0398C37.5907 70.6402 37.4247 81.2584 37.3445 91.9443C37.295 97.2103 35.8691 99.4663 32.388 99.4883C28.7449 99.4513 25.8998 96.4583 25.7954 91.8283C25.573 84.3502 25.5891 76.9214 25.5595 68.4922C21.227 69.7739 17.0189 70.8088 12.9434 72.2924C12.3516 72.5166 11.9379 74.1897 11.9071 75.1991C11.7813 80.4745 11.8938 85.7994 11.8537 91.1422C11.8939 94.6193 11.6957 98.0463 7.09809 98.4303C3.49249 98.6983 0.304595 95.4363 0.304595 91.0266C0.185295 79.9775 0.371396 68.8927 0.404796 57.8258C0.432796 53.6449 0.546596 49.5312 0.422096 45.3682C0.280096 40.4336 1.90679 37.9219 5.46419 37.8916C9.32689 37.8255 12.3902 41.3345 12.3139 45.7531C12.2564 50.3243 12.2658 54.8103 12.1976 59.9243C16.5676 58.9477 20.4892 58.1011 24.2969 56.9583C25.0413 56.7163 25.846 55.0747 25.8768 54.0653C26.0481 49.7902 26.0574 45.4568 25.9905 41.1323C25.8833 37.7408 25.957 34.5603 30.3069 34.0502ZM95.4386 82.2695C95.6946 83.0905 95.9506 83.9116 96.5566 85.6972C95.8296 86.7108 95.0126 89.5143 93.8686 89.6485C91.6556 89.908 88.4236 89.436 87.0056 87.9776C84.9596 85.8192 83.7076 82.562 83.0276 79.5472C82.1196 75.9402 80.3826 76.2986 77.3876 76.495C69.0134 77.0128 64.5697 81.17 63.8173 89.5361C63.662 90.7922 63.1158 92.0163 62.7222 93.2233C61.7622 96.1213 59.9936 98.1073 56.6758 97.5683C53.3487 96.9523 51.2266 94.8033 51.1864 91.3267C51.1329 89.631 51.7755 87.931 52.1129 86.2668C56.5792 67.1758 60.8836 48.0264 65.5025 28.9175C66.2054 25.8179 67.7572 22.6961 69.6222 20.2338C72.4246 16.5786 78.6846 19.0164 80.2666 24.3238C81.6866 28.9538 82.4396 33.8169 83.7166 38.541C87.5196 53.1037 91.4836 67.7247 95.4386 82.2695ZM70.3522 66.4891C73.3576 65.7499 75.6196 65.2526 78.2526 64.6343C77.0236 59.6725 75.8326 55.0156 74.6406 50.3588L73.8586 50.2958C72.7126 55.4588 71.6522 60.6891 70.3522 66.4891ZM153.744 28.705C155.896 34.8739 153.272 39.9782 149.323 44.3867C142.651 51.8225 133.83 55.6418 124.478 58.2857C123.953 58.4246 123.438 58.6398 122.77 58.8728C122.268 66.1265 121.948 72.9721 121.323 79.8534C121.057 83.3658 120.42 86.9993 115.699 87.0113C111.675 87.019 108.831 83.407 109.004 78.5128C109.232 69.6665 109.69 60.7933 109.833 51.8797C109.825 46.7747 109.417 41.5618 108.942 36.4342C108.821 34.8237 107.709 33.3295 106.977 31.7906C105.448 28.798 105.493 26.0077 108.624 24.4027C118.296 19.323 128.498 16.0379 139.663 17.4364C146.433 18.3447 151.46 22.0875 153.744 28.705ZM141.439 34.403C143.878 30.945 142.454 28.1722 138.124 28.2158C134.719 28.2282 131.332 29.0122 127.897 29.4149C124.301 29.7592 122.847 31.7865 122.982 35.4067C123.09 38.7981 122.815 42.2343 122.729 46.5767C130.555 44.1118 137.029 40.7224 141.439 34.403ZM215.375 21.4783C217.527 27.6472 214.903 32.7514 210.954 37.16C204.281 44.5957 195.461 48.4151 186.109 51.0589C185.584 51.1978 185.069 51.413 184.4 51.6461C183.898 58.8998 183.579 65.7453 182.953 72.6266C182.688 76.1391 182.051 79.7725 177.33 79.7845C173.305 79.7923 170.462 76.1802 170.634 71.286C170.863 62.4397 171.321 53.5666 171.464 44.653C171.456 39.5479 171.048 34.3351 170.572 29.2074C170.452 27.5969 169.339 26.1027 168.608 24.5638C167.079 21.5712 167.123 18.7809 170.255 17.1759C179.927 12.0962 190.129 8.81114 201.294 10.2097C208.063 11.1179 213.091 14.8607 215.375 21.4783ZM203.07 27.1762C205.509 23.7183 204.084 20.9455 199.754 20.989C196.35 21.0014 192.962 21.7855 189.528 22.1881C185.932 22.5325 184.478 24.5597 184.613 28.1799C184.72 31.5714 184.446 35.0076 184.36 39.35C192.186 36.8851 198.659 33.4956 203.07 27.1762ZM265.545 2.75304C266.61 4.48494 266.593 7.50404 265.826 9.45074C263.486 15.6048 260.088 21.3413 257.91 27.5537C255.991 32.73 255.616 38.4989 253.774 43.6662C251.011 51.4171 247.285 58.8941 247.486 67.4579C247.492 68.7723 247.823 70.2035 247.334 71.2665C246.586 73.3657 245.673 76.6447 244.241 76.9672C242.2 77.3614 238.96 76.194 237.676 74.5652C236.202 72.6493 235.655 69.464 235.804 66.8936C236.246 61.0395 237.546 55.2395 238.073 49.4528C238.298 46.8734 238.104 44.0337 237.193 41.6648C233.988 33.2212 230.334 24.9076 226.976 16.4818C225.184 11.9729 226.143 9.07524 229.112 8.03094C232.452 6.86554 236.138 9.14114 237.665 13.3718C239.447 18.4236 241.314 23.5427 243.428 29.4065C247.578 20.3326 251.009 12.3486 254.85 4.54864C255.779 2.66034 257.93 0.628861 259.752 0.337831C261.565 -0.0294686 264.585 1.24099 265.545 2.75304Z" fill="white"/>
</svg>
