<svg width="171" height="136" viewBox="0 0 171 136" fill="none" xmlns="http://www.w3.org/2000/svg">
<path d="M127.059 125.254C127.716 127.16 127.445 129.331 127.097 130.786L127.064 130.974L119.456 129.576L107.023 127.285L108.049 126.598L108.015 121.646L108.118 121.078C113.94 122.199 121.613 123.699 125.563 124.46C125.806 124.505 126.053 124.527 126.3 124.523L127.059 125.254Z" fill="white"/>
<path d="M108.029 121.562L108.063 126.522L107.037 127.209L119.473 129.504L118.528 130.199C116.95 131.191 116.211 131.65 114.514 132.711C114.238 132.881 113.919 132.94 113.608 132.874C105.901 131.212 95.3955 129.102 87.666 127.245C87.2776 127.149 87.2141 126.592 87.575 126.402C91.6254 124.252 106.346 116.568 112.391 113.196C112.48 113.145 112.573 113.13 112.672 113.146C114.689 113.446 116.732 113.746 118.745 114.041C115.12 115.948 110.734 118.256 107.715 119.844C107.235 120.098 107.334 120.842 107.859 120.94C107.948 120.956 108.038 120.977 108.132 120.993L108.029 121.562Z" fill="white"/>
<path d="M56.7591 28.4075C56.5202 31.0618 56.3919 33.7123 56.2233 36.1535C55.9307 40.3866 54.8404 44.2554 52.1116 46.8075C49.9593 48.8206 47.6761 49.9931 45.0645 50.3796C45.0792 50.4201 45.0879 50.4433 45.0879 50.4433C45.4726 51.3211 46.2848 52.0481 47.1649 52.3322C47.8054 52.6038 48.7009 52.9118 49.6264 53.2211C48.6428 55.0952 47.075 56.4928 45.3621 57.3342C43.5036 58.2468 41.472 58.5489 39.4679 58.5835C34.2339 58.6659 29.004 56.9077 24.5839 53.5848C24.5839 53.5848 24.0108 53.1234 23.8232 52.9725C24.1156 52.8357 24.3947 52.6996 24.6465 52.5658C26.1744 51.7531 28.0491 50.9102 28.9243 49.3637C29.2483 48.7891 29.4505 48.1507 29.6528 47.5209C29.8877 46.783 30.1226 46.045 30.3571 45.3075C29.5271 44.428 28.817 43.5183 28.1458 42.5603C28.1458 42.5603 27.3794 41.4212 27.0492 40.7652C27.0492 40.7652 26.988 40.6126 26.905 40.407C25.9175 40.5096 24.8737 40.1881 24.4434 39.9428C22.9931 39.1099 22.2815 37.8569 21.8121 36.9506C21.1455 35.6691 20.7903 33.4767 21.3009 32.1628C21.472 31.7234 21.9086 30.9493 23.1632 30.6875C23.7395 30.5668 24.4452 30.6304 25.019 31.0232C25.019 31.0232 19.7569 13.1587 45.4384 12.715C58.1724 12.4949 56.7591 28.4075 56.7591 28.4075Z" fill="white"/>
<path d="M101.724 60.0538C102.939 59.0909 103.784 57.897 104.467 56.4932C104.983 55.4344 105.131 54.237 105.243 53.0638C105.808 47.1322 106.029 38.8695 105.741 32.3269C105.37 22.617 107.733 15.5297 111.509 11.6069C113.784 9.24218 118.926 5.98548 124.727 5.88524C128.211 5.82503 132.289 6.11646 136.194 9.62261C140.903 12.7996 143.614 16.8414 144.199 24.3534C144.279 25.3817 144.312 27.789 144.361 31.1015C144.164 37.91 144.363 47.0487 145.011 53.1922C145.139 54.4073 145.304 55.6465 145.834 56.7283C146.537 58.1628 147.805 59.1702 149.033 60.128" fill="#645D5C"/>
<path d="M149.454 59.5004C148.095 58.4455 146.728 57.3131 146.22 55.5525C145.749 53.9219 145.699 52.1265 145.571 50.4339C145.295 46.7747 145.168 43.1017 145.119 39.43C145.07 35.7337 145.191 32.0384 145.129 28.3432C145.078 25.3052 144.978 22.2896 144.195 19.3464C143.332 16.0996 141.657 13.2279 139.244 10.9961C138.42 10.2343 137.208 11.522 138.035 12.2869C140.095 14.191 141.574 16.5605 142.388 19.3132C143.243 22.2103 143.354 25.1822 143.405 28.1936C143.469 31.9167 143.348 35.6398 143.396 39.364C143.444 43.0675 143.571 46.7729 143.849 50.4635C143.997 52.422 144.036 54.5666 144.678 56.4232C145.391 58.4839 146.967 59.8018 148.596 61.0662C148.967 61.3549 149.56 61.1094 149.771 60.7236C150.027 60.2566 149.826 59.7895 149.453 59.5004L149.454 59.5004Z" fill="#211715"/>
<path d="M137.48 31.8928C138.02 31.5153 138.683 31.4448 139.223 31.5492C140.401 31.7761 140.808 32.4964 140.968 32.9061C141.443 34.1313 141.104 36.1951 140.474 37.4084C140.031 38.2666 139.36 39.4538 137.996 40.2576C137.566 40.5095 136.486 40.8525 135.511 40.7112C136.23 40.2025 134.512 42.7721 134.512 42.7721C133.939 43.5966 133.335 44.3846 132.645 45.1493C132.893 45.8939 133.144 46.6397 133.394 47.3851C133.592 47.9697 133.791 48.5624 134.102 49.0913C134.943 50.5144 136.714 51.2452 138.158 51.9583C138.396 52.076 138.66 52.1946 138.936 52.3135C138.761 52.462 138.23 52.9128 138.23 52.9128C134.124 56.1748 129.238 57.9947 124.324 58.0872C122.443 58.1197 120.532 57.9019 118.776 57.1059C117.135 56.3617 115.626 55.076 114.682 53.3112C115.56 52.987 116.413 52.6632 117.019 52.3836C117.841 52.0886 118.595 51.38 118.944 50.5436C118.952 50.527 118.966 50.481 118.986 50.4135C116.375 50.1563 114.119 49.0779 112.001 47.126C109.447 44.7718 108.434 41.1563 108.171 37.1865C108.056 35.4481 107.963 33.5955 107.83 31.715C108.079 30.7165 108.666 29.0237 109.25 28.0767L118.41 27.9184C120.091 27.2556 121.479 25.8312 122.334 24.1718C123.026 22.8297 123.404 21.7654 123.717 19.9819L127.936 20.4124C128.434 22.4362 129.042 24.3726 129.59 25.4443C130.7 27.6187 132.636 30.6159 134.622 31.4025L137.481 31.8937L137.48 31.8928Z" fill="white"/>
<path d="M112.177 55.2313C113.497 54.6865 114.852 54.2403 116.182 53.7225C116.818 53.4745 117.508 53.2384 118.095 52.8769C118.798 52.4436 119.404 51.7728 119.746 50.9957C119.939 50.5566 119.855 50.0302 119.432 49.7794C119.059 49.5586 118.462 49.6787 118.268 50.1201C117.727 51.348 116.565 51.686 115.428 52.12C114.192 52.5923 112.937 53.0118 111.712 53.5175C111.283 53.6946 110.991 54.1332 111.124 54.6261C111.241 55.0568 111.745 55.4097 112.177 55.2317L112.177 55.2313Z" fill="#211715"/>
<path d="M131.913 45.7907C132.3 46.9401 132.627 48.1443 133.144 49.2373C133.601 50.202 134.355 50.9234 135.211 51.4945C136.889 52.6136 138.828 53.3168 140.671 54.0709C141.099 54.2461 141.607 53.8564 141.716 53.4276C141.847 52.9128 141.543 52.5126 141.113 52.3369C139.47 51.6648 137.784 51.0177 136.266 50.066C135.586 49.6395 135.01 49.1258 134.645 48.3775C134.173 47.4117 133.898 46.3092 133.555 45.2866C133.193 44.2092 131.548 44.7031 131.913 45.7907Z" fill="#211715"/>
<path d="M117.217 43.6937C117.958 44.1231 118.843 44.2895 119.686 44.2976C120.111 44.3019 120.544 44.2535 120.957 44.1485C121.167 44.0951 121.364 44.0125 121.561 43.9219C121.686 43.8646 121.81 43.8059 121.934 43.7455C121.98 43.7229 122.026 43.7003 122.072 43.6777C122.086 43.6708 122.317 43.5659 122.149 43.6408C122.559 43.4589 122.893 43.0283 122.737 42.5362C122.606 42.1243 122.125 41.737 121.685 41.9328C121.441 42.0411 121.201 42.1578 120.961 42.274C120.945 42.2819 120.8 42.3471 120.894 42.3063C120.988 42.266 120.849 42.324 120.832 42.3305C120.757 42.3607 120.681 42.387 120.603 42.4101C120.52 42.4351 120.435 42.4557 120.35 42.4732C120.313 42.4809 120.267 42.4813 120.232 42.4952C120.28 42.4762 120.393 42.4742 120.277 42.486C120.098 42.5042 119.919 42.518 119.739 42.5184C119.565 42.5187 119.393 42.5034 119.22 42.4935C119.097 42.4863 119.375 42.5175 119.253 42.4987C119.211 42.4919 119.168 42.4864 119.125 42.4796C119.031 42.4643 118.937 42.4463 118.844 42.4253C118.684 42.3893 118.526 42.3448 118.372 42.2901C118.341 42.2795 118.181 42.2422 118.311 42.2702C118.421 42.2937 118.315 42.2728 118.283 42.2565C118.21 42.2204 118.138 42.1838 118.067 42.1427C117.679 41.9181 117.117 42.051 116.904 42.4822C116.693 42.9094 116.804 43.4543 117.218 43.6941L117.217 43.6937Z" fill="#211715"/>
<path d="M122.718 34.3374C122.541 33.5228 122.824 31.6963 124.276 31.639C126.179 31.7822 126.122 34.0102 125.407 35.0099C124.821 35.8287 123.253 36.078 122.719 34.3369L122.718 34.3374Z" fill="#211715"/>
<path d="M111.429 33.8818C111.27 33.0649 111.536 31.2315 112.867 31.1695C114.609 31.307 114.549 33.5429 113.89 34.5482C113.35 35.3718 111.913 35.627 111.429 33.8818Z" fill="#211715"/>
<path d="M117.132 35.9536C116.876 36.3682 116.624 36.7904 116.406 37.2285C116.317 37.408 116.221 37.593 116.181 37.7918C116.096 38.2129 116.186 38.5955 116.459 38.9153C116.642 39.1296 116.872 39.261 117.124 39.3615C117.287 39.4269 117.465 39.4336 117.638 39.4549L117.41 39.427C117.436 39.4301 117.461 39.4342 117.486 39.4387C117.715 39.4813 117.939 39.4667 118.144 39.3367C118.32 39.2248 118.488 39.0089 118.533 38.7943C118.581 38.564 118.568 38.3064 118.442 38.1051C118.325 37.9193 118.145 37.7427 117.929 37.702C117.815 37.6807 117.699 37.671 117.585 37.6573L117.812 37.6852C117.727 37.6746 117.646 37.6581 117.566 37.6249L117.771 37.7119C117.717 37.6869 117.667 37.6563 117.619 37.62L117.793 37.7573C117.737 37.7112 117.685 37.661 117.64 37.6026L117.775 37.7818C117.765 37.7654 117.756 37.748 117.749 37.7298L117.837 37.9425C117.831 37.9243 117.826 37.9055 117.824 37.8858L117.856 38.1238C117.854 38.0924 117.854 38.0646 117.857 38.0332L117.828 38.2722C117.836 38.2173 117.851 38.166 117.869 38.1141L117.784 38.3299C117.893 38.0559 118.051 37.7954 118.196 37.541C118.332 37.3028 118.47 37.0669 118.613 36.834C118.73 36.6441 118.752 36.3528 118.695 36.1418C118.639 35.9348 118.484 35.7119 118.299 35.6129C117.869 35.3828 117.393 35.5318 117.132 35.955L117.132 35.9536Z" fill="#211715"/>
<path d="M130.987 47.9586C132.239 46.9203 133.373 45.768 134.372 44.4609C135.066 43.5531 135.749 42.5927 136.274 41.5647C136.493 41.1368 136.367 40.5863 135.959 40.3447C135.567 40.1119 135.013 40.2567 134.794 40.6864C134.542 41.1799 134.243 41.6473 133.942 42.1098C133.663 42.5405 133.465 42.8113 133.156 43.2157C132.257 44.3922 131.234 45.4991 130.115 46.4276C129.753 46.7286 129.56 47.2076 129.817 47.6582C130.029 48.0312 130.621 48.2628 130.987 47.9596L130.987 47.9586Z" fill="#211715"/>
<path d="M127.176 47.8996C123.414 49.5567 119.085 50.3609 115.314 48.3736C113.592 47.4658 111.998 46.1385 110.976 44.4069C109.949 42.6646 109.424 40.6199 109.183 38.5936C108.84 35.7103 108.818 32.7794 108.569 29.8842C108.471 28.7455 106.764 28.7647 106.863 29.9137C107.102 32.6913 107.145 35.4938 107.437 38.2647C107.68 40.5753 108.186 42.8795 109.274 44.9167C111.385 48.8713 115.702 51.2342 119.966 51.3396C122.618 51.4053 125.202 50.693 127.641 49.6184C128.067 49.4306 128.365 49.0086 128.23 48.5068C128.115 48.083 127.605 47.7108 127.176 47.8996Z" fill="#211715"/>
<path d="M137.866 32.7031C138.357 32.385 138.948 32.3707 139.471 32.6117C139.866 32.794 139.959 32.9367 140.142 33.3113C140.012 33.0447 140.181 33.4513 140.198 33.5164C140.227 33.6293 140.251 33.7463 140.265 33.8607C140.307 34.1974 140.297 34.5511 140.268 34.8895C140.219 35.4635 140.085 36.0582 139.879 36.594C139.479 37.6343 138.768 38.6776 137.876 39.3038C137.739 39.3993 137.599 39.49 137.454 39.5705C137.259 39.6792 137.623 39.5098 137.378 39.605C137.127 39.703 136.867 39.7836 136.604 39.8352C136.104 39.933 135.529 39.9537 135.067 39.7103C134.09 39.1962 133.236 40.7569 134.216 41.2727C135.336 41.8619 136.725 41.7832 137.883 41.3093C139.082 40.8185 140.038 39.7987 140.727 38.6814C141.398 37.5939 141.807 36.4093 141.949 35.1262C142.08 33.9513 141.962 32.6673 141.2 31.7489C140.191 30.5309 138.286 30.3326 136.994 31.1705C136.056 31.779 136.925 33.314 137.866 32.7031Z" fill="#211715"/>
<path d="M127.051 20.6389C127.653 23.0622 128.4 25.3657 129.683 27.4836C130.839 29.3917 132.283 31.3926 134.345 32.2554C134.773 32.434 135.284 32.0383 135.392 31.611C135.523 31.0928 135.217 30.6982 134.787 30.5187C134.006 30.1919 133.354 29.5056 132.8 28.8674C132.108 28.0716 131.52 27.1829 130.981 26.2669C129.862 24.3618 129.233 22.2957 128.695 20.1344C128.419 19.0211 126.773 19.5234 127.051 20.6393L127.051 20.6389Z" fill="#211715"/>
<path d="M122.86 19.6852C122.338 22.6093 121 25.8316 118.142 26.9905C117.711 27.1651 117.42 27.6107 117.553 28.1031C117.67 28.538 118.174 28.8864 118.608 28.7109C122.04 27.3198 123.865 23.7489 124.51 20.1335C124.596 19.6574 124.376 19.1683 123.906 19.0415C123.487 18.9278 122.946 19.206 122.86 19.6852Z" fill="#211715"/>
<path d="M116.97 19.9088C116.863 22.8121 115.589 25.5199 113.471 27.4041C113.117 27.7192 113.173 28.3582 113.48 28.6722C113.834 29.0356 114.334 28.9669 114.689 28.6513C117.149 26.4625 118.556 23.2282 118.68 19.8788C118.698 19.3942 118.266 18.9891 117.819 18.9968C117.338 19.0051 116.988 19.4228 116.97 19.9088Z" fill="#211715"/>
<path d="M108.197 34.5178C108.487 32.2259 109.011 29.9223 110.286 27.9895C111.765 25.7485 112.9 23.0938 112.45 20.3363C112.372 19.8588 111.803 19.602 111.392 19.7276C110.908 19.876 110.723 20.3629 110.801 20.8417C111.214 23.3688 109.693 25.5823 108.478 27.6015C107.327 29.5152 106.82 31.8651 106.542 34.0684C106.481 34.5487 106.66 35.0303 107.148 35.1619C107.55 35.2703 108.136 35.0012 108.197 34.5169L108.197 34.5178Z" fill="#211715"/>
<path d="M102.162 60.8174C103.228 59.9545 104.105 58.9276 104.798 57.7143C105.531 56.4286 105.876 55.1029 106.041 53.6289C106.343 50.9386 106.481 48.2224 106.587 45.5193C106.703 42.592 106.749 39.6623 106.718 36.7338C106.687 33.8624 106.478 30.9931 106.612 28.1201C106.827 23.5324 107.74 18.7664 110.12 14.8223C112.326 11.1658 116.043 8.78319 119.928 7.55192C122.567 6.71559 125.35 6.54649 128.075 6.85488C130.968 7.18233 133.626 8.38975 135.813 10.388C136.637 11.1398 137.841 9.85536 137.013 9.09955C134.945 7.21133 132.507 5.87909 129.801 5.32561C127.441 4.84282 124.898 4.77379 122.512 5.13149C118.019 5.80441 113.241 8.07359 110.205 11.7301C107.39 15.1214 105.945 19.5604 105.308 23.9334C104.886 26.8298 104.788 29.7514 104.907 32.6712C105.027 35.5909 105.043 38.5222 104.994 41.4484C104.94 44.6571 104.81 47.8671 104.565 51.0684C104.448 52.5976 104.436 54.2815 103.875 55.7234C103.345 57.0872 102.4 58.3855 101.289 59.2851C100.923 59.5819 100.736 60.0693 100.991 60.5167C101.206 60.894 101.793 61.117 102.162 60.8183L102.162 60.8174Z" fill="#211715"/>
<path d="M155.903 69.2072C155.141 66.9481 154.309 64.7617 153.436 63.0126C151.844 59.824 150.495 58.3763 149.43 57.4652C146.935 55.3281 143.404 53.6011 139.41 52.1821L139.081 52.4612L138.318 53.1085C134.217 56.3631 129.337 58.1789 124.429 58.2713C122.55 58.3037 120.641 58.0864 118.888 57.2922C117.144 56.5024 115.55 55.1008 114.631 53.1613C114.189 53.2869 113.472 53.4927 113.168 53.5918C109.949 54.6425 105.569 56.447 103.328 58.8563C102.892 59.3254 102.004 60.3019 101.058 61.7326C100.213 62.4938 94.8584 73.7103 93.3845 79.0069C92.8279 81.0063 91.6536 85.3039 91.3925 88.5097C91.2919 89.7479 91.5559 91.2126 92.0581 92.3461C93.1675 94.849 97.2953 96.4637 101.26 94.4961L107.117 91.5767C107.55 93.724 107.937 95.8814 108.279 98.0468C108.279 98.0468 108.521 99.5096 108.85 101.492C127.292 101.174 147.06 100.833 156.615 100.668C158.726 99.3257 157.781 97.8209 157.781 97.8209C160.159 95.6743 160.88 92.117 160.692 88.2196C160.537 85.0116 160.082 82.9769 159.429 80.3066C158.275 75.5818 157.139 72.9551 155.904 69.2076" fill="#CDEEFF"/>
<path d="M119.184 113.205C117.594 112.972 116.003 112.739 114.413 112.502C113.734 112.402 112.827 112.083 112.16 112.334C111.771 112.48 111.402 112.736 111.037 112.938C109.427 113.825 107.808 114.697 106.188 115.565C102.341 117.627 98.4822 119.663 94.6216 121.697C92.9936 122.554 91.3652 123.41 89.7369 124.267C89.1199 124.592 88.5033 124.917 87.8868 125.243C87.1357 125.639 86.2092 126.125 86.5405 127.213C86.7454 127.887 87.3126 128.077 87.9097 128.219C88.5478 128.371 89.1864 128.521 89.8253 128.669C91.1216 128.969 92.4199 129.261 93.719 129.548C96.4637 130.156 99.2125 130.742 101.962 131.324C104.979 131.962 107.998 132.592 111.014 133.233C111.703 133.38 112.392 133.527 113.08 133.675C113.936 133.86 114.543 133.731 115.3 133.258C116.522 132.494 117.745 131.73 118.966 130.965C119.911 130.373 119.044 128.844 118.096 129.438C117.083 130.072 116.07 130.705 115.057 131.339C114.644 131.596 114.169 132.059 113.676 131.978C113.041 131.875 112.41 131.706 111.78 131.572C109.316 131.047 106.85 130.531 104.384 130.011C99.3208 128.945 94.256 127.878 89.2174 126.694C88.9284 126.627 88.6394 126.558 88.3509 126.489C88.2519 126.465 88.1404 126.426 88.041 126.415L87.8869 126.378C87.7436 127.044 87.802 127.298 88.0621 127.138C88.2762 127.097 88.5279 126.891 88.7241 126.788C89.2926 126.488 89.8612 126.188 90.4298 125.889C91.9202 125.104 93.4106 124.321 94.9009 123.536C98.5339 121.623 102.166 119.706 105.789 117.772C107.586 116.812 109.382 115.848 111.171 114.869C111.533 114.671 111.894 114.473 112.255 114.273C112.401 114.192 112.587 114.038 112.749 113.999C112.434 114.075 113.042 114.094 113.058 114.096C113.261 114.127 113.464 114.157 113.667 114.187C115.358 114.439 117.05 114.687 118.742 114.935C119.197 115.002 119.658 114.798 119.786 114.293C119.895 113.867 119.642 113.272 119.183 113.205L119.184 113.205Z" fill="#211715"/>
<path d="M51.2122 17.2964L49.7209 18.7448C47.8396 23.134 43.1422 27.2147 38.3399 26.5423L35.4388 26.5924C34.8335 26.9586 34.2331 27.2974 33.6521 27.6096C31.8535 28.37 29.1323 29.1683 28.7046 31.3165L24.9911 30.9274C24.4181 30.5355 23.7135 30.4722 23.1381 30.5925C22.1344 30.802 21.6552 31.339 21.4169 31.7695L20.5188 29.8395C18.8564 26.1537 18.636 21.711 19.9441 17.8358L20.6267 14.2481C22.852 10.5573 25.6672 7.29439 29.4292 5.30002C29.8275 5.08889 30.2333 4.89328 30.6455 4.71454C34.4792 3.05324 39.132 2.85358 42.8833 4.796L46.0237 5.64458C51.0298 6.5718 54.771 9.82883 56.5864 14.3343C58.1282 18.1603 58.0797 23.0895 57.2764 27.9834L55.5623 28.013C55.5192 27.582 55.4652 27.1525 55.3979 26.7251C54.8244 23.0844 53.2503 19.6447 50.9273 16.9563" fill="#656565"/>
<path d="M29.5756 45.2046C29.2311 46.286 28.9562 47.4415 28.4898 48.4745C28.1041 49.3284 27.4859 49.9259 26.7339 50.4277C25.1276 51.4992 23.3371 52.252 21.594 53.0296C21.1688 53.2191 20.8701 53.6378 21.0058 54.1408C21.1195 54.5627 21.6314 54.9388 22.0592 54.7479C24.0059 53.8791 26.0553 53.0604 27.8212 51.8102C28.6922 51.1936 29.4667 50.4279 29.9342 49.4271C30.492 48.2331 30.8234 46.9089 31.2238 45.6519C31.5733 44.5537 29.9231 44.1132 29.5756 45.2046Z" fill="#211715"/>
<path d="M52.9027 53.485C51.5916 52.9919 50.2496 52.5909 48.9268 52.1337C47.7181 51.7161 46.4383 51.3774 45.8414 50.0834C45.642 49.6506 45.0443 49.5484 44.6735 49.783C44.2492 50.0515 44.1757 50.5756 44.3759 51.0098C44.7483 51.8169 45.3943 52.4987 46.1413 52.931C46.7658 53.2926 47.5007 53.5166 48.1765 53.7554C49.5993 54.2577 51.048 54.6828 52.4612 55.2143C52.8931 55.377 53.3943 55.0093 53.505 54.5725C53.6328 54.0694 53.3359 53.6476 52.9023 53.4845L52.9027 53.485Z" fill="#211715"/>
<path d="M45.7127 41.7126C45.6461 41.7524 45.5782 41.7883 45.5095 41.8242C45.3941 41.8853 45.5225 41.7973 45.5473 41.8071C45.5302 41.8002 45.4509 41.847 45.4318 41.8544C45.2589 41.9219 45.0817 41.9761 44.9023 42.0205C44.8143 42.0425 44.7259 42.0618 44.637 42.0789C44.6166 42.0828 44.4665 42.1099 44.5804 42.0906C44.6944 42.0713 44.543 42.0952 44.5222 42.0978C44.3273 42.1225 44.1311 42.1375 43.9344 42.1413C43.7534 42.1448 43.5737 42.1364 43.393 42.123C43.2464 42.1122 43.4219 42.115 43.4246 42.1287C43.4237 42.1229 43.309 42.1111 43.2975 42.1091C43.2157 42.0949 43.1342 42.0781 43.0532 42.0581C42.976 42.039 42.8996 42.0172 42.824 41.9914C42.8048 41.9846 42.6208 41.9139 42.7203 41.9544C42.8083 41.9903 42.6605 41.9266 42.6456 41.9197C42.4367 41.8237 42.2307 41.7218 42.0197 41.6311C41.6101 41.4554 41.0867 41.5057 40.857 41.9705C40.6663 42.3559 40.7324 42.9943 41.171 43.1821C41.6387 43.3826 42.0893 43.6453 42.5829 43.7734C43.0231 43.8877 43.4923 43.929 43.9466 43.9198C44.8475 43.9021 45.7898 43.704 46.5825 43.2331C46.9718 43.0018 47.127 42.4031 46.8798 42.011C46.622 41.6018 46.1287 41.4644 45.7127 41.7117L45.7127 41.7126Z" fill="#211715"/>
<path d="M40.7119 33.3841C40.9031 32.5135 40.6069 30.5738 39.0618 30.5378C37.035 30.7229 37.0888 33.0946 37.8472 34.1469C38.4682 35.0088 40.1372 35.247 40.7123 33.3837L40.7119 33.3841Z" fill="#211715"/>
<path d="M52.7313 32.805C52.9034 31.9327 52.6258 29.9849 51.2095 29.9417C49.3533 30.1186 49.4105 32.4976 50.1091 33.5575C50.6808 34.4251 52.2107 34.6715 52.7313 32.805Z" fill="#211715"/>
<path d="M45.1526 36.0144C45.3017 36.2553 45.4456 36.4994 45.5866 36.7458C45.7379 37.0103 45.8965 37.2779 46.0181 37.56L45.9303 37.3473C45.9564 37.4127 45.9765 37.4778 45.9868 37.548L45.9548 37.3101C45.9576 37.3437 45.9578 37.3732 45.9551 37.4069L45.9838 37.1679C45.9813 37.1886 45.9764 37.2088 45.9697 37.2282L46.0545 37.0125C46.0474 37.0323 46.0381 37.0509 46.0267 37.0685L46.1591 36.8847C46.1117 36.9478 46.0557 37.0021 45.9958 37.052L46.1679 36.9088C46.1169 36.9482 46.0641 36.9814 46.0066 37.0093L46.2102 36.9152C46.1395 36.9456 46.0674 36.9643 45.9919 36.9768L46.2189 36.941C46.087 36.9613 45.9543 36.9766 45.8237 37.0035C45.6245 37.0441 45.4135 37.2459 45.316 37.4242C45.2101 37.6184 45.1668 37.9025 45.2345 38.1165C45.303 38.3323 45.4326 38.5394 45.6307 38.6454C45.8451 38.76 46.0524 38.7726 46.2896 38.7245C46.3097 38.7206 46.3297 38.7171 46.3498 38.7136L46.1227 38.7494C46.299 38.7235 46.4818 38.7122 46.6505 38.647C46.9071 38.548 47.1376 38.4005 47.3271 38.1906C47.6231 37.8627 47.7068 37.4735 47.6316 37.0422C47.5943 36.8272 47.4925 36.6303 47.3959 36.4392C47.1608 35.9744 46.8954 35.5244 46.6224 35.0835C46.5031 34.8905 46.3244 34.7389 46.1091 34.6803C45.904 34.6247 45.6321 34.6563 45.4514 34.7823C45.0759 35.0438 44.8938 35.5953 45.153 36.014L45.1526 36.0144Z" fill="#211715"/>
<path d="M32.9948 46.4841C30.9245 44.7954 29.0828 42.7121 27.8426 40.2879C27.6255 39.8634 27.0562 39.7438 26.6729 39.9865C26.2611 40.2476 26.1573 40.7913 26.3748 41.2171C26.9168 42.277 27.6213 43.2556 28.3366 44.1906C29.3559 45.5226 30.5108 46.7228 31.7962 47.7715C32.1584 48.0667 32.6543 48.1258 33.003 47.7507C33.2988 47.4329 33.3592 46.781 32.9948 46.4841Z" fill="#211715"/>
<path d="M35.2852 49.6606C37.6127 50.6501 40.013 51.3612 42.5437 51.4442C44.8931 51.5213 47.2229 51.0369 49.3364 49.9246C51.3972 48.8401 53.29 47.2028 54.5632 45.1743C55.8432 43.1353 56.5109 40.7161 56.8346 38.3257C57.2773 35.0566 57.299 31.7299 57.5909 28.4446C57.6337 27.9621 57.1596 27.5567 56.7317 27.5641C56.2318 27.5727 55.9279 27.9903 55.8847 28.4741C55.6395 31.2338 55.5458 34.0044 55.3065 36.7637C55.1171 38.9503 54.6755 41.1888 53.7129 43.1614C51.8041 47.0736 47.683 49.5059 43.572 49.6526C40.9997 49.7441 38.501 49.1054 36.1359 48.0996C35.7106 47.9189 35.2213 47.9815 34.971 48.4412C34.7646 48.8199 34.857 49.4786 35.2852 49.6606Z" fill="#211715"/>
<path d="M25.498 30.179C24.2303 29.3755 22.5139 29.5682 21.3798 30.5724C20.4838 31.3658 20.2278 32.6451 20.2598 33.8168C20.3327 36.4926 21.7847 39.4771 24.1316 40.6953C25.4343 41.3714 27.1341 41.4998 28.4512 40.7882C29.4322 40.2582 28.5576 38.7269 27.5787 39.2555C26.5645 39.8032 25.1985 39.3549 24.4118 38.7694C23.5286 38.112 22.8139 37.061 22.4118 36.0095C22.1683 35.3738 22.0154 34.6827 21.9762 33.9973C21.9582 33.6839 21.9505 33.3556 21.9919 33.0426C22.0089 32.9145 22.0384 32.7845 22.0708 32.6598C22.0908 32.5829 22.1133 32.5072 22.1389 32.4324C22.1073 32.5042 22.1077 32.5028 22.1401 32.4283C22.249 32.1809 22.2672 32.1505 22.3884 32.0212C22.5304 31.8695 22.6603 31.761 22.8825 31.6564C23.4622 31.3829 24.1083 31.4004 24.6465 31.7415C25.5861 32.337 26.4337 30.7723 25.498 30.179Z" fill="#211715"/>
<path d="M45.7571 6.52835C48.7999 7.10858 51.5681 8.61022 53.613 11.0558C55.835 13.7132 56.7922 17.144 56.9388 20.6404C57.0399 23.0523 56.8247 25.4693 56.4395 27.8505C56.3619 28.3282 56.5688 28.8148 57.0442 28.9433C57.4584 29.0555 58.014 28.7795 58.0915 28.2987C58.7893 23.9877 59.097 19.3335 57.7592 15.137C56.6823 11.7594 54.5171 8.84227 51.641 6.95546C49.9885 5.87136 48.1188 5.15695 46.1997 4.79051C45.1235 4.58532 44.6753 6.32145 45.7571 6.5279L45.7571 6.52835Z" fill="#211715"/>
<path d="M50.302 17.6746C51.7855 19.4072 52.9529 21.4473 53.7106 23.6407C54.5588 26.0973 54.7834 28.628 54.9142 31.2253C54.9722 32.3745 56.6853 32.3516 56.6273 31.1958C56.4856 28.3837 56.2396 25.6106 55.2976 22.959C54.4346 20.5296 53.1542 18.3111 51.5049 16.3848C50.7709 15.5273 49.5715 16.8216 50.302 17.6746Z" fill="#211715"/>
<path d="M48.9852 18.3607C47.2222 22.4036 43.0663 26.3116 38.5639 25.7306C38.1082 25.6719 37.6492 25.8626 37.5197 26.373C37.413 26.7931 37.6631 27.4029 38.1226 27.462C43.3946 28.1419 48.3357 24.1157 50.4634 19.2371C50.6556 18.7967 50.5735 18.2716 50.149 18.0197C49.778 17.7996 49.1782 17.9181 48.9852 18.3607Z" fill="#211715"/>
<path d="M42.4286 18.2948C41.4706 20.8829 39.3406 22.8747 37.213 24.4182C36.1094 25.2189 34.9514 25.9341 33.767 26.592C32.7369 27.1646 31.598 27.4858 30.557 28.0433C29.3398 28.6956 28.228 29.6811 27.9032 31.1313C27.6516 32.2546 29.2989 32.7034 29.5509 31.5784C29.7963 30.483 30.774 29.898 31.6783 29.4444C32.7658 28.899 33.907 28.5393 34.9715 27.9348C37.3647 26.5769 39.7151 24.9579 41.5774 22.8513C42.6476 21.641 43.5069 20.28 44.0763 18.7415C44.2438 18.2894 43.8833 17.7624 43.4732 17.6513C42.987 17.5197 42.5965 17.8405 42.4286 18.2944L42.4286 18.2948Z" fill="#211715"/>
<path d="M21.3222 29.3607C19.7442 25.8221 19.6034 21.6884 20.8332 17.9897C21.1982 16.8921 19.5312 16.4515 19.1692 17.5409C17.7812 21.7166 18.0726 26.3259 19.8417 30.2929C20.0372 30.731 20.6515 30.8282 21.0219 30.5951C21.4554 30.3222 21.5186 29.8011 21.3226 29.3612L21.3222 29.3607Z" fill="#211715"/>
<path d="M21.3608 14.5939C23.0508 11.8105 25.1143 9.2093 27.7233 7.32101C30.471 5.33223 33.7168 4.19143 37.0546 4.2302C38.9159 4.25163 40.7679 4.65579 42.441 5.50402C43.4216 6.00123 44.2748 4.44864 43.2904 3.94926C39.9758 2.26831 36.1427 2.06685 32.5791 3.02987C29.1138 3.96623 26.0155 6.06271 23.5428 8.75393C22.1563 10.2631 20.9547 11.955 19.8835 13.7191C19.2912 14.6947 20.7715 15.5641 21.3608 14.5939Z" fill="#211715"/>
<path d="M72.5319 89.934C72.3786 86.8223 71.4104 82.3558 70.924 80.4108C69.6884 75.4985 68.8905 72.8747 67.8435 69.3494C67.3986 67.8542 66.5547 65.3648 65.754 63.5857L65.7532 63.5875C64.3314 60.9821 62.7189 59.2823 62.0596 58.6059C59.6396 56.1232 54.9506 54.3634 51.5076 53.3633C51.183 53.2692 50.4183 53.0764 49.9508 52.9607C48.9933 55.057 47.3174 56.6076 45.4725 57.5127C43.6169 58.4229 41.5885 58.7243 39.5876 58.7588C34.3618 58.841 29.1401 57.0873 24.7269 53.7733L23.9053 53.1123C23.9053 53.1123 23.7746 53.0068 23.5501 52.8266C19.32 54.4847 15.5861 56.4529 12.961 58.8199C11.8414 59.8291 10.4257 61.4198 8.77721 64.8733C6.62364 69.3843 4.7587 76.5269 3.50324 81.0484C2.91586 83.2867 2.00695 87.2507 3.55964 89.3037C3.55964 89.3037 5.04099 91.3955 6.96219 94.1089C10.3156 96.882 12.6934 99.2915 17.4617 100.003C19.5067 100.63 17.9817 100.034 21.9529 101.242C22.0993 101.908 23.4556 101.767 23.6271 102.593L62.9296 101.914C64.0628 101.643 64.7585 101.476 64.7585 101.476C69.6874 100.293 70.9389 97.9394 71.4723 96.7298C72.1271 95.2456 72.5664 92.4226 72.53 91.3936C72.513 90.9086 72.5561 90.4185 72.5319 89.934Z" fill="white"/>
<path d="M155.003 69.5669C156.238 73.2778 157.627 76.9075 158.567 80.7218C159.488 84.4605 160.293 88.5049 159.63 92.3818C159.298 94.3204 158.561 96.1228 157.117 97.4469C156.279 98.2153 157.511 99.4598 158.344 98.6959C161.325 95.9626 161.748 91.5334 161.492 87.6754C161.21 83.4272 160.111 79.2312 158.795 75.2248C158.115 73.158 157.348 71.1246 156.661 69.0606C156.301 67.9772 154.639 68.4733 155.003 69.5664L155.003 69.5669Z" fill="#211715"/>
<path d="M100.915 93.6837C99.4411 94.3941 97.7471 94.6369 96.1664 94.2638C95.0007 93.9885 93.7697 93.3835 93.0902 92.3125C92.2264 90.9507 92.1674 89.1548 92.3663 87.5811C92.5792 85.8968 92.9431 84.2301 93.3427 82.583C93.9377 80.1299 94.6307 77.7267 95.5339 75.3751C96.5234 72.7985 97.6407 70.2713 98.8114 67.7787C99.3759 66.5772 99.9545 65.3821 100.568 64.2062C100.929 63.5128 101.286 62.7911 101.743 62.1579C102.023 61.7688 101.792 61.1516 101.426 60.9352C100.981 60.6718 100.536 60.8877 100.255 61.2777C99.8275 61.8704 99.4907 62.5428 99.1502 63.1919C98.5849 64.2691 98.0507 65.3638 97.5293 66.464C96.2442 69.175 95.0367 71.9291 93.9513 74.7331C92.9646 77.2819 92.215 79.8911 91.5847 82.5567C91.1632 84.338 90.8028 86.1384 90.6106 87.962C90.4246 89.7293 90.6747 91.802 91.6488 93.2971C93.851 96.6756 98.5237 96.7944 101.792 95.2195C102.214 95.016 102.309 94.3671 102.091 93.9862C101.833 93.5337 101.339 93.4802 100.916 93.6841L100.915 93.6837Z" fill="#211715"/>
<path d="M49.2345 53.7013C51.4871 54.2545 53.7076 54.9259 55.8539 55.8314C58.1733 56.8098 60.3406 58.0443 62.062 59.964C63.168 61.1971 64.1184 62.5612 64.9276 64.0274C65.4749 65.019 66.942 64.0941 66.3935 63.0998C65.0608 60.6858 63.3156 58.3402 61.1311 56.7118C58.7166 54.9123 55.814 53.7968 52.9968 52.89C51.9007 52.5371 50.7927 52.2447 49.6758 51.9704C48.6097 51.7086 48.1672 53.4391 49.2345 53.7013Z" fill="#211715"/>
<path d="M49.1516 52.3882C48.3894 54.0219 47.1852 55.338 45.6687 56.2354C43.8863 57.2898 41.825 57.653 39.8067 57.7142C35.9562 57.8316 32.1044 56.9004 28.6725 55.126C27.1558 54.3417 25.7672 53.4187 24.4569 52.3726C24.094 52.0829 23.6027 52.0209 23.2532 52.3932C22.9599 52.7057 22.8967 53.3545 23.2618 53.646C26.2364 56.021 29.5696 57.8073 33.2329 58.7431C37.326 59.7885 42.1602 60.0347 46.0484 58.0218C48.0136 57.0042 49.6678 55.3154 50.628 53.257C51.1071 52.2307 49.6328 51.3575 49.1516 52.3882Z" fill="#211715"/>
<path d="M25.4232 51.0018C22.0244 52.2216 18.6372 53.6461 15.5571 55.6149C13.2895 57.0649 11.3172 58.7953 9.8082 61.1005C7.94823 63.9422 6.73409 67.2039 5.67018 70.4406C4.63095 73.6016 3.75615 76.8166 2.87148 80.0265C2.43499 81.6112 2.05284 83.2074 1.90085 84.8508C1.74966 86.4852 1.85119 88.3408 2.82764 89.6894C3.10496 90.0729 3.57107 90.2616 3.99859 89.9911C4.36187 89.7611 4.57598 89.1455 4.29693 88.7594C3.51801 87.683 3.48966 86.2835 3.59612 84.9802C3.70337 83.668 4.00764 82.3658 4.35017 81.0993C5.16525 78.0852 5.99572 75.0713 6.93325 72.0954C7.91594 68.9762 9.00806 65.8654 10.6387 63.0412C11.9164 60.8279 13.5432 59.124 15.5983 57.7019C18.764 55.5111 22.3207 54.0043 25.8891 52.7233C26.9281 52.3503 26.4707 50.6255 25.4232 51.0018Z" fill="#211715"/>
<path d="M113.829 53.4874C117.726 61.4584 128.858 59.5036 135.145 56.0924C136.747 55.2235 138.209 54.1611 139.611 52.9806C139.97 52.678 139.902 52.0326 139.602 51.7276C139.243 51.3625 138.758 51.4448 138.398 51.7483C135.946 53.8131 133.075 55.4322 129.994 56.3527C128.274 56.8665 126.508 57.1662 124.723 57.23C122.857 57.2965 120.911 57.1385 119.189 56.3496C117.5 55.5761 116.131 54.2818 115.293 52.5676C114.798 51.5548 113.335 52.4767 113.829 53.4874Z" fill="#211715"/>
<path d="M128.826 92.7254C128.388 92.319 126.353 90.4257 125.924 89.9627C124.535 88.4646 123.803 85.3153 125.578 84.2639C125.927 84.0773 126.371 83.9944 126.562 83.6366C126.67 83.4349 126.667 83.1926 126.698 82.9644C126.774 82.4026 127.091 81.8895 127.528 81.5544C127.965 81.2193 128.2 80.6709 128.175 80.1067C128.162 79.8059 128.161 79.5442 128.166 79.4877C128.251 78.569 128.633 77.6721 129.263 77.0187C129.283 76.9986 129.307 76.9776 129.333 76.9561C129.731 76.6383 129.991 76.1674 130.015 75.6454C130.037 75.1674 130.072 74.6972 130.061 74.5271C130.03 74.0361 130.215 73.5096 130.41 73.1415C130.724 72.5451 131.33 72.2721 131.923 72.2874C132.449 72.3007 132.921 72.4946 133.17 73.0047C133.788 74.2678 135.375 78.9648 137.01 81.5662C137.823 81.2058 138.662 80.8239 138.999 80.6375C140.361 79.8854 141.348 80.7421 141.694 81.319C141.953 81.7509 142.042 82.3095 142.066 82.8212C142.132 84.2427 142.116 85.437 142.029 86.9346C142.017 87.1252 141.99 87.3233 142.057 87.5005C142.115 87.6536 142.222 87.7839 142.345 87.8853C142.654 88.1389 142.952 88.3816 143.242 88.6127C143.874 89.1166 144.052 90.0356 143.66 90.7692C142.604 92.7459 141.462 94.691 140.086 96.3842C139.275 97.3817 137.89 97.635 136.83 96.9651C135.521 96.1382 134.154 95.4566 132.71 94.7306C131.507 94.1658 130.038 93.8314 128.909 92.8024C128.909 92.8024 128.879 92.7751 128.826 92.7254Z" fill="white"/>
<path d="M132.282 95.5437C133.304 96.0576 134.329 96.5688 135.326 97.1351C136.21 97.6375 137 98.2307 138.045 98.2651C140.237 98.3366 141.502 96.0943 142.573 94.4108C143.19 93.4409 143.77 92.4399 144.306 91.4186C144.785 90.5054 144.887 89.4634 144.325 88.5623C144.049 88.1207 143.642 87.8391 143.251 87.5204C143.103 87.3997 142.899 87.2365 142.871 87.1415C142.797 86.8896 142.914 86.3878 142.926 86.1227C142.972 85.0287 142.985 83.9273 142.921 82.8348C142.862 81.8219 142.608 80.8255 141.82 80.1793C140.936 79.4542 139.804 79.3989 138.765 79.8041C137.739 80.2046 138.194 81.9295 139.231 81.5248C139.782 81.3095 140.362 81.2099 140.825 81.6474C141.24 82.0396 141.22 82.9251 141.238 83.5581C141.265 84.4899 141.251 85.422 141.208 86.3536C141.186 86.8202 141.096 87.3282 141.235 87.782C141.374 88.2359 141.708 88.5282 142.052 88.8087C142.519 89.1896 143.247 89.5894 142.938 90.3262C142.574 91.1975 142.004 92.0397 141.518 92.8423C141.035 93.64 140.527 94.4246 139.968 95.1662C139.522 95.7574 139.088 96.3713 138.326 96.4643C137.467 96.5688 136.72 95.8762 136.009 95.4775C135.065 94.9488 134.098 94.4662 133.133 93.9809C132.148 93.4856 131.292 95.0467 132.281 95.5437L132.282 95.5437Z" fill="#211715"/>
<path d="M138.54 82.1097C137.698 81.2473 137.117 80.0186 136.584 78.8913C135.962 77.5776 135.419 76.225 134.883 74.8704C134.488 73.8703 134.153 72.3935 133.252 71.7621C132.539 71.2624 131.535 71.2547 130.767 71.6306C129.915 72.048 129.402 72.9548 129.255 73.9087C129.188 74.3452 129.21 74.7967 129.187 75.2374C129.161 75.7427 129.086 75.961 128.73 76.3119C128.081 76.9521 127.619 77.8217 127.424 78.7312C127.272 79.4337 127.532 80.372 126.967 80.8758C126.623 81.1826 126.325 81.5105 126.125 81.9417C126.022 82.1641 125.937 82.3982 125.89 82.6398C125.87 82.7468 125.852 83.1237 125.825 83.1601C125.738 83.2723 125.388 83.3604 125.279 83.4152C125.142 83.4835 125.019 83.5609 124.897 83.6549C124.58 83.898 124.311 84.2012 124.113 84.5584C123.763 85.1899 123.642 85.9626 123.687 86.6819C123.78 88.158 124.403 89.6267 125.397 90.6685C126.233 91.5444 127.146 92.3486 128.029 93.1709C128.464 93.5758 128.917 93.9544 129.429 94.2509C130.338 94.7768 131.345 95.0678 132.293 95.5025C132.714 95.6956 133.213 95.6126 133.46 95.1604C133.672 94.7716 133.568 94.1332 133.145 93.9392C131.888 93.3629 130.475 93.0273 129.421 92.0614C128.698 91.3978 127.983 90.7229 127.273 90.0429C126.516 89.318 125.882 88.605 125.57 87.5451C125.414 87.0161 125.317 86.4336 125.434 85.8841C125.566 85.2699 125.916 85.0733 126.431 84.8281C126.782 84.6611 127.114 84.4245 127.306 84.0598C127.517 83.6572 127.453 83.201 127.62 82.7928C127.769 82.4302 128.066 82.2628 128.321 81.9943C128.626 81.6734 128.852 81.249 128.958 80.8105C129.144 80.0447 128.944 79.3286 129.255 78.5736C129.575 77.7983 130.294 77.3945 130.631 76.6431C131.004 75.809 130.765 74.9326 130.96 74.081C131.089 73.5206 131.633 72.8468 132.254 73.2252C132.396 73.3115 132.451 73.4612 132.521 73.6106C132.562 73.6974 132.6 73.7864 132.637 73.8749C132.656 73.9199 132.757 74.1611 132.715 74.0592C132.918 74.5533 133.111 75.0521 133.308 75.5491C133.886 77.0101 134.472 78.4709 135.145 79.8863C135.735 81.1247 136.388 82.4226 137.34 83.3987C138.125 84.2025 139.325 82.9138 138.54 82.1101L138.54 82.1097Z" fill="#211715"/>
<path d="M137.16 52.3711C140.588 53.4779 144.014 54.8041 147.051 56.8263C148.075 57.5082 149.048 58.2738 149.88 59.203C150.909 60.3521 151.714 61.707 152.427 63.0903C153.475 65.1232 154.266 67.2893 155.003 69.4654C155.367 70.5414 157.013 70.0479 156.645 68.9612C155.384 65.2348 153.944 61.4057 151.468 58.3725C149.512 55.9767 146.725 54.3794 144.012 53.1126C141.931 52.1405 139.78 51.3402 137.602 50.6366C136.553 50.298 136.117 52.0337 137.161 52.3707L137.16 52.3711Z" fill="#211715"/>
<path d="M105.826 89.2544C106.485 92.2635 107.057 95.2929 107.54 98.3395C107.616 98.8177 108.19 99.0736 108.6 98.9484C109.087 98.7995 109.269 98.3133 109.192 97.8339C108.709 94.7872 108.137 91.7574 107.478 88.7488C107.232 87.6253 105.58 88.131 105.826 89.2544Z" fill="#211715"/>
<path d="M24.5822 103.568L169.343 101.403C170.438 101.387 170.427 99.8598 169.331 99.8762L24.5698 102.041C23.475 102.058 23.4857 103.585 24.5822 103.568Z" fill="#211715"/>
<path d="M64.9111 102.594C67.3954 101.987 69.9352 100.893 71.4907 98.6731C72.7833 96.8286 73.2507 94.2915 73.3723 92.0666C73.5497 88.8299 72.8917 85.5447 72.2145 82.4107C71.5546 79.3573 70.7152 76.3424 69.8484 73.3486C68.8538 69.9139 67.8788 66.4473 66.4212 63.1925C66.2251 62.7545 65.6126 62.6568 65.2421 62.8904C64.8099 63.1627 64.745 63.6847 64.9417 64.1241C66.1637 66.8531 66.9873 69.7578 67.8352 72.6329C68.7017 75.5705 69.5342 78.5267 70.2409 81.512C70.913 84.3492 71.5766 87.3159 71.666 90.2534C71.735 92.524 71.5097 95.1176 70.4076 97.1371C70.0091 97.8673 69.5098 98.4597 68.777 99.0058C67.4848 99.9692 65.971 100.497 64.4416 100.87C63.3618 101.134 63.8318 102.858 64.9111 102.594Z" fill="#211715"/>
<path d="M56.4274 86.0654C55.8868 88.8704 55.3463 91.6753 54.8057 94.4807C54.7142 94.9563 54.9453 95.4488 55.4124 95.5745C55.8392 95.6897 56.3712 95.4076 56.4632 94.9293C57.0037 92.1244 57.5443 89.3194 58.0848 86.514C58.1764 86.0384 57.9452 85.5459 57.4781 85.4202C57.0514 85.305 56.5193 85.5871 56.4274 86.0654Z" fill="#211715"/>
<path d="M56.4274 86.0654C55.8868 88.8704 55.3463 91.6753 54.8057 94.4807C54.7142 94.9563 54.9453 95.4488 55.4124 95.5745C55.8392 95.6897 56.3712 95.4076 56.4632 94.9293C57.0037 92.1244 57.5443 89.3194 58.0848 86.514C58.1764 86.0384 57.9452 85.5459 57.4781 85.4202C57.0514 85.305 56.5193 85.5871 56.4274 86.0654Z" fill="#211715"/>
<path d="M144.687 119.329C144.733 119.15 144.757 118.963 144.756 118.773C144.748 117.635 144.74 116.498 144.733 115.36C144.729 114.753 144.476 114.206 144.07 113.831C140.48 116.11 132.279 121.38 128.165 124.003C127.726 124.282 127.244 124.463 126.747 124.54C126.91 125.012 127.014 125.315 127.014 125.315C127.702 127.311 127.373 129.6 127.006 131.057C127.286 131.108 127.498 131.147 127.498 131.147C127.848 131.211 128.21 131.134 128.51 130.931C133.621 127.465 138.732 124 143.845 120.537C144.263 120.254 144.56 119.821 144.687 119.329Z" fill="#3D8DCC"/>
<path d="M107.409 120.181C107.457 120.065 107.545 119.962 107.674 119.894C112.846 117.182 122.039 112.363 124.52 111.062C124.877 110.875 125.279 110.805 125.673 110.861C132.681 111.85 139.268 112.781 143.035 113.313C143.425 113.368 143.774 113.54 144.051 113.794C140.467 116.057 132.28 121.293 128.172 123.898C127.378 124.402 126.439 124.583 125.53 124.409C121.52 123.639 113.673 122.109 107.816 120.986C107.432 120.912 107.277 120.498 107.408 120.182L107.409 120.181Z" fill="#3D8DCC"/>
<path d="M95.4745 71.9316C94.9892 71.4705 94.5077 71.0057 94.0295 70.5364C93.2038 69.7266 92.3172 68.5628 92.7936 67.4769C93.119 66.7353 93.9958 66.4044 94.7651 66.498C95.5344 66.5916 96.2228 67.0166 96.8856 67.4322C98.2347 68.2777 99.647 69.0219 100.933 69.9692C102.213 70.9125 103.459 72.4752 103.515 73.9141C104.064 74.7452 104.455 75.9833 104.489 76.6329C104.648 79.7146 103.146 81.8279 100.97 83.1734L99.1432 83.894C97.9895 84.184 96.2122 84.5125 95.0425 84.716C94.1649 84.8689 92.9836 85.049 92.0965 85.0017C90.5812 84.9205 89.1422 84.3314 87.7343 83.7494C87.0229 83.4554 86.2721 83.1299 85.829 82.4771C85.3733 81.8062 85.3064 80.8719 84.7385 80.3031C84.2625 79.8261 83.5567 79.7283 82.9474 79.4643C81.8707 78.9977 81.2637 77.9476 81.2204 76.7227C81.1998 76.1422 81.2367 75.5602 81.3397 75.0384C81.4745 74.356 81.7229 73.7762 82.1051 73.4382C82.8815 72.7514 84.13 72.5944 85.3607 72.718C86.5915 72.8416 88.0717 73.0915 89.3017 73.2227C91.2795 73.4332 93.3208 73.0009 95.0755 71.9989" fill="white"/>
<path d="M96.0721 71.2885C95.5876 70.8273 95.1006 70.367 94.6271 69.8931C94.2451 69.5115 93.832 69.0885 93.6187 68.5698C93.2112 67.5787 94.2262 67.2423 94.9788 67.4525C95.5145 67.602 95.9886 67.9171 96.4604 68.2104C97.0243 68.5606 97.5962 68.8973 98.1664 69.2368C99.2438 69.8782 100.375 70.5134 101.271 71.4232C101.64 71.7987 101.971 72.2048 102.236 72.6694C102.366 72.8983 102.482 73.132 102.558 73.3869C102.644 73.6752 102.631 73.9979 102.739 74.2715C102.928 74.7543 103.235 75.1681 103.401 75.671C103.548 76.1121 103.642 76.5317 103.648 76.9989C103.671 78.951 102.815 80.7005 101.317 81.868C101.051 82.0752 100.768 82.2912 100.637 82.3556C100.377 82.4831 100.092 82.5703 99.8241 82.676C99.2195 82.9145 98.6618 83.103 98.0271 83.241C97.005 83.4634 95.9762 83.6538 94.947 83.8344C93.8288 84.0303 92.6611 84.2271 91.5326 84.0503C90.2779 83.8538 89.0714 83.3581 87.9032 82.8622C87.4628 82.6753 86.9626 82.4688 86.6343 82.0952C86.291 81.7045 86.1715 81.1324 85.9683 80.6569C85.7339 80.1082 85.3986 79.6369 84.9065 79.314C84.4145 78.9911 83.8468 78.8909 83.3208 78.6607C82.498 78.3002 82.0932 77.5116 82.069 76.5989C82.0512 75.9248 82.09 75.1724 82.3684 74.5482C82.5989 74.0317 83.037 73.8207 83.5452 73.6889C84.7815 73.3679 86.1532 73.7007 87.3869 73.8717C88.7371 74.059 90.0819 74.2643 91.4476 74.0971C92.8789 73.9217 94.2346 73.4748 95.5105 72.7627C96.4835 72.22 95.611 70.6909 94.6393 71.2331C92.8231 72.2466 90.8451 72.5253 88.829 72.274C86.8917 72.0324 84.6797 71.381 82.762 72.0693C81.8668 72.3906 81.1682 72.9791 80.7925 73.9019C80.3845 74.904 80.2725 76.1004 80.4068 77.1709C80.5182 78.0585 80.8749 78.9082 81.4977 79.5303C81.7948 79.827 82.1444 80.0727 82.5211 80.2438C82.9727 80.4493 83.4875 80.5365 83.9173 80.7876C84.6081 81.1916 84.6669 82.2983 85.095 82.9415C85.6804 83.8213 86.593 84.2331 87.5131 84.6161C89.5231 85.4526 91.4778 86.0757 93.67 85.8187C95.4856 85.6058 97.3164 85.2451 99.0995 84.8207C99.543 84.7151 99.962 84.5223 100.388 84.3544C100.819 84.1842 101.262 84.0401 101.655 83.7802C103.225 82.7393 104.486 81.2378 105.039 79.3598C105.635 77.3394 105.359 75.2007 104.25 73.4498L104.369 73.899C104.234 71.9028 102.842 70.2955 101.359 69.1888C100.506 68.5519 99.5863 68.0151 98.6749 67.4745C97.835 66.9761 97.0163 66.3892 96.128 65.9891C95.3018 65.617 94.3951 65.4426 93.5173 65.7582C92.6697 66.0636 91.9941 66.7773 91.8458 67.7212C91.5198 69.8028 93.6063 71.3646 94.8765 72.5738C95.6845 73.3429 96.8849 72.0601 96.0734 71.2884L96.0721 71.2885Z" fill="#211715"/>
<path d="M140.929 114.763C136.661 117.473 132.41 120.213 128.146 122.929C127.604 123.274 127.094 123.575 126.447 123.622C125.946 123.658 125.461 123.535 124.973 123.44C123.986 123.249 122.999 123.058 122.012 122.867C119.649 122.408 117.287 121.948 114.924 121.489C113.661 121.244 112.398 120.999 111.135 120.755C110.581 120.647 110.027 120.54 109.473 120.433C109.151 120.372 108.83 120.309 108.509 120.247C108.408 120.228 108.294 120.193 108.194 120.187C108.013 120.128 107.989 120.139 108.122 120.221C108.228 120.344 108.245 120.471 108.171 120.602C108.209 120.686 107.915 120.717 108.218 120.631C108.326 120.601 108.447 120.511 108.547 120.458C108.737 120.358 108.927 120.258 109.117 120.158C109.562 119.924 110.007 119.69 110.452 119.456C111.421 118.947 112.389 118.437 113.358 117.928C116.876 116.078 120.394 114.228 123.911 112.378C124.159 112.248 124.406 112.118 124.653 111.989C125.084 111.762 125.393 111.717 125.882 111.784C127.357 111.987 128.83 112.202 130.304 112.41C132.958 112.786 135.612 113.163 138.266 113.539C139.341 113.691 140.416 113.843 141.49 113.995C142.226 114.099 143.389 114.016 143.769 114.83C144.005 115.334 143.886 116.074 143.89 116.618C143.895 117.361 143.997 118.172 143.899 118.908C143.818 119.522 143.331 119.781 142.877 120.088C142.224 120.529 141.57 120.971 140.917 121.413C138.364 123.139 135.811 124.866 133.258 126.593C131.952 127.477 130.646 128.361 129.34 129.245C128.909 129.536 128.16 130.215 127.713 130.2C127.774 130.202 127.655 130.187 127.639 130.185C125.861 129.938 124.091 129.532 122.325 129.206C117.388 128.297 112.451 127.388 107.515 126.478L107.216 126.423L107.43 128.05L108.15 127.568C108.606 127.262 108.859 126.99 108.87 126.37C108.9 124.792 108.849 123.207 108.838 121.629C108.83 120.481 107.126 120.508 107.134 121.658C107.145 123.311 107.157 124.963 107.168 126.615L107.585 125.838L106.56 126.525C105.983 126.911 106.02 128.013 106.775 128.152C111.492 129.021 116.209 129.89 120.926 130.759C122.984 131.138 125.039 131.532 127.1 131.896C127.55 131.975 127.993 132.016 128.444 131.869C129.134 131.644 129.785 131.059 130.389 130.651C131.101 130.169 131.814 129.687 132.526 129.205C135.256 127.357 137.987 125.509 140.719 123.662C141.372 123.22 142.025 122.779 142.678 122.337C143.345 121.886 144.115 121.482 144.7 120.914C145.825 119.82 145.605 118.249 145.595 116.802C145.586 115.419 145.687 114.012 144.55 113.063C143.705 112.358 142.563 112.357 141.532 112.211C138.977 111.849 136.422 111.487 133.867 111.125C132.32 110.906 130.773 110.686 129.226 110.467C128.468 110.36 127.71 110.252 126.951 110.145C126.177 110.035 125.385 109.834 124.612 110.074C123.96 110.277 123.319 110.707 122.711 111.027C121.938 111.433 121.166 111.839 120.393 112.245C118.4 113.293 116.408 114.341 114.416 115.389C112.398 116.45 110.381 117.511 108.363 118.571C107.448 119.053 106.156 119.593 106.588 120.936C106.795 121.581 107.313 121.832 107.908 121.947C108.556 122.072 109.205 122.196 109.854 122.322C114.747 123.267 119.638 124.224 124.53 125.169C125.836 125.422 127.051 125.537 128.292 124.893C129.425 124.305 130.493 123.513 131.572 122.823C133.918 121.323 136.263 119.82 138.61 118.321C139.671 117.642 140.734 116.965 141.797 116.289C142.738 115.691 141.871 114.163 140.927 114.763L140.929 114.763Z" fill="#211715"/>
<path d="M126.224 125.548C126.546 126.502 126.622 127.253 126.591 128.265C126.584 128.481 126.571 128.697 126.553 128.912C126.542 129.032 126.531 129.151 126.516 129.271C126.538 129.094 126.493 129.434 126.488 129.465C126.429 129.861 126.351 130.253 126.26 130.642C126.152 131.098 126.408 131.634 126.867 131.736C127.314 131.834 127.804 131.579 127.919 131.09C128.382 129.126 128.527 126.969 127.878 125.042C127.729 124.601 127.276 124.269 126.817 124.433C126.398 124.582 126.065 125.075 126.225 125.547L126.224 125.548Z" fill="#211715"/>
<path d="M91.7133 119.675C95.0349 117.943 98.344 116.184 101.685 114.492C102.1 114.281 102.201 113.65 101.982 113.266C101.729 112.822 101.232 112.754 100.814 112.965C97.4738 114.657 94.1651 116.416 90.843 118.148C89.8581 118.662 90.7313 120.186 91.7133 119.675Z" fill="#211715"/>
<path d="M92.4399 117.283L92.2846 117.077C92.2523 117.034 92.2197 116.991 92.1874 116.948C92.1151 116.852 92.2642 117.078 92.2115 116.977C92.1229 116.808 92.1662 116.907 92.1634 117.244C92.1614 117.515 92.2029 117.599 92.0245 117.749C91.9079 117.848 92.0173 117.765 92.0471 117.749C92.0768 117.732 92.1078 117.718 92.1384 117.702C92.2089 117.668 92.2795 117.633 92.3504 117.6C92.3861 117.582 92.4214 117.566 92.4571 117.549C92.6364 117.464 92.3355 117.603 92.4418 117.555C92.5952 117.486 92.7486 117.418 92.9034 117.352C93.5329 117.085 94.1755 116.854 94.8264 116.655C95.2552 116.524 95.559 116.002 95.4144 115.545C95.2697 115.088 94.8214 114.798 94.3615 114.938C93.5596 115.184 92.7708 115.478 92.0037 115.826C91.5464 116.034 90.967 116.217 90.6935 116.691C90.4825 117.058 90.5147 117.529 90.7285 117.881C90.8751 118.122 91.0727 118.343 91.2422 118.568C91.367 118.734 91.6558 118.823 91.8468 118.82C92.056 118.816 92.3047 118.715 92.4477 118.548C92.5957 118.375 92.705 118.149 92.6932 117.911C92.6808 117.658 92.5871 117.479 92.4391 117.283L92.4399 117.283Z" fill="#211715"/>
<path d="M114.751 52.0088C112.511 52.6388 110.32 53.406 108.195 54.3928C105.857 55.4785 103.694 56.8342 101.983 58.8548C100.901 60.1315 99.9546 61.5342 99.166 63.0262C98.6312 64.0379 100.11 64.9142 100.644 63.903C101.443 62.3921 102.398 60.9901 103.521 59.7239C104.518 58.5992 105.677 57.7412 106.958 57.0045C109.55 55.514 112.375 54.5231 115.216 53.7241C116.278 53.4256 115.815 51.7098 114.751 52.0088Z" fill="#211715"/>
<path d="M24.8573 82.1584C25.2421 80.7845 25.4535 79.2543 26.0846 77.9706C26.1343 77.87 26.1899 77.7727 26.243 77.6742C26.2657 77.6318 26.3937 77.4496 26.2737 77.6164C26.3836 77.4636 26.5059 77.3196 26.6287 77.1778C26.9448 76.8133 27.2825 76.4695 27.6249 76.1323C28.4329 75.3362 29.2758 74.579 30.1269 73.8346C30.5056 73.5035 30.8865 73.1755 31.2699 72.8501C31.4247 72.7189 31.5795 72.5878 31.7348 72.4575C31.8077 72.3963 32.1594 72.1028 31.9689 72.261C32.2086 72.0621 32.4489 71.8354 32.7214 71.6902C33.2998 71.382 34.0207 71.6753 33.9353 72.4181C33.8801 72.8994 34.3752 73.3059 34.7945 73.2986C35.3042 73.2898 35.5859 72.8713 35.6415 72.3887C35.7445 71.4902 35.2503 70.5864 34.52 70.1428C33.6568 69.6192 32.6419 69.6716 31.7884 70.1967C31.141 70.5951 30.5622 71.1728 29.9816 71.6668C29.0337 72.4737 28.0952 73.2944 27.1834 74.146C26.3658 74.91 25.5026 75.694 24.8661 76.6379C23.8999 78.0715 23.6695 80.0654 23.2089 81.7101C22.8978 82.8208 24.5475 83.265 24.8573 82.1575L24.8573 82.1584Z" fill="#211715"/>
<path d="M38.1664 80.8129L40.5187 79.1045L42.0402 77.9996C42.3603 77.7671 42.715 77.5469 42.9882 77.253C43.4625 76.7424 43.7854 76.0393 43.7873 75.322C43.7886 74.9455 43.6887 74.5603 43.5086 74.2371C43.35 73.9528 43.1618 73.755 42.8633 73.6415C42.7982 73.6167 42.732 73.5959 42.6666 73.5733C42.2436 73.4266 41.7161 73.7652 41.6214 74.2168C41.5165 74.7183 41.772 75.1504 42.2249 75.3078L42.4216 75.3761L42.0434 75.1525C41.9401 75.0199 42.0416 75.1476 42.0413 75.1664L42.0759 75.2334C42.0425 75.1462 42.0355 75.1329 42.0552 75.1934C42.0552 75.1934 42.1145 75.3903 42.0786 75.2526C42.044 75.1198 42.0792 75.339 42.0806 75.3515C42.0855 75.3935 42.0621 75.5273 42.0924 75.3329C42.0846 75.3819 42.0755 75.4308 42.0639 75.4789C42.0523 75.5271 42.033 75.5753 42.0227 75.6234C42.0582 75.4571 42.0164 75.6365 41.9903 75.6889C41.9642 75.7412 41.8186 75.969 41.9196 75.8311C41.8511 75.9245 41.7667 76.0008 41.6927 76.0889C41.6055 76.1929 41.8672 75.9654 41.7423 76.0513C41.4578 76.247 41.1815 76.4586 40.9018 76.6618L38.0362 78.7431L37.2937 79.282C36.9257 79.5494 36.7327 80.0926 36.9958 80.5121C37.236 80.8948 37.7711 81.0995 38.1651 80.8134L38.1664 80.8129Z" fill="#211715"/>
<path d="M33.626 75.5331C34.8275 74.6968 36.0544 73.8994 37.2835 73.1091C37.8787 72.7262 38.4752 72.3459 39.0769 71.974C39.5754 71.6657 40.1254 71.2759 40.7291 71.3219C40.9347 71.3375 40.9686 71.3714 41.0514 71.565C41.0956 71.6685 41.1268 71.9959 41.0842 72.1796C40.993 72.5708 40.533 72.8244 40.1843 73.0935C39.1531 73.8897 38.1262 74.6926 37.1002 75.4959C36.4186 76.0293 35.737 76.5636 35.0562 77.0988C34.6864 77.3892 34.5064 77.8853 34.7585 78.3279C34.9755 78.7089 35.5552 78.9212 35.9272 78.6289C37.7268 77.2141 39.5264 75.7989 41.3403 74.404C41.9944 73.901 42.5807 73.405 42.7534 72.5225C42.9244 71.6481 42.7203 70.6061 42.0497 70.0178C40.6199 68.7635 38.7222 70.1128 37.4204 70.9361C35.8495 71.9296 34.2837 72.939 32.7546 74.0038C31.8392 74.641 32.7038 76.1758 33.626 75.534L33.626 75.5331Z" fill="#211715"/>
<path d="M42.0264 77.991C42.051 78.0318 42.0735 78.0744 42.093 78.1184C42.0487 78.009 42.041 78.0001 42.0693 78.091C42.0848 78.1714 42.0857 78.1714 42.0719 78.091C42.062 78.0119 42.059 78.011 42.0629 78.0884C42.0572 78.188 42.0609 78.1642 42.0744 78.017C42.0674 78.053 42.0586 78.0885 42.0486 78.1236C42.0156 78.2841 42.1405 77.9586 42.0545 78.1083C42.0199 78.1685 41.9858 78.23 41.9512 78.2901C41.8698 78.4317 42.0739 78.1362 41.969 78.2683C41.9224 78.3269 41.8772 78.3855 41.828 78.4414C41.5888 78.7134 41.3173 78.9563 41.0497 79.1966C40.718 79.4948 40.3794 79.7846 40.0383 80.0708C40.0026 80.1006 39.967 80.1303 39.9317 80.16C40.1079 80.0141 39.8134 80.2592 39.9317 80.16C39.8579 80.2213 39.7836 80.2826 39.7094 80.3435C39.5906 80.4409 39.4717 80.5384 39.352 80.6349C39.1683 80.7837 39.0255 80.9326 38.9636 81.1769C38.9087 81.3924 38.9362 81.6772 39.0545 81.8655C39.2836 82.2306 39.8447 82.4744 40.2241 82.1669C40.9626 81.5683 41.698 80.9608 42.4024 80.3175C42.6764 80.0669 42.9568 79.813 43.1839 79.5139C43.4131 79.2121 43.6197 78.8977 43.7114 78.5181C43.8343 78.0117 43.742 77.5036 43.4932 77.0605C43.2673 76.6581 42.7075 76.4918 42.3235 76.7591C41.9349 77.0301 41.784 77.5594 42.0255 77.9897L42.0264 77.991Z" fill="#211715"/>
<path d="M41.874 80.9045C41.9071 80.9219 42.0257 81.0082 41.9091 80.9129C41.7715 80.8009 41.9585 80.9995 41.8467 80.844C41.7305 80.6827 41.8518 80.8484 41.8446 80.8539C41.8395 80.8576 41.7631 80.6311 41.796 80.7484C41.8284 80.8636 41.7734 80.6291 41.7823 80.6222C41.7806 80.6236 41.7837 80.7056 41.7846 80.7164C41.7866 80.7531 41.7711 80.8606 41.7913 80.6902C41.8124 80.5176 41.7965 80.6395 41.7882 80.68C41.7332 80.9428 41.6242 81.1986 41.5314 81.4486C41.5049 81.5199 41.4781 81.5913 41.4508 81.6626C41.4335 81.7082 41.4155 81.7538 41.3982 81.7994C41.3554 81.9118 41.463 81.6368 41.418 81.7497C41.3503 81.9182 41.2826 82.0866 41.2119 82.2543C41.0718 82.5863 40.924 82.9149 40.7633 83.237C40.5553 83.6541 40.658 84.2341 41.0786 84.4587C41.4773 84.672 42.0238 84.5621 42.2461 84.1165C42.6363 83.3347 42.9625 82.5146 43.2592 81.6906C43.3784 81.3602 43.4857 81.0453 43.4948 80.6868C43.5093 80.1215 43.2047 79.5935 42.7266 79.3407C42.3292 79.1305 41.7784 79.2369 41.5591 79.6829C41.3537 80.0995 41.4492 80.68 41.874 80.9045Z" fill="#211715"/>
<path d="M41.2445 82.9739C41.2338 83.6579 41.2961 84.3528 41.1055 85.018C40.9585 85.5306 40.6624 85.9867 40.3134 86.3726C39.5557 87.2112 38.5485 87.7815 37.5296 88.1884C35.1775 89.1274 32.694 89.7188 30.2602 90.3615C29.1944 90.6432 29.6584 92.3596 30.7251 92.0774C33.4005 91.3706 36.1977 90.7632 38.733 89.5836C39.8939 89.0438 41.0239 88.302 41.8287 87.2516C42.2389 86.7157 42.5623 86.1233 42.7525 85.4643C42.9895 84.6445 42.9363 83.7863 42.9493 82.944C42.967 81.7928 41.2622 81.8226 41.2445 82.9734L41.2445 82.9739Z" fill="#211715"/>
<path d="M22.2108 85.8132C23.0587 85.0158 23.8369 84.1405 24.5361 83.1979C24.6811 83.0024 24.7836 82.8175 24.7818 82.5605C24.7803 82.3407 24.6855 82.0804 24.5275 81.9318C24.3639 81.7779 24.1494 81.6652 23.9225 81.6799C23.7114 81.6934 23.4576 81.7685 23.3211 81.9527C22.6218 82.8952 21.8436 83.7706 20.9957 84.5679C20.6608 84.8831 20.6784 85.5276 21.0044 85.834C21.3663 86.1739 21.8534 86.1494 22.2108 85.8132Z" fill="#211715"/>
</svg>
