<svg width="52" height="53" viewBox="0 0 52 53" fill="none" xmlns="http://www.w3.org/2000/svg">
<path d="M49.1461 51.8693C48.882 49.6288 48.5509 47.3995 48.1542 45.1781C48.9913 44.4891 49.726 43.3399 49.891 43.1068C50.2566 42.5712 50.2621 41.3968 50.2074 41.0779C49.9076 39.3325 49.2696 37.9489 48.1419 36.7647C46.9157 35.477 44.9025 34.8102 43.6409 35.1417C42.6471 34.3802 41.3117 33.9014 39.0674 33.2172C37.8159 32.8386 33.9549 31.9746 31.9482 31.5361C31.95 31.7405 31.9519 31.9449 31.954 32.149C31.9577 32.5453 31.7601 32.9184 31.4289 33.1235C29.8602 34.0947 28.1521 34.4616 26.4227 34.4231C24.6893 34.4616 22.9771 34.0931 21.4059 33.1169C21.0756 32.9118 20.8784 32.5389 20.882 32.1434L20.8876 31.5361C18.8809 31.9746 15.0198 32.8383 13.7684 33.2172C11.5238 33.9014 10.1884 34.3802 9.19487 35.1417C7.93327 34.8099 5.92011 35.477 4.69393 36.7647C3.56623 37.9489 2.92821 39.3325 2.62843 41.0779C2.57365 41.3968 2.57919 42.5712 2.94483 43.1068C3.1098 43.3396 3.84415 44.4888 4.68162 45.1781C4.28458 47.3995 3.95372 49.6288 3.68965 51.8693" fill="white"/>
<path d="M37.6638 11.3314C37.5847 10.904 37.4791 10.4816 37.349 10.0671C37.3468 10.0599 37.3443 10.0526 37.3422 10.0453C36.8187 8.39112 35.9012 6.86622 34.6725 5.66562C32.491 3.53349 29.5096 2.6313 26.3524 2.67957C23.1955 2.6313 20.2144 3.53381 18.0332 5.66562C16.8049 6.86622 15.8873 8.39112 15.3635 10.0453C15.3614 10.0526 15.3589 10.0599 15.3568 10.0671C15.1139 10.8399 14.957 11.6412 14.896 12.4506C14.1395 12.4891 13.5523 12.5052 13.0457 12.5446C12.857 12.5594 12.6939 12.6453 12.5477 12.745C12.2255 12.9645 11.9682 13.3639 11.898 14.1109C11.7034 16.1859 11.8364 17.9019 12.287 19.7751C12.335 19.9751 12.4393 20.1849 12.5723 20.3448C12.7927 20.6101 13.1512 20.7293 13.4966 20.7915C14.0496 20.8915 14.4408 20.9457 15.1542 21.0145C15.788 23.6302 17.4173 26.0932 19.6041 27.5645C21.6813 28.9622 24.0013 29.2171 26.353 29.2171C28.8211 29.2171 31.0247 28.9622 33.1019 27.5645C35.2859 26.0948 36.9138 23.6362 37.5493 21.0243C38.3289 20.9507 38.7306 20.8962 39.3098 20.7915C39.6551 20.729 40.0137 20.6097 40.2341 20.3448C40.367 20.1849 40.471 19.9751 40.5194 19.7751C40.97 17.9019 41.1029 16.1859 40.9084 14.1109C40.8382 13.3639 40.5809 12.9645 40.2587 12.745C40.1122 12.6453 39.9491 12.5594 39.7607 12.5446C39.2319 12.5033 38.6151 12.4879 37.8094 12.4453C37.7811 12.0714 37.7322 11.6996 37.6638 11.3314Z" fill="white"/>
<path d="M20.7786 40.5121C20.7779 43.9903 20.7875 47.8261 20.7878 51.1434C20.7878 51.2737 20.8906 51.3781 21.0177 51.3768C23.76 51.3525 28.7869 51.339 31.989 51.327C32.1149 51.3264 32.2165 51.2226 32.2165 51.0936C32.2159 47.7962 32.1959 43.9745 32.1962 40.4834C32.1962 40.3541 32.094 40.25 31.9678 40.25C30.5794 40.2512 23.6412 40.2601 21.0048 40.279C20.8792 40.2799 20.7786 40.3834 20.7786 40.5121Z" fill="#7ABEE6"/>
<path d="M27.5146 42.6885C26.3657 42.6907 25.2167 42.6926 24.0681 42.6982C23.7373 42.6998 23.4058 42.6875 23.1426 42.9323C22.8856 43.1714 22.8447 43.4765 22.8447 43.8115C22.8447 44.279 22.8447 44.7464 22.845 45.214C22.845 45.7285 22.8456 46.2433 22.8459 46.7578C22.8462 47.0877 23.1288 47.4038 23.4615 47.3887C23.7942 47.3735 24.0773 47.1114 24.077 46.7578C24.0764 46.2234 24.0761 45.6894 24.0758 45.155C24.0758 44.855 24.0758 44.555 24.0755 44.255C24.0755 44.1427 24.0755 44.0304 24.0755 43.9181C24.0755 43.8269 24.0998 43.6941 24.0755 43.6067C24.0552 43.8234 23.9395 43.9418 23.7277 43.9619C23.7582 43.9619 23.789 43.9616 23.8194 43.9613C23.885 43.961 23.9505 43.9607 24.0161 43.9603C24.1432 43.9597 24.2706 43.9591 24.3977 43.9585C24.7332 43.9572 25.0687 43.956 25.4039 43.955C26.1074 43.9528 26.8107 43.9515 27.5143 43.9503C27.8362 43.9496 28.1446 43.6604 28.1299 43.3194C28.1151 42.9784 27.8596 42.6878 27.5146 42.6885Z" fill="#211715"/>
<path d="M20.1633 40.5112C20.1633 42.5257 20.1661 44.5405 20.1686 46.5549C20.1698 47.5735 20.171 48.5921 20.1719 49.6107C20.1722 50.053 20.1725 50.4952 20.1725 50.9375C20.1725 51.4293 20.3375 51.8724 20.8543 51.9845C21.1587 52.0502 21.5092 52.0029 21.8195 52.0004C22.1882 51.9979 22.5569 51.9954 22.9259 51.9934C23.6806 51.9889 24.4353 51.9855 25.1899 51.982C26.8221 51.9745 28.4542 51.9695 30.0867 51.9635C30.4511 51.9625 30.8155 51.9611 31.1796 51.9601C31.5348 51.9586 31.9829 52.0273 32.3153 51.8838C32.7677 51.6883 32.8326 51.2671 32.8323 50.8202C32.8323 50.3085 32.8314 49.7971 32.8305 49.2855C32.8268 47.277 32.8194 45.2685 32.8154 43.2601C32.8145 42.7689 32.8136 42.2778 32.813 41.7866C32.8124 41.3197 32.8843 40.7724 32.7902 40.3141C32.648 39.6236 32.0254 39.6175 31.4778 39.6182C30.4517 39.6194 29.4256 39.621 28.3994 39.6226C26.9043 39.6251 25.4091 39.6286 23.9139 39.6333C23.2703 39.6355 22.6271 39.6378 21.9835 39.6409C21.3399 39.644 20.3538 39.4813 20.1858 40.3431C20.031 41.1361 21.2174 41.4752 21.3729 40.6784L21.3769 40.6645L21.1559 40.891C21.0725 40.9491 21.0614 40.9039 21.1861 40.9071C21.2612 40.909 21.3369 40.9062 21.412 40.9059C21.565 40.9049 21.7179 40.9039 21.8709 40.9033C22.2353 40.9015 22.5994 40.8999 22.9638 40.8986C23.7972 40.8954 24.631 40.8929 25.4645 40.8907C27.0914 40.8866 28.7183 40.8838 30.3452 40.8813C30.6607 40.8809 30.9761 40.8803 31.2919 40.88C31.4172 40.88 31.5424 40.88 31.6677 40.8797C31.7222 40.8797 31.7773 40.8825 31.8318 40.8797C31.9601 40.8724 31.9241 40.9336 31.8191 40.8614L31.5981 40.6349C31.6132 40.6576 31.5809 41.0355 31.5813 41.1311C31.5813 41.3497 31.5816 41.568 31.5819 41.7866C31.5825 42.2282 31.5831 42.6702 31.584 43.1118C31.5858 44.0279 31.5883 44.9436 31.5911 45.8597C31.5936 46.7392 31.596 47.6186 31.5981 48.4981C31.5991 48.9256 31.6 49.3527 31.6006 49.7801C31.6006 49.9892 31.6012 50.1984 31.6012 50.4075C31.6012 50.4993 31.6012 50.5911 31.6012 50.6829C31.6012 50.6911 31.5889 50.9845 31.6191 50.9388L31.8401 50.7123C31.945 50.6394 31.7554 50.6955 31.6939 50.6959C31.5748 50.6962 31.4557 50.6968 31.3366 50.6971C31.1236 50.6978 30.9106 50.6987 30.6979 50.6993C30.2258 50.7009 29.7534 50.7025 29.2812 50.7044C28.2982 50.7078 27.3151 50.7113 26.3318 50.7151C25.3767 50.7189 24.4217 50.723 23.467 50.7281C23.0472 50.7302 22.6274 50.7328 22.2079 50.7356C22.0164 50.7369 21.8247 50.7381 21.6333 50.7397C21.5283 50.7404 21.423 50.7413 21.3181 50.7422C21.2356 50.7428 21.0525 50.6855 21.167 50.7634L21.388 50.9898C21.3815 50.9804 21.4046 50.6167 21.4046 50.523C21.4046 50.3132 21.4046 50.1031 21.4043 49.8933C21.4043 49.4647 21.4037 49.0356 21.4031 48.6069C21.4021 47.7003 21.4009 46.7937 21.3997 45.8868C21.3972 44.0947 21.395 42.303 21.3953 40.5109C21.3953 39.6989 20.1643 39.6977 20.1643 40.5109L20.1633 40.5112Z" fill="#211715"/>
<path d="M22.0946 38.1518C22.0946 38.6007 22.1032 39.0496 22.1035 39.4985C22.1035 39.6603 22.1722 39.83 22.2839 39.9445C22.3907 40.054 22.5658 40.1363 22.7191 40.1294C23.0524 40.1139 23.3346 39.8521 23.3346 39.4985C23.3346 39.0496 23.326 38.6007 23.3257 38.1518C23.3257 37.99 23.2571 37.8203 23.1454 37.7057C23.0386 37.5963 22.8634 37.5139 22.7102 37.5209C22.3768 37.5364 22.0946 37.7982 22.0946 38.1518Z" fill="#211715"/>
<path d="M25.8065 38.1518C25.8065 38.6007 25.8151 39.0496 25.8154 39.4985C25.8154 39.6603 25.8841 39.83 25.9958 39.9445C26.1026 40.054 26.2777 40.1363 26.431 40.1294C26.7643 40.1139 27.0465 39.8521 27.0465 39.4985C27.0465 39.0496 27.038 38.6007 27.0376 38.1518C27.0376 37.99 26.969 37.8203 26.8573 37.7057C26.7505 37.5963 26.5754 37.5139 26.4221 37.5209C26.0888 37.5364 25.8065 37.7982 25.8065 38.1518Z" fill="#211715"/>
<path d="M29.5176 38.1518C29.5176 38.6007 29.5262 39.0496 29.5265 39.4985C29.5265 39.6603 29.5951 39.83 29.7068 39.9445C29.8136 40.054 29.9888 40.1363 30.142 40.1294C30.4753 40.1139 30.7576 39.8521 30.7576 39.4985C30.7576 39.0496 30.749 38.6007 30.7487 38.1518C30.7487 37.99 30.68 37.8203 30.5683 37.7057C30.4615 37.5963 30.2864 37.5139 30.1331 37.5209C29.7998 37.5364 29.5176 37.7982 29.5176 38.1518Z" fill="#211715"/>
<path d="M34.1461 41.7441C33.7082 41.7441 33.2702 41.753 32.8322 41.7533C32.6744 41.7533 32.5088 41.8236 32.397 41.9381C32.2902 42.0476 32.2099 42.2271 32.2167 42.3842C32.2318 42.7258 32.4872 43.015 32.8322 43.015C33.2702 43.015 33.7082 43.0062 34.1461 43.0059C34.304 43.0059 34.4696 42.9356 34.5813 42.8211C34.6881 42.7116 34.7684 42.5321 34.7617 42.375C34.7466 42.0334 34.4912 41.7441 34.1461 41.7441Z" fill="#211715"/>
<path d="M20.0045 41.7441C19.5665 41.7441 19.1285 41.753 18.6906 41.7533C18.5326 41.7533 18.3671 41.8236 18.2554 41.9381C18.1486 42.0476 18.0682 42.2271 18.075 42.3842C18.0901 42.7258 18.3455 43.015 18.6906 43.015C19.1285 43.015 19.5665 43.0062 20.0045 43.0059C20.1623 43.0059 20.3279 42.9356 20.4397 42.8211C20.5465 42.7116 20.6268 42.5321 20.62 42.375C20.6049 42.0334 20.3495 41.7441 20.0045 41.7441Z" fill="#211715"/>
<path d="M41.2386 44.9973C42.0732 41.7144 43.0637 38.4826 44.235 35.3091L43.8051 35.7498C44.7977 35.5085 45.9223 35.9281 46.7644 36.4504C47.7957 37.0905 48.5689 38.1236 49.0527 39.2447C49.3106 39.8422 49.4639 40.4775 49.5916 41.115C49.5971 41.1431 49.6214 41.3573 49.6051 41.1743C49.6088 41.2163 49.6135 41.2595 49.6138 41.3014C49.6144 41.3951 49.6187 41.4885 49.6171 41.5822C49.6128 41.8393 49.5925 42.0939 49.534 42.3443C49.4411 42.7408 49.1878 43.0497 48.9536 43.372C48.5627 43.9105 48.11 44.3708 47.6342 44.8282C46.3175 46.0941 45.0005 47.3603 43.6838 48.6262C43.1049 49.183 43.9765 50.0738 44.5542 49.5183C45.4686 48.6391 46.383 47.76 47.2974 46.8808C48.1435 46.0673 49.0432 45.2938 49.7593 44.3531C50.2413 43.7203 50.6645 43.144 50.7833 42.3295C50.9175 41.409 50.7802 40.5513 50.5112 39.6662C49.9218 37.7268 48.6578 35.9401 46.8358 35.0593C46.0232 34.6666 45.1116 34.3893 44.2046 34.4297C43.991 34.4392 43.7672 34.4593 43.5598 34.5133C43.2012 34.6066 43.0935 34.8505 42.9719 35.1811C42.7645 35.7454 42.562 36.3113 42.365 36.8794C41.4783 39.4365 40.7196 42.0358 40.052 44.6619C39.852 45.4483 41.0394 45.7836 41.2391 44.9973H41.2386Z" fill="#211715"/>
<path d="M12.7851 44.662C12.1932 42.3333 11.5318 40.0246 10.7682 37.7486C10.5798 37.1871 10.386 36.6278 10.1871 36.0704C10.0098 35.5732 9.87505 34.6877 9.31795 34.5238C8.4922 34.2802 7.50544 34.4704 6.71571 34.7562C4.78779 35.4543 3.36433 37.0066 2.58934 38.9236C1.95748 40.4873 1.63708 42.3191 2.65583 43.7778C3.36433 44.792 4.21656 45.6093 5.1005 46.4591C6.16109 47.479 7.22198 48.4988 8.28262 49.5187C8.85999 50.0738 9.73252 49.1833 9.15301 48.6266C7.98253 47.501 6.81204 46.3758 5.64157 45.2503C5.11804 44.7468 4.58189 44.2626 4.12638 43.6917C3.87493 43.3765 3.55946 43.0163 3.39202 42.6419C3.21105 42.2374 3.21013 41.7368 3.22275 41.3015C3.22398 41.2592 3.22736 41.2163 3.23137 41.1744C3.22582 41.2327 3.19505 41.3718 3.24491 41.115C3.27353 40.9662 3.30277 40.8176 3.33632 40.67C3.41449 40.3255 3.5099 39.9855 3.62655 39.6526C4.02081 38.5265 4.73732 37.4151 5.69143 36.7073C6.59475 36.0373 7.89849 35.4745 9.03111 35.7496L8.60115 35.3089C9.77252 38.4823 10.763 41.7141 11.5976 44.997C11.7974 45.7822 12.9854 45.4497 12.7851 44.662Z" fill="#211715"/>
<path d="M43.9519 34.5972C43.2261 34.0492 42.3878 33.6849 41.545 33.3704C40.622 33.0259 39.6775 32.7215 38.727 32.4669C37.0528 32.0184 35.3572 31.6486 33.6666 31.2714C32.8775 31.0953 32.0877 30.9212 31.2974 30.7518C30.5242 30.5859 30.194 31.802 30.9702 31.9685C34.2049 32.6628 37.488 33.2994 40.6267 34.376C41.5771 34.7019 42.518 35.0732 43.3311 35.6867C43.5989 35.8889 44.0181 35.7325 44.1732 35.4602C44.356 35.1397 44.2205 34.7997 43.9519 34.5972Z" fill="#211715"/>
<path d="M9.50562 35.6865C10.1932 35.1675 10.9734 34.8212 11.7743 34.5298C12.6791 34.2004 13.6012 33.9045 14.531 33.6585C16.1902 33.2193 17.8682 32.8512 19.5425 32.478C20.3166 32.3055 21.0913 32.1348 21.8666 31.9686C22.6419 31.8024 22.3134 30.5857 21.5394 30.7519C18.2486 31.4582 14.9025 32.1011 11.7155 33.2171C10.7287 33.5629 9.72999 33.9588 8.88451 34.5969C8.61735 34.7988 8.48319 35.1439 8.66353 35.46C8.81776 35.7303 9.23661 35.8896 9.50562 35.6865Z" fill="#211715"/>
<path d="M4.3054 51.8692C4.535 49.9302 4.81754 47.9984 5.14532 46.0742C5.20226 45.7388 5.05761 45.3944 4.71536 45.2982C4.41866 45.2146 4.01547 45.4013 3.95823 45.7388C3.61167 47.7741 3.31744 49.8185 3.07429 51.8697C3.03428 52.2085 3.38607 52.5004 3.68985 52.5004C4.0558 52.5004 4.26508 52.209 4.3054 51.8692Z" fill="#211715"/>
<path d="M20.9139 28.6839L20.8815 32.1431C20.8778 32.5387 21.0751 32.9116 21.4053 33.1166C22.9765 34.0929 24.6887 34.4614 26.4221 34.4229C28.1515 34.4614 29.86 34.0945 31.4284 33.1232C31.7593 32.9185 31.9572 32.545 31.9535 32.1488C31.9427 30.9936 31.932 29.8388 31.9211 28.6836" fill="#C6C6C6"/>
<path d="M20.2994 28.684L20.2788 30.8801C20.2708 31.7505 20.1188 32.7489 20.7894 33.4208C21.0895 33.7214 21.5176 33.9186 21.8925 34.0996C22.3077 34.2999 22.7364 34.475 23.1753 34.6135C24.0094 34.8766 24.8862 35.0132 25.7576 35.0482C27.4774 35.1173 29.1745 34.9107 30.758 34.1911C31.6675 33.7778 32.5271 33.2772 32.5696 32.1489C32.613 30.9994 32.5477 29.8341 32.5372 28.6837C32.5296 27.872 31.2985 27.8701 31.3061 28.6837C31.3145 29.5761 31.3228 30.4688 31.3311 31.3612C31.3338 31.6634 31.4262 32.112 31.2855 32.3893C31.1347 32.6867 30.6611 32.8492 30.385 32.9845C29.0102 33.6586 27.5276 33.8148 26.0232 33.7936C25.279 33.7829 24.5434 33.6876 23.8235 33.4915C23.1273 33.3016 22.292 33.0324 21.7168 32.5719C21.4902 32.3908 21.4976 32.1694 21.5001 31.9079L21.5099 30.8417L21.5299 28.6837C21.5376 27.8714 20.3065 27.8707 20.2988 28.6837L20.2994 28.684Z" fill="#211715"/>
<path d="M15.5103 12.462C15.6842 10.3147 16.5632 8.22047 17.9793 6.62526C19.3264 5.10731 21.1023 4.12595 23.0416 3.65688C24.9809 3.1878 27.1144 3.15531 29.0627 3.52691C30.9823 3.89315 32.8135 4.72089 34.237 6.11202C35.9332 7.76939 37.0008 10.0691 37.1947 12.462C37.26 13.2655 38.4914 13.2727 38.4258 12.462C38.2288 10.0299 37.2954 7.71768 35.7235 5.87891C34.2721 4.18084 32.2943 3.03418 30.1682 2.48466C27.9833 1.92001 25.5885 1.88815 23.3752 2.29918C21.2301 2.69759 19.1827 3.67076 17.5977 5.21993C15.6574 7.1158 14.5002 9.73653 14.2795 12.4624C14.2139 13.2715 15.4451 13.2667 15.5103 12.462Z" fill="#211715"/>
<path d="M14.4291 20.5602C15.2315 24.8803 18.4514 28.6272 22.7114 29.5237C24.8596 29.9758 27.1947 29.9764 29.3596 29.6467C31.4879 29.3228 33.438 28.3559 34.9833 26.8172C36.662 25.1456 37.8383 22.9162 38.276 20.5602C38.4234 19.7665 37.2372 19.4268 37.0888 20.2248C36.3705 24.0913 33.5934 27.4556 29.7708 28.2941C28.8232 28.5019 27.8537 28.5657 26.8867 28.5824C25.8578 28.6004 24.8178 28.5833 23.7969 28.4408C21.8047 28.1628 19.9891 27.3329 18.5487 25.8818C17.0329 24.3547 16.0129 22.3617 15.6162 20.2248C15.4681 19.428 14.2814 19.7656 14.4291 20.5602Z" fill="#211715"/>
<path d="M23.356 15.5332C23.5643 16.2275 23.4286 17.8243 22.1455 17.9603C20.4497 17.9499 20.3592 16.0191 20.9301 15.1115C21.3976 14.3683 22.7718 14.0588 23.356 15.5332Z" fill="#211715"/>
<path d="M32.2646 15.5332C32.4729 16.2275 32.3372 17.8243 31.0541 17.9603C29.3582 17.9499 29.2678 16.0191 29.8387 15.1115C30.3062 14.3683 31.6804 14.0588 32.2646 15.5332Z" fill="#211715"/>
<path d="M37.6824 21.6424C38.7711 21.5348 40.2878 21.5487 40.9092 20.4509C41.2326 19.8793 41.3077 19.1036 41.4065 18.4589C41.5072 17.8018 41.5758 17.1396 41.5998 16.475C41.6247 15.787 41.6044 15.0981 41.5497 14.4119C41.5029 13.8224 41.4339 13.2224 41.0938 12.7243C40.3764 11.6732 38.9957 11.8742 37.8954 11.8193C37.1035 11.7799 37.1054 13.0417 37.8954 13.0811C38.4115 13.107 38.928 13.1237 39.4435 13.1546C39.7408 13.1722 39.9424 13.2174 40.1021 13.4691C40.3471 13.8555 40.3235 14.4145 40.349 14.8552C40.3801 15.3946 40.3881 15.9353 40.3687 16.4753C40.3315 17.5059 40.1945 18.5399 39.9415 19.539C39.815 20.0383 39.4869 20.1225 39.0311 20.2036C38.5836 20.2834 38.1343 20.3361 37.6824 20.3806C37.3515 20.4134 37.0669 20.6471 37.0669 21.0115C37.0669 21.3272 37.3494 21.6752 37.6824 21.6424Z" fill="#211715"/>
<path d="M15.1232 20.3809C14.6715 20.3361 14.2218 20.284 13.7746 20.2039C13.3514 20.1279 13.0236 20.0611 12.8805 19.6074C12.57 18.6232 12.4742 17.5033 12.4369 16.4753C12.4176 15.9353 12.4259 15.3946 12.4567 14.8552C12.4813 14.4236 12.464 13.8965 12.6813 13.5091C12.8392 13.2274 13.0482 13.1732 13.3618 13.1546C13.8777 13.124 14.3941 13.107 14.91 13.0811C15.6985 13.0417 15.7031 11.7799 14.91 11.8193C13.822 11.8735 12.4632 11.6754 11.7362 12.6902C11.3755 13.1937 11.3037 13.8075 11.2557 14.4119C11.2013 15.0981 11.1806 15.787 11.2055 16.475C11.2296 17.1396 11.2985 17.8018 11.3988 18.4589C11.4958 19.0932 11.5746 19.8188 11.867 20.3926C12.4551 21.5474 14.0208 21.5336 15.1226 21.6424C15.4541 21.6752 15.7382 21.3288 15.7382 21.0115C15.7382 20.6431 15.455 20.4134 15.1226 20.3806L15.1232 20.3809Z" fill="#211715"/>
<path d="M28.1248 25.7415C28.0667 24.8945 28.6976 24.3261 29.816 24.2857C30.9422 24.245 31.5128 24.7053 31.5467 25.3708C31.5808 26.0421 31.0592 26.8544 29.9324 26.9301C28.9152 26.9986 28.1719 26.5017 28.1248 25.7415Z" fill="#211715"/>
<path d="M37.9404 20.1183C37.0414 21.464 36.1482 22.6788 34.7878 23.569C33.1197 24.6608 31.341 25.1027 29.3802 25.1784C28.5904 25.209 28.5864 26.4708 29.3802 26.4402C31.5513 26.3563 33.561 25.868 35.4092 24.6586C36.1147 24.197 36.7912 23.6462 37.3587 23.0138C37.9788 22.3229 38.4873 21.5277 39.0035 20.7552C39.4522 20.0836 38.3857 19.4517 37.9404 20.1183Z" fill="#211715"/>
<path d="M28.741 25.7416C28.7373 25.6737 28.7403 25.6069 28.7403 25.539C28.7407 25.4009 28.7056 25.6851 28.7376 25.5532C28.7434 25.529 28.7474 25.504 28.7536 25.4794C28.7625 25.4431 28.7748 25.4085 28.7853 25.3728C28.8065 25.3005 28.8179 25.3779 28.7643 25.4217C28.7886 25.4018 28.8653 25.2621 28.8742 25.2337C28.8465 25.3249 28.801 25.3211 28.8462 25.2753C28.8724 25.2491 28.8964 25.2207 28.9231 25.1949C28.9226 25.1955 28.9789 25.1501 28.9792 25.1444C28.9755 25.1899 28.8702 25.2223 28.9782 25.1501C29.0346 25.1122 29.0943 25.082 29.1534 25.0491C29.2076 25.0192 29.1832 25.0034 29.1223 25.0608C29.1482 25.0362 29.2112 25.0271 29.2464 25.0154C29.3199 24.9911 29.3947 24.9712 29.4701 24.9548C29.5181 24.9444 29.5661 24.9362 29.6144 24.928C29.5917 24.9321 29.4833 24.9406 29.6027 24.9309C29.8037 24.9144 30.0047 24.9072 30.2063 24.9233C30.2404 24.9261 30.2743 24.9299 30.3085 24.9331C30.1512 24.9176 30.3078 24.9346 30.3368 24.9403C30.4101 24.9548 30.4827 24.9728 30.5541 24.9955C30.5808 25.004 30.607 25.0145 30.6338 25.023C30.5153 24.9558 30.768 25.0649 30.6338 25.023C30.6923 25.0561 30.7508 25.0993 30.8101 25.1283C30.8772 25.1611 30.7061 25.0185 30.7818 25.1069C30.7963 25.1236 30.8157 25.1384 30.8314 25.1545C30.8394 25.1627 30.9007 25.2192 30.8982 25.2302C30.888 25.2759 30.8188 25.0933 30.8597 25.1832C30.8717 25.21 30.8917 25.2447 30.9083 25.2687C30.9625 25.3466 30.8354 25.2173 30.8859 25.2081C30.9068 25.2044 30.9259 25.3876 30.9382 25.4009C30.8908 25.3495 30.9287 25.2482 30.9302 25.3526C30.9305 25.3807 30.9329 25.4084 30.9329 25.4365C30.9329 25.4589 30.9311 25.4813 30.9308 25.5037C30.9308 25.6517 30.9268 25.4658 30.9379 25.4719C30.9483 25.4775 30.9016 25.6334 30.8988 25.6422C30.892 25.6649 30.8837 25.6873 30.8769 25.71C30.8431 25.8233 30.949 25.5775 30.876 25.71C30.8489 25.7589 30.8246 25.8087 30.7944 25.856C30.7264 25.963 30.7557 25.8583 30.8025 25.8526C30.7966 25.8532 30.7609 25.9027 30.7526 25.9122C30.7086 25.9624 30.6596 26.0065 30.6119 26.0529C30.5122 26.1501 30.7267 25.9816 30.607 26.0564C30.571 26.0788 30.5365 26.104 30.4999 26.1261C30.4685 26.1447 30.4356 26.1608 30.4039 26.1788C30.2931 26.2422 30.407 26.1813 30.407 26.1807C30.4088 26.1948 30.1915 26.2523 30.1808 26.2551C30.1484 26.2636 30.1161 26.2712 30.0835 26.2781C30.0592 26.2832 29.893 26.3028 30.041 26.2886C29.9422 26.298 29.8441 26.3046 29.7446 26.3046C29.6508 26.3046 29.5578 26.298 29.4646 26.2889C29.6237 26.304 29.4667 26.287 29.4369 26.281C29.3913 26.2715 29.3457 26.2608 29.3008 26.2482C29.2645 26.2381 29.2285 26.2267 29.1928 26.2144C29.1718 26.2075 29.1509 26.1999 29.13 26.1917C29.0666 26.1662 29.0755 26.1699 29.1574 26.2037C29.1155 26.2157 28.9943 26.111 28.9586 26.0895C28.8487 26.0236 28.981 26.0904 28.9709 26.1031C28.97 26.1043 28.8955 26.034 28.8844 26.0226C28.8758 26.0138 28.8154 25.9353 28.8071 25.9359C28.8355 25.9337 28.8899 26.0611 28.8154 25.9381C28.8001 25.9128 28.7883 25.8766 28.7699 25.8545C28.7493 25.8113 28.757 25.8324 28.7933 25.9179C28.7841 25.8939 28.7754 25.8696 28.7677 25.845C28.7601 25.8204 28.7533 25.7952 28.7471 25.77C28.7056 25.5936 28.7493 25.856 28.74 25.7406C28.7142 25.4125 28.4754 25.0936 28.1245 25.1097C27.813 25.1239 27.4812 25.3882 27.5089 25.7406C27.5446 26.197 27.7096 26.6242 28.0414 26.9425C28.3658 27.2535 28.7902 27.451 29.2279 27.5185C30.2051 27.6687 31.2176 27.4075 31.8147 26.5557C32.281 25.8908 32.2829 24.9507 31.7575 24.3248C31.1543 23.6066 30.0281 23.5631 29.1894 23.728C28.2291 23.917 27.4508 24.6946 27.5089 25.7406C27.5271 26.0696 27.7789 26.3873 28.1245 26.3715C28.4424 26.357 28.7598 26.0936 28.74 25.7406L28.741 25.7416Z" fill="#211715"/>
<path d="M39.2653 21.4402C37.5565 21.4402 36.2614 19.7465 36.2614 16.7519C36.2614 13.7574 37.8264 12.2656 39.2659 12.2656C40.73 12.2656 42.6791 13.4981 42.6791 16.7519C42.6791 19.5821 41.1713 21.4402 39.2653 21.4402Z" fill="white"/>
<path d="M39.2654 20.8091C37.9377 20.7892 37.2427 19.4593 36.9992 18.1994C36.6985 16.6445 36.8056 14.5774 38.022 13.4307C38.8204 12.678 39.8062 12.7796 40.6559 13.3563C41.9234 14.2162 42.1797 16.0492 42.0274 17.4994C41.8652 19.0435 40.9677 20.7842 39.2654 20.8091C38.4738 20.8208 38.4716 22.0829 39.2654 22.0712C43.5497 22.0078 44.5327 15.2272 41.7883 12.6749C40.6867 11.6506 39.0164 11.2658 37.7031 12.1052C35.902 13.2562 35.4844 15.7187 35.6952 17.7221C35.9109 19.7725 36.974 22.0365 39.2654 22.0712C40.0579 22.0832 40.0582 20.8217 39.2654 20.8097V20.8091Z" fill="#211715"/>
</svg>
