<svg xmlns="http://www.w3.org/2000/svg" width="353.98" height="328.686" viewBox="0 0 353.98 328.686"><defs><style>.a{fill:#fff;}.b{fill:#d8e8f5;}.c{fill:#d9d9d9;}.d{fill:#7abee6;}.e{fill:#211715;}.f{fill:#fec578;}.g{fill:none;}.h{fill:#7a7473;}.i{fill:#5199d1;}.j{fill:#73ca6e;}</style></defs><path class="a" d="M351.98,104.526v-1.52c-53.427-30.847-112.565-64.979-174.963-101C115.7,37.4,56.89,71.331,2.036,103V225.6c53.971,31.2,119.448,69,174.959,101.071,53.965-31.161,120.686-69.687,174.985-101.047Z"/><path class="b" d="M176.007.284,105.39,41.034q-33.9,19.565-67.8,39.131L1.027,101.271c-2.229,1.286-.217,4.744,2.019,3.454q33-19.05,66-38.1,34.551-19.941,69.1-39.879L178.026,3.737c2.229-1.286.217-4.744-2.019-3.453Z"/><path class="b" d="M352.989,101.279q-32.51-18.771-65.021-37.537L218.6,23.7,178.026.284c-2.234-1.29-4.25,2.166-2.019,3.453l71.427,41.228q33.786,19.5,67.572,39,17.982,10.38,35.964,20.763c2.234,1.289,4.25-2.166,2.019-3.454Z"/><path class="b" d="M1.024,227.357l67.1,38.749q34.978,20.2,69.957,40.4,18.952,10.946,37.9,21.894c2.233,1.29,4.25-2.165,2.019-3.454q-34.1-19.7-68.2-39.391L40.154,245.334,3.043,223.9c-2.233-1.29-4.25,2.165-2.019,3.454Z"/><path class="b" d="M178,328.4l67.633-39.053,69.924-40.379,37.426-21.613c2.228-1.287.216-4.745-2.019-3.454L283.1,263.1l-69.857,40.339-37.254,21.511c-2.228,1.287-.216,4.745,2.019,3.454Z"/><path class="b" d="M4.036,222.652V105.587c0-2.574-4-2.578-4,0V222.652c0,2.574,4,2.578,4,0Z"/><path class="b" d="M353.98,225.043V103.006c0-2.574-4-2.578-4,0V225.043c0,2.574,4,2.578,4,0Z"/><path class="b" d="M78.058,144.969,18.747,110.724l-15.758-9.1c-2.233-1.29-4.25,2.165-2.019,3.454l57.96,33.466,17.109,9.878c2.233,1.29,4.25-2.165,2.019-3.454Z"/><path class="b" d="M350.914,101.625q-26.032,15.029-52.063,30.06l-15.527,8.966c-2.229,1.286-.217,4.744,2.019,3.453q26.643-15.384,53.287-30.767l14.3-8.258c2.229-1.287.217-4.745-2.019-3.454Z"/><path class="b" d="M179.017,324.258V251.615c0-2.574-4-2.578-4,0v72.643c0,2.574,4,2.578,4,0Z"/><path class="b" d="M72.8,182.548,16.586,215,1.027,223.988c-2.229,1.287-.217,4.745,2.019,3.454L58.72,195.3,74.821,186c2.229-1.286.217-4.744-2.019-3.454Z"/><path class="b" d="M178.939,124.765V40.33c0-2.574-4-2.578-4,0v84.435c0,2.574,4,2.578,4,0Z"/><path class="b" d="M351.105,222.991q-32.165-18.571-64.331-37.138l-68.63-39.614-40.2-23.2c-2.233-1.289-4.25,2.166-2.019,3.454l70.67,40.79q33.429,19.3,66.857,38.592,17.816,10.285,35.63,20.571c2.234,1.289,4.25-2.166,2.019-3.454Z"/><path class="b" d="M98.52,129.286,125.8,113.534c1.523-.879,3.057-1.59,3.152-3.65.058-1.26,0-2.536,0-3.8V68.878c0-1.379.06-2.773,0-4.151-.119-2.73-2.674-3.856-4.933-2.61C115,67.089,106.168,72.425,97.25,77.573L69.759,93.446l-.482.277c-2.228,1.287-.216,4.745,2.019,3.454l14.409-8.319,26.648-15.385L122.5,67.618l2.916-1.684a3.916,3.916,0,0,0,.75-.433c.019-.019.173-.075.176-.1,0-.008.029-.012.033-.019-.052.108-2.04.141-1.415-.808-.219.333,0,1.548,0,1.929V85.638c0,7.959.232,15.958,0,23.915-.015.509-.12.243-.036.133l.718-.718a26.876,26.876,0,0,1-3,1.773l-6.907,3.988-15.607,9.01L96.5,125.832c-2.228,1.287-.217,4.745,2.019,3.454Z"/><path class="a" d="M149.114,158.168V125.21l27.308-15.583a1.548,1.548,0,0,1,1.54,0l70.848,40.908v35.247a.767.767,0,0,1-.383.668l-27.68,15.981a.764.764,0,0,1-.768,0L149.5,161.742a.767.767,0,0,1-.383-.668Z"/><path class="c" d="M196.085,145.233l21.535,12.434a.338.338,0,0,0,.337,0l14.683-8.478a.336.336,0,0,0,0-.582L211.1,136.173a.336.336,0,0,0-.336,0l-14.683,8.477A.336.336,0,0,0,196.085,145.233Z"/><path class="d" d="M164.063,126.746l19.349,11.172a1.679,1.679,0,0,0,1.682,0l12.5-7.215a1.346,1.346,0,0,0,0-2.331L178.243,117.2a1.679,1.679,0,0,0-1.682,0l-12.5,7.215A1.346,1.346,0,0,0,164.063,126.746Z"/><path class="e" d="M151.114,158.168V128.356q0-1.573,0-3.146l-.991,1.727,22.814-13.018,3.576-2.041c.18-.1.7-.282.811-.463.125-.2-.31-.007-.315-.024.055.187.933.539,1.094.632l2.356,1.36,43.746,25.258,23.6,13.625-.991-1.727V184.8c0,.108-.087.888,0,.956-.259-.2,1.106-1.15.231-.807a7.138,7.138,0,0,0-.9.519l-13.181,7.61-8.265,4.771-3.014,1.741a12.814,12.814,0,0,1-1.85,1.024H220.9c.1.028-.246-.1-.387-.179l-.736-.426-1.969-1.136-5.687-3.284-16.708-9.646-36.028-20.8-6.22-3.591-1.929-1.114c-.087-.05-.553-.4-.643-.371.274-.092.526,1.76.526.369v-2.263c0-2.574-4-2.579-4,0,0,1.493-.372,3.621.763,4.815a5.666,5.666,0,0,0,1.335.9l2.8,1.616,9.892,5.711,28.268,16.321L214.355,201.5l3.281,1.895c1.417.818,2.647,1.549,4.332.648,3.949-2.113,7.779-4.491,11.657-6.731l13.722-7.922c1.554-.9,3.348-1.6,3.463-3.669.059-1.055,0-2.13,0-3.186V152.553c0-.667.044-1.35,0-2.014-.1-1.532-1.635-2.1-2.8-2.771l-5.869-3.388-14.651-8.46-31.712-18.31-11.634-6.717c-1.7-.98-3.371-2.065-5.119-2.956a4.3,4.3,0,0,0-4.393.407l-4.927,2.812-15.54,8.867-6.064,3.46a2.008,2.008,0,0,0-.99,1.727q.011,12.7,0,25.4v7.558C147.114,160.741,151.114,160.746,151.114,158.168Z"/><path class="e" d="M163.054,128.473l15.8,9.122c2.1,1.213,4.633,3.379,7.127,2.123,2.664-1.342,5.207-3.006,7.789-4.5l4.192-2.42c1.572-.908,2.773-2.378,2.126-4.327a4.564,4.564,0,0,0-2.47-2.4l-3.633-2.1-10.091-5.827-3.665-2.116a5.748,5.748,0,0,0-2.824-1.113c-1.4,0-2.83,1.116-3.995,1.789l-5.519,3.186-4.381,2.529c-2.434,1.405-2.829,4.309-.453,6.047a2.015,2.015,0,0,0,2.736-.717,2.046,2.046,0,0,0-.717-2.737c.943.69-.587,1.336.37.909a14.392,14.392,0,0,0,1.295-.748l4.236-2.445,4.537-2.619c.291-.169,2.13-.931,2.215-1.28-.11.451-.958-.287-.415.135a8.467,8.467,0,0,0,.952.55l3.329,1.922,9.215,5.321,3.773,2.179c.348.2,1.506,1.154,1.925,1.111.05,0-.447-1.2.034-1.053-.142-.042-.825.476-.935.54l-3.856,2.226-4.612,2.663a25.681,25.681,0,0,0-2.992,1.727c-.5.388.311-.25.417.115-.029-.1-.552-.319-.632-.364l-2.887-1.668-15.969-9.221C162.839,123.73,160.823,127.185,163.054,128.473Z"/><path class="e" d="M195.075,146.96l16.793,9.695,3.745,2.163c1.072.618,2.071,1.214,3.364.57,2.731-1.362,5.336-3.081,7.978-4.607l4.94-2.852c1-.579,2.486-1.16,2.823-2.388.458-1.667-.819-2.517-2.018-3.209l-3.7-2.138-10.817-6.245c-2.008-1.159-3.989-2.469-6.066-3.5-1.481-.736-2.676.183-3.9.889l-4.938,2.851c-2.706,1.562-5.558,2.994-8.167,4.715a2.4,2.4,0,0,0-.442,3.745c1.648,1.982,4.464-.861,2.829-2.828l-.15-.18.586,1.414v-.223l-.586,1.414c-.159.192-.321.182-.057.019.149-.092.305-.176.457-.264l1.64-.947,5.047-2.913,7.341-4.239-1.009.273h.336L210.1,137.9l18.867,10.893,1.9,1.1c.189.109.382.213.567.327.253.155.127.2-.055-.017l-.586-1.414v.223l.586-1.415c.16-.191.321-.181.058-.018-.15.092-.305.176-.457.264l-1.64.946-5.047,2.914-7.342,4.239,1.01-.273h-.337l1.01.273-18.868-10.893-2.668-1.541C194.861,142.217,192.844,145.672,195.075,146.96Z"/><ellipse class="e" cx="210.581" cy="143.48" rx="4.374" ry="2.526"/><ellipse class="e" cx="219.787" cy="148.794" rx="4.374" ry="2.526"/><path class="f" d="M104.78,169.119c0-2.5,0-5.34-.006-9.249V148.3a1.281,1.281,0,0,0-1.9-1.122c-4.6,2.561-13.6,7.772-18.518,10.716a3.873,3.873,0,0,0-1.883,3.077c.008,11.041.008,25.139.008,25.139A3.825,3.825,0,0,0,84.4,189.44c5.392,3.11,14.888,8.6,19,10.972a4.3,4.3,0,0,0,3.893,0c2.907-1.679,12.78-7.357,17.283-9.94a1.5,1.5,0,0,0-.008-2.606c-3.593-2.071-11.1-6.4-19.791-11.421C104.781,173.845,104.781,171.658,104.78,169.119Z"/><path class="e" d="M123.31,189.048q0,9.771-.012,19.543c0,2.574,4,2.578,4,0q0-9.771.012-19.543c0-2.574-4-2.578-4,0Z"/><path class="e" d="M102.793,200.879q0,9.771-.013,19.543c0,2.574,4,2.578,4,0q0-9.771.013-19.543c0-2.574-4-2.578-4,0Z"/><path class="e" d="M80.48,185.754q0,10.9-.012,21.8c0,2.574,4,2.578,4,0q0-10.9.012-21.8c0-2.573-4-2.578-4,0Z"/><path class="e" d="M106.781,176.189q0-9.6-.007-19.191v-5.349a21.483,21.483,0,0,0-.073-3.922,3.277,3.277,0,0,0-3.918-2.613,14.867,14.867,0,0,0-3.545,1.818q-4.17,2.365-8.312,4.779c-2.572,1.5-5.263,2.9-7.731,4.561a5.957,5.957,0,0,0-2.674,4.3,33.672,33.672,0,0,0-.053,3.733v31.324c0,2.574,4,2.578,4,0V169.214c0-2.589-.129-5.215,0-7.8.059-1.187.655-1.646,1.629-2.226q1.83-1.09,3.668-2.166,3.858-2.262,7.735-4.49,1.667-.957,3.336-1.907.81-.46,1.622-.918l.741-.417.464-.259q.449-.447-.889-.729c-.122.149,0,.946,0,1.17v7.067q0,9.825.007,19.65c0,2.573,4,2.578,4,0Z"/><path class="e" d="M80.483,186.112a6.07,6.07,0,0,0,1.9,4.311,18.951,18.951,0,0,0,3.42,2.135l7.569,4.372,7.062,4.079c2.41,1.391,4.8,2.6,7.59,1.273,1.738-.826,3.385-1.933,5.052-2.892q3.337-1.921,6.675-3.839a67.809,67.809,0,0,0,6.116-3.559,3.516,3.516,0,0,0,1.054-4.454,6.182,6.182,0,0,0-2.728-2.2q-9.2-5.305-18.4-10.616c-2.234-1.289-4.25,2.166-2.019,3.454l15.371,8.871,2.576,1.486,1.08.623a2.705,2.705,0,0,0,.39.225l.366.211q-.429-.352-.114-.662l.122-.186-.405.232c-.187.085-.364.209-.542.311q-.594.34-1.187.682L118.6,191.6q-5.616,3.228-11.228,6.46a5.214,5.214,0,0,1-1.671.808,3.436,3.436,0,0,1-2.313-.771l-5.763-3.328q-3.7-2.136-7.393-4.271l-3.529-2.037c-1.014-.585-2.158-1.011-2.222-2.347-.122-2.563-4.122-2.578-4,0Z"/><path class="f" d="M137.258,147.352c0-2.5,0-5.34-.007-9.25V126.535a1.281,1.281,0,0,0-1.9-1.122c-4.6,2.56-13.6,7.772-18.518,10.716a3.868,3.868,0,0,0-1.883,3.076c.008,11.041.008,25.139.008,25.139a3.828,3.828,0,0,0,1.92,3.329c5.392,3.11,14.888,8.6,19,10.972a4.3,4.3,0,0,0,3.894,0c2.906-1.679,12.779-7.358,17.283-9.941a1.5,1.5,0,0,0-.008-2.605c-3.593-2.072-11.1-6.4-19.791-11.422C137.259,152.077,137.259,149.89,137.258,147.352Z"/><path class="e" d="M155.788,167.28q0,9.772-.012,19.544c0,2.574,4,2.578,4,0q0-9.773.012-19.544c0-2.574-4-2.578-4,0Z"/><path class="e" d="M135.27,179.111q0,9.773-.012,19.544c0,2.574,4,2.578,4,0q0-9.773.012-19.544c0-2.574-4-2.578-4,0Z"/><path class="e" d="M112.957,163.987q0,10.9-.012,21.8c0,2.574,4,2.578,4,0q0-10.9.012-21.8c0-2.574-4-2.578-4,0Z"/><path class="e" d="M139.259,154.421q0-9.6-.008-19.191v-5.348a21.5,21.5,0,0,0-.072-3.923,3.276,3.276,0,0,0-3.919-2.612,14.86,14.86,0,0,0-3.544,1.818q-4.17,2.364-8.312,4.779c-2.572,1.5-5.264,2.9-7.731,4.56a5.952,5.952,0,0,0-2.674,4.3,33.693,33.693,0,0,0-.054,3.734v31.323c0,2.574,4,2.579,4,0V147.446c0-2.588-.129-5.214,0-7.8.059-1.187.655-1.646,1.629-2.227q1.83-1.089,3.669-2.165,3.856-2.263,7.735-4.49,1.665-.958,3.336-1.908.81-.46,1.622-.918l.741-.416q.231-.13.464-.259.448-.447-.89-.729c-.121.149,0,.946,0,1.169v7.068q0,9.824.008,19.649c0,2.574,4,2.578,4,0Z"/><path class="e" d="M112.961,164.344a6.075,6.075,0,0,0,1.9,4.312,19.042,19.042,0,0,0,3.42,2.135l7.57,4.372,7.061,4.078c2.41,1.392,4.8,2.6,7.59,1.274,1.739-.827,3.386-1.933,5.053-2.893q3.336-1.92,6.675-3.839a67.693,67.693,0,0,0,6.115-3.559,3.513,3.513,0,0,0,1.054-4.453,6.178,6.178,0,0,0-2.727-2.2q-9.2-5.305-18.4-10.617c-2.233-1.289-4.25,2.166-2.019,3.454l15.372,8.872,2.575,1.486,1.08.623a2.662,2.662,0,0,0,.391.225l.366.211q-.429-.352-.114-.662l.121-.187-.405.233c-.186.085-.364.209-.542.311l-1.187.681-2.835,1.629q-5.614,3.227-11.227,6.46a5.216,5.216,0,0,1-1.672.807,3.434,3.434,0,0,1-2.312-.77q-2.883-1.664-5.763-3.329l-7.393-4.27-3.529-2.038c-1.014-.585-2.158-1.01-2.222-2.347-.122-2.563-4.123-2.577-4,0Z"/><path class="a" d="M191.339,180.621v-4.453a1.506,1.506,0,0,0-.753-1.3l-32.35-18.68a1.5,1.5,0,0,0-1.5,0c-6.88,3.973-59.077,34.111-65.971,38.1a1.5,1.5,0,0,0-.751,1.3v4.777a1.5,1.5,0,0,0,.748,1.3l32.067,18.514a1.489,1.489,0,0,0,1.494,0c6.645-3.836,55.748-32.18,66.267-38.256A1.5,1.5,0,0,0,191.339,180.621Z"/><path class="g" d="M191.339,181.076V213.3"/><path class="a" d="M90.014,200.361v31.808a1.5,1.5,0,0,0,.751,1.3c9.048,5.224,24.816,14.32,30.657,17.69a1.505,1.505,0,0,0,2.258-1.3c0-7.635,0-25.817,0-29.482"/><path class="e" d="M88.014,200.361v30.881a7.758,7.758,0,0,0,.105,1.775c.519,2.23,3.589,3.309,5.384,4.345l13.415,7.742,11.668,6.731c1.838,1.06,3.926,2.384,5.872.667,1.668-1.472,1.222-4.011,1.221-6.019V220.377c0-2.574-4-2.578-4,0v28.609a2.367,2.367,0,0,0,0,.662c.144.36-.372.133.16-.153.478-.257.776.046.092-.349l-1.125-.648-10.619-6.127-12.762-7.363c-.474-.274-5.454-3.452-5.651-3.263.2-.2.069.7.239.24a2.473,2.473,0,0,0,0-.7V200.361c0-2.574-4-2.578-4,0Z"/><path class="e" d="M89,202.957,107.26,213.5l11.263,6.5,3.256,1.879c.914.528,1.749.985,2.821.448,1.4-.7,2.743-1.583,4.1-2.367l9.758-5.633,27.627-15.948q11.6-6.7,23.205-13.4c.99-.572,2.03-1.1,2.987-1.725,1.121-.733,1.06-1.768,1.06-2.925v-3.569c0-.967.162-2.129-.588-2.878a3.689,3.689,0,0,0-.776-.527c-.97-.585-1.964-1.134-2.945-1.7l-24.025-13.872c-2.148-1.24-4.267-2.626-6.483-3.743-1.589-.8-3.518.832-4.86,1.607l-21.375,12.342q-13.751,7.941-27.5,15.882l-10.372,5.992-3.4,1.967c-1.618.936-2.929,1.863-3,3.973-.059,1.805,0,3.621,0,5.427,0,2.574,4,2.578,4,0V197.2a11.223,11.223,0,0,0,0-1.578c.233.086-.534.369-.071.291a1.563,1.563,0,0,0,.388-.225l4.5-2.6q7.956-4.6,15.914-9.193,18.536-10.705,37.072-21.408l8.671-5.006h-2.019q14.819,8.529,29.614,17.1l4.239,2.448-.99-1.727c.032,2.062,0,4.128,0,6.191l.991-1.727q-13.475,7.787-26.955,15.563-16.754,9.673-33.51,19.345l-7.3,4.212h2.019Q107.8,209.194,91.023,199.5c-2.233-1.289-4.25,2.166-2.019,3.454Z"/><path class="f" d="M195.174,210.548c0-4.339,0-9.92-.006-15.514V177.023a1.161,1.161,0,0,0-1.72-1.016c-4.169,2.319-12.322,7.041-16.777,9.709a3.5,3.5,0,0,0-1.713,3v10.406c-1.793.988-7.955,4.549-18.9,10.861a2.116,2.116,0,0,0,0,3.668c5.976,3.437,13.445,7.728,18.174,10.445a2.107,2.107,0,0,0,2.093,0c6.274-3.621,13.692-7.9,17.819-10.284a2.046,2.046,0,0,0,1.028-1.776Z"/><path class="e" d="M193.174,212.56q0,10.437-.012,20.873c0,2.574,4,2.578,4,0q0-10.437.012-20.873c0-2.573-4-2.578-4,0Z"/><path class="e" d="M153.2,212.56q0,10.437-.012,20.873c0,2.574,4,2.578,4,0q0-10.437.012-20.873c0-2.573-4-2.578-4,0Z"/><path class="e" d="M172.958,224.064q0,9.557-.012,19.112c0,2.574,4,2.578,4,0q0-9.555.012-19.112c0-2.573-4-2.578-4,0Z"/><path class="e" d="M176.958,216.4V190.664c0-.639-.056-1.309,0-1.946.088-.987.806-1.327,1.584-1.79q1.485-.883,2.976-1.757,3.459-2.028,6.934-4.026,1.669-.96,3.344-1.913l1.478-.836.493-.277.468-.261q-.8-.678-.836-.139l-.273-1.01a42.629,42.629,0,0,1,.042,5.538v8.285q0,10.389.006,20.78c0,.726.08.708-.528,1.059l-1.925,1.111-4.431,2.557-10.06,5.805c-.65.376-.767.646-1.4.288-.7-.4-1.4-.806-2.1-1.209l-4.632-2.662-9.794-5.63c-.433-.249-1.2-.509-1.292-.952.018.094-.14.241-.021.107a1.916,1.916,0,0,1,.419-.265c.378-.253.8-.46,1.191-.687l5.4-3.116q5.092-2.94,10.185-5.879c2.229-1.286.217-4.744-2.019-3.454q-4.27,2.463-8.54,4.929l-4.563,2.635a37.862,37.862,0,0,0-4.468,2.645,4.14,4.14,0,0,0-1.432,4.323c.485,1.766,2.01,2.526,3.481,3.373l9.439,5.425,4.473,2.57c1.328.764,2.81,1.932,4.378,2.06,1.864.153,3.461-1.124,5-2.012l4.909-2.833q4.316-2.49,8.63-4.981c1.356-.782,2.811-1.453,3.416-3s.3-3.521.3-5.154q0-9.767-.006-19.531v-7.97c0-1.708.4-4.159-.589-5.637-2.04-3.042-5.785-.025-7.969,1.221q-4.182,2.386-8.336,4.821c-2.418,1.414-5.878,2.729-6.946,5.515a11.465,11.465,0,0,0-.37,4.119v25.5c0,2.574,4,2.578,4,0Z"/><path class="a" d="M237.542,180.663a7.8,7.8,0,0,0-2.483-2.044c-.148-.078-.305-.157-.469-.24l-.066.089a12.417,12.417,0,0,0-2.173,9.664,9.771,9.771,0,0,0,2.551,5.029,6.947,6.947,0,0,0,5.142,2.11l.891,2.593c1.386-.4,2.868-.666,4.368-.958.313-.061.614-.113.9-.153l-.04-.04a22.622,22.622,0,0,1-4.036-5.983s-.106-.26-.264-.651a3.563,3.563,0,0,0,1.381-1.519,3.8,3.8,0,0,0-.332-4,2.893,2.893,0,0,0-3.73-.635c-.068-.175-.14-.382-.214-.608A8.394,8.394,0,0,0,237.542,180.663Z"/><path class="h" d="M253.768,190.237a11.6,11.6,0,0,0,1.269-7,11.266,11.266,0,0,0-10.169-9.614,12,12,0,0,0-10.278,4.751c.164.083.321.162.469.24a8.068,8.068,0,0,1,3.909,4.694c.074.226.146.433.214.608a2.893,2.893,0,0,1,3.73.635,3.8,3.8,0,0,1,.332,4,3.563,3.563,0,0,1-1.381,1.519c.158.391.264.651.264.651a22.622,22.622,0,0,0,4.036,5.983l.039.038a10.91,10.91,0,0,1,2.611-.116,6.3,6.3,0,0,1,1.358-1.751,23.627,23.627,0,0,0,3.417-4.317Q253.68,190.4,253.768,190.237Z"/><path class="a" d="M255.312,207.87c-.146-1.23-.342-2.471-.6-3.742-.44-2.15-1.053-4.386-2.593-5.95a4.952,4.952,0,0,0-2.39-1.388,10.292,10.292,0,0,0-4.424.116c-2.9.565-5.739,1.026-7.954,2.563a9.173,9.173,0,0,0-2.544,2.713c-.835,1.349-2.882,4.731-3.959,6.46a14.147,14.147,0,0,0-1.95,4.258,7.8,7.8,0,0,0-.159,2.32,5.069,5.069,0,0,0,.965,2.729,3.01,3.01,0,0,0,2.548,1.206c.073-.007.146-.015.218-.024a11.374,11.374,0,0,0,1.351-.743c-.008,2.111-.012,3.453-.012,3.453,0,1.639.068,3.517.068,3.517a3.916,3.916,0,0,0,1.152,2.87,8.994,8.994,0,0,0,3.437,1c4.5.818,8.475.225,13.613-.612a5.558,5.558,0,0,0,2.742-1.067,3.648,3.648,0,0,0,.587-2.493C255.6,218.489,255.951,213.288,255.312,207.87Z"/><path class="a" d="M254.915,258.954l-.529-.285h0c-1.668.8-6.926.9-7.922.182-1.9,2.186-4.642,2.5-7.106,2.171a4.139,4.139,0,0,1-.991-.2,6.932,6.932,0,0,1-2.388-1.392c-.007-.007-.016-.011-.023-.018-.184.016-.3.028-.3.028a2.046,2.046,0,0,0-2.154.772,4.193,4.193,0,0,0-.2,3.109c.625,1.9,2.455,2.864,4.337,3.542a11.348,11.348,0,0,0,6.087.542,3.172,3.172,0,0,0,2.029-1.576,4.179,4.179,0,0,0,.464-1.485l3.237.745a8.2,8.2,0,0,0,2.021.259,9.661,9.661,0,0,0,.966-.056,3.2,3.2,0,0,0,2.413-1.307,4.167,4.167,0,0,0,.473-1.985C255.343,261.31,254.892,259.646,254.915,258.954Z"/><path class="i" d="M243,229.615a24.56,24.56,0,0,1-4.538-.391c-2.175-.395-2.991-.6-3.671-1.175-.039,4.75.336,23.4.7,30.18l.112.562c.163.813,1.423,1.5,2.755,2.033a4.139,4.139,0,0,0,.991.2c2.464.332,5.205.015,7.106-2.171,1.219.881,8.815.537,8.417-.823-.245-6.737-.462-20.347-.265-26.389,0,0-.055-2.072-.1-3.833a7.166,7.166,0,0,1-2.437.806A58.311,58.311,0,0,1,243,229.615Z"/><path class="e" d="M232.793,229.355c.032,9.639.188,19.315.708,28.94.138,2.561,4.139,2.577,4,0-.52-9.625-.676-19.3-.708-28.94-.008-2.574-4.008-2.579-4,0Z"/><path class="e" d="M252.614,231.639c-.284,9.086-.066,18.234.3,27.315.1,2.565,4.1,2.578,4,0-.367-9.081-.585-18.229-.3-27.315.08-2.574-3.92-2.572-4,0Z"/><path class="e" d="M244.339,239.121c-.183,3.591-.28,7.188-.378,10.782-.087,3.193-.341,6.47-.109,9.661a2.049,2.049,0,0,0,2,2,2.018,2.018,0,0,0,2-2c-.232-3.191.022-6.468.109-9.661.1-3.594.195-7.191.378-10.782.132-2.572-3.868-2.565-4,0Z"/><path class="e" d="M233.682,259.323a4.618,4.618,0,0,0,2.552,2.725,8.681,8.681,0,0,0,1.922.8,12.658,12.658,0,0,0,1.975.254,9.784,9.784,0,0,0,6.972-2.085,2,2,0,0,0,0-2.828,2.058,2.058,0,0,0-2.828,0c.36-.288-.2.125-.27.17-.184.115-.377.208-.566.313q-.31.141.039-.008c-.1.039-.2.076-.3.111q-.3.1-.607.18c-.205.051-.411.088-.618.128q-.344.053.063-.006c-.1.011-.21.021-.315.029a10.579,10.579,0,0,1-1.259.015,11.007,11.007,0,0,1-1.256-.121c.5.081-.2-.078-.291-.106q-.324-.132-.017,0c-.107-.047-.214-.1-.32-.145a3.544,3.544,0,0,1-1.124-.645c.39.467-.024-.16-.1-.138.183.251.22.291.112.118.116.316.147.376.091.179a2,2,0,0,0-3.857,1.063Z"/><path class="e" d="M246.336,260.964a13.145,13.145,0,0,0,4.373.348,12.316,12.316,0,0,0,4.687-.916,2.009,2.009,0,0,0,.717-2.736,2.055,2.055,0,0,0-2.736-.717c-.256.119.544-.2.26-.109-.051.017-.1.037-.152.055-.123.042-.248.078-.374.111-.292.076-.588.134-.886.182l-.221.034c-.241.039.538-.066.211-.028-.174.02-.347.04-.522.056-.36.034-.722.058-1.084.073a19.447,19.447,0,0,1-2.063-.019c-.144-.01-.287-.022-.43-.036-.081-.008-.162-.019-.244-.027.706.066.389.055.227.029a5.209,5.209,0,0,1-.7-.157,2.019,2.019,0,0,0-2.46,1.4,2.043,2.043,0,0,0,1.4,2.46Z"/><path class="e" d="M236.66,257.715a3.786,3.786,0,0,0-3.546.215,4.175,4.175,0,0,0-1.977,3.352,6.464,6.464,0,0,0,2.991,6.1,14,14,0,0,0,7.048,2.211c2.533.128,5.316-.531,6.45-3.063.977-2.181.676-4.626.154-6.889a2.016,2.016,0,0,0-2.46-1.4,2.044,2.044,0,0,0-1.4,2.46c.071.308.139.617.2.929.013.074.124.875.084.5a10.728,10.728,0,0,1,.07,1.388c0,.194-.022.386-.034.579-.025.38.117-.449-.024.094-.038.142-.067.285-.111.426-.02.064-.042.127-.065.19q-.112.289.1-.22a2.515,2.515,0,0,0-.212.387c-.13.193-.141.209-.03.049a3.439,3.439,0,0,1-.27.27c.331-.3-.521.255-.079.075a3.387,3.387,0,0,1-.82.186q.219-.033-.163.011c-.154.012-.308.022-.463.027-.307.012-.615.009-.923-.006a6.354,6.354,0,0,1-1.393-.19,13.2,13.2,0,0,1-1.62-.467c-.235-.085-.471-.172-.7-.269.366.154-.308-.152-.371-.184-.219-.111-.433-.229-.641-.357-.069-.043-.645-.475-.326-.207-.181-.153-.34-.323-.512-.484q-.222-.262-.02,0c-.069-.1-.134-.194-.194-.3s-.118-.207-.171-.314q.119.3,0-.033c-.025-.095-.159-.75-.094-.257a4.75,4.75,0,0,1-.034-.715c0-.121.01-.241.022-.361-.035.238-.03.243.013.014a2.868,2.868,0,0,1,.094-.316c-.1.234-.1.257,0,.067-.186.248-.408.37-.024.123-.495.317.138-.149.222-.035-.31.035-.36.049-.148.042a1.221,1.221,0,0,1-.633-.184,2,2,0,1,0,2.019-3.454Z"/><path class="e" d="M252.915,258.954a19.682,19.682,0,0,0,.434,3l-.072-.532a4.776,4.776,0,0,1-.01,1.247l.072-.532a4.322,4.322,0,0,1-.245.971l.2-.478a2.619,2.619,0,0,1-.28.5l.313-.405a2.819,2.819,0,0,1-.459.461l.405-.313a3.434,3.434,0,0,1-.739.419l.478-.2a4.5,4.5,0,0,1-1.016.262l.532-.072a8.567,8.567,0,0,1-2.018.008l.532.072c-.358-.049-.711-.119-1.063-.2a2,2,0,0,0-1.063,3.857,10.518,10.518,0,0,0,3.612.264,5.313,5.313,0,0,0,3.6-1.691,5.576,5.576,0,0,0,1.192-3.757c-.043-.954-.3-1.894-.432-2.837l.071.532a3.977,3.977,0,0,1-.043-.576,2,2,0,0,0-4,0Z"/><path class="e" d="M250.668,197.416a17.03,17.03,0,0,1,2.007-2.321,23.456,23.456,0,0,0,2.272-2.908,13.978,13.978,0,0,0,2.2-7.429,13.168,13.168,0,0,0-19.811-11.369,14.32,14.32,0,0,0-7.206,12.21c-.09,5.688,3.679,11.784,9.916,11.672,2.571-.046,2.579-4.046,0-4-3.862.069-5.878-3.9-5.917-7.308a10.271,10.271,0,0,1,5.079-9.036,9.169,9.169,0,0,1,13.936,7.641A10.246,10.246,0,0,1,251.2,190.6c-1.187,1.714-2.91,3.009-3.989,4.795-1.334,2.21,2.124,4.223,3.454,2.019Z"/><path class="e" d="M234,180.32a8.164,8.164,0,0,1,1.225.78l-.405-.313a8.287,8.287,0,0,1,1.405,1.415l-.312-.405A8.632,8.632,0,0,1,237,183.664l-.2-.478c.147.355.26.72.389,1.082a2.142,2.142,0,0,0,.92,1.195,2,2,0,0,0,2.736-.717,1.984,1.984,0,0,0,.2-1.541,18.014,18.014,0,0,0-.836-2.089,10.487,10.487,0,0,0-1.2-1.8,9.317,9.317,0,0,0-2.987-2.447,2.114,2.114,0,0,0-1.542-.2A2,2,0,0,0,234,180.32Z"/><path class="e" d="M240.122,185.693a2.664,2.664,0,0,1,.521-.292l-.478.2a2.9,2.9,0,0,1,.571-.154l-.531.072a3.183,3.183,0,0,1,.768-.007l-.532-.071a3.443,3.443,0,0,1,.834.225l-.478-.2a3.381,3.381,0,0,1,.672.394l-.405-.312a3.09,3.09,0,0,1,.493.5l-.312-.405a3.548,3.548,0,0,1,.386.657l-.2-.478a3.941,3.941,0,0,1,.259.916l-.072-.531a4.313,4.313,0,0,1,.009,1.059l.072-.531a4.436,4.436,0,0,1-.3,1.119l.2-.477a4.275,4.275,0,0,1-.475.814l.312-.4a3.84,3.84,0,0,1-.66.664l.405-.313a3.187,3.187,0,0,1-.638.368l.478-.2a2.863,2.863,0,0,1-.623.165,1.993,1.993,0,0,0-1.195.919,2,2,0,0,0,.717,2.736,2.334,2.334,0,0,0,1.541.2,4.62,4.62,0,0,0,2.8-1.712,6.32,6.32,0,0,0,1.383-3.542,5.2,5.2,0,0,0-3.718-5.4,4.639,4.639,0,0,0-3.824.57,2.164,2.164,0,0,0-.92,1.195,2.047,2.047,0,0,0,.2,1.541,2.022,2.022,0,0,0,2.736.718Z"/><path class="e" d="M240.2,191.262a20.064,20.064,0,0,0,1.927,3.552,21.731,21.731,0,0,0,2.623,3.313,2,2,0,0,0,2.829-2.829,15.428,15.428,0,0,1-1.273-1.465l.313.405a20.837,20.837,0,0,1-2.715-4.4l.2.478c-.017-.039-.033-.078-.049-.117a2.2,2.2,0,0,0-.919-1.2,2.04,2.04,0,0,0-1.541-.2,2.017,2.017,0,0,0-1.195.919,1.928,1.928,0,0,0-.2,1.541Z"/><path class="e" d="M229.119,207.633c-1.722,2.889-3.235,6.334-1.967,9.723a5.524,5.524,0,0,0,3.842,3.683,6.764,6.764,0,0,0,5.128-1.282A2,2,0,1,0,234.1,216.3a8.067,8.067,0,0,1-.758.48s-.463.242-.22.123-.177.064-.23.081a4.854,4.854,0,0,1-.825.2c.5-.071-.132.013-.145-.021.007.018.382.1.053,0-.135-.038-.474-.226-.132-.019-.092-.056-.191-.106-.285-.16-.4-.227.206.244-.114-.089-.075-.079-.149-.161-.227-.237.279.273-.023-.048-.082-.147s-.1-.205-.162-.3c.2.341-.02-.063-.051-.163-.044-.138-.081-.277-.114-.418s-.058-.283-.083-.426c.052.3.016.107,0-.081a7.689,7.689,0,0,1-.007-.972c.009-.161.021-.324.042-.484-.039.293.011-.009.039-.14a8.5,8.5,0,0,1,.231-.873c.045-.139.1-.275.144-.414.123-.356-.069.124.03-.086.124-.266.248-.531.384-.791.305-.582.642-1.147.979-1.711a2,2,0,1,0-3.454-2.019Z"/><path class="e" d="M231.807,221.841c0,2.56-.33,5.932,1.806,7.8a6.6,6.6,0,0,0,3.058,1.268,30.72,30.72,0,0,0,5.5.695,51.071,51.071,0,0,0,10.434-1.066,6.5,6.5,0,0,0,3.625-1.581c1.244-1.339,1.148-3.164,1.2-4.864.218-6.719.58-13.445-.715-20.088-.606-3.108-1.651-6.434-4.441-8.263-2.519-1.652-5.6-1.138-8.377-.6-3.808.74-7.546,1.751-10.045,4.935a84.785,84.785,0,0,0-4.8,7.643c-1.366,2.191,2.093,4.2,3.454,2.019,1.139-1.826,2.251-3.669,3.375-5.5a8.928,8.928,0,0,1,5.308-4.368,39.941,39.941,0,0,1,4.2-.95,10.417,10.417,0,0,1,3.444-.275c2.112.313,3.031,2.46,3.537,4.3,1.418,5.178,1.386,10.651,1.229,15.973-.041,1.412-.094,2.824-.143,4.236-.026.758-.042,1.516-.072,2.273a6.054,6.054,0,0,1-.034.685c-.049.3.165-.032-.06.082a10.7,10.7,0,0,1-3.172.714c-1.555.246-3.114.473-4.684.6a24.524,24.524,0,0,1-8.651-.676c-.694-.2-.837-.467-.919-1.474-.094-1.162-.066-2.352-.068-3.517,0-2.573-4-2.578-4,0Z"/><path class="a" d="M282.561,211.188l-.94-12.872c0-5.1,7.165-9.238,16-9.238s16,4.136,16,9.238l-.76,12.719c0,5.1-6.4,9.239-15.242,9.239S282.561,216.291,282.561,211.188Z"/><path class="e" d="M284.561,211.188c-.31-4.244-.823-8.521-.933-12.774-.07-2.711,2.945-4.724,5.335-5.732a23.473,23.473,0,0,1,14.172-.994c3.056.72,7.448,2.368,8.366,5.709.429,1.564-.057,3.949-.161,5.684-.15,2.523-.317,5.046-.452,7.571-.132,2.458-1.58,4.222-3.877,5.505-4.312,2.408-10.037,2.663-14.761,1.53a13.074,13.074,0,0,1-5.686-2.657,5.351,5.351,0,0,1-2-3.842c-.051-2.57-4.051-2.579-4,0,.086,4.362,3.376,7.545,7.174,9.189a26.329,26.329,0,0,0,16.17,1.187c4.233-1,8.729-3.363,10.405-7.617.872-2.213.685-5.091.825-7.436.161-2.682.43-5.382.483-8.068.077-3.928-2.981-6.993-6.244-8.7a26.823,26.823,0,0,0-16.405-2.283c-4.486.7-9.454,2.624-12.042,6.577-1.788,2.731-1.2,5.724-.979,8.765l.613,8.388C280.747,213.74,284.748,213.761,284.561,211.188Z"/><path class="j" d="M292.768,197.205c-1.72-7.41-4.04-20.385-6.226-28.328a14.579,14.579,0,0,1,10.38,5.415c1.751-6.663,3.955-10.963,8.175-17.238a7.538,7.538,0,0,1,.476,4.235c-.818,10.56-2.136,25.369-3.293,35.916"/><path class="e" d="M297.9,178.867a57.314,57.314,0,0,1,3.281-10.956,63.616,63.616,0,0,1,5.647-9.848H303.37c.645,1.268.213,3.116.105,4.477q-.186,2.369-.382,4.736-.416,5.04-.868,10.075c-.593,6.623-1.222,13.244-1.945,19.854a2.014,2.014,0,0,0,2,2,2.047,2.047,0,0,0,2-2c.754-6.891,1.406-13.793,2.021-20.7q.462-5.2.888-10.4c.263-3.216,1.16-7.065-.365-10.062a2.021,2.021,0,0,0-3.454,0,64.092,64.092,0,0,0-5.781,10.157,61.481,61.481,0,0,0-3.55,11.6c-.54,2.51,3.315,3.583,3.857,1.063Z"/><path class="e" d="M306.315,201.437a19.571,19.571,0,0,1-17.386,0c-2.271-1.208-4.294,2.243-2.018,3.454a23.732,23.732,0,0,0,21.423,0c2.274-1.209.255-4.663-2.019-3.454Z"/><path class="e" d="M294.7,196.673c-2.175-9.418-3.677-19-6.226-28.328l-1.929,2.532A12.53,12.53,0,0,1,294,174.123c1.915,1.709,4.754-1.11,2.828-2.829a17,17,0,0,0-10.289-4.417,2.015,2.015,0,0,0-1.928,2.531c2.549,9.331,4.051,18.911,6.226,28.329.579,2.507,4.436,1.446,3.857-1.064Z"/></svg>