<svg width="1345" height="811" viewBox="0 0 1345 811" fill="none" xmlns="http://www.w3.org/2000/svg">
<path fill-rule="evenodd" clip-rule="evenodd" d="M0 40.8826C0 18.7912 17.9087 0.882629 40 0.882629H1305C1327.09 0.882629 1345 18.7912 1345 40.8826V770.297C1345 792.389 1327.09 810.297 1305 810.297H40C17.9087 810.297 0 792.389 0 770.297V40.8826ZM714.203 81.4565C714.203 59.3651 732.112 41.4565 754.203 41.4565H1264.4C1286.49 41.4565 1304.4 59.3651 1304.4 81.4565V670.249C1304.4 692.341 1286.49 710.249 1264.4 710.249H898.347V710.261H921.476C908.882 710.261 898.636 720.314 898.324 732.833H898.316V731.534C897.485 752.892 879.908 769.951 858.347 769.951H80.5483C58.457 769.951 40.5483 752.043 40.5483 729.951V337.265C40.5483 315.173 58.457 297.265 80.5483 297.265H714.203V297.214H674.292C695.482 297.214 712.824 280.736 714.203 259.894V81.4565Z" fill="white"/>
</svg>
