<svg width="110" height="122" viewBox="0 0 110 122" fill="none" xmlns="http://www.w3.org/2000/svg">
<path d="M9.35095 98.7388V56.3362C9.35095 55.766 9.68385 55.239 10.2247 54.9541L65.6662 25.7226C66.8313 25.1082 68.2874 25.8762 68.2874 27.1046V67.6648C68.2874 68.235 68.6203 68.762 69.1612 69.0468L107.625 89.3268C108.79 89.9412 108.79 91.4768 107.625 92.0908L52.1833 121.322C51.6424 121.608 50.9766 121.608 50.4357 121.322L10.2247 100.121C9.68385 99.8359 9.35095 99.3089 9.35095 98.7388Z" fill="white"/>
<path d="M77.3468 89.5781L75.6263 88.6216C67.2757 93.2651 58.9246 97.9085 50.574 102.552C50.574 102.552 68.4979 112.519 68.5013 112.521C74.8262 109.004 88.1475 101.597 93.5536 98.5903C93.5536 98.5903 81.8347 92.0737 77.3468 89.5781Z" fill="white"/>
<path d="M85.348 82.7426C85.051 82.5211 85.784 82.0846 85.4472 82.1971C85.368 82.2238 85.2883 82.2855 85.2155 82.326L84.3012 82.8343L80.9437 84.7011L69.8898 90.8478C65.4105 93.3388 60.9309 95.8294 56.4516 98.3205C52.5907 100.467 48.7301 102.614 44.8691 104.761L41.0497 106.885C40.4561 107.215 39.7889 107.506 39.2335 107.895C39.2088 107.912 39.1794 107.925 39.153 107.94H40.0271C37.5195 106.545 35.0119 105.151 32.5042 103.757L22.0872 97.9644C21.8261 97.8192 21.4806 97.5311 21.1845 97.4623C21.1711 97.4594 21.1546 97.4381 21.1412 97.4381C21.627 97.4381 21.223 98.1578 21.1412 98.1557L21.1434 98.1545C21.1447 98.1557 21.1555 98.1462 21.1572 98.147C21.1728 98.1541 21.2685 98.0828 21.2841 98.0765C21.8798 97.8297 22.4478 97.4294 23.0081 97.1179L31.0162 92.665L42.4866 86.2869L54.432 79.6448C57.5305 77.9219 60.6291 76.1989 63.7277 74.476L66.4037 72.9878L67.1016 72.6C67.5134 72.3711 67.0068 72.675 66.873 72.5028C67.0189 72.6905 67.4757 72.8381 67.6822 72.9527L69.5123 73.9706L74.9279 76.982L84.9281 82.5428L85.5238 82.8739C86.4906 83.4114 87.3638 81.9707 86.3979 81.4337C83.7994 79.9888 81.2009 78.5436 78.6023 77.0988C75.1821 75.1969 71.7623 73.2951 68.342 71.3937C68.077 71.2465 67.8117 71.0672 67.5211 70.9683C67.0523 70.8086 66.6414 70.9362 66.2405 71.1526C65.6197 71.4875 65.0075 71.8382 64.3914 72.1809L56.0317 76.8294C52.0988 79.016 48.1664 81.2031 44.2335 83.3897L32.2051 90.0785C29.1948 91.7522 26.1846 93.4264 23.1743 95.1001L20.781 96.4307C20.6243 96.5179 20.4611 96.5988 20.3091 96.693C19.4475 97.2288 19.4099 98.3284 20.2766 98.8842C21.1109 99.4196 22.0313 99.8599 22.899 100.342L28.4203 103.413C31.7869 105.285 35.1534 107.157 38.52 109.029L39.1525 109.381C39.4222 109.531 39.7569 109.531 40.0266 109.381C41.622 108.493 43.2179 107.607 44.8133 106.719L56.2412 100.364C60.7984 97.8305 65.3556 95.2965 69.9127 92.7621L81.4299 86.3578L85.0064 84.3692C85.4658 84.114 85.9537 83.8813 86.3949 83.5969C87.1019 83.1416 87.3062 82.1104 86.5724 81.5638C86.2027 81.2886 85.7082 81.2168 85.348 81.5638C85.0497 81.8511 84.9761 82.4661 85.348 82.743V82.7426Z" fill="#211715"/>
<path d="M85.9612 82.1354C86.25 82.2928 86.25 82.6861 85.9612 82.8435L39.5908 108.123L39.5297 108.089L20.7045 97.8265C20.4157 97.6691 20.4157 97.2758 20.7045 97.1184L66.8584 71.9575C66.9922 71.8843 67.1576 71.8843 67.2914 71.9575L85.9612 82.1354Z" fill="#48A0F0"/>
<path d="M68.6498 26.4451V23.3214C68.6498 22.3583 67.5458 21.7566 66.6622 22.2381L10.9064 52.6338C10.4964 52.8574 10.244 53.2703 10.244 53.7171V96.9181C25.2351 88.7445 53.657 73.2501 68.6498 65.0765V26.4451Z" fill="white"/>
<path d="M68.9387 111.202C66.919 110.101 64.8989 109 62.8792 107.898L53.2237 102.635L51.0114 101.429C50.0446 100.902 49.1714 102.314 50.1373 102.841C52.1569 103.942 54.177 105.043 56.1967 106.144L65.8522 111.408C66.5895 111.81 67.3273 112.212 68.0646 112.614C69.0313 113.141 69.9046 111.729 68.9387 111.202Z" fill="#211715"/>
<path d="M75.19 89.1831C77.2097 90.2844 79.2298 91.3853 81.2495 92.4866L90.905 97.7503L93.1173 98.9563C94.0841 99.4832 94.9573 98.0708 93.9914 97.5443C91.9717 96.443 89.9516 95.3421 87.9319 94.2408L78.2764 88.977L76.0641 87.7711C75.0973 87.2441 74.2241 88.6565 75.19 89.1831Z" fill="#211715"/>
<path d="M11.11 97.3869V57.31C11.11 56.1952 11.0355 55.055 11.11 53.9414C11.1442 53.4268 11.5078 53.2497 11.9105 53.0302L13.3297 52.2564L18.8367 49.2541C21.5244 47.789 24.2117 46.3238 26.8994 44.8587C30.0816 43.1237 33.2641 41.3892 36.4463 39.6542C39.728 37.8649 43.0101 36.076 46.2918 34.2866C49.2765 32.6596 52.2608 31.0326 55.2455 29.4055C57.5787 28.1337 59.9114 26.862 62.2445 25.5902L66.0908 23.4934C66.4488 23.298 66.7978 23.0576 67.2363 23.2208C67.8511 23.4493 67.7836 24.0371 67.7836 24.5371C67.7836 26.3918 67.7836 28.2462 67.7836 30.1009V39.5528C67.7836 43.1274 67.7836 46.702 67.7836 50.2765C67.7836 53.3904 67.7836 56.5038 67.7836 59.6177C67.7836 61.4311 67.7836 63.2445 67.7836 65.058C67.7836 66.8714 67.9598 66.8882 68.8283 67.5022C69.1417 67.7238 69.4946 67.8947 69.8331 68.0795L75.3176 71.0694L84.1791 75.9003C87.4539 77.6855 90.7283 79.4707 94.0031 81.2556C96.7878 82.7734 99.572 84.2917 102.357 85.8096L106.929 88.3021C107.016 88.3495 107.108 88.3933 107.192 88.446C107.767 88.8053 107.771 89.5077 107.195 89.869C106.999 89.9921 106.783 90.0939 106.579 90.2051L102.38 92.4944L95.1317 96.4458C92.0869 98.1056 89.042 99.7657 85.9971 101.425C82.7076 103.219 79.4181 105.012 76.129 106.805C72.9932 108.515 69.8569 110.225 66.7211 111.934C64.0914 113.368 61.4617 114.801 58.832 116.235C57.1081 117.175 55.3845 118.114 53.6605 119.054C53.0124 119.407 52.0967 120.158 51.3356 119.787C50.0857 119.179 48.886 118.452 47.669 117.788L39.8955 113.551C36.6818 111.799 33.4685 110.047 30.2547 108.295C27.1168 106.584 23.9783 104.873 20.8404 103.162C18.5228 101.899 16.2053 100.636 13.8877 99.372L12.078 98.3856C11.6334 98.1432 11.1368 97.9539 11.11 97.3869C11.0606 96.3387 9.32927 96.3322 9.37862 97.3861C9.43101 98.5001 10.1216 99.2073 11.0701 99.7244L12.8742 100.708L19.8052 104.487C22.9657 106.21 26.1266 107.933 29.2871 109.656C32.5463 111.433 35.8051 113.209 39.0643 114.986C41.6697 116.406 44.2752 117.827 46.8806 119.247C48.079 119.9 49.264 120.587 50.4805 121.21C51.9985 121.987 53.1535 121.219 54.4078 120.535L59.5165 117.75C62.1536 116.312 64.7906 114.875 67.4277 113.437C70.6038 111.705 73.7798 109.974 76.9563 108.242C80.2766 106.432 83.5968 104.622 86.9166 102.812C89.9858 101.139 93.0549 99.4657 96.1241 97.7928C98.5563 96.4671 100.988 95.1409 103.42 93.8152L107.548 91.5647C107.864 91.3922 108.187 91.2324 108.468 91.0092C109.909 89.8641 109.476 87.8173 107.956 86.9735C106.587 86.2139 105.206 85.4748 103.832 84.7255C101.085 83.2276 98.3377 81.7302 95.5902 80.2323C92.2929 78.4348 88.9961 76.6373 85.6988 74.8398C82.6747 73.1911 79.6506 71.5424 76.6264 69.8941L70.8419 66.7406C70.5479 66.5804 70.2366 66.434 69.9539 66.2566C69.4396 65.9341 69.5158 65.4427 69.5158 64.9419V49.5812C69.5158 45.9751 69.5158 42.3687 69.5158 38.7626C69.5158 35.6553 69.5158 32.548 69.5158 29.4407C69.5158 27.7294 69.5158 26.0182 69.5158 24.3074C69.5158 22.5965 68.962 22.0242 67.6719 21.6383C66.8164 21.3828 66.0232 21.6416 65.2933 22.0397L61.5544 24.078C59.2243 25.3482 56.8946 26.6183 54.5645 27.8885C51.546 29.5339 48.5275 31.1797 45.5086 32.8252C42.1966 34.6308 38.8846 36.4365 35.5721 38.2422C32.3614 39.9923 29.1512 41.7428 25.9404 43.4929C23.2263 44.9723 20.5126 46.4518 17.7985 47.9316C15.9762 48.925 14.154 49.9184 12.3317 50.9118C11.0281 51.6227 9.48513 52.2053 9.38209 53.8654C9.31411 54.9581 9.37862 56.0717 9.37862 57.1657V65.2779C9.37862 68.7904 9.37862 72.3028 9.37862 75.8152C9.37862 79.3277 9.37862 82.847 9.37862 86.3631V97.3861C9.37862 98.4383 11.11 98.4408 11.11 97.3869Z" fill="#211715"/>
<path d="M63.2172 67.0938C61.6084 67.9711 59.9992 68.848 58.3904 69.7253C54.5276 71.831 50.6653 73.9368 46.8026 76.0425C42.1485 78.5799 37.4939 81.117 32.8398 83.6544L20.7693 90.2345C18.8137 91.3006 16.8031 92.3092 14.8886 93.4403C14.8605 93.4567 14.8315 93.4714 14.8029 93.4873C13.8379 94.0135 14.7089 95.4271 15.677 94.8993C17.2858 94.022 18.8951 93.1452 20.5039 92.2679C24.3666 90.1621 28.2289 88.0564 32.0916 85.9506C36.7458 83.4132 41.4004 80.8762 46.0545 78.3387L58.125 71.7587C60.0806 70.6925 62.0912 69.684 64.0056 68.5528C64.0338 68.5365 64.0628 68.5218 64.0914 68.5058C65.0564 67.9797 64.1853 66.5661 63.2172 67.0938Z" fill="#211715"/>
<path d="M2.01416 21.6276C2.66178 21.5935 3.18775 21.3094 3.75134 21C4.8739 20.3837 5.91844 19.9891 7.13604 19.6102C8.69462 19.1254 10.2919 18.8695 11.8993 18.6016" stroke="black" stroke-width="3" stroke-linecap="round"/>
<path d="M37.52 10.3301C37.52 12.0914 37.5422 13.855 37.9683 15.5752C38.2516 16.7188 38.8803 17.8339 39.0891 18.9824C39.3341 20.3301 38.9394 22.2471 39.5374 23.443" stroke="black" stroke-width="3" stroke-linecap="round"/>
<path d="M39.5376 9.72498C42.7127 8.29619 46.5984 9.04948 46.5984 12.9752C46.5984 15.0643 45.7285 15.5104 43.7853 16.1582C42.9656 16.4314 42.0438 16.5271 41.3532 16.9875" stroke="black" stroke-width="3" stroke-linecap="round"/>
<path d="M56.1006 3.58105C56.1651 4.99984 56.624 6.26272 56.8862 7.63894C57.1178 8.85501 57.3654 10.1465 57.4604 11.3826C57.5579 12.6496 57.5634 13.9125 57.5634 15.1859" stroke="black" stroke-width="3" stroke-linecap="round"/>
<path d="M53.2727 6.70161C53.6761 5.44164 54.4429 3.89165 54.4429 2.50286C54.4429 1.64088 55.3865 2.10352 55.9545 2.31324C57.0115 2.70353 57.9292 3.19967 59.0263 3.4293C59.5962 3.54856 60.0445 3.93306 60.5867 4.06859" stroke="black" stroke-width="3" stroke-linecap="round"/>
<path d="M6.51689 20.5356C6.51689 23.178 6.15499 26.1034 6.92037 28.6751C7.17422 29.528 7.1221 30.3427 7.1221 31.2358" stroke="black" stroke-width="3" stroke-linecap="round"/>
<path d="M19.2263 16.4205C19.2263 18.3794 18.4376 20.3351 19.0581 22.2735C19.3245 23.1055 20.7174 25.886 21.7704 25.886C24.356 25.886 29.5858 25.3276 29.7166 21.7248C29.7871 19.7821 29.5393 18.2155 27.8898 17.0378C26.051 15.7249 23.0009 15.3916 20.8402 15.3916" stroke="black" stroke-width="3" stroke-linecap="round"/>
</svg>
