<svg width="73" height="73" viewBox="0 0 73 73" fill="none" xmlns="http://www.w3.org/2000/svg">
<path d="M36.813 0.668945C16.2023 0.668945 -0.348676 17.9189 0.713086 38.7939C1.64994 57.1689 16.4522 71.9815 34.8144 72.919C55.6749 74.044 72.9129 57.419 72.9129 36.7939C72.9754 16.8564 56.7991 0.668945 36.813 0.668945ZM49.1794 23.7939C49.1794 24.1689 48.9296 24.4189 48.5549 24.4189H39.7485V29.1689H48.5549C48.9296 29.1689 49.1794 29.4189 49.1794 29.7939V38.6064C49.1794 38.9814 48.9296 39.2314 48.5549 39.2314H40.373V58.544C40.373 58.8565 40.1232 59.169 39.7485 59.169H31.4417C31.1295 59.169 30.8172 58.8565 30.8172 58.544V39.169H25.1336C24.8213 39.169 24.5091 38.8565 24.5091 38.544V29.7314C24.5091 29.4189 24.8213 29.1064 25.1336 29.1064H30.8172V25.5439C30.8172 25.4814 30.8172 25.4189 30.8172 25.4189C30.8172 20.3564 31.8789 14.5439 40.2481 14.4814H40.3106H48.5549C48.9296 14.4814 49.1794 14.7939 49.1794 15.1064V23.7939Z" fill="white"/>
</svg>
