<?xml version="1.0" encoding="UTF-8"?><svg id="b" xmlns="http://www.w3.org/2000/svg" width="152.81" height="419.322" viewBox="0 0 152.81 419.322"><defs><style>.e{fill:#fff;}.f{fill:none;}.g{fill:#7abee6;}.h{fill:#211715;}.i{fill:#645d5c;}</style></defs><g id="c"><g id="d"><path class="e" d="M76.965,192.422c-1.483,0-2.917,0-4.288,0-.045-25.158-.263-69.986-.196-90.485l.204.055c4.666,1.248,11.229,2.306,16.133,2.318,5.145.013,12.465-.801,17.492-2.8.006,21.142-.074,65.373-.103,90.911h-.046c-9.427,0-20.213,0-29.197,0Z"/><path class="e" d="M77.29,175.428c-.236-.128-.451-.311-.628-.569-.571-.833-.203-2.344.268-2.856,2.606-2.84,3.529-3.611,5.453-5.622-1.45.791-2.627,1.483-4.343,2.371-.597.309-1.194.618-1.792.927l-2.251,1.164-2.601,1.387c.392,3.421.756,6.611,1.068,9.367-3.024,3.605,1.45-.686,6.87-6.054-.558.155-1.381.243-2.045-.116Z"/><path class="e" d="M71.98,400.514c-2.471,1.15-5.312,1.371-7.898.43-2.88-1.048-5.441-3.166-5.076-6.689,0,0,.127-1.226.254-2.452,2.519-2.618,4.815-5.265,6.571-7.949,1.716-2.105,2.691-5.737,2.648-7.604-.032-1.37-.069-2.751-.11-4.143,6.736.918,13.665.427,20.191-1.49,7.095,2.084,14.666,2.483,21.948,1.224-.046,1.478-.086,2.951-.12,4.41-.043,1.868.932,5.5,2.648,7.604,1.756,2.684,4.052,5.331,6.571,7.949l.254,2.452c.366,3.523-2.196,5.641-5.076,6.689-3.111,1.133-6.592.582-9.354-1.244-4.955-3.276-10.849-8.31-13.106-10.698,0,0-.485-.513-1.262-1.336l-3.14-.707c-.499.92-1.385,2.043-1.385,2.043-2.257,2.389-8.151,7.422-13.106,10.698-.466.308-.953.58-1.455.814Z"/><path class="i" d="M100.829,407.324c-2.744-1.913-5.17-3.593-5.947-4.078-4.99-3.117-4.432-7.357-4.323-10.264.042-1.116.204-3.327.506-5.318.777.823,1.262,1.336,1.262,1.336,2.257,2.389,8.151,7.422,13.106,10.698,2.762,1.826,6.243,2.377,9.354,1.244,2.88-1.048,5.441-3.166,5.076-6.689l-.254-2.452c.236.242.472.484.472.484,3.235,3.317,6.797,6.581,10.032,9.802,2.102,2.092,3.75,4.872,3.676,7.921-.051,2.086-1.513,3.88-3.219,5.08-1.707,1.2-3.777,1.788-5.845,2.058-4.73.617-9.633-.446-13.755-2.823-.755-.435-5.839-4.003-10.14-7Z"/><path class="i" d="M78.04,407.324c2.744-1.913,5.17-3.593,5.947-4.078,4.99-3.117,4.432-7.357,4.323-10.264-.042-1.116-.081-4.034-.384-6.025-.777.823-1.385,2.043-1.385,2.043-2.257,2.389-8.151,7.422-13.106,10.698-2.762,1.826-6.243,2.377-9.354,1.244-2.88-1.048-5.441-3.166-5.076-6.689,0,0,.127-1.226.254-2.452-.236.242-.472.484-.472.484-3.235,3.317-6.797,6.581-10.032,9.802-2.102,2.092-3.75,4.872-3.676,7.921.051,2.086,1.513,3.88,3.219,5.08s3.777,1.788,5.845,2.058c4.73.617,9.633-.446,13.755-2.823.755-.435,5.839-4.003,10.14-7Z"/><path class="h" d="M101.838,405.598c-1.801-1.255-3.593-2.528-5.425-3.739-1.414-.935-2.751-1.914-3.419-3.538-.546-1.328-.538-2.781-.485-4.19.074-1.983.199-3.968.485-5.934l-3.343.883c2.186,2.315,4.498,4.451,6.955,6.478,3.119,2.573,6.497,5.626,10.295,7.119,3.744,1.471,8.203,1.003,11.487-1.359,1.453-1.045,2.617-2.425,3.169-4.147.566-1.763.237-3.574.051-5.367l-3.414,1.414c2.994,3.071,6.126,5.999,9.194,8.995,2.147,2.097,5.697,5.681,4.059,9.034-1.699,3.48-6.543,4.156-9.964,4.064-3.486-.094-7.09-1.119-10.017-3.039-3.263-2.141-6.427-4.442-9.629-6.674-2.117-1.475-4.118,1.991-2.019,3.454,3.201,2.231,6.366,4.532,9.629,6.674,3.552,2.331,8.027,3.524,12.252,3.591,4.658.074,9.729-1.198,12.61-5.128,2.827-3.856,1.12-8.823-1.612-12.209-1.718-2.129-3.878-3.951-5.847-5.843s-3.922-3.794-5.827-5.747c-1.124-1.152-3.599-.362-3.414,1.414.129,1.239.501,2.76.183,3.994-.302,1.175-1.217,2.004-2.232,2.595-2.991,1.74-6.453,1.334-9.276-.525-5.016-3.305-9.682-7.251-13.804-11.616-.946-1.002-3.122-.631-3.343.883-.339,2.323-.54,4.652-.628,6.997-.07,1.865.037,3.775.736,5.526.928,2.324,2.614,4.009,4.689,5.356,1.995,1.295,3.934,2.68,5.886,4.04,2.117,1.475,4.118-1.991,2.019-3.454Z"/><path class="h" d="M111.695,312.308c-.759,12.668-1.584,25.332-2.257,38.005-.314,5.916-.594,11.833-.805,17.753-.1,2.791-.311,5.622-.243,8.415.053,2.185.732,4.365,1.66,6.327,1.267,2.679,3.403,5.13,5.335,7.351,2.298,2.641,4.797,5.098,7.312,7.529,1.851,1.79,4.683-1.035,2.828-2.828-4.091-3.955-8.266-8.01-11.346-12.834-2.542-3.982-1.726-8.819-1.57-13.287.411-11.833,1.094-23.655,1.808-35.473.423-6.986.86-13.972,1.278-20.958.154-2.571-3.847-2.562-4,0h0Z"/><path class="h" d="M79.05,409.051c1.972-1.374,3.937-2.76,5.947-4.078,2.216-1.454,3.98-3.313,4.832-5.862.598-1.789.588-3.707.506-5.569-.105-2.382-.145-4.751-.48-7.117-.25-1.768-2.871-1.848-3.655-.478-.373.652-.786,1.311-1.268,1.891.488-.588-.026-.014-.112.066-.216.2-.417.417-.628.622-1.058,1.026-2.163,2.004-3.282,2.962-2.605,2.23-5.309,4.37-8.166,6.272-2.768,1.842-6.126,2.418-9.15.79-1.031-.555-2.008-1.31-2.425-2.444-.476-1.292-.044-2.99.092-4.304.184-1.772-2.283-2.574-3.414-1.414-3.423,3.51-7.067,6.792-10.504,10.286-3,3.05-5.521,7.833-3.608,12.102,1.973,4.403,7.022,6.139,11.488,6.481,4.682.359,9.692-.8,13.721-3.226,3.491-2.102,6.765-4.651,10.106-6.979,2.097-1.462.1-4.931-2.019-3.454-2.977,2.075-5.94,4.175-8.943,6.213-2.676,1.816-5.748,3.018-8.976,3.384-3.663.415-8.314.073-10.937-2.861-2.497-2.794-.181-6.62,1.996-8.83,3.439-3.491,7.081-6.776,10.504-10.286l-3.414-1.414c-.186,1.793-.515,3.604.051,5.367.587,1.831,1.863,3.264,3.431,4.332,3.501,2.384,8.07,2.571,11.893.896,1.953-.856,3.687-2.232,5.385-3.504,1.648-1.236,3.266-2.515,4.845-3.837,2.51-2.101,5.14-4.212,6.788-7.089l-3.655-.478c.272,1.924.244,3.888.326,5.826.063,1.497.164,3.005-.267,4.46-.527,1.778-1.842,2.929-3.345,3.914-1.922,1.259-3.796,2.595-5.681,3.908-2.097,1.461-.1,4.93,2.019,3.454Z"/><path class="h" d="M63.174,312.308c.73,12.195,1.522,24.387,2.181,36.586.317,5.863.602,11.729.823,17.597.106,2.816.198,5.632.269,8.448.051,2.01-.178,3.823-1.007,5.686-1.125,2.528-3.129,4.816-4.936,6.878-2.257,2.575-4.7,4.978-7.16,7.356-1.854,1.793.976,4.619,2.828,2.828,4.296-4.154,8.395-8.418,11.783-13.358,2.956-4.31,2.512-9.307,2.35-14.25-.396-12.037-1.085-24.062-1.81-36.083-.436-7.23-.889-14.459-1.322-21.689-.153-2.558-4.154-2.576-4,0h0Z"/><path class="h" d="M86.434,370.616v9.993c0,1.046.92,2.048,2,2s2-.879,2-2v-9.993c0-1.046-.92-2.048-2-2s-2,.879-2,2h0Z"/><path class="e" d="M88.559,192.421h-32.33c-6.33,14.769-5.548,31.169-4.643,47.047,2.487,43.637,5.387,87.251,8.698,130.833,9.118,2.887,19.096,3.011,28.277.315,9.18,2.696,19.156,2.572,28.273-.315,3.311-43.582,6.211-87.196,8.698-130.833.905-15.878,1.687-32.277-4.644-47.047h-32.329Z"/><path class="e" d="M117.222,47.968c.897-.862,2.106-1.186,3.14-1.15,2.251.079,3.209,1.297,3.621,2.012,1.23,2.134,1.178,6.066.352,8.499-.585,1.723-1.543,4.359-3.853,6.248-.952.779-2.353,1.292-3.692,1.066l-.355-.06c-.425,1.404-.949,2.78-1.27,3.448-.939,2.548-6.126,11.483-12.69,14.967.098,1.26.261,2.506.481,3.759.358,2.047.227,3.863,3.332,4.825.013,2.006.018,5.45.022,9.928-5.026,1.999-12.348,2.813-17.493,2.8-4.904-.012-11.467-1.07-16.133-2.318l-.202-.054c.014-4.759.045-8.205.1-9.785.867-.402,1.459-.676,1.504-.692,2.734-.988,2.615-2.739,2.97-4.704.195-1.137.349-2.185.444-3.286-3.238-1.412-6.118-3.796-8.852-7.068-3.327-3.982-5.222-8.272-6.268-11.825-1.428.367-2.971-.164-3.995-1.001-2.31-1.89-3.268-4.526-3.853-6.248-.826-2.433-.878-6.365.352-8.499.412-.715,1.37-1.932,3.621-2.012,1.034-.036,2.243.287,3.14,1.15,0,0-3.879-25.775,27.787-25.775s27.787,25.775,27.787,25.775Z"/><path class="i" d="M80.857,2.849c-11.956,2.793-22.095,12.632-24.504,24.46-.804,3.92-.705,10.617.03,13.743,0,0,1.034,4.483,1.444,5.633,16.692-2.874,32.201-11.649,43.626-20.804.896,3.532,3.405,8.829,4.79,11.03,1.828,2.904,7.036,9.492,11.767,10.478.748-.432,1.596-.597,2.351-.571.583.021,1.078.117,1.5.263,2.473-5.542,1.257-15.048.284-19.772-.116-.571-.25-1.137-.402-1.698-.471-1.741-1.112-3.433-1.9-5.058-3.444-7.142-9.746-12.988-17.2-16.085-4.198-1.752-8.764-2.623-13.389-2.371-2.847-.156-5.67.114-8.398.751Z"/><path class="i" d="M128.085,68.75c-1.36-2.746-3.52-5.103-6.171-6.626-.41.512-.883,1.003-1.432,1.453-.952.779-2.353,1.292-3.692,1.066l-.354-.06c-.425,1.404-.95,2.78-1.271,3.448-.939,2.548-6.126,11.483-12.689,14.967.097,1.259.26,2.506.48,3.76.343,1.964.237,3.716,2.97,4.704.044.016.552.255,1.297.606.629.217,1.091.376,1.091.376,4.278,1.556,11.338,4.164,15.616,5.719,1.357.494,2.731,1.104,4.057,1.81l-.114-.24c-1.9-3.99-1.95-8.57-.92-12.87,1.03-4.29,3.11-8.75,2.62-13.13-.199-1.733-.714-3.421-1.488-4.983Z"/><path class="h" d="M120.904,63.85c2.484,1.469,4.449,3.652,5.637,6.289,1.387,3.081,1.258,6.23.422,9.441-.918,3.525-2.198,6.896-2.566,10.547s.218,7.275,1.75,10.615c.45.982,1.87,1.224,2.736.718,1.008-.59,1.169-1.751.718-2.736-1.491-3.251-1.615-7-.91-10.465.772-3.794,2.354-7.364,2.824-11.229.811-6.675-2.887-13.259-8.591-16.633-2.221-1.314-4.235,2.143-2.019,3.454h0Z"/><path class="h" d="M123.836,47.509c1.689-4.039,1.664-8.773,1.321-13.065-.352-4.403-1.033-8.884-2.735-12.983-3.801-9.156-11.625-16.289-20.946-19.574C96.482.126,91.087-.219,85.832.113c-4.463.281-8.792,1.485-12.805,3.447-7.91,3.867-14.327,10.758-17.4,19.025-2.883,7.756-2.271,16.746.236,24.53.786,2.44,4.649,1.397,3.857-1.063-1.931-5.994-2.714-12.708-1.29-18.894,1.763-7.658,6.899-14.273,13.511-18.418,3.384-2.122,7.116-3.588,11.051-4.291,1.955-.349,3.92-.409,5.9-.367,2.572.054,5.041.019,7.579.556,8.731,1.846,16.522,7.585,20.849,15.394,2.257,4.073,3.252,8.577,3.722,13.173.445,4.353.658,9.125-1.065,13.244-.417.997.45,2.2,1.397,2.46,1.153.317,2.042-.396,2.46-1.397h0Z"/><path class="h" d="M99.824,27.484c1.43,4.527,3.488,9.057,6.387,12.84,2.822,3.683,6.622,8.03,11.388,9.018,1.057.219,2.161-.308,2.46-1.397.272-.991-.334-2.24-1.397-2.46-3.815-.79-7.061-4.605-9.292-7.567-2.563-3.402-4.411-7.449-5.689-11.497-.773-2.446-4.636-1.401-3.857,1.063h0Z"/><path class="h" d="M99.632,24.791c-11.518,9.111-24.95,16.243-39.358,19.388-2.514.549-1.45,4.406,1.063,3.857,15.11-3.298,29.061-10.876,41.123-20.417.848-.671.701-2.127,0-2.828-.837-.837-1.978-.672-2.828,0h0Z"/><path class="h" d="M65.27,97.673c.871-.305,1.717-.743,2.555-1.127,1.285-.589,2.568-1.183,3.851-1.778,1.007-.467,2.014-.936,3.023-1.4.104-.048.21-.093.313-.143.089-.044.268-.117-.163.067-.513.22-.068.035.064-.017.253-.101.506-.203.752-.322.987-.476,1.886-1.258,2.41-2.23.486-.902.661-1.854.815-2.852.226-1.464.478-2.921.611-4.398.094-1.045-.987-2.045-2-2-1.164.052-1.899.881-2,2-.151,1.678-.46,3.49-.891,5.286-.059.246.197-.313.041-.115-.053.067-.089.158-.131.233-.223.395.179-.132-.067.089-.064.057-.154.137-.213.205.216-.252.158-.1.028-.023-.099.059-.192.124-.293.181-.037.021-.454.23-.275.149.176-.08-.145.055-.145.054-.153.062-.333.138-.484.204-.022.009-.043.019-.065.029-.101.044-.2.091-.3.137-2.145.985-4.282,1.988-6.428,2.973-.556.256-1.113.511-1.671.762-.177.08-.355.158-.532.237-.445.198.5-.187.132-.058-.985.345-1.745,1.384-1.397,2.46.315.974,1.403,1.767,2.46,1.397h0Z"/><path class="h" d="M100.501,83.314c.125,1.379.325,2.747.55,4.112.117.707.182,1.431.394,2.119.281.908.758,1.79,1.472,2.432.394.354.834.678,1.308.917.319.16.651.299.983.427.638.244-.464-.225-.22-.1,1.905.975,3.883,1.832,5.818,2.747.925.437,1.844.891,2.788,1.286.968.406,2.241-.436,2.46-1.397.266-1.17-.36-2.026-1.397-2.46.993.416.083.02-.15-.089-.414-.195-.828-.39-1.242-.586-1.121-.53-2.241-1.061-3.362-1.591-.867-.41-1.733-.822-2.602-1.228-.094-.044-.188-.089-.282-.131-.024-.011-.048-.022-.072-.032-.144-.063-.337-.145-.483-.204-.059-.024-.365-.17-.061-.019-.179-.089-.351-.18-.524-.281-.057-.033-.342-.221-.112-.062.204.141.014.012-.023-.026-.062-.062-.13-.132-.196-.191-.291-.26.101.076.063.103-.02.014-.265-.449-.288-.483-.111-.167.088.174.078.196.012-.027-.109-.318-.119-.351-.047-.161-.086-.324-.121-.488-.081-.386-.133-.776-.192-1.166-.085-.564-.187-1.125-.272-1.689-.036-.241-.041-.277-.081-.615-.045-.383-.083-.766-.118-1.15-.094-1.039-.853-2.051-2-2-1.003.045-2.101.884-2,2h0Z"/><path class="h" d="M63.061,46.553c-2.024-1.806-4.871-2.227-7.344-1.094-1.766.809-2.851,2.48-3.349,4.308-1.137,4.179-.075,9.066,2.321,12.631,1.644,2.446,4.242,4.652,7.389,4.244,1.071-.139,2-.82,2-2,0-.973-.921-2.14-2-2-2.177.282-3.594-1.52-4.538-3.262-.759-1.399-1.408-3.153-1.551-4.819-.155-1.803-.042-3.645.825-5.039-.326.524.512-.436.202-.21.399-.292.498-.326.918-.42.818-.182,1.647-.092,2.299.489,1.915,1.709,4.754-1.11,2.828-2.828h0Z"/><path class="h" d="M118.636,49.382c.616-.549,1.403-.659,2.172-.516.498.093.62.137,1.045.447-.303-.221.52.72.202.21.87,1.396.98,3.231.825,5.039-.143,1.662-.796,3.426-1.551,4.819-.944,1.741-2.36,3.544-4.538,3.262-1.073-.139-2,1.019-2,2,0,1.196.924,1.86,2,2,5.117.664,8.263-4.857,9.542-8.994,1.149-3.716,1.09-9.467-2.542-11.843-2.475-1.619-5.836-1.168-7.983.749-1.925,1.717.912,4.538,2.828,2.828h0Z"/><path class="h" d="M115.032,62.011c-.3,1.437-.744,2.847-1.266,4.219-.192.506-.324.765-.564,1.363-.202.502.145-.292-.028.067-.061.127-.118.257-.179.384-.863,1.803-1.94,3.514-3.091,5.144-2.681,3.799-6.35,7.949-11.062,9.056-2.505.589-1.444,4.446,1.063,3.857,5.599-1.316,9.907-5.99,13.151-10.472,1.256-1.735,2.425-3.566,3.359-5.498.202-.418.383-.844.562-1.272.214-.513-.165.356.072-.165.153-.337.291-.682.428-1.025.59-1.488,1.085-3.026,1.412-4.594.524-2.512-3.331-3.586-3.857-1.063h0Z"/><path class="h" d="M59.9,62.976c2.402,10.534,10.334,22.02,21.718,23.737,1.067.161,2.15-.268,2.46-1.397.26-.945-.322-2.298-1.397-2.46-10.092-1.522-16.801-11.631-18.924-20.943-.572-2.509-4.43-1.447-3.857,1.063h0Z"/><path class="h" d="M83.981,71.941c1.792.946,3.72,1.355,5.748,1.342,2.136-.014,4.214-.468,5.916-1.794.829-.646.729-2.159,0-2.828-.88-.807-1.944-.689-2.828,0,.692-.539-.015-.018-.234.096-.169.089-.618.229.016.013-.156.053-.308.118-.465.169-.422.136-.888.157-1.302.297.212-.072.331-.04.031-.01-.128.013-.256.023-.384.032-.308.02-.617.028-.925.026-.276-.002-.553-.011-.828-.03-.127-.009-.253-.019-.379-.031-.072-.007-.144-.015-.216-.024-.157-.019-.095-.011.188.025-.015.053-1.105-.237-1.216-.27-.17-.051-.336-.112-.504-.17-.446-.153.425.203.021.012-.209-.098-.414-.201-.618-.308-.925-.488-2.217-.265-2.736.718-.488.924-.27,2.215.718,2.736h0Z"/><path class="h" d="M88.446,58.746c.238.907.466,1.827.602,2.755l-.071-.532c.016.127.023.253.01.38l.071-.532c-.009.059-.022.115-.042.171l.202-.478c-.018.04-.036.074-.06.11l.313-.405c-.028.034-.055.061-.09.089l.405-.313c-.07.045-.143.081-.218.115l.478-.202c-.12.05-.239.087-.368.107l.532-.071c-.116.014-.229.013-.345,0l.532.071c-.13-.018-.258-.05-.388-.067-.266-.083-.532-.095-.798-.036-.266.012-.514.091-.744.237-.415.243-.811.718-.919,1.195-.117.512-.091,1.087.202,1.541l.313.405c.25.248.544.419.883.514.348.047.687.134,1.041.15.572.025,1.093-.155,1.601-.39.639-.297,1.144-.905,1.314-1.592.145-.589.087-1.059-.013-1.649-.15-.888-.355-1.767-.583-2.638-.127-.483-.49-.944-.919-1.195s-1.061-.357-1.541-.202c-.484.157-.951.457-1.195.919-.253.48-.342,1.007-.202,1.541h0Z"/><path class="h" d="M74.443,50.786c-.46,1.495-.16,4.935,2.673,5.228,3.744-.022,3.943-4.181,2.683-6.137-1.032-1.601-4.066-2.267-5.356.909Z"/><path class="h" d="M104.426,50.786c.46,1.495.16,4.935-2.672,5.228-3.744-.023-3.944-4.181-2.683-6.137,1.032-1.601,4.066-2.267,5.356.909Z"/><path class="h" d="M52.905,195.493c-3.519,10.24-4.137,21.18-3.867,31.925.284,11.323,1.151,22.645,1.832,33.949,1.398,23.225,2.912,46.442,4.543,69.651.92,13.097,1.878,26.191,2.872,39.282.069.913.577,1.651,1.468,1.929,8.743,2.722,18.087,3.019,26.998.938,2.506-.585,1.445-4.443-1.063-3.857-8.232,1.922-16.805,1.573-24.872-.938l1.468,1.929c-1.755-23.117-3.397-46.243-4.921-69.376-1.507-22.861-3.135-45.741-4.152-68.63-.534-12.016-.399-24.243,3.551-35.739.838-2.44-3.024-3.487-3.857-1.063h0Z"/><path class="h" d="M86.243,232.653c0,7.86.016,15.721.031,23.581.022,10.787.048,21.575.076,32.362.029,11.366.06,22.732.091,34.097.027,9.778.054,19.557.079,29.335.015,5.851.033,11.703.038,17.554,0,.344,0,.689,0,1.033,0,2.574,4,2.578,4,0,0-5.215-.018-10.429-.031-15.644-.024-9.419-.05-18.837-.076-28.256-.031-11.286-.062-22.573-.091-33.859-.029-10.988-.056-21.975-.079-32.963-.018-8.339-.035-16.677-.038-25.016,0-.742,0-1.483,0-2.225,0-2.574-4-2.578-4,0h0Z"/><path class="h" d="M120.356,196.557c3.516,10.231,4.013,21.064,3.699,31.791-.33,11.262-1.173,22.521-1.851,33.767-1.39,23.059-2.895,46.11-4.515,69.154-.915,13.014-1.867,26.025-2.855,39.033l1.468-1.929c-8.067,2.511-16.639,2.86-24.872.938-2.504-.585-3.573,3.271-1.063,3.857,8.911,2.081,18.255,1.784,26.998-.938.898-.28,1.399-1.019,1.468-1.929,1.762-23.2,3.409-46.408,4.938-69.625,1.515-23.008,3.195-46.039,4.166-69.078.51-12.117.257-24.522-3.724-36.106-.832-2.42-4.697-1.38-3.857,1.063h0Z"/><path class="g" d="M72.498,131.377c-.046-19-.051-35.045.079-39.174l-.62.24c-3.942,1.523-17.288,7.513-21.495,9.521-1.121.535-5.228,3.251-6.182,4.026-4.45,3.59-6.426,9.105-7.768,14.906-4.714,18.007-5.92,26.014-7.545,41.318h21.814c-.392,4.776-1.178,12.267-1.626,16.924-1.1,11.437-2.55,22.639-3.406,34.374,6.539,2.073,13.701,2.191,20.547,2.148,1.32-.008,3.32-.228,4.385-1.018,1.163-.863,1.955-1.17,1.955-4.698.142-5.09-.058-46.133-.137-78.566Z"/><path class="g" d="M150.716,159.043c.141,2.692.278,7.256-.603,10.073-1.136,3.633-2.293,5.309-4.796,7.766-2.078,2.041-6.473,4.134-10.762,4.134-2.257.07-4.51.064-6.734-.004,1.551,14.164,2.808,25.37,3.302,32.806-6.58,1.46-12.136,1.93-19.186,1.88-1.35-.01-2.77-.03-3.98-.67s-1.63-1.79-1.75-3.44c-.06-4.36.161-102.727.086-119.57l3.021.426c4.278,1.556,11.338,4.164,15.616,5.719,2.928,1.065,5.932,2.675,8.397,4.572,3.506,2.7,5.619,6.261,7.28,10.348,1.083,2.664,1.992,5.396,2.775,8.162,4.778,16.865,5.841,26.261,7.333,37.798"/><path class="h" d="M70.582,92.053c-.203,5.929-.112,11.877-.114,17.808-.003,10.692.027,21.384.058,32.075.034,11.641.076,23.281.111,34.922.026,8.782.058,17.565.045,26.348-.003,2.121-.004,4.242-.039,6.363-.002.125-.006.25-.009.375-.01.518.01,1.054-.07,1.568-.028.182-.217.877-.155.687-.026.079-.091.169-.138.238-.175.258.183-.238-.003-.008-.067.082-.154.161-.24.223-.24.173.249-.191.006-.003-.667.513-1.334.768-2.169.901-2.219.355-4.629.132-6.867.082-2.546-.058-5.097-.19-7.625-.51-2.405-.305-4.78-.82-7.095-1.538l1.468,1.929c1.017-13.795,2.723-27.542,4.093-41.306.442-4.438,1.017-8.906,1.164-13.367.056-1.703-.196-3.42-.379-5.109-.353-3.258-.738-6.513-1.084-9.772-.721-6.788-1.249-13.593-1.715-20.403-.174-2.554-4.176-2.574-4,0,.41,6.006.862,12.011,1.465,18.001.343,3.404.734,6.802,1.115,10.202.235,2.098.556,4.22.606,6.333.094,3.982-.577,8.076-.966,12.03-.596,6.056-1.184,12.114-1.833,18.164-.901,8.402-1.844,16.8-2.466,25.228-.065.888.671,1.681,1.468,1.929,4.952,1.534,10.158,2.041,15.321,2.179,4.028.107,8.986.77,12.259-2.087,2.397-2.092,1.862-6.058,1.877-9.006.039-7.915.003-15.83-.018-23.745-.032-11.623-.074-23.246-.11-34.868-.035-11.338-.07-22.676-.076-34.014-.004-6.925-.058-13.856.085-20.781.007-.355.016-.71.028-1.065.088-2.575-3.912-2.571-4,0h0Z"/><path class="h" d="M72.153,103.921c5.66,1.493,11.658,2.469,17.523,2.384,5.733-.083,11.791-.776,17.164-2.865,1.006-.391,1.704-1.343,1.397-2.46-.264-.961-1.448-1.79-2.46-1.397-10.237,3.979-22.133,3.232-32.561.481-2.491-.657-3.554,3.2-1.063,3.857h0Z"/><path class="h" d="M104.293,92.017c.031,7.027.017,14.053.013,21.08-.007,11.133-.021,22.266-.036,33.4-.016,11.601-.033,23.203-.049,34.804-.011,8.275-.024,16.55-.024,24.825,0,1.753-.048,3.515.008,5.268.038,1.171.238,2.392.806,3.433,1.099,2.012,3.352,2.678,5.495,2.83,4.662.33,9.521-.057,14.144-.671,2.353-.313,4.685-.73,7.004-1.238.805-.176,1.525-1.094,1.468-1.929-.738-10.963-2.104-21.886-3.302-32.806-.118-1.074-.835-2-2-2-.99,0-2.119.919-2,2,1.198,10.92,2.564,21.843,3.302,32.806l1.468-1.929c-4.489.984-9.014,1.57-13.607,1.741-2.247.084-4.733.347-6.96-.022-1.337-.221-1.753-.788-1.818-2.108-.078-1.581-.009-3.182-.009-4.764-.001-7.874.011-15.748.022-23.622.015-11.235.032-22.469.047-33.704.015-11.112.03-22.223.038-33.335.006-7.505.016-15.01-.005-22.514-.001-.515-.003-1.029-.005-1.544-.011-2.573-4.011-2.579-4,0h0Z"/><path class="h" d="M124.933,125.603c.003,4.34.035,8.678-.156,13.015-.212,4.797-.647,9.585-.974,14.375-.175,2.569,3.825,2.559,4,0,.327-4.79.762-9.578.974-14.375.192-4.337.159-8.675.156-13.015-.002-2.574-4.002-2.578-4,0h0Z"/><path class="e" d="M70.576,151.33c-.452.321-.945.668-1.495,1.047.782,6.562,1.595,13.573,2.312,19.816,1.618-.84,3.237-1.677,4.856-2.514.597-.309,1.194-.618,1.792-.927,1.717-.888,2.894-1.58,4.344-2.372-1.925,2.012-2.848,2.782-5.454,5.623-.47.513-.838,2.023-.268,2.856.869,1.268,2.695.754,3.185.491,3.42-1.835,6.156-3.925,9.271-5.105,2.738.534,5.716.803,8.902.461.783-5.906,1.649-13.663,2.163-18.142-2.993.722-6.055-.865-8.822-2.277-1.677-.855-3.378-1.663-5.1-2.423-.905-.399-1.821-.786-2.785-1.008-2.329-.535-4.799-.06-6.994.887-2.39,1.031-3.631,1.972-5.907,3.587Z"/><path class="h" d="M30.966,162.213c.651-6.116,1.351-12.228,2.399-18.29,1.144-6.626,2.68-13.174,4.347-19.686.882-3.444,1.589-7.017,3.081-10.265.667-1.452,1.461-2.889,2.465-4.138.517-.643,1.092-1.244,1.702-1.8.15-.137.777-.666.647-.564-.177.139.365-.264.489-.351,1.781-1.264,3.629-2.581,5.6-3.535s3.975-1.845,5.97-2.747c4.92-2.227,9.894-4.549,14.823-6.465,1.006-.391,1.704-1.343,1.397-2.46-.264-.961-1.448-1.79-2.46-1.397-4.711,1.831-9.319,3.962-13.928,6.034-4.315,1.94-8.525,3.781-12.449,6.445-2.507,1.702-4.624,3.682-6.257,6.264-1.906,3.014-3.065,6.484-3.924,9.924-1.773,7.094-3.606,14.167-4.943,21.36s-2.186,14.42-2.957,21.672c-.114,1.076,1.001,2,2,2,1.177,0,1.885-.921,2-2h0Z"/><path class="h" d="M99.883,150.575c-2.566.629-5.099-.788-7.318-1.915-2.495-1.267-5.069-2.65-7.742-3.504-5.328-1.703-10.483,1.054-14.717,4.064-.879.625-1.297,1.745-.718,2.736.508.869,1.852,1.347,2.736.718,1.922-1.366,3.886-2.741,6.15-3.481,2.656-.868,4.903-.528,7.407.59,4.722,2.108,9.832,5.981,15.265,4.649,2.499-.613,1.441-4.471-1.063-3.857h0Z"/><path class="h" d="M74.534,153.886c-1.476.745-2.952,1.49-4.427,2.235-.432.218-.794.74-.919,1.195-.132.479-.072,1.116.202,1.541.275.427.685.803,1.195.919.543.124,1.042.051,1.541-.202,1.476-.745,2.952-1.49,4.427-2.235.432-.218.794-.74.919-1.195.132-.479.072-1.116-.202-1.541-.275-.427-.685-.803-1.195-.919-.543-.124-1.042-.051-1.541.202h0Z"/><path class="h" d="M73.57,166.116c2.386-1.459,4.888-2.725,7.384-3.981.937-.471,1.277-1.868.718-2.736-.617-.957-1.735-1.221-2.736-.718-2.497,1.256-4.999,2.522-7.384,3.981-.892.546-1.311,1.816-.718,2.736.577.896,1.781,1.302,2.736.718h0Z"/><path class="h" d="M75.007,172.571c1.756-.908,3.525-1.797,5.265-2.737,1.558-.842,3.091-1.729,4.663-2.545.93-.483,1.282-1.86.718-2.736-.611-.948-1.741-1.234-2.736-.718-1.572.816-3.105,1.703-4.663,2.545-1.74.94-3.508,1.829-5.265,2.737-.931.481-1.282,1.861-.718,2.736.612.949,1.741,1.232,2.736.718h0Z"/><path class="h" d="M88.678,172.194c3.95.748,7.895.872,11.859.149,1.032-.188,1.709-1.495,1.397-2.46-.358-1.106-1.355-1.599-2.46-1.397-.277.05-.554.095-.831.141-.416.07.163-.011-.291.041-.472.054-.944.101-1.418.132-.852.056-1.706.072-2.559.048-.821-.023-1.642-.081-2.459-.171-.066-.007-.688-.084-.469-.055.22.029-.395-.059-.46-.069-.416-.065-.831-.138-1.245-.217-1.025-.194-2.207.285-2.46,1.397-.224.985.298,2.252,1.397,2.46h0Z"/><path class="h" d="M80.164,165.799c-.997,1.012-2.015,2.005-2.999,3.03-.698.728-1.508,1.453-2.065,2.298-.524.795-.78,1.9-.72,2.845.145,2.28,2.079,3.904,4.359,3.687,1.937-.184,3.563-1.374,5.185-2.359.979-.594,1.952-1.198,2.949-1.76.48-.271.966-.533,1.46-.778.244-.121.49-.238.738-.35.093-.042.186-.084.279-.124-.304.129.277-.106.276-.105.972-.377,1.753-1.36,1.397-2.46-.306-.946-1.416-1.802-2.46-1.397-2.189.848-4.189,2.017-6.188,3.235-.965.587-1.93,1.174-2.917,1.724-.14.078-.602.237-.679.369.359-.145.439-.18.239-.105-.066.023-.133.044-.201.063-.076.021-.152.04-.228.057-.213.039-.163.036.15-.009-.006-.028-.524.072-.551.013.296.049.333.052.11.008-.209-.066-.186-.047.071.056-.185-.112-.175-.089.031.069-.151-.155-.154-.14-.009.045-.109-.193-.107-.172.005.063-.051-.223-.056-.203-.015.059-.008-.144.097-.76-.018-.292.034-.14.279-.717.032-.254.069-.129.207-.536-.049-.009.116-.238.448-.486.63-.682.188-.202.377-.403.567-.604,1.127-1.191,2.3-2.336,3.451-3.504.735-.746.8-2.094,0-2.828-.793-.728-2.044-.796-2.828,0h0Z"/><path class="g" d="M125.803,152.993c-8.11-1.34-16.06-2.04-25.25-3.61-.4,3.09-2.26,20.7-3.38,27.05,7.49,2.12,22.331,5.052,37.381,4.582,4.288,0,8.683-2.093,10.762-4.134,2.504-2.456,3.661-4.133,4.796-7.766.881-2.817.744-7.381.603-10.073"/><path class="h" d="M126.335,151.064c-8.392-1.375-16.864-2.188-25.25-3.61-1.402-.238-2.355.554-2.532,1.929-1.132,8.829-1.777,17.744-3.309,26.518-.187,1.069.275,2.145,1.397,2.46,8.999,2.531,18.403,3.94,27.725,4.494,2.902.172,5.81.244,8.717.195,2.622-.044,5.157-.261,7.635-1.184,4.072-1.515,7.635-4.361,9.708-8.231,2.433-4.542,2.546-9.566,2.289-14.593-.131-2.561-4.132-2.577-4,0,.199,3.898.325,7.884-1.241,11.542-1.426,3.332-4.262,6.034-7.625,7.352-2.38.932-4.729,1.089-7.257,1.12-2.664.033-5.329-.036-7.989-.189-4.88-.28-9.741-.837-14.56-1.653-4.152-.703-8.285-1.571-12.34-2.712l1.397,2.46c1.593-9.127,2.274-18.398,3.451-27.582l-2.532,1.929c8.386,1.422,16.858,2.235,25.25,3.61,1.065.174,2.153-.277,2.46-1.397.263-.956-.325-2.285-1.397-2.46h0Z"/><path class="h" d="M72.632,194.421h33.53c2.574,0,2.578-4,0-4h-33.53c-2.574,0-2.578,4,0,4h0Z"/><path class="f" d="M109.314,92.443c4.278,1.556,11.338,4.164,15.616,5.719,2.928,1.065,5.932,2.675,8.397,4.572,3.506,2.7,5.619,6.261,7.28,10.348,1.083,2.664,2.01,5.391,2.775,8.162,4.214,16.904,5.889,23.865,7.333,37.798"/><path class="h" d="M108.783,94.372c4.919,1.79,9.827,3.609,14.745,5.402,5.429,1.98,10.363,4.977,13.316,10.085,3.208,5.549,4.738,12.076,6.318,18.232,1.336,5.202,2.485,10.45,3.393,15.744.866,5.049,1.504,10.13,2.161,15.209.138,1.071.82,2,2,2,.973,0,2.139-.921,2-2-1.338-10.352-2.832-20.615-5.376-30.752-1.649-6.574-3.319-13.399-6.485-19.437-2.891-5.515-7.641-9.346-13.315-11.785-5.758-2.475-11.805-4.411-17.694-6.554-2.423-.882-3.467,2.982-1.063,3.857h0Z"/><path class="e" d="M4.219,123.266c13.105,2.233,50.095,8.614,61.214,10.678.831.154,1.461.822,1.571,1.66,1.488,11.284,3.952,32.692,5.4,45.456.145,1.283-.968,2.347-2.243,2.141-14.629-2.368-49.957-9.117-60.315-11.392-.773-.17-1.359-.782-1.497-1.562-1.956-11.097-5.232-36.285-6.388-44.801-.177-1.305.96-2.401,2.258-2.179Z"/><path class="h" d="M3.687,125.195c13.813,2.355,27.621,4.743,41.424,7.158,6.116,1.07,12.233,2.137,18.341,3.253.446.082.94.121,1.374.253.221.067.239.046.212.008.188.269.133,1.02.178,1.363.239,1.846.471,3.694.699,5.541.54,4.359,1.062,8.72,1.577,13.082.542,4.584,1.075,9.169,1.603,13.754.245,2.127.489,4.255.732,6.382.112.979.223,1.958.335,2.936.054.473.476,1.981.227,2.387.112-.183.126-.057-.213-.125-.32-.064-.647-.106-.969-.16-.696-.115-1.392-.233-2.087-.351-1.566-.266-3.131-.539-4.696-.815-3.697-.652-7.391-1.322-11.083-2.002-7.846-1.444-15.684-2.929-23.515-4.453-3.388-.659-6.774-1.326-10.157-2.009-1.337-.27-2.674-.543-4.009-.82-.916-.191-2.31-.224-3.136-.666-.28-.149-.129-.003-.245-.197-.14-.231-.132-.757-.176-1.015-.134-.786-.264-1.574-.392-2.361-.277-1.716-.543-3.435-.802-5.154-.598-3.968-1.164-7.941-1.719-11.915-1.001-7.172-1.956-14.35-2.919-21.527-.095-.709-.19-1.418-.286-2.127-.02-.149-.037-.507-.041-.491-.055.197-.209.099.276.142,1.077.096,2-.988,2-2,0-1.162-.92-1.904-2-2-2.791-.248-4.521,2.236-4.175,4.796.18,1.333.289,2.142.488,3.631.512,3.827,1.023,7.654,1.542,11.481,1.138,8.393,2.28,16.788,3.607,25.153.246,1.55.339,3.28.825,4.775.655,2.011,2.389,2.55,4.23,2.943,2.801.597,5.608,1.162,8.416,1.722,8.006,1.597,16.024,3.133,24.048,4.637,7.689,1.441,15.384,2.863,23.097,4.172,1.554.264,3.514.904,5.068.547,1.128-.259,2.103-1.048,2.626-2.073.574-1.126.377-2.301.241-3.499-.504-4.438-1.013-8.876-1.527-13.313-1.076-9.29-2.157-18.58-3.342-27.857-.26-2.039-.178-4.521-2.088-5.79-1.116-.742-2.653-.822-3.948-1.057-3.027-.549-6.056-1.086-9.085-1.62-15.228-2.688-30.467-5.319-45.709-7.928-1.261-.216-2.521-.431-3.782-.646-1.064-.181-2.154.282-2.46,1.397-.264.961.326,2.278,1.397,2.46Z"/><path class="h" d="M73.377,184.027c1-.834,1.931-1.755,2.868-2.658,1.513-1.458,3.01-2.933,4.502-4.412.744-.737.793-2.1,0-2.828-.801-.736-2.034-.787-2.828,0-1.493,1.479-2.989,2.955-4.502,4.412-.937.902-1.868,1.824-2.868,2.658-.807.673-.747,2.143,0,2.828.858.787,1.968.718,2.828,0h0Z"/><path class="e" d="M25.747,181.726c-3.35-.875-6.491-4.468-6.347-7.966.139-3.373.389-6.719,1.377-10.138.289-1.002,2.029-2.325,3.585-2.033,1.111.208,2.154.905,2.294,2.118l.079-.711c.113-1.016,1.312-3.77,3.818-3.423s3.334,2.577,3.244,5.03c.296-.813,1.129-2.139,3.371-1.842,3.581.473,3.141,4.671,2.816,6.493.847-1.082,2.497-1.341,3.665-.661,1.362.793,2.141,1.705,2.133,4.052-.011,3.342.269,6.673-.254,8.232-.526,1.567-3.793,2.929-5.401,2.545-3.004.476-12.676-1.051-14.38-1.695"/><path class="h" d="M41.701,170.334c.227-.179.666-.135.914-.04.446.171.548.324.781.594.156.181.253.38.333.838.125.711.052,1.525.063,2.263.023,1.615.105,3.236.03,4.851-.027.587-.022.936-.193,1.411,0,0-.106.075-.033.023-.246.176-.282.271-.488.407-.843.554-1.784.832-2.611.798.654.027-1.233.039-.763-.003.327-.029-.199.011-.301.017-.409.025-.82.024-1.229.016-2.114-.041-4.351-.307-6.307-.595-1.848-.271-3.848-.475-5.616-1.115-1.016-.368-2.19.414-2.46,1.397-.306,1.112.378,2.091,1.397,2.46,2.263.821,4.865,1.025,7.234,1.339,2.696.358,5.497.75,8.209.356h-1.063c2.319.449,4.974-.48,6.674-2.095,1.901-1.806,1.604-4.823,1.56-7.216-.049-2.652.406-5.89-1.606-7.979-2.05-2.128-5.036-2.384-7.352-.554-.848.671-.701,2.127,0,2.828.837.837,1.978.672,2.828,0h0Z"/><path class="h" d="M41.682,176.449c.112-2.628.254-5.253.434-7.877.152-2.219.074-4.585-1.562-6.294-1.837-1.918-5.288-2.114-7.29-.369-1.441,1.256-1.62,3.017-1.856,4.79-.364,2.735-.534,5.486-.753,8.235-.086,1.078.981,2,2,2,1.154,0,1.914-.919,2-2,.161-2.025.288-4.051.497-6.072.129-1.245.188-2.03.421-3.184.025-.122.059-.241.088-.362.072-.296.216-.194-.064.105.075-.08.115-.241.171-.337.034-.057.078-.114.109-.173.152-.29-.081.169-.116.148-.007-.004.304-.294.33-.321-.235.244-.152.19.072.008.165-.134-.313.026-.093.047.084.008.289-.074.365-.091-.445.098.177.02.333.021.013,0,.331.033.127.004-.221-.031.154.036.203.049.201.05.533.254.24.06.08.053.186.109.273.156.336.18-.08-.137.009.011.043.072.137.156.203.211.19.16-.134-.289-.052-.057.051.143.169.308.244.445-.233-.427.001.054.044.215.026.096.048.193.069.29.013.064.079.491.038.178-.039-.298.015.251.02.333.01.198.013.396.01.594-.008.49-.053.98-.087,1.469-.176,2.587-.316,5.176-.426,7.767-.046,1.08.952,2,2,2,1.122,0,1.954-.917,2-2h0Z"/><path class="h" d="M35.792,164.731c.077-1.901-.316-3.834-1.552-5.326-1.249-1.506-3.501-2.213-5.388-1.692-1.627.449-2.894,1.777-3.563,3.289-.705,1.594-.71,3.39-.83,5.106-.167,2.381-.269,4.766-.422,7.148-.069,1.079.969,2,2,2,1.14,0,1.931-.918,2-2,.144-2.243.244-4.488.393-6.73.065-.969.141-1.937.239-2.903.014-.139.029-.279.044-.418.038-.334.03-.28-.024.161.03-.034.054-.236.066-.28.04-.146.098-.285.144-.429-.173.545-.035.09.038-.049.075-.143.155-.283.243-.419.052-.08.106-.159.162-.235-.167.212-.179.234-.037.066.106-.1.212-.207.314-.311-.339.346.081-.034.206-.113.373-.237-.347.089.091-.026.223-.047.204-.053-.058-.015.113-.011.226-.014.339-.012.399-.027-.175-.089.194.025.113.035.729.307.333.086.055.031.544.352.337.188-.21-.166.212.229.252.271-.328-.339.068.124.132.241.048.087.201.531.064.112.07.214.139.425.19.644.034.147.097.513.048.156.066.484.065.977.045,1.464-.044,1.08.95,2,2,2,1.12,0,1.956-.916,2-2h0Z"/><path class="h" d="M28.592,163.214c-.55-3.382-4.716-4.453-7.388-2.893-2.914,1.701-3.105,5.556-3.456,8.574-.363,3.12-.751,6.316.717,9.212,1.342,2.648,3.904,4.74,6.751,5.548,2.481.703,3.54-3.155,1.063-3.857-1.651-.468-3.086-1.607-3.992-3.06-1.109-1.779-.889-3.582-.746-5.597.081-1.137.187-2.275.369-3.401s.306-2.548.795-3.586c-.172.363.168-.14.283-.231.215-.17.535-.35.82-.373.576-.047.847.233.927.728.173,1.067,1.499,1.661,2.46,1.397,1.134-.312,1.571-1.39,1.397-2.46h0Z"/></g></g></svg>