<?xml version="1.0" encoding="UTF-8"?><svg id="b" xmlns="http://www.w3.org/2000/svg" width="402.203" height="294.662" viewBox="0 0 402.203 294.662"><defs><style>.e{fill:#ffda71;}.e,.f,.g,.h,.i,.j{stroke-width:0px;}.f{fill:none;}.g{fill:#fff;}.h{fill:#3d8dcc;}.i{fill:#211715;}.j{fill:#645d5c;}</style></defs><g id="c"><g id="d"><path class="g" d="m15.272,272.362c-4.344-1.095-8.419-2.132-12.085-3.072l-1.218-69.813c15.752,3.351,32.623,6.716,46.914,9.796,4.788,1.482,7.058,4.337,7.946,8.326,1.406,6.315,3.371,16.207,5.371,26.434,3.711.814,6.488,1.423,6.488,1.423,18.906,4.132,36.758,7.795,52.191,11.397,2.498.792,4.603,1.916,4.603,5.117,0,2.755-1.684,4.533-4.579,5.607-15.012,5.569-30.076,11.004-45.019,16.755-3.808,1.466-7.11,1.16-10.864-.011-15.901-3.559-34.488-8.114-49.748-11.959Z"/><path class="g" d="m300.3,275.965c1.51,4.3.84,9.16,0,12.41l-.08.42-17.84-3.43-29.15-5.62,2.42-1.5v-11.11l.25-1.27c13.65,2.74,31.64,6.4,40.9,8.26.57.11,1.15.17,1.73.17l1.77,1.67Z"/><path class="g" d="m255.65,267.135v11.11l-2.42,1.5,29.15,5.62-2.23,1.52c-3.72,2.16-5.46,3.16-9.46,5.47-.65.37-1.4.49-2.13.33-18.06-4.02-42.68-9.15-60.79-13.61-.91-.23-1.05-1.48-.2-1.89,9.54-4.66,44.21-21.3,58.45-28.62.21-.11.43-.14.66-.1,4.73.75,9.52,1.5,14.24,2.24-8.54,4.13-18.87,9.13-25.98,12.57-1.13.55-.91,2.22.32,2.46.21.04.42.09.64.13l-.25,1.27Z"/><path class="g" d="m137.055,58.501c-.602,5.915-.945,11.826-1.379,17.268-.753,9.437-3.369,18.03-9.802,23.621-5.074,4.41-10.441,6.939-16.565,7.701.034.091.054.143.054.143.887,1.974,2.778,3.628,4.835,4.296,1.496.631,3.589,1.353,5.752,2.079-2.334,4.145-6.029,7.204-10.055,9.016-4.368,1.965-9.132,2.561-13.827,2.561-12.262-.018-24.485-4.144-34.786-11.731,0,0-1.335-1.052-1.772-1.396.687-.294,1.343-.587,1.935-.876,3.592-1.755,7.997-3.564,10.072-6.982.768-1.27,1.252-2.687,1.736-4.085.562-1.638,1.124-3.276,1.685-4.913-1.93-1.995-3.579-4.053-5.136-6.217,0,0-1.777-2.572-2.54-4.049,0,0-.141-.343-.332-.805-2.315.191-4.755-.567-5.759-1.131-3.384-1.915-5.031-4.739-6.116-6.78-1.541-2.886-2.338-7.793-1.121-10.706.408-.974,1.443-2.685,4.386-3.221,1.352-.247,3.004-.078,4.342.821,0,0-12.041-40.076,48.125-40.076,29.833,0,26.268,35.463,26.268,35.463Z"/><path class="j" d="m242.599,130.097c2.861-2.103,4.86-4.736,6.485-7.844,1.226-2.344,1.59-5.012,1.871-7.627,1.421-13.222,2.07-31.662,1.499-46.281-.713-21.694,4.938-37.427,13.847-46.04,5.37-5.192,17.471-12.265,31.067-12.265,8.165,0,17.715.808,26.81,8.787,10.983,7.275,17.273,16.404,18.523,33.199.171,2.299.209,7.675.271,15.073-.571,15.194-.25,35.606,1.171,49.348.281,2.718.646,5.491,1.871,7.927,1.625,3.23,4.581,5.528,7.442,7.714"/><path class="i" d="m354.466,130.36c-3.14-2.401-6.299-4.975-7.451-8.915-1.067-3.649-1.156-7.649-1.426-11.423-.583-8.159-.819-16.343-.874-24.521-.056-8.233.286-16.457.201-24.688-.07-6.767-.256-13.486-2.027-20.07-1.954-7.263-5.799-13.722-11.371-18.784-1.902-1.728-4.739,1.093-2.828,2.828,4.754,4.319,8.154,9.652,10,15.813,1.942,6.484,2.151,13.106,2.222,19.814.089,8.293-.251,16.579-.199,24.874.052,8.249.287,16.505.876,24.734.312,4.367.368,9.144,1.83,13.303,1.623,4.616,5.265,7.611,9.028,10.489.859.657,2.239.133,2.736-.718.602-1.03.143-2.078-.718-2.736h0Z"/><path class="g" d="m326.795,68.556c1.271-.822,2.825-.954,4.09-.7,2.755.552,3.699,2.176,4.066,3.097,1.095,2.754.266,7.349-1.228,10.034-1.053,1.899-2.645,4.524-5.854,6.266-1.011.546-3.547,1.27-5.829.917,1.693-1.108-2.374,4.563-2.374,4.563-1.358,1.819-2.785,3.555-4.415,5.236.571,1.672,1.146,3.347,1.721,5.021.455,1.313.91,2.644,1.631,3.837,1.948,3.21,6.086,4.91,9.459,6.558.556.272,1.172.547,1.817.823-.412.325-1.664,1.311-1.664,1.311-9.673,7.125-21.153,11-32.669,11.017-4.409,0-8.884-.56-12.986-2.405-3.834-1.725-7.348-4.654-9.534-8.631,2.064-.69,4.068-1.38,5.493-1.981,1.931-.627,3.708-2.18,4.541-4.034.017-.037.052-.139.099-.289-6.113-.675-11.384-3.17-16.315-7.61-5.948-5.355-8.264-13.467-8.817-22.341-.242-3.886-.43-8.026-.711-12.23.598-2.22,2.001-5.977,3.385-8.069h21.469c3.95-1.415,7.225-4.542,9.255-8.214,1.642-2.97,2.546-5.332,3.308-9.302l9.879,1.124c1.136,4.538,2.53,8.885,3.795,11.299,2.567,4.898,7.056,11.665,11.697,13.498l6.692,1.207Z"/><path class="i" d="m266.957,119.687c3.107-1.169,6.293-2.116,9.422-3.224,1.497-.531,3.121-1.033,4.503-1.82,1.656-.943,3.09-2.422,3.905-4.149.461-.976.272-2.158-.718-2.736-.87-.509-2.273-.263-2.736.718-1.289,2.729-4.022,3.441-6.697,4.369-2.909,1.01-5.86,1.901-8.743,2.986-1.01.38-1.702,1.351-1.397,2.46.266.969,1.444,1.779,2.46,1.397h0Z"/><path class="i" d="m313.55,99.17c.887,2.583,1.636,5.286,2.831,7.748,1.055,2.173,2.812,3.814,4.809,5.123,3.915,2.565,8.451,4.211,12.76,5.967,1.001.408,2.198-.443,2.46-1.397.315-1.145-.392-2.051-1.397-2.46-3.84-1.565-7.783-3.076-11.327-5.261-1.588-.979-2.929-2.149-3.774-3.835-1.091-2.176-1.717-4.65-2.505-6.948-.831-2.421-4.696-1.381-3.857,1.063h0Z"/><path class="i" d="m279.047,94.144c1.734.994,3.808,1.402,5.789,1.453.997.026,2.015-.066,2.987-.286.493-.112.957-.29,1.422-.486.294-.124.586-.251.877-.382.109-.049.217-.098.326-.147.034-.015.578-.242.182-.08.965-.393,1.757-1.348,1.397-2.46-.301-.931-1.423-1.82-2.46-1.397-.574.234-1.139.487-1.705.739-.038.017-.379.158-.157.07.22-.087-.108.038-.147.052-.177.065-.356.121-.538.17-.197.053-.396.096-.596.132-.087.016-.195.015-.277.045.112-.041.377-.041.105-.019-.421.034-.84.058-1.263.052-.409-.006-.812-.047-1.219-.076-.29-.021.363.06.078.013-.1-.017-.2-.031-.3-.048-.222-.038-.442-.082-.661-.133-.374-.087-.744-.193-1.106-.322-.071-.025-.447-.115-.143-.047.258.057.011.006-.065-.032-.171-.084-.339-.169-.505-.264-.908-.52-2.229-.243-2.736.718-.503.952-.252,2.181.718,2.736h0Z"/><path class="i" d="m292.199,73.49c-.402-1.825.291-5.891,3.693-5.963,4.455.393,4.286,5.364,2.595,7.568-1.385,1.805-5.063,2.301-6.287-1.606Z"/><path class="i" d="m265.666,72.149c-.36-1.829.293-5.91,3.409-5.997,4.079.374,3.902,5.361,2.343,7.579-1.277,1.817-4.647,2.33-5.752-1.583Z"/><path class="i" d="m279.005,76.92c-.605.915-1.202,1.847-1.718,2.816-.211.397-.439.806-.536,1.248-.206.936-.001,1.793.633,2.517.425.485.96.787,1.548,1.021.382.152.798.174,1.202.228l-.532-.071c.06.008.119.018.178.029.534.104,1.059.08,1.541-.202.415-.243.811-.718.919-1.195.117-.512.091-1.087-.202-1.541-.27-.419-.688-.82-1.195-.919-.266-.052-.536-.078-.804-.113l.532.071c-.199-.027-.39-.067-.576-.144l.478.202c-.126-.058-.241-.128-.353-.211l.405.313c-.13-.105-.252-.219-.355-.351l.313.405c-.025-.037-.045-.076-.06-.117l.202.478c-.015-.041-.025-.083-.03-.127l.071.532c-.005-.07-.004-.132.003-.202l-.071.532c.02-.122.055-.236.099-.351l-.202.478c.258-.607.634-1.182.977-1.744.321-.526.649-1.047.988-1.561.277-.419.332-1.068.202-1.541-.128-.464-.486-.967-.919-1.195-1.003-.53-2.12-.216-2.736.718h0Z"/><path class="i" d="m311.354,104.054c2.949-2.27,5.626-4.799,7.987-7.679,1.64-2,3.257-4.118,4.503-6.393.519-.947.233-2.181-.718-2.736-.915-.535-2.216-.233-2.736.718-.598,1.092-1.307,2.124-2.018,3.145-.662.951-1.13,1.548-1.86,2.439-2.125,2.592-4.541,5.024-7.178,7.054-.854.658-1.312,1.72-.718,2.736.492.841,1.875,1.381,2.736.718h0Z"/><path class="i" d="m302.339,103.961c-8.844,3.556-19.005,5.185-27.812.601-4.022-2.094-7.737-5.12-10.103-9.027-2.38-3.931-3.578-8.518-4.11-13.053-.758-6.453-.763-13-1.3-19.476-.211-2.547-4.213-2.57-4,0,.515,6.213.573,12.474,1.212,18.674.533,5.17,1.682,10.336,4.199,14.928,4.886,8.914,14.967,14.358,24.958,14.758,6.217.249,12.284-1.242,18.019-3.548,1.001-.403,1.706-1.334,1.397-2.46-.261-.951-1.452-1.802-2.46-1.397h0Z"/><path class="i" d="m327.804,70.283c1.154-.691,2.539-.7,3.759-.142.923.422,1.138.744,1.561,1.587-.301-.6.089.314.127.46.067.253.121.515.153.771.093.753.063,1.542-.01,2.296-.124,1.279-.447,2.601-.938,3.789-.953,2.306-2.637,4.607-4.736,5.97-.321.208-.65.405-.991.579-.46.235.395-.129-.179.074-.591.209-1.2.379-1.818.484-1.172.199-2.518.223-3.597-.338-2.281-1.185-4.306,2.265-2.019,3.454,2.614,1.358,5.869,1.236,8.589.223,2.816-1.049,5.071-3.288,6.704-5.755,1.589-2.401,2.565-5.029,2.919-7.887.324-2.617.068-5.487-1.7-7.566-2.346-2.757-6.804-3.273-9.843-1.453-2.206,1.322-.197,4.781,2.019,3.454h0Z"/><path class="i" d="m302.683,43.085c1.372,5.429,3.082,10.596,6.052,15.37,2.676,4.301,6.024,8.82,10.837,10.824.998.415,2.2-.448,2.46-1.397.316-1.151-.395-2.043-1.397-2.46-1.824-.759-3.338-2.315-4.626-3.76-1.606-1.802-2.97-3.807-4.215-5.871-2.589-4.293-4.029-8.926-5.253-13.768-.63-2.494-4.489-1.437-3.857,1.063h0Z"/><path class="i" d="m292.804,40.897c-1.269,6.505-4.454,13.644-11.167,16.12-1.013.373-1.7,1.356-1.397,2.46.268.975,1.442,1.772,2.46,1.397,8.06-2.972,12.392-10.87,13.961-18.913.207-1.059-.3-2.159-1.397-2.46-.981-.27-2.252.331-2.46,1.397h0Z"/><path class="i" d="m278.952,41.225c-.298,6.47-3.32,12.459-8.305,16.579-.833.689-.713,2.116,0,2.828.824.824,1.993.69,2.828,0,5.79-4.786,9.133-11.944,9.477-19.408.05-1.08-.955-2-2-2-1.125,0-1.95.917-2,2h0Z"/><path class="i" d="m258.106,73.491c.713-5.096,1.973-10.209,4.981-14.467,3.488-4.937,6.18-10.809,5.174-16.971-.174-1.067-1.499-1.661-2.46-1.397-1.134.312-1.572,1.39-1.397,2.46.922,5.647-2.663,10.521-5.531,14.974-2.718,4.22-3.939,9.437-4.624,14.336-.149,1.068.26,2.148,1.397,2.46.936.257,2.31-.32,2.46-1.397h0Z"/><path class="i" d="m243.608,131.824c2.509-1.884,4.58-4.141,6.22-6.821,1.737-2.84,2.565-5.784,2.976-9.066.75-5.99,1.115-12.044,1.408-18.07.318-6.526.472-13.06.446-19.594-.026-6.407-.469-12.816-.109-19.22.575-10.226,2.788-20.823,8.423-29.53,5.224-8.072,13.962-13.244,23.078-15.841,6.191-1.764,12.707-2.034,19.081-1.241,6.768.842,12.971,3.638,18.06,8.18,1.915,1.709,4.754-1.11,2.828-2.828-4.809-4.292-10.496-7.358-16.821-8.697-5.517-1.168-11.469-1.42-17.061-.714-10.528,1.328-21.75,6.206-28.915,14.246-6.645,7.457-10.099,17.304-11.661,27.035-1.034,6.445-1.31,12.959-1.077,19.477s.224,13.058.063,19.584c-.177,7.156-.533,14.312-1.158,21.444-.299,3.407-.352,7.163-1.689,10.358-1.264,3.022-3.495,5.882-6.11,7.846-.862.648-1.307,1.728-.718,2.736.497.85,1.867,1.37,2.736.718h0Z"/><path class="e" d="m369.217,152.225c-1.753-5.085-3.669-10.01-5.689-13.958-3.684-7.197-6.827-10.489-9.31-12.569-5.821-4.879-14.077-8.88-23.425-12.21l-.777.612-1.801,1.419c-9.673,7.125-21.153,11-32.669,11.017-4.409,0-8.884-.56-12.986-2.405-4.078-1.835-7.795-5.033-9.922-9.409-1.039.264-2.724.697-3.438.907-7.571,2.227-17.876,6.096-23.172,11.401-1.031,1.033-3.129,3.184-5.371,6.349-1.996,1.671-14.739,26.565-18.282,38.361-1.338,4.453-4.162,14.025-4.826,21.189-.256,2.767.34,6.055,1.5,8.611,2.563,5.644,12.222,9.417,21.556,5.167l13.789-6.307c.981,4.822,1.854,9.665,2.621,14.524,0,0,.546,3.283,1.286,7.733,43.275,0,89.661,0,112.082,0,4.974-2.922,2.781-6.326,2.781-6.326,5.614-4.712,7.362-12.645,6.983-21.374-.311-7.185-1.347-11.756-2.835-17.757-2.632-10.618-5.255-16.54-8.094-24.974"/><path class="i" d="m281.961,248.856c-3.729-.583-7.457-1.166-11.185-1.757-1.593-.252-3.716-1-5.284-.465-.915.312-1.786.872-2.646,1.309-3.793,1.925-7.605,3.814-11.42,5.695-9.061,4.468-18.149,8.879-27.241,13.283-3.834,1.857-7.669,3.711-11.504,5.567-1.453.703-2.905,1.406-4.357,2.112-1.769.859-3.951,1.91-3.191,4.36.47,1.516,1.798,1.964,3.197,2.306,1.495.365,2.991.725,4.488,1.081,3.037.721,6.079,1.425,9.123,2.119,6.431,1.466,12.872,2.886,19.316,4.294,7.069,1.545,14.142,3.072,21.21,4.625,1.614.355,3.229.711,4.842,1.07,2.005.446,3.431.181,5.215-.849,2.881-1.663,5.762-3.326,8.641-4.992,2.227-1.289.215-4.747-2.019-3.454-2.386,1.381-4.774,2.76-7.162,4.139-.972.561-2.094,1.578-3.25,1.379-1.488-.256-2.967-.658-4.442-.983-5.775-1.271-11.554-2.522-17.332-3.78-11.864-2.584-23.732-5.168-35.537-8.013-.677-.163-1.354-.327-2.03-.493-.232-.057-.493-.15-.726-.178l-.361-.089c-.347,1.487-.214,2.056.399,1.708.503-.083,1.097-.534,1.559-.758,1.339-.65,2.678-1.299,4.017-1.947,3.51-1.699,7.02-3.396,10.53-5.096,8.556-4.143,17.109-8.293,25.642-12.485,4.234-2.08,8.464-4.169,12.677-6.291.852-.429,1.703-.86,2.553-1.293.344-.175.782-.514,1.163-.595-.74.158.688.225.724.231.476.076.952.151,1.427.227,3.965.629,7.932,1.249,11.899,1.87,1.066.167,2.151-.272,2.46-1.397.261-.949-.323-2.292-1.397-2.46h0Z"/><path class="e" d="m124.397,33.626l-3.522,3.183c-4.484,9.748-15.57,18.697-26.826,17.007h-6.807c-1.426.796-2.84,1.531-4.208,2.207-4.232,1.632-10.629,3.313-11.667,8.103l-8.706-1.014c-1.338-.899-2.99-1.068-4.342-.821-2.358.43-3.491,1.613-4.057,2.567l-2.076-4.353c-3.841-8.311-4.287-18.26-1.156-26.88l1.659-8.001c5.28-8.172,11.937-15.364,20.795-19.681.938-.457,1.893-.879,2.863-1.263,9.021-3.569,19.94-3.836,28.71.655l7.354,2.02c11.73,2.268,20.455,9.7,24.642,19.851,3.556,8.62,3.363,19.647,1.4,30.566h-4.022c-.094-.966-.214-1.929-.365-2.888-1.287-8.168-4.925-15.925-10.332-22.03"/><path class="i" d="m72.914,94.949c-.825,2.403-1.488,4.974-2.598,7.264-.918,1.893-2.377,3.204-4.148,4.296-3.783,2.332-7.993,3.945-12.092,5.615-1,.407-1.707,1.331-1.397,2.46.26.947,1.454,1.807,2.46,1.397,4.578-1.866,9.396-3.616,13.556-6.341,2.052-1.344,3.88-3.025,4.992-5.243,1.327-2.646,2.125-5.592,3.084-8.385.837-2.44-3.025-3.488-3.857-1.063h0Z"/><path class="i" d="m127.606,114.116c-3.069-1.155-6.212-2.105-9.309-3.18-2.83-.982-5.828-1.79-7.208-4.711-.461-.977-1.862-1.229-2.736-.718-1,.585-1.181,1.756-.718,2.736.861,1.822,2.366,3.374,4.112,4.371,1.46.834,3.181,1.364,4.763,1.925,3.331,1.18,6.724,2.188,10.032,3.433,1.011.381,2.193-.423,2.46-1.397.308-1.122-.382-2.078-1.397-2.46h0Z"/><path class="i" d="m110.967,87.657c-.157.087-.317.165-.479.243-.272.133.031-.06.089-.037-.04-.016-.227.086-.272.102-.407.145-.824.26-1.246.353-.207.046-.415.086-.624.121-.048.008-.401.063-.133.024s-.088.009-.137.014c-.458.048-.919.074-1.381.075-.425.001-.847-.025-1.271-.062-.344-.03.068-.017.074.014-.002-.013-.271-.044-.298-.049-.192-.035-.383-.076-.573-.124-.181-.046-.36-.098-.537-.159-.045-.016-.476-.182-.243-.087.206.084-.14-.065-.175-.081-.489-.224-.971-.461-1.465-.673-.959-.411-2.189-.318-2.736.718-.454.859-.309,2.297.718,2.736,1.095.469,2.149,1.077,3.306,1.384,1.032.274,2.133.385,3.2.382,2.116-.005,4.332-.414,6.201-1.442.918-.505,1.292-1.845.718-2.736-.599-.93-1.755-1.258-2.736-.718h0Z"/><path class="i" d="m99.401,69.009c.462-1.936-.201-6.277-3.82-6.417-4.751.335-4.663,5.631-2.903,8.009,1.441,1.948,5.347,2.544,6.724-1.593Z"/><path class="i" d="m127.674,68.073c.417-1.94-.202-6.297-3.518-6.448-4.35.323-4.254,5.634-2.635,8.026,1.325,1.958,4.904,2.567,6.153-1.578Z"/><path class="i" d="m109.799,74.957c.345.543.678,1.093,1.004,1.648.35.596.717,1.199.997,1.833l-.202-.478c.06.147.106.293.129.45l-.071-.532c.006.075.006.141-.001.216l.071-.532c-.006.046-.018.091-.034.134l.202-.478c-.017.044-.039.085-.066.124l.313-.405c-.112.139-.244.258-.385.367l.405-.313c-.12.086-.244.158-.379.218l.478-.202c-.166.065-.335.104-.512.129l.532-.071c-.309.04-.62.069-.926.124-.467.083-.964.525-1.195.919-.251.429-.357,1.061-.202,1.541.157.484.457.951.919,1.195.5.264.985.3,1.541.202.047-.008.094-.015.141-.022l-.532.071c.413-.051.841-.069,1.237-.208.602-.211,1.144-.531,1.591-.992.698-.72.9-1.585.731-2.55-.084-.481-.319-.924-.542-1.354-.543-1.046-1.157-2.06-1.789-3.054-.276-.435-.692-.78-1.195-.919-.479-.132-1.116-.072-1.541.202-.883.569-1.318,1.792-.718,2.736h0Z"/><path class="i" d="m80.962,97.958c-4.824-3.85-9.106-8.572-11.973-14.032-.502-.956-1.834-1.245-2.736-.718-.969.567-1.221,1.777-.718,2.736,1.253,2.387,2.888,4.599,4.549,6.714,2.367,3.013,5.054,5.737,8.049,8.128.844.673,2.005.824,2.828,0,.698-.698.849-2.151,0-2.828h0Z"/><path class="i" d="m86.428,105.03c5.44,2.3,11.055,3.981,16.986,4.264,5.506.263,10.975-.729,15.947-3.132,4.848-2.343,9.311-5.927,12.328-10.409,3.033-4.505,4.637-9.883,5.434-15.21,1.09-7.285,1.194-14.715,1.931-22.042.108-1.076-.997-2-2-2-1.172,0-1.891.921-2,2-.619,6.155-.883,12.34-1.488,18.494-.479,4.877-1.55,9.86-3.838,14.229-4.537,8.665-14.236,13.939-23.875,14.108-6.031.105-11.878-1.418-17.406-3.756-.994-.42-2.142-.299-2.736.718-.49.838-.283,2.313.718,2.736h0Z"/><path class="i" d="m63.671,61.386c-2.956-1.842-6.979-1.478-9.651.719-2.111,1.736-2.731,4.581-2.675,7.197.128,5.974,3.481,12.69,8.958,15.499,3.04,1.559,7.019,1.911,10.115.374,2.306-1.145.282-4.596-2.019-3.454-2.384,1.183-5.576.13-7.409-1.207-2.058-1.501-3.715-3.874-4.64-6.236-.56-1.428-.907-2.976-.988-4.507-.037-.7-.05-1.433.052-2.13.042-.285.113-.574.191-.851.048-.171.102-.339.163-.505-.075.159-.074.156.003-.009.259-.548.302-.615.588-.899.335-.333.641-.57,1.163-.795,1.362-.588,2.875-.524,4.13.258,2.191,1.365,4.201-2.094,2.019-3.454h0Z"/><path class="i" d="m111.881,9.284c7.108,1.411,13.559,4.866,18.303,10.398,5.155,6.011,7.339,13.698,7.626,21.5.198,5.382-.344,10.763-1.283,16.058-.189,1.062.287,2.155,1.397,2.46.967.266,2.271-.328,2.46-1.397,1.701-9.586,2.495-19.952-.567-29.361-2.465-7.573-7.483-14.161-14.18-18.479-3.848-2.481-8.21-4.146-12.693-5.037-2.514-.499-3.59,3.355-1.063,3.857h0Z"/><path class="i" d="m122.322,34.268c3.436,3.918,6.129,8.509,7.863,13.426,1.941,5.507,2.425,11.155,2.689,16.948.117,2.563,4.117,2.578,4,0-.286-6.272-.816-12.461-2.973-18.406-1.976-5.447-4.93-10.44-8.75-14.796-1.7-1.939-4.52.899-2.828,2.828h0Z"/><path class="i" d="m119.148,35.799c-4.201,8.978-14.014,17.562-24.568,16.088-1.068-.149-2.148.26-2.46,1.397-.257.936.32,2.31,1.397,2.46,12.358,1.725,24.015-7.093,29.085-17.927.458-.978.274-2.156-.718-2.736-.867-.507-2.276-.265-2.736.718h0Z"/><path class="i" d="m103.708,35.462c-2.288,5.748-7.315,10.118-12.329,13.486-2.601,1.747-5.328,3.301-8.116,4.726-2.425,1.24-5.101,1.914-7.551,3.12-2.865,1.411-5.488,3.571-6.273,6.8-.608,2.501,3.248,3.568,3.857,1.063.593-2.439,2.895-3.709,5.023-4.688,2.559-1.177,5.241-1.937,7.747-3.247,5.634-2.943,11.172-6.471,15.573-11.108,2.529-2.664,4.566-5.673,5.926-9.09.4-1.004-.437-2.196-1.397-2.46-1.138-.313-2.059.389-2.46,1.397h0Z"/><path class="i" d="m53.914,59.497c-3.608-7.94-3.869-17.15-.954-25.339.865-2.43-2.999-3.475-3.857-1.063-3.29,9.245-2.687,19.52,1.358,28.421.447.983,1.872,1.223,2.736.718,1.011-.591,1.166-1.749.718-2.736h0Z"/><path class="i" d="m54.417,26.635c4.012-6.177,8.898-11.931,15.053-16.065,6.482-4.354,14.12-6.787,21.955-6.571,4.369.12,8.71,1.098,12.624,3.065,2.294,1.153,4.322-2.296,2.019-3.454-7.754-3.898-16.749-4.498-25.13-2.476-8.15,1.966-15.457,6.548-21.305,12.488-3.279,3.331-6.127,7.079-8.67,10.994-1.406,2.165,2.055,4.172,3.454,2.019h0Z"/><path class="g" d="m172.861,196.217c-.31-6.969-2.51-17.001-3.62-21.372-2.82-11.04-4.65-16.942-7.05-24.871-1.02-3.363-2.96-8.966-4.81-12.978l-.002.004c-3.294-5.885-7.05-9.751-8.586-11.29-5.638-5.649-16.611-9.768-24.673-12.139-.76-.223-2.551-.684-3.646-.961-2.28,4.654-6.237,8.059-10.58,10.013-4.368,1.965-9.132,2.561-13.827,2.561-12.262-.018-24.485-4.144-34.786-11.73l-1.917-1.511s-.305-.241-.829-.653c-9.951,3.547-18.743,7.807-24.94,13.002-2.643,2.215-5.99,5.72-9.913,13.384-5.125,10.011-9.615,25.922-12.633,35.991-1.414,4.986-3.61,13.821,0,18.475,0,0,3.442,4.738,7.906,10.884,10.388,2.147,20.698,4.256,29.929,6.245,4.788,1.482,7.058,4.337,7.946,8.326.333,1.496.699,3.202,1.088,5.057h92.222c2.663-.564,4.298-.911,4.298-.911,11.583-2.456,14.557-7.674,15.828-10.36,1.56-3.296,2.636-9.596,2.567-11.9-.032-1.086.077-2.183.028-3.268Z"/><path class="h" d="m79.182,259.314c-4.694-.922-9.365-1.769-14.468-2.383,1.033,5.3,2.012,10.305,2.858,14.523.676-.17,1.074-.266,1.074-.266,7.158-1.725,13.947-3.717,20.257-5.956.601-.096,1.846-.768,1.87-2.152.019-1.147-.828-1.582-1.419-1.748-3.511-.673-6.847-1.364-10.172-2.017Z"/><path class="i" d="m68.156,247.385c12.855,2.808,25.735,5.5,38.586,8.325,2.929.644,5.857,1.296,8.782,1.961,1.344.306,2.687.614,4.03.926,1.031.239,2.164.533,3.015,1.205,1.332,1.051,1.141,3.239.092,4.414-.72.806-1.763,1.238-2.754,1.605-1.703.631-3.406,1.261-5.109,1.889-13.009,4.8-26.025,9.577-38.983,14.515-2.996,1.142-5.816,1.358-8.93.549-2.87-.745-5.766-1.381-8.658-2.047-5.947-1.371-11.885-2.78-17.817-4.214-12.252-2.961-24.481-6.021-36.691-9.152-2.495-.64-3.559,3.217-1.063,3.857,11.501,2.949,23.018,5.834,34.556,8.635,6.228,1.512,12.462,2.998,18.705,4.443,2.999.694,6.055,1.264,9.02,2.089,3.195.89,6.428,1.262,9.686.446,1.722-.431,3.374-1.18,5.03-1.811,1.773-.677,3.549-1.349,5.325-2.019,3.475-1.31,6.955-2.607,10.438-3.898,6.811-2.524,13.631-5.022,20.445-7.536,2.956-1.09,6.44-1.884,8.93-3.895,2.099-1.695,2.98-4.324,2.58-6.963-.885-5.842-8.259-6.328-12.836-7.36-15.078-3.397-30.215-6.524-45.315-9.822-2.509-.548-3.581,3.307-1.063,3.857h0Z"/><path class="i" d="m71.025,278.314c-2.96-13.766-5.471-27.631-8.198-41.444-1.291-6.538-2.559-13.088-4.022-19.591-.85-3.781-3.009-6.994-6.516-8.777-2.105-1.071-4.352-1.478-6.64-1.965-2.458-.523-4.918-1.039-7.378-1.553-11.921-2.488-23.858-4.905-35.77-7.437-2.511-.534-3.584,3.321-1.063,3.857,10.348,2.2,20.715,4.313,31.074,6.461,4.938,1.024,9.874,2.054,14.805,3.113,3.485.748,6.315,2.705,7.348,6.229.823,2.807,1.285,5.765,1.875,8.628.705,3.425,1.392,6.854,2.072,10.284,1.508,7.611,2.982,15.228,4.467,22.843,1.328,6.811,2.631,13.63,4.09,20.415.541,2.515,4.398,1.451,3.857-1.063h0Z"/><path class="i" d="m69.177,273.116c3.875-.938,7.727-1.966,11.545-3.112,1.8-.54,3.593-1.106,5.377-1.699,1.445-.481,3.123-.84,4.457-1.585,2.945-1.644,2.928-6.165-.466-7.253-1.759-.564-3.725-.754-5.538-1.117-1.878-.377-3.756-.756-5.637-1.121-4.454-.866-8.922-1.628-13.424-2.203-1.073-.137-2,1.017-2,2,0,1.195.924,1.862,2,2,4.145.53,8.26,1.263,12.36,2.061,2.033.395,4.062.806,6.093,1.213.999.2,1.998.399,2.997.595.545.107,1.105.185,1.643.319.714.178.181-.007.232-.052-.041.036-.14-.11.01-.128.175-.021-.735.44-.294.233-.691.325-1.509.509-2.237.757-1.983.676-3.978,1.316-5.982,1.925-4.033,1.225-8.104,2.318-12.201,3.309-2.501.605-1.442,4.464,1.063,3.857h0Z"/><path class="i" d="m115.589,260.506c-11.664,3.867-23.235,8.015-34.909,11.851-.896.295-1.793.589-2.696.863-.258.078-.52.145-.777.226-.494.156-.224.023.073.025-2.575-.02-2.577,3.98,0,4,1.125.009,2.375-.579,3.419-.916,2.362-.764,4.712-1.562,7.063-2.359,6.381-2.165,12.75-4.363,19.128-6.538,3.251-1.109,6.502-2.214,9.762-3.295,2.432-.806,1.39-4.67-1.063-3.857h0Z"/><path class="i" d="m367.288,152.757c2.807,8.31,5.973,16.445,8.094,24.974,2.079,8.36,3.882,17.396,2.281,26.003-.801,4.304-2.541,8.289-5.914,11.182-1.957,1.679.883,4.497,2.828,2.828,6.962-5.972,8.016-15.818,7.483-24.418-.588-9.47-3.07-18.855-6.062-27.826-1.543-4.628-3.292-9.185-4.853-13.807-.819-2.426-4.684-1.385-3.857,1.063h0Z"/><path class="i" d="m239.595,204.98c-3.447,1.526-7.4,2.002-11.079,1.11-2.713-.658-5.573-2.053-7.14-4.465-1.992-3.067-2.101-7.07-1.612-10.568.523-3.744,1.398-7.443,2.356-11.097,1.426-5.442,3.08-10.769,5.223-15.973,2.348-5.702,4.993-11.289,7.762-16.797,1.335-2.655,2.703-5.295,4.151-7.891.854-1.531,1.698-3.125,2.772-4.518.66-.856.13-2.24-.718-2.736-1.033-.604-2.074-.14-2.736.718-1.006,1.304-1.802,2.789-2.606,4.222-1.335,2.378-2.598,4.796-3.831,7.227-3.039,5.99-5.898,12.079-8.473,18.284-2.341,5.64-4.13,11.424-5.642,17.338-1.011,3.952-1.88,7.949-2.357,12.004-.462,3.93.088,8.557,2.335,11.925,5.08,7.611,15.971,8.055,23.615,4.672.988-.437,1.219-1.879.718-2.736-.596-1.018-1.745-1.156-2.736-.718h0Z"/><path class="i" d="m118.999,114.299c5.276,1.325,10.475,2.913,15.496,5.022,5.426,2.279,10.491,5.125,14.499,9.487,2.575,2.802,4.783,5.891,6.658,9.203,1.268,2.24,4.725.227,3.454-2.019-3.088-5.453-7.145-10.769-12.244-14.497-5.636-4.12-12.428-6.728-19.023-8.866-2.566-.832-5.161-1.529-7.777-2.186-2.497-.627-3.563,3.229-1.063,3.857h0Z"/><path class="i" d="m118.786,111.52c-1.817,3.658-4.667,6.582-8.244,8.549-4.204,2.311-9.052,3.051-13.794,3.111-9.047.116-18.08-2.135-26.113-6.273-3.55-1.829-6.797-3.966-9.858-6.378-.848-.668-2.001-.827-2.828,0-.694.694-.853,2.156,0,2.828,6.949,5.476,14.75,9.637,23.34,11.891,9.598,2.518,20.95,3.261,30.116-1.132,4.633-2.221,8.546-5.969,10.835-10.578,1.142-2.298-2.307-4.327-3.454-2.019h0Z"/><path class="i" d="m62.828,107.725c-7.975,2.59-15.926,5.637-23.167,9.91-5.331,3.147-9.975,6.931-13.544,12.015-4.399,6.267-7.293,13.496-9.835,20.675-2.483,7.011-4.582,14.149-6.704,21.275-1.047,3.518-1.967,7.064-2.349,10.724-.38,3.64-.172,7.783,2.092,10.829.643.866,1.731,1.305,2.736.718.854-.499,1.365-1.864.718-2.736-1.806-2.431-1.85-5.554-1.58-8.457.272-2.923,1.005-5.816,1.827-8.628,1.956-6.692,3.948-13.383,6.19-19.985,2.35-6.92,4.956-13.817,8.818-20.054,3.026-4.888,6.861-8.626,11.694-11.719,7.445-4.765,15.794-7.989,24.167-10.709,2.438-.792,1.395-4.656-1.063-3.857h0Z"/><path class="i" d="m270.86,115.66c9.024,18.14,35.205,14.159,50.03,6.704,3.776-1.899,7.228-4.24,10.54-6.85.849-.669.7-2.128,0-2.828-.838-.838-1.977-.671-2.828,0-5.793,4.565-12.565,8.108-19.817,10.066-4.049,1.093-8.202,1.701-12.396,1.776-4.383.078-8.953-.354-12.985-2.201-3.954-1.811-7.149-4.785-9.09-8.686-1.147-2.305-4.598-.281-3.454,2.019h0Z"/><path class="g" d="m305.322,203.576c-1.019-.924-5.756-5.228-6.754-6.278-3.229-3.397-4.894-10.454-.718-12.732.819-.403,1.86-.571,2.314-1.362.256-.446.254-.987.329-1.495.187-1.251.937-2.384,1.966-3.115s1.589-1.946,1.54-3.206c-.026-.672-.024-1.256-.011-1.382.213-2.047,1.123-4.034,2.609-5.468.046-.044.102-.09.165-.137.937-.694,1.553-1.735,1.618-2.899.059-1.066.148-2.114.125-2.494-.065-1.097.378-2.265.839-3.079.746-1.319,2.17-1.905,3.558-1.848,1.232.05,2.335.501,2.911,1.649,1.426,2.843,5.068,13.387,8.856,19.256,1.91-.773,3.881-1.593,4.674-1.996,3.202-1.626,5.501.324,6.303,1.625.6.974.798,2.224.846,3.367.132,3.175.075,5.84-.153,9.179-.029.425-.096.866.057,1.264.133.344.382.639.67.87.72.578,1.412,1.131,2.088,1.658,1.473,1.149,1.874,3.207.945,4.829-2.505,4.371-5.212,8.668-8.462,12.394-1.914,2.195-5.162,2.707-7.635,1.171-3.054-1.896-6.245-3.47-9.615-5.146-2.808-1.307-6.244-2.11-8.873-4.45,0,0-.069-.062-.193-.175Z"/><path class="i" d="m313.379,209.928c2.386,1.186,4.777,2.366,7.102,3.668,2.063,1.155,3.903,2.509,6.348,2.626,5.131.244,8.129-4.71,10.663-8.425,1.46-2.14,2.835-4.351,4.106-6.609,1.137-2.019,1.393-4.34.09-6.372-.638-.996-1.587-1.64-2.497-2.366-.345-.275-.82-.647-.884-.86-.169-.565.113-1.68.144-2.271.126-2.439.173-4.896.041-7.336-.122-2.262-.701-4.495-2.535-5.967-2.059-1.652-4.708-1.819-7.146-.955-2.409.854-1.372,4.72,1.063,3.857,1.293-.459,2.653-.659,3.73.335.965.891.904,2.866.937,4.279.048,2.08.001,4.159-.116,6.236-.059,1.04-.277,2.17.041,3.188s1.096,1.683,1.896,2.322c1.087.868,2.785,1.788,2.052,3.42-.867,1.93-2.215,3.787-3.366,5.559-1.144,1.761-2.345,3.492-3.667,5.125-1.054,1.302-2.078,2.655-3.865,2.833-2.013.2-3.751-1.374-5.41-2.291-2.202-1.216-4.458-2.33-6.71-3.45-2.298-1.143-4.327,2.307-2.019,3.454h0Z"/><path class="i" d="m328.215,180.297c-1.956-1.956-3.296-4.719-4.526-7.254-1.433-2.954-2.683-5.992-3.915-9.034-.909-2.246-1.67-5.553-3.769-6.996-1.661-1.142-4.009-1.198-5.813-.389-2.002.898-3.216,2.901-3.575,5.023-.164.971-.12,1.979-.181,2.961-.07,1.126-.249,1.61-1.087,2.379-1.529,1.403-2.623,3.325-3.096,5.346-.366,1.561.227,3.664-1.102,4.766-.81.671-1.513,1.391-1.989,2.345-.245.492-.447,1.011-.56,1.548-.05.238-.097,1.078-.162,1.158-.204.247-1.025.43-1.282.548-.321.147-.61.315-.897.52-.746.53-1.379,1.196-1.848,1.985-.831,1.395-1.127,3.114-1.032,4.72.194,3.296,1.628,6.596,3.939,8.958,1.943,1.986,4.065,3.815,6.12,5.683,1.012.92,2.064,1.782,3.258,2.463,2.12,1.208,4.472,1.896,6.684,2.902.983.447,2.152.281,2.736-.718.502-.859.27-2.287-.718-2.736-2.933-1.334-6.234-2.137-8.684-4.332-1.683-1.508-3.346-3.041-4.996-4.585-1.759-1.646-3.233-3.261-3.947-5.637-.356-1.186-.574-2.489-.29-3.71.318-1.365,1.141-1.79,2.35-2.317.824-.359,1.605-.874,2.059-1.68.5-.89.358-1.91.757-2.814.354-.803,1.051-1.165,1.652-1.754.72-.704,1.255-1.642,1.511-2.616.447-1.701-.009-3.306.731-4.978.76-1.717,2.449-2.59,3.249-4.253.888-1.846.342-3.81.813-5.702.309-1.245,1.593-2.727,3.041-1.859.331.198.458.534.62.87.094.195.18.395.267.594.044.101.275.643.179.414.467,1.11.911,2.23,1.364,3.346,1.33,3.281,2.678,6.562,4.231,9.745,1.359,2.785,2.867,5.705,5.081,7.919,1.823,1.823,4.652-1.005,2.828-2.828h0Z"/><path class="i" d="m325.732,113.877c8.018,2.605,16.029,5.7,23.117,10.335,2.39,1.563,4.658,3.311,6.594,5.419,2.395,2.607,4.26,5.665,5.91,8.783,2.424,4.582,4.244,9.452,5.936,14.342.836,2.418,4.702,1.379,3.857-1.063-2.897-8.374-6.21-16.984-11.967-23.856-4.548-5.428-11.056-9.104-17.395-12.039-4.863-2.252-9.894-4.123-14.988-5.779-2.454-.797-3.505,3.064-1.063,3.857h0Z"/><path class="i" d="m251.236,195.152c1.488,6.728,2.771,13.498,3.849,20.303.169,1.068,1.502,1.66,2.46,1.397,1.137-.313,1.567-1.389,1.397-2.46-1.078-6.805-2.361-13.576-3.849-20.303-.556-2.512-4.413-1.449-3.857,1.063h0Z"/><path class="i" d="m59.921,224.657h340.35c2.574,0,2.578-4,0-4H59.921c-2.574,0-2.578,4,0,4h0Z"/><path class="i" d="m154.969,223.674c5.784-1.256,11.705-3.597,15.356-8.48,3.034-4.058,4.161-9.69,4.479-14.64.464-7.201-1.013-14.542-2.537-21.547-1.485-6.825-3.388-13.571-5.355-20.271-2.257-7.687-4.468-15.444-7.804-22.748-.449-.983-1.871-1.224-2.736-.718-1.009.59-1.168,1.75-.718,2.736,2.797,6.124,4.665,12.624,6.59,19.059,1.967,6.575,3.855,13.19,5.45,19.865,1.517,6.344,3.012,12.976,3.173,19.521.124,5.059-.441,10.826-3.035,15.281-.938,1.611-2.108,2.911-3.82,4.099-3.019,2.096-6.546,3.213-10.107,3.986-2.514.546-1.45,4.403,1.063,3.857h0Z"/><path class="i" d="m135.139,186.631c-1.305,6.228-2.61,12.456-3.915,18.685-.221,1.056.31,2.162,1.397,2.46.993.273,2.238-.335,2.46-1.397,1.305-6.228,2.61-12.456,3.915-18.685.221-1.056-.31-2.162-1.397-2.46-.993-.273-2.238.335-2.46,1.397h0Z"/><path class="h" d="m341.831,263.27c.111-.399.17-.815.17-1.24,0-2.543,0-5.085.002-7.628,0-1.355-.584-2.589-1.531-3.441-8.454,4.953-27.766,16.412-37.455,22.115-1.032.607-2.166.993-3.333,1.145.376,1.062.615,1.742.615,1.742,1.58,4.487.773,9.59-.111,12.83.656.126,1.152.221,1.152.221.82.157,1.669-.002,2.376-.445,12.038-7.547,24.078-15.092,36.121-22.632.986-.618,1.689-1.575,1.994-2.668Z"/><path class="h" d="m254.315,263.912c.116-.261.323-.489.628-.637,12.19-5.899,33.856-16.383,39.704-19.213.842-.407,1.786-.548,2.711-.408,16.442,2.497,31.896,4.845,40.734,6.187.915.139,1.731.54,2.378,1.121-8.453,4.951-27.764,16.411-37.454,22.113-1.873,1.102-4.082,1.473-6.212,1.046-9.405-1.887-27.81-5.632-41.546-8.384-.9-.18-1.258-1.119-.944-1.825Z"/><path class="g" d="m227.243,156.32c-1.131-1.05-2.253-2.108-3.367-3.176-1.924-1.843-3.985-4.48-2.85-6.89.775-1.646,2.837-2.352,4.64-2.113,1.803.239,3.411,1.216,4.959,2.171,3.151,1.943,6.452,3.662,9.453,5.83,2.988,2.159,5.886,5.702,5.994,8.922,1.273,1.88,2.172,4.664,2.241,6.118.324,6.898-3.234,11.566-8.359,14.491l-4.297,1.541c-2.711.604-6.885,1.27-9.632,1.68-2.061.308-4.835.665-6.915.525-3.553-.24-6.919-1.613-10.212-2.969-1.664-.685-3.42-1.442-4.449-2.919-1.058-1.518-1.2-3.61-2.523-4.904-1.109-1.085-2.763-1.331-4.188-1.945-2.518-1.085-3.925-3.457-4.007-6.198-.039-1.299.057-2.599.307-3.762.327-1.521.919-2.808,1.821-3.549,1.832-1.506,4.763-1.809,7.648-1.485,2.885.324,6.353.94,9.236,1.281,4.636.547,9.431-.341,13.563-2.514"/><path class="i" d="m228.657,154.906c-1.129-1.05-2.264-2.098-3.367-3.176-.89-.868-1.852-1.83-2.344-2.998-.94-2.232,1.446-2.945,3.208-2.446,1.254.355,2.361,1.078,3.463,1.752,1.317.805,2.653,1.58,3.985,2.361,2.517,1.476,5.159,2.94,7.246,5.009.861.854,1.631,1.775,2.244,2.824.302.517.569,1.044.744,1.617.198.648.162,1.369.41,1.985.437,1.087,1.149,2.024,1.532,3.155.336.992.551,1.934.557,2.979.022,4.366-2.014,8.245-5.545,10.798-.627.453-1.295.925-1.604,1.064-.611.275-1.28.459-1.911.685-1.422.51-2.733.91-4.224,1.194-2.401.458-4.817.844-7.234,1.208-2.626.395-5.368.79-8.012.351-2.94-.488-5.762-1.643-8.494-2.797-1.03-.435-2.2-.916-2.964-1.764-.799-.887-1.07-2.171-1.539-3.242-.541-1.236-1.32-2.303-2.469-3.044s-2.479-.987-3.709-1.522c-1.924-.838-2.861-2.617-2.903-4.659-.031-1.508.072-3.189.735-4.574.549-1.146,1.58-1.601,2.774-1.876,2.905-.67,6.117.127,9.008.557,3.164.471,6.315.982,9.521.661,3.36-.337,6.547-1.284,9.551-2.827,2.291-1.176.269-4.629-2.019-3.454-4.276,2.196-8.92,2.743-13.645,2.103-4.54-.615-9.718-2.157-14.227-.692-2.105.684-3.753,1.973-4.649,4.022-.973,2.225-1.255,4.896-.957,7.295.247,1.989,1.07,3.903,2.521,5.318.692.675,1.508,1.238,2.389,1.635,1.056.477,2.262.692,3.266,1.27,1.614.93,1.734,3.407,2.728,4.862,1.359,1.99,3.493,2.946,5.645,3.838,4.701,1.948,9.276,3.417,14.422,2.927,4.262-.406,8.562-1.142,12.751-2.022,1.042-.219,2.028-.634,3.029-.993,1.015-.364,2.057-.669,2.981-1.235,3.699-2.267,6.681-5.576,8.01-9.754,1.429-4.495.817-9.288-1.758-13.246l.273,1.009c-.285-4.469-3.523-8.117-6.984-10.649-1.992-1.457-4.14-2.693-6.269-3.937-1.962-1.147-3.873-2.491-5.95-3.42-1.932-.864-4.056-1.289-6.12-.617-1.993.65-3.589,2.22-3.952,4.325-.798,4.642,4.071,8.215,7.031,10.968,1.883,1.751,4.719-1.071,2.828-2.828h0Z"/><path class="i" d="m333.078,252.99c-10.061,5.909-20.082,11.885-30.135,17.807-1.278.753-2.479,1.409-3.998,1.488-1.177.061-2.313-.233-3.458-.464-2.314-.466-4.627-.933-6.94-1.4-5.539-1.12-11.077-2.241-16.615-3.361-2.961-.598-5.922-1.196-8.883-1.793-1.299-.262-2.597-.523-3.896-.784-.753-.151-1.507-.303-2.26-.454-.236-.047-.502-.13-.738-.148-.423-.14-.48-.115-.17.074.249.279.286.564.111.855.086.191-.605.248.108.068.254-.064.54-.261.776-.376.448-.217.896-.433,1.343-.65,1.048-.507,2.097-1.015,3.145-1.522,2.281-1.104,4.563-2.208,6.844-3.312,8.287-4.01,16.574-8.02,24.861-12.03.582-.282,1.165-.564,1.747-.845,1.016-.491,1.742-.58,2.888-.411,3.458.511,6.913,1.05,10.369,1.575,6.224.945,12.447,1.891,18.671,2.836,2.52.383,5.04.765,7.56,1.148,1.726.262,4.456.121,5.336,1.96.545,1.138.255,2.791.255,4.011,0,1.666.227,3.486-.015,5.132-.202,1.373-1.349,1.935-2.419,2.606-1.54.964-3.081,1.929-4.621,2.893-6.021,3.771-12.041,7.542-18.061,11.315-3.08,1.93-6.16,3.861-9.239,5.791-1.017.637-2.784,2.13-3.835,2.077.145.007-.134-.03-.173-.035-4.17-.623-8.318-1.602-12.458-2.399-11.573-2.229-23.145-4.458-34.718-6.687l-.701-.135.478,3.655,1.697-1.053c1.076-.668,1.673-1.269,1.71-2.656.094-3.537,0-7.09,0-10.628,0-2.574-4-2.578-4,0,0,3.704,0,7.407,0,11.111l.991-1.727-2.417,1.5c-1.36.844-1.291,3.315.478,3.655,11.058,2.13,22.117,4.26,33.175,6.39,4.823.929,9.642,1.891,14.472,2.787,1.056.196,2.094.304,3.155-.008,1.624-.477,3.162-1.763,4.585-2.655,1.68-1.053,3.36-2.106,5.039-3.159,6.439-4.036,12.879-8.071,19.32-12.105,1.54-.965,3.08-1.929,4.621-2.894,1.573-.985,3.386-1.86,4.768-3.112,2.658-2.407,2.167-5.938,2.167-9.181,0-3.099.261-6.249-2.393-8.42-1.972-1.613-4.653-1.66-7.071-2.027-5.991-.91-11.983-1.82-17.974-2.73-3.627-.551-7.254-1.102-10.881-1.653-1.778-.27-3.557-.54-5.335-.81-1.815-.276-3.671-.757-5.489-.249-1.535.429-3.046,1.368-4.478,2.061-1.82.881-3.64,1.761-5.46,2.642-4.694,2.271-9.387,4.543-14.081,6.814-4.753,2.3-9.505,4.6-14.258,6.899-2.155,1.043-5.196,2.204-4.204,5.232.476,1.452,1.687,2.035,3.082,2.315,1.52.305,3.041.61,4.561.916,11.47,2.308,22.934,4.641,34.403,6.949,3.06.616,5.91.921,8.835-.474,2.669-1.273,5.188-3.008,7.732-4.513,5.531-3.271,11.058-6.549,16.59-9.818,2.503-1.479,5.008-2.957,7.515-4.43,2.218-1.303.208-4.762-2.019-3.454h0Z"/><path class="i" d="m298.371,276.495c.734,2.137.898,3.813.81,6.067-.019.481-.053.961-.099,1.439-.026.266-.055.532-.09.797.052-.392-.058.363-.07.433-.144.878-.331,1.749-.55,2.611-.258,1.012.33,2.217,1.397,2.46,1.04.237,2.184-.312,2.46-1.397,1.109-4.358,1.482-9.157,0-13.474-.339-.987-1.388-1.744-2.46-1.397-.979.317-1.761,1.401-1.397,2.46h0Z"/><path class="i" d="m217.406,262.451c7.824-3.752,15.619-7.566,23.487-11.228.979-.456,1.226-1.866.718-2.736-.587-1.004-1.753-1.175-2.736-.718-7.868,3.661-15.662,7.476-23.487,11.228-2.32,1.113-.294,4.563,2.019,3.454h0Z"/><path class="i" d="m219.135,257.142l-.361-.467c-.075-.097-.151-.194-.226-.292-.168-.219.178.293.056.066-.205-.381-.105-.158-.117.595-.009.606.087.794-.334,1.124-.275.216-.017.035.053,0,.07-.036.143-.067.215-.1.166-.075.332-.149.499-.222.084-.037.167-.073.251-.109.422-.184-.286.117-.036.014.361-.149.722-.296,1.086-.437,1.481-.573,2.992-1.064,4.522-1.485,1.008-.277,1.729-1.433,1.397-2.46s-1.379-1.694-2.46-1.397c-1.885.518-3.74,1.145-5.545,1.895-1.076.447-2.438.833-3.087,1.884-.501.811-.433,1.867.063,2.662.34.545.8,1.047,1.194,1.557.29.375.966.586,1.414.586.491,0,1.076-.218,1.414-.586.35-.381.61-.882.586-1.414-.025-.567-.242-.97-.586-1.414h0Z"/><path class="i" d="m272.978,112.572c-5.266,1.323-10.418,2.955-15.42,5.081-5.502,2.339-10.599,5.289-14.647,9.744-2.557,2.815-4.801,5.917-6.675,9.225-1.271,2.243,2.184,4.261,3.454,2.019,1.898-3.35,4.161-6.45,6.816-9.24,2.358-2.478,5.09-4.353,8.108-5.952,6.105-3.235,12.748-5.343,19.427-7.021,2.495-.627,1.438-4.485-1.063-3.857h0Z"/><path class="f" d="m53.03,183.873c.13,1.923.931,3.73,1.777,5.462,2.761,5.654,6.136,11.007,10.046,15.936"/><path class="i" d="m61.11,177.043c.924-3.054,1.444-6.464,2.944-9.307.118-.223.25-.438.376-.656.054-.094.357-.496.073-.128.26-.337.549-.654.839-.966.747-.802,1.544-1.557,2.352-2.297,1.907-1.747,3.895-3.406,5.902-5.036.893-.725,1.791-1.443,2.695-2.155.365-.287.73-.574,1.096-.859.172-.134,1.001-.776.552-.43.565-.435,1.132-.932,1.773-1.246,1.361-.666,3.046.017,2.834,1.673-.137,1.073,1.017,2,2,2,1.195,0,1.862-.924,2-2,.256-2.003-.888-4.041-2.593-5.06-2.015-1.203-4.395-1.125-6.404.015-1.524.865-2.89,2.133-4.259,3.214-2.235,1.766-4.448,3.563-6.599,5.43-1.929,1.675-3.965,3.393-5.472,5.477-2.288,3.165-2.86,7.61-3.966,11.266-.747,2.469,3.113,3.525,3.857,1.063h0Z"/><path class="i" d="m92.394,174.436l5.541-3.725,3.584-2.409c.754-.507,1.589-.985,2.234-1.631,1.12-1.122,1.888-2.68,1.904-4.282.009-.841-.219-1.705-.636-2.434-.367-.641-.805-1.09-1.503-1.355-.152-.058-.307-.107-.46-.16-.989-.344-2.231.392-2.46,1.397-.254,1.116.338,2.091,1.397,2.46l.46.16-.883-.514c-.24-.3-.004-.011-.005.031l.08.151c-.077-.196-.093-.226-.048-.09,0,0,.136.442.054.133-.079-.298,0,.193.003.221.011.094-.046.392.028-.041-.019.109-.041.218-.069.325s-.074.214-.099.321c.086-.37-.015.029-.077.145s-.407.619-.168.315c-.162.206-.361.373-.536.567-.206.229.411-.269.117-.082-.67.426-1.321.888-1.98,1.331l-6.75,4.538-1.749,1.175c-.867.583-1.328,1.789-.718,2.736.557.864,1.808,1.342,2.736.718h0Z"/><path class="i" d="m81.838,162.527c2.831-1.823,5.721-3.558,8.616-5.277,1.402-.833,2.807-1.66,4.224-2.468,1.174-.67,2.47-1.52,3.885-1.394.482.043.561.12.752.556.102.233.17.966.067,1.375-.22.871-1.303,1.42-2.125,2.008-2.431,1.74-4.852,3.495-7.271,5.251-1.607,1.166-3.214,2.334-4.819,3.504-.872.635-1.302,1.737-.718,2.736.503.86,1.859,1.357,2.736.718,4.243-3.093,8.486-6.187,12.762-9.235,1.542-1.099,2.925-2.185,3.344-4.151.415-1.948-.047-4.285-1.61-5.626-3.333-2.859-7.805.084-10.871,1.874-3.7,2.16-7.388,4.356-10.991,6.677-2.157,1.389-.154,4.853,2.019,3.454h0Z"/><path class="i" d="m101.48,168.259c.057.092.109.188.154.287-.102-.246-.12-.266-.055-.062.035.18.037.18.006,0-.022-.177-.029-.179-.021-.006-.015.222-.006.169.028-.159-.017.08-.038.159-.062.237-.08.357.218-.365.014-.034-.082.133-.163.269-.245.402-.193.313.29-.339.042-.048-.11.129-.217.258-.333.381-.565.598-1.205,1.13-1.836,1.656-.782.653-1.58,1.287-2.384,1.913-.084.065-.168.13-.251.195-.279.217.415-.319,0,0-.174.134-.349.268-.524.401-.28.213-.56.426-.842.637-.433.325-.77.652-.919,1.195-.132.479-.072,1.116.202,1.541.531.824,1.842,1.39,2.736.718,1.74-1.308,3.473-2.636,5.134-4.045.646-.549,1.307-1.105,1.844-1.764.542-.665,1.031-1.359,1.252-2.203.296-1.126.088-2.264-.488-3.263-.523-.907-1.832-1.3-2.736-.718-.915.59-1.277,1.766-.718,2.736h0Z"/><path class="i" d="m101.071,174.732c.077.04.353.237.082.02-.32-.255.114.195-.145-.156-.269-.364.012.01-.005.022-.012.008-.187-.5-.112-.237.074.258-.051-.267-.03-.282-.004.003.002.186.004.21.004.082-.034.321.016-.058.052-.384.013-.113-.007-.023-.133.584-.392,1.15-.613,1.704-.063.158-.127.316-.192.474-.041.101-.084.202-.125.303-.102.249.154-.36.047-.11-.161.373-.322.746-.49,1.117-.333.735-.684,1.462-1.065,2.174-.493.922-.262,2.219.718,2.736.929.491,2.209.267,2.736-.718.925-1.728,1.701-3.544,2.408-5.37.284-.732.54-1.43.567-2.229.043-1.26-.661-2.449-1.775-3.031-.926-.484-2.216-.268-2.736.718-.487.921-.272,2.219.718,2.736h0Z"/><path class="i" d="m99.495,179.319c-.036,1.53.099,3.087-.359,4.568-.353,1.141-1.055,2.15-1.88,3-1.791,1.847-4.163,3.084-6.56,3.955-5.533,2.01-11.369,3.237-17.089,4.581-2.505.589-1.444,4.447,1.063,3.857,6.288-1.478,12.86-2.729,18.827-5.27,2.732-1.163,5.395-2.779,7.3-5.098.971-1.183,1.739-2.496,2.196-3.963.569-1.825.458-3.747.502-5.631.06-2.575-3.94-2.574-4,0h0Z"/><path class="i" d="m54.754,185.097c2-1.748,3.838-3.673,5.492-5.751.343-.431.586-.84.586-1.414,0-.491-.218-1.076-.586-1.414-.381-.35-.882-.61-1.414-.586-.495.022-1.091.18-1.414.586-1.654,2.078-3.492,4.003-5.492,5.751-.79.691-.759,2.131,0,2.828.843.773,1.985.737,2.828,0h0Z"/></g></g></svg>