<svg width="902" height="387" viewBox="0 0 902 387" fill="none" xmlns="http://www.w3.org/2000/svg">
<g clip-path="url(#clip0_1725_596)">
<path d="M189.73 124.398C194.645 123.808 199.416 127.556 199.757 133.166C200.229 142.637 200.142 152.064 200.068 161.601C200.008 176.787 199.729 191.998 199.572 207.306C199.481 214.851 197.432 218.088 192.452 218.132C187.24 218.093 183.181 213.816 183.05 207.185C182.761 196.473 182.813 185.831 182.804 173.756C176.6 175.608 170.576 177.107 164.74 179.248C163.892 179.571 163.294 181.969 163.246 183.416C163.045 190.973 163.185 198.601 163.107 206.255C163.151 211.235 162.854 216.146 156.275 216.714C151.116 217.112 146.568 212.45 146.585 206.133C146.457 190.306 146.767 174.426 146.858 158.572C146.914 152.582 147.093 146.689 146.931 140.726C146.748 133.657 149.085 130.053 154.174 129.996C159.7 129.887 164.069 134.902 163.943 141.232C163.843 147.78 163.839 154.207 163.721 161.533C169.977 160.117 175.591 158.889 181.043 157.238C182.109 156.888 183.266 154.533 183.314 153.087C183.576 146.963 183.606 140.755 183.527 134.56C183.387 129.702 183.505 125.145 189.73 124.398ZM282.723 193.225C283.085 194.4 283.448 195.575 284.309 198.131C283.265 199.586 282.085 203.605 280.447 203.802C277.28 204.182 272.658 203.518 270.635 201.434C267.717 198.35 265.938 193.689 264.977 189.373C263.692 184.209 261.207 184.729 256.921 185.022C244.938 185.796 238.564 191.768 237.455 203.756C237.228 205.556 236.442 207.312 235.874 209.042C234.489 213.196 231.951 216.049 227.207 215.289C222.449 214.42 219.422 211.349 219.378 206.369C219.308 203.94 220.234 201.502 220.723 199.117C227.187 171.751 233.42 144.303 240.103 116.911C241.121 112.468 243.353 107.99 246.031 104.456C250.054 99.2087 259.001 102.677 261.243 110.274C263.257 116.901 264.314 123.865 266.123 130.627C271.506 151.474 277.121 172.404 282.723 193.225ZM246.894 170.715C251.197 169.645 254.434 168.924 258.205 168.028C256.466 160.924 254.779 154.258 253.092 147.591L251.974 147.504C250.314 154.905 248.777 162.401 246.894 170.715ZM366.346 116.27C369.4 125.099 365.626 132.421 359.96 138.751C350.385 149.428 337.751 154.933 324.361 158.757C323.61 158.958 322.871 159.268 321.915 159.604C321.168 169.997 320.683 179.805 319.762 189.665C319.369 194.698 318.443 199.905 311.689 199.941C305.931 199.967 301.877 194.803 302.143 187.792C302.505 175.118 303.195 162.405 303.435 149.636C303.443 142.323 302.879 134.857 302.219 127.513C302.053 125.206 300.467 123.07 299.427 120.868C297.252 116.587 297.326 112.59 301.812 110.279C315.669 102.965 330.278 98.2199 346.245 100.181C355.926 101.456 363.104 106.798 366.346 116.27ZM348.719 124.479C352.223 119.516 350.195 115.549 344.001 115.628C339.129 115.659 334.28 116.795 329.366 117.385C324.219 117.892 322.131 120.802 322.311 125.987C322.451 130.845 322.045 135.769 321.905 141.99C333.11 138.429 342.385 133.549 348.719 124.479ZM454.547 105.682C457.601 114.511 453.826 121.833 448.161 128.163C438.585 138.84 425.951 144.346 412.561 148.169C411.81 148.37 411.072 148.68 410.115 149.016C409.368 159.409 408.884 169.217 407.962 179.077C407.569 184.11 406.644 189.317 399.89 189.353C394.132 189.379 390.077 184.215 390.344 177.204C390.706 164.53 391.395 151.817 391.635 139.048C391.643 131.735 391.08 124.269 390.42 116.925C390.253 114.618 388.668 112.482 387.628 110.28C385.452 105.999 385.526 102.002 390.013 99.6907C403.87 92.3769 418.478 87.6319 434.446 89.5927C444.127 90.868 451.305 96.2105 454.547 105.682ZM436.919 113.891C440.423 108.928 438.396 104.962 432.201 105.04C427.33 105.071 422.481 106.207 417.566 106.797C412.42 107.304 410.332 110.214 410.511 115.399C410.651 120.257 410.245 125.181 410.105 131.402C421.311 127.841 430.585 122.961 436.919 113.891ZM526.396 78.6655C527.912 81.1424 527.877 85.4674 526.772 88.259C523.399 97.0839 518.516 105.315 515.375 114.222C512.61 121.645 512.051 129.91 509.395 137.32C505.412 148.434 500.052 159.159 500.306 171.426C500.31 173.309 500.778 175.358 500.074 176.883C498.995 179.893 497.676 184.594 495.627 185.061C492.705 185.634 488.074 183.974 486.243 181.645C484.142 178.906 483.373 174.345 483.595 170.663C484.25 162.275 486.133 153.961 486.91 145.669C487.242 141.973 486.975 137.906 485.682 134.516C481.129 122.433 475.935 110.537 471.163 98.4798C468.616 92.0274 470.001 87.8727 474.252 86.3653C479.035 84.6832 484.3 87.9289 486.467 93.9837C488.996 101.214 491.649 108.54 494.65 116.932C500.622 103.917 505.562 92.467 511.088 81.2786C512.425 78.57 515.509 75.6516 518.117 75.2277C520.712 74.6946 525.028 76.5031 526.396 78.6655Z" fill="white"/>
<path d="M482.002 210.084L482.015 210.193C486.712 212.399 488.752 216.475 486.791 221.364C477.77 244.051 475.456 268.148 472.106 291.927C471.539 296.427 471.814 301.49 466.362 303.142C461.128 304.767 456.982 301.609 454.204 297.843C449.595 291.749 445.807 285.113 441.717 278.735C440.472 276.669 439.432 274.467 437.715 271.238C432.661 280.819 428.157 289.447 423.558 298.198C421.312 302.567 419.255 307.578 412.916 306.455C406.481 305.455 404.676 300.575 403.872 294.8C400.341 271.847 396.579 248.812 393.048 225.859C391.79 218.144 393.388 214.85 398.412 214.247C403.532 213.521 408.002 217.527 409.199 223.809C411.812 239.117 414.548 254.521 417.453 271.344C421.402 264.555 424.023 258.701 427.868 253.808C430.353 250.518 434.464 246.923 438.177 246.477C443.734 245.699 446.439 250.692 448.352 255.559C450.847 261.574 453.56 267.564 456.745 274.715C459.392 260.77 461.419 248.118 464.249 235.703C465.909 228.302 468.372 221.137 471.177 214.043C473.068 209.495 477.306 207.878 482.002 210.084ZM533.057 213.262C547.124 216.004 555.512 224.969 557.269 239.603C559.594 258.048 547.171 281.919 530.701 290.543C518.814 296.734 506.053 291.951 502.938 278.919C497.498 255.753 502.761 234.071 514.866 214.005C518.291 208.387 523.122 208.028 528.727 211.344C530.156 212.17 531.585 212.995 533.057 213.262ZM518.844 276.678C532.05 271.325 542.788 251.867 540.576 238.062C540.297 236.655 540.305 234.882 539.423 233.991C537.129 231.496 534.215 227.525 531.922 227.8C529.056 227.923 524.823 231.422 524.154 234.162C521.355 245.909 519.564 257.757 517.664 269.618C517.38 271.868 518.446 274.288 518.844 276.678ZM649.286 261.794C650.968 263.808 651.859 268.465 650.649 270.383C649.439 272.301 644.918 273.398 642.314 272.935C634.695 271.301 627.369 268.414 619.833 266.549C612.2 264.806 604.538 263.732 596.277 262.286C596.347 267.485 596.216 271.932 596.522 276.327C596.662 281.185 595.919 285.152 590.266 286.052C585.692 286.712 580.852 283.304 580.004 278.088C579.038 271.889 578.265 265.445 578.269 259.019C578.194 243.628 578.556 228.185 578.808 212.755C579.013 204.31 580.63 203.008 588.939 203.008C590.494 203.043 592.355 201.933 593.535 200.684C599.004 195.485 604.958 191.557 612.953 194.475C621.302 197.572 624.596 204.71 625.675 212.779C627.336 224.767 623.531 235.527 616.73 245.317C615.987 246.514 615.245 247.711 614.214 249.275C623.37 251.721 631.806 253.7 639.98 256.264C643.331 257.413 647.088 259.178 649.286 261.794ZM595.983 241.382C605.926 233.763 611.451 219.804 607.917 211.587C598.861 219.211 595.851 229.211 595.983 241.382ZM707.991 217.965C714.339 228.393 721.181 238.318 731.255 245.639C734.763 248.099 737.419 251.768 734.519 256.216C731.439 261.017 726.38 260.406 723.147 257.47C715.336 250.542 708.306 242.744 700.988 235.313C699.848 234.121 699.022 232.779 696.895 229.822C693.483 241.089 690.365 251.102 687.259 261.224C686.8 262.941 686.696 264.837 686.25 266.663C684.647 273.614 677.609 275.899 672.777 270.718C670.239 268.031 668.185 263.846 668.107 260.421C667.735 241.632 667.812 222.899 668.122 204.249C668.217 195.818 669.091 187.404 669.623 178.92C669.999 171.895 672.677 168.36 677.465 168.561C683.249 168.753 687.535 174 687.011 180.71C686.325 189.766 685.408 198.739 684.6 207.7C684.469 209.377 684.775 211.002 684.832 213.322C692.053 201.487 698.601 190.508 705.285 179.735C707.539 176.362 710.134 173.059 712.999 170.167C716.949 166.148 721.916 165.995 725.747 169.302C729.727 172.923 729.518 176.715 725.918 181.8C719.68 190.748 713.918 199.97 707.693 209.027C705.535 212.277 705.946 214.776 707.991 217.965Z" fill="white"/>
</g>
<defs>
<clipPath id="clip0_1725_596">
<rect width="902" height="387" fill="white"/>
</clipPath>
</defs>
</svg>
