<svg width="174" height="136" viewBox="0 0 174 136" fill="none" xmlns="http://www.w3.org/2000/svg">
<g clip-path="url(#clip0_1790_632)">
<path d="M115.945 84.6103C114.639 75.878 113.745 70.4466 111.546 62.4716C110.764 59.8276 109.531 57.3386 107.901 55.1147C107.097 54.0848 106.157 53.1674 105.108 52.3871C103.645 51.3 102.049 50.4048 100.358 49.7236C100.281 49.6906 100.197 49.6741 100.112 49.6748C100.027 49.6756 99.9438 49.6936 99.8668 49.7279C94.7253 51.9976 89.3146 53.5312 83.0959 52.9505C81.0174 52.7565 78.2384 51.8677 76.663 50.0605C76.5799 49.9653 76.4694 49.8981 76.3467 49.8679C76.2239 49.8378 76.0948 49.8463 75.9771 49.8922C74.8286 50.3377 73.7309 50.7999 72.6066 51.2993C71.6356 51.7476 70.7293 52.3242 69.9118 53.0136C68.7102 54.049 67.8173 55.3956 67.3314 56.9055C66.4241 59.4934 65.7256 62.1502 65.2427 64.8499C64.6332 68.1943 64.098 71.1122 63.2812 74.401C63.2812 74.401 63.245 74.5905 63.1865 74.8958C64.808 74.9473 66.1625 74.9888 67.1337 75.0196C67.562 75.0324 67.9727 75.1931 68.2959 75.4743C68.6192 75.7555 68.8351 76.1398 68.9069 76.5623C69.3803 79.3336 69.8617 82.141 70.361 85.0421C70.3839 85.1734 70.4062 85.3026 70.429 85.4345C72.2854 82.619 73.4726 79.7868 74.8568 77.0752C75.4137 78.2054 76.0588 79.2954 76.586 80.4397C76.9064 81.1514 77.1706 81.8872 77.3762 82.6398C77.4164 82.7824 77.464 82.9217 77.5172 83.0596C77.8622 83.9535 77.8137 85.4747 78.4955 87.087C79.4425 86.473 80.4207 85.9092 81.4264 85.3977C82.6856 84.7576 84.0964 84.1885 85.4732 84.4851C87.2303 84.8661 88.0827 85.6421 89.8275 86.0692C91.103 86.3833 91.796 86.0692 92.8981 86.0632C94.4454 89.0407 95.113 93.9893 95.1431 94.8323C96.7011 94.8095 103.96 94.6944 106.312 94.4554C108.166 94.2665 110.067 94.225 111.804 93.5515C112.28 93.368 112.736 93.1377 113.165 92.8638C114.34 92.1648 115.217 91.0567 115.628 89.7524C116.005 88.0658 116.112 86.3304 115.945 84.6103Z" fill="#CDEEFF"/>
<path d="M78.4039 49.3331C79.0573 49.0772 79.7652 48.7963 80.6287 48.4139C80.8157 48.3289 80.9897 48.2175 81.1451 48.0832C83.4356 48.6972 85.8531 48.6488 88.1175 47.9436C90.0867 47.2987 91.8824 46.2118 93.3668 44.7661C93.8207 44.3546 94.2513 43.9182 94.657 43.459C94.9858 44.5757 95.4123 45.6611 95.9325 46.7027C96.2298 47.3047 98.5618 49.0971 99.771 49.7718C94.6584 52.0171 89.2765 53.5281 83.0968 52.9509C81.0183 52.7568 78.2393 51.8679 76.6639 50.0608C76.6583 50.0543 76.6524 50.0481 76.6469 50.0419L76.6707 50.0326C77.2551 49.7808 77.8068 49.5673 78.4039 49.3331Z" fill="white"/>
<path d="M76.6812 26.7754C77.5673 25.979 78.4429 25.1724 79.2885 24.3829C79.2228 25.3453 79.1201 26.2717 78.9636 27.2385C78.954 27.2943 78.959 27.3517 78.9782 27.405C78.9973 27.4583 79.0299 27.5058 79.0727 27.5428C79.1156 27.5798 79.1673 27.6052 79.2228 27.6164C79.2783 27.6276 79.3357 27.6242 79.3896 27.6067C83.0008 26.3781 86.3244 24.2693 88.4824 21.6045C89.0107 23.0612 89.6226 24.4862 90.3156 25.8723C91.182 27.5798 93.3627 30.5339 95.279 31.0415C95.7812 31.2306 96.4346 31.4175 96.9361 31.6065C97.7804 30.782 99.232 30.7798 100.194 31.4623C100.662 31.8253 101.033 32.2969 101.277 32.8361C101.521 33.3753 101.628 33.9657 101.592 34.5563C101.504 35.7412 101.067 36.8734 100.335 37.8095C99.3954 39.0462 98.1407 40.0073 96.7018 40.5922C95.82 42.1525 94.6945 43.5619 93.3681 44.7668C91.883 46.2123 90.088 47.2989 88.1182 47.9437C85.8544 48.6488 83.4368 48.6972 81.1463 48.0832C79.9128 47.7613 78.7363 47.2509 77.6586 46.5699C76.4177 45.7406 75.3431 44.6862 74.4901 43.4615C73.4202 42.0058 72.6008 40.3818 72.0657 38.6563C71.557 37.0928 71.2214 35.4782 71.0648 33.8416C70.9571 32.9134 70.9141 32.1272 70.8968 31.5595C71.2331 31.312 71.6613 30.9716 72.0471 30.7006C73.5576 29.5209 75.1358 28.1639 76.6812 26.7754Z" fill="white"/>
<path d="M75.3582 93.6931C75.3567 93.6576 75.3564 93.6214 75.3582 93.5873C75.3669 93.2324 75.5016 92.8923 75.7382 92.6285L76.0123 92.2803L75.6559 92.3553C75.3963 92.4176 75.124 92.4015 74.8738 92.3085C74.6236 92.2154 74.4069 92.0493 74.2513 91.8324C73.9913 91.4488 74.1553 90.802 74.2698 90.5703C74.4569 90.257 74.6893 89.9737 74.9598 89.7287C75.2723 89.4193 76.6274 88.3829 76.9801 88.1258C78.3871 87.0994 79.8738 86.1868 81.426 85.3974C82.6853 84.7566 84.0961 84.1875 85.4729 84.4841C87.2304 84.8651 88.082 85.6411 89.8269 86.0682C91.0562 86.3709 91.7451 86.0917 92.7782 86.0642C93.7926 88.0186 94.4294 90.8214 94.7561 92.7557L94.5412 92.8193C94.0999 93.0048 92.9838 93.6971 91.6989 94.2301C91.1251 94.4657 90.5112 94.5863 89.8911 94.5836C89.2711 94.5809 88.6578 94.455 88.086 94.214C87.0784 95.3348 85.9763 96.3666 84.7916 97.2993C84.5713 97.476 83.8408 98.013 83.2447 97.5082C82.8532 97.1761 82.9448 96.4162 83.1379 96.1209C84.0661 94.6954 84.4627 93.6382 85.4911 92.3245C83.7861 93.3838 82.146 94.6244 80.4481 95.6997C79.8958 96.0492 79.4351 96.3532 78.7913 96.2401C78.5022 96.1945 78.2404 96.0432 78.0565 95.8149C77.8726 95.5872 77.7795 95.3 77.7953 95.0074C77.8294 94.6954 77.9431 94.3968 78.1255 94.141L77.614 94.3787C77.302 94.5387 76.9671 94.6499 76.6212 94.7075C76.4438 94.7342 76.2628 94.7222 76.0907 94.6713C75.9187 94.6204 75.7598 94.5327 75.6252 94.4142C75.46 94.2093 75.3662 93.9562 75.3582 93.6931Z" fill="white"/>
<path d="M28.0181 75.295C29.509 84.0233 31.0829 93.1211 33.0899 104.641C33.1378 104.919 33.276 105.173 33.4829 105.365C33.6899 105.555 33.9542 105.673 34.2347 105.699C41.1586 106.315 64.5746 107.329 72.7166 107.593C72.9063 107.599 73.095 107.562 73.269 107.486C73.4428 107.41 73.5976 107.296 73.7219 107.152C73.8462 107.009 73.937 106.84 73.9876 106.657C74.0382 106.473 74.0474 106.282 74.0144 106.094C72.0102 94.6216 70.4177 85.4119 68.9079 76.5632C68.8363 76.1413 68.6206 75.757 68.2977 75.4758C67.9747 75.1946 67.5644 75.0339 67.1363 75.0205C60.4588 74.819 35.7798 74.0155 29.315 73.8073C29.1262 73.8013 28.9384 73.8374 28.7651 73.9124C28.5919 73.9881 28.4376 74.1012 28.3134 74.2432C28.1893 74.3858 28.0983 74.5538 28.0473 74.736C27.9962 74.9174 27.9862 75.1089 28.0181 75.295Z" fill="white"/>
<path d="M68.6922 48.7104C68.8303 50.1632 69.4856 51.5181 70.5386 52.5285C71.1802 52.0428 71.8742 51.6305 72.6075 51.2994C73.7318 50.8 74.8296 50.3378 75.9781 49.8923C76.0958 49.8463 76.2248 49.8379 76.3476 49.868C76.4704 49.8981 76.5808 49.9654 76.6639 50.0606C76.6658 50.0522 76.6525 50.0479 76.6469 50.0417L76.6708 50.0324C77.2552 49.7806 77.8069 49.5683 78.4034 49.3328C79.0568 49.077 79.7647 48.7961 80.6282 48.4137C80.8152 48.3287 80.9892 48.2172 81.1446 48.0829C79.911 47.7611 78.7345 47.2507 77.6568 46.5697C76.4159 45.7403 75.3413 44.686 74.4883 43.4612C73.4184 42.0056 72.599 40.3815 72.0639 38.6561C71.5553 37.0925 71.2196 35.478 71.063 33.8413C70.9554 32.9131 70.9124 32.1269 70.895 31.5592C71.2313 31.3117 71.6596 30.9714 72.0454 30.7003C73.5558 29.5207 75.134 28.1633 76.6794 26.7751C77.5656 25.9787 78.4411 25.1721 79.2867 24.3826C79.2211 25.3451 79.1184 26.2714 78.9618 27.2383C78.9523 27.2941 78.9573 27.3514 78.9764 27.4047C78.9955 27.458 79.0281 27.5055 79.071 27.5425C79.1138 27.5796 79.1655 27.6049 79.221 27.6161C79.2765 27.6273 79.334 27.6239 79.3879 27.6064C82.9991 26.3778 86.3224 24.269 88.4804 21.6042C89.0086 23.0609 89.6213 24.4858 90.3143 25.872C91.1807 27.5795 93.3614 30.5336 95.277 31.0413C95.7791 31.2303 96.4326 31.4172 96.9348 31.6062C97.7784 30.7817 99.23 30.7795 100.193 31.4621C100.66 31.825 101.031 32.2966 101.275 32.8358C101.519 33.375 101.627 33.9655 101.59 34.556C101.502 35.7409 101.065 36.8732 100.333 37.8092C99.394 39.0459 98.1393 40.0071 96.7004 40.5919C96.1199 41.6157 95.4343 42.5761 94.655 43.4575L94.657 43.4593C94.985 44.576 95.4122 45.6615 95.9318 46.7031C96.2291 47.3048 98.5598 49.0956 99.7683 49.7709C99.8011 49.7567 99.8339 49.7431 99.8667 49.7285C99.9437 49.6943 100.027 49.6763 100.112 49.6755C100.196 49.6747 100.281 49.6913 100.358 49.7243C101.54 50.2172 102.682 50.7993 103.776 51.4655C104.645 50.4495 104.673 49.3397 104.69 48.5795C104.73 47.1186 104.514 45.662 104.051 44.2755C103.477 42.3721 102.424 38.5076 102.559 31.6746C102.803 29.7026 102.712 26.8379 102.667 25.7365C102.513 21.9186 100.899 17.6044 98.4513 15.1518C98.4279 15.1287 98.4011 15.1039 98.3736 15.0798C97.7402 14.519 97.072 13.999 96.3737 13.5226C96.3268 13.4883 96.2806 13.4561 96.2291 13.423C95.2609 12.775 94.2171 12.2472 93.121 11.8513C90.8733 10.9721 88.4777 10.5333 86.064 10.5589C82.0692 10.5089 78.1903 11.9006 75.1386 14.4789C71.1079 18.0375 68.6875 22.9909 69.3094 31.0815C70.1788 37.1543 68.2395 43.7025 68.6922 48.7104Z" fill="#7B7B7B"/>
<path d="M71.0613 52.006C70.3341 51.2944 69.8143 50.3982 69.5577 49.4136C69.3772 48.507 69.3134 47.5812 69.368 46.6585C69.4039 44.3919 69.7084 42.1376 69.941 39.8859C70.2354 37.5143 70.3291 35.1222 70.2211 32.7349C70.1434 31.5552 69.9822 30.3937 69.9593 29.2079C69.936 28.1469 69.9767 27.0855 70.0812 26.0294C70.4194 22.7038 71.6211 19.4651 73.7794 16.9179C75.9355 14.3416 78.865 12.5296 82.133 11.751C86.3198 10.7695 90.7194 11.3125 94.5419 13.2825C95.048 13.5423 95.5361 13.8362 96.0028 14.1621C96.1729 14.2601 96.3751 14.2871 96.5652 14.2372C96.7554 14.1874 96.9181 14.0647 97.0185 13.8957C97.1129 13.725 97.1384 13.5244 97.0888 13.3356C97.0393 13.1468 96.9188 12.9843 96.7527 12.8818C95.0012 11.6115 92.8097 10.8089 90.7127 10.325C88.3887 9.78869 85.9884 9.67052 83.6227 9.97603C79.819 10.4588 76.2866 12.2016 73.5891 14.9263C71.1207 17.4606 69.4722 20.6792 68.8578 24.1632C68.4804 26.3558 68.3764 28.5867 68.5485 30.8049C68.6345 32.0558 68.796 33.2828 68.796 34.5414C68.796 35.8001 68.7199 37.0509 68.6104 38.3012C68.4046 40.6767 68.0655 43.0416 67.9315 45.4234C67.8133 47.5192 67.762 49.7508 68.878 51.6112C69.1978 52.1357 69.5792 52.6201 70.0138 53.0542C70.6867 53.7349 71.7364 52.6851 71.0638 52.0041L71.0613 52.006Z" fill="#211715"/>
<path d="M97.8514 15.604C99.4978 17.12 100.532 19.3736 101.175 21.4775C101.804 23.5355 101.958 25.6063 101.98 27.7442C102.011 29.056 101.958 30.3685 101.82 31.6734L102.563 30.9309H102.56C102.364 30.934 102.177 31.0133 102.038 31.1519C101.899 31.2905 101.82 31.4775 101.817 31.6734C101.737 34.6601 101.939 37.6476 102.42 40.5963C102.574 41.4933 102.766 42.3828 102.996 43.2646C103.266 44.2939 103.62 45.3003 103.806 46.3507C103.941 47.1864 103.986 48.0343 103.941 48.8797C103.948 49.6224 103.707 50.3463 103.257 50.9371C103.123 51.079 103.048 51.2669 103.048 51.4622C103.048 51.6574 103.123 51.8453 103.257 51.9872C103.397 52.1251 103.585 52.2022 103.782 52.2022C103.978 52.2022 104.167 52.1251 104.307 51.9872C105.382 50.6794 105.516 49.0935 105.419 47.4602C105.29 46.1044 105.013 44.7668 104.592 43.4715C104.041 41.5 103.672 39.4817 103.492 37.4424C103.323 35.5244 103.259 33.5985 103.302 31.6734L102.56 32.416H102.563C102.759 32.4107 102.944 32.3307 103.082 32.1927C103.221 32.0545 103.3 31.8687 103.306 31.6734C103.543 29.503 103.567 27.3144 103.379 25.1391C103.178 22.5866 102.464 20.1009 101.279 17.831C100.678 16.6116 99.8734 15.5029 98.9019 14.5514C98.1996 13.9051 97.147 14.9536 97.8521 15.6015L97.8514 15.604Z" fill="#211715"/>
<path d="M100.451 70.8642C101.549 74.8996 102.552 78.9597 103.458 83.044C103.665 83.9767 105.098 83.5816 104.89 82.649C103.984 78.5654 102.981 74.5052 101.883 70.4698C101.632 69.5485 100.199 69.9395 100.451 70.8642Z" fill="#211715"/>
<path d="M94.9536 83.7942C98.9582 84.153 103.028 83.7172 107.031 83.4962C107.982 83.444 107.988 81.9583 107.031 82.0111C103.03 82.2321 98.9582 82.668 94.9536 82.3091C94.7567 82.3104 94.5686 82.3894 94.43 82.5287C94.2907 82.6673 94.2124 82.8554 94.2111 83.0516C94.2151 83.2478 94.2941 83.4339 94.4327 83.5725C94.5713 83.7111 94.7574 83.7901 94.9536 83.7942Z" fill="#211715"/>
<path d="M72.1256 66.0146C72.2527 66.6467 72.3236 67.2888 72.3376 67.9329C72.3951 68.648 72.4359 69.3644 72.4848 70.0808C72.5518 71.5016 72.7365 72.915 73.037 74.3057C73.4007 75.685 73.9361 77.0133 74.6308 78.2594C75.2743 79.482 75.9651 80.6811 76.4039 81.9975C76.6517 82.6684 76.8537 83.3553 77.0081 84.0537C77.1489 84.8109 77.2454 85.5702 77.4459 86.3168C77.6934 87.2394 79.1268 86.8477 78.8781 85.9224C78.698 85.2528 78.5965 84.5726 78.4808 83.8903C78.36 83.3044 78.2031 82.7266 78.0111 82.1602C77.5769 80.8037 77.0067 79.4947 76.3095 78.2527C75.6109 77.0529 75.0425 75.7814 74.6137 74.4604C74.2661 73.1213 74.0576 71.7493 73.9912 70.3667C73.933 69.5559 73.8891 68.7437 73.8238 67.9329C73.8043 67.1562 73.7156 66.3822 73.5587 65.621C73.3136 64.6983 71.8809 65.09 72.1269 66.016L72.1256 66.0146Z" fill="#211715"/>
<path d="M74.1499 76.8269C72.9098 79.2755 71.7985 81.789 70.3725 84.1398C69.875 84.9586 71.1586 85.7058 71.6546 84.889C73.0819 82.5375 74.1916 80.0254 75.4323 77.5768C75.863 76.7258 74.5824 75.9733 74.1499 76.8269Z" fill="#211715"/>
<path d="M93.9426 43.6558C94.2111 44.577 94.5479 45.4772 94.9483 46.349C95.0661 46.655 95.2127 46.949 95.3875 47.2268C95.5535 47.453 95.741 47.6625 95.9472 47.8523C96.9589 48.8032 98.0737 49.6376 99.2715 50.3398C100.097 50.825 100.845 49.5419 100.021 49.0577C98.9508 48.4334 97.9532 47.6922 97.0466 46.8477C96.8812 46.6949 96.7252 46.5321 96.5793 46.3604C96.6288 46.419 96.6549 46.4842 96.6054 46.3843C96.5806 46.3342 96.5532 46.2853 96.5284 46.2355C96.4326 46.0421 96.3429 45.8466 96.2532 45.6501C95.9017 44.8767 95.6078 44.0781 95.3748 43.261C95.1163 42.3424 93.6828 42.7329 93.9426 43.6558Z" fill="#211715"/>
<path d="M77.0445 50.6742L77.1648 50.6228C77.356 50.5408 77.085 50.6537 77.1958 50.6098C77.2747 50.5789 77.3533 50.5445 77.4321 50.5123C77.6081 50.4402 77.7847 50.3693 77.9622 50.2998C78.3186 50.1588 78.6759 50.0214 79.0323 49.879C79.4589 49.7099 79.8834 49.5358 80.3058 49.3568C80.795 49.182 81.2523 48.9284 81.6597 48.6059C81.798 48.4661 81.8755 48.2774 81.8755 48.0809C81.8755 47.8842 81.798 47.6955 81.6597 47.5558C81.5181 47.421 81.3301 47.3457 81.1346 47.3457C80.9391 47.3457 80.7511 47.421 80.6096 47.5558C80.5873 47.5753 80.5205 47.6297 80.5824 47.5833C80.5421 47.6143 80.4992 47.6412 80.4561 47.6672C80.3518 47.7277 80.2435 47.781 80.1319 47.8268C80.0277 47.8726 79.9235 47.9179 79.8191 47.9626L79.6304 48.0431L79.5877 48.061C79.2094 48.2188 78.8292 48.3725 78.4473 48.522C77.7273 48.8057 77.0064 49.0861 76.2955 49.3921C76.1254 49.4914 76.0019 49.6542 75.9519 49.8447C75.902 50.0352 75.9297 50.2378 76.029 50.4078C76.1325 50.5733 76.2953 50.6931 76.4841 50.7426C76.6728 50.7921 76.8731 50.7676 77.0445 50.6742Z" fill="#211715"/>
<path d="M97.4597 32.1303C98.1058 31.5313 99.1764 31.6006 99.848 32.125C100.652 32.7534 100.943 33.8691 100.827 34.8477C100.541 37.2526 98.4252 39.0347 96.3409 39.9442C96.1721 40.0446 96.0489 40.2075 95.9994 40.3977C95.9492 40.5878 95.9766 40.79 96.0744 40.9603C96.1775 41.1267 96.3402 41.2471 96.529 41.2967C96.7185 41.3462 96.9194 41.3212 97.0908 41.2267C99.2822 40.2704 101.161 38.561 101.994 36.282C102.78 34.1302 102.14 31.3224 99.8239 30.4416C99.2514 30.2228 98.6294 30.1666 98.0268 30.2793C97.4242 30.392 96.8651 30.6692 96.4105 31.0802C95.7081 31.7318 96.7593 32.78 97.4597 32.1303Z" fill="#211715"/>
<path d="M70.1533 31.6135C70.217 34.3972 70.7296 37.1524 71.6712 39.7728C72.6355 42.3451 74.2141 44.8613 76.3981 46.5726C80.6881 49.9341 86.9879 50.0997 91.5335 47.1543C93.9339 45.5757 95.9258 43.4519 97.3479 40.9562C97.8233 40.1255 96.5404 39.3764 96.0657 40.2069C94.9161 42.2175 93.3674 43.9718 91.5154 45.3623C89.5972 46.8182 87.2805 47.654 84.875 47.7578C82.4693 47.8616 80.0892 47.2286 78.053 45.9433C75.9182 44.5631 74.3255 42.3043 73.3441 39.9884C72.2714 37.3236 71.6934 34.4856 71.6384 31.6135C71.604 30.6606 70.1186 30.6544 70.1533 31.6135Z" fill="#211715"/>
<path d="M87.7947 21.8851C88.4804 23.7854 89.2584 25.7664 90.3939 27.4502C91.4498 29.0163 92.8298 30.7362 94.582 31.552C94.7534 31.6459 94.9542 31.6706 95.1431 31.621C95.3319 31.5715 95.4946 31.4515 95.5977 31.2857C95.6961 31.1153 95.7229 30.9131 95.6727 30.723C95.6231 30.533 95.5006 30.3701 95.3312 30.2696C93.7718 29.5432 92.5492 28.0169 91.6185 26.6138C90.5834 25.0542 89.8603 23.2433 89.2276 21.4903C89.1707 21.3032 89.0441 21.1451 88.8747 21.0486C88.7047 20.952 88.5038 20.9246 88.3143 20.9718C88.1248 21.0255 87.9648 21.1513 87.8677 21.3222C87.7706 21.4931 87.7452 21.6952 87.7954 21.8851H87.7947Z" fill="#211715"/>
<path d="M87.9515 21.0823C86.8373 22.4297 85.5204 23.596 84.0481 24.5392C83.2877 25.0313 82.4974 25.4757 81.6818 25.8695C81.2682 26.07 80.8486 26.2594 80.4223 26.4317C79.996 26.6347 79.5503 26.7939 79.0919 26.9069H79.4867C79.6216 27.3221 79.6975 27.422 79.7144 27.2067C79.7224 27.156 79.7302 27.1055 79.7376 27.0551C79.7562 26.9297 79.774 26.8042 79.7911 26.6786C79.8276 26.4134 79.8623 26.1483 79.8929 25.8825C79.9507 25.3835 79.9947 24.8828 80.03 24.3817C80.0776 23.7072 79.2027 23.4457 78.7615 23.8557C77.3692 25.1551 75.9652 26.4391 74.5268 27.6856C73.2559 28.8556 71.9055 29.9361 70.4853 30.9194C69.6857 31.437 70.4292 32.7231 71.2346 32.2016C72.7205 31.1769 74.1344 30.0516 75.4664 28.8335C76.9435 27.557 78.3843 26.2392 79.8115 24.9076L78.543 24.3817C78.4876 25.1691 78.4106 25.9552 78.2924 26.7358C78.1869 27.088 78.2057 27.4658 78.3456 27.8057C78.4394 27.9738 78.5758 28.114 78.7412 28.2123C78.9066 28.3106 79.0951 28.3634 79.2874 28.3654C79.6055 28.3298 79.9153 28.2404 80.2036 28.1012C80.5318 27.9792 80.857 27.849 81.1796 27.7132C81.8015 27.452 82.4142 27.1705 83.0125 26.859C85.3068 25.7029 87.3435 24.0948 89.0007 22.1315C89.1346 21.9895 89.2096 21.8016 89.2096 21.6064C89.2096 21.4112 89.1346 21.2233 89.0007 21.0814C88.8607 20.9435 88.6719 20.8662 88.4757 20.8662C88.2789 20.8662 88.0901 20.9435 87.9501 21.0814L87.9515 21.0823Z" fill="#211715"/>
<path d="M75.4579 91.6394C75.2988 91.6621 75.1366 91.6327 74.9959 91.555C74.7899 91.4138 74.8465 91.1807 74.9093 90.9672C74.9548 90.8125 74.9276 90.9082 74.9093 90.9444C74.9416 90.8774 74.9795 90.8132 75.0226 90.7529C75.1187 90.6264 75.2246 90.5078 75.3394 90.398C75.4918 90.2427 75.6524 90.0961 75.8205 89.9581C76.7544 89.1848 77.7318 88.4657 78.7476 87.8035C80.1492 86.8889 81.6711 85.9234 83.2722 85.4032C84.0437 85.126 84.8811 85.0892 85.6743 85.2974C86.366 85.5076 87.0402 85.7715 87.691 86.0861C88.5085 86.4805 89.3789 86.7543 90.2748 86.901C91.1117 87.0108 91.9172 86.8407 92.7521 86.8079C93.7042 86.7704 93.7096 85.2847 92.7521 85.3229C91.9614 85.3537 91.1646 85.5505 90.3732 85.4253C89.5229 85.2505 88.6993 84.964 87.9247 84.5716C87.1266 84.1746 86.2776 83.8887 85.4017 83.722C84.4128 83.5974 83.4085 83.7313 82.4867 84.1103C80.6042 84.8809 78.8219 85.8766 77.1787 87.0751C76.1467 87.7413 75.1792 88.5019 74.289 89.3482C73.6467 90.0084 73.148 90.9002 73.4469 91.8516C73.7668 92.87 74.8898 93.2436 75.8518 93.0716C76.0407 93.018 76.2009 92.8921 76.2979 92.7214C76.3949 92.55 76.4209 92.3478 76.3703 92.1583C76.3142 91.9708 76.1879 91.8121 76.0177 91.7157C75.8475 91.6186 75.6467 91.5918 75.4569 91.6394H75.4579Z" fill="#211715"/>
<path d="M80.7403 87.839C79.3686 88.682 78.0529 89.6133 76.8014 90.6263C75.7185 91.486 74.2263 92.6323 74.7015 94.2238C74.7868 94.5251 74.955 94.7956 75.1869 95.0059C75.4188 95.2161 75.7051 95.3567 76.013 95.4116C76.7191 95.5435 77.3552 95.3098 77.9895 95.0186C78.1583 94.9181 78.281 94.7554 78.3308 94.5653C78.3806 94.3751 78.3537 94.1729 78.2558 94.0029C78.1533 93.8361 77.9905 93.7156 77.8012 93.6661C77.612 93.6159 77.4109 93.6413 77.2398 93.7364C77.061 93.8214 76.8745 93.8897 76.6829 93.9399C76.5667 93.9774 76.443 93.9855 76.323 93.9627C76.2903 93.9553 76.135 93.8917 76.1857 93.9172C76.2275 93.9386 76.1588 93.8877 76.1455 93.8609C76.0964 93.7451 76.0831 93.6179 76.1074 93.4947C76.0985 93.563 76.1362 93.3902 76.1449 93.3655C76.1272 93.4157 76.2108 93.2416 76.2377 93.2028C76.2789 93.1385 76.3652 92.953 76.4394 92.9135C76.3955 92.9369 76.3175 93.0555 76.4085 92.959C76.4394 92.9249 76.4703 92.8894 76.5013 92.8553C76.5724 92.7796 76.6467 92.7073 76.7222 92.6356C77.6638 91.7773 78.6692 90.9912 79.7298 90.2842C80.3049 89.8798 80.8875 89.4841 81.4902 89.1218C82.3085 88.6304 81.5626 87.3455 80.7406 87.8397L80.7403 87.839Z" fill="#211715"/>
<path d="M83.1671 89.3735C82.0453 90.0792 80.9659 90.8465 79.8857 91.6138C78.9019 92.3128 77.8326 92.9663 77.2986 94.1019C76.7915 95.1805 77.1749 96.466 78.3505 96.8885C79.6126 97.3425 80.7793 96.385 81.7638 95.7262C83.0546 94.8631 84.3125 93.9512 85.6231 93.1183C86.4276 92.6068 85.6851 91.3205 84.8738 91.8354C83.6424 92.6188 82.4574 93.4705 81.2483 94.2867C80.6806 94.7232 80.0739 95.1062 79.4359 95.4316C79.1525 95.5528 78.7373 95.5695 78.5904 95.295C78.4248 94.985 78.6559 94.6402 78.8979 94.3175C79.3316 93.8213 79.8403 93.3962 80.4055 93.058C81.5624 92.2372 82.7149 91.4103 83.9159 90.655C84.7228 90.1468 83.9778 88.86 83.1665 89.3722L83.1671 89.3735Z" fill="#211715"/>
<path d="M84.6299 92.2423C84.1124 92.9875 83.6384 93.7621 83.2101 94.5622C82.7875 95.3068 82.1631 96.0138 82.2352 96.9231C82.2445 97.1755 82.3126 97.4226 82.4343 97.6442C82.5559 97.8658 82.7277 98.056 82.936 98.1999C83.1497 98.3345 83.3913 98.4195 83.6425 98.4483C83.8938 98.4764 84.1483 98.4477 84.3867 98.3633C84.7548 98.2254 85.0949 98.0218 85.3903 97.762C85.7747 97.4527 86.1517 97.1353 86.5226 96.8093C87.3107 96.1143 88.0546 95.3697 88.7502 94.5817C88.8855 94.4404 88.9605 94.2523 88.9605 94.0567C88.9605 93.8612 88.8855 93.6731 88.7502 93.5318C88.6096 93.3946 88.4215 93.3169 88.2253 93.3169C88.0284 93.3169 87.8403 93.3946 87.6997 93.5318C87.1701 94.1324 86.6137 94.7075 86.0292 95.2559C85.7259 95.5391 85.4159 95.8157 85.0992 96.0855C84.9464 96.2154 84.7925 96.3446 84.6376 96.4718C84.552 96.5428 84.466 96.6131 84.3796 96.6827C84.345 96.7162 84.3073 96.747 84.267 96.7731C84.314 96.7497 84.4139 96.6687 84.3069 96.7423C84.2065 96.8113 84.1025 96.8742 83.9953 96.9318C83.8849 96.9907 84.0572 96.9298 83.9303 96.9539C83.8864 96.9619 83.844 96.978 83.7998 96.9847C83.9037 96.9673 83.8267 96.9981 83.7939 96.976C83.8013 96.9807 83.9572 97.0356 83.784 96.974C83.78 96.974 83.6788 96.9271 83.7348 96.9566C83.8196 97.0014 83.6878 96.8702 83.7704 97.0021C83.7246 96.9291 83.7299 96.8622 83.7435 96.9666C83.7339 96.9378 83.7261 96.9084 83.72 96.8782C83.7088 96.824 83.7096 96.8387 83.7222 96.9238L83.7178 96.8622C83.7178 96.8006 83.7178 96.7383 83.7203 96.6767C83.7228 96.5361 83.7243 96.6666 83.7169 96.6954C83.724 96.668 83.7271 96.6392 83.7358 96.6124C83.7444 96.585 83.7522 96.5589 83.7577 96.5327C83.7843 96.4089 83.7537 96.5448 83.7379 96.5702C83.788 96.4899 83.8366 96.4082 83.8877 96.3279C84.1074 95.983 84.314 95.6302 84.5154 95.276C84.937 94.4879 85.4039 93.7246 85.914 92.9908C86.0118 92.8207 86.0385 92.6185 85.989 92.4284C85.9388 92.2382 85.8162 92.0755 85.6475 91.9751C85.4764 91.88 85.2754 91.8553 85.0861 91.9048C84.8969 91.9544 84.7341 92.0749 84.6317 92.2416L84.6299 92.2423Z" fill="#211715"/>
<path d="M88.3271 95.0923C89.6206 95.4645 91.0039 95.3628 92.2285 94.8064C93.1505 94.4093 93.9982 93.8596 94.9161 93.4613C95.0855 93.3615 95.208 93.1981 95.2576 93.008C95.3078 92.8178 95.2804 92.6156 95.1826 92.4455C95.0795 92.2788 94.9168 92.159 94.728 92.1088C94.5385 92.0592 94.3376 92.0847 94.1662 92.1791C93.3514 92.5326 92.5948 93.0207 91.784 93.3889C90.8325 93.8576 89.7405 93.9547 88.7214 93.6608C87.8035 93.3869 87.4118 94.8198 88.3271 95.0923Z" fill="#211715"/>
<path d="M63.9985 74.5998C64.5663 72.3052 65.0422 69.9899 65.4781 67.6672C65.9128 65.3499 66.3113 63.0299 66.9205 60.7495C67.2235 59.6152 67.5671 58.4923 67.9514 57.3809C68.2597 56.4384 68.7082 55.5475 69.2818 54.7384C70.5623 52.9969 72.6151 52.0718 74.5482 51.2646C75.0432 51.0585 75.5463 50.8739 76.0379 50.6628C76.1413 50.6186 76.2576 50.613 76.1212 50.5675C76.1651 50.5821 76.2557 50.7166 76.2876 50.7507C76.4664 50.9402 76.6567 51.1186 76.8572 51.285C77.5841 51.8823 78.3949 52.3693 79.2637 52.7305C81.0795 53.5021 82.9931 53.7515 84.9531 53.8069C89.3059 53.9278 93.6024 52.9953 97.6526 51.4425C98.0991 51.2713 98.5437 51.0935 98.985 50.9091C99.2454 50.8006 99.5045 50.6907 99.7636 50.5793C100.082 50.4419 100.06 50.3965 100.366 50.5313C101.378 50.968 102.358 51.4726 103.302 52.0418C105.077 53.1049 106.607 54.5299 107.794 56.2242C108.945 57.9165 109.863 59.7552 110.526 61.6902C111.194 63.6399 111.647 65.6847 112.126 67.688C113.05 71.558 113.771 75.4695 114.4 79.3978C114.572 80.4751 114.74 81.553 114.903 82.6324C115.083 83.5804 115.208 84.5386 115.278 85.5014C115.305 86.3852 115.266 87.269 115.164 88.1468C115.116 88.8994 114.926 89.6365 114.604 90.3188C113.713 91.9833 111.919 92.8839 110.139 93.2642C109.011 93.4677 107.872 93.6036 106.728 93.6726C106.142 93.7268 105.557 93.7784 104.969 93.8118C102.11 93.9739 99.2447 94.0201 96.3817 94.0696C95.9693 94.077 95.5569 94.0837 95.1444 94.0897L95.8869 94.8322C95.8126 93.7549 95.658 92.6843 95.4229 91.6305C95.1304 90.0041 94.6791 88.4106 94.0758 86.872C93.7658 86.0484 93.346 85.2697 92.8278 84.558C92.724 84.3926 92.5613 84.2734 92.3725 84.2239C92.1837 84.1743 91.9835 84.1984 91.8121 84.2915C91.6427 84.3919 91.5201 84.5546 91.4699 84.7448C91.4204 84.9349 91.4472 85.1371 91.5456 85.3079C92.73 86.8425 93.2677 88.8418 93.7062 90.7025C93.9158 91.5923 94.0912 92.4888 94.2325 93.392C94.2606 93.5728 94.2867 93.7536 94.3122 93.9337C94.2854 93.7429 94.3202 93.9986 94.3242 94.0335C94.3329 94.1038 94.3416 94.1747 94.3497 94.245C94.3724 94.4406 94.3938 94.6367 94.4019 94.8329C94.4046 95.0291 94.4842 95.2159 94.6228 95.3545C94.7614 95.4931 94.9482 95.5728 95.1444 95.5754C97.8554 95.5353 100.568 95.483 103.277 95.3766C104.713 95.3203 106.137 95.2099 107.568 95.0853C109.777 94.8925 112.05 94.6059 113.893 93.2635C114.715 92.6917 115.396 91.9411 115.888 91.0694C116.287 90.2545 116.533 89.3734 116.612 88.4702C116.733 87.5542 116.786 86.6302 116.77 85.7063C116.713 84.6852 116.59 83.6688 116.401 82.6638C115.768 78.4838 115.102 74.3072 114.213 70.1734C113.769 68.1085 113.276 66.0556 112.734 64.0142C112.219 61.9265 111.483 59.9005 110.539 57.9697C109.609 56.0402 108.338 54.2946 106.787 52.8171C105.068 51.2977 103.109 50.0736 100.99 49.1944C100.733 49.0249 100.431 48.9346 100.123 48.9346C99.8145 48.9346 99.5132 49.0249 99.2555 49.1944C98.7553 49.4127 98.2525 49.6221 97.7456 49.8225C96.7346 50.2229 95.7095 50.5898 94.671 50.9115C92.5867 51.5725 90.4388 52.0115 88.2628 52.2213C86.1711 52.4069 83.937 52.4662 81.8743 52.013C80.9758 51.8243 80.1051 51.5216 79.2834 51.1121C78.8747 50.9067 78.4838 50.6678 78.1146 50.3977C77.7415 50.1192 77.4559 49.7678 77.1118 49.4624C76.6344 49.0388 76.0661 49.0667 75.5076 49.286C74.9049 49.523 74.3057 49.7682 73.7098 50.0215C72.6225 50.4364 71.5795 50.9595 70.5967 51.5826C69.668 52.183 68.842 52.9289 68.1503 53.7917C67.5153 54.6455 67.0129 55.5904 66.6599 56.5942C64.976 61.182 64.3593 66.0215 63.3538 70.778C63.1113 71.9256 62.8493 73.0678 62.5679 74.2061C62.3384 75.1347 63.7702 75.5298 64.0002 74.6011L63.9985 74.5998Z" fill="#211715"/>
<path d="M92.4542 95.5096C87.0563 98.8198 81.5775 102.009 76.0786 105.149C75.1929 105.655 74.308 106.165 73.4092 106.648C72.567 107.1 73.3164 108.383 74.1589 107.93C76.1557 106.857 78.1104 105.7 80.0717 104.565C83.0103 102.863 85.9395 101.144 88.858 99.4097C90.311 98.5453 91.7592 97.6722 93.2028 96.7918C94.0163 96.293 93.271 95.0081 92.4535 95.5096H92.4542Z" fill="#211715"/>
<path d="M27.3019 75.4917C28.3183 81.442 29.3426 87.3903 30.3748 93.3379C30.9694 96.7687 31.5655 100.199 32.163 103.63C32.305 104.444 32.3412 105.331 32.9984 105.923C33.4625 106.342 34.0179 106.424 34.6156 106.474C35.3027 106.531 35.9902 106.582 36.678 106.628C40.8548 106.918 45.0405 107.129 49.2236 107.335C54.069 107.575 58.9154 107.794 63.7628 107.993C65.779 108.075 67.7955 108.155 69.8123 108.231C70.6136 108.261 71.415 108.289 72.2163 108.316C72.7453 108.383 73.2824 108.296 73.7632 108.065C74.072 107.885 74.3279 107.627 74.5056 107.317C74.6833 107.007 74.7765 106.656 74.7759 106.298C74.7421 105.856 74.6737 105.417 74.5714 104.985L74.3239 103.565C74.1667 102.665 74.0097 101.764 73.853 100.864C73.5607 99.1857 73.2687 97.5072 72.9771 95.8286C72.4284 92.6703 71.8819 89.5114 71.3373 86.3525C70.8275 83.3951 70.3196 80.4377 69.8139 77.4802C69.6975 76.7993 69.6502 76.0695 69.2663 75.4729C69.0738 75.1723 68.8214 74.9145 68.5247 74.7157C68.2279 74.5175 67.8934 74.3822 67.542 74.3193C66.8584 74.2423 66.1705 74.2102 65.4827 74.2236C61.6386 74.1044 57.7945 73.9818 53.9504 73.8573C49.2831 73.7073 44.616 73.5567 39.9489 73.4054L29.6304 73.0733C29.1174 73.0177 28.6003 73.1322 28.1589 73.3993C27.8527 73.6049 27.6085 73.8895 27.4527 74.2236C27.297 74.5577 27.2356 74.9279 27.2753 75.2942C27.2814 75.489 27.3616 75.6745 27.4995 75.8124C27.6375 75.9503 27.8228 76.0307 28.0178 76.0367C28.2144 76.0354 28.4027 75.957 28.5417 75.8178C28.6807 75.6792 28.7593 75.491 28.7604 75.2942C28.701 74.8302 28.9184 74.5403 29.3952 74.5516C29.6607 74.557 29.9258 74.5684 30.191 74.5771L32.2057 74.642L37.5366 74.8148C41.9676 74.9594 46.3987 75.1027 50.8296 75.2446C54.9421 75.3765 59.0544 75.5084 63.1669 75.6383L65.3967 75.7086C65.987 75.7267 66.6002 75.6992 67.1875 75.7649C67.4068 75.7883 67.6144 75.8753 67.7844 76.0159C67.9544 76.1565 68.0792 76.344 68.1432 76.5549C68.3104 77.2432 68.4338 77.9409 68.5122 78.6446C68.7507 80.0393 68.9898 81.4333 69.2295 82.8273C70.2935 89.0213 71.3655 95.214 72.4452 101.405C72.5937 102.258 72.7424 103.11 72.8911 103.963L73.1129 105.231C73.1748 105.583 73.3499 106.045 73.2881 106.4C73.2166 106.811 72.8493 106.853 72.4975 106.842L71.4626 106.807C69.6826 106.745 67.9029 106.677 66.1235 106.605C61.5333 106.422 56.944 106.221 52.3555 106.004C47.9708 105.796 43.5861 105.578 39.2045 105.309C37.6904 105.216 36.1758 105.119 34.6642 104.992C34.3532 104.967 34.0188 104.976 33.8597 104.651C33.7348 104.265 33.6591 103.865 33.6342 103.459C33.5562 103.012 33.4783 102.564 33.4006 102.116C33.1048 100.418 32.8095 98.7204 32.5145 97.0224C31.4775 91.052 30.4462 85.081 29.4206 79.1086C29.1914 77.7708 28.9626 76.4331 28.734 75.096C28.6803 74.9065 28.5543 74.7465 28.3835 74.6494C28.2125 74.5523 28.0103 74.5269 27.8204 74.5771C27.6328 74.6333 27.4741 74.7599 27.3775 74.9299C27.2809 75.1007 27.2537 75.3015 27.3019 75.4917Z" fill="#211715"/>
<path d="M118.064 93.1804C119.319 93.1804 120.574 93.1737 121.829 93.1703L130.124 93.1449L140.128 93.1141L149.015 93.0867C150.666 93.0826 152.314 93.0779 153.962 93.0739H154.161C155.117 93.0739 155.118 91.5889 154.161 91.5889C152.74 91.5889 151.318 91.5956 149.897 91.5996L141.343 91.625L131.325 91.6558L122.665 91.6833C121.174 91.6873 119.679 91.6612 118.188 91.696C118.147 91.696 118.105 91.696 118.064 91.696C117.108 91.696 117.107 93.1811 118.064 93.1811L118.064 93.1804Z" fill="#211715"/>
<path d="M19.8127 93.1797C22.514 93.1764 25.2144 93.0753 27.9157 93.0739C28.8714 93.0739 28.8729 91.5889 27.9157 91.5889C25.2144 91.5889 22.514 91.6913 19.8127 91.6947C18.8573 91.6947 18.8558 93.1797 19.8127 93.1797Z" fill="#211715"/>
<path d="M81.6022 36.7392C81.4992 36.9936 81.4103 37.2534 81.3361 37.5176C81.2065 37.9582 81.0505 38.5123 81.4193 38.8851C81.5006 38.963 81.5923 39.0293 81.6916 39.0822C81.7924 39.1375 81.9 39.179 82.0118 39.206C82.1629 39.2319 82.3162 39.2422 82.4694 39.2369C82.6661 39.2351 82.8544 39.1575 82.9954 39.0204C83.1346 38.8811 83.2128 38.6922 83.2128 38.4953C83.2128 38.2984 83.1346 38.1095 82.9954 37.9702C82.8537 37.8342 82.6658 37.7568 82.4694 37.7537C82.389 37.758 82.3084 37.7574 82.2281 37.7518L82.4254 37.7784C82.3849 37.7714 82.345 37.7603 82.3067 37.7453L82.4842 37.8202C82.4274 37.7947 82.3739 37.7627 82.3246 37.7246L82.475 37.8406C82.4729 37.8391 82.471 37.8373 82.4694 37.8354L82.5857 37.9854C82.5831 37.9818 82.5808 37.9778 82.5789 37.9737L82.6538 38.1513C82.6506 38.1422 82.6484 38.1327 82.6473 38.1231L82.6736 38.3205C82.6708 38.2816 82.6724 38.2425 82.6783 38.2038L82.6519 38.4012C82.6912 38.1638 82.7512 37.9303 82.8311 37.7033C82.893 37.5115 82.9549 37.3181 83.0328 37.1328C83.0592 37.0372 83.0662 36.9373 83.0534 36.839C83.0406 36.7407 83.0082 36.6459 82.9583 36.5604C82.9091 36.4761 82.8437 36.4024 82.766 36.3434C82.6883 36.2845 82.5998 36.2414 82.5054 36.2167C82.411 36.1919 82.3128 36.186 82.2161 36.1993C82.1195 36.2125 82.0264 36.2447 81.9422 36.294L81.7918 36.4103C81.7009 36.5012 81.6352 36.6141 81.601 36.7379L81.6022 36.7392Z" fill="#211715"/>
<path d="M76.0433 33.4788C75.833 34.1378 75.927 35.6656 77.1284 35.8187C78.7202 35.8395 78.8455 33.9974 78.3288 33.1199C77.9059 32.4016 76.6222 32.0813 76.0433 33.4788Z" fill="#211715"/>
<path d="M89.705 33.5341C89.9038 34.2312 89.7318 35.8215 88.4168 35.9298C86.6826 35.8834 86.6304 33.9552 87.233 33.0617C87.7265 32.3303 89.1379 32.0509 89.705 33.5341Z" fill="#211715"/>
<path d="M80.9245 43.3154C81.6594 43.5429 82.4339 43.6136 83.1979 43.5231C84.0491 43.4561 84.8784 43.22 85.6372 42.8285C85.8056 42.7278 85.9281 42.565 85.9783 42.3749C86.0279 42.1849 86.0011 41.9829 85.9033 41.8124C85.8016 41.6455 85.6385 41.5247 85.4492 41.475C85.26 41.4254 85.0588 41.4508 84.8878 41.546C84.8197 41.5829 84.7514 41.6185 84.6815 41.6515C84.6796 41.6515 84.5109 41.7286 84.6078 41.6865C84.6945 41.6485 84.5735 41.6995 84.5577 41.7057C84.3948 41.7676 84.2289 41.8222 84.0602 41.8694C83.8875 41.917 83.713 41.9569 83.5364 41.9891C83.4946 41.9968 83.4528 42.0039 83.4111 42.0108C83.3947 42.0136 83.2589 42.0352 83.352 42.0209C83.4451 42.0067 83.3093 42.0259 83.2929 42.0278C83.2403 42.0339 83.1877 42.0392 83.1348 42.0438C82.7965 42.0752 82.4562 42.0779 82.1175 42.0519C82.0686 42.0482 82.0197 42.0429 81.9709 42.0383C81.8415 42.0262 81.9956 42.046 81.9968 42.0432C81.9224 42.0359 81.8486 42.0232 81.7759 42.0055C81.6211 41.9749 81.4686 41.934 81.3193 41.8833C81.1294 41.8323 80.9272 41.8581 80.7562 41.9551C80.5852 42.0522 80.4594 42.2127 80.4059 42.4018C80.3582 42.5916 80.3856 42.7924 80.4821 42.9626C80.5787 43.1327 80.7371 43.2591 80.9245 43.3154Z" fill="#211715"/>
</g>
<defs>
<clipPath id="clip0_1790_632">
<rect width="136.588" height="116.502" fill="white" transform="translate(18.7059 9.74902)"/>
</clipPath>
</defs>
</svg>
