<svg width="214" height="129" viewBox="0 0 214 129" fill="none" xmlns="http://www.w3.org/2000/svg">
<g clip-path="url(#clip0_1743_1188)">
<path d="M107.21 88.6632C107.139 88.2469 107.201 87.8187 107.388 87.44C107.536 87.1471 107.753 86.894 108.019 86.7016C108.285 86.5093 108.593 86.3834 108.917 86.3345C110.789 85.9789 112.68 85.7337 114.581 85.6003C118.137 85.2823 119.927 85.1255 124.333 84.6765L124.889 84.6201L124.612 83.8992C124.427 83.4182 123.368 82.442 122.113 81.3831C121.415 80.8014 120.767 80.1615 120.177 79.4702C120.004 79.1925 119.924 78.8666 119.949 78.5403C119.975 78.2139 120.104 77.9043 120.318 77.6567C120.882 76.9461 121.859 77.0256 122.576 77.3112C125.735 78.5694 129.978 80.963 132.658 82.0276C134.159 82.6236 135.593 84.6632 135.497 86.6072L137.792 89.75C134.747 91.9338 132.251 94.795 130.501 98.108L127.61 96.8786C126.351 96.3603 122.576 96.3967 121.565 96.3732C119.66 96.3288 117.666 96.2786 115.593 96.255L115.379 95.4C113.966 95.4134 112.636 95.4107 112.256 95.373C111.954 95.3555 111.666 95.2387 111.438 95.0405C111.209 94.8424 111.053 94.5741 110.992 94.2777C110.978 93.967 111.064 93.6599 111.236 93.4012C111.409 93.1425 111.66 92.9459 111.952 92.84L112.117 92.7831L110.874 92.9039C109.142 93.0714 108.048 92.3421 108.126 91.2117C108.169 90.8974 108.303 90.6025 108.512 90.3637C108.721 90.1248 108.995 89.9526 109.301 89.8682L108.812 89.8144C107.77 89.6994 107.328 89.213 107.21 88.6632Z" fill="white"/>
<path d="M175.679 45.4889L175.723 45.436C176.657 44.3051 177.21 42.9087 177.304 41.4454C177.47 39.9668 176.885 37.83 175.732 36.9119C175.346 36.605 174.515 36.132 173.007 36.526C172.168 36.7217 171.438 37.2358 170.97 37.9597C170.37 36.844 169.517 34.7907 167.914 32.8106C165.946 31.1637 163.004 29.9805 159.752 29.7256C159.591 30.5251 159.457 31.341 159.3 32.2035C159.172 33.1336 158.96 34.05 158.665 34.9412C158.438 35.4839 158.129 35.9888 157.75 36.4385C157.089 37.2788 156.355 38.0569 156.192 39.1322C156.091 39.7985 156.552 40.8675 156.617 41.54C156.666 42.0538 156.687 42.2204 156.737 42.7338L157.123 44.9302C157.581 44.915 158.608 44.9239 159.325 44.9244C159.384 44.9281 159.442 44.9436 159.494 44.9701C159.547 44.9965 159.594 45.0333 159.632 45.0783C159.67 45.1233 159.699 45.1755 159.717 45.2319C159.734 45.2882 159.74 45.3475 159.735 45.4063C159.69 46.442 159.322 46.8529 158.972 47.5902C158.721 48.0525 158.405 48.4761 158.033 48.848L157.84 49.0097C157.944 49.5991 158.182 50.955 158.182 50.955C158.45 51.5615 158.831 52.1115 159.305 52.5757C159.923 53.2922 160.713 53.8395 161.601 54.1658C164.063 55.1783 166.747 55.5274 169.386 55.1785C170.147 56.3678 170.776 57.636 171.264 58.9608L171.811 60.4589C173.314 59.3737 174.974 58.5227 176.732 57.9348C179.449 57.0114 182.278 56.4548 185.142 56.2799L184.681 54.8329C179.795 54.3146 175.838 49.5595 174.169 47.186L173.858 46.7418C174.554 46.4716 175.178 46.0426 175.679 45.4889Z" fill="white"/>
<path d="M139.436 88.8026C139.578 88.7351 139.721 88.6713 139.864 88.6112C139.947 88.5781 140.038 88.5705 140.126 88.5894C140.213 88.6083 140.293 88.6528 140.355 88.7173C143.825 92.2816 145.945 94.7955 149.431 97.8899C150.571 96.1942 150.719 94.3891 151.05 92.9012C152.447 86.6596 152.378 79.8508 156.252 74.4788C158.678 71.113 161.937 69.0602 165.656 67.3862C166.084 67.1934 166.512 67.0052 166.942 66.8217C168.209 62.453 172.75 59.2471 176.734 57.9333C179.963 56.8221 183.352 56.2511 186.767 56.2434C187.1 56.2019 187.438 56.2692 187.73 56.4353C188.023 56.6013 188.253 56.8572 188.388 57.165C189.109 58.2625 190.228 61.706 190.772 62.9012C195.737 64.294 198.898 69.6966 200.143 73.8943C201.389 78.092 201.152 81.7766 201.041 86.3305C200.997 88.1755 200.705 90.4682 200.455 92.5002C199.412 94.2386 191.517 106.872 188.408 111.166C185.671 114.945 179.525 123.997 177.205 127.303C174.037 127.567 170.853 127.6 167.68 127.402C165.016 127.204 162.331 126.1 160.586 125.23C157.7 123.791 156.636 121.936 155.711 118.87C155.597 118.896 155.482 118.919 155.368 118.938C148.014 120.024 143.477 116.315 139.304 111.832C137.013 109.37 132.893 103.611 130.224 99.2623C130.191 99.2075 130.169 99.1459 130.161 99.0818C130.154 99.0178 130.16 98.9528 130.18 98.8915C130.853 96.7418 134.932 90.9416 139.436 88.8026Z" fill="white"/>
<path d="M33.9698 89.3496C33.6793 88.0802 33.9485 86.7544 34.2665 85.4917C34.5774 84.2574 34.9736 82.972 35.901 82.1002C36.6972 81.3693 37.6801 80.8731 38.7409 80.6664C40.9744 80.3174 43.2287 80.1186 45.4888 80.0713C46.6435 80.1736 47.7623 80.5253 48.7677 81.1022C49.7732 81.6791 50.6415 82.4674 51.3125 83.4126C51.873 84.1303 52.1754 85.0159 52.1711 85.9265C52.1711 85.9265 51.2081 87.0262 49.1602 89.3465C48.0708 90.5981 47.0748 91.928 46.1804 93.3256C45.977 93.8253 45.3098 94.01 44.6703 93.7844C44.1284 93.5939 43.5346 92.8846 42.9825 92.7331C41.9645 92.4555 40.3918 92.7149 39.3316 92.4973C37.9254 92.2086 36.3114 91.8537 35.6989 90.5545L33.9698 89.3496Z" fill="white"/>
<path d="M29.355 18.3803C30.8838 15.3601 34.5711 12.4705 43.1236 12.6135C56.0515 12.8302 54.6493 22.5051 54.6493 22.5051C54.5049 24.5926 54.4512 26.673 54.3602 28.59C54.202 31.9158 53.3799 34.9662 51.1823 37.0044C50.1532 37.9863 48.9492 38.7667 47.6326 39.3051C47.6455 39.4241 47.6531 39.489 47.6531 39.489C47.7071 39.8696 47.8384 40.235 48.039 40.5629C48.5449 41.196 49.2467 41.6431 50.0341 41.8341C48.087 44.71 45.5163 45.9434 41.7285 45.9802C37.7978 46.0108 33.9662 44.7474 30.8247 42.3848C31.3144 42.1361 31.7822 41.8465 32.2233 41.5192C32.6615 41.2083 32.9937 40.7705 33.1751 40.2649C33.5278 39.118 33.7804 37.9427 33.9302 36.7521C32.9768 35.9209 32.1125 34.9927 31.3514 33.9824C31.3514 33.9824 30.6977 33.0986 30.4125 32.5878L30.297 32.3057C29.5975 32.3765 28.8915 32.2629 28.2495 31.9762C27.2938 31.4432 26.5185 30.6376 26.0225 29.6622C25.4482 28.6651 25.1125 26.9489 25.5073 25.9113C25.6311 25.5986 25.8357 25.3243 26.1002 25.1167C26.3648 24.909 26.6798 24.7754 27.013 24.7294C27.5366 24.6101 28.086 24.6957 28.5484 24.9688C28.0991 22.7432 28.3821 20.4319 29.355 18.3803Z" fill="white"/>
<path d="M43.9499 80.1107C44.0978 80.1014 44.2395 80.0934 44.3736 80.0863L64.1587 76.3083C64.2089 69.4907 64.2884 62.3887 63.2793 55.9126C62.0268 47.8735 58.3568 44.0422 50.0556 41.8037C48.1072 44.7 45.5307 45.9436 41.7278 45.9787C37.7341 46.0118 33.8443 44.7066 30.6787 42.2714C24.895 44.7542 20.6498 46.8706 17.4542 52.4295C15.6008 55.6545 14.4735 61.1611 13.4888 64.8488C12.5041 68.5366 12.2528 72.5531 13.2516 76.1955C13.8485 78.4166 14.9365 80.4752 16.4353 82.2195C19.4355 85.6519 25.8069 88.196 30.3816 88.908C30.3816 88.908 33.9726 89.1278 33.9726 89.3499C33.6821 88.0805 33.9512 86.7547 34.2692 85.492C34.5801 84.2577 34.9763 82.9724 35.9037 82.1005C36.6999 81.3697 37.6828 80.8735 38.7436 80.6668C39.8282 80.4705 42.275 80.216 43.9499 80.1107Z" fill="white"/>
<path d="M79.8801 20.8386C79.5932 20.7804 79.193 20.4362 78.4437 20.5797C78.13 20.6156 77.8313 20.7342 77.5784 20.9233C77.3255 21.1125 77.1274 21.3654 77.0043 21.6563C76.6107 22.6219 76.8883 24.2399 77.404 25.1891C77.848 26.1155 78.5581 26.8887 79.4435 27.4098C80.0805 27.713 80.7898 27.8309 81.4906 27.75C80.899 27.3552 82.3114 29.3618 82.3114 29.3618C83.0353 30.3721 83.8679 31.2998 84.7942 32.1284C84.6655 33.3816 84.4245 34.6208 84.0742 35.8309C83.9036 36.3401 83.5791 36.7838 83.1455 37.1007C82.6137 37.4764 82.0551 37.8127 81.4742 38.1067C84.9051 40.2866 88.9657 41.2587 93.0119 40.8689C95.5355 40.6606 97.8926 39.8522 99.5173 37.8007C98.5963 37.4974 97.7462 37.0106 97.0185 36.3696C96.9078 36.2848 96.8157 36.1781 96.748 36.0561C96.6915 35.9266 96.6557 35.789 96.6419 35.6483C96.6419 35.6483 96.6006 35.3712 96.5464 35.0088C98.155 34.5784 99.6353 33.7644 100.86 32.6366C102.969 30.7711 103.808 27.9259 104.029 24.8071C104.131 23.3756 104.212 21.8459 104.334 20.2954L104.078 20.2612C104.125 18.5297 103.802 16.8082 103.13 15.2117C102.305 13.5213 101.659 12.4611 100.833 11.9316C99.3168 13.4504 97.5421 14.6872 95.5924 15.5843C94.5747 16.0663 93.5233 16.4734 92.4465 16.8026C91.7802 17.0065 89.9552 17.4133 89.4706 16.5606L89.1415 15.9832C87.4912 17.3046 85.7523 18.5113 83.937 19.595C83.4336 19.9578 83.0407 20.4532 82.8022 21.026L79.8801 20.8386Z" fill="white"/>
<path d="M71.9422 49.0604C71.82 49.5263 71.7041 50.0535 71.5953 50.6247C70.9531 54.2481 70.6278 57.9206 70.623 61.6005C70.6763 65.1537 70.8007 70.9094 71.0583 74.9912C85.7299 72.1899 100.698 69.3336 113.803 66.8326C113.204 63.6747 112.267 59.2643 111.614 55.3158C110.89 50.9498 109.779 45.3358 107.23 42.089C105.782 40.2458 104.229 39.2665 102.122 38.3582C101.731 38.1894 100.517 37.7874 100.517 37.7874L99.7246 37.5254C98.0955 39.7821 95.6446 40.6518 93.0131 40.8689C88.9413 41.2616 84.8557 40.2746 81.4123 38.0664C76.457 41.3851 73.8476 43.3491 72.182 48.2494C72.0998 48.4919 72.0203 48.7637 71.9422 49.0604Z" fill="#CDEEFF"/>
<path d="M100.861 32.6371C99.6358 33.7649 98.1555 34.5787 96.5469 35.0088L96.6424 35.6488C96.6562 35.7895 96.692 35.9271 96.7485 36.0566C96.8162 36.1786 96.9082 36.2853 97.019 36.3701C97.7453 37.0097 98.5934 37.4958 99.5125 37.799C99.5835 37.7101 99.6555 37.6213 99.7239 37.5258L100.517 37.7879C100.517 37.7879 101.069 37.9709 101.548 38.1432C102.048 37.3882 102.358 36.5229 102.45 35.6217C103.042 34.947 103.393 34.0946 103.449 33.1985C103.579 31.85 103.251 30.4892 103.164 29.1638C103.167 29.1549 103.17 29.1456 103.173 29.1367C102.706 30.4781 101.912 31.6815 100.861 32.6371Z" fill="#494949"/>
<path d="M78.9719 38.6688C78.9719 38.6688 79.4503 38.7412 80.2639 38.842C80.633 38.5897 81.0114 38.3339 81.4107 38.0665C81.4321 38.0803 81.4551 38.0923 81.4751 38.1061C82.0555 37.8121 82.6137 37.4762 83.1451 37.1009C83.5787 36.784 83.9032 36.3404 84.0739 35.8311C84.4241 34.621 84.6651 33.3819 84.7938 32.1287C83.8675 31.3001 83.0349 30.3723 82.311 29.3621C81.9418 28.8599 81.6198 28.3246 81.349 27.7632C80.6939 27.8126 80.0372 27.6911 79.4432 27.4105C78.5577 26.8894 77.8477 26.1162 77.4036 25.1898C76.8866 24.2406 76.609 22.6226 77.0039 21.657C77.127 21.3661 77.3251 21.1132 77.5781 20.924C77.831 20.7349 78.1296 20.6163 78.4434 20.5804C79.1927 20.4369 79.5928 20.7811 79.8798 20.8393L82.8005 21.0281C83.039 20.4552 83.4318 19.9598 83.9353 19.597C85.7506 18.5134 87.4895 17.3066 89.1398 15.9852L89.4689 16.5626C89.9575 17.4154 91.7816 17.0067 92.4447 16.8047C93.5216 16.4755 94.573 16.0683 95.5907 15.5864C97.5404 14.6892 99.3151 13.4524 100.832 11.9337C101.657 12.4631 102.303 13.5233 103.128 15.2137C103.8 16.8102 104.123 18.5317 104.077 20.2632L104.332 20.2974L104.327 20.3676C104.365 19.8759 104.407 19.3816 104.455 18.8877C104.752 16.5774 104.692 14.2352 104.277 11.943C103.735 9.32873 102.568 6.72557 100.513 5.00538C97.727 1.99005 94.5691 1.05245 90.2147 0.947631C87.2815 0.876123 82.9448 1.66715 79.051 6.00116C77.2682 8.08867 76.5398 9.49884 75.9966 11.9528C75.6743 13.4724 75.5447 15.0266 75.6106 16.5786C75.6497 16.9983 75.727 17.5557 75.8113 18.174C76.3887 21.2608 76.303 26.7349 75.7278 28.8877C75.0612 31.3794 74.6339 37.2773 78.9719 38.6688Z" fill="#494949"/>
<path d="M171.135 17.1402C165.503 18.8395 162.74 21.857 160.637 26.5859C160.249 27.6057 159.953 28.658 159.752 29.7305C163.004 29.9814 165.947 31.1642 167.916 32.8115C169.519 34.7916 170.372 36.8453 170.973 37.961C171.44 37.2368 172.17 36.7226 173.009 36.5269C174.519 36.1329 175.347 36.6059 175.733 36.9128C176.888 37.8309 177.472 39.9677 177.306 41.4463C177.212 42.9096 176.658 44.306 175.725 45.4369C175.218 46.0166 174.578 46.4649 173.859 46.7436L174.17 47.1878C176.06 49.8749 180.882 55.6146 186.664 54.8027C187.752 53.1838 189.433 51.6048 190.528 50.5167C193.278 47.794 196.697 42.9168 197.099 36.7165C197.351 32.8191 195.961 28.7889 194.258 25.9446C189.879 18.6267 184.548 17.1002 181.243 16.4948C177.875 15.9509 174.426 16.1696 171.153 17.1349L171.135 17.1402Z" fill="#645D5C"/>
<path d="M30.7927 6.05073C33.2308 4.40031 36.1097 3.52301 39.0539 3.53329C43.8401 3.53329 47.2947 4.51397 50.4068 7.90372C52.6245 9.78514 53.6722 12.176 54.3016 14.8875C54.8611 17.6222 54.9436 20.433 54.5454 23.1958L54.4717 22.144C54.2856 19.7012 52.2585 17.1851 50.8523 16.6579C50.8523 16.6579 49.3124 16.224 47.7388 15.9473L47.1823 16.1343C45.0801 16.8396 42.0923 18.3728 40.4201 19.1274C40.3313 19.1696 40.2327 19.1871 40.1347 19.1778C40.0368 19.1686 39.9432 19.1331 39.8638 19.075C39.7844 19.0169 39.7222 18.9385 39.6838 18.8479C39.6454 18.7574 39.6321 18.6581 39.6455 18.5606C39.7021 18.2405 39.6922 17.9121 39.6167 17.596C39.5252 17.19 39.1872 17.007 38.9131 17.1234C36.7554 18.0397 34.3322 19.9766 32.4534 21.6679C32.1686 21.9245 31.9618 22.256 31.8565 22.6246C31.6445 23.3428 31.4703 24.0716 31.3346 24.808L28.5484 24.9688C28.0861 24.6957 27.5366 24.6101 27.013 24.7294C26.6798 24.7754 26.3648 24.909 26.1003 25.1167C25.8357 25.3243 25.6311 25.5986 25.5074 25.9113C25.4428 26.0833 25.3981 26.2621 25.3741 26.4443C24.4543 24.8534 24.059 21.9442 23.8946 20.5407C23.7881 18.8901 23.8888 17.2326 24.1945 15.6071C24.7097 12.9821 25.4514 11.4631 27.2991 9.19797C28.3155 7.99528 29.4908 6.93649 30.7927 6.05073Z" fill="#656565"/>
<path d="M212.073 113.386C212.073 106.836 212.247 105.197 212.31 93.9609C212.315 93.2693 212.158 92.5863 211.852 91.9662C211.546 91.3461 211.099 90.806 210.548 90.3889C209.996 89.9719 209.355 89.6894 208.675 89.5639C207.994 89.4385 207.295 89.4736 206.63 89.6664C199.322 91.7907 188.741 94.8785 181.474 96.9749C180.282 97.3191 179.234 98.0404 178.486 99.0306C177.739 100.021 177.332 101.226 177.327 102.467C177.28 113.508 177.156 117.96 177.156 127.895L197.611 119.396L212.073 113.386Z" fill="#48A0F0"/>
<path d="M1.8904 89.1109C7.86125 87.97 13.8321 86.8285 19.8029 85.6865C20.9249 85.4729 20.4496 83.7602 19.3304 83.9734C13.3592 85.1122 7.38838 86.2537 1.41783 87.3978C0.296351 87.6123 0.771146 89.325 1.8904 89.1109Z" fill="#211715"/>
<path d="M114.076 119.405C119.912 117.939 125.684 116.175 131.479 114.555C132.439 114.286 133.398 114.01 134.362 113.756C135.467 113.467 134.999 111.753 133.89 112.043C128.118 113.55 122.397 115.265 116.649 116.86C115.636 117.141 114.624 117.434 113.604 117.69C112.494 117.968 112.965 119.682 114.076 119.403V119.405Z" fill="#211715"/>
<path d="M154.125 67.1279C151.042 66.265 147.956 65.4092 144.869 64.5603C143.047 64.0569 141.224 63.5535 139.402 63.0501L136.892 62.3586L135.747 62.0428C135.303 61.9144 134.833 61.9021 134.383 62.0073L115.706 65.5685L93.5368 69.7986C85.7047 71.293 77.8728 72.7883 70.0413 74.2845L47.0321 78.6758L44.3495 79.1896C43.228 79.4042 43.7028 81.1168 44.822 80.9027L63.0766 77.4166C69.4566 76.1984 75.8367 74.9804 82.2168 73.7626C88.4766 72.5675 94.7364 71.3728 100.996 70.1783L118.536 66.8321L133.607 63.9584L135.303 63.6351H134.831C141.106 65.3642 147.382 67.0857 153.65 68.8405C154.753 69.1492 155.223 67.4352 154.122 67.127L154.125 67.1279Z" fill="#211715"/>
<path d="M52.2974 95.405C54.885 96.7174 57.4908 97.9939 60.0931 99.278C61.5866 100.015 63.0798 100.753 64.5728 101.493C64.92 101.702 65.2858 101.879 65.6654 102.021C66.0561 102.059 66.4505 102.005 66.8162 101.862L69.0747 101.331C75.3055 99.8639 81.5344 98.3886 87.7614 96.9049C91.0362 96.1291 94.3112 95.3554 97.5864 94.5837C97.7728 94.5303 97.937 94.4181 98.0545 94.2638C98.172 94.1095 98.2365 93.9214 98.2384 93.7274C98.2316 93.5347 98.1653 93.3489 98.0485 93.1955C97.9317 93.042 97.7703 92.9286 97.5864 92.8707C92.6057 90.8015 87.6226 88.7374 82.6372 86.6783C79.9892 85.5786 77.3431 84.4737 74.6989 83.3636C73.5646 82.8866 72.431 82.4069 71.2981 81.9246C70.7799 81.704 70.2617 81.4819 69.7436 81.2584C69.2648 81.0527 68.5643 80.5957 68.042 80.5957C67.5228 80.6437 67.0092 80.7393 66.5075 80.8813L64.9085 81.1922C63.9074 81.3885 62.9066 81.5856 61.9061 81.7834C59.9658 82.1668 58.0254 82.5507 56.0851 82.935C54.9645 83.1571 55.4388 84.8693 56.5572 84.6481C60.4636 83.8756 64.3701 83.1057 68.2765 82.3385L67.5921 82.2497C75.4051 85.6426 83.2945 88.8622 91.1658 92.1183C93.1479 92.9382 95.1299 93.7591 97.112 94.5811V92.868C88.8695 94.8045 80.6341 96.7721 72.3947 98.7197C70.1514 99.25 67.9076 99.7784 65.6632 100.305L66.3476 100.394C61.9656 98.212 57.5574 96.0814 53.1919 93.8673C52.1743 93.3512 51.274 94.8835 52.2951 95.4014L52.2974 95.405Z" fill="#211715"/>
<path d="M106.599 82.2528C101.272 80.0765 95.8115 78.2333 90.4258 76.2124V77.9255C97.9252 76.4336 105.415 74.8915 112.91 73.3796C114.729 73.0128 116.549 72.6491 118.369 72.2888H117.899C122.218 73.6976 126.554 75.0541 130.887 76.4163C135.616 77.903 140.347 79.3826 145.08 80.8551C146.517 81.3019 147.955 81.7471 149.392 82.1907V80.4771C146.298 81.2695 143.191 82.0112 140.079 82.7299C138.965 82.987 139.436 84.7006 140.551 84.4429C143.663 83.7243 146.769 82.9826 149.865 82.1907C150.048 82.1344 150.209 82.0207 150.323 81.8665C150.437 81.7123 150.498 81.5256 150.498 81.3339C150.498 81.1422 150.437 80.9555 150.323 80.8013C150.209 80.6471 150.048 80.5334 149.865 80.4771C144.126 78.7187 138.401 76.9142 132.674 75.1158C129.117 73.9992 125.562 72.8763 122.01 71.7469C121.31 71.5237 120.61 71.2995 119.911 71.0745C119.315 70.8822 118.525 70.4736 117.899 70.5757C115.302 70.9977 112.721 71.6084 110.142 72.1302C103.414 73.4933 96.6883 74.872 89.955 76.2115C89.0165 76.3981 89.2119 77.6457 89.955 77.9246C95.3412 79.9464 100.802 81.7918 106.129 83.965C106.356 84.0261 106.599 83.995 106.803 83.8786C107.008 83.7622 107.158 83.5698 107.222 83.3432C107.278 83.1161 107.245 82.8759 107.13 82.6724C107.014 82.4689 106.824 82.3179 106.6 82.2506L106.599 82.2528Z" fill="#211715"/>
<path d="M91.6066 80.462C89.2246 81.3979 86.8288 82.2999 84.4535 83.2535C84.2707 83.3102 84.1107 83.4239 83.9971 83.578C83.8835 83.7322 83.8223 83.9186 83.8223 84.1101C83.8223 84.3015 83.8835 84.488 83.9971 84.6421C84.1107 84.7962 84.2707 84.9099 84.4535 84.9666C90.4722 86.757 96.4456 88.6939 102.439 90.5727C103.532 90.9155 104 89.2011 102.911 88.8596C96.9195 86.9808 90.9448 85.0439 84.9257 83.2535V84.9666C87.3014 84.0135 89.6967 83.111 92.0791 82.1751C92.3028 82.1068 92.4918 81.9555 92.6074 81.7523C92.7231 81.549 92.7565 81.3092 92.7009 81.0821C92.6373 80.8555 92.4869 80.6631 92.2824 80.5467C92.0778 80.4303 91.8356 80.3992 91.6083 80.4603L91.6066 80.462Z" fill="#211715"/>
<path d="M83.8692 32.4449C83.7633 33.2626 83.61 34.0733 83.4099 34.8731C83.3543 35.2784 83.2133 35.6673 82.9964 36.0141C82.8799 36.1575 82.7489 36.2885 82.6056 36.405C82.7446 36.2868 82.5323 36.4534 82.4892 36.4827C81.3039 37.2395 80.0578 37.8965 78.7637 38.4467C78.5616 38.5669 78.415 38.7617 78.3554 38.9891C78.2958 39.2164 78.3281 39.4581 78.4452 39.6619C78.5677 39.8613 78.7625 40.0058 78.9889 40.0651C79.2153 40.1244 79.4558 40.0941 79.6604 39.9804C81.0093 39.4187 82.3017 38.7298 83.5201 37.9231C83.9445 37.6281 84.308 37.254 84.5905 36.8211C84.8464 36.3611 85.0264 35.8627 85.1234 35.3452C85.3577 34.3903 85.5323 33.4216 85.6462 32.4449C85.6449 32.2097 85.5509 31.9845 85.3846 31.8182C85.2183 31.6519 84.9931 31.5579 84.7579 31.5566C84.5241 31.5622 84.3013 31.6575 84.1359 31.8229C83.9705 31.9883 83.8747 32.2111 83.8692 32.4449Z" fill="#211715"/>
<path d="M100.461 12.7506C100.494 12.775 100.564 12.8319 100.493 12.7732C100.54 12.8123 100.585 12.8532 100.63 12.8949C100.737 12.9944 100.836 13.1015 100.931 13.2107C101.109 13.4245 101.269 13.6517 101.411 13.8903C101.792 14.5031 102.132 15.1412 102.427 15.8001C102.987 17.2187 103.246 18.7381 103.189 20.262C103.163 21.4057 104.939 21.4053 104.965 20.262C105.023 18.4672 104.698 16.6807 104.012 15.0211C103.409 13.6296 102.617 12.1172 101.357 11.2156C101.154 11.0985 100.912 11.0663 100.684 11.126C100.457 11.1857 100.262 11.3324 100.142 11.5345C100.028 11.739 99.9976 11.9797 100.057 12.2062C100.116 12.4327 100.261 12.6274 100.461 12.7497V12.7506Z" fill="#211715"/>
<path d="M75.2044 20.4402C75.3438 22.2743 75.3546 24.116 75.2368 25.9516C75.1182 27.1608 74.9294 28.362 74.6714 29.5492C74.2446 31.9099 74.2553 34.5553 75.3914 36.7271C76.097 38.0611 77.2971 39.0656 78.7345 39.5253C79.8214 39.889 80.2891 38.1742 79.2067 37.8122C77.0454 37.0882 76.2944 34.8457 76.2069 32.7551C76.1136 30.5344 76.8189 28.5357 76.9899 26.2892C77.1335 24.3421 77.1306 22.3869 76.981 20.4402C76.8957 19.3072 75.1187 19.2978 75.2044 20.4402Z" fill="#211715"/>
<path d="M86.1877 32.1372C85.2195 31.3777 84.3403 30.511 83.5672 29.5536L83.4478 29.4043C83.4358 29.3892 83.2799 29.1885 83.3985 29.343C83.3132 29.232 83.229 29.1201 83.1458 29.0073C83.0747 28.9113 83.0072 28.814 82.9397 28.7154C82.6818 28.3517 82.4438 27.9742 82.2268 27.5846C82.1065 27.3828 81.9117 27.2363 81.6844 27.1767C81.4571 27.1172 81.2155 27.1493 81.0116 27.2662C80.8119 27.3885 80.6673 27.5832 80.6078 27.8097C80.5484 28.0361 80.5788 28.2768 80.6927 28.4814C81.146 29.2839 81.6717 30.0433 82.2632 30.7501C83.0479 31.731 83.9432 32.618 84.9312 33.3937C85.1007 33.5547 85.3255 33.6444 85.5593 33.6444C85.793 33.6444 86.0178 33.5547 86.1873 33.3937C86.3516 33.2258 86.4436 33.0003 86.4436 32.7654C86.4436 32.5305 86.3516 32.305 86.1873 32.1372H86.1877Z" fill="#211715"/>
<path d="M100.81 6.52471C102.506 8.45675 103.382 11.0684 103.637 13.5973C103.928 16.4843 103.496 19.3464 103.309 22.2263C103.144 24.7579 103.116 27.4126 101.954 29.7324C101.406 30.7716 100.655 31.6899 99.7454 32.4327C98.8355 33.1756 97.7855 33.7277 96.6578 34.0562C93.889 34.8765 91.0193 34.2552 88.4126 33.1839C88.1853 33.1227 87.943 33.1537 87.7385 33.2702C87.5339 33.3866 87.3835 33.579 87.32 33.8057C87.2634 34.0328 87.2964 34.273 87.4122 34.4765C87.528 34.6799 87.7176 34.8309 87.9418 34.8983C90.5978 35.99 93.4781 36.5554 96.3291 35.9714C98.9404 35.416 101.253 33.9128 102.821 31.7519C104.46 29.4308 104.807 26.5554 104.986 23.7968C105.093 22.1614 105.171 20.5199 105.345 18.8894C105.52 17.3787 105.564 15.8556 105.476 14.3373C105.258 11.0568 104.267 7.77809 102.068 5.27176C101.313 4.41055 100.06 5.67149 100.811 6.52781L100.81 6.52471Z" fill="#211715"/>
<path d="M99.9365 3.20057C97.8081 1.34402 95.3173 0.467714 92.5307 0.189233C90.1358 -0.120434 87.7027 0.0695097 85.3848 0.747084C82.5055 1.70361 79.9601 3.46445 78.0497 5.82149C77.1121 6.92317 76.3517 8.16401 75.7956 9.49949C75.3125 10.7886 74.9951 12.1339 74.8509 13.5031C74.6692 14.9412 74.6777 16.3971 74.8762 17.8331C75.1473 19.3675 75.2741 20.9239 75.2551 22.482C75.1938 23.6248 76.9708 23.6212 77.0317 22.482C77.1649 19.9974 76.3655 17.5737 76.4863 15.0944C76.6053 12.6592 77.1236 10.199 78.5014 8.15239C80.0696 5.79712 82.2844 3.94459 84.8798 2.81726C86.8101 2.04954 88.8873 1.72195 90.9602 1.85835C93.7965 1.97827 96.4885 2.54545 98.68 4.45706C99.5385 5.20546 100.8 3.95384 99.9365 3.20057Z" fill="#211715"/>
<path d="M80.3254 20.0722C79.7824 19.7566 79.1547 19.6176 78.5292 19.6746C77.9037 19.7316 77.3115 19.9817 76.8344 20.3902C76.503 20.7253 76.25 21.1298 76.0939 21.5745C75.9377 22.0192 75.8823 22.4931 75.9315 22.9618C76.015 25.0049 77.1751 27.2776 79.0649 28.2143C79.6111 28.4964 80.2141 28.6509 80.8287 28.6663C81.4432 28.6817 82.0532 28.5575 82.6128 28.3032C82.7135 28.2443 82.8017 28.1661 82.8722 28.0732C82.9427 27.9802 82.9943 27.8743 83.0239 27.7615C83.0535 27.6486 83.0605 27.531 83.0447 27.4154C83.0288 27.2998 82.9904 27.1885 82.9315 27.0878C82.8726 26.987 82.7945 26.8989 82.7015 26.8283C82.6086 26.7578 82.5026 26.7063 82.3898 26.6767C82.1618 26.6169 81.9195 26.6502 81.7161 26.7691C81.5598 26.8354 81.3937 26.8757 81.2244 26.8886C81.0911 26.8886 80.9615 26.893 80.8295 26.8837C80.7647 26.8792 80.7003 26.8734 80.6359 26.8655C80.7141 26.8743 80.6998 26.8703 80.5915 26.8535C80.3743 26.8033 80.1651 26.7478 79.9537 26.6758C79.7818 26.619 80.074 26.7606 79.9355 26.666C79.8253 26.591 79.701 26.5328 79.589 26.4595C79.2169 26.1956 78.8917 25.8712 78.627 25.4997C78.516 25.3385 78.4129 25.1715 78.3161 25.0018C78.2664 24.913 78.2171 24.8277 78.17 24.7393C78.154 24.7091 78.0234 24.4368 78.0643 24.5337C77.8844 24.0971 77.7689 23.6368 77.7214 23.167C77.6951 22.8985 77.6961 22.6279 77.7245 22.3596C77.7089 22.4866 77.7667 22.1717 77.7756 22.1375C77.7911 22.0811 77.8084 22.0251 77.828 21.97C77.7796 22.0771 77.7716 22.094 77.8049 22.0207C77.8391 21.9603 77.8706 21.8972 77.9053 21.8368C77.9399 21.7764 78.0505 21.6867 77.9141 21.8177C77.9403 21.7924 78.1553 21.5916 78.003 21.7111C78.0935 21.6417 78.1917 21.583 78.2957 21.5361C78.2282 21.5623 78.2481 21.5561 78.3561 21.5166C78.4248 21.4944 78.4945 21.475 78.5653 21.4584C78.6923 21.4362 78.7172 21.4291 78.639 21.4384C78.7074 21.4317 78.7758 21.4286 78.8446 21.4286C79.0536 21.4228 79.2589 21.4841 79.4305 21.6036C80.4076 22.201 81.3026 20.6651 80.3272 20.0695L80.3254 20.0722Z" fill="#211715"/>
<path d="M26.5895 65.3074C25.9972 67.6487 25.5356 70.0212 25.2069 72.4138C24.9967 73.3578 25.0131 74.3382 25.2548 75.2746C25.5206 76.0395 25.9908 76.7171 26.6144 77.2337C27.9202 78.3352 29.5955 79.0343 31.1856 79.6148C32.738 80.131 34.3265 80.5318 35.938 80.814C37.0541 81.0436 37.5311 79.3314 36.4105 79.1009C33.6297 78.5289 30.8427 77.9097 28.4092 76.3623C27.8484 76.0449 27.3833 75.5825 27.0625 75.0236C26.7201 74.3428 26.8205 73.5335 26.9293 72.8064C27.0958 71.7143 27.297 70.627 27.5022 69.542C27.7399 68.2841 27.9708 67.017 28.3017 65.7791C28.5953 64.6727 26.8804 64.2011 26.5882 65.307L26.5895 65.3074Z" fill="#211715"/>
<path d="M29.855 41.6651C26.2925 43.2059 22.7233 44.8985 19.9433 47.6789C18.4908 49.1265 17.2755 50.794 16.3422 52.6201C15.4455 54.501 14.7333 56.4644 14.2156 58.4828C13.6462 60.5144 13.1661 62.569 12.6304 64.6121C11.9476 67.1095 11.6512 69.6967 11.7515 72.2839C11.9806 76.8586 13.8048 81.4995 17.4614 84.4056C21.032 87.2424 25.6582 89.051 30.1437 89.7643C30.3708 89.8195 30.6103 89.7859 30.8134 89.6703C31.0165 89.5547 31.1678 89.3659 31.2363 89.1425C31.2971 88.9152 31.2659 88.6731 31.1495 88.4686C31.0332 88.2641 30.8409 88.1137 30.6145 88.0499C26.7387 87.4481 23.0351 86.0297 19.7488 83.8886C16.2374 81.5506 14.1445 77.7709 13.6369 73.6052C13.0826 69.0549 14.4137 64.6716 15.5578 60.3194C16.0365 58.349 16.6541 56.4149 17.4059 54.5317C18.1477 52.7938 19.1638 51.1864 20.4155 49.7708C23.1852 46.6249 26.9716 44.8337 30.7517 43.1974C30.954 43.0774 31.1009 42.8826 31.1606 42.6551C31.2203 42.4275 31.188 42.1857 31.0706 41.9818C30.9476 41.7829 30.7527 41.6388 30.5265 41.5796C30.3002 41.5203 30.0598 41.5503 29.855 41.6633V41.6651Z" fill="#211715"/>
<path d="M52.3388 43.4415C54.2168 44.0647 55.9727 45.0084 57.5287 46.2307C58.9176 47.3882 60.0369 48.8351 60.8083 50.4702C61.6656 52.4027 62.2298 54.4524 62.4823 56.5514C62.8949 59.5092 63.1381 62.4881 63.2107 65.4735C63.3258 68.9583 63.2973 72.4467 63.2716 75.9319C63.2631 77.0756 65.0397 77.0765 65.0482 75.9319C65.0961 69.5122 65.1632 63.0596 64.282 56.6856C63.6966 52.4497 62.4219 48.1934 59.1223 45.2634C57.2635 43.693 55.1211 42.4931 52.811 41.7284C51.7335 41.3411 51.2689 43.0569 52.3388 43.4415Z" fill="#211715"/>
<path d="M54.4462 55.8736C53.8963 62.3257 53.6775 68.8017 53.7907 75.2763C53.8111 76.4182 55.5877 76.4222 55.5673 75.2763C55.4541 68.8017 55.6729 62.3257 56.2228 55.8736C56.3196 54.7343 54.5426 54.7406 54.4462 55.8736Z" fill="#211715"/>
<path d="M29.9295 42.8038C32.5824 44.921 35.7663 46.2682 39.1331 46.6981C41.9943 47.0814 45.162 46.9242 47.6817 45.3719C49.016 44.5114 50.142 43.3645 50.9777 42.0145C51.6026 41.0529 50.065 40.1615 49.4436 41.1178C48.661 42.3886 47.5582 43.4315 46.2457 44.142C44.8333 44.8061 43.2854 45.1315 41.7252 45.0925C37.9105 45.1455 34.1921 43.8943 31.1855 41.546C31.0157 41.3856 30.791 41.2962 30.5575 41.2962C30.3239 41.2962 30.0992 41.3856 29.9295 41.546C29.7644 41.7134 29.6719 41.9391 29.6719 42.1742C29.6719 42.4093 29.7644 42.635 29.9295 42.8025V42.8038Z" fill="#211715"/>
<path d="M30.9159 43.3295C31.9956 42.8085 33.257 42.1187 33.8224 41.0092C34.1075 40.3618 34.3136 39.6824 34.4362 38.9857C34.5779 38.3692 34.6827 37.7456 34.7698 37.1203C34.8257 36.8932 34.7923 36.6533 34.6767 36.45C34.561 36.2467 34.3718 36.0956 34.148 36.0277C33.9206 35.9678 33.6789 35.9994 33.4746 36.1156C33.2703 36.2319 33.1196 36.4235 33.0549 36.6495C32.9759 37.2189 32.883 37.7856 32.7596 38.347C32.6944 38.6431 32.6226 38.9368 32.5441 39.2282C32.5006 39.3917 32.4562 39.5545 32.4109 39.7168C32.386 39.8056 32.3616 39.8913 32.3354 39.9779C32.3265 40.0072 32.2537 40.2 32.3238 40.0406C32.1511 40.4202 31.8652 40.7372 31.5053 40.948C31.0326 41.2696 30.5356 41.5538 30.0187 41.7981C29.8162 41.9177 29.669 42.1125 29.6093 42.3401C29.5496 42.5676 29.5821 42.8095 29.6998 43.0132C29.8229 43.2122 30.0177 43.3562 30.2439 43.4156C30.4702 43.4749 30.7106 43.4451 30.9154 43.3321L30.9159 43.3295Z" fill="#211715"/>
<path d="M46.7628 39.4896C46.7871 39.7428 46.8382 39.9928 46.9152 40.2353C46.9843 40.4347 47.0663 40.6293 47.1608 40.818C47.3226 41.1224 47.5379 41.3952 47.7964 41.6233C48.3795 42.1168 49.0607 42.4809 49.795 42.6915C50.0223 42.7522 50.2644 42.7211 50.4689 42.6047C50.6734 42.4883 50.8238 42.2961 50.8876 42.0696C50.9446 41.8425 50.9117 41.6022 50.7959 41.3986C50.68 41.1951 50.4902 41.0441 50.2658 40.977C50.0535 40.906 49.843 40.8314 49.6369 40.7448L49.8488 40.8336C49.57 40.7178 49.3064 40.5687 49.0635 40.3894L49.2434 40.5285C49.045 40.3743 48.8661 40.1967 48.7104 39.9995L48.8494 40.1793C48.7532 40.0471 48.6737 39.9034 48.6127 39.7516L48.7015 39.9639C48.6088 39.7496 48.5438 39.5244 48.5079 39.2937L48.5399 39.53L48.5345 39.4887C48.5258 39.2549 48.4334 39.0321 48.2743 38.8607C48.1077 38.6941 47.8818 38.6006 47.6462 38.6006C47.4107 38.6006 47.1848 38.6941 47.0182 38.8607C46.934 38.9419 46.8675 39.0395 46.8227 39.1476C46.7779 39.2556 46.7559 39.3717 46.7579 39.4887L46.7628 39.4896Z" fill="#211715"/>
<path d="M35.343 36.756C35.2692 36.7009 35.1951 36.6454 35.1209 36.589C35.2275 36.6716 35.013 36.5002 35.0152 36.5042C34.8888 36.4026 34.7637 36.299 34.6399 36.1933C34.3903 35.981 34.147 35.7613 33.9102 35.5342C33.4599 35.1003 33.0328 34.6431 32.6306 34.1644C32.4413 33.9401 32.2553 33.7132 32.0767 33.48C32.1655 33.5937 32.0967 33.5053 32.0767 33.48C32.0323 33.4191 31.9879 33.3592 31.9435 33.2983C31.667 32.9256 31.4105 32.5385 31.1751 32.1386C31.1207 32.0298 31.0445 31.9333 30.9513 31.8551C30.858 31.7769 30.7497 31.7187 30.6331 31.6841C30.5164 31.6495 30.3939 31.6393 30.2731 31.654C30.1523 31.6687 30.0358 31.7081 29.9309 31.7696C29.8259 31.8312 29.7348 31.9137 29.663 32.012C29.5913 32.1103 29.5405 32.2223 29.5138 32.341C29.4871 32.4597 29.4851 32.5826 29.5079 32.7022C29.5307 32.8217 29.5778 32.9353 29.6463 33.0358C30.149 33.8821 30.728 34.6806 31.3763 35.4214C32.2865 36.4924 33.3171 37.4549 34.4476 38.2901C34.6512 38.4083 34.8933 38.4411 35.1209 38.3813C35.3486 38.3216 35.5434 38.1741 35.6628 37.9712C35.775 37.7663 35.8045 37.5261 35.7452 37.3001C35.6859 37.0741 35.5423 36.8794 35.3439 36.756H35.343Z" fill="#211715"/>
<path d="M50.6607 9.36661C52.2618 11.1032 53.1128 13.3488 53.5561 15.6407C54.0079 18.0556 54.053 20.5291 53.6893 22.9589C53.6344 23.186 53.6682 23.4254 53.7837 23.6284C53.8993 23.8314 54.0879 23.9828 54.3111 24.0515C54.5384 24.1123 54.7805 24.0811 54.985 23.9648C55.1895 23.8484 55.3399 23.6562 55.4037 23.4297C56.173 18.2727 55.6036 12.107 51.9176 8.10922C51.1408 7.26534 49.887 8.52539 50.6611 9.36527L50.6607 9.36661Z" fill="#211715"/>
<path d="M26.143 25.9941C25.5769 24.8421 25.2057 23.6042 25.0446 22.3307C24.8298 21.2296 24.7257 20.1098 24.7337 18.988C24.799 16.3534 25.2858 13.6774 26.7377 11.4375C28.3503 8.91965 30.6406 6.90787 33.3453 5.63336C35.3507 4.75229 37.5306 4.34003 39.7193 4.42794C42.8701 4.49234 45.9445 5.15635 48.4166 7.21676C49.2889 7.94383 50.5526 6.69355 49.6727 5.9607C47.2481 3.93938 44.3855 2.97735 41.2627 2.72641C38.684 2.45385 36.0769 2.75445 33.6278 3.60671C30.5601 4.80063 27.8952 6.84229 25.944 9.49347C24.0981 11.931 23.2791 14.7078 23.0282 17.7293C22.9169 19.2255 22.9858 20.7297 23.2334 22.2095C23.4812 23.8044 23.8108 25.4677 24.6102 26.8904C25.1685 27.8884 26.7039 26.9938 26.1443 25.9941H26.143Z" fill="#211715"/>
<path d="M37.4777 39.6724C41.2085 41.1061 45.4231 41.5378 49.07 39.6155C50.7849 38.7333 52.2439 37.4246 53.3067 35.8154C54.3132 34.1087 54.929 32.2002 55.11 30.2271C55.4258 27.6737 55.3627 25.0705 55.5368 22.5047C55.6145 21.3632 53.8375 21.3681 53.7602 22.5047C53.6145 24.6539 53.5865 26.8089 53.4493 28.9586C53.3905 30.7216 52.9843 32.4557 52.2541 34.0614C50.7493 37.0959 47.4528 39.0026 44.1142 39.1403C42.0001 39.1751 39.9016 38.7729 37.9503 37.9588C37.723 37.8983 37.481 37.9296 37.2766 38.0459C37.0721 38.1623 36.9217 38.3543 36.8576 38.5806C36.8004 38.8079 36.8331 39.0484 36.9489 39.2521C37.0648 39.4558 37.2549 39.6068 37.4795 39.6737L37.4777 39.6724Z" fill="#211715"/>
<path d="M28.9969 24.2016C28.424 23.882 27.7661 23.748 27.1138 23.8179C26.4615 23.8878 25.847 24.1582 25.3549 24.592C25.0168 24.9433 24.7608 25.3652 24.6055 25.8273C24.4501 26.2894 24.3992 26.7802 24.4563 27.2644C24.5785 29.4239 25.8372 31.8032 27.851 32.7674C28.4317 33.0585 29.0711 33.2135 29.7206 33.2205C30.3702 33.2275 31.0128 33.0864 31.5996 32.8078C32.6069 32.2655 31.7106 30.731 30.7029 31.2738C30.5308 31.3565 30.3462 31.4101 30.1566 31.4323C30.0166 31.4431 29.8761 31.4446 29.7359 31.4368C29.667 31.4335 29.5981 31.4286 29.5294 31.4221C29.4151 31.4106 29.3941 31.408 29.4663 31.4146C29.2343 31.3758 29.0057 31.3186 28.7828 31.2436C28.7384 31.228 28.694 31.2111 28.6496 31.1934C28.7637 31.2427 28.7801 31.2476 28.6984 31.2089C28.5945 31.1392 28.4858 31.0767 28.3733 31.0219C27.5927 30.4991 26.9838 29.7575 26.6229 28.89C26.437 28.4375 26.3114 27.9625 26.2494 27.4772C26.2188 27.2 26.2155 26.9204 26.2396 26.6426C26.2433 26.5614 26.2582 26.4812 26.284 26.4041C26.2925 26.3717 26.4017 26.0341 26.3378 26.2087C26.2787 26.3681 26.3666 26.1545 26.3822 26.1238C26.407 26.0794 26.5678 25.8733 26.4266 26.035C26.4923 25.9586 26.5639 25.8875 26.6407 25.8223C26.5216 25.9213 26.7979 25.7334 26.8325 25.7152C27.029 25.6132 27.2477 25.5617 27.469 25.5655C27.6904 25.5692 27.9073 25.628 28.1001 25.7365C29.0915 26.3108 29.9869 24.7759 28.9969 24.2025V24.2016Z" fill="#211715"/>
<path d="M55.3631 22.1438C55.2251 20.7194 54.7081 19.358 53.8659 18.2011C53.1937 17.1492 52.2297 16.3158 51.0917 15.8027C50.8644 15.7409 50.6219 15.7716 50.4172 15.8882C50.2124 16.0047 50.0621 16.1975 49.9991 16.4245C49.9432 16.6516 49.9766 16.8915 50.0922 17.0947C50.2079 17.298 50.3971 17.4492 50.6209 17.5171C50.7928 17.5841 50.4322 17.4189 50.6019 17.5104C50.6427 17.5326 50.6849 17.5522 50.7258 17.5744C50.8146 17.6215 50.8972 17.673 50.9794 17.7272C51.0238 17.756 51.066 17.7853 51.1086 17.816C51.1424 17.84 51.3009 17.979 51.1379 17.8355C51.2245 17.9115 51.3156 17.9825 51.4009 18.0603C51.594 18.2362 51.7769 18.4229 51.949 18.6195C52.0378 18.7185 52.12 18.8202 52.203 18.9228C52.2634 18.9979 52.1417 18.8366 52.2368 18.9672C52.2847 19.0338 52.3336 19.1005 52.3807 19.1671C52.5412 19.3966 52.6892 19.6334 52.8248 19.8777C52.9012 20.0139 52.9738 20.1524 53.0425 20.293C53.0721 20.357 53.1026 20.4214 53.1339 20.4862C53.1313 20.4809 53.2228 20.6999 53.1908 20.6155C53.1588 20.5311 53.2352 20.7296 53.241 20.7487C53.2706 20.8284 53.299 20.9086 53.3263 20.9894C53.3707 21.1227 53.412 21.259 53.4475 21.3958C53.483 21.5326 53.5146 21.6681 53.5403 21.8062C53.543 21.8209 53.5874 22.0909 53.5603 21.8995C53.5719 21.9812 53.5785 22.0638 53.5856 22.1464C53.5856 22.382 53.6792 22.608 53.8458 22.7746C54.0124 22.9412 54.2384 23.0347 54.4739 23.0347C54.7095 23.0347 54.9355 22.9412 55.1021 22.7746C55.2687 22.608 55.3622 22.382 55.3622 22.1464L55.3631 22.1438Z" fill="#211715"/>
<path d="M34.8278 89.114C34.6737 88.0817 34.7495 87.028 35.0499 86.0285C35.2186 85.1445 35.5153 84.2898 35.9306 83.4915C36.7461 82.0964 38.3166 81.5932 39.809 81.396C41.2045 81.2117 42.6115 81.0806 44.0164 80.9962C45.2789 80.8625 46.5545 81.0565 47.7201 81.5594C49.3355 82.306 51.344 83.9716 51.2836 85.9281C51.248 87.0718 53.0251 87.0704 53.0602 85.9281C53.1286 83.7122 51.3946 81.7553 49.6486 80.6032C48.181 79.6282 46.4469 79.1328 44.6857 79.1854C43.0775 79.2458 41.4652 79.4075 39.8694 79.6132C37.9529 79.8583 36.0683 80.3926 34.818 81.9871C34.1257 82.9668 33.6464 84.0807 33.411 85.257C32.983 86.6589 32.8814 88.1402 33.1138 89.5874C33.3439 90.7067 35.057 90.2328 34.8274 89.1153L34.8278 89.114Z" fill="#211715"/>
<path d="M45.4521 84.9239C45.9886 85.009 46.5166 85.1408 47.0302 85.3178C47.1345 85.3547 47.2385 85.3933 47.3411 85.4346C47.4299 85.4688 47.4712 85.4915 47.3597 85.4413C47.4126 85.4648 47.4659 85.4884 47.5183 85.5128C47.7177 85.6056 47.9131 85.7073 48.1023 85.8188C48.2671 85.9161 48.4275 86.02 48.582 86.1328C48.6056 86.1497 48.7486 86.2279 48.6264 86.1657C48.5043 86.1035 48.6358 86.175 48.6655 86.1995C48.733 86.2554 48.7988 86.3136 48.8632 86.3736C49.0169 86.5189 49.1615 86.6736 49.2962 86.8368C49.3295 86.8772 49.3628 86.9181 49.3957 86.959C49.5556 87.1544 49.3429 86.8817 49.4272 86.9981C49.5116 87.1144 49.588 87.2175 49.6644 87.3307C49.7833 87.5341 49.9782 87.682 50.2061 87.7418C50.4341 87.8015 50.6764 87.7683 50.8798 87.6494C51.0833 87.5305 51.2311 87.3356 51.2909 87.1077C51.3507 86.8798 51.3174 86.6374 51.1985 86.434C50.648 85.5786 49.9149 84.8557 49.0519 84.3172C48.0881 83.7543 47.0264 83.3789 45.9229 83.2108C45.6958 83.154 45.4555 83.1869 45.252 83.3027C45.0485 83.4185 44.8975 83.6083 44.8303 83.8326C44.7706 84.0598 44.8022 84.3015 44.9184 84.5057C45.0347 84.7099 45.2262 84.8605 45.4521 84.9252V84.9239Z" fill="#211715"/>
<path d="M45.5582 88.2594C45.6231 88.2638 45.687 88.2705 45.751 88.2789L45.5147 88.2474C45.7863 88.2931 46.0526 88.3665 46.3093 88.4663C46.403 88.5005 46.0872 88.3682 46.2422 88.4375L46.3253 88.4752C46.3949 88.5078 46.4637 88.5419 46.5318 88.5774C46.6698 88.6502 46.8044 88.7294 46.9355 88.815C46.9948 88.8535 47.0531 88.8935 47.1105 88.9349C47.1435 88.9564 47.1752 88.9796 47.2056 89.0047C47.1647 88.9669 47.0443 88.8776 47.1554 88.9673C47.2664 89.0571 47.3806 89.1588 47.4858 89.2632C47.54 89.317 47.5927 89.3723 47.6439 89.4288C47.6622 89.4493 47.7643 89.5998 47.7896 89.6012C47.7785 89.6012 47.6595 89.4235 47.7319 89.527C47.7528 89.5572 47.7763 89.5865 47.795 89.6158C47.8394 89.6812 47.8813 89.7483 47.9207 89.817C48.0396 90.0204 48.2344 90.1683 48.4624 90.2281C48.6903 90.2878 48.9326 90.2546 49.1361 90.1357C49.3395 90.0168 49.4874 89.8219 49.5471 89.594C49.6069 89.366 49.5737 89.1237 49.4547 88.9203C49.0325 88.2271 48.4485 87.6466 47.7528 87.2285C47.0935 86.8034 46.3399 86.5468 45.5582 86.4814C45.323 86.4826 45.0977 86.5766 44.9314 86.7429C44.7651 86.9092 44.6711 87.1345 44.6699 87.3697C44.6755 87.6036 44.7708 87.8263 44.9362 87.9917C45.1016 88.1572 45.3244 88.2525 45.5582 88.258V88.2594Z" fill="#211715"/>
<path d="M44.3392 91.1867C44.5362 91.2204 44.7285 91.2774 44.9121 91.3563L44.7003 91.2675C44.9279 91.3661 45.1426 91.492 45.3399 91.6424L45.1622 91.5034C45.3515 91.6495 45.5216 91.8188 45.6685 92.0075L45.5295 91.8276C45.6516 91.9883 45.7547 92.1625 45.8369 92.3468C45.9542 92.5475 46.1455 92.6942 46.3698 92.7554C46.6008 92.8169 46.8467 92.785 47.0543 92.6666C47.2538 92.5491 47.4001 92.3589 47.4624 92.1358L47.4944 91.8995C47.4947 91.742 47.4529 91.5873 47.3732 91.4514C47.0998 90.8811 46.6781 90.3948 46.1522 90.0434C45.9137 89.882 45.6577 89.7479 45.3892 89.6437C45.2053 89.5649 45.0129 89.508 44.8158 89.474C44.5845 89.4184 44.3408 89.4501 44.1313 89.5629C43.928 89.6818 43.7801 89.8766 43.7204 90.1045C43.6607 90.3324 43.694 90.5747 43.8129 90.7781C43.8696 90.8781 43.9457 90.9658 44.0369 91.0359C44.1281 91.106 44.2324 91.1571 44.3436 91.1862L44.3392 91.1867Z" fill="#211715"/>
<path d="M34.9294 91.0032C35.9509 93.0117 38.7997 93.4852 40.8299 93.4825C41.3758 93.4544 41.923 93.4692 42.4666 93.5269C42.9809 93.6082 43.334 93.9964 43.7466 94.282C44.7393 94.9739 46.3378 94.9682 46.9485 93.7694C47.4664 92.7527 45.9345 91.8525 45.4144 92.8727C45.37 92.9593 45.3127 92.9793 45.3935 92.9455C45.3429 92.9763 45.2838 92.9902 45.2248 92.985C45.0607 92.9716 44.9024 92.9182 44.7637 92.8296C44.4031 92.6075 44.1015 92.2966 43.7289 92.0914C42.8659 91.6157 41.7826 91.7001 40.8299 91.7014C39.9654 91.7029 39.1052 91.5794 38.276 91.3346C37.5334 91.1209 36.829 90.8207 36.4635 90.1021C35.9452 89.0805 34.4119 89.9808 34.9294 90.9988V91.0032Z" fill="#211715"/>
<path d="M46.9471 15.2745C45.5329 15.7825 44.1478 16.3677 42.7978 17.0276C42.1596 17.3269 41.524 17.6325 40.888 17.9341C40.7143 18.0158 40.2564 18.1317 40.1422 18.2818L40.0854 18.308C40.2861 18.2488 40.4046 18.311 40.4407 18.4946L40.5224 18.654L40.5544 18.4177C40.5719 18.2353 40.5711 18.0515 40.5522 17.8692C40.4762 17.0968 40.0983 16.3147 39.2446 16.2165C38.5082 16.1304 37.6621 16.7162 37.0496 17.0715C35.5994 17.9434 34.2287 18.9411 32.9532 20.0531C32.2555 20.6429 31.4671 21.211 31.1131 22.0829C30.8206 22.89 30.6076 23.7238 30.4771 24.5723C30.2652 25.6894 31.977 26.1682 32.1906 25.0445C32.2795 24.5728 32.3794 24.1042 32.4989 23.6392C32.5566 23.2321 32.6923 22.84 32.8986 22.4844C33.2082 22.143 33.5503 21.8327 33.9201 21.5579C34.3125 21.2206 34.7104 20.8906 35.114 20.5679C35.9141 19.9251 36.7539 19.3334 37.6284 18.7962C38.0405 18.5452 38.4625 18.3076 38.8977 18.1002C39.0008 18.0504 39.1044 18.0023 39.2086 17.9558C39.1292 17.9723 39.0469 17.9692 38.9689 17.9467C38.8909 17.9243 38.8195 17.8832 38.7609 17.827C38.7599 17.9834 38.7697 18.1397 38.7902 18.2947C38.7476 18.5154 38.7533 18.7426 38.807 18.9609C38.8607 19.1791 38.961 19.3831 39.1012 19.5588C39.2481 19.7266 39.4317 19.8585 39.6377 19.9441C39.8437 20.0298 40.0666 20.0669 40.2892 20.0527C41.035 20.0082 41.8882 19.4162 42.5544 19.0995C44.1346 18.3019 45.7595 17.5962 47.421 16.9858C48.4967 16.6189 48.0348 14.9023 46.9484 15.2727L46.9471 15.2745Z" fill="#211715"/>
<path d="M90.5199 13.4004C89.2356 14.8121 87.7758 16.0535 86.1761 17.0944C85.3349 17.6647 84.4745 18.2047 83.6156 18.7484C82.9161 19.1856 82.3647 19.8235 82.0331 20.5787C81.9217 20.7839 81.8927 21.0237 81.9519 21.2495C82.011 21.4753 82.1539 21.6701 82.3515 21.7944C82.5554 21.9116 82.7972 21.9439 83.0247 21.8842C83.2522 21.8245 83.4471 21.6777 83.5672 21.4755C83.7041 21.138 83.9041 20.8297 84.1565 20.5672C84.2205 20.5023 84.2898 20.4441 84.3551 20.3815C84.4337 20.3078 84.4066 20.3491 84.3395 20.3922C84.5243 20.2736 84.7113 20.1572 84.8974 20.04C85.7515 19.5021 86.6016 18.9576 87.429 18.3824C89.0244 17.3231 90.4836 16.0717 91.7737 14.6564C91.9352 14.4872 92.0253 14.2623 92.0253 14.0284C92.0253 13.7945 91.9352 13.5696 91.7737 13.4004C91.6061 13.2358 91.3806 13.1436 91.1457 13.1436C90.9108 13.1436 90.6852 13.2358 90.5176 13.4004H90.5199Z" fill="#211715"/>
<path d="M100.154 11.3563C98.5414 12.937 96.6463 14.2008 94.5671 15.0818C93.6627 15.4968 92.7216 15.8267 91.7561 16.0674C91.4304 16.1474 91.0966 16.1895 90.7612 16.1931C90.6368 16.1975 90.5122 16.187 90.3903 16.1616C90.3148 16.1429 90.1998 16.0612 90.2344 16.1136C89.6069 15.1631 88.0679 16.0514 88.7003 17.0103C89.9226 18.8611 92.8949 17.6575 94.4743 17.0316C97.0656 16.0508 99.4271 14.5465 101.411 12.6128C102.218 11.8009 100.963 10.5444 100.155 11.3563H100.154Z" fill="#211715"/>
<path d="M79.3011 57.1019C79.2971 59.3937 79.3375 61.6864 79.3979 63.9773C79.4117 66.5904 79.5656 69.2009 79.8589 71.7975C79.9223 72.0242 80.0727 72.2167 80.2773 72.3331C80.4819 72.4496 80.7242 72.4805 80.9515 72.4193C81.1755 72.3516 81.3649 72.2005 81.4807 71.9972C81.5964 71.7938 81.6296 71.5538 81.5733 71.3267C81.6009 71.5319 81.5569 71.1783 81.5529 71.1437C81.5391 71.0198 81.5262 70.8949 81.5138 70.7706C81.4869 70.492 81.4629 70.2132 81.4419 69.9343C81.3952 69.3249 81.3592 68.7146 81.3281 68.1044C81.2553 66.6831 81.2087 65.2591 81.1718 63.8361C81.1145 61.5927 81.075 59.3475 81.079 57.1032C81.079 55.96 79.3024 55.9582 79.3024 57.1032L79.3011 57.1019Z" fill="#211715"/>
<path d="M104.816 49.9958C105.042 53.0281 105.551 56.0523 105.342 59.1009C105.224 60.7416 104.966 62.3693 104.571 63.9661C104.353 64.7315 104.193 65.5123 104.094 66.3019C104.053 67.0376 104.07 67.7754 104.145 68.5084C104.223 69.6428 106 69.6517 105.922 68.5084C105.851 67.8032 105.832 67.0939 105.864 66.3859C105.977 65.5925 106.149 64.8086 106.378 64.0407C106.754 62.4161 107.002 60.7644 107.118 59.1009C107.328 56.0527 106.819 53.0285 106.593 49.9958C106.508 48.8628 104.731 48.8535 104.816 49.9958Z" fill="#211715"/>
<path d="M102.421 30.5358C102.568 31.4426 102.612 32.3634 102.551 33.2802C102.569 33.0958 102.542 33.337 102.535 33.3761C102.516 33.4862 102.493 33.5958 102.466 33.7048C102.417 33.8942 102.358 34.0807 102.288 34.2635C102.348 34.1018 102.25 34.343 102.244 34.3559C102.195 34.4549 102.141 34.5522 102.083 34.6464C102.039 34.717 101.994 34.7858 101.945 34.8529C102.043 34.717 101.841 34.9679 101.819 34.9924C101.652 35.159 101.559 35.385 101.559 35.6206C101.559 35.8562 101.652 36.0822 101.819 36.2489C101.985 36.4155 102.211 36.5091 102.447 36.5091C102.683 36.5091 102.909 36.4155 103.075 36.2489C103.724 35.5335 104.142 34.6391 104.275 33.6826C104.395 32.6351 104.369 31.5761 104.197 30.5358C104.191 30.3021 104.096 30.0796 103.93 29.9144C103.765 29.7491 103.543 29.6535 103.309 29.6475C102.878 29.667 102.358 30.0423 102.421 30.5358Z" fill="#211715"/>
<path d="M96.1076 28.6056C96.0561 28.6345 96.0028 28.6602 95.9504 28.6873C95.8451 28.7419 96.0121 28.6602 96.0348 28.6536C95.997 28.6647 95.9597 28.6824 95.9224 28.6957C95.7954 28.7405 95.666 28.7779 95.5347 28.8077C95.4577 28.8254 95.3804 28.841 95.3028 28.8543C95.2677 28.8601 95.2318 28.8632 95.1976 28.8707C95.2313 28.8636 95.3979 28.8481 95.274 28.8592C95.1221 28.8734 94.971 28.8845 94.8183 28.8854C94.6784 28.8862 94.5386 28.8797 94.3994 28.8659C94.1987 28.8454 94.5815 28.8978 94.387 28.8627C94.3164 28.8499 94.2458 28.8348 94.176 28.8161C94.1138 28.7997 94.0521 28.7806 93.9917 28.7588C93.9562 28.7459 93.9206 28.7264 93.8847 28.7171C93.9331 28.7299 94.0379 28.785 93.9317 28.7348C93.7097 28.63 93.4876 28.5336 93.2615 28.4395C93.1472 28.4078 93.0277 28.3993 92.9101 28.4146C92.7925 28.4299 92.6791 28.4685 92.5766 28.5283C92.3733 28.6472 92.2255 28.8421 92.1657 29.0699C92.106 29.2978 92.1393 29.5401 92.2582 29.7435C92.3859 29.9338 92.5723 30.0773 92.7889 30.1521C92.6934 30.1121 92.6721 30.1019 92.7792 30.1521L92.8938 30.205C92.9773 30.2436 93.0612 30.2822 93.1456 30.3187C93.3403 30.4096 93.5424 30.4838 93.7496 30.5407C94.117 30.6285 94.494 30.6689 94.8716 30.6611C95.6141 30.664 96.3461 30.485 97.0035 30.1397C97.2069 30.0208 97.3548 29.8259 97.4145 29.598C97.4743 29.37 97.4411 29.1277 97.3222 28.9243C97.2032 28.7208 97.0084 28.573 96.7804 28.5132C96.5525 28.4534 96.3102 28.4867 96.1067 28.6056H96.1076Z" fill="#211715"/>
<path d="M88.9228 21.5755C88.7718 22.2151 88.9925 23.6484 90.1881 23.6923C91.7569 23.5791 91.7253 21.8305 91.1426 21.0456C90.6656 20.4034 89.3754 20.2084 88.9228 21.5755Z" fill="#211715"/>
<path d="M98.3464 20.67C98.2083 21.3029 98.4157 22.7224 99.519 22.769C100.966 22.6602 100.932 20.9289 100.393 20.1485C99.9516 19.5152 98.7608 19.3193 98.3464 20.67Z" fill="#211715"/>
<path d="M94.9197 24.7048C95.0352 24.8825 95.1474 25.0629 95.2564 25.2462C95.3792 25.4404 95.4909 25.6415 95.5908 25.8485L95.502 25.6362C95.5226 25.6837 95.5375 25.7335 95.5464 25.7845L95.5144 25.5487C95.5167 25.5723 95.5167 25.5961 95.5144 25.6197L95.546 25.3835C95.5443 25.3986 95.5407 25.4136 95.5353 25.4279L95.6241 25.216C95.6188 25.2305 95.6117 25.2442 95.6028 25.2569L95.7418 25.0792C95.7046 25.1248 95.6623 25.1659 95.6157 25.2018L95.7956 25.0628C95.7567 25.0915 95.7149 25.1159 95.6708 25.1356L95.8831 25.0468C95.8232 25.0699 95.7607 25.0855 95.697 25.0934L95.9333 25.0615C95.8169 25.0766 95.6997 25.0877 95.5842 25.1094C95.3611 25.1716 95.1708 25.318 95.0534 25.5176C94.9345 25.721 94.9013 25.9633 94.961 26.1911C95.0207 26.419 95.1685 26.6139 95.3719 26.7328L95.5842 26.8216C95.7387 26.8638 95.9018 26.8638 96.0563 26.8216C96.0719 26.8185 96.0874 26.8163 96.1029 26.8141L95.8671 26.8456C96.0256 26.8359 96.1827 26.8096 96.3357 26.767C96.5718 26.6891 96.7859 26.5558 96.9602 26.3784C97.0979 26.2435 97.1981 26.0751 97.2511 25.8898C97.3007 25.7008 97.3033 25.5026 97.2586 25.3124C97.216 25.1362 97.147 24.9674 97.0539 24.8118C96.8718 24.4676 96.6661 24.135 96.4543 23.8081C96.3336 23.6113 96.1446 23.466 95.9235 23.3999C95.6926 23.3382 95.4466 23.3701 95.2391 23.4887C95.1383 23.5476 95.0502 23.6257 94.9796 23.7186C94.9091 23.8115 94.8575 23.9174 94.8279 24.0303C94.7983 24.1431 94.7912 24.2607 94.807 24.3763C94.8229 24.4918 94.8613 24.6032 94.9202 24.7039L94.9197 24.7048Z" fill="#211715"/>
<path d="M45.8442 32.8783C45.7896 32.9103 45.735 32.9414 45.6786 32.9672C45.6476 32.979 45.6178 32.9939 45.5897 33.0116C45.727 32.9041 45.7265 32.9561 45.6373 32.9903C45.5033 33.0409 45.3666 33.0839 45.2278 33.1191C45.0723 33.1586 44.9129 33.1764 44.7574 33.2123C44.7983 33.203 44.9457 33.191 44.8231 33.2021L44.709 33.2132C44.6237 33.2203 44.538 33.2248 44.4523 33.2274C44.3041 33.232 44.1559 33.2286 44.0081 33.2172C43.9721 33.2141 43.9362 33.2092 43.9002 33.207C43.7838 33.1995 44.0912 33.2399 43.9784 33.2181C43.9033 33.2035 43.8278 33.1919 43.7527 33.1737C43.6861 33.1577 43.6195 33.1391 43.5551 33.1173C43.4907 33.0955 43.381 33.0236 43.3219 33.0285L43.4139 33.0667L43.3224 33.0271L43.1993 32.9738C43.0568 32.913 42.9142 32.8521 42.7694 32.7962C42.5421 32.7345 42.2996 32.7653 42.0949 32.8818C41.8902 32.9983 41.7399 33.1911 41.6768 33.418C41.621 33.6451 41.6544 33.8849 41.77 34.0881C41.8857 34.2914 42.0749 34.4426 42.2986 34.5106C42.3235 34.5204 42.4998 34.5945 42.379 34.5417L42.427 34.563C42.5682 34.6238 42.709 34.6851 42.8511 34.7433C43.0062 34.8092 43.1667 34.8617 43.3308 34.9001C43.7186 34.9848 44.1156 35.0197 44.5122 35.004C45.293 34.9921 46.059 34.7897 46.7436 34.4142C46.8444 34.3554 46.9325 34.2772 47.0031 34.1843C47.0736 34.0914 47.1252 33.9855 47.1548 33.8727C47.1844 33.7598 47.1915 33.6422 47.1757 33.5267C47.1598 33.4111 47.1214 33.2997 47.0625 33.199C47.0037 33.0983 46.9256 33.0101 46.8327 32.9396C46.7397 32.869 46.6338 32.8175 46.521 32.7879C46.4082 32.7583 46.2906 32.7512 46.175 32.767C46.0594 32.7828 45.9481 32.8213 45.8473 32.8801L45.8442 32.8783Z" fill="#211715"/>
<path d="M38.1912 25.4904C38.03 26.1717 38.2658 27.6983 39.5388 27.7449C41.2097 27.6245 41.1755 25.7622 40.5554 24.9263C40.0473 24.2423 38.6731 24.0349 38.1912 25.4904Z" fill="#211715"/>
<path d="M48.2295 24.5344C48.0834 25.1948 48.3023 26.6765 49.4704 26.7245C51.0028 26.6108 50.9677 24.804 50.3969 23.9921C49.9297 23.3285 48.6688 23.1246 48.2295 24.5344Z" fill="#211715"/>
<path d="M44.6201 28.6651C44.7503 28.8557 44.876 29.0489 44.999 29.2425C45.1395 29.4492 45.2649 29.6658 45.3743 29.8906L45.2855 29.6783C45.3031 29.7211 45.3161 29.7658 45.3241 29.8115L45.2926 29.5752C45.2955 29.6003 45.2963 29.6255 45.2948 29.6507L45.3263 29.4149C45.3228 29.439 45.3161 29.4626 45.3063 29.485L45.3952 29.2727C45.3878 29.2887 45.3784 29.3036 45.3672 29.3172L45.5058 29.1373C45.4702 29.1776 45.4316 29.2152 45.3903 29.2496L45.5702 29.1111C45.5236 29.147 45.4728 29.1768 45.4187 29.1999L45.6306 29.1111C45.534 29.1411 45.435 29.1629 45.3348 29.1764C45.1662 29.2227 45.015 29.3179 44.9003 29.4498C44.7855 29.5817 44.7122 29.7445 44.6896 29.9179C44.667 30.0913 44.696 30.2675 44.7731 30.4244C44.8502 30.5814 44.9719 30.7121 45.1229 30.8002C45.3325 30.9125 45.576 30.9441 45.8073 30.889C45.893 30.877 45.978 30.8602 46.0618 30.8388C46.2977 30.7646 46.5134 30.6371 46.6921 30.4662C46.8166 30.3551 46.9149 30.2179 46.9799 30.0643C47.045 29.9107 47.0752 29.7445 47.0683 29.5779C47.0441 29.3175 46.9615 29.066 46.8267 28.8419C46.621 28.4746 46.391 28.1197 46.1538 27.772C46.0325 27.5758 45.8437 27.4307 45.623 27.3638C45.3921 27.302 45.1461 27.334 44.9386 27.4526C44.7387 27.5708 44.5924 27.7618 44.5304 27.9856C44.4987 28.0998 44.4902 28.2193 44.5054 28.3368C44.5207 28.4544 44.5594 28.5677 44.6192 28.67L44.6201 28.6651Z" fill="#211715"/>
<path d="M81.4295 39.1274C84.534 40.9713 88.0941 41.906 91.704 41.8252C94.905 41.7621 98.185 40.9471 100.238 38.3071C100.398 38.1371 100.487 37.9125 100.487 37.6791C100.487 37.4457 100.398 37.2211 100.238 37.051C100.071 36.8857 99.845 36.793 99.6098 36.793C99.3747 36.793 99.149 36.8857 98.9818 37.051C97.1657 39.3859 94.3742 40.0175 91.545 40.0513C88.3035 40.1027 85.1115 39.2513 82.3262 37.5925C81.342 37.0053 80.4474 38.5407 81.4295 39.1266V39.1274Z" fill="#211715"/>
<path d="M71.9445 74.9925C71.7598 72.0318 71.6687 69.0653 71.5972 66.1002C71.5355 63.5525 71.4471 61.0018 71.5861 58.4555C71.7046 55.8408 72.0059 53.2377 72.4877 50.6651C72.8811 48.4524 73.7566 46.3534 75.0523 44.5172C76.6858 42.2831 79.0891 40.7006 81.3516 39.1749C82.2941 38.5389 81.4063 36.9986 80.4549 37.6408C78.2697 39.1145 76.0085 40.6282 74.2839 42.6486C72.7175 44.5051 71.6018 46.6988 71.0243 49.0581C69.7656 54.1454 69.6785 59.4957 69.7887 64.7037C69.8615 68.1344 69.9543 71.5672 70.1679 74.9925C70.239 76.1282 72.0161 76.1362 71.9445 74.9925Z" fill="#211715"/>
<path d="M100.279 38.6446C101.891 39.1213 103.411 39.8708 104.77 40.8605C106.347 42.1623 107.56 43.8496 108.292 45.7586C110.045 49.9673 110.538 54.5803 111.372 59.0244C111.876 61.7102 112.433 64.3853 112.944 67.0697C113.158 68.1912 114.87 67.7164 114.658 66.5972C114.191 64.1464 113.685 61.7035 113.218 59.2527C112.756 56.829 112.39 54.3871 111.905 51.9687C111.041 47.6649 109.794 42.8134 106.315 39.8434C104.667 38.5209 102.777 37.5324 100.751 36.9333C99.6635 36.5727 99.1963 38.2875 100.279 38.6464V38.6446Z" fill="#211715"/>
<path d="M95.7866 35.8846C95.8392 36.2905 96.0314 36.6655 96.3302 36.9452C96.6042 37.1904 96.8933 37.4181 97.1958 37.627C97.7369 37.9989 98.3211 38.3037 98.9356 38.5348C99.0499 38.5661 99.1692 38.5744 99.2867 38.5591C99.4042 38.5439 99.5175 38.5054 99.62 38.446C99.7208 38.3871 99.809 38.309 99.8796 38.2161C99.9502 38.1231 100.002 38.0171 100.031 37.9043C100.061 37.7914 100.068 37.6737 100.052 37.5581C100.036 37.4425 99.9978 37.3311 99.9389 37.2303C99.8123 37.0381 99.6245 36.8943 99.4059 36.8222C99.3387 36.7958 99.2718 36.7689 99.2052 36.7413L99.4175 36.8302C98.8472 36.5861 98.31 36.2711 97.8185 35.8926L97.9984 36.0311C97.7944 35.8892 97.608 35.7234 97.4432 35.5372L97.5823 35.7171C97.5495 35.671 97.5208 35.6221 97.4965 35.571L97.5854 35.7833C97.5416 35.6635 97.5118 35.5391 97.4965 35.4124C97.4354 35.1882 97.2889 34.9969 97.0884 34.8795C96.9876 34.8205 96.8763 34.782 96.7607 34.7661C96.6451 34.7502 96.5274 34.7572 96.4146 34.7868C96.3017 34.8164 96.1957 34.8679 96.1027 34.9385C96.0098 35.009 95.9316 35.0972 95.8727 35.1979L95.7839 35.4102C95.7413 35.5647 95.7413 35.7279 95.7839 35.8824L95.7866 35.8846Z" fill="#211715"/>
<path d="M11.274 62.2147C9.42799 62.7808 7.85731 64.0109 6.86535 65.6675C5.95466 67.3262 5.65074 69.2505 6.00592 71.1092C6.55962 74.8036 7.10415 78.4995 7.6395 82.1969C7.87638 83.8142 8.11429 85.4311 8.35325 87.0475C8.41677 87.2742 8.56715 87.4666 8.77172 87.583C8.9763 87.6994 9.21855 87.7304 9.44586 87.6693C9.67003 87.6019 9.85967 87.4509 9.97544 87.2475C10.0912 87.044 10.1242 86.8038 10.0677 86.5767C9.6167 83.5473 9.17167 80.5169 8.73255 77.4854C8.47376 75.7215 8.21378 73.9578 7.95262 72.1943C7.719 70.6215 7.41965 69.107 7.94552 67.5551C8.25341 66.6965 8.75747 65.9217 9.41759 65.2923C10.0777 64.6629 10.8756 64.1962 11.7479 63.9295C12.8312 63.5795 12.3697 61.8638 11.2753 62.2164L11.274 62.2147Z" fill="#211715"/>
<path d="M157.098 45.8191C157.648 45.8 158.199 45.8093 158.748 45.8111H159.161H159.272C159.372 45.8138 159.344 45.8076 159.186 45.7925C159.1 45.7693 159.022 45.7232 158.961 45.6592C158.879 45.5393 158.862 45.5184 158.911 45.5979C158.865 45.5243 158.842 45.438 158.847 45.351C158.848 45.3939 158.847 45.437 158.843 45.4798C158.83 45.5479 158.824 45.6171 158.825 45.6863C158.844 45.5584 158.845 45.5433 158.83 45.6419C158.823 45.6819 158.816 45.7214 158.808 45.7609C158.793 45.8351 158.775 45.9093 158.754 45.983C158.733 46.0567 158.712 46.1194 158.688 46.1864C158.676 46.2184 158.663 46.2508 158.651 46.2828C158.708 46.149 158.718 46.1248 158.68 46.2104C158.63 46.3161 158.58 46.4214 158.525 46.5253C158.405 46.7563 158.289 46.9903 158.167 47.2204C158.104 47.3374 158.034 47.4509 157.958 47.5602C157.917 47.6194 157.875 47.6786 157.833 47.7378C157.797 47.7871 157.674 47.9106 157.841 47.7307C157.705 47.9024 157.559 48.0666 157.405 48.2224C157.24 48.3896 157.147 48.6153 157.147 48.8504C157.147 49.0856 157.24 49.3113 157.405 49.4785C157.575 49.6399 157.8 49.7299 158.034 49.7299C158.267 49.7299 158.492 49.6399 158.662 49.4785C159.013 49.1447 159.317 48.7638 159.565 48.3468C159.806 47.9565 160.019 47.5499 160.204 47.1298C160.334 46.8615 160.436 46.5805 160.509 46.2912C160.623 45.8924 160.65 45.4732 160.585 45.0632C160.531 44.8367 160.42 44.6281 160.262 44.4576C160.103 44.2872 159.903 44.1608 159.682 44.0909C159.375 44.0288 159.061 44.0107 158.749 44.0372C158.199 44.0372 157.649 44.0261 157.099 44.0452C156.864 44.0452 156.638 44.1388 156.471 44.3054C156.305 44.4719 156.211 44.6979 156.211 44.9335C156.211 45.1691 156.305 45.395 156.471 45.5616C156.638 45.7282 156.864 45.8218 157.099 45.8218L157.098 45.8191Z" fill="#211715"/>
<path d="M157.417 51.4026C157.902 52.3782 158.59 53.2391 159.434 53.928C160.428 54.6644 161.556 55.2014 162.754 55.5096C165.439 56.302 168.28 56.3985 171.012 55.7899C172.129 55.5509 171.657 53.8378 170.54 54.0768C168.171 54.5957 165.71 54.5151 163.38 53.8423C162.421 53.6159 161.51 53.2195 160.69 52.672C159.951 52.0932 159.356 51.352 158.951 50.5058C158.439 49.4843 156.908 50.3824 157.417 51.4026Z" fill="#211715"/>
<path d="M159.782 26.3495C159.231 27.9083 158.832 29.5164 158.589 31.1516C158.329 32.6231 158.215 34.2549 157.339 35.5123C156.613 36.5542 155.635 37.4457 155.364 38.7403C155.262 39.4079 155.318 40.0902 155.529 40.7319C155.688 41.3886 155.795 42.0569 155.849 42.7306C155.855 42.9642 155.951 43.1865 156.116 43.3518C156.281 43.517 156.504 43.6126 156.737 43.6189C156.972 43.6173 157.197 43.5231 157.364 43.3569C157.53 43.1907 157.624 42.9657 157.625 42.7306C157.586 42.0601 157.499 41.3931 157.367 40.7346C157.233 40.1927 156.984 39.6215 157.112 39.061C157.379 37.8885 158.533 37.0233 159.125 36.0164C159.912 34.6764 160.055 33.0237 160.32 31.522C160.559 29.9207 160.952 28.346 161.493 26.8198C161.553 26.5925 161.522 26.3503 161.406 26.1458C161.29 25.9412 161.097 25.7907 160.871 25.7268C160.644 25.6695 160.403 25.7022 160.2 25.8181C159.996 25.934 159.845 26.124 159.778 26.3486L159.782 26.3495Z" fill="#211715"/>
<path d="M168.858 55.9745C169.205 56.5439 169.518 57.1339 169.794 57.7414C169.864 57.8924 169.933 58.0441 170.001 58.1966C170.032 58.2659 170.062 58.3356 170.093 58.4054C170.109 58.4427 170.125 58.4804 170.141 58.5182C170.157 58.5559 170.214 58.6892 170.153 58.5444C170.092 58.3996 170.178 58.6061 170.197 58.6501C170.224 58.7158 170.251 58.7819 170.278 58.8482C170.322 58.9641 170.367 59.08 170.411 59.1968C170.442 59.3093 170.495 59.4146 170.567 59.5066C170.638 59.5987 170.727 59.6757 170.829 59.7333C170.93 59.7909 171.042 59.8279 171.158 59.8423C171.274 59.8567 171.391 59.8481 171.504 59.8171C171.616 59.7861 171.722 59.7332 171.814 59.6615C171.906 59.5898 171.983 59.5006 172.04 59.3991C172.098 59.2977 172.135 59.1858 172.149 59.07C172.164 58.9543 172.155 58.8368 172.124 58.7243C171.673 57.4529 171.092 56.231 170.392 55.0778C170.273 54.8744 170.078 54.7265 169.85 54.6667C169.622 54.607 169.38 54.6402 169.176 54.7591C168.973 54.878 168.825 55.0729 168.765 55.3008C168.706 55.5288 168.739 55.7711 168.858 55.9745Z" fill="#211715"/>
<path d="M173.404 47.6329C176.079 51.4238 179.863 55.1653 184.683 55.72C184.918 55.7186 185.143 55.6246 185.309 55.4583C185.475 55.292 185.569 55.0669 185.571 54.8317C185.565 54.5978 185.47 54.3749 185.305 54.2095C185.139 54.044 184.916 53.9487 184.683 53.9434C180.573 53.4704 177.189 49.9265 174.938 46.7362C174.815 46.5375 174.62 46.3937 174.394 46.3345C174.168 46.2752 173.927 46.305 173.723 46.4177C173.521 46.538 173.374 46.7328 173.314 46.9601C173.255 47.1874 173.287 47.429 173.404 47.6329Z" fill="#211715"/>
<path d="M171.868 38.2022C172.515 37.3619 174.115 36.9768 174.968 37.4649C174.992 37.4787 175.235 37.6381 175.14 37.5671C175.065 37.512 175.348 37.7572 175.389 37.8011C175.57 38.0006 175.724 38.2236 175.846 38.4642C176.145 39.035 176.337 39.6558 176.412 40.2959C176.718 42.8076 175.323 45.6923 172.673 46.1378C172.447 46.2017 172.255 46.3522 172.138 46.5566C172.022 46.7611 171.991 47.0031 172.051 47.2304C172.118 47.4549 172.269 47.6449 172.473 47.7608C172.677 47.8766 172.917 47.9094 173.144 47.8522C176.235 47.3326 177.85 44.4403 178.18 41.5595C178.436 39.3201 177.412 36.0796 174.907 35.5746C174.059 35.4145 173.183 35.4914 172.376 35.7971C171.569 36.1027 170.862 36.6251 170.332 37.3068C170.215 37.5105 170.182 37.7524 170.242 37.9799C170.302 38.2074 170.449 38.4022 170.651 38.522C170.856 38.635 171.096 38.665 171.323 38.6057C171.549 38.5464 171.744 38.4024 171.867 38.2035L171.868 38.2022Z" fill="#211715"/>
<path d="M159.13 35.68C158.827 36.4493 158.746 38.2863 160.009 38.5812C161.705 38.7535 162.057 36.5603 161.61 35.4624C161.244 34.5634 159.913 34.0611 159.13 35.68Z" fill="#211715"/>
<path d="M161.404 27.0321C162.229 25.0343 163.414 23.2051 164.9 21.6357C166.462 20.1305 168.342 18.995 170.401 18.313C174.819 16.7236 179.642 16.6657 184.097 18.1487C188.405 19.6588 191.712 23.1045 193.868 27.0486C195.26 29.5352 196.066 32.3062 196.227 35.1512C196.302 37.9233 195.732 40.6749 194.559 43.1881C193.501 45.5133 192.057 47.6431 190.29 49.4879C188.356 51.5034 186.1 53.3662 185.016 56.0169C184.955 56.2442 184.986 56.4865 185.102 56.691C185.219 56.8956 185.411 57.046 185.638 57.1095C185.865 57.1662 186.105 57.1332 186.309 57.0175C186.512 56.9017 186.664 56.712 186.731 56.4877C187.684 54.1568 189.899 52.4717 191.592 50.6982C193.271 48.9424 194.678 46.9451 195.767 44.7728C197.071 42.2041 197.831 39.3941 198 36.5183C198.085 33.3999 197.425 30.3062 196.076 27.4936C194.013 22.9744 190.394 18.8771 185.772 16.906C181.326 15.009 176.23 14.8682 171.583 16.0901C168.879 16.7445 166.366 18.0204 164.241 19.8165C162.35 21.5868 160.86 23.7415 159.871 26.1359C159.76 26.3409 159.731 26.5809 159.79 26.8067C159.849 27.0326 159.992 27.2273 160.19 27.351C160.394 27.4681 160.636 27.5003 160.863 27.4407C161.091 27.381 161.285 27.2342 161.405 27.0321H161.404Z" fill="#211715"/>
<path d="M190.538 63.7583C194.07 64.7798 196.525 67.8715 198.089 71.0503C199.954 74.8482 200.315 78.9819 200.238 83.1561C200.2 85.9197 200.022 88.6796 199.705 91.4252C199.706 91.6604 199.8 91.8856 199.966 92.0519C200.133 92.2182 200.358 92.3122 200.593 92.3135C200.827 92.308 201.05 92.2126 201.215 92.0472C201.38 91.8818 201.476 91.6591 201.481 91.4252C201.792 88.8323 201.945 86.2624 202.004 83.6526C202.108 81.2134 201.982 78.7699 201.628 76.3544C201 72.381 199.254 68.6684 196.594 65.6504C195.102 63.9575 193.171 62.7104 191.014 62.047C189.913 61.729 189.443 63.4429 190.541 63.7601L190.538 63.7583Z" fill="#211715"/>
<path d="M191.539 62.4539C191.293 61.9036 190.996 61.0673 190.74 60.3913C190.407 59.507 190.073 58.6231 189.688 57.7593C189.411 56.9726 188.925 56.2763 188.282 55.7451C187.324 55.085 185.777 55.3418 184.684 55.4173C180.049 55.7379 175.096 56.9642 171.295 59.7411C169.298 61.1205 167.688 62.9884 166.618 65.1668C166.506 65.3718 166.477 65.612 166.536 65.838C166.595 66.064 166.739 66.2588 166.937 66.3824C167.141 66.4994 167.382 66.5315 167.61 66.4719C167.837 66.4122 168.032 66.2655 168.152 66.0635C169.715 62.6476 173.066 60.191 176.535 58.9407C178.734 58.1454 181.015 57.6019 183.336 57.3205C184.53 57.1362 185.739 57.0745 186.946 57.1361C187.59 57.1956 187.866 58.0138 188.104 58.5401C188.815 60.1115 189.3 61.7762 190.005 63.3507C190.125 63.5528 190.32 63.6995 190.547 63.7591C190.774 63.8187 191.016 63.7864 191.22 63.6691C191.419 63.5465 191.563 63.3517 191.623 63.1254C191.682 62.8991 191.652 62.6586 191.539 62.4539H191.539Z" fill="#211715"/>
<path d="M185.504 61.71C181.525 61.764 177.57 62.3482 173.745 63.4471C170.014 64.4848 166.403 65.914 162.973 67.7109C159.88 69.279 157.218 71.5798 155.218 74.4127C153.187 77.4054 152.239 80.9528 151.61 84.4722C151.255 86.4554 150.989 88.4527 150.636 90.4363C150.463 91.4112 150.243 92.3759 150.054 93.3477C149.894 94.4289 149.607 95.4874 149.198 96.5011C149.086 96.7061 149.057 96.9462 149.116 97.1722C149.175 97.3981 149.319 97.5928 149.517 97.7163C149.721 97.8333 149.963 97.8655 150.19 97.806C150.417 97.7464 150.612 97.5998 150.732 97.3979C151.499 95.7194 151.775 93.8687 152.131 92.0681C152.469 90.3634 152.719 88.6432 152.992 86.9275C153.525 83.5577 154.134 80.1 155.72 77.0412C157.319 74.0668 159.721 71.6012 162.652 69.925C165.85 68.0943 169.248 66.6388 172.779 65.5874C176.894 64.2626 181.182 63.5546 185.504 63.4866C186.647 63.4751 186.65 61.6985 185.504 61.71Z" fill="#211715"/>
<path d="M150.715 97.8372C148.087 95.5552 145.696 93.0484 143.308 90.5203C142.19 89.3367 140.894 87.3766 139.001 88.0522C137.598 88.5532 136.284 89.6902 135.191 90.6727C133.104 92.52 131.347 94.7091 129.995 97.1462C129.759 97.5656 129.558 98.0035 129.394 98.4555C129.119 99.255 129.514 99.811 129.927 100.468C130.8 101.858 131.708 103.226 132.64 104.577C136.159 109.681 139.948 114.89 145.534 117.889C148.472 119.466 151.797 120.319 155.131 119.866C158.388 119.422 161.337 117.382 163.22 114.734C165.077 112.122 165.92 108.778 166.78 105.736C167.833 102.055 168.619 98.3034 169.129 94.5092C169.249 93.5913 169.348 92.6712 169.425 91.7489C169.52 90.6092 167.743 90.6158 167.648 91.7489C167.333 95.2432 166.748 98.7078 165.896 102.111C165.143 105.206 164.325 108.397 163.071 111.333C162.009 113.935 160.033 116.058 157.513 117.303C154.762 118.649 151.531 118.388 148.715 117.382C143.263 115.433 139.391 110.911 136.083 106.374C135.168 105.12 134.278 103.85 133.411 102.562C132.999 101.951 132.593 101.336 132.192 100.717C131.991 100.407 131.792 100.096 131.594 99.784C131.506 99.6436 131.417 99.5031 131.328 99.3625C131.279 99.2856 131.045 98.9077 131.064 99.0071C131.082 99.1066 131.104 98.9299 131.133 98.8548C131.188 98.7078 131.105 98.9085 131.174 98.7549C131.26 98.5617 131.351 98.3716 131.452 98.1841C131.691 97.728 131.956 97.2861 132.236 96.8517C132.925 95.7915 133.694 94.7864 134.539 93.8452C135.46 92.7896 136.483 91.8277 137.594 90.9734C138.143 90.5585 138.722 90.1843 139.326 89.8537C140.055 89.457 140.421 90.0646 140.902 90.5683C143.082 92.8517 145.207 95.1906 147.514 97.3478C148.151 97.9421 148.798 98.5241 149.456 99.0937C150.316 99.8399 151.578 98.5888 150.712 97.8372H150.715Z" fill="#211715"/>
<path d="M124.331 83.7877C121.142 84.1134 117.95 84.4161 114.756 84.6956C113.053 84.8484 111.344 85.0065 109.656 85.2907C108.231 85.5301 106.887 85.9703 106.416 87.5008C105.922 89.1038 106.971 90.4544 108.574 90.6703C108.801 90.7249 109.041 90.6911 109.244 90.5756C109.447 90.4601 109.598 90.2716 109.667 90.0485C109.728 89.8211 109.697 89.5788 109.581 89.3742C109.464 89.1696 109.272 89.0191 109.045 88.9554C108.78 88.9413 108.521 88.8722 108.284 88.7524C108.221 88.7172 108.166 88.6689 108.122 88.6108C108.132 88.6219 108.097 88.541 108.093 88.5313C108.062 88.3962 108.057 88.2562 108.081 88.1195C108.105 87.9828 108.156 87.8523 108.231 87.7358C108.379 87.5561 108.562 87.4093 108.77 87.3047C108.978 87.2002 109.205 87.1402 109.438 87.1286C109.997 87.0158 110.561 86.9265 111.126 86.851C113.855 86.4864 116.611 86.3109 119.352 86.0516C121.012 85.8952 122.671 85.7316 124.329 85.5608C124.563 85.5545 124.785 85.4589 124.95 85.2936C125.116 85.1284 125.211 84.9061 125.218 84.6725C125.216 84.4374 125.122 84.2124 124.956 84.0462C124.789 83.8799 124.564 83.7858 124.329 83.7842L124.331 83.7877Z" fill="#211715"/>
<path d="M119.083 88.0981C117.087 88.1545 115.092 88.2527 113.104 88.4379C112.158 88.5267 111.212 88.6244 110.27 88.7443C109.36 88.7937 108.497 89.1654 107.836 89.793C106.682 91.061 107.326 92.9144 108.818 93.5278C109.631 93.8079 110.501 93.8831 111.35 93.7468C112.186 93.6695 113.021 93.6002 113.858 93.534C115.679 93.3897 117.5 93.2542 119.321 93.161C120.459 93.1028 120.465 91.3257 119.321 91.3844C116.546 91.5265 113.773 91.7494 111.006 92.0026C110.461 92.0524 109.741 92.1216 109.264 91.777C109.199 91.74 109.144 91.6893 109.1 91.6282C109.057 91.5672 109.028 91.4975 109.015 91.424C109.002 91.3505 109.006 91.275 109.025 91.2029C109.044 91.1308 109.079 91.0639 109.128 91.0068C109.499 90.5507 110.297 90.5183 110.825 90.4552C111.641 90.3601 112.458 90.2731 113.276 90.1989C115.208 90.0213 117.145 89.9293 119.084 89.8747C120.225 89.8427 120.23 88.0657 119.084 88.0981H119.083Z" fill="#211715"/>
<path d="M111.715 91.9836C110.658 92.4029 109.793 93.5306 110.187 94.7102C110.353 95.1696 110.658 95.5663 111.059 95.846C111.46 96.1257 111.937 96.2747 112.426 96.2728C113.821 96.3496 115.233 96.2941 116.629 96.2728C117.388 96.2608 118.148 96.2475 118.906 96.2212C120.046 96.1817 120.052 94.4047 118.906 94.4446C117.338 94.4993 115.767 94.5157 114.198 94.5188C113.593 94.5188 112.99 94.5051 112.385 94.4944C112.351 94.4944 112.317 94.4908 112.283 94.4873C112.55 94.5126 112.146 94.4469 112.16 94.4526C112.101 94.4318 112.048 94.3997 112.002 94.3581C111.957 94.3166 111.919 94.2664 111.893 94.2106C111.877 94.1801 111.869 94.1456 111.87 94.111C111.872 94.0763 111.883 94.0427 111.902 94.0138C111.968 93.885 112.067 93.7758 112.188 93.6971C112.412 93.6289 112.601 93.4777 112.717 93.2745C112.832 93.0714 112.866 92.8316 112.81 92.6045C112.747 92.3779 112.596 92.1856 112.392 92.0692C112.187 91.9528 111.945 91.9217 111.718 91.9827L111.715 91.9836Z" fill="#211715"/>
<path d="M115.592 97.1441C117.901 97.1712 120.214 97.2441 122.526 97.2747C123.395 97.2863 124.263 97.3067 125.13 97.3658C125.892 97.3765 126.647 97.5012 127.372 97.7357C127.6 97.7966 127.842 97.7655 128.046 97.6491C128.251 97.5327 128.401 97.3405 128.465 97.1139C128.522 96.8868 128.489 96.6463 128.373 96.4428C128.258 96.2392 128.068 96.0882 127.843 96.0213C127.055 95.7679 126.235 95.6288 125.408 95.6083C124.487 95.5359 123.562 95.5119 122.639 95.4986C120.289 95.4648 117.94 95.3942 115.59 95.3653C114.447 95.3515 114.446 97.1281 115.59 97.1419L115.592 97.1441Z" fill="#211715"/>
<path d="M167.289 33.4383C167.338 33.4992 167.387 33.5605 167.436 33.6222C167.447 33.6352 167.458 33.649 167.467 33.6635C167.55 33.7731 167.631 33.8837 167.711 33.9953C167.867 34.2117 168.017 34.4315 168.163 34.6544C168.441 35.0804 168.701 35.5174 168.947 35.962C169.337 36.6655 169.684 37.3904 170.049 38.1072C170.169 38.3094 170.364 38.4562 170.592 38.5158C170.819 38.5754 171.061 38.5431 171.265 38.4257C171.464 38.303 171.608 38.1083 171.667 37.8819C171.727 37.6556 171.697 37.4151 171.583 37.2105C171.206 36.4705 170.848 35.7226 170.443 34.9973C169.891 34.0071 169.256 33.0653 168.545 32.1818C168.378 32.016 168.152 31.9229 167.917 31.9229C167.682 31.9229 167.456 32.016 167.289 32.1818C167.128 32.3516 167.039 32.5764 167.039 32.8101C167.039 33.0437 167.128 33.2685 167.289 33.4383Z" fill="#211715"/>
<path d="M160.538 30.6929C162.948 31.0402 165.447 31.9121 167.289 33.4377C167.459 33.5984 167.684 33.688 167.917 33.688C168.151 33.688 168.376 33.5984 168.545 33.4377C168.71 33.2702 168.803 33.0446 168.803 32.8095C168.803 32.5744 168.71 32.3487 168.545 32.1812C166.375 30.4445 163.769 29.3371 161.012 28.9798C160.785 28.9249 160.545 28.9587 160.342 29.0742C160.139 29.1897 159.988 29.3784 159.919 29.6016C159.858 29.8289 159.889 30.0711 160.006 30.2756C160.122 30.4801 160.314 30.6305 160.541 30.6942L160.538 30.6929Z" fill="#211715"/>
<path d="M178.043 127.895C178.043 122.192 178.106 116.49 178.158 110.787C178.172 109.217 178.184 107.649 178.194 106.081C178.2 105.202 178.205 104.322 178.21 103.443C178.168 102.677 178.232 101.91 178.399 101.162C178.752 99.9277 179.578 98.8831 180.697 98.2546C181.279 97.9643 181.894 97.7429 182.527 97.595C183.23 97.3922 183.934 97.1888 184.637 96.9848C190.796 95.202 196.952 93.4123 203.106 91.6159C204.468 91.2197 205.853 90.6943 207.247 90.4296C207.827 90.3284 208.423 90.3724 208.983 90.5579C209.542 90.7434 210.046 91.0644 210.451 91.4924C211.498 92.5859 211.421 93.9353 211.412 95.3503C211.401 96.9235 211.386 98.4968 211.367 100.07C211.318 103.981 211.206 107.892 211.189 111.804C211.187 112.331 211.186 112.859 211.186 113.386C211.186 114.529 212.962 114.531 212.962 113.386C212.962 109.361 213.071 105.337 213.129 101.313C213.151 99.7877 213.168 98.2627 213.181 96.7378C213.195 95.0723 213.415 93.301 212.724 91.7376C212.133 90.4449 211.054 89.4388 209.724 88.9395C208.258 88.3754 206.871 88.673 205.421 89.0949C199.052 90.947 192.683 92.7993 186.315 94.6517C184.846 95.078 183.377 95.5034 181.907 95.9277C180.472 96.3421 179.161 96.9102 178.147 98.053C177.137 99.1893 176.539 100.634 176.451 102.152C176.346 103.953 176.424 105.783 176.411 107.588C176.366 113.475 176.286 119.361 176.273 125.249C176.271 126.132 176.27 127.014 176.27 127.897C176.27 129.04 178.046 129.042 178.046 127.897L178.043 127.895Z" fill="#211715"/>
<path d="M125.378 83.451C125.03 82.8423 124.568 82.3067 124.017 81.8739C123.362 81.2671 122.662 80.712 122.01 80.1026C121.613 79.7322 120.664 79.105 120.869 78.4743C121.088 77.805 121.832 77.976 122.339 78.1679C125.567 79.3879 128.534 81.2325 131.705 82.5867C132.501 82.862 133.204 83.3543 133.736 84.008C134.314 84.7499 134.621 85.6668 134.607 86.6072C134.576 87.7508 136.353 87.7499 136.384 86.6072C136.393 85.5691 136.13 84.5467 135.622 83.6412C135.115 82.7358 134.379 81.9785 133.489 81.4444C132.727 81.0171 131.859 80.7337 131.067 80.3575C130.12 79.9094 129.183 79.4408 128.244 78.9749C127.271 78.4921 126.298 78.0098 125.313 77.5492C124.421 77.0866 123.497 76.6903 122.547 76.3633C122.081 76.1993 121.58 76.1636 121.095 76.26C120.611 76.3564 120.161 76.5814 119.794 76.9114C119.403 77.2979 119.154 77.8039 119.084 78.3488C119.015 78.8937 119.13 79.4462 119.41 79.9183C120.055 80.7567 120.807 81.5067 121.648 82.1488C122.155 82.5809 122.659 83.018 123.135 83.4857C123.424 83.7261 123.665 84.0185 123.846 84.3478C123.966 84.55 124.161 84.6968 124.388 84.7564C124.615 84.816 124.857 84.7836 125.061 84.6662C125.26 84.5434 125.404 84.3487 125.464 84.1224C125.523 83.8962 125.493 83.6558 125.38 83.451H125.378Z" fill="#211715"/>
</g>
<defs>
<clipPath id="clip0_1743_1188">
<rect width="212.446" height="128.691" fill="white" transform="translate(0.777344 0.0615234)"/>
</clipPath>
</defs>
</svg>
