<svg width="756" height="583" viewBox="0 0 756 583" fill="none" xmlns="http://www.w3.org/2000/svg">
<mask id="path-1-outside-1_1779_598" maskUnits="userSpaceOnUse" x="681" y="-3" width="73" height="389" fill="black">
<rect fill="white" x="681" y="-3" width="73" height="389"/>
<path d="M684 0.496414L742.76 0.496416C744.077 2.16042 745.325 4.37908 746.504 7.15242C747.683 9.92575 748.653 13.0458 749.416 16.5124C750.179 20.0484 750.56 23.6884 750.56 27.4324C750.56 36.0298 748.411 42.8244 744.112 47.8164C739.883 52.8084 733.781 55.3044 725.808 55.3044C720.261 55.3044 715.616 54.1258 711.872 51.7684C708.197 49.4804 705.459 46.3604 703.656 42.4084C701.853 38.5257 700.952 34.2271 700.952 29.5124C700.952 27.0164 701.195 24.8324 701.68 22.9604C702.165 21.1577 702.789 19.5631 703.552 18.1764L684 18.1764L684 0.496414ZM715.2 28.0564C715.2 30.8991 716.101 33.1871 717.904 34.9204C719.707 36.7231 722.411 37.6244 726.016 37.6244C729.413 37.6244 732.048 36.7231 733.92 34.9204C735.861 33.1178 736.832 30.2751 736.832 26.3924C736.832 23.2031 736.208 20.4644 734.96 18.1764L724.56 18.1764C721.301 18.1764 718.909 19.1817 717.384 21.1924C715.928 23.2031 715.2 25.4911 715.2 28.0564ZM684 110.444L750.144 110.444L750.144 128.124L698.56 128.124L698.56 153.396L684 153.396L684 110.444ZM684 206.453L750.248 229.333L750.248 250.445L684 271.557L684 252.525L697.104 248.573L697.104 229.853L684 225.901L684 206.453ZM711.664 233.805L711.664 245.661L730.696 240.149L730.696 239.733L711.664 233.805ZM684 338.006L708.856 338.006L750.144 312.11L750.144 332.806L725.6 346.742L725.6 347.366L750.144 360.366L750.144 380.854L709.48 357.87L684 357.87L684 338.006Z"/>
</mask>
<path d="M684 0.496414L684 -2.50359L681 -2.50359L681 0.496414L684 0.496414ZM742.76 0.496416L745.112 -1.3657L744.211 -2.50358L742.76 -2.50358L742.76 0.496416ZM746.504 7.15242L743.743 8.32584L743.743 8.32584L746.504 7.15242ZM749.416 16.5124L752.349 15.8799L752.346 15.8678L749.416 16.5124ZM744.112 47.8164L741.839 45.8588L741.831 45.868L741.823 45.8772L744.112 47.8164ZM711.872 51.7684L713.47 49.2297L713.464 49.2257L713.458 49.2217L711.872 51.7684ZM703.656 42.4084L706.385 41.1634L706.381 41.1542L706.377 41.1451L703.656 42.4084ZM701.68 22.9604L698.783 22.1805L698.78 22.194L698.776 22.2075L701.68 22.9604ZM703.552 18.1764L706.181 19.6222L708.626 15.1764L703.552 15.1764L703.552 18.1764ZM684 18.1764L681 18.1764L681 21.1764L684 21.1764L684 18.1764ZM717.904 34.9204L720.025 32.7991L720.005 32.7783L719.983 32.7579L717.904 34.9204ZM733.92 34.9204L731.879 32.722L731.859 32.7406L731.839 32.7595L733.92 34.9204ZM734.96 18.1764L737.594 16.7399L736.741 15.1764L734.96 15.1764L734.96 18.1764ZM717.384 21.1924L714.994 19.3793L714.974 19.4059L714.954 19.4329L717.384 21.1924ZM684 3.49641L742.76 3.49642L742.76 -2.50358L684 -2.50359L684 3.49641ZM740.408 2.35853C741.505 3.74475 742.629 5.705 743.743 8.32584L749.265 5.979C748.022 3.05317 746.649 0.576083 745.112 -1.3657L740.408 2.35853ZM743.743 8.32584C744.838 10.9016 745.756 13.8405 746.486 17.157L752.346 15.8678C751.55 12.251 750.528 8.94993 749.265 5.97899L743.743 8.32584ZM746.483 17.1449C747.2 20.4659 747.56 23.8936 747.56 27.4324L753.56 27.4324C753.56 23.4832 753.158 19.6309 752.349 15.8799L746.483 17.1449ZM747.56 27.4324C747.56 35.5345 745.541 41.5595 741.839 45.8588L746.385 49.774C751.28 44.0894 753.56 36.525 753.56 27.4324L747.56 27.4324ZM741.823 45.8772C738.287 50.0505 733.111 52.3044 725.808 52.3044L725.808 58.3044C734.452 58.3044 741.478 55.5664 746.401 49.7557L741.823 45.8772ZM725.808 52.3044C720.684 52.3044 716.628 51.2177 713.47 49.2297L710.274 54.3071C714.604 57.0338 719.838 58.3044 725.808 58.3044L725.808 52.3044ZM713.458 49.2217C710.286 47.2468 707.944 44.5804 706.385 41.1634L700.927 43.6534C702.973 48.1404 706.109 51.714 710.286 54.3151L713.458 49.2217ZM706.377 41.1451C704.776 37.6968 703.952 33.8354 703.952 29.5124L697.952 29.5124C697.952 34.6188 698.931 39.3547 700.935 43.6717L706.377 41.1451ZM703.952 29.5124C703.952 27.2011 704.178 25.2803 704.584 23.7133L698.776 22.2075C698.212 24.3846 697.952 26.8318 697.952 29.5124L703.952 29.5124ZM704.577 23.7403C705.011 22.1293 705.552 20.7648 706.181 19.6222L700.923 16.7307C700.026 18.3614 699.32 20.1862 698.783 22.1805L704.577 23.7403ZM703.552 15.1764L684 15.1764L684 21.1764L703.552 21.1764L703.552 15.1764ZM687 18.1764L687 0.496414L681 0.496414L681 18.1764L687 18.1764ZM712.2 28.0564C712.2 31.593 713.351 34.7046 715.825 37.0829L719.983 32.7579C718.851 31.6696 718.2 30.2052 718.2 28.0564L712.2 28.0564ZM715.783 37.0417C718.346 39.6054 721.948 40.6244 726.016 40.6244L726.016 34.6244C722.873 34.6244 721.067 33.8407 720.025 32.7991L715.783 37.0417ZM726.016 40.6244C729.943 40.6244 733.414 39.5721 736.001 37.0814L731.839 32.7595C730.682 33.8741 728.884 34.6244 726.016 34.6244L726.016 40.6244ZM735.961 37.1188C738.752 34.5278 739.832 30.7174 739.832 26.3924L733.832 26.3924C733.832 29.8328 732.971 31.7077 731.879 32.722L735.961 37.1188ZM739.832 26.3924C739.832 22.8123 739.13 19.5568 737.594 16.7399L732.326 19.613C733.286 21.372 733.832 23.5938 733.832 26.3924L739.832 26.3924ZM734.96 15.1764L724.56 15.1764L724.56 21.1764L734.96 21.1764L734.96 15.1764ZM724.56 15.1764C720.662 15.1764 717.246 16.411 714.994 19.3793L719.774 23.0056C720.573 21.9525 721.941 21.1764 724.56 21.1764L724.56 15.1764ZM714.954 19.4329C713.115 21.9733 712.2 24.8817 712.2 28.0564L718.2 28.0564C718.2 26.1005 718.741 24.4328 719.814 22.9519L714.954 19.4329ZM684 110.444L684 107.444L681 107.444L681 110.444L684 110.444ZM750.144 110.444L753.144 110.444L753.144 107.444L750.144 107.444L750.144 110.444ZM750.144 128.124L750.144 131.124L753.144 131.124L753.144 128.124L750.144 128.124ZM698.56 128.124L698.56 125.124L695.56 125.124L695.56 128.124L698.56 128.124ZM698.56 153.396L698.56 156.396L701.56 156.396L701.56 153.396L698.56 153.396ZM684 153.396L681 153.396L681 156.396L684 156.396L684 153.396ZM684 113.444L750.144 113.444L750.144 107.444L684 107.444L684 113.444ZM747.144 110.444L747.144 128.124L753.144 128.124L753.144 110.444L747.144 110.444ZM750.144 125.124L698.56 125.124L698.56 131.124L750.144 131.124L750.144 125.124ZM695.56 128.124L695.56 153.396L701.56 153.396L701.56 128.124L695.56 128.124ZM698.56 150.396L684 150.396L684 156.396L698.56 156.396L698.56 150.396ZM687 153.396L687 110.444L681 110.444L681 153.396L687 153.396ZM684 206.453L684.979 203.617L681 202.243L681 206.453L684 206.453ZM750.248 229.333L753.248 229.333L753.248 227.195L751.227 226.497L750.248 229.333ZM750.248 250.445L751.159 253.303L753.248 252.638L753.248 250.445L750.248 250.445ZM684 271.557L681 271.557L681 275.662L684.911 274.415L684 271.557ZM684 252.525L683.134 249.653L681 250.296L681 252.525L684 252.525ZM697.104 248.573L697.97 251.445L700.104 250.802L700.104 248.573L697.104 248.573ZM697.104 229.853L700.104 229.853L700.104 227.624L697.97 226.981L697.104 229.853ZM684 225.901L681 225.901L681 228.13L683.134 228.773L684 225.901ZM711.664 233.805L712.556 230.941L708.664 229.728L708.664 233.805L711.664 233.805ZM711.664 245.661L708.664 245.661L708.664 249.653L712.499 248.543L711.664 245.661ZM730.696 240.149L731.531 243.031L733.696 242.403L733.696 240.149L730.696 240.149ZM730.696 239.733L733.696 239.733L733.696 237.525L731.588 236.869L730.696 239.733ZM683.021 209.289L749.269 232.169L751.227 226.497L684.979 203.617L683.021 209.289ZM747.248 229.333L747.248 250.445L753.248 250.445L753.248 229.333L747.248 229.333ZM749.337 247.587L683.089 268.699L684.911 274.415L751.159 253.303L749.337 247.587ZM687 271.557L687 252.525L681 252.525L681 271.557L687 271.557ZM684.866 255.397L697.97 251.445L696.238 245.701L683.134 249.653L684.866 255.397ZM700.104 248.573L700.104 229.853L694.104 229.853L694.104 248.573L700.104 248.573ZM697.97 226.981L684.866 223.029L683.134 228.773L696.238 232.725L697.97 226.981ZM687 225.901L687 206.453L681 206.453L681 225.901L687 225.901ZM708.664 233.805L708.664 245.661L714.664 245.661L714.664 233.805L708.664 233.805ZM712.499 248.543L731.531 243.031L729.861 237.267L710.829 242.779L712.499 248.543ZM733.696 240.149L733.696 239.733L727.696 239.733L727.696 240.149L733.696 240.149ZM731.588 236.869L712.556 230.941L710.772 236.669L729.804 242.597L731.588 236.869ZM684 338.006L684 335.006L681 335.006L681 338.006L684 338.006ZM708.856 338.006L708.856 341.006L709.719 341.006L710.45 340.548L708.856 338.006ZM750.144 312.11L753.144 312.11L753.144 306.688L748.55 309.569L750.144 312.11ZM750.144 332.806L751.625 335.415L753.144 334.553L753.144 332.806L750.144 332.806ZM725.6 346.742L724.119 344.134L722.6 344.996L722.6 346.742L725.6 346.742ZM725.6 347.366L722.6 347.366L722.6 349.172L724.196 350.018L725.6 347.366ZM750.144 360.366L753.144 360.366L753.144 358.561L751.548 357.715L750.144 360.366ZM750.144 380.854L748.668 383.466L753.144 385.996L753.144 380.854L750.144 380.854ZM709.48 357.87L710.956 355.259L710.269 354.87L709.48 354.87L709.48 357.87ZM684 357.87L681 357.87L681 360.87L684 360.87L684 357.87ZM684 341.006L708.856 341.006L708.856 335.006L684 335.006L684 341.006ZM710.45 340.548L751.738 314.652L748.55 309.569L707.262 335.465L710.45 340.548ZM747.144 312.11L747.144 332.806L753.144 332.806L753.144 312.11L747.144 312.11ZM748.663 330.198L724.119 344.134L727.081 349.351L751.625 335.415L748.663 330.198ZM722.6 346.742L722.6 347.366L728.6 347.366L728.6 346.742L722.6 346.742ZM724.196 350.018L748.74 363.018L751.548 357.715L727.004 344.715L724.196 350.018ZM747.144 360.366L747.144 380.854L753.144 380.854L753.144 360.366L747.144 360.366ZM751.62 378.243L710.956 355.259L708.004 360.482L748.668 383.466L751.62 378.243ZM709.48 354.87L684 354.87L684 360.87L709.48 360.87L709.48 354.87ZM687 357.87L687 338.006L681 338.006L681 357.87L687 357.87Z" fill="url(#paint0_linear_1779_598)" mask="url(#path-1-outside-1_1779_598)"/>
<mask id="path-3-outside-2_1779_598" maskUnits="userSpaceOnUse" x="5.99998" y="144" width="80" height="438" fill="black">
<rect fill="white" x="5.99998" y="144" width="80" height="438"/>
<path d="M10.904 192.131L37.944 164.987L16 164.987L16 147.307L75.904 147.307C77.0133 148.971 78.0533 151.19 79.024 153.963C80.064 156.806 80.896 159.961 81.52 163.427C82.2133 166.894 82.56 170.43 82.56 174.035C82.56 182.841 80.5147 189.705 76.424 194.627C72.3333 199.619 66.6827 202.115 59.472 202.115C53.9947 202.115 49.4187 200.729 45.744 197.955C42.0693 195.251 39.3653 191.577 37.632 186.931L23.8 204.091L10.904 192.131ZM48.448 174.867C48.448 177.918 49.4187 180.275 51.36 181.939C53.3013 183.603 55.7627 184.435 58.744 184.435C61.7947 184.435 64.2213 183.534 66.024 181.731C67.896 179.998 68.832 177.294 68.832 173.619C68.832 170.153 68.1387 167.275 66.752 164.987L58.64 164.987C55.3813 164.987 52.8507 165.923 51.048 167.795C49.3147 169.737 48.448 172.094 48.448 174.867ZM15.584 288.689C15.584 281.756 16.9013 275.759 19.536 270.697C22.24 265.705 26.088 261.857 31.08 259.153C36.072 256.449 42.0347 255.097 48.968 255.097C55.9013 255.097 61.864 256.449 66.856 259.153C71.9173 261.857 75.8 265.706 78.504 270.698C81.208 275.759 82.56 281.756 82.56 288.689C82.56 295.623 81.208 301.516 78.504 306.37C75.8 311.292 71.9173 315.036 66.856 317.602C61.864 320.167 55.9013 321.45 48.968 321.45C38.568 321.45 30.3867 318.572 24.424 312.817C18.5307 307.132 15.584 299.089 15.584 288.689ZM30.56 288.689C30.56 293.404 32.0853 296.975 35.136 299.401C38.256 301.898 42.832 303.146 48.864 303.146C54.896 303.146 59.5067 301.898 62.696 299.402C65.9547 296.975 67.584 293.404 67.584 288.689C67.584 283.975 65.9547 280.231 62.696 277.458C59.5067 274.753 54.896 273.401 48.864 273.401C42.832 273.401 38.256 274.753 35.136 277.457C32.0853 280.231 30.56 283.975 30.56 288.689ZM15.584 410.114C15.584 403.18 16.9013 397.183 19.536 392.122C22.24 387.13 26.088 383.282 31.08 380.578C36.072 377.874 42.0347 376.522 48.968 376.522C55.9013 376.522 61.864 377.874 66.856 380.578C71.9173 383.282 75.8 387.13 78.504 392.122C81.208 397.183 82.56 403.18 82.56 410.114C82.56 417.047 81.208 422.94 78.504 427.794C75.8 432.716 71.9173 436.46 66.856 439.026C61.864 441.591 55.9013 442.874 48.968 442.874C38.568 442.874 30.3867 439.996 24.424 434.242C18.5307 428.556 15.584 420.514 15.584 410.114ZM30.56 410.114C30.56 414.828 32.0853 418.399 35.136 420.826C38.256 423.322 42.832 424.57 48.864 424.57C54.896 424.57 59.5067 423.322 62.696 420.826C65.9547 418.399 67.584 414.828 67.584 410.114C67.584 405.399 65.9547 401.655 62.696 398.882C59.5067 396.178 54.896 394.826 48.864 394.826C42.832 394.826 38.256 396.178 35.136 398.882C32.0853 401.655 30.56 405.399 30.56 410.114ZM16 496.93L82.144 503.17L82.144 523.97L45.224 537.594L43.976 537.906L45.224 538.114L82.144 552.466L82.144 573.266L16 578.466L16 559.746L56.04 557.666L57.808 557.354L57.808 557.146L56.04 556.626L22.24 544.146L22.24 531.666L56.04 519.082L57.808 518.666L57.808 518.354L56.04 518.042L16 515.65L16 496.93Z"/>
</mask>
<path d="M10.904 192.131L8.77861 190.014L6.58435 192.217L8.864 194.331L10.904 192.131ZM37.944 164.987L40.0694 167.104L45.167 161.987L37.944 161.987L37.944 164.987ZM16 164.987L13 164.987L13 167.987L16 167.987L16 164.987ZM16 147.307L16 144.307L13 144.307L13 147.307L16 147.307ZM75.904 147.307L78.4002 145.643L77.5096 144.307L75.904 144.307L75.904 147.307ZM79.024 153.963L76.1924 154.954L76.1994 154.974L76.2066 154.994L79.024 153.963ZM81.52 163.427L78.5675 163.959L78.5726 163.987L78.5783 164.016L81.52 163.427ZM76.424 194.627L74.1167 192.71L74.1101 192.718L74.1036 192.726L76.424 194.627ZM45.744 197.955L47.5512 195.561L47.5367 195.55L47.522 195.539L45.744 197.955ZM37.632 186.931L40.4427 185.882L38.6015 180.948L35.2963 185.048L37.632 186.931ZM23.8 204.091L21.76 206.291L24.1177 208.477L26.1357 205.974L23.8 204.091ZM51.36 181.939L49.4076 184.217L49.4076 184.217L51.36 181.939ZM66.024 181.731L63.9858 179.53L63.9435 179.569L63.9027 179.61L66.024 181.731ZM66.752 164.987L69.3176 163.432L68.4418 161.987L66.752 161.987L66.752 164.987ZM51.048 167.795L48.887 165.714L48.8478 165.755L48.8102 165.797L51.048 167.795ZM13.0294 194.248L40.0694 167.104L35.8186 162.87L8.77861 190.014L13.0294 194.248ZM37.944 161.987L16 161.987L16 167.987L37.944 167.987L37.944 161.987ZM19 164.987L19 147.307L13 147.307L13 164.987L19 164.987ZM16 150.307L75.904 150.307L75.904 144.307L16 144.307L16 150.307ZM73.4078 148.971C74.329 150.353 75.2699 152.318 76.1924 154.954L81.8556 152.972C80.8368 150.061 79.6977 147.589 78.4002 145.643L73.4078 148.971ZM76.2066 154.994C77.1786 157.651 77.9692 160.635 78.5675 163.959L84.4726 162.896C83.8228 159.286 82.9494 155.961 81.8414 152.932L76.2066 154.994ZM78.5783 164.016C79.2321 167.285 79.56 170.623 79.56 174.035L85.56 174.035C85.56 170.236 85.1946 166.503 84.4617 162.839L78.5783 164.016ZM79.56 174.035C79.56 182.402 77.6169 188.498 74.1167 192.71L78.7313 196.545C83.4124 190.911 85.56 183.279 85.56 174.035L79.56 174.035ZM74.1036 192.726C70.6542 196.935 65.9029 199.115 59.472 199.115L59.472 205.115C67.4625 205.115 74.0125 202.303 78.7444 196.529L74.1036 192.726ZM59.472 199.115C54.5192 199.115 50.6118 197.871 47.5512 195.561L43.9368 200.35C48.2255 203.587 53.4702 205.115 59.472 205.115L59.472 199.115ZM47.522 195.539C44.358 193.211 41.9906 190.031 40.4427 185.882L34.8213 187.98C36.7401 193.122 39.7806 197.292 43.966 200.372L47.522 195.539ZM35.2963 185.048L21.4643 202.208L26.1357 205.974L39.9677 188.814L35.2963 185.048ZM25.84 201.892L12.944 189.932L8.864 194.331L21.76 206.291L25.84 201.892ZM45.448 174.867C45.448 178.608 46.672 181.872 49.4076 184.217L53.3124 179.661C52.1653 178.678 51.448 177.228 51.448 174.867L45.448 174.867ZM49.4076 184.217C51.9809 186.423 55.172 187.435 58.744 187.435L58.744 181.435C56.3533 181.435 54.6217 180.784 53.3124 179.661L49.4076 184.217ZM58.744 187.435C62.4227 187.435 65.6717 186.326 68.1453 183.853L63.9027 179.61C62.771 180.742 61.1666 181.435 58.744 181.435L58.744 187.435ZM68.0622 183.932C70.7765 181.419 71.832 177.756 71.832 173.619L65.832 173.619C65.832 176.832 65.0155 178.576 63.9858 179.53L68.0622 183.932ZM71.832 173.619C71.832 169.763 71.0609 166.309 69.3176 163.432L64.1864 166.542C65.2165 168.242 65.832 170.542 65.832 173.619L71.832 173.619ZM66.752 161.987L58.64 161.987L58.64 167.987L66.752 167.987L66.752 161.987ZM58.64 161.987C54.7858 161.987 51.3914 163.114 48.887 165.714L53.209 169.876C54.3099 168.733 55.9769 167.987 58.64 167.987L58.64 161.987ZM48.8102 165.797C46.552 168.326 45.448 171.41 45.448 174.867L51.448 174.867C51.448 172.778 52.0774 171.147 53.2858 169.793L48.8102 165.797ZM19.536 270.697L16.8981 269.269L16.8863 269.29L16.8749 269.312L19.536 270.697ZM31.08 259.153L32.5088 261.791L31.08 259.153ZM66.856 259.153L65.4271 261.791L65.4347 261.795L65.4423 261.8L66.856 259.153ZM78.504 270.698L81.15 269.284L81.146 269.276L81.1419 269.269L78.504 270.698ZM78.504 306.37L75.8833 304.909L75.8789 304.917L75.8746 304.925L78.504 306.37ZM66.856 317.602L65.4997 314.926L65.4922 314.929L65.4848 314.933L66.856 317.602ZM24.424 312.817L26.5073 310.659L26.5069 310.658L24.424 312.817ZM35.136 299.401L37.0101 297.059L37.0036 297.054L35.136 299.401ZM62.696 299.402L60.9042 296.995L60.8754 297.017L60.8471 297.039L62.696 299.402ZM62.696 277.458L64.6404 275.173L64.6361 275.169L62.696 277.458ZM35.136 277.457L33.1712 275.19L33.1443 275.214L33.118 275.238L35.136 277.457ZM18.584 288.689C18.584 282.136 19.828 276.634 22.197 272.083L16.8749 269.312C13.9746 274.884 12.584 281.376 12.584 288.689L18.584 288.689ZM22.1739 272.126C24.6007 267.646 28.0286 264.218 32.5088 261.791L29.6511 256.516C24.1474 259.497 19.8793 263.765 16.8981 269.269L22.1739 272.126ZM32.5088 261.791C36.9751 259.372 42.4243 258.097 48.968 258.097L48.968 252.097C41.645 252.097 35.1689 253.527 29.6511 256.516L32.5088 261.791ZM48.968 258.097C55.5117 258.097 60.9609 259.372 65.4271 261.791L68.2848 256.516C62.7671 253.527 56.291 252.097 48.968 252.097L48.968 258.097ZM65.4423 261.8C69.9911 264.23 73.4453 267.657 75.8661 272.126L81.1419 269.269C78.1547 263.754 73.8436 259.485 68.2696 256.507L65.4423 261.8ZM75.8579 272.111C78.2859 276.656 79.56 282.147 79.56 288.689L85.56 288.69C85.56 281.365 84.1301 274.862 81.15 269.284L75.8579 272.111ZM79.56 288.689C79.56 295.237 78.2841 300.6 75.8833 304.909L81.1247 307.83C84.1319 302.432 85.56 296.009 85.56 288.69L79.56 288.689ZM75.8746 304.925C73.4645 309.313 70.0283 312.63 65.4997 314.926L68.2123 320.277C73.8063 317.442 78.1355 313.272 81.1334 307.814L75.8746 304.925ZM65.4848 314.933C61.0053 317.235 55.5347 318.45 48.968 318.45L48.968 324.45C56.268 324.45 62.7227 323.098 68.2272 320.27L65.4848 314.933ZM48.968 318.45C39.1373 318.45 31.7771 315.745 26.5073 310.659L22.3407 314.976C28.9962 321.399 37.9987 324.45 48.968 324.45L48.968 318.45ZM26.5069 310.658C21.3481 305.682 18.584 298.508 18.584 288.689L12.584 288.689C12.584 299.671 15.7132 308.583 22.3411 314.977L26.5069 310.658ZM27.56 288.689C27.56 294.106 29.351 298.633 33.2684 301.749L37.0036 297.054C34.8197 295.316 33.56 292.702 33.56 288.689L27.56 288.689ZM33.2619 301.744C37.1252 304.835 42.4825 306.146 48.864 306.146L48.864 300.146C43.1814 300.146 39.3868 298.96 37.0101 297.059L33.2619 301.744ZM48.864 306.146C55.252 306.146 60.6246 304.832 64.5449 301.764L60.8471 297.039C58.3887 298.963 54.54 300.146 48.864 300.146L48.864 306.146ZM64.4878 301.808C68.6355 298.719 70.584 294.179 70.584 288.689L64.584 288.689C64.584 292.629 63.2738 295.231 60.9042 296.995L64.4878 301.808ZM70.584 288.689C70.584 283.196 68.642 278.579 64.6404 275.173L60.7516 279.742C63.2673 281.883 64.584 284.753 64.584 288.689L70.584 288.689ZM64.6361 275.169C60.7087 271.839 55.2984 270.401 48.864 270.401L48.864 276.401C54.4936 276.401 58.3046 277.668 60.7559 279.746L64.6361 275.169ZM48.864 270.401C42.4357 270.401 37.0405 271.837 33.1712 275.19L37.1008 279.725C39.4715 277.67 43.2283 276.401 48.864 276.401L48.864 270.401ZM33.118 275.238C29.3493 278.664 27.56 283.263 27.56 288.689L33.56 288.689C33.56 284.686 34.8214 281.798 37.154 279.677L33.118 275.238ZM19.536 392.122L16.8981 390.693L16.8863 390.714L16.8749 390.736L19.536 392.122ZM31.08 380.578L32.5088 383.215L31.08 380.578ZM66.856 380.578L65.4271 383.215L65.4347 383.22L65.4423 383.224L66.856 380.578ZM78.504 392.122L81.15 390.708L81.146 390.7L81.1419 390.693L78.504 392.122ZM78.504 427.794L75.8833 426.333L75.8789 426.341L75.8746 426.349L78.504 427.794ZM66.856 439.026L65.4997 436.35L65.4922 436.353L65.4848 436.357L66.856 439.026ZM24.424 434.242L26.5073 432.083L26.5069 432.082L24.424 434.242ZM35.136 420.826L37.0101 418.483L37.0036 418.478L35.136 420.826ZM62.696 420.826L60.9042 418.419L60.8754 418.441L60.8471 418.463L62.696 420.826ZM62.696 398.882L64.6403 396.597L64.636 396.593L62.696 398.882ZM35.136 398.882L33.1712 396.615L33.1443 396.638L33.118 396.662L35.136 398.882ZM18.584 410.114C18.584 403.56 19.828 398.058 22.197 393.507L16.8749 390.736C13.9746 396.308 12.584 402.801 12.584 410.114L18.584 410.114ZM22.1739 393.55C24.6007 389.07 28.0286 385.642 32.5088 383.215L29.6511 377.94C24.1474 380.921 19.8793 385.189 16.8981 390.693L22.1739 393.55ZM32.5088 383.215C36.9751 380.796 42.4243 379.522 48.968 379.522L48.968 373.522C41.645 373.522 35.1689 374.951 29.6511 377.94L32.5088 383.215ZM48.968 379.522C55.5116 379.522 60.9609 380.796 65.4271 383.215L68.2848 377.94C62.7671 374.951 56.291 373.522 48.968 373.522L48.968 379.522ZM65.4423 383.224C69.9911 385.654 73.4453 389.081 75.8661 393.55L81.1419 390.693C78.1547 385.178 73.8436 380.909 68.2696 377.932L65.4423 383.224ZM75.8579 393.535C78.2859 398.08 79.56 403.571 79.56 410.114L85.56 410.114C85.56 402.789 84.1301 396.286 81.15 390.708L75.8579 393.535ZM79.56 410.114C79.56 416.661 78.2841 422.024 75.8833 426.333L81.1247 429.254C84.1319 423.856 85.56 417.433 85.56 410.114L79.56 410.114ZM75.8746 426.349C73.4645 430.737 70.0283 434.054 65.4997 436.35L68.2123 441.701C73.8063 438.866 78.1355 434.696 81.1334 429.238L75.8746 426.349ZM65.4848 436.357C61.0053 438.659 55.5347 439.874 48.968 439.874L48.968 445.874C56.268 445.874 62.7227 444.523 68.2272 441.694L65.4848 436.357ZM48.968 439.874C39.1373 439.874 31.7771 437.169 26.5073 432.083L22.3406 436.4C28.9962 442.824 37.9987 445.874 48.968 445.874L48.968 439.874ZM26.5069 432.082C21.3481 427.106 18.584 419.932 18.584 410.114L12.584 410.114C12.584 421.096 15.7132 430.007 22.3411 436.401L26.5069 432.082ZM27.56 410.114C27.56 415.53 29.351 420.057 33.2684 423.173L37.0036 418.478C34.8196 416.741 33.56 414.126 33.56 410.114L27.56 410.114ZM33.2619 423.168C37.1252 426.259 42.4825 427.57 48.864 427.57L48.864 421.57C43.1814 421.57 39.3868 420.384 37.0101 418.483L33.2619 423.168ZM48.864 427.57C55.252 427.57 60.6246 426.256 64.5449 423.188L60.8471 418.463C58.3887 420.387 54.54 421.57 48.864 421.57L48.864 427.57ZM64.4878 423.232C68.6355 420.143 70.584 415.603 70.584 410.114L64.584 410.114C64.584 414.053 63.2738 416.655 60.9042 418.419L64.4878 423.232ZM70.584 410.114C70.584 404.62 68.642 400.003 64.6403 396.597L60.7516 401.166C63.2673 403.307 64.584 406.177 64.584 410.114L70.584 410.114ZM64.636 396.593C60.7087 393.264 55.2984 391.826 48.864 391.826L48.864 397.826C54.4936 397.826 58.3046 399.092 60.7559 401.17L64.636 396.593ZM48.864 391.826C42.4356 391.826 37.0405 393.261 33.1712 396.615L37.1008 401.149C39.4715 399.094 43.2283 397.826 48.864 397.826L48.864 391.826ZM33.118 396.662C29.3493 400.088 27.56 404.688 27.56 410.114L33.56 410.114C33.56 406.11 34.8214 403.222 37.154 401.101L33.118 396.662ZM16 496.93L16.2817 493.943L13 493.634L13 496.93L16 496.93ZM82.144 503.17L85.144 503.17L85.144 500.44L82.4258 500.183L82.144 503.17ZM82.144 523.97L83.1826 526.784L85.144 526.061L85.144 523.97L82.144 523.97ZM45.224 537.594L45.9516 540.504L46.1097 540.465L46.2626 540.408L45.224 537.594ZM43.976 537.906L43.2484 534.996L43.4828 540.865L43.976 537.906ZM45.224 538.114L46.3109 535.318L46.0225 535.206L45.7172 535.155L45.224 538.114ZM82.144 552.466L85.144 552.466L85.144 550.413L83.2309 549.67L82.144 552.466ZM82.144 573.266L82.3791 576.257L85.144 576.039L85.144 573.266L82.144 573.266ZM16 578.466L13 578.466L13 581.711L16.2351 581.457L16 578.466ZM16 559.746L15.8443 556.75L13 556.898L13 559.746L16 559.746ZM56.04 557.666L56.1956 560.662L56.3798 560.652L56.5613 560.62L56.04 557.666ZM57.808 557.354L58.3293 560.308L60.808 559.871L60.808 557.354L57.808 557.354ZM57.808 557.146L60.808 557.146L60.808 554.901L58.6545 554.268L57.808 557.146ZM56.04 556.626L55.0009 559.44L55.0961 559.475L55.1935 559.504L56.04 556.626ZM22.24 544.146L19.24 544.146L19.24 546.236L21.2009 546.96L22.24 544.146ZM22.24 531.666L21.1932 528.855L19.24 529.582L19.24 531.666L22.24 531.666ZM56.04 519.082L55.3529 516.162L55.1696 516.205L54.9933 516.271L56.04 519.082ZM57.808 518.666L58.4951 521.586L60.808 521.042L60.808 518.666L57.808 518.666ZM57.808 518.354L60.808 518.354L60.808 515.837L58.3293 515.4L57.808 518.354ZM56.04 518.042L56.5613 515.088L56.3913 515.058L56.2189 515.047L56.04 518.042ZM16 515.65L13 515.65L13 518.476L15.8211 518.645L16 515.65ZM15.7182 499.917L81.8622 506.157L82.4258 500.183L16.2817 493.943L15.7182 499.917ZM79.144 503.17L79.144 523.97L85.144 523.97L85.144 503.17L79.144 503.17ZM81.1054 521.156L44.1854 534.78L46.2626 540.408L83.1826 526.784L81.1054 521.156ZM44.4964 534.684L43.2484 534.996L44.7036 540.816L45.9516 540.504L44.4964 534.684ZM43.4828 540.865L44.7308 541.073L45.7172 535.155L44.4692 534.947L43.4828 540.865ZM44.137 540.91L81.057 555.262L83.2309 549.67L46.3109 535.318L44.137 540.91ZM79.144 552.466L79.144 573.266L85.144 573.266L85.144 552.466L79.144 552.466ZM81.9089 570.275L15.7649 575.475L16.2351 581.457L82.3791 576.257L81.9089 570.275ZM19 578.466L19 559.746L13 559.746L13 578.466L19 578.466ZM16.1556 562.742L56.1956 560.662L55.8843 554.67L15.8443 556.75L16.1556 562.742ZM56.5613 560.62L58.3293 560.308L57.2866 554.4L55.5186 554.712L56.5613 560.62ZM60.808 557.354L60.808 557.146L54.808 557.146L54.808 557.354L60.808 557.354ZM58.6545 554.268L56.8865 553.748L55.1935 559.504L56.9615 560.024L58.6545 554.268ZM57.0791 553.812L23.2791 541.332L21.2009 546.96L55.0009 559.44L57.0791 553.812ZM25.24 544.146L25.24 531.666L19.24 531.666L19.24 544.146L25.24 544.146ZM23.2867 534.477L57.0867 521.893L54.9933 516.271L21.1932 528.855L23.2867 534.477ZM56.7271 522.002L58.4951 521.586L57.1209 515.746L55.3529 516.162L56.7271 522.002ZM60.808 518.666L60.808 518.354L54.808 518.354L54.808 518.666L60.808 518.666ZM58.3293 515.4L56.5613 515.088L55.5186 520.996L57.2866 521.308L58.3293 515.4ZM56.2189 515.047L16.1789 512.655L15.8211 518.645L55.8611 521.037L56.2189 515.047ZM19 515.65L19 496.93L13 496.93L13 515.65L19 515.65Z" fill="url(#paint1_linear_1779_598)" mask="url(#path-3-outside-2_1779_598)"/>
<defs>
<linearGradient id="paint0_linear_1779_598" x1="717" y1="-5" x2="717" y2="430" gradientUnits="userSpaceOnUse">
<stop stop-color="#48A0F0"/>
<stop offset="1" stop-color="#54BDAC"/>
</linearGradient>
<linearGradient id="paint1_linear_1779_598" x1="49" y1="70" x2="49" y2="583" gradientUnits="userSpaceOnUse">
<stop stop-color="#48A0F0"/>
<stop offset="1" stop-color="#54BDAC"/>
</linearGradient>
</defs>
</svg>
