<svg xmlns="http://www.w3.org/2000/svg" width="926" height="364" fill="currentColor" viewBox="0 0 926 364">
  <path d="M141.197 101.12c2.476-.297 4.701.396 6.675 2.079 2.048 1.675 3.129 3.908 3.242 6.701.318 5.723.454 15.161.408 28.314-.082 5.475-.211 13.32-.388 23.534-.104 10.205-.177 17.6-.217 22.184.017 3.838-.538 6.601-1.665 8.287-1.127 1.687-2.909 2.528-5.347 2.526-2.656.023-4.88-.966-6.671-2.967-1.791-2-2.733-4.62-2.827-7.859-.064-1.765-.15-12.944-.259-33.538-9.984 2.971-15.969 4.798-17.955 5.479-.419.198-.795.76-1.127 1.687a10.304 10.304 0 0 0-.476 2.494c.018 1.992.012 9.637-.016 22.936-.035 1.555-.109 2.782-.223 3.682-.114.9-.396 1.931-.847 3.093a5.035 5.035 0 0 1-2.019 2.569c-.967.56-2.214.931-3.743 1.114-2.639.17-4.931-.774-6.877-2.83-1.945-2.056-2.924-4.672-2.936-7.846-.02-1.401.111-17.223.395-47.466.064-9.314.048-15.294-.048-17.942-.056-3.538.512-6.192 1.703-7.959 1.191-1.768 3.074-2.696 5.649-2.784 2.729-.032 5.038 1.057 6.928 3.268 1.964 2.202 2.91 4.858 2.84 7.968-.133 8.732-.239 15.54-.318 20.424 9.908-2.371 15.682-3.803 17.322-4.295.565-.216 1.091-.759 1.577-1.63.478-.944.705-1.82.681-2.63.283-5.647.354-11.823.214-18.527-.03-1.474-.024-2.657.017-3.548.114-.9.368-1.854.764-2.861.388-1.081 1.028-1.896 1.922-2.447.886-.623 2.093-1.027 3.622-1.21Zm92.87 68.731c.09.137.619 1.772 1.586 4.906-.192.244-.518.911-.979 2.001-.468 1.016-.955 1.887-1.459 2.612-.439.644-.878.992-1.314 1.044-1.739.283-3.594.21-5.566-.218-1.899-.437-3.315-1.153-4.247-2.149-2.624-2.787-4.542-6.767-5.754-11.939-.294-1.221-.626-2.141-.996-2.761a2.657 2.657 0 0 0-1.712-1.346c-.699-.285-1.344-.429-1.936-.432-.527-.085-1.409-.053-2.647.096a3.04 3.04 0 0 0-.669-.031c-6.078.435-10.739 2.213-13.983 5.335-3.181 3.041-5.044 7.512-5.592 13.412-.011.519-.534 2.317-1.568 5.396-1.561 4.84-4.418 6.882-8.571 6.125-2.417-.449-4.341-1.399-5.771-2.853-1.366-1.534-2.088-3.553-2.167-6.054-.006-.665.057-1.374.188-2.128s.349-1.704.655-2.848c.306-1.145.514-1.872.625-2.18 10.238-43.92 16.698-71.322 19.38-82.206 1.077-4.561 3.049-8.75 5.914-12.565.961-1.223 2.202-1.963 3.722-2.22a7.705 7.705 0 0 1 4.474.35c1.471.562 2.844 1.542 4.12 2.94 1.339 1.316 2.305 2.9 2.896 4.749.67 2.504 1.508 6.097 2.513 10.777 1.069 4.599 1.826 7.831 2.272 9.698 2.179 8.306 7.707 29.136 16.586 62.489Zm-35.719-22.523c1.156-.213 2.954-.614 5.395-1.202 2.513-.597 4.49-1.056 5.928-1.376-1.232-4.727-2.94-11.576-5.125-20.546l-1.118-.087c-.624 2.807-1.539 6.869-2.748 12.184a1560.84 1560.84 0 0 0-2.332 11.027Zm119.465-54.337-.013-.109c2.511 7.38.35 14.915-6.482 22.604a53.977 53.977 0 0 1-15.504 12.054c-5.837 3.064-12.503 5.674-20 7.829l-2.446.848c-1.243 17.949-1.96 27.969-2.152 30.061-.117 1.491-.296 2.768-.538 3.831-.25.99-.642 2.034-1.175 3.132-.533 1.098-1.355 1.936-2.468 2.512-1.039.568-2.373.839-4.001.813-2.802.041-5.116-1.084-6.942-3.376-1.827-2.292-2.69-5.18-2.591-8.663.058-2.592.25-8.377.576-17.353.398-8.985.637-15.919.715-20.803.046-5.767-.322-13.146-1.106-22.136a9.611 9.611 0 0 0-.468-2.049c-.224-.638-.665-1.545-1.324-2.722-.658-1.176-1.028-1.797-1.109-1.86-2.514-4.943-1.687-8.514 2.481-10.713 15.986-8.345 30.765-11.67 44.337-9.975 3.227.425 6.138 1.294 8.733 2.607a20.557 20.557 0 0 1 6.85 5.382c1.972 2.275 3.514 4.97 4.627 8.086Zm-17.627 8.21c1.767-2.502 2.178-4.62 1.231-6.352-.946-1.733-2.934-2.602-5.963-2.608-.39-.175-2.834.082-7.331.77-4.505.614-6.94.943-7.304.987a11.765 11.765 0 0 0-2.8.668 7.468 7.468 0 0 0-2.066 1.245c-.539.434-.988 1.005-1.346 1.713-.367.635-.611 1.366-.734 2.193a22.745 22.745 0 0 0-.218 2.796c.087.728-.007 6.094-.283 16.099 6.04-1.981 11.263-4.307 15.67-6.978 4.397-2.744 8.112-6.255 11.144-10.533Zm105.827-18.798-.013-.109c2.511 7.38.35 14.915-6.482 22.604a53.977 53.977 0 0 1-15.504 12.054c-5.836 3.064-12.503 5.674-19.999 7.829l-2.447.848c-1.242 17.949-1.96 27.97-2.152 30.061-.116 1.491-.296 2.768-.537 3.831-.251.99-.642 2.034-1.175 3.132-.533 1.098-1.356 1.936-2.468 2.512-1.04.568-2.374.839-4.002.813-2.802.041-5.116-1.084-6.942-3.376-1.826-2.292-2.69-5.18-2.591-8.663.058-2.592.25-8.377.576-17.353.398-8.985.637-15.919.715-20.803.047-5.767-.322-13.146-1.106-22.136a9.606 9.606 0 0 0-.467-2.05c-.225-.637-.666-1.544-1.324-2.72-.658-1.177-1.028-1.798-1.11-1.862-2.514-4.942-1.687-8.513 2.481-10.712 15.986-8.345 30.765-11.67 44.337-9.975 3.227.425 6.138 1.294 8.733 2.607a20.558 20.558 0 0 1 6.85 5.382c1.972 2.275 3.515 4.97 4.627 8.086Zm-17.627 8.21c1.768-2.502 2.178-4.62 1.232-6.352-.947-1.733-2.935-2.602-5.964-2.608-.39-.175-2.833.082-7.33.77-4.506.614-6.94.943-7.305.987a11.781 11.781 0 0 0-2.8.668 7.498 7.498 0 0 0-2.066 1.245c-.539.434-.987 1.005-1.346 1.713-.367.635-.611 1.366-.733 2.193-.123.827-.195 1.76-.219 2.796.088.728-.007 6.094-.283 16.099 6.04-1.981 11.264-4.307 15.67-6.978 4.398-2.743 8.112-6.255 11.144-10.533ZM477.753 55.4c.74 1.241 1.146 2.78 1.219 4.618.073 1.838-.172 3.492-.734 4.963a287.486 287.486 0 0 1-3.656 8.305 915.658 915.658 0 0 1-4.425 9.283c-1.407 3.05-2.548 5.846-3.425 8.388-.885 2.47-1.863 6.318-2.935 11.542-1.071 5.225-2.05 9.073-2.935 11.543-.443 1.234-1.452 3.904-3.027 8.007-1.584 4.031-2.704 7.009-3.359 8.935-.583 1.916-1.228 4.542-1.935 7.876-.644 3.254-.936 6.354-.878 9.301.026.219.055.769.087 1.652.105.873.12 1.61.044 2.21-.003.591-.087 1.118-.253 1.582-.119.235-.373.894-.76 1.974-.323.999-.609 1.698-.856 2.097-.166.463-.428 1.049-.787 1.756-.285.699-.629 1.221-1.031 1.564-.32.408-.698.638-1.135.691-1.366.311-3.053.108-5.059-.612-1.925-.655-3.367-1.59-4.325-2.804-2.097-2.703-2.939-6.332-2.526-10.887.233-2.982.754-7.255 1.564-12.817.873-5.645 1.452-9.74 1.738-12.285.393-4.11-.012-7.791-1.215-11.044-1.716-4.447-4.241-10.718-7.576-18.811-3.335-8.094-5.65-13.836-6.943-17.226-2.551-6.488-1.563-10.558 2.966-12.21 2.414-.807 4.782-.463 7.103 1.03 2.386 1.413 4.09 3.609 5.112 6.588.781 2.196 1.615 4.534 2.504 7.012.879 2.406 1.88 5.203 3.001 8.392 1.113 3.116 2.042 5.627 2.788 7.531 1.057-2.268 2.463-5.318 4.219-9.148a750.107 750.107 0 0 0 4.181-9.475c1.112-2.424 2.404-5.2 3.874-8.332a240.997 240.997 0 0 1 4.163-8.698c.726-1.343 1.755-2.61 3.089-3.805 1.325-1.267 2.638-2.016 3.94-2.246 1.302-.23 2.811.032 4.526.786 1.789.746 3.007 1.67 3.657 2.774Zm-44.394 131.419.013.109c4.697 2.206 6.737 6.282 4.776 11.171-9.021 22.686-11.335 46.784-14.685 70.563-.568 4.5-.292 9.563-5.744 11.214-5.234 1.626-9.38-1.533-12.158-5.298-4.609-6.094-8.397-12.73-12.487-19.108-1.245-2.067-2.285-4.268-4.002-7.497-5.054 9.581-9.558 18.209-14.157 26.96-2.246 4.369-4.303 9.38-10.642 8.257-6.435-1-8.24-5.88-9.044-11.655-3.531-22.953-7.293-45.989-10.824-68.941-1.258-7.715.34-11.009 5.364-11.612 5.12-.726 9.59 3.28 10.787 9.562 2.613 15.308 5.348 30.711 8.254 47.535 3.949-6.789 6.57-12.643 10.415-17.536 2.485-3.29 6.596-6.885 10.309-7.331 5.557-.778 8.262 4.215 10.175 9.082 2.495 6.015 5.208 12.005 8.393 19.156 2.647-13.945 4.674-26.597 7.504-39.013 1.66-7.4 4.123-14.565 6.928-21.66 1.891-4.547 6.129-6.164 10.825-3.958Zm51.055 3.177c14.067 2.743 22.455 11.707 24.212 26.342 2.325 18.445-10.098 42.316-26.568 50.94-11.887 6.191-24.648 1.408-27.763-11.624-5.44-23.166-.177-44.848 11.928-64.914 3.424-5.618 8.256-5.977 13.861-2.661 1.429.825 2.858 1.651 4.33 1.917Zm-14.213 63.416c13.206-5.352 23.943-24.81 21.732-38.615-.279-1.407-.271-3.18-1.153-4.072-2.294-2.494-5.208-6.465-7.501-6.19-2.866.123-7.099 3.622-7.768 6.361-2.799 11.748-4.59 23.596-6.49 35.457-.284 2.25.782 4.67 1.18 7.059Zm130.442-14.883c1.682 2.014 2.573 6.671 1.363 8.589-1.21 1.918-5.731 3.015-8.335 2.552-7.619-1.634-14.946-4.521-22.482-6.386-7.632-1.743-15.294-2.818-23.556-4.263.071 5.199-.06 9.646.246 14.041.14 4.858-.603 8.824-6.256 9.725-4.574.659-9.414-2.748-10.262-7.964-.966-6.199-1.739-12.643-1.735-19.069-.075-15.391.287-30.834.539-46.264.205-8.445 1.822-9.747 10.131-9.747 1.555.035 3.416-1.075 4.596-2.325 5.469-5.198 11.423-9.126 19.418-6.208 8.349 3.097 11.643 10.235 12.722 18.304 1.661 11.987-2.144 22.748-8.945 32.538-.743 1.197-1.485 2.394-2.516 3.958 9.156 2.446 17.592 4.425 25.766 6.989 3.351 1.149 7.108 2.913 9.306 5.53Zm-53.303-20.412c9.943-7.62 15.468-21.578 11.934-29.795-9.056 7.624-12.066 17.624-11.934 29.795ZM659.348 194.7c6.348 10.428 13.19 20.353 23.264 27.674 3.508 2.46 6.164 6.129 3.264 10.577-3.08 4.801-8.139 4.19-11.372 1.254-7.811-6.928-14.841-14.726-22.159-22.157-1.14-1.193-1.966-2.534-4.093-5.491-3.412 11.267-6.53 21.28-9.636 31.402-.459 1.717-.564 3.613-1.009 5.439-1.603 6.951-8.641 9.236-13.473 4.055-2.538-2.687-4.592-6.872-4.67-10.297-.373-18.789-.295-37.522.015-56.172.095-8.432.969-16.846 1.501-25.33.376-7.024 3.054-10.559 7.842-10.358 5.784.192 10.07 5.439 9.546 12.149-.686 9.056-1.603 18.029-2.411 26.989-.131 1.678.175 3.303.232 5.623 7.221-11.835 13.769-22.814 20.453-33.587 2.254-3.373 4.849-6.676 7.714-9.568 3.949-4.019 8.917-4.172 12.748-.865 3.98 3.621 3.771 7.413.171 12.498-6.238 8.948-12 18.17-18.225 27.227-2.158 3.25-1.747 5.749.298 8.938Z"/>
</svg>
