<svg xmlns="http://www.w3.org/2000/svg" width="275" height="86" fill="currentColor" viewBox="0 0 275 86">
  <path d="M12.438 50.473c-.31-.379-.228-.623.248-.733.38-.092.673-.068.879.073.125.135.462.29 1.012.464.565.151 1.04.35 1.425.595.384.245.536.575.455.987.031.273-.107.538-.416.795-.313.238-.625.376-.936.415-.13-.055-.176-.145-.14-.271.032-.145.09-.315.171-.51.08-.214.104-.347.074-.401-.019-.096-.259-.21-.72-.341-.715-.203-1.192-.361-1.432-.475a2.16 2.16 0 0 1-.62-.598Zm-1.997 6.311a8.826 8.826 0 0 0 1.716-.86c.528-.36 1.077-.771 1.645-1.236a15.922 15.922 0 0 1 1.402-1.1l2.054-1.433a64.762 64.762 0 0 1 2.326-1.573c.802-.49 1.331-.53 1.587-.122.177.305.101.637-.228.998a2.052 2.052 0 0 1-.26.198c-.164.19-.48.31-.947.358-.448.045-.758.143-.928.295a93.8 93.8 0 0 1-1.64 1.264c-.818.612-1.557 1.17-2.217 1.672-.641.5-.968.77-.98.812-.576.526-1.548 1.167-2.916 1.923-.316.22-.6.293-.852.221-.233-.075-.361-.28-.385-.613-.031-.272-.014-.444.052-.516.081-.095.272-.191.572-.288Zm9.075 2.577a87.74 87.74 0 0 1-.765 1.785c-.48 1.144-.878 1.875-1.195 2.194-.394.333-.772.384-1.134.154-.346-.252-.38-.593-.104-1.023.09-.156.087-.434-.009-.834-.024-.234-.179-.79-.465-1.67-.29-.9-.469-1.532-.538-1.897.017-.122.104-.238.263-.348.173-.132.32-.2.438-.202.161.01.277.097.348.262.071.166.27.744.597 1.736.252.807.43 1.27.531 1.39.076.085.278-.211.607-.89.11-.26.242-.562.395-.91.36-.723.348-1.05-.036-.976-.23.043-.533.23-.908.559-.151.148-.295.175-.432.082-.118-.097-.171-.276-.161-.536-.003-.12.104-.288.321-.508a2.78 2.78 0 0 1 .678-.516c.34-.204.61-.295.813-.273.222.017.483.137.783.358.263.13.393.343.39.642a2.57 2.57 0 0 1-.14.832 2.32 2.32 0 0 1-.277.589Zm-.465 14.4c-.567.366-1.055.677-1.463.933a41.4 41.4 0 0 1-1.538.857l-1.745 1.016c-.575.328-1.056.518-1.443.572-.33.042-.588.041-.776-.003a1.03 1.03 0 0 1-.479-.326c-.25-.271-.291-.542-.124-.812.168-.27.443-.342.824-.216.425.04 1.028-.134 1.81-.52.8-.39 1.575-.816 2.323-1.275a75.52 75.52 0 0 1 1.197-.764c.016-.022.43-.3 1.244-.831.814-.532 1.229-.81 1.244-.832.113-.14.056-.438-.169-.892-.12-.216-.22-.327-.3-.331-.066-.028-.233.034-.502.184-.428.26-.844.27-1.248.028-.407-.261-.491-.603-.253-1.026.392-1.287.596-1.941.612-1.964.049-.268.023-.402-.076-.403-.084-.024-.298.056-.64.24-.81.451-1.276.51-1.399.175-.093-.28.158-.636.753-1.067.12-.102.26-.198.422-.288a2.48 2.48 0 0 1 1.37-.32c.502.025.822.193.96.505.09.261.005.755-.256 1.48-.26.725-.375 1.114-.345 1.168.01.058.208.05.592-.022.223-.082.418-.1.587-.052a.629.629 0 0 1 .434.246c.121.116.215.248.283.394.083.123.175.295.276.514.101.22.193.39.276.514.305-.177.999-.606 2.082-1.288a44.239 44.239 0 0 1 2.764-1.626 19.555 19.555 0 0 1 2.384-1.108c1.173-.42 1.946-.745 2.32-.975.25-.147.535-.22.853-.221.333-.024.513.032.538.166 0 .1-.008.22-.02.362a1.864 1.864 0 0 1-.052.517c-.005.08-.025.133-.06.16-.015.023-.056.07-.121.142a.429.429 0 0 1-.243.136c-.08-.005-.194.026-.34.094-.13.044-.286.064-.466.058-.653.124-1.425.399-2.319.826-.877.405-1.454.663-1.731.776-.373.13-.834.376-1.381.738-.548.362-.893.586-1.036.673-.115.022-.337.163-.665.424-.31.257-.51.404-.602.442a6.133 6.133 0 0 0-1.686 1.333c-.163.19-.239 1.049-.228 2.577-.032.145-.06.628-.084 1.447-.004.816-.07 1.465-.198 1.946-.105.497-.311.824-.62.982-.158.11-.388.153-.69.13a4.399 4.399 0 0 1-.711-.133 6.445 6.445 0 0 1-.481-.177 1.704 1.704 0 0 1-.388-.315 2.38 2.38 0 0 1-.306-.36 11.848 11.848 0 0 1-.329-.474 3.6 3.6 0 0 0-.333-.503c-.246-.351-.392-.602-.44-.752-.049-.15-.023-.274.078-.372.104-.08.233-.084.385-.014.156.09.274.187.353.291.03.054.111.168.244.342.136.193.245.351.328.475.102.12.216.247.34.382.145.132.27.218.378.257.228.156.382.236.462.24.08.005.2-.047.358-.157.127-.064.219-.21.275-.44.056-.229.079-.58.068-1.056.013-.46.025-.71.037-.752 0-.1-.01-.416-.03-.949.001-.517.028-.9.08-1.148.055-.448-.004-.655-.177-.622-.13.044-.478.259-1.041.644Zm24.505-26.433c.13-.045-.05.317-.54 1.086a87.727 87.727 0 0 1-1.506 2.282c-.53.776-.775 1.16-.736 1.154-.06.11-.266.328-.622.654-.337.322-.5.562-.49.719.627.795 1.19 1.404 1.687 1.827.45.273.617.58.502.919-.118.32-.42.407-.904.26-.157-.09-.41-.33-.763-.72-.356-.41-.635-.675-.836-.796l-.582-.396c-.151.147-.361.247-.63.298-.272.031-.41-.072-.416-.31-.03-.153.084-.393.34-.72a25.076 25.076 0 0 0 2.152-2.971 36.855 36.855 0 0 1 2.071-3.075c.179-.213.305-.336.378-.37.07-.053.183-.084.34-.094.234-.025.373-.021.42.01.064.027.109.108.135.243Zm3.002 2.473c-.103-.438-.108-.725-.014-.862.109-.16.341-.244.698-.252.225.037.38.276.464.718.098.418.108.943.03 1.574-.111.677-.3 1.2-.569 1.569-.35.463-.593.54-.732.228a.937.937 0 0 1 .114-.976c.198-.316.201-.982.009-2Zm-2.561 4.271c-.227.063-.383.023-.47-.12a2.725 2.725 0 0 1-.235-.611c-.05-.269-.135-.452-.253-.549-.311-.279-.362-.547-.152-.806.206-.277.488-.36.847-.25.228.156.442.603.641 1.34.088.361.105.606.05.736-.036.126-.179.213-.428.26Zm3.463 1.283c-2.551 1.854-4.48 3.481-5.785 4.881-.081.095-.269.26-.563.494-.293.235-.477.419-.551.552-.11.16-.374.439-.796.836-.406.375-.673.595-.8.659-.315.119-.573.068-.774-.152-.185-.243-.358-.578-.518-1.005-.141-.43-.276-.723-.405-.878-.14-.112-.252-.44-.334-.98-.058-.307-.026-.452.096-.436.302-.295.587-.26.855.107.223.335.508.898.856 1.687.086.242.304.19.657-.155 1.474-1.451 2.731-2.634 3.771-3.546 1.04-.912 2.29-1.874 3.748-2.886.224-.181.57-.396 1.04-.644a10.812 10.812 0 0 1 1.634-.667c.596-.212 1.01-.18 1.24.093a2.345 2.345 0 0 1 .241 1.118c-.01.16-.036.334-.08.522a3.821 3.821 0 0 1-.154.446l-.206.487a10.95 10.95 0 0 0-.183.452c-.152.247-.421.556-.808.928-.372.348-.607.522-.707.521-.183-.025-.266-.148-.249-.37.018-.222.133-.453.346-.692.113-.14.267-.428.463-.863.193-.453.31-.784.35-.99.074-.55-.327-.624-1.205-.22-.6.293-.993.526-1.18.7Zm-.243 6.278c-.018-.096-.09-.103-.213-.02a3.646 3.646 0 0 0-.18.153c-.12.103-.352.345-.697.729a8.677 8.677 0 0 1-.991.903 3.297 3.297 0 0 1-1.011.49c-.269.05-.488-.057-.657-.323-.15-.27-.091-.48.178-.63.382-.192.76-.452 1.135-.782.394-.333.808-.72 1.241-1.16.453-.443.809-.768 1.068-.976.217-.22.47-.348.762-.383.31-.04.544.036.699.225.17.167.198.47.082.91.04.21-.035.602-.224 1.175a30.088 30.088 0 0 1-.703 1.802 62.688 62.688 0 0 0-.513 1.23.74.74 0 0 0 .12.157c.068.047.156.09.262.129.107.04.203.071.287.095.103.02.208.05.315.09.122.016.205.03.247.042.358.111.84.288 1.442.532.622.24 1.206.438 1.752.593.543.136 1.19.252 1.944.348.758.115 1.725.29 2.902.524.126.036.281.066.465.09.187.045.313.08.378.108.084.024.17.058.258.1.11.06.192.123.245.193.056.088.108.208.157.358.083.123.066.295-.052.516-.098.218-.24.354-.429.41-.185.074-.364.019-.538-.167-.483-.346-1.467-.607-2.951-.783-1.462-.161-2.44-.344-2.937-.548a14.807 14.807 0 0 1-1.276-.444 16.35 16.35 0 0 0-1.466-.498 9.815 9.815 0 0 0-1.468-.348 2.423 2.423 0 0 0-.322.03c-.08-.004-.16.041-.242.136a1.919 1.919 0 0 0-.17.21 2.78 2.78 0 0 0-.134.235l-.163.24c-.508.99-1.311 1.58-2.409 1.767a.936.936 0 0 1-.677-.11c-.186-.144-.241-.332-.166-.565.059-.11.239-.154.541-.132.276-.013.528-.1.756-.262.228-.163.388-.312.481-.45.09-.155.198-.374.323-.657.141-.305.243-.503.305-.594.121-.202.155-.337.102-.407-.034-.073-.17-.107-.407-.102-.33.043-.626 0-.89-.13-.266-.148-.411-.34-.436-.573-.024-.234.114-.449.415-.645.235-.124.412-.187.53-.19.139-.006.42.06.843.198.5.124.786.16.855.107.073-.034.177-.222.31-.566.154-.347.301-.723.443-1.127.142-.405.252-.664.33-.778.117-.221.167-.38.149-.475Zm19.657-9.982c.101-.198.272-.558.51-1.08.255-.546.455-.961.6-1.247.144-.286.324-.648.54-1.086.234-.442.458-.832.672-1.17.21-.359.435-.7.672-1.023.05-.049.124-.182.222-.4.098-.217.207-.377.327-.479.116-.121.27-.15.46-.087.436.097.55.492.345 1.187-.033.146-.198.425-.498.84-.303.395-.508.623-.616.683a.788.788 0 0 0-.314.387c-.036.127.013.227.146.3.069.047.268.994.597 2.84l.523 2.763c.272-.032.518-.098.738-.2.234-.123.49-.3.764-.531.274-.231.456-.375.544-.431.197-.117.405-.276.626-.477a20 20 0 0 0 .481-.448c.243-.186.366-.328.367-.427.016-.123-.07-.315-.259-.578-.113-.177-.213-.287-.3-.33-.073-.066-.191-.113-.356-.142-.344-.034-.578-.01-.701.073-.124.083-.32.359-.59.827-.267.369-.474.328-.619-.121-.103-.338-.102-.647.004-.925.165-.39.467-.685.906-.887.435-.222.863-.273 1.283-.154.588.167 1.027.542 1.315 1.123.29.581.58 1.431.87 2.549a25.86 25.86 0 0 1 .634 3.19 13.87 13.87 0 0 0 .591 2.81c.067.246.065.445-.006.597-.07.153-.056.389.044.707.088.461.087.878-.001 1.253-.069.37-.19.622-.364.755-.174.132-.392.134-.655.004l-.171-.116a1.218 1.218 0 0 0-.217-.198 1.54 1.54 0 0 0-.221-.226 6.157 6.157 0 0 0-.188-.203l-.101-.22a.364.364 0 0 1-.038-.201.284.284 0 0 1 .15-.148c.07-.053.19.004.36.17.19.163.305.241.343.234.115-.022.154-.238.116-.648-.019-.414-.09-.63-.212-.646-.639.3-1.587.857-2.844 1.671-.798.509-1.352.733-1.662.673-.313-.08-.56-.49-.74-1.232a4.606 4.606 0 0 1-.189-1.157c-.043-1.383-.451-4.119-1.225-8.206-.177-1.04-.352-1.653-.526-1.839-.152-.17-.387.163-.706.998a1.538 1.538 0 0 0-.1.258c-.17.47-.294.761-.371.875a.48.48 0 0 1-.319.21.564.564 0 0 1-.538-.167.565.565 0 0 1-.103-.547Zm7.458 1.6c-.645.58-1.117.977-1.414 1.192-.282.193-.72.454-1.313.785-.12.102-.193.186-.22.25-.032.046-.04.157-.027.334.02.632.093 1.016.218 1.151.076.085.387-.053.935-.415s.927-.673 1.136-.93c.221-.301.651-.552 1.29-.752l.478-.15-.198-.887a2.71 2.71 0 0 0-.1-.369 3.13 3.13 0 0 1-.088-.31.194.194 0 0 0-.062-.168.477.477 0 0 1-.05-.11c-.004-.019-.043-.012-.116.022a.652.652 0 0 0-.185.125c-.054.03-.148.107-.284.232Zm-2.004 4.852a2.22 2.22 0 0 1-.358.157c-.115.022-.188.056-.219.101-.015.023-.03.105-.043.247a5.17 5.17 0 0 0 .021.741c.026.453.062.744.106.875.041.111.143.231.307.36l.313.238.578-.258c1.301-.684 2.292-1.279 2.971-1.785.066-.072-.038-1.046-.314-2.922-.07-.265-.68.079-1.832 1.032-.12.102-.257.218-.412.346-.17.152-.376.32-.62.505a5.373 5.373 0 0 0-.498.363Zm22.884-6.954c-.438-.315-.453-.66-.047-1.035a2.529 2.529 0 0 1 1.455-.663c.825-.156 1.314-.358 1.465-.605.056-.13.04-.425-.048-.886-.068-.464-.157-.725-.267-.784-.188-.044-.638.2-1.352.733-.715.533-1.246.981-1.595 1.345-.517.416-.88.863-1.088 1.34-.141.304-.2.623-.177.957.024.333.138.938.344 1.813.065.346.15.688.253 1.026.104.338.169.574.194.709.041.111.05.268.03.471a1.93 1.93 0 0 1-.237.641c-.21.258-.496.213-.86-.135l-.262-.279-.142-1.225c-.091-.798-.295-1.714-.61-2.747-.295-1.038-.501-1.863-.617-2.477a7.278 7.278 0 0 1-.119-.783c.01-.16.048-.327.115-.499.067-.171.108-.318.125-.44.019-.322.242-.454.67-.396l.224 1.18c.01.058.022.115.033.173l.021.115.028.144.016.086c.004.02.01.058.022.115.061.327.106.507.132.542.042.012.135-.075.279-.261l.028-.006c.04-.107.16-.259.361-.456.202-.197.441-.401.72-.613.293-.234.48-.4.562-.494.46-.505 1.04-.962 1.738-1.373l.428-.26c.161-.09.258-.158.289-.203a.743.743 0 0 1 .156-.12c.07-.052.088-.115.054-.188a.76.76 0 0 1-.015-.236c.005-.08-.022-.224-.082-.432a7.457 7.457 0 0 1-.096-.667 53.83 53.83 0 0 1-.23-1.06.463.463 0 0 1 .118-.32c.232-.243.463-.287.69-.131.244.132.37.377.378.733.185.979.325 1.51.42 1.59.177-.013.54-.092 1.089-.235.549-.144.946-.2 1.191-.166 1.424.068 2.245.152 2.462.25.24.113.409.27.507.47.113.178.199.529.259 1.055.062.326.097.617.106.874.028.253.047.458.057.615.029.154.022.384-.019.69a7.032 7.032 0 0 1-.069.58c-.005.08-.055.338-.152.773-.077.432-.128.74-.153.924-.045.287-.082.512-.111.677a.76.76 0 0 0 .037.35.86.86 0 0 0 .096.191c.042.012.116.038.223.077.126.036.221.068.286.095.099.1.053.278-.137.533-.194.236-.387.371-.579.408-.077.014-.32.15-.728.406-.394.233-.669.355-.826.365-.288.054-.842.278-1.662.672-1.24.593-2.14.922-2.705.99-.314.019-.521.028-.62.027a1.08 1.08 0 0 1-.298-.152c-.235-.194-.329-.425-.28-.693.044-.187.388-.42 1.03-.701a1.55 1.55 0 0 1 .3-.147c.127-.064.2-.097.22-.101a.457.457 0 0 0 .099-.108c.046-.069.064-.132.053-.19a3.12 3.12 0 0 1-.036-.35 26.583 26.583 0 0 0-.017-2.77c-.003-.118-.046-.19-.13-.214-.104-.02-.417.06-.94.238-.522.178-.901.33-1.136.453-.25.147-.433.231-.549.253a.55.55 0 0 1-.372-.078Zm4.244-3.1c.172-.032.436-.161.791-.388.374-.23.634-.428.782-.595.31-.357.56-.454.75-.29.095.08.123.284.085.61-.041.305-.128.53-.26.674-.097.118-.348.315-.753.59-.408.256-.749.45-1.023.581a.469.469 0 0 0-.33.301c-.052.15-.075.392-.071.73.02.314.027.511.022.591.026.135.035.55.028 1.248.012.693.034 1.126.067 1.299.213.079.547.006 1.002-.22.473-.228.787-.357.94-.386.435-.122.71-.244.826-.365a.868.868 0 0 0 .158-.269c.07-.152.126-.331.166-.538.056-.23.108-.428.156-.596l.15-.625c.052-.248.09-.414.114-.498.059-.11.103-.457.132-1.039.025-.601.017-1.116-.024-1.546-.03-.471-.096-.767-.198-.887-.083-.123-.317-.258-.703-.404-.137-.093-.314-.139-.533-.137a5.032 5.032 0 0 0-.89.02c-.392.034-.606.054-.645.062a2.098 2.098 0 0 0-.65.182c-.224.082-.376.17-.457.266-.066.072-.088.275-.064.608.02.314.069.574.147.777a.971.971 0 0 0 .101.22c.046.03.107.04.184.025Zm24.899-4.652c.025-.183.005-.289-.06-.316-.069-.047-.122-.067-.16-.06a.925.925 0 0 0-.186.125l-.242.135c-.182.194-.413.238-.691.131-.279-.106-.47-.279-.575-.517-.089-.262-.052-.537.112-.827.129-.262.246-.434.35-.513.57-.346 1.147-.346 1.729 0 .583.348.877.799.883 1.354.008.675-.155 1.441-.489 2.3-.339.839-.707 1.465-1.106 1.878-.177.113-.337.163-.478.15-.126-.035-.204-.13-.233-.283-.013-.177.05-.368.19-.573.245-.384.465-.903.659-1.556.214-.657.313-1.133.297-1.428Zm23.396 2.371c-.058.011-.168.111-.331.301-.307.376-.62.455-.939.238-.32-.218-.333-.554-.041-1.006.094-.237.176-.382.245-.434.07-.053.226-.123.468-.208.092-.038.411-.456.955-1.255.56-.821.88-1.339.959-1.552.227-.48.512-1.23.856-2.25.36-1.042.514-1.697.463-1.966-.007-.038-.059-.048-.155-.03a1.644 1.644 0 0 0-.363.128 1.28 1.28 0 0 0-.37.25c-.268.268-.517.316-.749.14-.235-.193-.29-.431-.165-.713.11-.26.481-.608 1.114-1.046.629-.457.995-.834 1.098-1.132.08-.313.061-.936-.055-1.868l-.084-.76-.337-.204c-.202-.12-.312-.23-.33-.325-.018-.096.035-.235.159-.418a.619.619 0 0 0 .124-.292c.02-.103.005-.289-.046-.558-.149-.369-.128-.621.065-.757.212-.14.452-.135.718.013.042.012.119.206.23.583.126.353.213.546.258.577.095.081.56.122 1.395.123.418.001.684.04.798.118.114.078.188.262.224.554.021.215.046.349.076.403.03.054.121.116.274.187.465.25.659.54.583.873-.147.485-.755 1.157-1.825 2.015-.151.148-.329.311-.534.489-.209.159-.336.272-.383.34-.05.05-.122.143-.215.28a1.77 1.77 0 0 0-.217.429c-.033.145-.071.361-.116.648-.086.493-.185.969-.297 1.428a7.882 7.882 0 0 1-.338 1.047c-.091.256-.232.611-.425 1.065a14.19 14.19 0 0 0-.396 1.059c-.032.145-.412.764-1.139 1.855-.732 1.073-1.136 1.617-1.212 1.631Zm4.741-13.39c-.28-.007-.458.047-.536.16-.082.096-.111.31-.087.643.035.292.083.442.144.45.077-.014.217-.17.419-.467.323-.498.343-.76.06-.786Zm-12.908 9.628c-1.135.195-1.592-.643-1.37-2.514.01-.16-.003-.436-.037-.827-.096-.718-.086-1.296.029-1.735.135-.443.348-.633.638-.568.348.053.54.434.574 1.143.02.315.007.615-.038.902-.045.287-.069.63-.073 1.028-.029.9.064 1.34.279 1.319.077-.015.183-.085.318-.21.313-.238.421-.875.324-1.91-.057-.407.063-1.244.36-2.513a.645.645 0 0 1 .256-.376.566.566 0 0 1 .547-.104c.1.001.165.029.195.083.026.034.041.111.043.23.025.234-.026.7-.152 1.4-.173 1.186-.16 1.78.039 1.782.199.002.592-.39 1.179-1.177.066-.072.13-.154.192-.245l.117-.172a.198.198 0 0 1 .133-.084c.057-.011.13.005.217.048.199.102.159.417-.119.947-.25.464-.437.788-.561.97-.109.16-.419.517-.931 1.071a1.836 1.836 0 0 0-.434.858c-.06.31-.064.817-.01 1.522.096.718.101 1.69.016 2.92-.07 1.205-.111 1.83-.123 1.871.057.089.047.667-.029 1.735-.052.567-.274.867-.665.901-.173.033-.325-.038-.457-.211-.106-.14-.164-.238-.175-.295.004-.08.026-.284.063-.609.066-.39.101-.883.108-1.481.021-.62.055-1.074.1-1.36.118-.321.171-.938.157-1.85A17.71 17.71 0 0 0 140.09 42c-.049-.05-.218-.048-.506.006Zm12.612-1.581c.204-.079.382-.133.536-.161.173-.033.402-.027.689.018.287.045.524.09.711.134.184.025.402.073.654.145.271.068.458.112.562.132.176-.014.433.087.772.3.339.215.52.33.542.346.417.1 1.139.5 2.166 1.2.955.634 1.609 1.047 1.963 1.238.355.192.662.293.922.303.226.037.489.116.791.238.317.099.48.227.49.384.052.17.042.38-.03.632-.075.233-.166.38-.274.44-.108.06-.414-.032-.917-.274-.487-.266-.771-.4-.852-.406-.164-.028-.933-.469-2.307-1.322-1.355-.857-2.227-1.368-2.616-1.532-.118-.098-.608-.273-1.471-.527-.848-.277-1.374-.486-1.58-.626-.011-.057-.104-.129-.279-.215a4.71 4.71 0 0 0-.423-.188c-.091-.063-.108-.149-.049-.26Zm28.271-12.834c.007.038.172.017.494-.064.281-.093.52-.089.718.013.195.082.356.25.484.505.124.235.207.467.251.698.063.226.125.503.187.83.02.631-.118 1.005-.414 1.121-.258.108-.455.116-.592.023-.141-.113-.177-.305-.109-.576.101-.516.007-.906-.281-1.17-.174-.185-.353-.131-.536.162-.05.049-.174.182-.372.398a5.54 5.54 0 0 1-.458.415 6.36 6.36 0 0 1-.423.288.85.85 0 0 1-.507.156.95.95 0 0 1-.481-.177c-.065-.028-.106-.09-.124-.186a1.047 1.047 0 0 1-.003-.327l.108-.378a2.16 2.16 0 0 1 .154-.447c.07-.152.127-.272.17-.36l.176-.332c.055-.13.081-.204.077-.223a3.12 3.12 0 0 0 .26-.675c.083-.294.114-.499.092-.614-.05-.269-.224-.345-.52-.23-.369.15-.612.236-.727.257a.448.448 0 0 1-.344-.084c-.156-.09-.256-.2-.301-.33a1.05 1.05 0 0 1 .028-.483c.044-.187.102-.357.172-.51a6.78 6.78 0 0 0 .23-.52 2.68 2.68 0 0 0 .165-.389l.36-.933c.173-.45.283-.759.331-.927l.084-.344c-.298-.103-.449-.273-.454-.51-.009-.257.152-.506.484-.748.386-.272.726-.316 1.019-.133.137.093.212.178.227.255.011.058-.001.259-.035.603-.046.704-.264 1.491-.657 2.36-.301.614-.417.944-.349.991.023.016.221-.042.594-.172l.53-.19c.023.016.071.056.143.122a.516.516 0 0 1 .171.117c.026.035.068.096.124.185.053.07.064.127.033.173.004.337-.027.75-.093 1.24-.067.49-.095.863-.086 1.12Zm-8.377-1.248a1.336 1.336 0 0 1-.186.274.82.82 0 0 0-.112.2.339.339 0 0 0-.001.15.809.809 0 0 0 .177.145c.087.043.151.17.191.381.036.192.069.315.1.369.045.03.191-.037.438-.203s.505-.274.774-.325a.993.993 0 0 1 .774.152c.274.187.455.41.544.672.105.239.201.747.289 1.526.091.797.109 1.52.052 2.166.018.196-.097.536-.343 1.02l-.341.72c-.067.172-.126.282-.176.331-.054.03-.186.066-.398.106-.191.036-.322.08-.392.133-.054.03-.135.125-.244.285-.354.544-.573.914-.655 1.108-.067.172-.19.255-.37.25a.814.814 0 0 1-.636-.209c-.171-.166-.203-.389-.096-.667.032-.145.073-.292.125-.441.07-.153.11-.26.118-.32a3.28 3.28 0 0 0-.019-.415c-.02-.215-.073-.542-.156-.984-.087-.46-.24-1.584-.459-3.372-.049-.468-.112-.694-.189-.68-.076.015-.142.087-.197.217a.468.468 0 0 0-.061.31 2.162 2.162 0 0 1-.246.433 2.25 2.25 0 0 1-.481.45c-.178.112-.35.095-.517-.052-.144-.132-.225-.246-.243-.342-.019-.096.025-.233.13-.412.152-.247.347-.741.585-1.482.253-.764.561-1.289.924-1.576.12-.102.228-.262.326-.48.118-.22.192-.354.223-.4.093-.136.246-.225.457-.265.211-.04.375-.011.493.086.255.19.187.57-.202 1.141Zm.373 3.388c-.116.122-.156.328-.121.62.035.291.104.497.206.617.046.03.29-.204.731-.705l.692-.757-.047-.409c-.038-.41-.23-.583-.575-.517a.793.793 0 0 0-.662.602 2.964 2.964 0 0 1-.224.55Zm1.52 1.412c-.088-.36-.437.003-1.046 1.093-.117.22-.174.34-.17.36-.087.275-.062.41.076.403a.493.493 0 0 0 .139-.056c.1-.099.301-.405.601-.919s.434-.808.4-.88Zm-6.521.519c.052.07.058.257.017.563-.045.287-.116.648-.213 1.084-.096.436-.159.736-.187.9-.097.436-.099.635-.006.597l.093-.136c.367-.686.634-1.114.801-1.285a1.05 1.05 0 0 1 .618-.356c.115-.021.289.005.522.08.233.076.376.148.429.218.034.073.162.595.386 1.567.201.955.271 1.538.211 1.748a.845.845 0 0 1-.256.377c-.12.102-.245.126-.374.07-.191-.063-.429-.634-.712-1.713a2.517 2.517 0 0 0-.111-.426 1.744 1.744 0 0 0-.107-.249c-.033-.073-.069-.106-.108-.098-.022-.016-.063-.018-.12-.007-.101.098-.328.529-.68 1.291-.356.743-.587 1.205-.693 1.383-.167.27-.356.426-.567.466-.749.141-.933-.41-.552-1.655.139-.523.232-1.296.277-2.319.033-.244.033-.403-.001-.477-.037-.092-.1-.11-.189-.053a4.666 4.666 0 0 0-.329.152c-.108.06-.226.122-.353.185a.632.632 0 0 1-.385.014c-.44-.016-.701-.136-.783-.359-.063-.226.014-.659.232-1.296.287-.79.448-1.307.481-1.552a.71.71 0 0 0-.24-.64c-.373-.288-.385-.614-.036-.978.348-.364.702-.44 1.059-.23.111.059.209.16.296.302.085.342.115.763.09 1.265a5.346 5.346 0 0 1-.208 1.262c-.111.359-.13.571-.058.637.068.047.224-.072.469-.357.129-.263.372-.398.728-.406.353-.027.539.116.559.43Zm11.952.451c.292-.035.498.005.619.121.137.094.184.234.14.421a1.948 1.948 0 0 1-.196.544 1.997 1.997 0 0 1-.378.52c-.407.374-.996 1.042-1.768 2.003-.753.958-1.369 1.641-1.848 2.05a.908.908 0 0 0-.329.628c-.029.264.006.715.107 1.352.037.51.139 1.415.305 2.715.167 1.3.279 2.313.336 3.037l.092 1.116-.28.41c-.187.275-.318.419-.395.433-.307.059-.755-.314-1.345-1.117-.393-.502-.611-.868-.655-1.098-.08-.422-.024-.652.168-.688.096-.018.182.015.258.1.072.066.183.234.334.504.293.5.469.587.526.258-.018-.514-.248-2.517-.691-6.012-.034-.073-.171-.066-.414.019-.242.086-.44.193-.595.321a10.38 10.38 0 0 1-.92.652c-.359.207-.771.444-1.237.71-.451.245-.802.44-1.052.587-.906.57-1.498.91-1.775 1.022-.277.112-.489.093-.637-.058-.276-.306-.307-.628-.093-.966.105-.18.874-.633 2.307-1.361 1.432-.729 2.222-1.176 2.369-1.343.155-.129.357-.267.608-.413.266-.17.476-.32.631-.448.174-.132.342-.293.505-.483l.215-.28-.229-1.208-.201-1.065a.55.55 0 0 1 .136-.384c.222-.4.482-.499.779-.297a.59.59 0 0 1 .232.285c.038.092.098.359.182.8.116.614.216.933.3.957.08.005.281-.143.602-.442.321-.3.641-.658.959-1.076.369-.467.581-.766.636-.895a.516.516 0 0 0 .039-.425c-.101-.22-.113-.386-.035-.5.078-.115.217-.22.417-.318.2-.098.333-.182.399-.254a.452.452 0 0 0 .099-.109c.05-.049.085-.075.104-.079a.085.085 0 0 0 .052-.04.227.227 0 0 1 .081-.045.23.23 0 0 1 .081-.045.259.259 0 0 1 .11-.05 37.613 37.613 0 0 1 .345-.066Zm8.484 8.592c.297.202.374.506.232.91-.142.405-.323.658-.542.759-.116.022-.297-.043-.544-.195-1.656-.661-4.141-1.135-7.455-1.422-1.114-.107-1.692-.326-1.734-.656-.029-.154.123-.292.458-.415.238-.104.624-.167 1.157-.189.532-.021.906.008 1.119.087 2.12.274 3.827.577 5.122.909.397.103.82.133 1.269.088.291-.036.489-.043.592-.023.103.02.212.07.326.147Zm-17.889 4.578a4.87 4.87 0 0 0 .785-1.37c.185-.493.369-.886.552-1.179.047-.068.179-.312.398-.731.235-.442.429-.727.584-.856.29-.254.56-.295.811-.124.297.202.309.528.036.977-.23.362-.574 1.013-1.032 1.955-.458.941-.842 1.64-1.153 2.097-.42.616-.707.938-.861.968a.644.644 0 0 1-.498-.115.598.598 0 0 1-.255-.399.628.628 0 0 1 .05-.367c.074-.134.269-.419.583-.856Zm26.658-5.76c.014-.242.261-.825.742-1.75.5-.93.77-1.498.811-1.705-.011-.057.093-.345.313-.864s.392-.87.517-1.052c.253-.446.294-.652.121-.62-.346.166-1.017.402-2.013.71-.979.284-1.644.5-1.994.645-.247.166-.508.156-.782-.03-.254-.191-.321-.437-.199-.738.025-.184.078-.323.16-.418a.467.467 0 0 1 .266-.17 4.05 4.05 0 0 1 .57-.137l.795-.21c1.367-.339 2.125-.591 2.272-.758.043-.088-.015-.604-.174-1.548a31.416 31.416 0 0 0-.569-2.695 7.353 7.353 0 0 0-.176-.772c-.033-.172-.104-.288-.215-.347-.091-.062-.166-.087-.223-.077a4.446 4.446 0 0 0-.392.134c-.227.063-.415.119-.565.167-.246.066-.419.099-.518.098a1.084 1.084 0 0 1-.35-.113c-.602-.244-.622-.558-.059-.943.351-.245.701-.391 1.051-.437.418-.1.658-.194.721-.286.058-.11.042-.355-.05-.736-.395-1.456-.579-2.375-.552-2.758-.032-.272.074-.5.318-.686.239-.204.472-.288.697-.251.042.43.17 1.16.386 2.193.234 1.029.406 1.622.516 1.78.068.047.169.058.304.033.15-.049.461-.187.935-.416 1.17-.54 1.778-.952 1.823-1.24.032-.145.004-.606-.084-1.385-.087-.778-.161-1.271-.22-1.479-.254-.608-.053-1.014.605-1.218l.068.047c.145.032.235.085.268.158.031.054.073.225.127.513.05.368.112.694.185.979.091.48.149.836.173 1.07.025.234.081.372.168.415.104.02.18.006.231-.043.05-.05.156-.12.318-.21.177-.113.354-.176.53-.19.319-.1.537-.001.652.295.112.277.034.49-.236.64-.132.145-.334.283-.608.414a2.299 2.299 0 0 0-.659.453c-.148.167-.212.407-.192.722.044.548.046 1.134.005 1.758a12.486 12.486 0 0 1-.158 1.372l-.303 1.548c-.001.1-.045.237-.131.412l-.212.458c-.054.13-.057.22-.008.27.354-.127.904-.42 1.652-.88.764-.482 1.33-.798 1.699-.947.547-.263.907-.46 1.081-.592a1.15 1.15 0 0 0 .413-.496c.021-.203.165-.34.43-.41.265-.07.523-.068.775.003.272.068.401.173.388.314.043.23.029.472-.042.724-.056.23-.172.35-.349.364-2.152 1.024-3.691 1.872-4.617 2.544-.243.185-.665.424-1.266.716-.581.29-.992.536-1.231.74-.209.159-.344.284-.406.375-.066.072-.086.126-.06.16a.988.988 0 0 1 .143.123c.065.027.106.089.124.185.015.077-.013.191-.084.344-.191.354-.481 1.134-.869 2.34-.391 1.188-.716 1.995-.973 2.421-.062.092-.16.309-.294.652-.134.344-.284.6-.45.771-.148.167-.34.204-.576.11-.084-.025-.187-.095-.308-.21-.106-.14-.168-.257-.186-.353Zm3.938-8.498c.024-.084.095-.495.214-1.233.134-.76.236-1.377.306-1.847s.131-.989.183-1.555c.048-.586.041-.992-.022-1.219-.13-.055-.407.057-.831.337-.428.26-.709.402-.843.427-.635.22-1.01.39-1.126.512-.12.102-.143.345-.071.729.05.368.198 1.046.445 2.033.265.983.406 1.622.422 1.917-.054.448.099.628.46.54.392-.134.68-.348.863-.64Zm3.778 3.579c-.256-.409-.179-.682.233-.82.43-.14.814-.054 1.152.26.026.034.051.06.074.075.3.221.727.429 1.28.622.573.19.981.351 1.225.484.818.541 1.574.915 2.269 1.121.322.019.498.214.529.586.03.372-.057.647-.262.825-.143.186-.364.228-.662.125a6.265 6.265 0 0 1-.994-.527c-.346-.253-.572-.399-.679-.438a5.241 5.241 0 0 1-.634-.358 2.126 2.126 0 0 0-.503-.292c-.179-.105-.522-.24-1.03-.401a8.084 8.084 0 0 1-1.092-.57c-.43-.276-.732-.507-.906-.692Zm14.761-23.248c-.31-.379-.227-.623.249-.733.38-.092.673-.068.878.072.125.136.463.29 1.012.465.566.151 1.041.35 1.425.595.384.245.536.574.455.987.032.273-.107.537-.416.795-.313.238-.625.376-.935.415-.13-.055-.177-.145-.141-.271a2.94 2.94 0 0 1 .172-.51c.079-.214.103-.348.073-.401-.018-.096-.258-.21-.721-.341-.714-.203-1.191-.361-1.431-.475a2.154 2.154 0 0 1-.62-.598Zm-1.996 6.311a8.841 8.841 0 0 0 1.715-.861c.529-.358 1.077-.77 1.645-1.236a15.77 15.77 0 0 1 1.402-1.1c.316-.219 1.001-.696 2.054-1.432a64.683 64.683 0 0 1 2.327-1.573c.801-.49 1.33-.53 1.587-.122.177.305.1.637-.229.998a2.035 2.035 0 0 1-.261.198c-.162.19-.478.31-.946.358-.448.045-.758.143-.928.295-.259.208-.805.63-1.639 1.264a352.74 352.74 0 0 0-2.218 1.672c-.641.5-.968.77-.979.812-.577.526-1.549 1.167-2.916 1.923-.317.219-.601.293-.853.221-.233-.075-.361-.28-.384-.613-.032-.272-.015-.445.051-.517.081-.095.272-.19.572-.287Zm9.075 2.577a92.7 92.7 0 0 1-.766 1.784c-.479 1.145-.877 1.876-1.195 2.195-.394.332-.772.384-1.133.154-.346-.252-.381-.593-.105-1.023.09-.157.087-.434-.008-.834-.025-.234-.18-.79-.466-1.67-.289-.9-.468-1.532-.537-1.897.016-.122.104-.238.262-.348.174-.132.32-.2.439-.202.16.01.276.097.347.262.072.166.27.744.597 1.736.252.807.43 1.27.532 1.39.075.085.278-.211.607-.89.109-.26.241-.562.394-.91.36-.724.348-1.05-.036-.977-.23.044-.533.23-.908.56-.151.148-.295.175-.432.082-.117-.097-.171-.276-.161-.537-.002-.118.105-.288.322-.508.216-.22.442-.391.677-.515.339-.204.61-.295.813-.273.222.017.483.137.784.358.263.13.393.343.39.642a2.595 2.595 0 0 1-.141.832 2.32 2.32 0 0 1-.276.589Zm-.466 14.4c-.567.366-1.054.676-1.463.933-.393.233-.906.519-1.537.857l-1.746 1.016c-.574.328-1.055.518-1.443.571-.329.043-.588.042-.775-.002a1.035 1.035 0 0 1-.48-.327c-.25-.27-.291-.54-.123-.811.167-.27.442-.342.824-.216.424.04 1.028-.134 1.809-.521.801-.39 1.575-.815 2.323-1.274a76.153 76.153 0 0 1 1.198-.764c.015-.023.43-.3 1.244-.831.813-.532 1.228-.81 1.244-.832.112-.14.056-.438-.169-.893-.121-.215-.221-.326-.301-.33-.065-.028-.232.034-.502.184-.428.26-.844.27-1.247.027-.408-.26-.492-.602-.254-1.025.393-1.287.597-1.942.612-1.964.049-.268.023-.402-.076-.403-.084-.024-.298.056-.64.24-.809.451-1.276.51-1.398.175-.093-.28.157-.636.752-1.067.12-.102.26-.198.422-.288a2.47 2.47 0 0 1 1.371-.32c.502.025.822.193.96.505.089.261.004.755-.256 1.48-.261.725-.376 1.114-.346 1.168.011.058.208.05.592-.022.223-.082.419-.1.587-.052a.63.63 0 0 1 .434.246c.121.116.216.247.283.394a3.8 3.8 0 0 1 .276.514c.102.22.194.39.277.514a94.42 94.42 0 0 0 2.081-1.288 44.375 44.375 0 0 1 2.764-1.627 19.475 19.475 0 0 1 2.384-1.107c1.173-.42 1.946-.746 2.32-.975.251-.147.535-.22.853-.221.334-.024.513.032.538.166-.001.1-.008.22-.021.362.003.119 0 .209-.008.27a4.458 4.458 0 0 1-.043.246c-.005.08-.024.134-.059.16a1.744 1.744 0 0 1-.122.143.43.43 0 0 1-.243.136c-.08-.005-.194.026-.34.094a1.317 1.317 0 0 1-.466.058c-.652.123-1.425.399-2.318.826-.878.405-1.455.663-1.732.775-.373.13-.833.377-1.381.739s-.893.586-1.035.673c-.116.021-.337.163-.666.424-.309.257-.509.404-.602.442a6.126 6.126 0 0 0-1.686 1.333c-.163.19-.238 1.049-.228 2.577-.032.145-.06.628-.083 1.447-.005.816-.071 1.465-.199 1.946-.105.497-.311.824-.619.982-.158.11-.388.153-.691.13a4.395 4.395 0 0 1-.711-.133 6.533 6.533 0 0 1-.481-.178 1.716 1.716 0 0 1-.387-.314 2.524 2.524 0 0 1-.307-.36 12.96 12.96 0 0 1-.328-.474 3.593 3.593 0 0 0-.334-.503c-.245-.351-.392-.602-.44-.752-.049-.15-.022-.274.078-.372.104-.08.233-.084.385-.014.156.09.274.187.354.291.03.054.111.168.243.342.136.193.245.351.328.474.103.12.216.248.341.383.144.132.27.217.377.257.228.155.382.236.463.24.08.005.199-.047.358-.157.127-.064.218-.21.274-.44.056-.229.079-.58.069-1.056.012-.46.024-.71.036-.752.001-.1-.009-.416-.03-.949.001-.517.028-.9.081-1.148.054-.448-.005-.655-.178-.623-.131.045-.477.26-1.041.645Zm25.665-15.263c.016-.44.183-.87.501-1.288.315-.437.693-.697 1.135-.78a1.51 1.51 0 0 1 .855.106c.297.102.537.266.719.49.083.123.171.434.266.933.11.477.158.835.144 1.076-.04.525-.357 1.111-.949 1.76a3.44 3.44 0 0 1-.435.38c-.07.054-.21.1-.421.14-.461.087-.767.096-.92.025-.156-.09-.362-.339-.618-.748a1.957 1.957 0 0 1-.286-.72 7.633 7.633 0 0 1-.057-.616l.066-.758Zm1.66 1.683a.516.516 0 0 1 .155.03.81.81 0 0 0 .178-.003c.054-.03.118-.112.192-.245.074-.133.147-.326.219-.578.131-.462.213-.766.245-.911.028-.165.03-.314.004-.448-.01-.157-.088-.312-.236-.462-.175-.186-.484-.088-.928.294-.171.152-.273.29-.309.417-.036.126-.06.418-.073.878-.002.2-.011.36-.028.482.003.12.013.226.032.322.033.074.046.14.038.202-.012.042.012.067.074.075.08.005.112.019.097.042l.144-.028c.111-.04.177-.063.196-.067Z"/>
</svg>
