<svg width="525" height="497" viewBox="0 0 525 497" fill="none" xmlns="http://www.w3.org/2000/svg">
<path d="M232.966 9.60559C232.966 7.28077 232.967 4.99601 232.969 2.75684C186.004 29.8756 104.217 77.1041 55.9963 104.952C55.9783 146.985 55.9507 205.534 55.9424 240.397C104.052 212.619 186.607 164.94 232.912 138.196C232.927 105.016 232.949 50.9537 232.966 9.60559Z" fill="white"/>
<path d="M521.328 410.153C521.328 401.603 521.328 364.75 521.335 329.032C480.491 305.438 382.604 248.911 311.828 208.038C289.813 195.325 270.422 184.126 256.192 175.894C216.074 199.085 158.616 232.286 112.916 258.678C184.822 300.189 355.66 398.843 378.469 412.013C378.456 452.13 378.456 492.988 378.456 492.988V493.379C378.947 493.097 379.437 492.814 379.437 492.814C383.401 490.532 498.702 423.894 521.327 410.825C521.327 410.624 521.327 410.401 521.327 410.152L521.328 410.153Z" fill="white"/>
<path d="M316.131 210.523C325.31 215.823 334.91 221.368 344.753 227.052L344.625 228.919C346.351 228.914 347.89 228.997 348.584 229.075L349.626 229.193C350.857 232.873 352.786 238.1 353.958 242.444C356.757 240.867 360.407 239.085 363.933 236.971C369.689 233.528 375.163 229.174 376.294 223.33C376.774 220.821 376.578 218.239 376.257 215.704C375.151 206.761 373.034 195.347 367.462 187.991C364.067 183.489 358.704 177.684 353.477 175.002C353.477 175.002 338.933 171.481 330.417 169.945C321.901 168.411 314.212 175.145 314.212 175.145C306.077 181.26 300.274 190.404 298.204 200.368L298.697 205.088C301.828 202.453 305.932 201.864 310.963 204.454C312.313 205.149 314.075 207.677 314.071 209.598L316.131 210.343" fill="white"/>
<path d="M327.154 129.746C336.002 124.254 347.749 124.714 356.537 130.958C365.118 137.055 368.186 148.415 364.51 157.857C366.401 158.705 367.91 160.475 368.246 162.578C368.704 165.449 367.21 168.597 364.885 170.462C362.351 172.494 358.729 173.586 355.62 173.358C348.3 179.769 336.839 180.876 328.288 176.174C325.824 174.819 323.618 173.014 321.759 170.908C312.964 160.955 312.809 144.46 321.622 134.433C323.269 132.56 325.136 130.999 327.154 129.746Z" fill="white"/>
<path d="M445.579 233.873C443.642 233.533 441.758 233.238 440.069 233.026C431.467 231.952 423.045 237.525 423.045 237.525C414.91 243.641 409.107 252.785 407.037 262.749L407.53 267.469C410.661 264.833 414.765 264.245 419.796 266.835C421.146 267.53 422.908 270.058 422.904 271.979C422.904 272.048 422.904 272.116 422.903 272.184C433.065 278.05 443 283.787 452.512 289.281L452.193 291.002C452.715 290.974 453.211 290.988 453.661 291.039L456.131 291.424L458.539 291.8C459.77 295.465 461.644 300.568 462.791 304.824C465.589 303.246 469.24 301.464 472.766 299.351C478.522 295.907 483.996 291.553 485.127 285.71C485.607 283.2 485.411 280.618 485.09 278.083C483.984 269.14 481.867 257.726 476.295 250.371C472.9 245.869 467.537 240.063 462.31 237.382C462.31 237.382 453.501 235.263 445.578 233.872L445.579 233.873Z" fill="white"/>
<path d="M423.222 213.461C422.964 220.588 425.228 227.822 429.964 233.183C431.85 235.317 434.085 237.146 436.582 238.519C444.813 243.044 455.703 242.261 463.135 236.609C463.913 236.018 464.873 235.734 465.848 235.676C468.593 235.513 471.521 234.457 473.673 232.73C476.03 230.839 477.545 227.648 477.08 224.739C476.879 223.483 476.267 222.346 475.405 221.447C474.284 220.276 473.832 218.578 474.209 217C476.335 208.113 473.032 198.246 465.212 192.69C454.273 184.918 438.812 185.988 429.824 196.214C425.638 200.975 423.447 207.178 423.219 213.461H423.222Z" fill="white"/>
<path d="M118.987 160.56C118.987 161.079 118.977 177.558 118.977 178.218C120.26 177.477 142.177 164.82 142.999 164.346C142.999 163.868 143.007 147.295 143.007 146.688C139.936 148.462 121.448 159.137 118.988 160.561L118.987 160.56Z" fill="#EDECE7"/>
<path d="M153.939 115.157C153.939 115.677 153.93 157.378 153.93 158.039C155.213 157.298 177.13 144.641 177.951 144.167C177.951 143.689 177.96 101.891 177.96 101.284C174.889 103.058 156.4 113.733 153.939 115.157Z" fill="#EDECE7"/>
<path d="M33.2613 113.265C49.1496 108.498 58.1257 112.862 60.7737 119.078C62.0971 121.437 63.4218 124.603 63.9398 126.675C64.2824 128.044 64.5158 130.026 64.6678 131.68C64.7092 132.126 64.7438 132.549 64.7728 132.929C65.2977 139.708 62.8762 146.666 58.2555 151.656C53.6349 156.645 46.8842 159.593 40.0838 159.59C32.8856 159.587 25.7453 156.278 21.1289 150.737C18.047 150.642 16.301 150.674 13.7635 149.549C11.4304 148.514 9.4343 146.534 8.62483 144.035C7.81397 141.536 8.33198 138.551 10.1333 136.694C11.3171 135.473 12.1487 134.969 14.1848 134.581C14.1848 134.581 12.8877 122.821 23.4785 117.641C26.07 116.373 29.8093 114.302 33.2627 113.266L33.2613 113.265Z" fill="white"/>
<path d="M58.1936 113.689C55.808 109.915 52.4278 106.704 48.6084 105.052C42.9296 102.595 39.2608 102.62 34.4108 102.787C28.5442 102.991 23.1928 105.232 18.4672 108.716C12.3699 113.211 7.16635 123.7 10.0064 134.137C10.0064 134.137 10.2191 134.918 10.5811 136.247C11.5535 135.339 12.4127 134.915 14.1809 134.577L22.5533 130.76C28.6202 129.047 34.6028 126.421 40.1573 123.465C42.7252 122.099 46.0156 118.86 48.9289 118.558C50.5381 118.393 52.1419 119.473 53.5702 120.06C55.5359 120.868 57.5803 121.751 59.7062 122.005C60.3085 122.077 60.9273 122.089 61.5337 122.028C61.024 119.199 59.8485 116.308 58.1922 113.688L58.1936 113.689Z" fill="white"/>
<path d="M56.5655 156.769C55.5613 167.663 53.0389 178.12 49.2775 186.987C48.9639 187.726 48.6227 188.482 48.1448 188.867C47.0922 189.717 45.8973 188.473 44.9759 187.244C38.4311 178.519 33.4679 169.437 29.1553 157.188L56.5655 156.769Z" fill="white"/>
<path d="M96.2235 147.837C94.896 147.762 93.5851 147.972 92.3902 148.552C85.6768 151.81 85.8661 163.237 87.9008 162.612C91.7023 165.075 95.5038 167.538 99.3039 170.002C99.5622 169.956 99.8178 169.891 100.066 169.817C103.824 168.69 106.755 165.267 107.408 161.4C108.062 157.532 106.465 153.394 103.459 150.874C101.471 149.208 98.8149 147.982 96.2235 147.837Z" fill="white"/>
<path d="M13.7153 313.189C13.9018 311.319 14.8936 308.475 16.4822 307.307C17.7834 307.704 19.1413 307.951 19.9743 308.031C26.7208 308.679 33.1192 309.062 39.0853 305.846L43.9021 302.322C49.5795 303.17 55.8467 303.486 60.296 301.945C60.8002 301.771 61.2726 301.564 61.7271 301.34C64.0284 303.401 69.0276 307.823 70.1672 309.917C71.409 312.199 71.869 315.057 70.7418 317.398C69.6948 319.574 67.428 320.976 65.0714 321.494C62.7134 322.012 60.256 321.755 57.8773 321.34C53.8423 320.637 50.7439 319.71 46.8803 318.111C47.0543 319.361 47.0571 320.846 46.8029 321.771C46.1482 324.16 44.771 325.454 42.6202 326.684C40.2954 328.011 37.1487 328.062 34.4799 327.869C30.3344 327.568 26.3492 326.196 22.451 324.754C19.9397 323.826 17.2958 322.752 15.7432 320.57C14.0828 318.235 13.4308 316.042 13.714 313.191L13.7153 313.189Z" fill="white"/>
<path d="M35.3285 236.262C38.3012 236.423 41.3194 236.481 44.3004 236.472C44.6512 236.472 44.998 236.472 45.3488 236.471C45.4013 236.471 45.4538 236.471 45.5063 236.47C53.0457 236.445 60.3338 235.949 65.8827 235.501C65.8716 235.834 65.8675 236.017 65.8675 236.017C65.5456 251.764 63.9571 287.567 63.2457 300.426C62.4003 301.062 61.4057 301.56 60.2979 301.944C55.8485 303.486 49.5813 303.17 43.9039 302.322L39.0871 305.845C33.1211 309.061 26.7213 308.679 19.9761 308.031C18.5284 307.891 15.495 307.263 13.9285 306.189C13.713 289.004 13.905 250.254 14.9659 233.397C21.2331 234.782 27.7214 235.851 35.3285 236.262Z" fill="white"/>
<path d="M26.4658 214.993C29.5863 210.204 33.443 202.537 37.5926 195.726C47.3312 198.274 56.1663 200.647 64.8412 202.813C59.389 213.186 53.6702 223.476 47.6931 233.638C44.9014 232.8 40.2808 231.575 37.1078 230.544L26.4658 214.993Z" fill="#EDECE7"/>
<path d="M47.4641 217.41C47.6534 217.825 47.8012 218.243 47.8951 218.659C49.6577 226.422 41.0215 231.824 36.0721 231.133C26.3584 229.776 22.5901 225.533 20.1534 217.053C19.5511 213.135 20.2086 209.477 23.6385 206.604C26.2065 204.453 28.4898 203.723 30.5771 204.332C33.8329 205.282 35.5569 207.541 35.7475 210.142C38.6787 210.777 41.8061 211.752 44.4169 213.554C45.6504 214.405 46.7831 215.923 47.4628 217.412L47.4641 217.41Z" fill="white"/>
<path d="M259.524 390.47C277.4 385.416 308.824 393.82 308.824 393.82C317.23 395.599 324.54 400.601 326.042 409.696C326.289 414.597 324.907 430.405 324.156 436.569C324.034 437.569 324.102 438.604 323.732 439.551C323.352 440.524 322.639 441.354 321.914 442.147C318.081 446.335 312.858 446.597 309.192 447.208L305.708 447.241C305.712 442.163 305.719 437.149 305.727 434.198C307.015 433.403 307.797 432.006 307.797 430.485C307.797 427.887 307.795 424.732 307.795 422.766C307.795 422.766 307.795 420.692 307.795 417.637C300.303 421.79 293.439 425.098 284.626 427.01C282.631 427.442 279.335 427.514 277.32 427.194C274.484 426.743 271.365 425.597 269.8 423.663C269.8 423.663 261.308 418.785 247.855 411.055L248.488 410.877C248.488 410.877 250.708 392.961 259.524 390.467V390.47Z" fill="white"/>
<path d="M316.693 365.242C315.745 365.512 314.874 365.794 314.111 366.181C313.839 366.319 313.531 366.441 313.235 366.366C312.897 366.28 312.68 365.96 312.499 365.662C307.116 356.784 305.657 345.501 297.383 336.569C294.436 333.712 292.427 332.816 288.729 331.038C282.086 327.844 276.009 325.289 268.677 324.543C266.721 324.344 264.715 324.673 262.802 325.354C259.118 327.056 254.728 330.311 252.587 334.361C247.604 343.788 246.84 358.164 246.793 365.291C257.322 385.316 262.961 392.175 270.817 396.728C272.373 397.64 275.741 398.966 277.495 399.353C285.521 401.204 292.594 401.522 299.098 398.648C299.889 398.317 300.677 397.889 301.072 397.156C301.409 396.521 301.351 395.748 301.304 395.015C301.038 391.108 300.746 387.2 300.46 383.337C301.104 384.038 301.811 384.727 302.632 385.425C305.526 387.881 309.808 389.694 313.599 389.888C318.552 390.141 323.558 387.617 327.974 384.165C330.784 381.968 333.219 379.343 335.57 376.66C335.851 376.339 336.145 375.989 336.177 375.563C336.222 374.972 335.751 374.482 335.318 374.077C331.658 370.668 327.999 367.258 324.339 363.849C324.086 363.613 323.696 363.494 323.363 363.395C322.861 363.246 322.238 363.381 321.947 363.514C320.095 364.362 318.287 364.787 316.691 365.243L316.693 365.242Z" fill="white"/>
<path d="M334.121 441.834C333.331 441.182 332.409 440.711 331.335 440.454C329.25 439.954 326.119 439.988 323.31 440.393C322.925 441.02 322.424 441.595 321.915 442.149C317.908 446.528 312.382 446.616 308.704 447.296C308.7 451.727 308.696 456.215 308.693 459.847C310.421 460.952 312.566 461.499 314.634 461.42C317.379 461.314 319.994 460.284 322.531 459.233C327.043 457.364 331.659 455.277 334.886 451.611C335.179 451.278 335.462 450.924 335.718 450.554C336.489 449.442 336.737 448.235 336.649 446.906C336.587 445.958 336.348 444.641 335.843 443.837C335.352 443.053 334.783 442.379 334.119 441.832L334.121 441.834Z" fill="white"/>
<path d="M164.18 361.565C165.745 363.498 168.865 364.645 171.7 365.095C173.715 365.416 177.011 365.344 179.006 364.912C188.17 362.924 195.227 359.426 203.073 355.039C203.073 356.994 203.073 359.12 203.073 361.197L203.769 360.861C208.054 358.896 214.299 356.361 218.979 354.281C220.016 353.821 220.659 352.769 220.609 351.637C220.55 350.272 220.487 348.924 220.42 347.598C218.917 338.503 211.609 333.5 203.203 331.722L163.365 326.729L164.18 361.567V361.565Z" fill="white"/>
<path d="M203.347 398.763C203.254 398.701 203.161 398.638 203.07 398.571C203.073 395.392 203.077 391.445 203.079 387.42C204.857 387.347 206.744 387.282 208.38 387.2C210.415 387.099 212.594 386.946 214.192 385.683C214.676 385.302 215.367 383.584 215.642 382.14C215.709 381.729 215.776 381.318 215.84 380.908C217.658 380.372 222.01 380.962 223.801 381.392C225.575 381.817 227.021 383.208 227.989 384.754C228.443 385.478 228.52 386.291 228.577 387.143C228.655 388.338 228.434 389.474 227.741 390.473C227.51 390.805 227.256 391.123 226.992 391.423C224.091 394.719 219.942 396.595 215.886 398.274C213.604 399.219 211.253 400.145 208.786 400.24C206.888 400.313 204.919 399.799 203.346 398.763H203.347Z" fill="white"/>
<path d="M215.47 382.891C215.537 382.638 215.597 382.384 215.642 382.138C216.671 375.89 217.344 369.789 217.863 363.025C218.036 360.773 218.098 357.521 218.256 355.268L218.304 354.576C213.715 356.596 207.853 358.985 203.77 360.859L203.075 361.178C203.077 364.983 203.082 368.221 203.082 371.372C203.082 375.462 203.077 381.526 203.075 387.419C204.853 387.346 206.742 387.281 208.379 387.2C210.414 387.099 212.594 386.945 214.192 385.683C214.592 385.367 215.137 384.129 215.467 382.893L215.47 382.891Z" fill="white"/>
<path d="M203.07 308.229C203.154 308.372 203.24 308.515 203.325 308.657C203.506 308.955 203.723 309.277 204.062 309.361C204.357 309.436 204.665 309.314 204.937 309.176C206.983 308.137 209.823 307.86 212.775 306.507C213.065 306.375 213.688 306.239 214.191 306.389C214.523 306.487 214.912 306.607 215.166 306.843C218.826 310.252 222.485 313.662 226.145 317.071C226.579 317.475 227.049 317.966 227.005 318.557C226.973 318.981 226.679 319.333 226.398 319.654C224.048 322.336 221.613 324.962 218.802 327.159C214.386 330.611 209.378 333.134 204.426 332.882C201.132 332.713 197.467 331.322 194.671 329.343C194.815 331.321 194.956 333.304 195.091 335.287C195.138 336.019 195.196 336.792 194.859 337.428C194.464 338.16 193.674 338.588 192.885 338.92C186.382 341.793 179.308 341.475 171.282 339.624C169.528 339.237 166.16 337.911 164.603 337C158.956 333.726 145.445 327.28 139.54 317.672C137.679 314.642 137.618 305.781 137.939 300.459C138.478 293.159 139.892 284.022 143.415 277.357C145.556 273.307 149.946 270.051 153.63 268.349C155.278 267.432 157.549 267.339 159.505 267.538C166.837 268.285 172.915 270.839 179.556 274.033C183.254 275.811 185.264 276.707 188.211 279.564C188.334 279.697 188.456 279.831 188.577 279.966C196.401 288.689 197.975 299.554 203.073 308.23L203.07 308.229Z" fill="white"/>
<path d="M384.166 198.737C384.166 196.741 383.108 194.915 381.378 193.919C377.694 191.799 370.973 187.929 364.214 184.038C365.414 185.393 366.519 186.743 367.461 187.993C373.034 195.349 375.148 206.763 376.256 215.706C376.577 218.239 376.773 220.822 376.294 223.332C375.162 229.175 369.688 233.529 363.932 236.973C363.658 237.137 363.383 237.295 363.11 237.455V237.654C368.715 240.892 374.362 244.152 380.019 247.419C381.409 248.221 382.8 249.025 384.191 249.828C384.184 233.98 384.173 207.81 384.169 198.738L384.166 198.737Z" fill="#CDEEFF"/>
<path d="M494.613 265.264C494.613 263.268 493.555 261.441 491.825 260.446C488.673 258.631 483.294 255.535 477.572 252.242C482.196 259.568 484.074 269.868 485.091 278.089C485.411 280.622 485.608 283.205 485.128 285.715C483.997 291.558 478.523 295.912 472.767 299.356C472.301 299.635 471.834 299.907 471.367 300.175C474.908 302.22 478.36 304.214 481.714 306.151C486.21 308.748 490.527 311.241 494.635 313.614C494.626 297.645 494.617 273.833 494.613 265.266V265.264Z" fill="#CDEEFF"/>
<path d="M329.108 128.655C326.337 130.046 323.788 131.971 321.623 134.437C318.443 138.055 316.431 142.512 315.571 147.202C322.327 151.066 328.652 150.657 335.221 149.726C337.678 149.508 341.239 148.516 344.286 147.427C346.545 146.621 348.773 147.589 349.71 149.94C350.208 151.193 350.759 152.95 351.409 154.608C352.479 157.34 355.638 158.6 358.31 157.384L358.842 157.142C360.556 157.229 362.314 157.319 362.314 157.319C365.15 157.464 367.789 159.709 368.249 162.579C368.707 165.45 367.213 168.598 364.888 170.463C364.613 170.682 364.326 170.892 364.029 171.09C365.092 171.967 366.291 172.656 367.59 173.096C370.14 173.964 372.988 173.859 375.487 172.848C375.96 172.649 376.425 172.419 376.866 172.167C379.639 170.544 381.642 167.668 382.213 164.505C380.718 164.16 379.123 163.747 378.143 162.578C376.812 161.02 377.049 158.721 377.02 156.684C376.978 154.453 375.82 152.464 374.139 151.016C372.215 149.35 368.04 148.825 366.124 148.97C366.124 148.97 366.088 148.973 366.033 148.977C365.834 142.034 362.531 135.213 356.54 130.957C348.385 125.164 337.681 124.35 329.111 128.652L329.108 128.655Z" fill="#645D5C"/>
<path d="M429.127 197.048C427.27 199.358 425.853 201.966 424.871 204.734C423.889 207.502 425.346 210.594 428.168 211.434C433.104 212.901 437.89 212.496 442.813 211.798C445.271 211.58 448.832 210.588 451.879 209.5C454.138 208.693 456.366 209.661 457.302 212.013C457.801 213.265 458.352 215.022 459.001 216.68C460.072 219.412 463.231 220.672 465.903 219.457L466.009 219.408C467.723 218.628 469.728 218.849 471.231 219.984C471.231 219.984 472 220.566 472.779 221.154C477.275 211.367 474.279 199.133 465.215 192.693C454.276 184.921 438.814 185.991 429.826 196.217C429.585 196.49 429.352 196.768 429.125 197.05L429.127 197.048Z" fill="#645D5C"/>
<path d="M188.891 69.7544C188.891 70.2738 188.881 137.2 188.881 137.861C190.164 137.12 212.081 124.463 212.903 123.989C212.903 123.511 212.911 56.4892 212.911 55.8828C209.84 57.6565 191.352 68.3316 188.892 69.7558L188.891 69.7544Z" fill="#CDEEFF"/>
<path d="M85.9619 161.353C83.5017 164.154 80.3757 167.592 77.2732 170.688C75.4553 168.424 73.2825 166.381 70.8858 164.476C66.6285 161.094 61.6611 158.151 56.7021 155.184C55.8042 166.647 53.2224 177.693 49.2787 186.988C48.9651 187.727 48.6239 188.483 48.146 188.868C47.092 189.717 45.8985 188.474 44.9771 187.245C38.3231 178.374 33.3033 169.134 28.9479 156.569C23.9377 155.941 16.0612 161.699 12.7142 165.62C11.0718 167.544 9.19174 170.298 8.07561 172.568C6.16105 176.459 5.08636 179.96 3.99232 184.156C1.45477 193.891 2.79745 204.578 7.6612 213.383C9.12129 216.027 10.895 218.491 12.9214 220.729C12.7142 222.496 12.5954 223.494 12.5954 223.494C12.5954 223.494 11.9268 229.112 11.9268 232.704C19.1555 234.422 26.4877 235.787 35.3311 236.265C48.7054 236.987 63.0259 235.704 70.5805 235.099C71.0143 229.447 70.8665 203.733 71.2491 197.655L71.4757 194.051L72.5158 194.606L76.3629 196.66C82.1466 198.453 87.6817 190.197 90.077 186.854C93.797 181.664 97.2103 176.247 100.422 170.729C95.6024 167.605 90.7829 164.48 85.9633 161.357L85.9619 161.353ZM47.6943 233.64C45.3128 232.926 41.6066 231.93 38.598 231.012C37.7043 231.184 36.8423 231.24 36.0729 231.132C26.3592 229.775 22.5909 225.532 20.1542 217.052C19.5519 213.134 20.2108 209.476 23.6393 206.603C26.2073 204.452 28.4907 203.722 30.5779 204.331C31.1981 204.512 31.7451 204.754 32.2535 205.023C33.9498 201.973 35.74 198.768 37.5924 195.726C47.331 198.275 56.1661 200.648 64.841 202.814C59.3888 213.187 53.67 223.476 47.6929 233.639L47.6943 233.64Z" fill="#CDEEFF"/>
<path d="M307.798 422.77C307.798 422.77 307.798 421.56 307.798 419.636L304.665 419.337C298.336 422.691 292.201 425.37 284.628 427.012C282.634 427.445 279.338 427.517 277.322 427.196C274.487 426.746 271.367 425.599 269.802 423.665C269.802 423.665 269.635 423.57 269.344 423.401V389.63C269.344 387.133 268.018 384.834 265.874 383.552C256.856 378.159 240.346 368.589 231.904 363.904C230.334 363.042 228.434 364.169 228.434 365.959C228.434 372.41 228.424 391.586 228.417 407.998V427.695C228.417 430.199 229.74 432.496 231.909 433.748C241.701 439.403 258.959 449.37 266.431 453.685C268.378 454.809 271.561 454.811 273.509 453.685C279.629 450.149 296.76 440.311 305.73 435.146C305.73 434.816 305.731 434.49 305.733 434.198C307.02 433.402 307.802 432.006 307.802 430.485C307.802 427.887 307.801 424.732 307.801 422.766L307.798 422.77Z" fill="#CDEEFF"/>
<path d="M272.228 281.683C270.671 282.352 269.163 283.168 267.723 284.131C264.836 286.064 262.31 288.558 260.511 291.544C257.123 297.168 256.489 304.155 257.739 310.602C258.536 314.714 260.127 318.788 263.023 321.816C270.443 329.571 284.037 329.851 293.667 326.928C293.7 326.919 293.734 326.908 293.767 326.898C293.914 326.852 294.059 326.807 294.205 326.758C293.346 321.961 292.629 316.611 293.708 311.783C294.303 309.121 295.701 306.765 297.779 304.998C300.717 302.5 303.524 302.383 308.161 302.802C307.732 297.271 305.882 291.936 302.115 287.772C301.557 287.156 300.967 286.571 300.348 286.015C292.541 279.005 281.541 277.687 272.229 281.683H272.228Z" fill="#645D5C"/>
<path d="M199.035 357.238C192.71 360.591 186.575 363.272 179.007 364.915C177.012 365.347 173.716 365.419 171.701 365.098C168.865 364.648 165.746 363.502 164.181 361.568L164.001 353.904L163.726 353.849V327.532C163.726 325.035 162.4 322.736 160.256 321.454C151.239 316.062 134.729 306.492 126.286 301.806C124.717 300.944 122.816 302.071 122.816 303.862C122.816 310.264 122.806 329.204 122.799 345.533H122.794V365.597C122.794 368.101 124.117 370.399 126.286 371.65C136.078 377.305 153.336 387.272 160.807 391.587C162.755 392.712 165.938 392.713 167.886 391.587C174.777 387.606 195.63 375.633 203.074 371.338V357.62L199.035 357.236V357.238Z" fill="#CDEEFF"/>
<path d="M157.221 227.476C156.037 228.205 154.99 229.014 154.041 229.881C149.092 234.409 146.904 240.701 146.241 244.454C144.638 253.523 145.289 258.544 146.098 263.379C146.466 265.578 147.669 268.276 148.803 269.826C150.082 271.572 152.866 273.488 154.847 274.359C166.902 279.662 176.686 277.476 181.229 275.198C182.272 274.674 183.456 274.265 184.108 273.336C183.115 267.853 181.547 260.946 182.899 254.89C183.474 252.317 184.826 250.038 186.836 248.329C189.717 245.88 192.468 245.797 197.066 246.222C196.239 240.102 193.208 234.281 188.604 230.153C182.132 224.353 173.328 222.654 164.907 224.483C161.796 225.158 159.299 226.193 157.22 227.475L157.221 227.476Z" fill="#645D5C"/>
<path d="M479.778 256.697C482.102 258.039 484.431 259.374 486.758 260.713C488.196 261.54 490.62 262.376 491.479 263.872C492.11 264.972 491.849 266.578 491.849 267.817C491.849 269.388 491.849 270.958 491.849 272.529C491.852 281.236 491.856 289.941 491.859 298.648C491.86 303.632 491.862 308.615 491.862 313.601C491.862 317.156 497.387 317.162 497.387 313.601C497.387 304.017 497.383 294.434 497.379 284.851C497.378 280.61 497.376 276.369 497.375 272.13C497.375 268.889 497.963 264.854 496.611 261.84C495.463 259.285 493.215 258.056 490.9 256.723C488.122 255.124 485.342 253.53 482.565 251.929C479.479 250.15 476.693 254.922 479.776 256.7L479.778 256.697Z" fill="#211715"/>
<path d="M369.325 190.171C371.808 191.599 374.293 193.026 376.777 194.454C378.287 195.323 380.817 196.156 381.305 198.015C381.632 199.264 381.4 200.851 381.402 202.141C381.403 203.857 381.406 205.574 381.407 207.29C381.416 216.408 381.42 225.528 381.422 234.646C381.424 239.705 381.425 244.763 381.425 249.822C381.425 253.377 386.951 253.383 386.951 249.822C386.951 240.125 386.946 230.426 386.941 220.729C386.938 216.115 386.935 211.5 386.931 206.886C386.93 205.145 386.928 203.403 386.926 201.662C386.924 199.906 387.093 198.01 386.56 196.316C385.633 193.374 383.417 191.9 380.881 190.44C377.959 188.758 375.036 187.081 372.113 185.401C369.026 183.626 366.24 188.398 369.325 190.172V190.171Z" fill="#211715"/>
<path d="M408.432 260.633C393.788 252.177 379.146 243.72 364.502 235.265C361.417 233.483 358.631 238.257 361.713 240.036C376.357 248.493 390.999 256.949 405.643 265.405C408.727 267.187 411.513 262.413 408.432 260.633Z" fill="#211715"/>
<path d="M332.966 233.595C327.309 230.328 321.651 227.059 315.994 223.792C312.421 221.729 308.9 219.461 305.227 217.578C302.754 216.31 299.306 219.262 297.224 220.465C293.339 222.709 289.452 224.954 285.566 227.2C282.81 228.793 280.049 230.375 277.3 231.978C275.515 233.02 275.501 235.711 277.3 236.75C287.444 242.604 297.584 248.468 307.727 254.325C309.639 255.428 311.55 256.533 313.464 257.636C314.324 258.132 315.392 258.134 316.253 257.636C321.998 254.307 327.755 250.998 333.506 247.676C336.583 245.898 333.804 241.122 330.717 242.905C324.966 246.227 319.209 249.535 313.464 252.864H316.253C305.971 246.941 295.701 240.996 285.426 235.062C283.647 234.034 281.868 233.006 280.089 231.978V236.75C288.411 231.894 296.773 227.104 305.119 222.287H302.33C311.626 227.622 320.897 233.005 330.178 238.366C333.263 240.148 336.049 235.375 332.967 233.595H332.966Z" fill="#211715"/>
<path d="M312.817 172.757C304.092 179.382 297.827 188.875 295.539 199.633C295.228 201.091 295.97 202.619 297.468 203.031C298.844 203.409 300.554 202.567 300.866 201.101C302.838 191.841 308.03 183.28 315.606 177.528C316.792 176.628 317.414 175.147 316.597 173.749C315.914 172.58 314.013 171.85 312.818 172.757H312.817Z" fill="#211715"/>
<path d="M313.366 192.889V210.344C313.366 211.789 314.637 213.173 316.129 213.107C317.621 213.04 318.892 211.892 318.892 210.344V192.889C318.892 191.444 317.621 190.06 316.129 190.126C314.637 190.193 313.366 191.341 313.366 192.889Z" fill="#211715"/>
<path d="M355.66 208.67C355.494 207.496 355.697 209.344 355.719 209.664C355.78 210.525 355.827 211.387 355.867 212.249C355.958 214.201 356.024 216.158 355.987 218.113C355.979 218.516 355.969 218.919 355.946 219.323C355.926 219.646 356.103 220.364 355.936 219.757C356.192 220.686 355.149 219.54 356.106 219.629C355.812 219.602 354.788 220.672 354.542 220.871C352.176 222.791 349.869 224.782 347.493 226.69C346.776 227.266 346.503 228.531 346.783 229.378C348.3 233.973 350.01 238.506 351.29 243.177C351.77 244.923 353.798 245.696 355.349 244.828C365.535 239.134 379.63 233.326 379.335 219.526C379.212 213.749 378.034 207.685 376.615 202.096C375.211 196.566 373.17 190.987 369.697 186.402C365.662 181.074 360.845 175.781 354.868 172.616C351.727 170.953 348.933 175.722 352.079 177.388C356.78 179.877 360.599 183.87 363.937 187.948C367.153 191.879 369.22 196.347 370.643 201.202C372.058 206.033 372.935 211.028 373.53 216.02C373.863 218.81 374.141 221.809 373.095 224.488C372.214 226.745 370.511 228.604 368.731 230.195C364.009 234.42 358.04 236.994 352.561 240.057L356.62 241.708C355.339 237.037 353.629 232.504 352.112 227.908L351.402 230.596C354.038 228.478 356.585 226.252 359.233 224.149C361.135 222.639 361.417 221.04 361.499 218.743C361.633 214.933 361.524 210.979 360.989 207.2C360.78 205.721 358.896 204.911 357.591 205.27C356.001 205.707 355.453 207.185 355.661 208.668L355.66 208.67Z" fill="#211715"/>
<path d="M297.347 213.399C297.352 212.911 297.372 212.427 297.423 211.942C297.375 212.404 297.42 211.964 297.439 211.877C297.493 211.625 297.54 211.375 297.607 211.128C297.649 210.969 297.696 210.81 297.747 210.653C297.743 210.667 298.031 209.93 297.868 210.305C297.705 210.679 298.042 209.976 298.036 209.987C298.149 209.776 298.272 209.57 298.402 209.368C298.491 209.233 298.583 209.1 298.677 208.968C298.333 209.451 298.828 208.796 298.869 208.749C299.1 208.486 299.344 208.234 299.594 207.99C299.933 207.659 300.286 207.349 300.646 207.043C301.314 206.474 300.434 207.175 300.853 206.887C301.077 206.733 301.303 206.585 301.538 206.447C301.731 206.333 301.933 206.234 302.129 206.126C302.586 205.872 302.329 206.028 302.204 206.079C302.618 205.911 303.052 205.782 303.488 205.683C303.665 205.643 303.843 205.607 304.023 205.578C303.458 205.668 304.359 205.563 304.393 205.561C304.875 205.539 305.36 205.552 305.839 205.601C305.428 205.558 306.069 205.641 306.161 205.659C306.422 205.71 306.681 205.768 306.938 205.835C307.482 205.977 308.025 206.147 308.544 206.36C308.885 206.499 309.238 206.659 309.564 206.843C309.692 206.915 310.141 207.298 309.703 206.9C309.888 207.068 310.058 207.249 310.236 207.426C310.583 207.769 310.402 207.61 310.316 207.498C310.46 207.684 310.586 207.885 310.707 208.085C310.832 208.288 310.942 208.497 311.054 208.707C311.321 209.213 311.148 208.933 311.107 208.818C311.196 209.071 311.272 209.328 311.323 209.591C311.294 209.444 311.336 209.12 311.301 209.6C311.29 209.766 311.297 209.936 311.29 210.103C311.286 210.189 311.187 211.063 311.253 210.66C311.305 210.331 311.127 211.147 311.083 211.315C311.028 211.52 310.74 211.978 311.09 211.363C311.06 211.415 310.92 211.652 310.923 211.683C310.93 211.744 310.771 211.915 310.735 211.982C311.118 211.259 310.919 211.915 310.731 211.955C310.695 211.962 310.486 212.185 310.482 212.19C310.935 211.687 310.696 212.051 310.481 212.171C310.278 212.284 309.443 212.577 310.145 212.373C309.819 212.468 309.506 212.581 309.173 212.656C308.956 212.706 308.21 212.816 308.805 212.744C308.309 212.805 307.811 212.837 307.312 212.853C305.428 212.913 303.661 212.947 301.872 213.631C300.896 214.004 299.949 214.447 299.003 214.889C298.832 214.97 298.662 215.05 298.489 215.127C298.365 215.184 297.712 215.395 298.362 215.186C298.062 215.283 297.619 215.356 297.357 215.507C297.049 215.684 298.043 215.464 297.499 215.493C297.245 215.507 296.84 215.383 297.605 215.537C297.187 215.453 297.774 215.622 297.829 215.651C297.589 215.501 297.64 215.548 297.984 215.796C297.826 215.626 297.815 215.627 297.951 215.801L298.044 215.931C297.962 215.814 297.886 215.692 297.815 215.565C297.54 215.081 297.858 215.859 297.62 215.102C297.419 214.463 297.354 214.033 297.343 213.4C297.315 211.909 296.093 210.638 294.58 210.638C293.103 210.638 291.79 211.902 291.817 213.4C291.868 216.198 292.877 219.779 295.843 220.769C297.881 221.45 299.86 220.563 301.688 219.71C302.118 219.51 302.549 219.313 302.979 219.111C303.704 218.77 302.466 219.285 303.226 219.005C303.461 218.918 303.693 218.826 303.93 218.748C304.407 218.59 304.896 218.456 305.393 218.379C304.768 218.477 305.591 218.386 305.671 218.383C305.946 218.376 306.222 218.39 306.498 218.39C308.697 218.393 310.986 218.162 312.96 217.119C317.098 214.932 317.767 209.176 315.555 205.415C312.824 200.773 305.965 198.87 300.988 200.653C298.427 201.57 296.17 203.293 294.485 205.423C292.636 207.759 291.857 210.435 291.82 213.399C291.802 214.892 293.103 216.162 294.583 216.162C296.095 216.162 297.329 214.898 297.347 213.399Z" fill="#211715"/>
<path d="M352.23 238.901C349.074 241.163 345.746 242.713 341.986 243.57C340.227 243.971 339.193 244.123 337.293 244.062C336.953 244.051 336.614 244.022 336.276 243.996C336.153 243.986 335.74 243.901 336.287 244C336.132 243.972 335.977 243.948 335.824 243.916C335.53 243.855 335.237 243.783 334.951 243.693C334.78 243.641 334.613 243.576 334.443 243.518C334.139 243.414 334.854 243.787 334.443 243.506C334.33 243.428 333.57 242.975 333.897 243.209C334.222 243.441 333.632 242.946 333.553 242.869C333.299 242.613 333.874 243.438 333.571 242.866C333.512 242.754 333.353 242.41 333.566 242.93C333.411 242.552 333.321 242.152 333.242 241.754C333.347 242.289 333.212 241.273 333.209 241.143C333.2 240.759 333.212 240.375 333.241 239.994C333.285 239.426 333.266 239.716 333.248 239.846C333.282 239.599 333.335 239.353 333.39 239.11C333.49 238.671 333.613 238.236 333.767 237.812C333.865 237.544 333.899 237.463 334.169 236.998C334.266 236.831 334.37 236.669 334.476 236.509C334.763 236.072 334.084 236.965 334.618 236.317C335.227 235.579 335.899 234.889 336.598 234.235C337.201 233.67 337.808 233.145 338.485 232.698C338.667 232.578 338.851 232.459 339.04 232.35C339.001 232.372 339.804 231.97 339.276 232.198C338.871 232.372 339.253 232.212 339.362 232.184C339.523 232.144 339.681 232.091 339.843 232.053C340.211 231.963 340.586 231.899 340.961 231.846C340.419 231.921 340.866 231.861 340.974 231.852C341.236 231.833 341.497 231.803 341.76 231.783C342.665 231.716 343.572 231.688 344.478 231.683C345.844 231.674 347.224 231.692 348.585 231.837C350.071 231.996 351.348 230.454 351.348 229.075C351.348 227.449 350.076 226.471 348.585 226.312C345.339 225.966 341.776 225.982 338.581 226.676C336.501 227.13 334.778 228.475 333.212 229.854C331.617 231.258 329.985 232.92 329.058 234.855C327.329 238.465 326.71 244.111 329.975 247.094C332.709 249.593 336.841 249.856 340.34 249.422C345.601 248.771 350.71 246.757 355.021 243.67C356.232 242.802 356.815 241.262 356.013 239.891C355.312 238.693 353.452 238.026 352.233 238.899L352.23 238.901Z" fill="#211715"/>
<path d="M366.122 151.737C367.966 151.625 369.373 151.831 371.153 152.47C371.881 152.731 372.365 153.055 372.976 153.741C373.587 154.428 374.045 155.244 374.203 156.152C374.36 157.059 374.229 158.127 374.273 159.083C374.338 160.47 374.562 161.834 375.185 163.087C376.407 165.549 378.953 166.581 381.474 167.173L379.544 163.775C379.002 166.526 377.384 168.932 374.79 170.146C371.816 171.539 368.545 170.972 365.937 169.113C364.721 168.247 362.862 168.899 362.157 170.105C361.346 171.492 361.929 173.017 363.149 173.884C367.257 176.813 372.682 177.188 377.231 175.083C381.14 173.273 384.042 169.451 384.874 165.244C385.154 163.824 384.483 162.206 382.944 161.846C382.097 161.647 380.916 161.482 380.315 160.89C379.864 160.443 379.817 159.601 379.79 158.899C379.692 156.199 379.698 153.731 378.106 151.394C375.46 147.504 370.707 145.935 366.12 146.213C364.631 146.303 363.358 147.417 363.358 148.975C363.358 150.401 364.623 151.829 366.12 151.738L366.122 151.737Z" fill="#211715"/>
<path d="M367.546 157.56C370.835 147.316 367.329 135.726 358.754 129.186C350.644 123 339.311 121.396 329.86 125.3C319.892 129.418 313.643 138.73 312.496 149.315C311.35 159.9 315.785 170.806 324.518 177.061C334.599 184.282 349.272 183.085 358.266 174.683C360.87 172.251 356.957 168.35 354.36 170.777C348.084 176.639 338.02 178.025 330.35 174.141C322.355 170.092 317.892 161.49 317.849 152.699C317.808 144.258 321.789 136.021 329.223 131.727C336.293 127.644 345.302 127.757 352.429 131.647C361.196 136.434 365.277 146.565 362.218 156.09C361.128 159.484 366.462 160.939 367.546 157.56Z" fill="#211715"/>
<path d="M362.313 160.079C362.956 160.125 361.895 159.94 362.465 160.094C362.681 160.154 362.9 160.197 363.113 160.266C363.36 160.346 363.692 160.542 363.283 160.321C363.481 160.429 363.681 160.527 363.873 160.644C364.066 160.763 364.409 161.036 364.045 160.734C364.218 160.878 364.387 161.027 364.546 161.187C364.704 161.347 364.855 161.513 364.997 161.688C364.606 161.208 365.008 161.741 365.082 161.864C365.198 162.057 365.301 162.256 365.398 162.459C365.127 161.89 365.392 162.499 365.434 162.646C365.496 162.865 365.544 163.088 365.582 163.313C365.475 162.673 365.562 163.365 365.565 163.517C365.569 163.755 365.551 163.99 365.542 164.227C365.517 164.86 365.662 163.874 365.503 164.437C365.438 164.669 365.394 164.907 365.325 165.138C365.298 165.225 365.011 165.995 365.13 165.721C365.256 165.429 364.941 166.089 364.901 166.164C364.785 166.381 364.66 166.592 364.528 166.799C364.482 166.871 364.065 167.456 364.246 167.222C364.427 166.989 363.967 167.537 363.909 167.599C363.743 167.779 363.57 167.95 363.391 168.116C363.327 168.175 362.802 168.606 363.007 168.453C363.207 168.301 362.625 168.711 362.547 168.762C362.327 168.906 362.103 169.041 361.875 169.171C360.258 170.09 358.336 170.587 356.615 170.629C355.172 170.664 353.785 171.875 353.852 173.391C353.919 174.858 355.068 176.191 356.615 176.154C362.562 176.008 368.524 172.775 370.541 166.956C371.456 164.312 371.263 161.147 369.67 158.794C367.964 156.275 365.341 154.772 362.312 154.558C360.867 154.456 359.486 155.902 359.549 157.321C359.62 158.905 360.765 159.974 362.312 160.083L362.313 160.079Z" fill="#211715"/>
<path d="M330.409 160.278C330.4 160.455 330.289 162.219 328.844 163.168C327.897 163.789 326.946 163.636 326.647 163.583C326.416 163.542 324.919 163.249 324.231 161.763C323.579 160.355 323.874 158.355 325.199 157.257C326.573 156.119 328.387 156.435 329.412 157.489C330.335 158.438 330.441 159.38 330.409 160.278Z" fill="#211715"/>
<path d="M345.158 163.289C345.148 163.465 345.037 165.229 343.592 166.178C342.645 166.8 341.694 166.647 341.395 166.594C341.164 166.553 339.667 166.26 338.979 164.774C338.327 163.366 338.622 161.366 339.947 160.268C341.321 159.129 343.135 159.446 344.16 160.5C345.083 161.449 345.189 162.391 345.158 163.289Z" fill="#211715"/>
<path d="M315.511 150.302C320.643 152.75 326.046 153.453 331.679 152.92C334.269 152.675 336.904 152.378 339.439 151.775C340.764 151.458 342.073 151.077 343.368 150.656C344.151 150.401 345.275 149.711 346.114 149.935C347.643 150.342 348.052 153.541 348.53 154.787C349.404 157.069 350.69 158.911 352.996 159.919C356.467 161.437 359.449 159.886 362.592 158.456C363.95 157.839 364.281 155.87 363.584 154.677C362.768 153.282 361.168 153.065 359.804 153.685C357.977 154.517 355.687 156.242 354.198 154.026C352.942 152.157 352.86 149.609 351.653 147.68C350.48 145.808 348.493 144.545 346.274 144.413C343.992 144.279 341.799 145.409 339.638 146.012C337.494 146.61 335.356 146.973 333.15 147.235C328.062 147.84 323.009 147.777 318.3 145.531C315.107 144.007 312.3 148.77 315.511 150.302Z" fill="#211715"/>
<path d="M406.426 273.583C406.463 273.445 406.502 273.308 406.543 273.173C406.561 273.118 406.749 272.571 406.641 272.848C406.593 272.971 406.841 272.437 406.91 272.311C407.065 272.029 407.238 271.76 407.419 271.495C407.416 271.499 407.691 271.14 407.542 271.326C407.424 271.473 407.753 271.091 407.788 271.054C408.237 270.553 408.726 270.089 409.234 269.648C409.353 269.546 409.471 269.443 409.593 269.344C409.947 269.057 409.306 269.539 409.679 269.285C409.936 269.111 410.193 268.938 410.462 268.783C410.577 268.717 410.693 268.655 410.809 268.594C410.868 268.563 411.358 268.323 411.072 268.453C410.9 268.532 411.477 268.305 411.6 268.266C411.894 268.173 412.197 268.113 412.493 268.029C412.512 268.023 412.947 267.938 412.653 267.987C412.378 268.033 412.906 267.963 412.958 267.958C414.428 267.848 415.076 267.972 416.472 268.416C417.109 268.617 417.65 268.831 418.239 269.142C418.436 269.247 418.927 269.62 418.518 269.257C418.728 269.443 418.927 269.638 419.115 269.847C419.159 269.897 419.481 270.311 419.307 270.072C419.146 269.852 419.397 270.22 419.402 270.228C419.54 270.463 419.68 270.699 419.818 270.934C419.854 270.996 420.046 271.416 419.879 271.011C419.928 271.133 419.97 271.259 420.011 271.384C420.078 271.593 420.162 272.277 420.137 271.746C420.149 272.028 420.144 272.311 420.127 272.593C420.12 272.705 420.039 273.38 420.098 273.017C420.16 272.633 420.015 273.362 419.988 273.469C419.956 273.587 419.729 274.244 419.883 273.86C420.044 273.456 419.757 274.068 419.703 274.168C419.51 274.525 419.442 274.375 419.734 274.159C419.601 274.257 419.417 274.441 419.316 274.575C419.162 274.781 419.506 274.42 419.542 274.405C419.439 274.447 419.35 274.541 419.251 274.593C418.968 274.746 418.55 274.862 419.098 274.709C418.849 274.78 418.609 274.882 418.358 274.951C418.121 275.014 417.883 275.06 417.644 275.111C417.536 275.135 417.427 275.146 417.32 275.166C417.941 275.046 417.4 275.154 417.254 275.166C415.585 275.289 413.932 275.173 412.284 275.532C410.825 275.849 409.974 277.549 410.354 278.931C410.769 280.438 412.289 281.178 413.752 280.86C414.382 280.724 415.139 280.783 415.873 280.768C416.777 280.748 417.671 280.661 418.568 280.529C419.8 280.346 421.051 279.986 422.115 279.32C424.629 277.748 425.741 274.872 425.672 271.98C425.487 264.234 415.607 260.666 409.273 263.26C405.506 264.803 402.192 268.148 401.099 272.115C400.154 275.548 405.483 277.013 406.427 273.583H406.426Z" fill="#211715"/>
<path d="M421.651 235.139C412.926 241.764 406.661 251.257 404.373 262.015C404.062 263.473 404.804 265.001 406.302 265.413C407.678 265.791 409.388 264.949 409.7 263.483C411.672 254.222 416.864 245.662 424.44 239.91C425.626 239.009 426.248 237.529 425.431 236.131C424.748 234.962 422.847 234.231 421.652 235.139H421.651Z" fill="#211715"/>
<path d="M422.203 255.271V273.644C422.203 275.089 423.474 276.473 424.966 276.407C426.458 276.341 427.729 275.193 427.729 273.644V255.271C427.729 253.826 426.458 252.442 424.966 252.508C423.474 252.574 422.203 253.722 422.203 255.271Z" fill="#211715"/>
<path d="M476.337 219.641C479.669 209.268 476.115 197.534 467.43 190.914C459.26 184.686 447.815 183.036 438.281 186.953C428.129 191.123 421.771 200.56 420.614 211.335C419.456 222.109 423.961 233.051 432.783 239.382C442.978 246.699 457.847 245.478 466.943 236.978C469.547 234.546 465.633 230.643 463.036 233.072C456.732 238.963 446.62 240.418 438.87 236.596C430.627 232.53 426.019 223.733 425.969 214.725C425.922 206.195 429.935 197.853 437.429 193.486C444.711 189.243 454.009 189.402 461.322 193.492C470.076 198.389 474.079 208.623 471.012 218.173C469.922 221.567 475.256 223.018 476.34 219.641H476.337Z" fill="#211715"/>
<path d="M471.068 222.169C471.712 222.215 470.661 222.031 471.232 222.186C471.451 222.245 471.673 222.29 471.89 222.359C472.128 222.435 472.483 222.64 472.072 222.418C472.273 222.526 472.476 222.627 472.67 222.745C472.854 222.859 473.219 223.145 472.853 222.842C473.028 222.987 473.198 223.139 473.36 223.301C473.521 223.462 473.673 223.631 473.817 223.808C473.433 223.333 473.836 223.874 473.908 223.993C474.026 224.189 474.131 224.391 474.229 224.597C473.963 224.034 474.229 224.652 474.269 224.794C474.332 225.016 474.382 225.243 474.419 225.471C474.316 224.84 474.401 225.54 474.404 225.688C474.408 225.928 474.39 226.167 474.381 226.407C474.354 227.04 474.499 226.066 474.34 226.63C474.274 226.865 474.23 227.105 474.16 227.34C474.133 227.43 473.847 228.199 473.961 227.935C474.081 227.655 473.767 228.314 473.727 228.388C473.61 228.608 473.483 228.822 473.349 229.032C473.302 229.105 472.886 229.688 473.06 229.463C473.234 229.238 472.774 229.785 472.715 229.848C472.546 230.029 472.371 230.205 472.19 230.372C472.123 230.433 471.603 230.862 471.796 230.716C471.985 230.572 471.408 230.978 471.326 231.032C471.104 231.177 470.876 231.315 470.645 231.447C468.999 232.38 467.05 232.886 465.295 232.929C463.852 232.965 462.465 234.175 462.533 235.692C462.599 237.159 463.748 238.492 465.295 238.454C471.304 238.306 477.335 235.041 479.373 229.158C480.298 226.488 480.103 223.291 478.496 220.915C476.774 218.373 474.126 216.855 471.071 216.64C469.626 216.538 468.245 217.984 468.308 219.403C468.379 220.987 469.524 222.056 471.071 222.165L471.068 222.169Z" fill="#211715"/>
<path d="M437.351 222.405C437.34 222.584 437.228 224.372 435.765 225.333C434.805 225.963 433.841 225.808 433.538 225.754C433.305 225.713 431.787 225.415 431.089 223.909C430.428 222.482 430.727 220.456 432.07 219.342C433.462 218.187 435.301 218.509 436.34 219.577C437.275 220.538 437.383 221.494 437.351 222.405Z" fill="#211715"/>
<path d="M452.299 225.46C452.288 225.64 452.176 227.427 450.713 228.389C449.753 229.019 448.789 228.864 448.486 228.81C448.253 228.769 446.735 228.47 446.037 226.965C445.375 225.538 445.675 223.511 447.018 222.398C448.41 221.243 450.249 221.565 451.288 222.633C452.223 223.594 452.33 224.55 452.299 225.46Z" fill="#211715"/>
<path d="M423.104 212.371C428.235 214.819 433.638 215.522 439.271 214.989C441.861 214.744 444.497 214.448 447.031 213.844C448.356 213.528 449.666 213.146 450.96 212.725C451.743 212.471 452.868 211.78 453.706 212.004C455.235 212.411 455.644 215.611 456.122 216.857C456.997 219.139 458.283 220.98 460.588 221.988C464.059 223.506 467.042 221.955 470.184 220.525C471.542 219.908 471.874 217.94 471.176 216.746C470.36 215.351 468.76 215.134 467.397 215.754C465.569 216.586 463.279 218.311 461.79 216.095C460.534 214.226 460.453 211.678 459.245 209.75C458.073 207.878 456.085 206.614 453.866 206.483C451.584 206.349 449.391 207.479 447.23 208.081C445.087 208.679 442.948 209.042 440.742 209.305C435.655 209.91 430.602 209.846 425.893 207.6C422.699 206.076 419.892 210.839 423.104 212.371Z" fill="#211715"/>
<path d="M427.811 312.536V291.871L423.655 294.257C428.767 297.214 433.879 300.171 439.002 303.111C442.09 304.885 444.876 300.113 441.79 298.34C436.668 295.399 431.556 292.443 426.444 289.486C424.631 288.437 422.287 289.77 422.287 291.871V312.536C422.287 316.092 427.811 316.098 427.811 312.536Z" fill="#211715"/>
<path d="M461.232 301.862C458.21 303.898 455.114 305.285 451.575 306.089C450.017 306.442 449.154 306.581 447.43 306.581C447.083 306.581 446.737 306.571 446.391 306.547C446.228 306.536 445.301 306.398 445.905 306.509C445.275 306.393 444.676 306.235 444.069 306.028C443.698 305.901 444.492 306.253 444.163 306.061C444.048 305.995 443.927 305.941 443.811 305.876C443.699 305.813 443.594 305.732 443.481 305.673C443.156 305.5 443.85 306.016 443.587 305.766C443.432 305.616 443.278 305.473 443.127 305.318C443.722 305.93 443.167 305.463 443.213 305.395C443.155 305.482 442.895 304.486 443.13 305.266C443.037 304.958 442.957 304.652 442.884 304.339C442.859 304.232 442.833 303.818 442.874 304.307C442.859 304.129 442.845 303.951 442.838 303.771C442.826 303.446 442.83 303.12 442.848 302.797C442.858 302.606 442.873 302.417 442.894 302.228C442.914 302.032 442.914 302.037 442.894 302.245L442.946 301.957C443.035 301.576 443.115 301.195 443.232 300.82C443.261 300.728 443.638 299.8 443.479 300.124C443.648 299.779 443.844 299.462 444.037 299.132C444.076 299.066 444.359 298.683 444.079 299.049C444.213 298.874 444.359 298.71 444.504 298.543C445.586 297.295 446.873 296.039 448.157 295.193C448.94 294.675 449.744 294.287 450.65 294.039C451.577 293.788 452.075 293.788 453.106 293.76C453.884 293.74 452.502 293.639 453.24 293.753C453.513 293.796 453.787 293.839 454.06 293.882L455.398 294.09C456.87 294.32 458.369 293.715 458.796 292.161C459.156 290.85 458.35 288.993 456.866 288.763C455.758 288.59 454.642 288.362 453.526 288.265C451.118 288.057 448.636 288.688 446.493 289.765C444.542 290.748 442.793 292.296 441.294 293.869C439.831 295.405 438.68 297.049 437.994 299.072C436.829 302.504 436.842 307.376 439.9 309.848C442.679 312.094 446.517 312.356 449.937 311.938C454.961 311.324 459.826 309.459 464.021 306.632C465.258 305.799 465.801 304.198 465.013 302.852C464.296 301.626 462.476 301.023 461.234 301.861L461.232 301.862Z" fill="#211715"/>
<path d="M464.495 271.052C464.329 269.877 464.532 271.726 464.555 272.046C464.615 272.907 464.662 273.769 464.702 274.631C464.794 276.583 464.86 278.54 464.823 280.495C464.814 280.898 464.805 281.301 464.781 281.705C464.762 282.028 464.939 282.746 464.771 282.138C465.027 283.068 463.984 281.921 464.941 282.011C464.647 281.984 463.624 283.054 463.378 283.253C461.011 285.173 458.705 287.164 456.329 289.071C455.612 289.647 455.338 290.913 455.619 291.759C457.135 296.355 458.845 300.887 460.126 305.559C460.605 307.305 462.633 308.077 464.184 307.21C474.371 301.516 488.466 295.707 488.17 281.908C488.047 276.131 486.869 270.067 485.45 264.478C484.047 258.948 482.005 253.369 478.533 248.784C474.498 243.456 469.681 238.163 463.704 234.998C460.562 233.335 457.768 238.104 460.915 239.769C465.615 242.259 469.435 246.252 472.772 250.33C475.988 254.261 478.056 258.729 479.479 263.584C480.893 268.415 481.77 273.41 482.366 278.402C482.699 281.192 482.976 284.191 481.931 286.869C481.049 289.127 479.346 290.986 477.567 292.577C472.844 296.801 466.875 299.376 461.397 302.439L465.455 304.089C464.175 299.419 462.465 294.885 460.948 290.29L460.238 292.978C462.873 290.86 465.421 288.633 468.069 286.531C469.971 285.021 470.253 283.422 470.334 281.124C470.468 277.315 470.359 273.361 469.824 269.582C469.616 268.102 467.732 267.293 466.426 267.652C464.836 268.089 464.288 269.567 464.497 271.05L464.495 271.052Z" fill="#211715"/>
<path d="M453.907 286.896C444.725 281.593 435.542 276.29 426.36 270.987C423.276 269.205 420.489 273.979 423.571 275.759C432.753 281.062 441.936 286.365 451.118 291.668C454.203 293.45 456.989 288.677 453.907 286.896Z" fill="#211715"/>
<path d="M346.145 224.666C336.604 219.156 327.063 213.647 317.523 208.137C314.439 206.355 311.653 211.129 314.734 212.908C324.275 218.418 333.816 223.927 343.356 229.437C346.441 231.219 349.227 226.445 346.145 224.666Z" fill="#211715"/>
<path d="M115.681 341.075C115.681 322.58 115.681 304.084 115.685 285.589C115.685 276.749 115.688 267.911 115.689 259.072C115.689 255.516 110.164 255.511 110.164 259.072C110.159 284.53 110.157 309.987 110.157 335.446C110.157 337.322 110.157 339.198 110.157 341.075C110.157 344.63 115.681 344.636 115.681 341.075Z" fill="#211715"/>
<path d="M58.7549 110.706V104.946L57.3859 107.331C79.978 94.2844 102.571 81.2375 125.165 68.192C149.85 53.9378 174.535 39.6836 199.221 25.4308C210.936 18.6663 222.651 11.9032 234.365 5.13867L230.209 2.75307C230.209 39.3092 230.176 75.8654 230.163 112.422C230.16 121.012 230.158 129.604 230.153 138.195L231.522 135.809C211.734 147.241 191.945 158.671 172.154 170.1C149.547 183.157 126.94 196.212 104.333 209.267C92.6671 216.004 81.0016 222.741 69.3374 229.478C66.2598 231.255 69.0377 236.032 72.1264 234.249C90.1765 223.824 108.228 213.399 126.28 202.974C145.489 191.88 164.699 180.786 183.908 169.693C200.417 160.158 216.926 150.623 233.433 141.086C234.844 140.271 235.624 139.473 235.68 137.768C235.716 136.685 235.68 135.595 235.68 134.512C235.68 132.302 235.682 130.092 235.683 127.882C235.684 122.902 235.687 117.922 235.688 112.941C235.693 101.916 235.697 90.8918 235.701 79.8672C235.709 57.1522 235.719 34.4386 235.734 11.7236C235.735 8.73295 235.735 5.74094 235.735 2.75031C235.735 0.647883 233.391 -0.680981 231.579 0.364705C208.43 13.7293 185.283 27.0953 162.134 40.4613C136.779 55.1023 111.425 69.7433 86.0698 84.3842C79.786 88.0131 73.5022 91.6419 67.217 95.2707C64.3259 96.9408 61.4333 98.6108 58.5421 100.281C57.1318 101.096 55.1965 101.834 54.0403 102.99C53.0126 104.017 53.2308 105.52 53.2308 106.845V110.703C53.2308 114.259 58.7562 114.264 58.7562 110.703L58.7549 110.706Z" fill="#211715"/>
<path d="M103.888 141.775C102.205 143.89 100.573 146.046 99.0123 148.252C98.6186 148.808 98.5592 149.748 98.7333 150.381C98.9101 151.022 99.4046 151.717 100.003 152.032C100.644 152.37 101.42 152.54 102.131 152.311L102.792 152.032C103.207 151.786 103.538 151.456 103.784 151.04C104.836 149.552 105.919 148.087 107.034 146.645L106.601 147.204C106.997 146.693 107.394 146.186 107.796 145.68C108.066 145.43 108.256 145.133 108.368 144.791C108.541 144.462 108.621 144.107 108.606 143.726C108.606 143.048 108.305 142.239 107.796 141.773C107.27 141.289 106.578 140.93 105.843 140.963C105.159 140.993 104.336 141.212 103.89 141.773L103.888 141.775Z" fill="#211715"/>
<path d="M89.4454 158.351C89.6111 157.145 89.8929 155.958 90.3322 154.822C90.2217 155.109 90.5353 154.381 90.5891 154.276C90.7217 154.012 90.864 153.755 91.0173 153.502C91.4345 152.812 91.5229 152.698 92.0244 152.189C92.7758 151.423 93.5867 150.921 94.7594 150.664C94.8962 150.633 94.8962 150.62 95.2678 150.6C95.5841 150.584 95.9004 150.585 96.2168 150.6C96.721 150.628 97.3177 150.749 98.018 150.964C102.923 152.46 106.031 157.606 104.267 162.459C103.881 163.526 103.066 164.673 102.088 165.573C101.122 166.461 99.9533 167.016 98.5747 167.344C97.1229 167.689 96.2596 169.34 96.645 170.742C97.0525 172.225 98.5872 173.017 100.043 172.672C107.884 170.808 112.326 162.052 109.351 154.592C107.874 150.893 105.042 147.959 101.382 146.364C97.7211 144.768 93.3601 144.421 89.933 146.788C86.5901 149.095 84.6631 152.915 84.1161 156.883C83.913 158.359 84.4739 159.85 86.0458 160.281C87.336 160.636 89.2409 159.839 89.4454 158.351Z" fill="#211715"/>
<path d="M59.2216 302.795C61.3351 304.706 63.4845 306.584 65.4875 308.613C66.0013 309.134 66.5083 309.664 66.9876 310.217C67.1437 310.396 67.2957 310.58 67.4476 310.765C67.018 310.241 67.5388 310.907 67.6134 311.023C68.3911 312.255 68.8207 313.874 68.5568 315.277C67.8883 318.843 63.3975 319.194 60.4193 318.93C56.2227 318.557 52.0455 317.228 48.1528 315.673C46.7673 315.119 45.118 316.278 44.7547 317.603C44.3223 319.176 45.2934 320.446 46.6845 321.001C50.2732 322.435 53.9573 323.501 57.7767 324.109C61.7647 324.743 66.1395 324.888 69.6522 322.549C73.1374 320.229 74.6417 316.448 73.9358 312.347C73.4068 309.275 71.6152 306.969 69.4962 304.81C67.4642 302.739 65.2775 300.832 63.1281 298.887C62.0216 297.887 60.3129 297.794 59.2216 298.887C58.205 299.903 58.111 301.789 59.2216 302.793V302.795Z" fill="#211715"/>
<path d="M40.2104 312.953C42.9773 314.83 45.8353 319.133 43.5215 322.439C40.9936 326.051 35.2389 325.449 31.5258 324.67C28.8778 324.114 26.3098 323.233 23.7723 322.303C21.8066 321.584 19.5136 320.846 18.1308 319.173C16.7647 317.523 16.1693 315.299 16.4787 313.188C16.6666 311.906 17.2012 309.982 18.4472 309.346C21.616 307.73 18.8229 302.96 15.6582 304.575C11.4893 306.702 10.3151 312.909 11.166 317.079C12.2863 322.576 16.5671 325.485 21.4834 327.327C26.8486 329.339 32.606 331.179 38.4174 330.633C43.2231 330.181 48.1933 327.503 49.4696 322.505C50.9435 316.735 47.6407 311.329 43.0007 308.18C40.0502 306.179 37.2833 310.964 40.2118 312.952L40.2104 312.953Z" fill="#211715"/>
<path d="M39.2852 239.086C39.2852 255.895 39.2728 272.705 39.1692 289.515C39.1388 294.479 39.0987 299.444 39.0393 304.409C38.9965 307.966 44.5219 307.967 44.5647 304.409C44.783 286.287 44.7968 268.161 44.8078 250.037C44.8106 246.386 44.8106 242.737 44.8106 239.086C44.8106 235.53 39.2852 235.525 39.2852 239.086Z" fill="#211715"/>
<path d="M63.1045 236.016C62.7371 253.681 61.9 271.345 61.0601 288.993C60.8792 292.804 60.6927 296.615 60.4827 300.426L61.8516 298.041C57.1633 301.388 49.9761 300.436 44.6386 299.658C43.1633 299.443 41.67 300.023 41.2404 301.588C40.8841 302.888 41.6839 304.771 43.1702 304.986C49.7413 305.943 57.9673 306.961 63.9403 303.287C65.5633 302.288 65.9667 301.215 66.0648 299.393C66.1173 298.409 66.1698 297.426 66.2195 296.441C66.3397 294.093 66.4543 291.743 66.5662 289.393C67.1422 277.32 67.6602 265.243 68.1023 253.163C68.3122 247.448 68.5098 241.734 68.6286 236.016C68.7032 232.459 63.1791 232.459 63.1045 236.016Z" fill="#211715"/>
<path d="M37.6931 303.459C33.958 305.4 29.8664 305.817 25.714 305.681C22.3504 305.569 18.2782 305.653 15.3235 303.803L16.6924 306.189C16.4548 286.869 16.5916 267.523 17.1234 248.209C17.2519 243.571 17.4066 238.931 17.6745 234.298C17.8804 230.745 12.3536 230.757 12.1491 234.298C11.4212 246.897 11.3037 259.542 11.1808 272.159C11.1159 278.939 11.0841 285.72 11.0882 292.5C11.091 295.417 11.0993 298.335 11.12 301.252C11.1283 302.474 11.138 303.696 11.1518 304.918C11.1753 307.077 11.6643 308.279 13.7128 309.204C17.6635 310.989 22.3325 311.167 26.6036 311.231C31.4536 311.303 36.1529 310.482 40.4821 308.232C43.6385 306.591 40.8482 301.821 37.6931 303.461V303.459Z" fill="#211715"/>
<path d="M20.4041 147.951C19.7742 147.933 19.1429 147.916 18.5144 147.878C18.2699 147.863 18.0268 147.846 17.7836 147.824C17.6773 147.814 16.93 147.677 17.5833 147.809C17.0377 147.7 16.5017 147.603 15.9685 147.438C15.7254 147.364 15.4878 147.278 15.2489 147.193C14.496 146.92 15.5914 147.397 14.9367 147.061C14.4698 146.822 14.0153 146.579 13.5816 146.282C13.4807 146.215 13.3826 146.146 13.2859 146.072C13.5249 146.259 13.5222 146.252 13.2777 146.052C13.1008 145.886 12.9157 145.73 12.7445 145.557C12.5732 145.384 12.4157 145.201 12.2499 145.024C12.0496 144.779 12.0427 144.775 12.2306 145.013C12.1588 144.915 12.0897 144.815 12.0234 144.714C11.8659 144.478 11.7195 144.237 11.5855 143.985C11.5247 143.872 11.2457 143.22 11.4543 143.759C11.2788 143.304 11.1628 142.843 11.0523 142.369C10.9984 142.047 10.997 142.054 11.0509 142.39C11.0385 142.269 11.0302 142.151 11.0261 142.03C11.0122 141.75 11.0122 141.47 11.0288 141.189C11.0371 141.036 11.1973 140.4 11.0426 140.971C11.1048 140.742 11.1379 140.503 11.2029 140.273C11.2263 140.188 11.5109 139.413 11.3811 139.71C11.2484 140.01 11.6214 139.272 11.6656 139.199C11.7374 139.08 12.156 138.547 11.7747 138.993C11.9239 138.817 12.0786 138.652 12.2403 138.489C12.3839 138.345 12.5303 138.204 12.6823 138.069C12.7762 137.984 12.8729 137.903 12.971 137.824C12.6505 138.067 12.6105 138.105 12.8508 137.936C13.0069 137.852 13.163 137.757 13.3163 137.665C13.8247 137.362 12.7514 137.83 13.3536 137.645C13.873 137.484 14.3869 137.346 14.9215 137.241C16.3415 136.96 17.2877 135.191 16.8512 133.843C16.3622 132.333 14.974 131.611 13.4531 131.913C10.7083 132.459 8.35727 133.988 6.8958 136.411C5.38874 138.911 5.05998 142.252 6.0435 144.998C7.05051 147.811 9.08249 150.203 11.7264 151.616C14.4587 153.076 17.3665 153.387 20.4124 153.476C21.8586 153.519 23.24 152.175 23.1751 150.714C23.106 149.18 21.9609 147.997 20.4124 147.951H20.4041Z" fill="#211715"/>
<path d="M24.045 154.496C10.7315 159.281 3.5692 172.204 0.86727 185.397C-1.89544 198.886 2.02346 213.169 11.465 223.219C16.4572 228.534 22.7908 232.463 29.7169 234.706C33.1081 235.804 34.5599 230.471 31.1853 229.378C20.5792 225.944 11.6322 217.638 7.81134 207.107C5.75036 201.425 5.00719 195.284 5.78213 189.28C6.53497 183.448 8.4813 177.131 11.4968 172.067C14.6712 166.735 19.586 161.957 25.5148 159.826C28.8356 158.632 27.4031 153.29 24.0464 154.498L24.045 154.496Z" fill="#211715"/>
<path d="M57.3895 158.816C63.8694 162.709 70.4736 166.716 75.3181 172.64C76.2629 173.796 78.2534 173.613 79.2245 172.64C82.2276 169.628 85.105 166.497 87.9133 163.304L84.5649 163.737C89.3844 166.861 94.2039 169.986 99.0235 173.109L98.0317 169.33C94.0202 176.204 89.8568 183.346 84.6892 189.434C83.1199 191.282 80.9167 193.881 78.317 194.136C78.0352 194.164 77.7589 194.132 77.4882 194.098C77.5987 194.111 77.8819 194.283 77.5655 194.169C77.1249 194.011 76.6939 193.704 76.2822 193.484L73.9063 192.216C70.7706 190.542 67.9762 195.31 71.1174 196.987C73.2115 198.105 75.2863 199.582 77.7327 199.659C81.5549 199.782 84.8826 197.315 87.3994 194.676C89.8831 192.072 91.9358 189.034 93.9802 186.083C97.1172 181.555 100.028 176.875 102.803 172.117C103.581 170.784 103.067 169.15 101.811 168.338C96.9915 165.213 92.172 162.089 87.3524 158.966C86.3841 158.338 84.7803 158.515 84.004 159.398C81.1943 162.59 78.3184 165.722 75.3153 168.733H79.2218C74.1052 162.476 67.0203 158.159 60.1743 154.047C57.1187 152.211 54.338 156.986 57.3853 158.818L57.3895 158.816Z" fill="#211715"/>
<path d="M68.484 197.652C67.7325 210.107 68.7299 222.65 67.8154 235.096L70.5781 232.333C61.4073 233.071 52.2296 233.753 43.0215 233.713C32.7207 233.668 22.6782 232.407 12.6593 230.038L14.6871 232.702C14.7092 229.627 14.9951 226.545 15.3557 223.493C15.5311 222.009 13.9605 220.73 12.593 220.73C10.9547 220.73 10.0057 222.004 9.83026 223.493C9.46972 226.545 9.18378 229.627 9.16168 232.702C9.15339 233.876 10.0223 235.091 11.1895 235.367C21.4544 237.794 31.8242 239.156 42.3791 239.236C51.8013 239.308 61.1918 238.614 70.5767 237.86C72.1515 237.733 73.222 236.693 73.3394 235.097C74.2539 222.651 73.2566 210.109 74.008 197.653C74.2221 194.102 68.6967 194.114 68.4826 197.653L68.484 197.652Z" fill="#211715"/>
<path d="M58.3866 120.472C63.8734 130.473 63.5266 143.531 54.523 151.428C45.5787 159.273 31.924 158.195 23.8707 149.685C21.4216 147.096 17.5192 151.008 19.9642 153.591C27.5672 161.625 39.6071 164.554 49.9576 160.476C60.3758 156.372 67.4221 146.374 67.603 135.129C67.7025 128.93 66.1291 123.096 63.1592 117.683C61.4477 114.565 56.6737 117.35 58.3866 120.472Z" fill="#211715"/>
<path d="M50.5226 130.959C50.5517 131.157 50.8445 133.13 52.5588 134.055C53.6818 134.663 54.7372 134.399 55.0673 134.311C55.3229 134.243 56.9763 133.769 57.6076 132.033C58.2057 130.388 57.6822 128.171 56.0881 127.064C54.4346 125.916 52.4275 126.447 51.3763 127.729C50.4301 128.883 50.4011 129.954 50.5226 130.959Z" fill="#211715"/>
<path d="M34.6354 136.906C34.6644 137.103 34.9573 139.076 36.6716 140.001C37.7946 140.609 38.85 140.345 39.1801 140.257C39.4356 140.189 41.0891 139.715 41.7204 137.979C42.3185 136.334 41.795 134.117 40.2009 133.01C38.5474 131.862 36.5403 132.393 35.4891 133.675C34.5429 134.83 34.5139 135.9 34.6354 136.906Z" fill="#211715"/>
<path d="M63.4347 118.343C61.5492 112.925 58.1952 108.12 53.5456 104.722C49.0576 101.441 43.2462 100.011 37.7512 99.9628C31.7174 99.909 26.0401 100.999 20.7329 103.965C16.0128 106.603 12.1864 110.279 9.7 115.112C6.5588 121.218 5.625 128.202 7.34203 134.871C8.22886 138.312 13.5595 136.853 12.6699 133.403C10.3934 124.563 14.0789 114.72 21.7841 109.776C29.4893 104.832 40.594 103.614 48.8034 108.229C53.1933 110.697 56.4672 115.098 58.1068 119.81C59.2685 123.148 64.6075 121.714 63.4347 118.343Z" fill="#211715"/>
<path d="M63.1378 118.547C60.067 120.584 55.8884 118.043 52.9724 116.753C49.3021 115.13 46.2245 116.072 43.0197 118.228C39.9738 120.277 36.9956 122.073 33.6583 123.635C29.8305 125.428 25.8826 126.928 21.8201 128.095C18.4081 129.076 19.8599 134.41 23.2884 133.423C31.0682 131.187 38.714 127.894 45.3791 123.292C46.4455 122.556 47.9746 121.276 49.356 121.298C50.0508 121.309 50.8382 121.835 51.4474 122.117C52.348 122.534 53.268 122.908 54.1893 123.277C57.9591 124.786 62.302 125.721 65.9267 123.317C68.8759 121.36 66.1132 116.575 63.1378 118.547Z" fill="#211715"/>
<path d="M53.8019 156.768C53.2811 162.252 52.3639 167.688 51.0116 173.029C50.3609 175.597 49.6136 178.14 48.7544 180.646C48.3386 181.859 47.8966 183.063 47.4283 184.257C47.2308 184.758 47.0374 185.265 46.8205 185.758C46.7197 185.996 46.6106 186.231 46.4945 186.463C46.1437 186.989 46.2086 186.996 46.6907 186.482H48.1591C47.7377 186.426 47.6728 186.224 47.2446 185.698C46.8122 185.166 46.4241 184.587 46.0235 184.032C45.1988 182.887 44.3949 181.726 43.6158 180.549C42.0493 178.185 40.5796 175.753 39.2175 173.264C36.2697 167.877 33.8676 162.238 31.8176 156.453C30.638 153.124 25.2976 154.558 26.4897 157.921C29.816 167.31 34.0513 176.335 39.6775 184.575C40.9981 186.51 42.3215 188.728 44.0191 190.353C46.0705 192.316 49.0735 192.43 50.8016 189.988C52.1829 188.036 52.9192 185.398 53.7176 183.16C54.6031 180.679 55.3766 178.16 56.0521 175.614C57.6904 169.442 58.7264 163.121 59.3287 156.767C59.4696 155.279 57.9584 154.004 56.566 154.004C54.9539 154.004 53.9442 155.275 53.8033 156.767L53.8019 156.768Z" fill="#211715"/>
<path d="M36.3741 233.202C39.8717 234.329 43.43 235.259 46.9552 236.296C48.128 236.641 49.4624 236.067 50.0757 235.026C56.039 224.891 61.7537 214.613 67.2322 204.208C68.0403 202.672 67.3772 200.6 65.5814 200.15C56.4755 197.869 47.4097 195.435 38.3273 193.064C37.1255 192.75 35.8478 193.275 35.2068 194.333C33.3586 197.385 31.6181 200.497 29.8886 203.616C28.1591 206.735 32.9331 209.518 34.6598 206.405C36.3865 203.291 38.1298 200.174 39.978 197.122L36.8575 198.392C45.94 200.763 55.0058 203.197 64.1117 205.478L62.461 201.419C56.9825 211.824 51.2678 222.103 45.3045 232.238L48.425 230.968C44.8998 229.931 41.3414 229.001 37.8438 227.874C34.4512 226.781 32.9967 232.115 36.3741 233.202Z" fill="#211715"/>
<path d="M44.8006 218.144C46.2884 221.676 44.4871 224.95 41.5655 226.838C40.9025 227.267 40.046 227.71 39.5916 227.877C39.1799 228.029 38.7586 228.158 38.3318 228.26C38.1494 228.304 37.9657 228.341 37.7806 228.377C37.4684 228.438 38.0831 228.373 37.5748 228.405C35.7776 228.517 33.8589 228.012 31.9803 227.405C28.7258 226.352 26.4397 224.453 24.8359 221.517C23.1065 218.354 21.6422 214.036 23.7875 210.542C24.8691 208.783 27.4633 206.571 29.574 206.904C31.1805 207.158 32.8395 208.667 32.9859 210.139C33.1033 211.312 33.7567 212.523 35.0137 212.804C37.0499 213.255 39.1081 213.791 40.9798 214.734C42.9123 215.706 44.1293 216.84 45.0797 218.803C45.7289 220.146 47.6435 220.505 48.8591 219.795C50.2307 218.992 50.5015 217.364 49.8509 216.015C47.3271 210.794 41.8321 208.664 36.4835 207.476L38.5113 210.14C38.1867 206.878 36.5028 204.083 33.5315 202.555C30.3793 200.934 27.0516 201.094 24.0223 202.931C21.0413 204.738 18.6005 207.48 17.6694 210.885C16.8158 214.006 17.186 217.206 18.2662 220.205C19.9722 224.944 22.7736 229.207 27.4177 231.481C29.9193 232.706 32.5908 233.405 35.3397 233.796C37.974 234.171 40.4618 233.59 42.846 232.454C48.5234 229.746 52.7628 222.926 50.1299 216.676C49.5511 215.301 48.3038 214.314 46.7318 214.746C45.4361 215.102 44.2177 216.76 44.8006 218.144Z" fill="#211715"/>
<path d="M299.682 197.833C285.649 189.729 271.616 181.624 257.588 173.509C254.505 171.724 251.719 176.498 254.799 178.28C268.825 186.396 282.86 194.5 296.893 202.604C299.978 204.386 302.764 199.614 299.682 197.833Z" fill="#211715"/>
<path d="M522.73 326.647C506.073 317.026 489.416 307.405 472.759 297.785C469.675 296.003 466.888 300.776 469.97 302.557C486.628 312.176 503.284 321.797 519.941 331.419C523.025 333.201 525.812 328.428 522.73 326.647Z" fill="#211715"/>
<path d="M146.733 235.957C134.996 242.733 123.26 249.515 111.522 256.291C109.731 257.325 109.729 260.027 111.522 261.062C121.845 267.02 132.17 272.977 142.492 278.937C145.577 280.717 148.363 275.945 145.281 274.165C134.959 268.206 124.634 262.248 114.311 256.291V261.062C126.049 254.286 137.785 247.504 149.522 240.728C152.601 238.95 149.822 234.175 146.733 235.957Z" fill="#211715"/>
<path d="M518.58 329.029C518.571 353.096 518.568 377.162 518.566 401.229C518.566 404.43 518.566 407.632 518.566 410.832L519.935 408.447C512.45 412.769 504.966 417.094 497.481 421.419C485.949 428.083 474.416 434.748 462.881 441.411C450.321 448.67 437.759 455.928 425.198 463.187C414.803 469.193 404.41 475.199 394.015 481.206C388.806 484.215 383.6 487.228 378.388 490.231C377.946 490.485 377.504 490.741 377.062 490.997L381.218 493.382C381.218 474.84 381.221 456.298 381.225 437.758C381.227 429.174 381.232 420.59 381.232 412.007C381.232 411.037 380.706 410.107 379.863 409.621C363.338 400.087 346.821 390.54 330.3 380.999C327.216 379.217 324.429 383.991 327.511 385.77C344.032 395.312 360.549 404.858 377.074 414.392L375.705 412.007C375.705 437.26 375.693 462.514 375.692 487.768C375.692 489.64 375.692 491.51 375.692 493.382C375.692 495.482 378.037 496.819 379.848 495.768C386.954 491.646 394.075 487.551 401.187 483.442C415.718 475.047 430.247 466.65 444.777 458.254C460.543 449.144 476.307 440.034 492.072 430.926C498.319 427.316 504.565 423.707 510.813 420.097C513.149 418.748 515.483 417.398 517.819 416.05C519.54 415.055 523.436 413.594 523.992 411.566C524.36 410.23 524.091 408.436 524.091 407.052C524.091 405.228 524.091 403.406 524.091 401.583C524.091 396.179 524.091 390.774 524.091 385.37C524.092 370.584 524.095 355.796 524.099 341.01C524.099 337.016 524.102 333.022 524.103 329.027C524.103 325.472 518.579 325.466 518.578 329.027L518.58 329.029Z" fill="#211715"/>
<path d="M252.226 335.928C243.18 330.703 234.137 325.48 225.096 320.249C222.013 318.465 219.226 323.238 222.307 325.02C231.348 330.252 240.391 335.475 249.437 340.699C252.521 342.481 255.307 337.708 252.226 335.928Z" fill="#211715"/>
<path d="M174.594 226.239C177.185 224.511 180.042 223.086 182.74 221.527C185.616 219.867 188.49 218.207 191.366 216.545C197.135 213.213 202.903 209.88 208.673 206.547C219.477 200.304 230.279 194.062 241.082 187.818C246.584 184.638 252.086 181.458 257.588 178.277C260.666 176.498 257.887 171.721 254.799 173.506C233.518 185.81 212.234 198.109 190.948 210.405C187.78 212.235 184.611 214.065 181.444 215.894C178.253 217.737 174.873 219.422 171.808 221.467C168.862 223.429 171.627 228.217 174.596 226.238L174.594 226.239Z" fill="#211715"/>
<path d="M378.46 415.051C379.416 415.089 380.38 414.376 381.188 413.909C382.201 413.325 383.212 412.739 384.224 412.155C387.714 410.138 391.203 408.122 394.691 406.106C405.677 399.757 416.663 393.408 427.647 387.059C440.948 379.372 454.249 371.685 467.55 363.999C479.122 357.312 490.694 350.623 502.265 343.936C508.401 340.39 514.612 336.944 520.686 333.292C520.865 333.184 521.049 333.082 521.23 332.977C522.404 332.298 522.669 331.09 522.499 329.856L522.49 329.782C522.287 328.302 520.394 327.494 519.091 327.852C517.497 328.29 516.957 329.766 517.162 331.25L517.171 331.325L518.441 328.204C513.31 331.167 508.182 334.133 503.053 337.097C491.977 343.498 480.9 349.9 469.824 356.301C456.617 363.933 443.411 371.566 430.204 379.198C418.684 385.856 407.164 392.513 395.644 399.171C389.645 402.638 383.453 405.9 377.594 409.602C377.425 409.708 377.246 409.802 377.073 409.903L378.467 409.526H378.457C374.902 409.385 374.907 414.91 378.457 415.051H378.46Z" fill="#211715"/>
<path d="M305.173 348.475C312.21 344.308 319.335 340.282 326.419 336.195C329.498 334.419 326.718 329.642 323.63 331.424C316.546 335.511 309.421 339.536 302.384 343.704C299.328 345.515 302.104 350.293 305.173 348.475Z" fill="#211715"/>
<path d="M289.812 333.265C298.02 328.543 306.213 323.799 314.414 319.065H311.625C314.088 320.468 316.533 321.903 318.987 323.319C322.073 325.098 324.86 320.326 321.776 318.548C319.865 317.446 317.956 316.342 316.045 315.237C314.624 314.415 313.327 313.447 311.625 314.293C309.707 315.248 307.877 316.459 306.023 317.53C299.693 321.189 293.362 324.848 287.023 328.494C283.941 330.266 286.72 335.043 289.812 333.265Z" fill="#211715"/>
<path d="M352.086 338.956C359.119 343.022 366.144 347.102 373.193 351.14V346.369C366.307 350.481 359.257 354.318 352.362 358.414H355.151C345.267 352.661 335.139 346.833 325.065 341.037V345.808C328.054 344.049 331.071 342.339 334.071 340.6C337.146 338.817 334.367 334.04 331.282 335.829C328.282 337.568 325.265 339.278 322.276 341.037C320.498 342.082 320.47 344.769 322.276 345.808C332.393 351.629 342.498 357.443 352.362 363.185C353.211 363.68 354.301 363.69 355.151 363.185C362.046 359.09 369.096 355.252 375.982 351.14C377.746 350.086 377.799 347.41 375.982 346.369C368.933 342.331 361.908 338.251 354.874 334.185C351.79 332.402 349.005 337.176 352.086 338.956Z" fill="#211715"/>
<path d="M335.399 376.922C336.856 376.922 338.531 376.101 339.867 375.596C341.801 374.864 343.724 374.056 345.556 373.091C347.354 372.142 349.133 371.003 350.426 369.409C352.055 367.4 352.689 364.937 352.585 362.379C352.485 359.871 351.817 357.604 350.107 355.722C348.6 354.065 346.494 352.769 344.265 352.417C343.029 352.221 341.819 352.276 340.574 352.272C339.359 352.268 338.573 351.987 337.534 351.382C335.39 350.132 333.165 349.3 330.666 350.021C328.33 350.694 326.882 352.534 325.583 354.463C324.23 356.47 323.009 358.571 321.852 360.695C320.15 363.818 324.918 366.61 326.623 363.484C327.452 361.963 328.318 360.464 329.232 358.993C329.627 358.358 330.031 357.727 330.451 357.108C330.63 356.844 330.811 356.581 330.999 356.326C331.009 356.314 331.297 355.947 331.111 356.175C330.945 356.378 331.383 355.877 331.433 355.829C332.313 354.978 333.181 355.246 334.227 355.848C336.114 356.937 337.893 357.717 340.114 357.792C341.675 357.844 343.206 357.548 344.627 358.33C345.872 359.014 346.735 360.035 346.974 361.434C347.215 362.843 347.19 364.516 346.329 365.722C345.574 366.78 344.357 367.451 343.24 368.066C341.787 368.866 340.272 369.548 338.725 370.145C337.968 370.436 337.204 370.714 336.433 370.968C336.132 371.068 335.831 371.164 335.528 371.257C335.162 371.368 334.389 371.399 335.399 371.399C331.843 371.399 331.837 376.925 335.399 376.925V376.922Z" fill="#211715"/>
<path d="M225.663 429.482C225.663 440.932 225.652 452.382 225.652 463.832C225.652 467.388 231.177 467.394 231.177 463.832C231.177 452.382 231.188 440.932 231.188 429.482C231.188 425.927 225.663 425.921 225.663 429.482Z" fill="#211715"/>
<path d="M266.764 454.53V487.557C266.764 491.113 272.29 491.118 272.29 487.557V454.53C272.29 450.974 266.764 450.969 266.764 454.53Z" fill="#211715"/>
<path d="M309.927 449.872C316.059 448.883 322.669 447.441 325.901 441.421C327.193 439.016 327.039 435.671 327.317 432.969C327.599 430.232 327.846 427.492 328.071 424.748C328.469 419.879 329.123 414.807 328.815 409.915C328.429 403.788 324.257 398.258 319.251 395.023C314.942 392.238 309.971 391.252 305.062 390.097C301.603 389.283 300.128 394.61 303.594 395.425C306.961 396.216 310.509 396.799 313.665 398.252C318.244 400.362 321.85 403.966 323.075 408.951C323.488 410.628 323.304 412.476 323.234 414.226C323.136 416.654 322.977 419.079 322.799 421.502C322.448 426.294 322.035 431.087 321.478 435.86C321.301 437.375 321.351 438.584 320.322 439.794C319.271 441.029 318.023 442.006 316.555 442.693C314.035 443.873 311.172 444.107 308.459 444.544C306.985 444.782 306.164 446.616 306.529 447.943C306.96 449.51 308.449 450.111 309.927 449.872Z" fill="#211715"/>
<path d="M308.825 413.898C302.686 417.362 296.459 420.693 289.71 422.81C286.595 423.787 283.473 424.648 280.19 424.632C277.256 424.619 273.784 424.018 271.755 421.714C269.4 419.041 265.504 422.961 267.849 425.62C273.105 431.586 282.686 430.578 289.489 428.644C297.323 426.417 304.554 422.653 311.615 418.668C314.712 416.92 311.93 412.145 308.826 413.896L308.825 413.898Z" fill="#211715"/>
<path d="M303.427 458.086C306.004 463.002 311.788 464.805 316.999 463.915C319.902 463.42 322.636 462.183 325.327 461.03C327.733 459.998 330.117 458.882 332.298 457.422C334.48 455.962 336.655 454.177 338.103 451.949C339.633 449.592 339.759 446.523 338.876 443.897C336.871 437.931 330.365 437.008 324.94 437.438C323.452 437.555 322.177 438.623 322.177 440.2C322.177 441.604 323.444 443.082 324.94 442.963C327.95 442.724 333.053 442.321 333.801 446.288C334.464 449.799 330.413 452.211 327.797 453.71C324.381 455.666 320.448 457.485 316.603 458.375C313.429 459.11 309.813 458.375 308.199 455.297C306.547 452.146 301.777 454.937 303.428 458.086H303.427Z" fill="#211715"/>
<path d="M305.95 433.508C305.95 443.615 305.928 453.724 305.928 463.831C305.928 467.387 311.453 467.392 311.453 463.831C311.453 453.724 311.475 443.615 311.475 433.508C311.475 429.952 305.95 429.947 305.95 433.508Z" fill="#211715"/>
<path d="M289.577 362.052C289.494 361.69 289.428 361.327 289.377 360.959L289.475 361.694C289.352 360.718 289.349 359.737 289.471 358.759L289.373 359.494C289.449 358.942 289.559 358.398 289.721 357.866C289.801 357.603 289.902 357.348 289.994 357.09C289.677 357.985 289.989 357.132 290.12 356.888C290.249 356.651 290.388 356.42 290.54 356.196C290.667 356.008 290.986 355.721 290.427 356.322C290.518 356.224 290.597 356.113 290.686 356.013C290.851 355.828 291.025 355.652 291.207 355.486C291.289 355.412 291.696 355.087 291.291 355.397C290.869 355.72 291.37 355.348 291.456 355.29C292.651 354.482 293.292 352.822 292.448 351.511C291.68 350.32 289.949 349.654 288.668 350.519C284.439 353.378 283.154 358.723 284.251 363.52C284.573 364.931 286.273 365.895 287.649 365.45C289.124 364.972 289.924 363.563 289.579 362.052H289.577Z" fill="#211715"/>
<path d="M289.804 373.8C293.18 378.352 296.297 383.715 300.68 387.386C304.789 390.827 310.375 393.122 315.801 392.591C321.704 392.012 326.985 388.723 331.378 384.914C333.68 382.917 335.878 380.653 337.798 378.283C338.728 377.135 339.202 375.789 338.755 374.31C338.324 372.88 336.972 371.398 335.399 371.398L337.352 372.207C335.479 370.334 333.468 368.581 331.528 366.776C330.447 365.769 329.365 364.763 328.283 363.758C327.35 362.89 326.417 361.788 325.272 361.195C323.243 360.144 321.469 360.836 319.461 361.546C318.38 361.927 317.268 362.205 316.169 362.521C315.421 362.737 313.663 363.597 313.24 363.61L314.634 363.987C314.926 364.361 314.957 364.372 314.728 364.019C314.575 363.764 314.426 363.508 314.281 363.248C314.037 362.815 313.803 362.378 313.575 361.937C313.07 360.962 312.601 359.967 312.156 358.964C311.261 356.95 310.479 354.888 309.67 352.839C308.005 348.632 306.277 344.417 303.868 340.57C301.615 336.973 298.885 333.695 295.299 331.372C292.077 329.283 288.368 327.754 284.853 326.234C283.485 325.643 281.891 325.83 281.074 327.226C280.392 328.392 280.689 330.412 282.066 331.006C286.119 332.757 290.84 334.491 294.219 337.416C298.289 340.94 300.894 346.051 302.974 350.93C305.086 355.884 306.754 361.05 309.368 365.776C310.8 368.362 312.481 369.847 315.507 368.579C316.455 368.182 317.438 367.907 318.429 367.631C319.777 367.254 321.082 366.651 322.424 366.295C322.931 366.16 322.675 366.06 322.897 366.15C323.174 366.262 324.037 367.349 324.38 367.667C325.628 368.827 326.876 369.989 328.123 371.151C329.37 372.312 330.619 373.475 331.867 374.639C332.872 375.576 333.912 376.926 335.414 376.926L333.461 376.117L333.51 376.306V374.837C333.588 374.549 332.916 375.5 332.78 375.652C332.361 376.122 331.938 376.589 331.512 377.05C330.799 377.818 330.072 378.575 329.321 379.306C327.693 380.888 325.964 382.341 324.067 383.591C320.675 385.829 316.656 387.681 312.494 387.02C303.77 385.633 299.378 377.487 294.577 371.015C293.689 369.819 292.184 369.213 290.797 370.023C289.618 370.714 288.912 372.598 289.806 373.803L289.804 373.8Z" fill="#211715"/>
<path d="M266.358 321.778C261.52 321.778 256.545 325.375 253.352 328.719C250.16 332.063 248.396 336.37 247.118 340.737C244.894 348.338 244.154 356.428 244.035 364.323C244.009 366.085 244.003 367.853 244.09 369.614C244.264 373.153 249.79 373.174 249.616 369.614C249.414 365.509 249.567 361.362 249.88 357.268C250.434 350.002 251.497 341.984 255.1 335.524C256.285 333.399 258.061 331.619 260.019 330.192C261.758 328.923 264.105 327.302 266.358 327.302C269.913 327.302 269.919 321.778 266.358 321.778Z" fill="#211715"/>
<path d="M297.964 386.868C298.106 388.851 298.247 390.836 298.388 392.82C298.446 393.643 298.756 394.766 298.572 395.572C298.47 396.022 298.442 395.945 297.703 396.265C294.845 397.501 291.698 397.996 288.603 398.014C282.457 398.048 275.958 396.785 270.738 393.433C267.737 391.506 264.964 396.287 267.949 398.205C274.441 402.374 283.051 404.012 290.684 403.461C294.384 403.194 299.232 402.455 302.183 400.01C303.959 398.537 304.171 396.568 304.024 394.391C303.856 391.882 303.668 389.376 303.488 386.869C303.237 383.343 297.709 383.315 297.963 386.869L297.964 386.868Z" fill="#211715"/>
<path d="M305.931 419.718V433.436L307.3 431.051C297.441 436.738 287.566 442.399 277.701 448.077C275.882 449.124 274.088 450.301 272.211 451.242C269.587 452.556 267.443 451.082 265.207 449.79C259.494 446.49 253.78 443.192 248.069 439.893C244.756 437.98 241.445 436.068 238.132 434.155C235.482 432.624 231.302 431.269 231.176 427.695C231.052 424.15 225.525 424.133 225.651 427.695C225.805 432.095 228.27 434.84 231.908 436.941C234.882 438.658 237.856 440.376 240.832 442.093C247.23 445.788 253.629 449.484 260.026 453.179C262.486 454.599 265.121 456.618 267.961 457.099C271.518 457.701 274.249 456.444 277.225 454.73C282.444 451.723 287.665 448.721 292.887 445.719C298.622 442.422 304.357 439.128 310.089 435.823C310.93 435.339 311.458 434.408 311.458 433.438V419.72C311.458 416.164 305.932 416.158 305.932 419.72L305.931 419.718Z" fill="#211715"/>
<path d="M272.109 440.083V392.369C272.109 389.565 272.173 386.78 270.543 384.334C268.73 381.614 265.674 380.211 262.936 378.595C257.088 375.141 251.214 371.728 245.325 368.342C242.571 366.759 239.812 365.182 237.046 363.619C234.417 362.134 231.454 359.8 228.362 361.469C225.815 362.843 225.673 365.372 225.672 367.918C225.672 369.881 225.672 371.845 225.67 373.808C225.669 379.165 225.666 384.523 225.663 389.88C225.658 402.487 225.651 415.091 225.649 427.698C225.649 431.253 231.175 431.259 231.175 427.698C231.175 407.732 231.193 387.767 231.197 367.801C231.197 367.401 231.247 366.086 231.169 366.06C231.353 366.125 230.639 366.52 230.7 366.375C230.654 366.482 230.019 365.784 230.818 366.464C231.269 366.846 231.947 367.092 232.461 367.381C234.95 368.777 237.431 370.189 239.909 371.608C245.582 374.854 251.236 378.133 256.874 381.442C259.303 382.867 261.744 384.277 264.151 385.744C266.435 387.137 266.582 389.046 266.582 391.485V440.086C266.582 443.641 272.107 443.647 272.107 440.086L272.109 440.083Z" fill="#211715"/>
<path d="M294.501 329.556C300.211 327.731 305.307 324.258 308.041 318.787C310.67 313.525 311.465 307.35 310.8 301.54C310.087 295.317 307.698 289.379 303.206 284.913C299.261 280.99 294.078 278.234 288.604 277.222C277.335 275.139 264.955 279.723 258.566 289.447C255.185 294.594 253.98 301.067 254.494 307.143C255.014 313.275 256.924 319.666 261.4 324.101C269.784 332.407 283.813 332.824 294.501 329.556C297.892 328.518 296.446 323.183 293.033 324.228C285.322 326.586 275.835 326.901 268.663 322.737C260.015 317.717 258.145 305.285 261.23 296.445C264.339 287.528 273.997 282.177 283.132 282.207C292.708 282.24 301.688 288.232 304.423 297.572C305.943 302.76 305.894 308.527 304.209 313.671C302.441 319.066 298.356 322.526 293.033 324.228C289.658 325.307 291.1 330.643 294.501 329.556Z" fill="#211715"/>
<path d="M306.008 299.879C303.266 299.767 300.516 300.056 298.081 301.415C295.568 302.817 293.419 305.177 292.204 307.779C289.388 313.821 290.384 320.908 291.493 327.241C291.751 328.712 293.551 329.54 294.891 329.171C296.444 328.744 297.079 327.248 296.821 325.773C295.992 321.042 295.014 315.346 296.898 310.741C297.622 308.97 298.954 307.333 300.584 306.351C302.214 305.369 303.918 305.319 306.007 305.405C307.499 305.465 308.769 304.091 308.769 302.642C308.769 301.095 307.504 299.94 306.007 299.879H306.008Z" fill="#211715"/>
<path d="M248.387 286.529C242.753 289.775 237.128 293.035 231.493 296.281C230.24 297.002 229.698 298.812 230.502 300.06C231.317 301.324 232.941 301.823 234.281 301.052C239.915 297.806 245.54 294.546 251.175 291.3C252.428 290.579 252.971 288.769 252.167 287.52C251.352 286.257 249.727 285.758 248.387 286.529Z" fill="#211715"/>
<path d="M215.289 267.755C207.055 272.521 198.811 277.273 190.576 282.039C187.5 283.819 190.279 288.596 193.365 286.81C201.6 282.044 209.844 277.292 218.078 272.527C221.154 270.746 218.375 265.969 215.289 267.755Z" fill="#211715"/>
<path d="M251.176 286.535C240.143 280.171 229.112 273.801 218.082 267.432L219.451 269.818V238.9L215.294 241.286C226.32 247.662 237.361 254.012 248.389 260.388L247.02 258.003V288.92C247.02 292.476 252.545 292.481 252.545 288.92V262.21C252.545 260.825 252.647 259.386 252.545 258.003C252.414 256.228 251.109 255.577 249.701 254.764C239.165 248.673 228.617 242.606 218.083 236.513C216.271 235.465 213.927 236.798 213.927 238.899V265.693C213.927 267.176 213.627 269.102 214.025 270.551C214.443 272.072 216.126 272.683 217.363 273.397C227.704 279.368 238.045 285.338 248.389 291.305C251.475 293.085 254.261 288.311 251.178 286.533L251.176 286.535Z" fill="#211715"/>
<path d="M203.206 351.797C197.067 355.262 190.84 358.592 184.091 360.71C180.976 361.686 177.854 362.547 174.57 362.532C171.636 362.518 168.165 361.917 166.136 359.613C163.781 356.94 159.885 360.86 162.229 363.519C167.486 369.486 177.067 368.477 183.87 366.543C191.703 364.317 198.935 360.552 205.996 356.567C209.093 354.82 206.311 350.044 203.207 351.796L203.206 351.797Z" fill="#211715"/>
<path d="M206.224 335.438C211.74 337.398 216.722 341.641 217.648 347.707C217.779 348.569 217.749 349.493 217.787 350.366C217.8 350.653 217.985 351.572 217.912 351.723C217.718 352.123 215.971 352.605 215.55 352.788C214.685 353.162 213.819 353.534 212.953 353.902C209.419 355.408 205.868 356.876 202.373 358.471C201.015 359.089 200.684 361.055 201.381 362.25C202.197 363.645 203.799 363.862 205.161 363.242C209.231 361.385 213.377 359.696 217.486 357.926C219.586 357.021 221.773 356.336 222.823 354.123C223.364 352.984 223.378 351.851 223.324 350.62C223.266 349.301 223.277 347.956 223.053 346.653C221.639 338.448 215.244 332.795 207.693 330.11C206.286 329.61 204.669 330.675 204.294 332.04C203.874 333.569 204.812 334.936 206.224 335.438Z" fill="#211715"/>
<path d="M198.473 397.385C200.312 400.892 204.13 402.82 207.992 403C212.231 403.197 216.46 401.119 220.217 399.393C223.781 397.756 227.256 395.626 229.674 392.475C232.402 388.918 231.648 383.979 228.468 380.987C225.536 378.228 220.711 377.702 216.837 377.974C215.348 378.079 214.074 379.169 214.074 380.737C214.074 382.151 215.341 383.604 216.837 383.499C219.358 383.322 223.202 383.305 225.012 385.349C227.491 388.15 223.875 390.931 221.642 392.365C218.505 394.38 214.792 396.052 211.198 397.05C208.274 397.863 204.795 397.557 203.243 394.597C201.591 391.446 196.821 394.237 198.472 397.386L198.473 397.385Z" fill="#211715"/>
<path d="M215.494 355.27C215.057 361.911 214.734 368.516 213.898 375.13C213.695 376.737 213.464 378.341 213.213 379.944C213.084 380.766 212.971 381.59 212.741 382.391C212.637 382.751 212.503 383.088 212.379 383.437C212.336 383.559 211.964 384.027 212.271 383.723C212.659 383.338 211.858 383.887 211.693 383.952C211.385 384.074 211.04 384.147 210.715 384.215C210.03 384.356 209.331 384.387 208.635 384.426C206.766 384.528 204.896 384.586 203.025 384.661C199.482 384.803 199.464 390.33 203.025 390.186C206.77 390.036 211.345 390.471 214.742 388.614C218.201 386.723 218.437 382.268 218.93 378.789C220.042 370.962 220.498 363.149 221.016 355.273C221.25 351.723 215.723 351.736 215.491 355.273L215.494 355.27Z" fill="#211715"/>
<path d="M200.331 371.408C200.331 381.515 200.309 391.624 200.309 401.732C200.309 405.287 205.834 405.293 205.834 401.732C205.834 391.624 205.856 381.515 205.856 371.408C205.856 367.852 200.331 367.847 200.331 371.408Z" fill="#211715"/>
<path d="M200.311 357.621V371.339L201.68 368.953C191.821 374.64 181.946 380.301 172.082 385.98C170.263 387.027 168.468 388.204 166.591 389.144C163.968 390.458 161.824 388.984 159.587 387.693C153.874 384.393 148.161 381.094 142.449 377.795C139.136 375.882 135.825 373.97 132.513 372.057C129.862 370.526 125.682 369.171 125.556 365.598C125.432 362.052 119.905 362.035 120.031 365.598C120.186 369.997 122.65 372.742 126.288 374.843C129.263 376.56 132.237 378.279 135.212 379.996C141.61 383.691 148.009 387.386 154.406 391.081C156.866 392.501 159.502 394.521 162.342 395.001C165.899 395.604 168.63 394.347 171.605 392.632C176.824 389.625 182.045 386.623 187.267 383.622C193.002 380.324 198.738 377.03 204.469 373.726C205.31 373.241 205.838 372.31 205.838 371.34V357.622C205.838 354.066 200.313 354.061 200.313 357.622L200.311 357.621Z" fill="#211715"/>
<path d="M227.379 320.34C228.961 319.812 230.429 318.623 231.766 317.664C233.385 316.504 234.975 315.28 236.471 313.963C238.057 312.568 239.407 311.075 240.14 309.059C240.838 307.146 240.712 305.105 240.295 303.145C239.419 299.028 235.999 296.141 231.846 295.66C230.095 295.457 228.367 296.212 226.637 295.992C225.169 295.805 223.855 294.452 222.254 294.148C217.087 293.167 214.618 299.303 212.449 302.853C210.59 305.896 215.367 308.674 217.221 305.642C218.327 303.831 219.329 301.773 220.648 300.108C220.588 300.183 221.134 299.592 221.104 299.622C221.069 299.657 221.548 299.494 221.199 299.549C220.867 299.601 221.566 299.69 221.355 299.594C221.768 299.781 222.153 300.025 222.55 300.242C224.382 301.248 226.257 301.671 228.345 301.426C230.037 301.229 231.509 300.835 233.059 301.745C234.447 302.56 234.847 303.544 235.07 305.157C235.265 306.559 234.942 307.793 233.918 308.797C232.677 310.015 231.335 311.133 229.947 312.177C229.179 312.755 228.396 313.31 227.597 313.845C227.165 314.135 226.73 314.419 226.286 314.693C226.058 314.834 224.911 315.339 225.909 315.006C224.495 315.477 223.569 316.911 223.98 318.404C224.359 319.787 225.956 320.808 227.378 320.334L227.379 320.34Z" fill="#211715"/>
<path d="M186.62 281.919C193.25 289.442 195.226 299.377 199.806 308.046C200.946 310.202 202.338 312.734 205.242 312.013C206.322 311.745 207.379 311.153 208.463 310.842C209.663 310.498 210.871 310.19 212.045 309.764C212.375 309.644 213.4 309.034 213.663 309.086C213.682 309.09 214.697 310.182 214.707 310.191C215.871 311.276 217.036 312.361 218.2 313.446C219.365 314.53 220.529 315.616 221.694 316.7C222.594 317.539 224.023 318.457 224.561 319.528L224.184 318.134C224.52 317.63 224.535 317.565 224.233 317.938C224.025 318.174 223.817 318.41 223.607 318.645C223.188 319.115 222.766 319.583 222.337 320.044C221.625 320.812 220.897 321.569 220.145 322.3C218.518 323.883 216.79 325.335 214.893 326.584C211.497 328.82 207.481 330.664 203.316 330.004C194.597 328.621 190.188 320.474 185.399 314C184.513 312.802 183.005 312.197 181.619 313.008C180.438 313.699 179.735 315.581 180.627 316.787C184.175 321.582 187.443 327.193 192.184 330.917C196.89 334.615 203.087 336.491 209.007 335.213C215.268 333.862 220.792 329.594 225.161 325.091C227.161 323.028 230.652 320.299 229.471 317.066C228.961 315.671 227.646 314.697 226.598 313.721C225.267 312.482 223.936 311.241 222.605 310.002C221.108 308.607 219.611 307.213 218.115 305.818C216.656 304.46 215.236 303.439 213.157 303.622C211.531 303.764 209.897 304.699 208.321 305.144C207.544 305.363 206.761 305.561 205.993 305.808C205.68 305.909 205.367 306.015 205.059 306.133C204.887 306.198 203.679 306.609 204.059 306.598L205.453 306.975C205.803 307.404 205.8 307.353 205.446 306.822C205.274 306.528 205.105 306.231 204.941 305.933C204.61 305.333 204.296 304.725 203.992 304.112C203.409 302.931 202.87 301.728 202.363 300.513C201.341 298.064 200.417 295.577 199.401 293.125C197.135 287.646 194.471 282.488 190.525 278.011C188.17 275.338 184.274 279.259 186.618 281.918L186.62 281.919Z" fill="#211715"/>
<path d="M120.042 367.383C120.042 378.833 120.031 390.283 120.031 401.733C120.031 405.288 125.557 405.294 125.557 401.733C125.557 390.283 125.568 378.833 125.568 367.383C125.568 363.827 120.042 363.822 120.042 367.383Z" fill="#211715"/>
<path d="M161.143 392.43V425.456C161.143 429.012 166.668 429.017 166.668 425.456V392.43C166.668 388.874 161.143 388.868 161.143 392.43Z" fill="#211715"/>
<path d="M180.405 305.047C180.322 304.685 180.256 304.322 180.205 303.954L180.303 304.689C180.18 303.713 180.177 302.732 180.299 301.754L180.201 302.489C180.277 301.938 180.387 301.393 180.549 300.862C180.629 300.598 180.73 300.344 180.822 300.085C180.505 300.98 180.817 300.127 180.948 299.884C181.077 299.646 181.216 299.415 181.368 299.191C181.495 299.004 181.814 298.716 181.255 299.317C181.346 299.219 181.425 299.109 181.515 299.008C181.679 298.823 181.853 298.647 182.035 298.481C182.117 298.407 182.524 298.082 182.12 298.392C181.697 298.715 182.198 298.343 182.284 298.285C183.479 297.477 184.12 295.817 183.276 294.506C182.508 293.315 180.777 292.649 179.496 293.514C175.267 296.373 173.982 301.718 175.079 306.515C175.401 307.926 177.101 308.89 178.477 308.445C179.952 307.967 180.751 306.558 180.405 305.047Z" fill="#211715"/>
<path d="M180.203 277.404C181.787 278.184 183.324 279.038 184.726 280.119L184.166 279.687C185.039 280.368 185.871 281.1 186.619 281.917C187.599 282.984 189.547 282.983 190.526 281.917C191.574 280.774 191.57 279.148 190.526 278.01C188.418 275.711 185.77 274.003 182.991 272.632C182.318 272.301 181.604 272.149 180.862 272.353C180.221 272.53 179.526 273.025 179.211 273.623C178.873 274.264 178.703 275.04 178.932 275.752C179.145 276.409 179.561 277.087 180.202 277.402L180.203 277.404Z" fill="#211715"/>
<path d="M140.378 308.241C140.432 302.389 140.834 296.507 141.946 290.755C143.245 284.042 145.21 277.311 150.958 273.095C152.16 272.213 152.758 270.698 151.95 269.315C151.256 268.13 149.379 267.437 148.17 268.324C144.814 270.786 142.028 273.679 140.277 277.496C138.7 280.935 137.603 284.552 136.828 288.251C135.455 294.807 134.915 301.551 134.854 308.241C134.821 311.798 140.345 311.8 140.378 308.241Z" fill="#211715"/>
<path d="M191.903 329.346C192.039 331.126 192.17 332.907 192.29 334.689C192.316 335.084 192.39 335.547 192.359 335.95C192.327 336.374 192.301 336.211 192.391 336.112C192.122 336.411 191.316 336.603 190.953 336.743C188.037 337.862 184.974 338.311 181.862 338.28C176.189 338.224 169.988 337.134 165.119 334.074C162.099 332.176 159.323 336.956 162.33 338.845C165.079 340.572 168.256 341.793 171.422 342.484C175.515 343.376 179.757 343.991 183.955 343.762C187.647 343.56 191.812 342.828 195.051 340.934C199.161 338.532 197.728 333.283 197.429 329.347C197.161 325.823 191.633 325.793 191.903 329.346Z" fill="#211715"/>
<path d="M166.491 376.151V328.615C166.491 325.339 165.641 322.245 163.025 320.066C160.801 318.215 157.997 316.892 155.509 315.429C149.674 311.996 143.82 308.598 137.948 305.232C135.298 303.712 132.645 302.201 129.981 300.705C127.235 299.162 124.033 297.534 121.416 300.389C119.828 302.12 120.055 304.384 120.055 306.545C120.055 308.493 120.055 310.441 120.054 312.389C120.052 317.82 120.049 323.25 120.047 328.682C120.041 340.987 120.034 353.293 120.034 365.598C120.034 369.154 125.56 369.16 125.56 365.598C125.56 345.873 125.576 326.147 125.582 306.42C125.582 305.755 125.613 305.084 125.582 304.42C125.582 304.393 125.611 304.088 125.582 304.041C125.315 303.616 125.775 304.183 125.444 304.141C124.434 304.012 125.42 304.482 125.841 304.718C128.172 306.018 130.492 307.336 132.81 308.659C138.405 311.853 143.98 315.079 149.54 318.334C151.963 319.753 154.384 321.175 156.799 322.609C159.149 324.004 160.946 325.071 160.968 328.061C161.001 332.621 160.968 337.184 160.968 341.744V376.152C160.968 379.708 166.493 379.713 166.493 376.152L166.491 376.151Z" fill="#211715"/>
<path d="M193.989 246.188C194.446 250.346 193.932 254.995 192.114 258.795C190.204 262.79 186.823 265.41 182.659 266.829C181.247 267.309 180.317 268.727 180.729 270.227C181.107 271.603 182.708 272.639 184.127 272.157C189.448 270.346 194.16 267.021 196.728 261.906C199.097 257.187 200.09 251.442 199.514 246.188C199.351 244.705 198.361 243.426 196.751 243.426C195.384 243.426 193.824 244.695 193.989 246.188Z" fill="#211715"/>
<path d="M142.605 257.673C142.87 261.034 143.229 264.51 144.528 267.644C145.814 270.747 147.656 273.019 150.39 274.965C155.609 278.681 162.851 280.303 169.178 280.401C173.829 280.473 178.423 279.58 182.625 277.583C183.975 276.941 185.41 276.289 186.283 275.011C187.368 273.424 186.535 271.309 186.213 269.56C185.579 266.105 185.033 262.619 185.155 259.095C185.269 255.77 186.086 252.455 188.792 250.282C191.175 248.367 194.211 248.731 197.069 248.985C199.051 249.162 199.967 247.088 199.734 245.487C197.801 232.25 186.995 222.22 173.721 221.116C167.56 220.603 160.794 221.921 155.544 225.267C150.459 228.508 146.927 233.54 144.848 239.136C142.711 244.885 142.196 251.587 142.606 257.672C142.844 261.201 148.371 261.228 148.132 257.672C147.504 248.373 149.078 237.544 156.667 231.244C164.595 224.663 177.878 225.047 185.797 231.372C190.629 235.232 193.522 240.895 194.406 246.955L197.07 243.458C193.888 243.175 190.666 243.073 187.709 244.475C184.768 245.87 182.429 248.55 181.142 251.503C178.071 258.545 180.131 266.859 181.451 274.069L182.161 271.381C181.298 272.401 179.537 273.008 178.629 273.338C177.331 273.81 176.003 274.179 174.647 274.442C171.124 275.124 167.386 275.015 163.875 274.327C159.763 273.523 155.212 272.178 152.06 269.278C148.925 266.394 148.449 261.678 148.133 257.671C147.854 254.15 142.327 254.119 142.608 257.671L142.605 257.673Z" fill="#211715"/>
<path d="M116.224 160.56C116.224 166.446 116.216 172.332 116.214 178.218C116.214 180.321 118.559 181.65 120.371 180.604C126.22 177.228 132.067 173.85 137.914 170.473C140.041 169.244 142.279 168.114 144.335 166.765C145.85 165.772 145.76 164.313 145.762 162.754C145.762 160.95 145.763 159.146 145.764 157.34C145.766 153.789 145.768 150.239 145.768 146.687C145.768 144.585 143.423 143.255 141.612 144.302C133.606 148.925 125.597 153.547 117.593 158.175C114.515 159.954 117.295 164.731 120.382 162.946C128.387 158.318 136.395 153.698 144.401 149.073L140.244 146.687C140.244 152.573 140.238 158.459 140.236 164.345L141.605 161.96C133.597 166.583 125.591 171.208 117.583 175.831L121.74 178.217C121.74 172.331 121.748 166.445 121.749 160.559C121.749 157.003 116.224 156.999 116.224 160.56Z" fill="#211715"/>
<path d="M130.58 84.395C119.734 90.6581 108.887 96.9225 98.0411 103.187C96.0961 104.31 94.1512 105.433 92.2062 106.557C89.1286 108.337 91.9079 113.113 94.9952 111.329C105.672 105.157 116.351 98.9932 127.03 92.8268C129.144 91.6071 131.256 90.386 133.369 89.1662C136.448 87.3884 133.669 82.6117 130.58 84.395Z" fill="#211715"/>
<path d="M128.279 103.911C117.433 110.174 106.586 116.438 95.7398 122.703C93.7949 123.826 91.8499 124.949 89.905 126.073C86.8273 127.852 89.6066 132.629 92.6939 130.844C103.37 124.672 114.05 118.509 124.729 112.342C126.842 111.123 128.954 109.902 131.068 108.682C134.147 106.904 131.368 102.127 128.279 103.911Z" fill="#211715"/>
<path d="M151.177 115.156C151.177 127.613 151.171 140.07 151.168 152.529C151.168 154.366 151.168 156.202 151.168 158.039C151.168 160.141 153.513 161.47 155.325 160.424C159.7 157.899 164.073 155.373 168.446 152.846C171.077 151.327 173.707 149.809 176.337 148.289C178.044 147.303 180.569 146.398 180.714 144.145C180.941 140.623 180.714 137.013 180.716 133.485C180.716 126.969 180.718 120.454 180.72 113.936C180.72 109.719 180.721 105.5 180.723 101.283C180.723 99.1807 178.378 97.8504 176.566 98.8975C168.56 103.521 160.551 108.143 152.547 112.77C149.469 114.55 152.249 119.326 155.336 117.542C163.341 112.914 171.349 108.293 179.355 103.669L175.199 101.283C175.199 113.768 175.194 126.254 175.192 138.739C175.192 140.548 175.192 142.356 175.192 144.166L176.561 141.78C168.553 146.404 160.546 151.028 152.539 155.652L156.695 158.037C156.695 145.556 156.701 133.075 156.704 120.593C156.704 118.781 156.704 116.968 156.704 115.156C156.704 111.6 151.177 111.595 151.177 115.156Z" fill="#211715"/>
<path d="M186.128 69.7518C186.128 77.4321 186.125 85.1138 186.125 92.7941C186.124 104.935 186.121 117.077 186.12 129.218C186.12 132.098 186.12 134.978 186.12 137.858C186.12 139.961 188.464 141.289 190.276 140.244C196.73 136.517 203.183 132.79 209.637 129.063C211.621 127.918 215.515 126.537 215.665 123.904C215.747 122.479 215.665 121.026 215.665 119.601C215.667 103.46 215.67 87.3198 215.671 71.1787C215.671 66.0787 215.672 60.9788 215.672 55.8788C215.672 53.7764 213.328 52.4461 211.516 53.4932C203.51 58.1166 195.5 62.7386 187.497 67.3662C184.419 69.1453 187.198 73.9221 190.286 72.1374C198.291 67.5098 206.298 62.8892 214.305 58.2644L210.148 55.8788C210.148 63.602 210.147 71.3237 210.146 79.0469C210.144 91.1918 210.143 103.337 210.141 115.482C210.141 118.316 210.141 121.151 210.141 123.987L211.51 121.601C203.503 126.224 195.496 130.849 187.489 135.472L191.645 137.858C191.645 130.143 191.648 122.43 191.648 114.715C191.649 102.582 191.652 90.4514 191.653 78.3189C191.653 75.4637 191.653 72.607 191.653 69.7518C191.653 66.1961 186.128 66.1906 186.128 69.7518Z" fill="#211715"/>
<path d="M363.89 328.993C355.266 324.013 346.642 319.033 338.018 314.053C336.612 313.241 335.206 312.429 333.8 311.618C332.939 311.121 331.871 311.121 331.011 311.618C324.068 315.628 317.128 319.644 310.186 323.654C308.393 324.69 308.394 327.389 310.186 328.425C320.213 334.221 330.244 340.009 340.273 345.801C341.133 346.298 342.201 346.298 343.062 345.801C350.004 341.791 356.946 337.777 363.89 333.767C365.035 333.105 365.368 331.866 365.159 330.646C364.908 329.174 363.096 328.349 361.761 328.715C360.203 329.143 359.58 330.638 359.831 332.113C360.254 331.074 360.678 330.034 361.101 328.994C354.157 333.004 347.217 337.018 340.273 341.029H343.062C333.032 335.236 323.002 329.449 312.974 323.652V328.424C319.917 324.414 326.857 320.398 333.8 316.388H331.011C339.716 321.415 348.42 326.441 357.125 331.468C358.45 332.233 359.775 332.999 361.101 333.764C364.185 335.545 366.972 330.772 363.89 328.993Z" fill="#211715"/>
<path d="M427.81 291.871V285.144C427.81 284.174 427.284 283.244 426.441 282.758C413.345 275.201 400.247 267.643 387.156 260.076C385.343 259.029 382.999 260.359 382.999 262.462V300.214C382.999 301.183 383.525 302.115 384.368 302.6C397.601 310.225 410.826 317.867 424.054 325.503C424.913 325.999 425.984 326 426.843 325.503C434.855 320.863 442.881 316.246 450.893 311.606C453.969 309.824 451.19 305.048 448.104 306.835C440.092 311.475 432.066 316.092 424.054 320.732H426.843C413.615 313.095 400.39 305.454 387.157 297.829L388.526 300.214V262.462L384.369 264.847C397.46 272.414 410.558 279.972 423.655 287.529L422.286 285.144V291.871C422.286 295.426 427.81 295.432 427.81 291.871Z" fill="#211715"/>
<path d="M441.789 298.34C436.667 295.399 431.555 292.443 426.443 289.486C424.63 288.437 422.286 289.77 422.286 291.871V312.536C422.286 316.092 427.812 316.098 427.812 312.536V291.871L423.655 294.257C428.767 297.214 433.88 300.171 439.002 303.111C442.091 304.885 444.877 300.113 441.791 298.34H441.789Z" fill="#211715"/>
</svg>
