<svg width="300" height="276" viewBox="0 0 300 276" fill="none" xmlns="http://www.w3.org/2000/svg">
<mask id="path-1-inside-1_2373_1321" fill="white">
<path fill-rule="evenodd" clip-rule="evenodd" d="M0 275.545L57.3035 137.772L0 0H242.696H242.697V0.00179761L300 137.772L242.697 275.543V275.545H242.696H0Z"/>
</mask>
<path d="M57.3035 137.772L60.0735 138.925L60.5526 137.772L60.0735 136.62L57.3035 137.772ZM0 275.545L-2.76996 274.393L-4.49693 278.545H0V275.545ZM0 0V-3H-4.49693L-2.76996 1.1521L0 0ZM242.697 0H245.697V-3H242.697V0ZM242.697 0.00179761H239.697V0.600819L239.927 1.15391L242.697 0.00179761ZM300 137.772L302.77 138.925L303.249 137.772L302.77 136.62L300 137.772ZM242.697 275.543L239.927 274.391L239.697 274.944V275.543H242.697ZM242.697 275.545V278.545H245.697V275.545H242.697ZM54.5335 136.62L-2.76996 274.393L2.76996 276.697L60.0735 138.925L54.5335 136.62ZM-2.76996 1.1521L54.5335 138.925L60.0735 136.62L2.76996 -1.1521L-2.76996 1.1521ZM242.696 -3H0V3H242.696V-3ZM242.697 -3H242.696V3H242.697V-3ZM245.697 0.00179761V0H239.697V0.00179761H245.697ZM302.77 136.62L245.467 -1.15031L239.927 1.15391L297.23 138.925L302.77 136.62ZM245.467 276.695L302.77 138.925L297.23 136.62L239.927 274.391L245.467 276.695ZM245.697 275.545V275.543H239.697V275.545H245.697ZM242.696 278.545H242.697V272.545H242.696V278.545ZM0 278.545H242.696V272.545H0V278.545Z" fill="white" mask="url(#path-1-inside-1_2373_1321)"/>
</svg>
