<svg width="105" height="179" viewBox="0 0 105 179" fill="none" xmlns="http://www.w3.org/2000/svg">
<rect y="148.187" width="104.499" height="30.0146" fill="#48A0F0"/>
<path d="M17.4277 153.933H29.5077V155.193H17.4277V153.933ZM16.8677 165.613H29.7677V166.893H16.8677V165.613ZM22.6877 152.253H24.1477V157.233H22.6877V152.253ZM20.3877 159.873V161.153H26.5277V159.873H20.3877ZM20.3877 162.153V163.433H26.5277V162.153H20.3877ZM20.3877 157.653V158.893H26.5277V157.653H20.3877ZM19.0077 156.613H27.9677V164.473H19.0077V156.613ZM24.5077 167.913L25.5477 167.153C27.1277 168.013 28.8677 169.093 29.9077 169.913L28.5277 170.673C27.6077 169.873 26.0077 168.773 24.5077 167.913ZM20.8277 167.213L22.2277 167.693C20.9877 168.873 19.0477 169.993 17.4077 170.693C17.1677 170.413 16.6077 169.873 16.2877 169.633C17.9477 169.053 19.7477 168.153 20.8277 167.213ZM11.5877 157.153H17.4877V158.573H11.5877V157.153ZM13.9277 152.513H15.3477V165.553H13.9277V152.513ZM11.2077 165.973C12.8277 165.373 15.2677 164.333 17.6277 163.333L17.9677 164.733C15.8477 165.713 13.5477 166.713 11.7877 167.473L11.2077 165.973ZM40.9677 152.273H42.4677V154.733H40.9677V152.273ZM33.2477 153.873H50.2477V157.433H48.8277V155.193H34.6277V157.433H33.2477V153.873ZM40.2877 155.833L41.2477 156.813C39.9277 157.353 38.1277 157.813 36.6077 158.093C36.5477 157.833 36.3677 157.413 36.2277 157.153C37.6477 156.793 39.3277 156.293 40.2877 155.833ZM35.6877 156.853L37.0477 157.153V162.433H35.6877V156.853ZM35.6877 161.733H46.5077V157.953H42.3277V156.853H47.8877V162.853H35.6877V161.733ZM36.1677 159.293H40.8877V160.373H36.1677V159.293ZM42.6277 159.293H47.2077V160.373H42.6277V159.293ZM38.4477 162.253L39.7877 162.653C38.4077 164.833 35.9277 166.613 33.5077 167.713C33.3277 167.413 32.8877 166.793 32.6077 166.513C34.9277 165.613 37.2477 164.093 38.4477 162.253ZM37.5877 164.153H48.6877V165.373H36.3477L37.5877 164.153ZM48.2077 164.153H49.6877C49.6877 164.153 49.6677 164.553 49.6477 164.753C49.4277 168.213 49.1877 169.573 48.7077 170.093C48.3477 170.453 47.9877 170.573 47.4277 170.613C46.9277 170.653 45.9677 170.633 44.9677 170.593C44.9477 170.193 44.7877 169.633 44.5477 169.273C45.5277 169.353 46.4477 169.373 46.7677 169.353C47.1277 169.373 47.3077 169.353 47.4677 169.193C47.8077 168.833 48.0077 167.593 48.2077 164.353V164.153ZM35.9477 166.173L37.1477 166.553C36.8477 167.973 36.2877 169.513 35.1877 170.413L34.0877 169.733C35.0677 168.933 35.6477 167.493 35.9477 166.173ZM38.3277 166.513L39.5077 166.373C39.9277 167.493 40.2477 168.933 40.2477 169.853L39.0077 170.033C39.0277 169.113 38.7477 167.653 38.3277 166.513ZM41.1477 166.413L42.2477 166.113C42.8677 167.053 43.4277 168.333 43.5877 169.153L42.4477 169.513C42.2877 168.673 41.7477 167.393 41.1477 166.413ZM43.9277 166.313L44.9277 165.833C45.6277 166.473 46.3677 167.373 46.6877 168.033L45.6277 168.553C45.3477 167.913 44.6077 166.953 43.9277 166.313ZM54.9277 153.933H70.9877V155.233H54.9277V153.933ZM55.8477 156.873H70.2077V158.133H55.8477V156.873ZM54.1877 159.933H71.6677V161.253H54.1877V159.933ZM62.1277 152.253H63.6477V160.953H62.1277V152.253ZM62.0677 160.373L63.3677 160.993C61.2877 163.273 57.5877 165.373 54.4877 166.393C54.2477 166.013 53.8277 165.453 53.5077 165.153C56.5877 164.273 60.2077 162.353 62.0677 160.373ZM64.2477 160.573C65.4477 164.853 68.0477 168.013 72.2877 169.273C71.9477 169.573 71.5277 170.193 71.3077 170.593C66.8877 169.073 64.2677 165.693 62.8877 160.853L64.2477 160.573ZM69.9477 161.913L71.1477 162.853C69.7277 163.993 67.8277 165.213 66.3877 166.013L65.4677 165.193C66.8677 164.353 68.8077 162.973 69.9477 161.913ZM55.7277 169.273C58.0277 168.773 61.6277 167.873 65.0477 167.033L65.1877 168.373C62.0277 169.193 58.6077 170.053 56.2077 170.653L55.7277 169.273ZM58.5477 164.093L59.6277 163.013L60.0477 163.133V169.173H58.5477V164.093ZM83.3077 158.653H84.8477V170.653H83.3077V158.653ZM78.7677 162.033V163.773H89.6477V162.033H78.7677ZM78.7677 159.173V160.873H89.6477V159.173H78.7677ZM77.3077 157.953H91.1677V164.973H77.3077V157.953ZM75.2877 166.513H93.0277V167.833H75.2877V166.513ZM78.1277 154.053V155.953H81.9677V154.053H78.1277ZM76.7677 153.053H83.3677V156.953H76.7677V153.053ZM86.3477 154.053V155.953H90.2277V154.053H86.3477ZM84.9877 153.053H91.6477V156.953H84.9877V153.053Z" fill="white"/>
<path fill-rule="evenodd" clip-rule="evenodd" d="M53.0703 11.9443C55.9955 11.5439 58.249 9.0351 58.249 6C58.249 2.68629 55.5627 0 52.249 0C48.9353 0 46.249 2.68629 46.249 6C46.249 8.91027 48.321 11.3366 51.0703 11.8843L51.0703 148.187H53.0703L53.0703 11.9443Z" fill="#48A0F0"/>
</svg>
